<svg xmlns="http://www.w3.org/2000/svg" width="1600" height="1000" viewBox="0 0 1600 1000">
<style>
  text {
    font-family: Arial, sans-serif;
    font-size: 12px;
    fill: #333;
  }
  .axis-label { font-size: 14px; }
  .title { font-size: 18px; font-weight: bold; }
  .legend-item { font-size: 11px; }
  .legend-box { fill: white; fill-opacity: 0.85; stroke: #cccccc; stroke-width: 1; rx: 5; }
</style>
<text x="800.0" y="30" text-anchor="middle" class="title">Daily Data Growth Trend</text>
<text x="800.0" y="980" text-anchor="middle" class="axis-label">Date</text>
<g transform="rotate(-90)">
<text x="-500.0" y="20" text-anchor="middle" class="axis-label">Count</text>
</g>
<rect x="0" y="0" width="1600" height="1000" fill="#f8f8f8" />
<line x1="80" y1="920.0" x2="1520" y2="920.0" stroke="#e0e0e0" stroke-width="1" />
<text x="70" y="925.0" text-anchor="end">0</text>
<line x1="80" y1="752.0" x2="1520" y2="752.0" stroke="#e0e0e0" stroke-width="1" />
<text x="70" y="757.0" text-anchor="end">14.2k</text>
<line x1="80" y1="584.0" x2="1520" y2="584.0" stroke="#e0e0e0" stroke-width="1" />
<text x="70" y="589.0" text-anchor="end">28.5k</text>
<line x1="80" y1="416.0" x2="1520" y2="416.0" stroke="#e0e0e0" stroke-width="1" />
<text x="70" y="421.0" text-anchor="end">42.7k</text>
<line x1="80" y1="248.0" x2="1520" y2="248.0" stroke="#e0e0e0" stroke-width="1" />
<text x="70" y="253.0" text-anchor="end">57.0k</text>
<line x1="80" y1="80.0" x2="1520" y2="80.0" stroke="#e0e0e0" stroke-width="1" />
<text x="70" y="85.0" text-anchor="end">71.2k</text>
<line x1="80" y1="80" x2="80" y2="920" stroke="#333333" stroke-width="2" />
<line x1="80" y1="920" x2="1520" y2="920" stroke="#333333" stroke-width="2" />
<circle cx="80.0" cy="920.0" r="4" fill="#1f77b4" />
<circle cx="152.0" cy="862.3610394587504" r="4" fill="#1f77b4" />
<circle cx="224.0" cy="740.2084223869817" r="4" fill="#1f77b4" />
<circle cx="296.0" cy="691.0714443641939" r="4" fill="#1f77b4" />
<circle cx="368.0" cy="661.4972804858276" r="4" fill="#1f77b4" />
<circle cx="440.0" cy="646.6512388897897" r="4" fill="#1f77b4" />
<circle cx="512.0" cy="617.0770750114234" r="4" fill="#1f77b4" />
<circle cx="584.0" cy="585.1563167902364" r="4" fill="#1f77b4" />
<circle cx="656.0" cy="555.7354480196925" r="4" fill="#1f77b4" />
<circle cx="728.0" cy="531.7506596111612" r="4" fill="#1f77b4" />
<circle cx="800.0" cy="509.8766269180314" r="4" fill="#1f77b4" />
<circle cx="872.0" cy="496.1272349394927" r="4" fill="#1f77b4" />
<circle cx="944.0" cy="482.51934613740553" r="4" fill="#1f77b4" />
<circle cx="1016.0" cy="462.0603452087909" r="4" fill="#1f77b4" />
<circle cx="1088.0" cy="433.0050263107469" r="4" fill="#1f77b4" />
<circle cx="1160.0" cy="401.5795292071401" r="4" fill="#1f77b4" />
<circle cx="1232.0" cy="380.7196026119128" r="4" fill="#1f77b4" />
<circle cx="1304.0" cy="352.17133676282015" r="4" fill="#1f77b4" />
<circle cx="1376.0" cy="340.3794053918607" r="4" fill="#1f77b4" />
<circle cx="1448.0" cy="329.5190365992071" r="4" fill="#1f77b4" />
<circle cx="1520.0" cy="306.15922055333647" r="4" fill="#1f77b4" />
<path d="M 80.0 920.0 L 152.0 862.3610394587504 L 224.0 740.2084223869817 L 296.0 691.0714443641939 L 368.0 661.4972804858276 L 440.0 646.6512388897897 L 512.0 617.0770750114234 L 584.0 585.1563167902364 L 656.0 555.7354480196925 L 728.0 531.7506596111612 L 800.0 509.8766269180314 L 872.0 496.1272349394927 L 944.0 482.51934613740553 L 1016.0 462.0603452087909 L 1088.0 433.0050263107469 L 1160.0 401.5795292071401 L 1232.0 380.7196026119128 L 1304.0 352.17133676282015 L 1376.0 340.3794053918607 L 1448.0 329.5190365992071 L 1520.0 306.15922055333647" fill="none" stroke="#1f77b4" stroke-width="2" />
<circle cx="80.0" cy="920.0" r="4" fill="#ff7f0e" />
<circle cx="152.0" cy="499.31105640965177" r="4" fill="#ff7f0e" />
<circle cx="224.0" cy="411.5437112156008" r="4" fill="#ff7f0e" />
<circle cx="296.0" cy="383.39637103312066" r="4" fill="#ff7f0e" />
<circle cx="368.0" cy="369.5290597408724" r="4" fill="#ff7f0e" />
<circle cx="440.0" cy="358.6804828795897" r="4" fill="#ff7f0e" />
<circle cx="512.0" cy="339.34171543121624" r="4" fill="#ff7f0e" />
<circle cx="584.0" cy="314.8027062482497" r="4" fill="#ff7f0e" />
<circle cx="656.0" cy="295.22810017245706" r="4" fill="#ff7f0e" />
<circle cx="728.0" cy="279.0967380569846" r="4" fill="#ff7f0e" />
<circle cx="800.0" cy="262.77670503957677" r="4" fill="#ff7f0e" />
<circle cx="872.0" cy="254.25113865837307" r="4" fill="#ff7f0e" />
<circle cx="944.0" cy="243.69736008136442" r="4" fill="#ff7f0e" />
<circle cx="1016.0" cy="231.69317394572772" r="4" fill="#ff7f0e" />
<circle cx="1088.0" cy="215.63256341848103" r="4" fill="#ff7f0e" />
<circle cx="1160.0" cy="194.13587252922196" r="4" fill="#ff7f0e" />
<circle cx="1232.0" cy="180.3393128251995" r="4" fill="#ff7f0e" />
<circle cx="1304.0" cy="163.1113010922278" r="4" fill="#ff7f0e" />
<circle cx="1376.0" cy="152.62827410344482" r="4" fill="#ff7f0e" />
<circle cx="1448.0" cy="144.26779476143463" r="4" fill="#ff7f0e" />
<circle cx="1520.0" cy="125.27099332281898" r="4" fill="#ff7f0e" />
<path d="M 80.0 920.0 L 152.0 499.31105640965177 L 224.0 411.5437112156008 L 296.0 383.39637103312066 L 368.0 369.5290597408724 L 440.0 358.6804828795897 L 512.0 339.34171543121624 L 584.0 314.8027062482497 L 656.0 295.22810017245706 L 728.0 279.0967380569846 L 800.0 262.77670503957677 L 872.0 254.25113865837307 L 944.0 243.69736008136442 L 1016.0 231.69317394572772 L 1088.0 215.63256341848103 L 1160.0 194.13587252922196 L 1232.0 180.3393128251995 L 1304.0 163.1113010922278 L 1376.0 152.62827410344482 L 1448.0 144.26779476143463 L 1520.0 125.27099332281898" fill="none" stroke="#ff7f0e" stroke-width="2" />
<circle cx="80.0" cy="920.0" r="4" fill="#2ca02c" />
<circle cx="152.0" cy="491.0449125186092" r="4" fill="#2ca02c" />
<circle cx="224.0" cy="403.6195333343161" r="4" fill="#2ca02c" />
<circle cx="296.0" cy="375.743407573368" r="4" fill="#2ca02c" />
<circle cx="368.0" cy="362.088351045797" r="4" fill="#2ca02c" />
<circle cx="440.0" cy="351.26335804725625" r="4" fill="#2ca02c" />
<circle cx="512.0" cy="332.12505343218913" r="4" fill="#2ca02c" />
<circle cx="584.0" cy="307.9044263962385" r="4" fill="#2ca02c" />
<circle cx="656.0" cy="288.553867016494" r="4" fill="#2ca02c" />
<circle cx="728.0" cy="272.55221614610207" r="4" fill="#2ca02c" />
<circle cx="800.0" cy="256.31472664829096" r="4" fill="#2ca02c" />
<circle cx="872.0" cy="247.91887151216793" r="4" fill="#2ca02c" />
<circle cx="944.0" cy="237.36509293515917" r="4" fill="#2ca02c" />
<circle cx="1016.0" cy="225.39628259363542" r="4" fill="#2ca02c" />
<circle cx="1088.0" cy="209.68943000751744" r="4" fill="#2ca02c" />
<circle cx="1160.0" cy="188.65262444172583" r="4" fill="#2ca02c" />
<circle cx="1232.0" cy="174.91502439455815" r="4" fill="#2ca02c" />
<circle cx="1304.0" cy="157.69880459295734" r="4" fill="#2ca02c" />
<circle cx="1376.0" cy="147.20398567280347" r="4" fill="#2ca02c" />
<circle cx="1448.0" cy="138.8670901935352" r="4" fill="#2ca02c" />
<circle cx="1520.0" cy="120.00000000000011" r="4" fill="#2ca02c" />
<path d="M 80.0 920.0 L 152.0 491.0449125186092 L 224.0 403.6195333343161 L 296.0 375.743407573368 L 368.0 362.088351045797 L 440.0 351.26335804725625 L 512.0 332.12505343218913 L 584.0 307.9044263962385 L 656.0 288.553867016494 L 728.0 272.55221614610207 L 800.0 256.31472664829096 L 872.0 247.91887151216793 L 944.0 237.36509293515917 L 1016.0 225.39628259363542 L 1088.0 209.68943000751744 L 1160.0 188.65262444172583 L 1232.0 174.91502439455815 L 1304.0 157.69880459295734 L 1376.0 147.20398567280347 L 1448.0 138.8670901935352 L 1520.0 120.00000000000011" fill="none" stroke="#2ca02c" stroke-width="2" />
<circle cx="80.0" cy="920.0" r="4" fill="#d62728" />
<circle cx="152.0" cy="836.7725483837685" r="4" fill="#d62728" />
<circle cx="224.0" cy="716.317969429418" r="4" fill="#d62728" />
<circle cx="296.0" cy="674.6334920330764" r="4" fill="#d62728" />
<circle cx="368.0" cy="645.118287811565" r="4" fill="#d62728" />
<circle cx="440.0" cy="630.4019574606076" r="4" fill="#d62728" />
<circle cx="512.0" cy="601.4291820821603" r="4" fill="#d62728" />
<circle cx="584.0" cy="570.994207213714" r="4" fill="#d62728" />
<circle cx="656.0" cy="542.9765782763145" r="4" fill="#d62728" />
<circle cx="728.0" cy="519.4988429167342" r="4" fill="#d62728" />
<circle cx="800.0" cy="497.6955618118303" r="4" fill="#d62728" />
<circle cx="872.0" cy="483.96975369603354" r="4" fill="#d62728" />
<circle cx="944.0" cy="470.3736568253173" r="4" fill="#d62728" />
<circle cx="1016.0" cy="450.9287619946052" r="4" fill="#d62728" />
<circle cx="1088.0" cy="422.21540910631904" r="4" fill="#d62728" />
<circle cx="1160.0" cy="391.32054891440544" r="4" fill="#d62728" />
<circle cx="1232.0" cy="371.4511445543387" r="4" fill="#d62728" />
<circle cx="1304.0" cy="343.2566366463748" r="4" fill="#d62728" />
<circle cx="1376.0" cy="331.4647052754153" r="4" fill="#d62728" />
<circle cx="1448.0" cy="320.72225579647136" r="4" fill="#d62728" />
<circle cx="1520.0" cy="297.6454461035038" r="4" fill="#d62728" />
<path d="M 80.0 920.0 L 152.0 836.7725483837685 L 224.0 716.317969429418 L 296.0 674.6334920330764 L 368.0 645.118287811565 L 440.0 630.4019574606076 L 512.0 601.4291820821603 L 584.0 570.994207213714 L 656.0 542.9765782763145 L 728.0 519.4988429167342 L 800.0 497.6955618118303 L 872.0 483.96975369603354 L 944.0 470.3736568253173 L 1016.0 450.9287619946052 L 1088.0 422.21540910631904 L 1160.0 391.32054891440544 L 1232.0 371.4511445543387 L 1304.0 343.2566366463748 L 1376.0 331.4647052754153 L 1448.0 320.72225579647136 L 1520.0 297.6454461035038" fill="none" stroke="#d62728" stroke-width="2" />
<circle cx="80.0" cy="920.0" r="4" fill="#9467bd" />
<circle cx="152.0" cy="845.5575372551332" r="4" fill="#9467bd" />
<circle cx="224.0" cy="724.6430729773153" r="4" fill="#9467bd" />
<circle cx="296.0" cy="675.624014268237" r="4" fill="#9467bd" />
<circle cx="368.0" cy="646.0144745957579" r="4" fill="#9467bd" />
<circle cx="440.0" cy="632.8075114602833" r="4" fill="#9467bd" />
<circle cx="512.0" cy="603.5871055230459" r="4" fill="#9467bd" />
<circle cx="584.0" cy="571.7488908214555" r="4" fill="#9467bd" />
<circle cx="656.0" cy="542.9412024822016" r="4" fill="#9467bd" />
<circle cx="728.0" cy="519.2040446324603" r="4" fill="#9467bd" />
<circle cx="800.0" cy="497.64839408634646" r="4" fill="#9467bd" />
<circle cx="872.0" cy="483.91079403917877" r="4" fill="#9467bd" />
<circle cx="944.0" cy="470.2203617174949" r="4" fill="#9467bd" />
<circle cx="1016.0" cy="449.87928010258986" r="4" fill="#9467bd" />
<circle cx="1088.0" cy="421.37818197898093" r="4" fill="#9467bd" />
<circle cx="1160.0" cy="389.8819332871483" r="4" fill="#9467bd" />
<circle cx="1232.0" cy="369.47010008401753" r="4" fill="#9467bd" />
<circle cx="1304.0" cy="344.96646669516394" r="4" fill="#9467bd" />
<circle cx="1376.0" cy="333.1627433928335" r="4" fill="#9467bd" />
<circle cx="1448.0" cy="322.30237460017986" r="4" fill="#9467bd" />
<circle cx="1520.0" cy="298.8835988974545" r="4" fill="#9467bd" />
<path d="M 80.0 920.0 L 152.0 845.5575372551332 L 224.0 724.6430729773153 L 296.0 675.624014268237 L 368.0 646.0144745957579 L 440.0 632.8075114602833 L 512.0 603.5871055230459 L 584.0 571.7488908214555 L 656.0 542.9412024822016 L 728.0 519.2040446324603 L 800.0 497.64839408634646 L 872.0 483.91079403917877 L 944.0 470.2203617174949 L 1016.0 449.87928010258986 L 1088.0 421.37818197898093 L 1160.0 389.8819332871483 L 1232.0 369.47010008401753 L 1304.0 344.96646669516394 L 1376.0 333.1627433928335 L 1448.0 322.30237460017986 L 1520.0 298.8835988974545" fill="none" stroke="#9467bd" stroke-width="2" />
<circle cx="80.0" cy="920.0" r="4" fill="#66ffbd" />
<circle cx="152.0" cy="548.6838730598588" r="4" fill="#66ffbd" />
<circle cx="224.0" cy="583.4111109473344" r="4" fill="#66ffbd" />
<circle cx="296.0" cy="604.6719632091742" r="4" fill="#66ffbd" />
<circle cx="368.0" cy="620.5910705599694" r="4" fill="#66ffbd" />
<circle cx="440.0" cy="624.6121191574666" r="4" fill="#66ffbd" />
<circle cx="512.0" cy="635.0479784207656" r="4" fill="#66ffbd" />
<circle cx="584.0" cy="642.7481096060021" r="4" fill="#66ffbd" />
<circle cx="656.0" cy="652.8184189968015" r="4" fill="#66ffbd" />
<circle cx="728.0" cy="660.801556534941" r="4" fill="#66ffbd" />
<circle cx="800.0" cy="666.4380997302596" r="4" fill="#66ffbd" />
<circle cx="872.0" cy="671.7916365726752" r="4" fill="#66ffbd" />
<circle cx="944.0" cy="674.8457467977537" r="4" fill="#66ffbd" />
<circle cx="1016.0" cy="683.3359373848444" r="4" fill="#66ffbd" />
<circle cx="1088.0" cy="696.6844036967705" r="4" fill="#66ffbd" />
<circle cx="1160.0" cy="707.0730952345857" r="4" fill="#66ffbd" />
<circle cx="1232.0" cy="714.1954217826452" r="4" fill="#66ffbd" />
<circle cx="1304.0" cy="725.5274678301373" r="4" fill="#66ffbd" />
<circle cx="1376.0" cy="726.8245802809428" r="4" fill="#66ffbd" />
<circle cx="1448.0" cy="729.3480535943281" r="4" fill="#66ffbd" />
<circle cx="1520.0" cy="733.8407794466636" r="4" fill="#66ffbd" />
<path d="M 80.0 920.0 L 152.0 548.6838730598588 L 224.0 583.4111109473344 L 296.0 604.6719632091742 L 368.0 620.5910705599694 L 440.0 624.6121191574666 L 512.0 635.0479784207656 L 584.0 642.7481096060021 L 656.0 652.8184189968015 L 728.0 660.801556534941 L 800.0 666.4380997302596 L 872.0 671.7916365726752 L 944.0 674.8457467977537 L 1016.0 683.3359373848444 L 1088.0 696.6844036967705 L 1160.0 707.0730952345857 L 1232.0 714.1954217826452 L 1304.0 725.5274678301373 L 1376.0 726.8245802809428 L 1448.0 729.3480535943281 L 1520.0 733.8407794466636" fill="none" stroke="#66ffbd" stroke-width="2" />
<text x="80.0" y="940" text-anchor="middle">08-06</text>
<text x="152.0" y="940" text-anchor="middle">08-07</text>
<text x="224.0" y="940" text-anchor="middle">08-08</text>
<text x="296.0" y="940" text-anchor="middle">08-09</text>
<text x="368.0" y="940" text-anchor="middle">08-10</text>
<text x="440.0" y="940" text-anchor="middle">08-11</text>
<text x="512.0" y="940" text-anchor="middle">08-12</text>
<text x="584.0" y="940" text-anchor="middle">08-13</text>
<text x="656.0" y="940" text-anchor="middle">08-14</text>
<text x="728.0" y="940" text-anchor="middle">08-15</text>
<text x="800.0" y="940" text-anchor="middle">08-16</text>
<text x="872.0" y="940" text-anchor="middle">08-17</text>
<text x="944.0" y="940" text-anchor="middle">08-18</text>
<text x="1016.0" y="940" text-anchor="middle">08-19</text>
<text x="1088.0" y="940" text-anchor="middle">08-20</text>
<text x="1160.0" y="940" text-anchor="middle">08-21</text>
<text x="1232.0" y="940" text-anchor="middle">08-22</text>
<text x="1304.0" y="940" text-anchor="middle">08-23</text>
<text x="1376.0" y="940" text-anchor="middle">08-24</text>
<text x="1448.0" y="940" text-anchor="middle">08-25</text>
<text x="1520.0" y="940" text-anchor="middle">08-26</text>
<rect x="90" y="100" width="130" height="185" class="legend-box" />
<text x="100" y="120" class="legend-item">图例:</text>
<rect x="100" y="137" width="15" height="15" fill="#1f77b4" rx="3" />
<text x="120" y="145" class="legend-item">构件聚合数据</text>
<rect x="100" y="162" width="15" height="15" fill="#ff7f0e" rx="3" />
<text x="120" y="170" class="legend-item">构件基本信息</text>
<rect x="100" y="187" width="15" height="15" fill="#2ca02c" rx="3" />
<text x="120" y="195" class="legend-item">构件徽标</text>
<rect x="100" y="212" width="15" height="15" fill="#d62728" rx="3" />
<text x="120" y="220" class="legend-item">构件扩展元数据</text>
<rect x="100" y="237" width="15" height="15" fill="#9467bd" rx="3" />
<text x="120" y="245" class="legend-item">构件版本信息</text>
<rect x="100" y="262" width="15" height="15" fill="#66ffbd" rx="3" />
<text x="120" y="270" class="legend-item">数据量偏差</text>
<text x="1520" y="990" text-anchor="end" font-size="10" fill="#666">生成时间: 2025-08-26 10:48:27</text>
</svg>