<svg xmlns="http://www.w3.org/2000/svg" width="1600" height="1000" viewBox="0 0 1600 1000">
<style>
  text {
    font-family: Arial, sans-serif;
    font-size: 12px;
    fill: #333;
  }
  .axis-label { font-size: 14px; }
  .title { font-size: 18px; font-weight: bold; }
  .legend-item { font-size: 11px; }
  .legend-box { fill: white; fill-opacity: 0.85; stroke: #cccccc; stroke-width: 1; rx: 5; }
</style>
<text x="800.0" y="30" text-anchor="middle" class="title">Daily Data Growth Trend</text>
<text x="800.0" y="980" text-anchor="middle" class="axis-label">Date</text>
<g transform="rotate(-90)">
<text x="-500.0" y="20" text-anchor="middle" class="axis-label">Count</text>
</g>
<rect x="0" y="0" width="1600" height="1000" fill="#f8f8f8" />
<line x1="80" y1="920.0" x2="1520" y2="920.0" stroke="#e0e0e0" stroke-width="1" />
<text x="70" y="925.0" text-anchor="end">4.6k</text>
<line x1="80" y1="752.0" x2="1520" y2="752.0" stroke="#e0e0e0" stroke-width="1" />
<text x="70" y="757.0" text-anchor="end">15.7k</text>
<line x1="80" y1="584.0" x2="1520" y2="584.0" stroke="#e0e0e0" stroke-width="1" />
<text x="70" y="589.0" text-anchor="end">26.7k</text>
<line x1="80" y1="416.0" x2="1520" y2="416.0" stroke="#e0e0e0" stroke-width="1" />
<text x="70" y="421.0" text-anchor="end">37.8k</text>
<line x1="80" y1="248.0" x2="1520" y2="248.0" stroke="#e0e0e0" stroke-width="1" />
<text x="70" y="253.0" text-anchor="end">48.8k</text>
<line x1="80" y1="80.0" x2="1520" y2="80.0" stroke="#e0e0e0" stroke-width="1" />
<text x="70" y="85.0" text-anchor="end">59.8k</text>
<line x1="80" y1="80" x2="80" y2="920" stroke="#333333" stroke-width="2" />
<line x1="80" y1="920" x2="1520" y2="920" stroke="#333333" stroke-width="2" />
<circle cx="80.0" cy="916.2809470454873" r="4" fill="#1f77b4" />
<circle cx="224.0" cy="758.6472745585916" r="4" fill="#1f77b4" />
<circle cx="368.0" cy="695.2377260256353" r="4" fill="#1f77b4" />
<circle cx="512.0" cy="657.0733037264622" r="4" fill="#1f77b4" />
<circle cx="656.0" cy="637.9150072054658" r="4" fill="#1f77b4" />
<circle cx="800.0" cy="599.7505849062927" r="4" fill="#1f77b4" />
<circle cx="944.0" cy="558.5579648250082" r="4" fill="#1f77b4" />
<circle cx="1088.0" cy="520.5913644915006" r="4" fill="#1f77b4" />
<circle cx="1232.0" cy="489.63983540197984" r="4" fill="#1f77b4" />
<circle cx="1376.0" cy="461.41216260893117" r="4" fill="#1f77b4" />
<circle cx="1520.0" cy="443.6690539961577" r="4" fill="#1f77b4" />
<path d="M 80.0 916.2809470454873 L 224.0 758.6472745585916 L 368.0 695.2377260256353 L 512.0 657.0733037264622 L 656.0 637.9150072054658 L 800.0 599.7505849062927 L 944.0 558.5579648250082 L 1088.0 520.5913644915006 L 1232.0 489.63983540197984 L 1376.0 461.41216260893117 L 1520.0 443.6690539961577" fill="none" stroke="#1f77b4" stroke-width="2" />
<circle cx="80.0" cy="447.7776640522888" r="4" fill="#ff7f0e" />
<circle cx="224.0" cy="334.5169801716088" r="4" fill="#ff7f0e" />
<circle cx="368.0" cy="298.1938238605536" r="4" fill="#ff7f0e" />
<circle cx="512.0" cy="280.29854450496055" r="4" fill="#ff7f0e" />
<circle cx="656.0" cy="266.29883616555094" r="4" fill="#ff7f0e" />
<circle cx="800.0" cy="241.3428343431251" r="4" fill="#ff7f0e" />
<circle cx="944.0" cy="209.6761027623519" r="4" fill="#ff7f0e" />
<circle cx="1088.0" cy="184.41575945428679" r="4" fill="#ff7f0e" />
<circle cx="1232.0" cy="163.59880183655594" r="4" fill="#ff7f0e" />
<circle cx="1376.0" cy="142.53837103031367" r="4" fill="#ff7f0e" />
<circle cx="1520.0" cy="131.53642632445155" r="4" fill="#ff7f0e" />
<path d="M 80.0 447.7776640522888 L 224.0 334.5169801716088 L 368.0 298.1938238605536 L 512.0 280.29854450496055 L 656.0 266.29883616555094 L 800.0 241.3428343431251 L 944.0 209.6761027623519 L 1088.0 184.41575945428679 L 1232.0 163.59880183655594 L 1376.0 142.53837103031367 L 1520.0 131.53642632445155" fill="none" stroke="#ff7f0e" stroke-width="2" />
<circle cx="80.0" cy="437.11049498062994" r="4" fill="#2ca02c" />
<circle cx="224.0" cy="324.29110625412693" r="4" fill="#2ca02c" />
<circle cx="368.0" cy="288.31794265155713" r="4" fill="#2ca02c" />
<circle cx="512.0" cy="270.6965706330394" r="4" fill="#2ca02c" />
<circle cx="656.0" cy="256.72729644219373" r="4" fill="#2ca02c" />
<circle cx="800.0" cy="232.0299848825614" r="4" fill="#2ca02c" />
<circle cx="944.0" cy="200.7741143074012" r="4" fill="#2ca02c" />
<circle cx="1088.0" cy="175.8028954106935" r="4" fill="#2ca02c" />
<circle cx="1232.0" cy="155.15332561006426" r="4" fill="#2ca02c" />
<circle cx="1376.0" cy="134.19941432379585" r="4" fill="#2ca02c" />
<circle cx="1520.0" cy="123.36485743503533" r="4" fill="#2ca02c" />
<path d="M 80.0 437.11049498062994 L 224.0 324.29110625412693 L 368.0 288.31794265155713 L 512.0 270.6965706330394 L 656.0 256.72729644219373 L 800.0 232.0299848825614 L 944.0 200.7741143074012 L 1088.0 175.8028954106935 L 1232.0 155.15332561006426 L 1376.0 134.19941432379585 L 1520.0 123.36485743503533" fill="none" stroke="#2ca02c" stroke-width="2" />
<circle cx="80.0" cy="883.259895853619" r="4" fill="#d62728" />
<circle cx="224.0" cy="727.8174820633266" r="4" fill="#d62728" />
<circle cx="368.0" cy="674.0251244765734" r="4" fill="#d62728" />
<circle cx="512.0" cy="635.9367875488101" r="4" fill="#d62728" />
<circle cx="656.0" cy="616.9458788449153" r="4" fill="#d62728" />
<circle cx="800.0" cy="579.5575273341226" r="4" fill="#d62728" />
<circle cx="944.0" cy="540.2822586123659" r="4" fill="#d62728" />
<circle cx="1088.0" cy="504.1264901184124" r="4" fill="#d62728" />
<circle cx="1232.0" cy="473.8292952230162" r="4" fill="#d62728" />
<circle cx="1376.0" cy="445.6929248756593" r="4" fill="#d62728" />
<circle cx="1520.0" cy="427.9802504114498" r="4" fill="#d62728" />
<path d="M 80.0 883.259895853619 L 224.0 727.8174820633266 L 368.0 674.0251244765734 L 512.0 635.9367875488101 L 656.0 616.9458788449153 L 800.0 579.5575273341226 L 944.0 540.2822586123659 L 1088.0 504.1264901184124 L 1232.0 473.8292952230162 L 1376.0 445.6929248756593 L 1520.0 427.9802504114498" fill="none" stroke="#d62728" stroke-width="2" />
<circle cx="80.0" cy="894.5966161936843" r="4" fill="#9467bd" />
<circle cx="224.0" cy="738.5607365063952" r="4" fill="#9467bd" />
<circle cx="368.0" cy="675.3033587162586" r="4" fill="#9467bd" />
<circle cx="512.0" cy="637.0932851942396" r="4" fill="#9467bd" />
<circle cx="656.0" cy="620.0501619984366" r="4" fill="#9467bd" />
<circle cx="800.0" cy="582.3422519277226" r="4" fill="#9467bd" />
<circle cx="944.0" cy="541.2561513664118" r="4" fill="#9467bd" />
<circle cx="1088.0" cy="504.0808388955665" r="4" fill="#9467bd" />
<circle cx="1232.0" cy="473.44886836596703" r="4" fill="#9467bd" />
<circle cx="1376.0" cy="445.63205657853143" r="4" fill="#9467bd" />
<circle cx="1520.0" cy="427.9041650400399" r="4" fill="#9467bd" />
<path d="M 80.0 894.5966161936843 L 224.0 738.5607365063952 L 368.0 675.3033587162586 L 512.0 637.0932851942396 L 656.0 620.0501619984366 L 800.0 582.3422519277226 L 944.0 541.2561513664118 L 1088.0 504.0808388955665 L 1232.0 473.44886836596703 L 1376.0 445.63205657853143 L 1520.0 427.9041650400399" fill="none" stroke="#9467bd" stroke-width="2" />
<text x="80.0" y="940" text-anchor="middle">08-07</text>
<text x="224.0" y="940" text-anchor="middle">08-08</text>
<text x="368.0" y="940" text-anchor="middle">08-09</text>
<text x="512.0" y="940" text-anchor="middle">08-10</text>
<text x="656.0" y="940" text-anchor="middle">08-11</text>
<text x="800.0" y="940" text-anchor="middle">08-12</text>
<text x="944.0" y="940" text-anchor="middle">08-13</text>
<text x="1088.0" y="940" text-anchor="middle">08-14</text>
<text x="1232.0" y="940" text-anchor="middle">08-15</text>
<text x="1376.0" y="940" text-anchor="middle">08-16</text>
<text x="1520.0" y="940" text-anchor="middle">08-17</text>
<rect x="90" y="100" width="130" height="160" class="legend-box" />
<text x="100" y="120" class="legend-item">图例:</text>
<rect x="100" y="137" width="15" height="15" fill="#1f77b4" rx="3" />
<text x="120" y="145" class="legend-item">构件聚合数据</text>
<rect x="100" y="162" width="15" height="15" fill="#ff7f0e" rx="3" />
<text x="120" y="170" class="legend-item">构件基本信息</text>
<rect x="100" y="187" width="15" height="15" fill="#2ca02c" rx="3" />
<text x="120" y="195" class="legend-item">构件徽标</text>
<rect x="100" y="212" width="15" height="15" fill="#d62728" rx="3" />
<text x="120" y="220" class="legend-item">构件扩展元数据</text>
<rect x="100" y="237" width="15" height="15" fill="#9467bd" rx="3" />
<text x="120" y="245" class="legend-item">构件版本信息</text>
<text x="1520" y="990" text-anchor="end" font-size="10" fill="#666">生成时间: 2025-08-17 01:31:36</text>
</svg>