<svg xmlns="http://www.w3.org/2000/svg" width="1600" height="1000" viewBox="0 0 1600 1000">
<style>
  text {
    font-family: Arial, sans-serif;
    font-size: 12px;
    fill: #333;
  }
  .axis-label { font-size: 14px; }
  .title { font-size: 18px; font-weight: bold; }
  .legend-item { font-size: 11px; }
  .legend-box { fill: white; fill-opacity: 0.85; stroke: #cccccc; stroke-width: 1; rx: 5; }
</style>
<text x="800.0" y="30" text-anchor="middle" class="title">Daily Data Growth Trend</text>
<text x="800.0" y="980" text-anchor="middle" class="axis-label">Date</text>
<g transform="rotate(-90)">
<text x="-500.0" y="20" text-anchor="middle" class="axis-label">Count</text>
</g>
<rect x="0" y="0" width="1600" height="1000" fill="#f8f8f8" />
<line x1="80" y1="920.0" x2="1520" y2="920.0" stroke="#e0e0e0" stroke-width="1" />
<text x="70" y="925.0" text-anchor="end">0</text>
<line x1="80" y1="752.0" x2="1520" y2="752.0" stroke="#e0e0e0" stroke-width="1" />
<text x="70" y="757.0" text-anchor="end">30.8k</text>
<line x1="80" y1="584.0" x2="1520" y2="584.0" stroke="#e0e0e0" stroke-width="1" />
<text x="70" y="589.0" text-anchor="end">61.6k</text>
<line x1="80" y1="416.0" x2="1520" y2="416.0" stroke="#e0e0e0" stroke-width="1" />
<text x="70" y="421.0" text-anchor="end">92.3k</text>
<line x1="80" y1="248.0" x2="1520" y2="248.0" stroke="#e0e0e0" stroke-width="1" />
<text x="70" y="253.0" text-anchor="end">123.1k</text>
<line x1="80" y1="80.0" x2="1520" y2="80.0" stroke="#e0e0e0" stroke-width="1" />
<text x="70" y="85.0" text-anchor="end">153.9k</text>
<line x1="80" y1="80" x2="80" y2="920" stroke="#333333" stroke-width="2" />
<line x1="80" y1="920" x2="1520" y2="920" stroke="#333333" stroke-width="2" />
<circle cx="80.0" cy="920.0" r="4" fill="#1f77b4" />
<circle cx="92.7433628318584" cy="893.3224177923319" r="4" fill="#1f77b4" />
<circle cx="105.48672566371681" cy="836.785373175058" r="4" fill="#1f77b4" />
<circle cx="118.23008849557522" cy="814.0428434984309" r="4" fill="#1f77b4" />
<circle cx="130.97345132743362" cy="800.3547550825488" r="4" fill="#1f77b4" />
<circle cx="143.71681415929203" cy="793.4834220221039" r="4" fill="#1f77b4" />
<circle cx="156.46017699115043" cy="779.7953336062219" r="4" fill="#1f77b4" />
<circle cx="169.20353982300884" cy="765.0211488606903" r="4" fill="#1f77b4" />
<circle cx="181.94690265486724" cy="751.4040114613181" r="4" fill="#1f77b4" />
<circle cx="194.69026548672565" cy="740.3029062627917" r="4" fill="#1f77b4" />
<circle cx="207.43362831858406" cy="730.1787419838996" r="4" fill="#1f77b4" />
<circle cx="220.1769911504425" cy="723.8149815800246" r="4" fill="#1f77b4" />
<circle cx="232.9203539823009" cy="717.5167144221585" r="4" fill="#1f77b4" />
<circle cx="245.6637168141593" cy="708.0474826033566" r="4" fill="#1f77b4" />
<circle cx="258.4070796460177" cy="694.5995360895074" r="4" fill="#1f77b4" />
<circle cx="271.15044247787614" cy="680.0545777050075" r="4" fill="#1f77b4" />
<circle cx="283.8938053097345" cy="670.3997816891799" r="4" fill="#1f77b4" />
<circle cx="296.63716814159295" cy="657.1865193068631" r="4" fill="#1f77b4" />
<circle cx="309.3805309734513" cy="651.7287488061127" r="4" fill="#1f77b4" />
<circle cx="322.12389380530976" cy="646.7021421749216" r="4" fill="#1f77b4" />
<circle cx="334.8672566371681" cy="635.8902988129349" r="4" fill="#1f77b4" />
<circle cx="347.6106194690266" cy="625.2585618774731" r="4" fill="#1f77b4" />
<circle cx="360.353982300885" cy="615.8439077636785" r="4" fill="#1f77b4" />
<circle cx="373.0973451327434" cy="602.8489562013917" r="4" fill="#1f77b4" />
<circle cx="385.8407079646018" cy="593.9036703506617" r="4" fill="#1f77b4" />
<circle cx="398.5840707964602" cy="588.3913221449038" r="4" fill="#1f77b4" />
<circle cx="411.3274336283186" cy="582.1749215445491" r="4" fill="#1f77b4" />
<circle cx="424.070796460177" cy="574.1902033019512" r="4" fill="#1f77b4" />
<circle cx="436.8141592920354" cy="567.258834765998" r="4" fill="#1f77b4" />
<circle cx="449.5575221238938" cy="561.3699003956883" r="4" fill="#1f77b4" />
<circle cx="462.3008849557522" cy="551.3712648383136" r="4" fill="#1f77b4" />
<circle cx="475.04424778761063" cy="543.2118979396917" r="4" fill="#1f77b4" />
<circle cx="487.78761061946904" cy="530.7681811979807" r="4" fill="#1f77b4" />
<circle cx="500.53097345132744" cy="527.1223905034793" r="4" fill="#1f77b4" />
<circle cx="513.2743362831859" cy="522.9854004639105" r="4" fill="#1f77b4" />
<circle cx="526.0176991150443" cy="517.5003411106563" r="4" fill="#1f77b4" />
<circle cx="538.7610619469026" cy="513.0904625460499" r="4" fill="#1f77b4" />
<circle cx="551.5044247787611" cy="506.53568017464863" r="4" fill="#1f77b4" />
<circle cx="564.2477876106195" cy="499.1840633101378" r="4" fill="#1f77b4" />
<circle cx="576.9911504424779" cy="495.84390776367854" r="4" fill="#1f77b4" />
<circle cx="589.7345132743362" cy="492.21994815118023" r="4" fill="#1f77b4" />
<circle cx="602.4778761061947" cy="486.2218583708555" r="4" fill="#1f77b4" />
<circle cx="615.2212389380531" cy="481.1897939691636" r="4" fill="#1f77b4" />
<circle cx="627.9646017699115" cy="464.5490517123755" r="4" fill="#1f77b4" />
<circle cx="640.70796460177" cy="458.1197980624915" r="4" fill="#1f77b4" />
<circle cx="653.4513274336283" cy="451.2975849365534" r="4" fill="#1f77b4" />
<circle cx="666.1946902654868" cy="446.451084731887" r="4" fill="#1f77b4" />
<circle cx="678.9380530973451" cy="441.5063446582071" r="4" fill="#1f77b4" />
<circle cx="691.6814159292036" cy="438.3899577022786" r="4" fill="#1f77b4" />
<circle cx="704.4247787610619" cy="432.4355300859599" r="4" fill="#1f77b4" />
<circle cx="717.1681415929204" cy="432.09714831491334" r="4" fill="#1f77b4" />
<circle cx="729.9115044247787" cy="432.0753172329104" r="4" fill="#1f77b4" />
<circle cx="742.6548672566372" cy="431.4531313958248" r="4" fill="#1f77b4" />
<circle cx="755.3982300884956" cy="431.30577159230455" r="4" fill="#1f77b4" />
<circle cx="768.141592920354" cy="431.30577159230455" r="4" fill="#1f77b4" />
<circle cx="780.8849557522124" cy="431.3003138218038" r="4" fill="#1f77b4" />
<circle cx="793.6283185840708" cy="431.2893982808023" r="4" fill="#1f77b4" />
<circle cx="806.3716814159292" cy="431.28394051030153" r="4" fill="#1f77b4" />
<circle cx="819.1150442477876" cy="425.4277527629963" r="4" fill="#1f77b4" />
<circle cx="831.858407079646" cy="372.181743757675" r="4" fill="#1f77b4" />
<circle cx="844.6017699115044" cy="367.3407013235094" r="4" fill="#1f77b4" />
<circle cx="857.3451327433628" cy="363.3838177104652" r="4" fill="#1f77b4" />
<circle cx="870.0884955752213" cy="360.6385591485878" r="4" fill="#1f77b4" />
<circle cx="882.8318584070796" cy="354.6786737617683" r="4" fill="#1f77b4" />
<circle cx="895.5752212389381" cy="348.02565152135355" r="4" fill="#1f77b4" />
<circle cx="908.3185840707965" cy="343.18460908718794" r="4" fill="#1f77b4" />
<circle cx="921.0619469026549" cy="337.97789602947194" r="4" fill="#1f77b4" />
<circle cx="933.8053097345133" cy="333.42065766134533" r="4" fill="#1f77b4" />
<circle cx="946.5486725663717" cy="330.0422977213808" r="4" fill="#1f77b4" />
<circle cx="959.2920353982302" cy="326.60390230590804" r="4" fill="#1f77b4" />
<circle cx="972.0353982300885" cy="320.8350388866148" r="4" fill="#1f77b4" />
<circle cx="984.778761061947" cy="315.8684677309319" r="4" fill="#1f77b4" />
<circle cx="997.5221238938053" cy="312.18993041342617" r="4" fill="#1f77b4" />
<circle cx="1010.2654867256638" cy="309.10629008050216" r="4" fill="#1f77b4" />
<circle cx="1023.0088495575221" cy="306.1045163050894" r="4" fill="#1f77b4" />
<circle cx="1035.7522123893805" cy="303.1682357756856" r="4" fill="#1f77b4" />
<circle cx="1048.495575221239" cy="300.4830126893164" r="4" fill="#1f77b4" />
<circle cx="1061.2389380530974" cy="295.7784145176695" r="4" fill="#1f77b4" />
<circle cx="1073.9823008849557" cy="288.87433483422024" r="4" fill="#1f77b4" />
<circle cx="1086.7256637168143" cy="282.1831082003001" r="4" fill="#1f77b4" />
<circle cx="1099.4690265486724" cy="269.20452994951563" r="4" fill="#1f77b4" />
<circle cx="1112.212389380531" cy="266.7376176831764" r="4" fill="#1f77b4" />
<circle cx="1124.9557522123894" cy="264.5108473188702" r="4" fill="#1f77b4" />
<circle cx="1137.6991150442477" cy="259.84991131122933" r="4" fill="#1f77b4" />
<circle cx="1150.4424778761063" cy="256.1822895347251" r="4" fill="#1f77b4" />
<circle cx="1163.1858407079646" cy="251.99617956064947" r="4" fill="#1f77b4" />
<circle cx="1175.929203539823" cy="247.67908309455584" r="4" fill="#1f77b4" />
<circle cx="1188.6725663716813" cy="241.36444262518762" r="4" fill="#1f77b4" />
<circle cx="1201.41592920354" cy="237.26019920862325" r="4" fill="#1f77b4" />
<circle cx="1214.1592920353983" cy="231.9770773638968" r="4" fill="#1f77b4" />
<circle cx="1226.9026548672566" cy="228.02019375085274" r="4" fill="#1f77b4" />
<circle cx="1239.646017699115" cy="223.92140810478918" r="4" fill="#1f77b4" />
<circle cx="1252.3893805309735" cy="219.0094146541138" r="4" fill="#1f77b4" />
<circle cx="1265.132743362832" cy="218.38722881702824" r="4" fill="#1f77b4" />
<circle cx="1277.8761061946902" cy="214.69231818802018" r="4" fill="#1f77b4" />
<circle cx="1290.6194690265486" cy="211.81061536362392" r="4" fill="#1f77b4" />
<circle cx="1303.3628318584072" cy="207.5153499795333" r="4" fill="#1f77b4" />
<circle cx="1316.1061946902655" cy="205.03206440169185" r="4" fill="#1f77b4" />
<circle cx="1328.8495575221239" cy="199.63978714695043" r="4" fill="#1f77b4" />
<circle cx="1341.5929203539824" cy="196.55614681402642" r="4" fill="#1f77b4" />
<circle cx="1354.3362831858408" cy="193.25965343157316" r="4" fill="#1f77b4" />
<circle cx="1367.0796460176991" cy="190.15418201664625" r="4" fill="#1f77b4" />
<circle cx="1379.8230088495575" cy="187.05962614272073" r="4" fill="#1f77b4" />
<circle cx="1392.566371681416" cy="183.72492836676213" r="4" fill="#1f77b4" />
<circle cx="1405.3097345132744" cy="180.09551098376312" r="4" fill="#1f77b4" />
<circle cx="1418.0530973451328" cy="176.67894665029337" r="4" fill="#1f77b4" />
<circle cx="1430.796460176991" cy="172.86396507026882" r="4" fill="#1f77b4" />
<circle cx="1443.5398230088497" cy="169.13630781825623" r="4" fill="#1f77b4" />
<circle cx="1456.283185840708" cy="164.34438531859735" r="4" fill="#1f77b4" />
<circle cx="1469.0265486725664" cy="161.55000682221316" r="4" fill="#1f77b4" />
<circle cx="1481.7699115044247" cy="159.9945422294993" r="4" fill="#1f77b4" />
<circle cx="1494.5132743362833" cy="156.61072451903397" r="4" fill="#1f77b4" />
<circle cx="1507.2566371681417" cy="150.8964388047483" r="4" fill="#1f77b4" />
<circle cx="1520.0" cy="147.0377950607177" r="4" fill="#1f77b4" />
<path d="M 80.0 920.0 L 92.7433628318584 893.3224177923319 L 105.48672566371681 836.785373175058 L 118.23008849557522 814.0428434984309 L 130.97345132743362 800.3547550825488 L 143.71681415929203 793.4834220221039 L 156.46017699115043 779.7953336062219 L 169.20353982300884 765.0211488606903 L 181.94690265486724 751.4040114613181 L 194.69026548672565 740.3029062627917 L 207.43362831858406 730.1787419838996 L 220.1769911504425 723.8149815800246 L 232.9203539823009 717.5167144221585 L 245.6637168141593 708.0474826033566 L 258.4070796460177 694.5995360895074 L 271.15044247787614 680.0545777050075 L 283.8938053097345 670.3997816891799 L 296.63716814159295 657.1865193068631 L 309.3805309734513 651.7287488061127 L 322.12389380530976 646.7021421749216 L 334.8672566371681 635.8902988129349 L 347.6106194690266 625.2585618774731 L 360.353982300885 615.8439077636785 L 373.0973451327434 602.8489562013917 L 385.8407079646018 593.9036703506617 L 398.5840707964602 588.3913221449038 L 411.3274336283186 582.1749215445491 L 424.070796460177 574.1902033019512 L 436.8141592920354 567.258834765998 L 449.5575221238938 561.3699003956883 L 462.3008849557522 551.3712648383136 L 475.04424778761063 543.2118979396917 L 487.78761061946904 530.7681811979807 L 500.53097345132744 527.1223905034793 L 513.2743362831859 522.9854004639105 L 526.0176991150443 517.5003411106563 L 538.7610619469026 513.0904625460499 L 551.5044247787611 506.53568017464863 L 564.2477876106195 499.1840633101378 L 576.9911504424779 495.84390776367854 L 589.7345132743362 492.21994815118023 L 602.4778761061947 486.2218583708555 L 615.2212389380531 481.1897939691636 L 627.9646017699115 464.5490517123755 L 640.70796460177 458.1197980624915 L 653.4513274336283 451.2975849365534 L 666.1946902654868 446.451084731887 L 678.9380530973451 441.5063446582071 L 691.6814159292036 438.3899577022786 L 704.4247787610619 432.4355300859599 L 717.1681415929204 432.09714831491334 L 729.9115044247787 432.0753172329104 L 742.6548672566372 431.4531313958248 L 755.3982300884956 431.30577159230455 L 768.141592920354 431.30577159230455 L 780.8849557522124 431.3003138218038 L 793.6283185840708 431.2893982808023 L 806.3716814159292 431.28394051030153 L 819.1150442477876 425.4277527629963 L 831.858407079646 372.181743757675 L 844.6017699115044 367.3407013235094 L 857.3451327433628 363.3838177104652 L 870.0884955752213 360.6385591485878 L 882.8318584070796 354.6786737617683 L 895.5752212389381 348.02565152135355 L 908.3185840707965 343.18460908718794 L 921.0619469026549 337.97789602947194 L 933.8053097345133 333.42065766134533 L 946.5486725663717 330.0422977213808 L 959.2920353982302 326.60390230590804 L 972.0353982300885 320.8350388866148 L 984.778761061947 315.8684677309319 L 997.5221238938053 312.18993041342617 L 1010.2654867256638 309.10629008050216 L 1023.0088495575221 306.1045163050894 L 1035.7522123893805 303.1682357756856 L 1048.495575221239 300.4830126893164 L 1061.2389380530974 295.7784145176695 L 1073.9823008849557 288.87433483422024 L 1086.7256637168143 282.1831082003001 L 1099.4690265486724 269.20452994951563 L 1112.212389380531 266.7376176831764 L 1124.9557522123894 264.5108473188702 L 1137.6991150442477 259.84991131122933 L 1150.4424778761063 256.1822895347251 L 1163.1858407079646 251.99617956064947 L 1175.929203539823 247.67908309455584 L 1188.6725663716813 241.36444262518762 L 1201.41592920354 237.26019920862325 L 1214.1592920353983 231.9770773638968 L 1226.9026548672566 228.02019375085274 L 1239.646017699115 223.92140810478918 L 1252.3893805309735 219.0094146541138 L 1265.132743362832 218.38722881702824 L 1277.8761061946902 214.69231818802018 L 1290.6194690265486 211.81061536362392 L 1303.3628318584072 207.5153499795333 L 1316.1061946902655 205.03206440169185 L 1328.8495575221239 199.63978714695043 L 1341.5929203539824 196.55614681402642 L 1354.3362831858408 193.25965343157316 L 1367.0796460176991 190.15418201664625 L 1379.8230088495575 187.05962614272073 L 1392.566371681416 183.72492836676213 L 1405.3097345132744 180.09551098376312 L 1418.0530973451328 176.67894665029337 L 1430.796460176991 172.86396507026882 L 1443.5398230088497 169.13630781825623 L 1456.283185840708 164.34438531859735 L 1469.0265486725664 161.55000682221316 L 1481.7699115044247 159.9945422294993 L 1494.5132743362833 156.61072451903397 L 1507.2566371681417 150.8964388047483 L 1520.0 147.0377950607177" fill="none" stroke="#1f77b4" stroke-width="2" />
<circle cx="80.0" cy="920.0" r="4" fill="#ff7f0e" />
<circle cx="92.7433628318584" cy="725.2885796152271" r="4" fill="#ff7f0e" />
<circle cx="105.48672566371681" cy="684.6663937781416" r="4" fill="#ff7f0e" />
<circle cx="118.23008849557522" cy="671.6386955928504" r="4" fill="#ff7f0e" />
<circle cx="130.97345132743362" cy="665.2203574839677" r="4" fill="#ff7f0e" />
<circle cx="143.71681415929203" cy="660.1992086232774" r="4" fill="#ff7f0e" />
<circle cx="156.46017699115043" cy="651.2484650020467" r="4" fill="#ff7f0e" />
<circle cx="169.20353982300884" cy="639.8908445899849" r="4" fill="#ff7f0e" />
<circle cx="181.94690265486724" cy="630.8309455587392" r="4" fill="#ff7f0e" />
<circle cx="194.69026548672565" cy="623.3647155137127" r="4" fill="#ff7f0e" />
<circle cx="207.43362831858406" cy="615.811161140674" r="4" fill="#ff7f0e" />
<circle cx="220.1769911504425" cy="611.8651930686315" r="4" fill="#ff7f0e" />
<circle cx="232.9203539823009" cy="606.9804884704598" r="4" fill="#ff7f0e" />
<circle cx="245.6637168141593" cy="601.4244781006959" r="4" fill="#ff7f0e" />
<circle cx="258.4070796460177" cy="593.9909946786738" r="4" fill="#ff7f0e" />
<circle cx="271.15044247787614" cy="584.0414790558057" r="4" fill="#ff7f0e" />
<circle cx="283.8938053097345" cy="577.6558875699277" r="4" fill="#ff7f0e" />
<circle cx="296.63716814159295" cy="569.6820848683312" r="4" fill="#ff7f0e" />
<circle cx="309.3805309734513" cy="564.8301268931641" r="4" fill="#ff7f0e" />
<circle cx="322.12389380530976" cy="560.9605676081321" r="4" fill="#ff7f0e" />
<circle cx="334.8672566371681" cy="552.168099331423" r="4" fill="#ff7f0e" />
<circle cx="347.6106194690266" cy="545.0129622049393" r="4" fill="#ff7f0e" />
<circle cx="360.353982300885" cy="536.5425023877747" r="4" fill="#ff7f0e" />
<circle cx="373.0973451327434" cy="525.4304816482468" r="4" fill="#ff7f0e" />
<circle cx="385.8407079646018" cy="518.4881975712922" r="4" fill="#ff7f0e" />
<circle cx="398.5840707964602" cy="510.203301951153" r="4" fill="#ff7f0e" />
<circle cx="411.3274336283186" cy="508.14572247237004" r="4" fill="#ff7f0e" />
<circle cx="424.070796460177" cy="501.13794514940645" r="4" fill="#ff7f0e" />
<circle cx="436.8141592920354" cy="496.44972028926185" r="4" fill="#ff7f0e" />
<circle cx="449.5575221238938" cy="491.963432937645" r="4" fill="#ff7f0e" />
<circle cx="462.3008849557522" cy="483.6239596124983" r="4" fill="#ff7f0e" />
<circle cx="475.04424778761063" cy="476.13589848546866" r="4" fill="#ff7f0e" />
<circle cx="487.78761061946904" cy="467.883749488334" r="4" fill="#ff7f0e" />
<circle cx="500.53097345132744" cy="464.8710601719198" r="4" fill="#ff7f0e" />
<circle cx="513.2743362831859" cy="461.78196206849503" r="4" fill="#ff7f0e" />
<circle cx="526.0176991150443" cy="457.6176831764224" r="4" fill="#ff7f0e" />
<circle cx="538.7610619469026" cy="454.0046391049256" r="4" fill="#ff7f0e" />
<circle cx="551.5044247787611" cy="448.3995088006549" r="4" fill="#ff7f0e" />
<circle cx="564.2477876106195" cy="442.4887433483422" r="4" fill="#ff7f0e" />
<circle cx="576.9911504424779" cy="438.5045708827944" r="4" fill="#ff7f0e" />
<circle cx="589.7345132743362" cy="436.11952517396645" r="4" fill="#ff7f0e" />
<circle cx="602.4778761061947" cy="431.15295401828354" r="4" fill="#ff7f0e" />
<circle cx="615.2212389380531" cy="427.79642516032203" r="4" fill="#ff7f0e" />
<circle cx="627.9646017699115" cy="411.64688224860146" r="4" fill="#ff7f0e" />
<circle cx="640.70796460177" cy="405.39227725474143" r="4" fill="#ff7f0e" />
<circle cx="653.4513274336283" cy="399.7107381634602" r="4" fill="#ff7f0e" />
<circle cx="666.1946902654868" cy="393.96370582617" r="4" fill="#ff7f0e" />
<circle cx="678.9380530973451" cy="390.6344658207122" r="4" fill="#ff7f0e" />
<circle cx="691.6814159292036" cy="388.17846909537457" r="4" fill="#ff7f0e" />
<circle cx="704.4247787610619" cy="383.86683039978163" r="4" fill="#ff7f0e" />
<circle cx="717.1681415929204" cy="378.64374403056354" r="4" fill="#ff7f0e" />
<circle cx="729.9115044247787" cy="374.2011188429526" r="4" fill="#ff7f0e" />
<circle cx="742.6548672566372" cy="370.3097284759176" r="4" fill="#ff7f0e" />
<circle cx="755.3982300884956" cy="362.1612771182972" r="4" fill="#ff7f0e" />
<circle cx="768.141592920354" cy="359.4924273434302" r="4" fill="#ff7f0e" />
<circle cx="780.8849557522124" cy="355.10437986082684" r="4" fill="#ff7f0e" />
<circle cx="793.6283185840708" cy="348.4622731614136" r="4" fill="#ff7f0e" />
<circle cx="806.3716814159292" cy="344.2270432528312" r="4" fill="#ff7f0e" />
<circle cx="819.1150442477876" cy="338.4199754400328" r="4" fill="#ff7f0e" />
<circle cx="831.858407079646" cy="331.59230454359397" r="4" fill="#ff7f0e" />
<circle cx="844.6017699115044" cy="324.87924682767084" r="4" fill="#ff7f0e" />
<circle cx="857.3451327433628" cy="323.01814708691495" r="4" fill="#ff7f0e" />
<circle cx="870.0884955752213" cy="320.73679901760136" r="4" fill="#ff7f0e" />
<circle cx="882.8318584070796" cy="315.0170555328149" r="4" fill="#ff7f0e" />
<circle cx="895.5752212389381" cy="310.2469641151589" r="4" fill="#ff7f0e" />
<circle cx="908.3185840707965" cy="305.76067676354205" r="4" fill="#ff7f0e" />
<circle cx="921.0619469026549" cy="300.7340701323509" r="4" fill="#ff7f0e" />
<circle cx="933.8053097345133" cy="296.1822895347251" r="4" fill="#ff7f0e" />
<circle cx="946.5486725663717" cy="293.44794651384905" r="4" fill="#ff7f0e" />
<circle cx="959.2920353982302" cy="290.25515077091006" r="4" fill="#ff7f0e" />
<circle cx="972.0353982300885" cy="284.76463364715516" r="4" fill="#ff7f0e" />
<circle cx="984.778761061947" cy="280.19647973802705" r="4" fill="#ff7f0e" />
<circle cx="997.5221238938053" cy="276.6598444535407" r="4" fill="#ff7f0e" />
<circle cx="1010.2654867256638" cy="274.0019102196752" r="4" fill="#ff7f0e" />
<circle cx="1023.0088495575221" cy="270.98922090326107" r="4" fill="#ff7f0e" />
<circle cx="1035.7522123893805" cy="268.102060308364" r="4" fill="#ff7f0e" />
<circle cx="1048.495575221239" cy="265.5532814845136" r="4" fill="#ff7f0e" />
<circle cx="1061.2389380530974" cy="259.44603629417384" r="4" fill="#ff7f0e" />
<circle cx="1073.9823008849557" cy="254.39759858097966" r="4" fill="#ff7f0e" />
<circle cx="1086.7256637168143" cy="248.23577568563246" r="4" fill="#ff7f0e" />
<circle cx="1099.4690265486724" cy="235.42093054987038" r="4" fill="#ff7f0e" />
<circle cx="1112.212389380531" cy="232.94856051303043" r="4" fill="#ff7f0e" />
<circle cx="1124.9557522123894" cy="230.91826988675132" r="4" fill="#ff7f0e" />
<circle cx="1137.6991150442477" cy="226.42652476463365" r="4" fill="#ff7f0e" />
<circle cx="1150.4424778761063" cy="222.92809387365264" r="4" fill="#ff7f0e" />
<circle cx="1163.1858407079646" cy="219.42420521217082" r="4" fill="#ff7f0e" />
<circle cx="1175.929203539823" cy="215.2490107790967" r="4" fill="#ff7f0e" />
<circle cx="1188.6725663716813" cy="209.99863555737477" r="4" fill="#ff7f0e" />
<circle cx="1201.41592920354" cy="201.69190885523267" r="4" fill="#ff7f0e" />
<circle cx="1214.1592920353983" cy="200.85141219811703" r="4" fill="#ff7f0e" />
<circle cx="1226.9026548672566" cy="197.09646609360072" r="4" fill="#ff7f0e" />
<circle cx="1239.646017699115" cy="193.14504025105748" r="4" fill="#ff7f0e" />
<circle cx="1252.3893805309735" cy="188.67512621094284" r="4" fill="#ff7f0e" />
<circle cx="1265.132743362832" cy="188.33674443989628" r="4" fill="#ff7f0e" />
<circle cx="1277.8761061946902" cy="184.70732705689727" r="4" fill="#ff7f0e" />
<circle cx="1290.6194690265486" cy="180.84868331286668" r="4" fill="#ff7f0e" />
<circle cx="1303.3628318584072" cy="177.8032473734479" r="4" fill="#ff7f0e" />
<circle cx="1316.1061946902655" cy="175.34725064811028" r="4" fill="#ff7f0e" />
<circle cx="1328.8495575221239" cy="170.11870650839137" r="4" fill="#ff7f0e" />
<circle cx="1341.5929203539824" cy="167.71182971756036" r="4" fill="#ff7f0e" />
<circle cx="1354.3362831858408" cy="164.65002046663938" r="4" fill="#ff7f0e" />
<circle cx="1367.0796460176991" cy="161.63733115022512" r="4" fill="#ff7f0e" />
<circle cx="1379.8230088495575" cy="158.3735843907764" r="4" fill="#ff7f0e" />
<circle cx="1392.566371681416" cy="155.28994405785238" r="4" fill="#ff7f0e" />
<circle cx="1405.3097345132744" cy="151.79151316687137" r="4" fill="#ff7f0e" />
<circle cx="1418.0530973451328" cy="148.42952653840905" r="4" fill="#ff7f0e" />
<circle cx="1430.796460176991" cy="145.71701459953613" r="4" fill="#ff7f0e" />
<circle cx="1443.5398230088497" cy="142.087597216537" r="4" fill="#ff7f0e" />
<circle cx="1456.283185840708" cy="137.48123891390367" r="4" fill="#ff7f0e" />
<circle cx="1469.0265486725664" cy="134.5777050075044" r="4" fill="#ff7f0e" />
<circle cx="1481.7699115044247" cy="133.21326238231677" r="4" fill="#ff7f0e" />
<circle cx="1494.5132743362833" cy="129.93860008186653" r="4" fill="#ff7f0e" />
<circle cx="1507.2566371681417" cy="124.45899849911314" r="4" fill="#ff7f0e" />
<circle cx="1520.0" cy="120.81866557511262" r="4" fill="#ff7f0e" />
<path d="M 80.0 920.0 L 92.7433628318584 725.2885796152271 L 105.48672566371681 684.6663937781416 L 118.23008849557522 671.6386955928504 L 130.97345132743362 665.2203574839677 L 143.71681415929203 660.1992086232774 L 156.46017699115043 651.2484650020467 L 169.20353982300884 639.8908445899849 L 181.94690265486724 630.8309455587392 L 194.69026548672565 623.3647155137127 L 207.43362831858406 615.811161140674 L 220.1769911504425 611.8651930686315 L 232.9203539823009 606.9804884704598 L 245.6637168141593 601.4244781006959 L 258.4070796460177 593.9909946786738 L 271.15044247787614 584.0414790558057 L 283.8938053097345 577.6558875699277 L 296.63716814159295 569.6820848683312 L 309.3805309734513 564.8301268931641 L 322.12389380530976 560.9605676081321 L 334.8672566371681 552.168099331423 L 347.6106194690266 545.0129622049393 L 360.353982300885 536.5425023877747 L 373.0973451327434 525.4304816482468 L 385.8407079646018 518.4881975712922 L 398.5840707964602 510.203301951153 L 411.3274336283186 508.14572247237004 L 424.070796460177 501.13794514940645 L 436.8141592920354 496.44972028926185 L 449.5575221238938 491.963432937645 L 462.3008849557522 483.6239596124983 L 475.04424778761063 476.13589848546866 L 487.78761061946904 467.883749488334 L 500.53097345132744 464.8710601719198 L 513.2743362831859 461.78196206849503 L 526.0176991150443 457.6176831764224 L 538.7610619469026 454.0046391049256 L 551.5044247787611 448.3995088006549 L 564.2477876106195 442.4887433483422 L 576.9911504424779 438.5045708827944 L 589.7345132743362 436.11952517396645 L 602.4778761061947 431.15295401828354 L 615.2212389380531 427.79642516032203 L 627.9646017699115 411.64688224860146 L 640.70796460177 405.39227725474143 L 653.4513274336283 399.7107381634602 L 666.1946902654868 393.96370582617 L 678.9380530973451 390.6344658207122 L 691.6814159292036 388.17846909537457 L 704.4247787610619 383.86683039978163 L 717.1681415929204 378.64374403056354 L 729.9115044247787 374.2011188429526 L 742.6548672566372 370.3097284759176 L 755.3982300884956 362.1612771182972 L 768.141592920354 359.4924273434302 L 780.8849557522124 355.10437986082684 L 793.6283185840708 348.4622731614136 L 806.3716814159292 344.2270432528312 L 819.1150442477876 338.4199754400328 L 831.858407079646 331.59230454359397 L 844.6017699115044 324.87924682767084 L 857.3451327433628 323.01814708691495 L 870.0884955752213 320.73679901760136 L 882.8318584070796 315.0170555328149 L 895.5752212389381 310.2469641151589 L 908.3185840707965 305.76067676354205 L 921.0619469026549 300.7340701323509 L 933.8053097345133 296.1822895347251 L 946.5486725663717 293.44794651384905 L 959.2920353982302 290.25515077091006 L 972.0353982300885 284.76463364715516 L 984.778761061947 280.19647973802705 L 997.5221238938053 276.6598444535407 L 1010.2654867256638 274.0019102196752 L 1023.0088495575221 270.98922090326107 L 1035.7522123893805 268.102060308364 L 1048.495575221239 265.5532814845136 L 1061.2389380530974 259.44603629417384 L 1073.9823008849557 254.39759858097966 L 1086.7256637168143 248.23577568563246 L 1099.4690265486724 235.42093054987038 L 1112.212389380531 232.94856051303043 L 1124.9557522123894 230.91826988675132 L 1137.6991150442477 226.42652476463365 L 1150.4424778761063 222.92809387365264 L 1163.1858407079646 219.42420521217082 L 1175.929203539823 215.2490107790967 L 1188.6725663716813 209.99863555737477 L 1201.41592920354 201.69190885523267 L 1214.1592920353983 200.85141219811703 L 1226.9026548672566 197.09646609360072 L 1239.646017699115 193.14504025105748 L 1252.3893805309735 188.67512621094284 L 1265.132743362832 188.33674443989628 L 1277.8761061946902 184.70732705689727 L 1290.6194690265486 180.84868331286668 L 1303.3628318584072 177.8032473734479 L 1316.1061946902655 175.34725064811028 L 1328.8495575221239 170.11870650839137 L 1341.5929203539824 167.71182971756036 L 1354.3362831858408 164.65002046663938 L 1367.0796460176991 161.63733115022512 L 1379.8230088495575 158.3735843907764 L 1392.566371681416 155.28994405785238 L 1405.3097345132744 151.79151316687137 L 1418.0530973451328 148.42952653840905 L 1430.796460176991 145.71701459953613 L 1443.5398230088497 142.087597216537 L 1456.283185840708 137.48123891390367 L 1469.0265486725664 134.5777050075044 L 1481.7699115044247 133.21326238231677 L 1494.5132743362833 129.93860008186653 L 1507.2566371681417 124.45899849911314 L 1520.0 120.81866557511262" fill="none" stroke="#ff7f0e" stroke-width="2" />
<circle cx="80.0" cy="920.0" r="4" fill="#2ca02c" />
<circle cx="92.7433628318584" cy="721.4626824942011" r="4" fill="#2ca02c" />
<circle cx="105.48672566371681" cy="680.9987720016373" r="4" fill="#2ca02c" />
<circle cx="118.23008849557522" cy="668.0966025378633" r="4" fill="#2ca02c" />
<circle cx="130.97345132743362" cy="661.7765042979943" r="4" fill="#2ca02c" />
<circle cx="143.71681415929203" cy="656.7662709783053" r="4" fill="#2ca02c" />
<circle cx="156.46017699115043" cy="647.9083094555874" r="4" fill="#2ca02c" />
<circle cx="169.20353982300884" cy="636.698048847046" r="4" fill="#2ca02c" />
<circle cx="181.94690265486724" cy="627.7418474553144" r="4" fill="#2ca02c" />
<circle cx="194.69026548672565" cy="620.3356528857962" r="4" fill="#2ca02c" />
<circle cx="207.43362831858406" cy="612.8203029062628" r="4" fill="#2ca02c" />
<circle cx="220.1769911504425" cy="608.9343703097285" r="4" fill="#2ca02c" />
<circle cx="232.9203539823009" cy="604.0496657115568" r="4" fill="#2ca02c" />
<circle cx="245.6637168141593" cy="598.5100286532952" r="4" fill="#2ca02c" />
<circle cx="258.4070796460177" cy="591.2402783462956" r="4" fill="#2ca02c" />
<circle cx="271.15044247787614" cy="581.5036157729567" r="4" fill="#2ca02c" />
<circle cx="283.8938053097345" cy="575.1453131395824" r="4" fill="#2ca02c" />
<circle cx="296.63716814159295" cy="567.1769682084869" r="4" fill="#2ca02c" />
<circle cx="309.3805309734513" cy="562.3195524628189" r="4" fill="#2ca02c" />
<circle cx="322.12389380530976" cy="558.4609087187885" r="4" fill="#2ca02c" />
<circle cx="334.8672566371681" cy="549.7284759175877" r="4" fill="#2ca02c" />
<circle cx="347.6106194690266" cy="542.5897121026061" r="4" fill="#2ca02c" />
<circle cx="360.353982300885" cy="534.1301678264429" r="4" fill="#2ca02c" />
<circle cx="373.0973451327434" cy="523.0345203984173" r="4" fill="#2ca02c" />
<circle cx="385.8407079646018" cy="516.1140674034657" r="4" fill="#2ca02c" />
<circle cx="398.5840707964602" cy="507.83462955382726" r="4" fill="#2ca02c" />
<circle cx="411.3274336283186" cy="505.78250784554507" r="4" fill="#2ca02c" />
<circle cx="424.070796460177" cy="498.7801882930823" r="4" fill="#2ca02c" />
<circle cx="436.8141592920354" cy="494.1083367444399" r="4" fill="#2ca02c" />
<circle cx="449.5575221238938" cy="489.64933824532676" r="4" fill="#2ca02c" />
<circle cx="462.3008849557522" cy="481.5008868877064" r="4" fill="#2ca02c" />
<circle cx="475.04424778761063" cy="474.03465684267974" r="4" fill="#2ca02c" />
<circle cx="487.78761061946904" cy="466.0117342065766" r="4" fill="#2ca02c" />
<circle cx="500.53097345132744" cy="462.9990448901624" r="4" fill="#2ca02c" />
<circle cx="513.2743362831859" cy="459.94815118024286" r="4" fill="#2ca02c" />
<circle cx="526.0176991150443" cy="455.78933005867106" r="4" fill="#2ca02c" />
<circle cx="538.7610619469026" cy="452.1926592986765" r="4" fill="#2ca02c" />
<circle cx="551.5044247787611" cy="446.5875289944058" r="4" fill="#2ca02c" />
<circle cx="564.2477876106195" cy="440.70405239459683" r="4" fill="#2ca02c" />
<circle cx="576.9911504424779" cy="436.72533769954975" r="4" fill="#2ca02c" />
<circle cx="589.7345132743362" cy="434.34029199072177" r="4" fill="#2ca02c" />
<circle cx="602.4778761061947" cy="429.37917860553966" r="4" fill="#2ca02c" />
<circle cx="615.2212389380531" cy="426.07722745258565" r="4" fill="#2ca02c" />
<circle cx="627.9646017699115" cy="410.0695865738846" r="4" fill="#2ca02c" />
<circle cx="640.70796460177" cy="403.82589712102606" r="4" fill="#2ca02c" />
<circle cx="653.4513274336283" cy="398.31354891526814" r="4" fill="#2ca02c" />
<circle cx="666.1946902654868" cy="392.57197434847865" r="4" fill="#2ca02c" />
<circle cx="678.9380530973451" cy="389.24273434302086" r="4" fill="#2ca02c" />
<circle cx="691.6814159292036" cy="386.78673761768323" r="4" fill="#2ca02c" />
<circle cx="704.4247787610619" cy="382.4860144630918" r="4" fill="#2ca02c" />
<circle cx="717.1681415929204" cy="377.2629280938736" r="4" fill="#2ca02c" />
<circle cx="729.9115044247787" cy="372.8203029062628" r="4" fill="#2ca02c" />
<circle cx="742.6548672566372" cy="368.9398280802292" r="4" fill="#2ca02c" />
<circle cx="755.3982300884956" cy="360.7913767226088" r="4" fill="#2ca02c" />
<circle cx="768.141592920354" cy="358.1225269477419" r="4" fill="#2ca02c" />
<circle cx="780.8849557522124" cy="353.7344794651385" r="4" fill="#2ca02c" />
<circle cx="793.6283185840708" cy="347.10328830672665" r="4" fill="#2ca02c" />
<circle cx="806.3716814159292" cy="342.8844317096466" r="4" fill="#2ca02c" />
<circle cx="819.1150442477876" cy="337.08282166734887" r="4" fill="#2ca02c" />
<circle cx="831.858407079646" cy="330.3042707054168" r="4" fill="#2ca02c" />
<circle cx="844.6017699115044" cy="323.5912129894938" r="4" fill="#2ca02c" />
<circle cx="857.3451327433628" cy="321.7301132487379" r="4" fill="#2ca02c" />
<circle cx="870.0884955752213" cy="319.4487651794242" r="4" fill="#2ca02c" />
<circle cx="882.8318584070796" cy="313.723563924137" r="4" fill="#2ca02c" />
<circle cx="895.5752212389381" cy="308.95893027698185" r="4" fill="#2ca02c" />
<circle cx="908.3185840707965" cy="304.472642925365" r="4" fill="#2ca02c" />
<circle cx="921.0619469026549" cy="299.44603629417384" r="4" fill="#2ca02c" />
<circle cx="933.8053097345133" cy="294.89425569654793" r="4" fill="#2ca02c" />
<circle cx="946.5486725663717" cy="292.159912675672" r="4" fill="#2ca02c" />
<circle cx="959.2920353982302" cy="288.99986355573753" r="4" fill="#2ca02c" />
<circle cx="972.0353982300885" cy="283.51480420248333" r="4" fill="#2ca02c" />
<circle cx="984.778761061947" cy="278.9466502933552" r="4" fill="#2ca02c" />
<circle cx="997.5221238938053" cy="275.4536771728749" r="4" fill="#2ca02c" />
<circle cx="1010.2654867256638" cy="272.8121162505116" r="4" fill="#2ca02c" />
<circle cx="1023.0088495575221" cy="269.8430890981034" r="4" fill="#2ca02c" />
<circle cx="1035.7522123893805" cy="266.96684404420796" r="4" fill="#2ca02c" />
<circle cx="1048.495575221239" cy="264.42352299085826" r="4" fill="#2ca02c" />
<circle cx="1061.2389380530974" cy="258.349024423523" r="4" fill="#2ca02c" />
<circle cx="1073.9823008849557" cy="253.31696002183105" r="4" fill="#2ca02c" />
<circle cx="1086.7256637168143" cy="247.2206303724928" r="4" fill="#2ca02c" />
<circle cx="1099.4690265486724" cy="234.40578523673082" r="4" fill="#2ca02c" />
<circle cx="1112.212389380531" cy="231.93341519989087" r="4" fill="#2ca02c" />
<circle cx="1124.9557522123894" cy="229.90312457361165" r="4" fill="#2ca02c" />
<circle cx="1137.6991150442477" cy="225.4113794514941" r="4" fill="#2ca02c" />
<circle cx="1150.4424778761063" cy="221.9129485605131" r="4" fill="#2ca02c" />
<circle cx="1163.1858407079646" cy="218.40905989903126" r="4" fill="#2ca02c" />
<circle cx="1175.929203539823" cy="214.23386546595714" r="4" fill="#2ca02c" />
<circle cx="1188.6725663716813" cy="208.9834902442352" r="4" fill="#2ca02c" />
<circle cx="1201.41592920354" cy="200.6713057715923" r="4" fill="#2ca02c" />
<circle cx="1214.1592920353983" cy="199.83080911447678" r="4" fill="#2ca02c" />
<circle cx="1226.9026548672566" cy="196.07586300996047" r="4" fill="#2ca02c" />
<circle cx="1239.646017699115" cy="192.1244371674171" r="4" fill="#2ca02c" />
<circle cx="1252.3893805309735" cy="187.65452312730247" r="4" fill="#2ca02c" />
<circle cx="1265.132743362832" cy="187.31614135625603" r="4" fill="#2ca02c" />
<circle cx="1277.8761061946902" cy="183.6976395142584" r="4" fill="#2ca02c" />
<circle cx="1290.6194690265486" cy="179.83899577022783" r="4" fill="#2ca02c" />
<circle cx="1303.3628318584072" cy="176.79355983080916" r="4" fill="#2ca02c" />
<circle cx="1316.1061946902655" cy="174.33756310547142" r="4" fill="#2ca02c" />
<circle cx="1328.8495575221239" cy="169.1144767362532" r="4" fill="#2ca02c" />
<circle cx="1341.5929203539824" cy="166.70759994542232" r="4" fill="#2ca02c" />
<circle cx="1354.3362831858408" cy="163.69491062900806" r="4" fill="#2ca02c" />
<circle cx="1367.0796460176991" cy="160.6822213125938" r="4" fill="#2ca02c" />
<circle cx="1379.8230088495575" cy="157.41847455314507" r="4" fill="#2ca02c" />
<circle cx="1392.566371681416" cy="154.33483422022107" r="4" fill="#2ca02c" />
<circle cx="1405.3097345132744" cy="150.83640332924006" r="4" fill="#2ca02c" />
<circle cx="1418.0530973451328" cy="147.47987447127844" r="4" fill="#2ca02c" />
<circle cx="1430.796460176991" cy="144.77827807340702" r="4" fill="#2ca02c" />
<circle cx="1443.5398230088497" cy="141.19798062491475" r="4" fill="#2ca02c" />
<circle cx="1456.283185840708" cy="136.5916223222813" r="4" fill="#2ca02c" />
<circle cx="1469.0265486725664" cy="133.73720835038887" r="4" fill="#2ca02c" />
<circle cx="1481.7699115044247" cy="132.37276572520125" r="4" fill="#2ca02c" />
<circle cx="1494.5132743362833" cy="129.098103424751" r="4" fill="#2ca02c" />
<circle cx="1507.2566371681417" cy="123.62941738299901" r="4" fill="#2ca02c" />
<circle cx="1520.0" cy="120.0" r="4" fill="#2ca02c" />
<path d="M 80.0 920.0 L 92.7433628318584 721.4626824942011 L 105.48672566371681 680.9987720016373 L 118.23008849557522 668.0966025378633 L 130.97345132743362 661.7765042979943 L 143.71681415929203 656.7662709783053 L 156.46017699115043 647.9083094555874 L 169.20353982300884 636.698048847046 L 181.94690265486724 627.7418474553144 L 194.69026548672565 620.3356528857962 L 207.43362831858406 612.8203029062628 L 220.1769911504425 608.9343703097285 L 232.9203539823009 604.0496657115568 L 245.6637168141593 598.5100286532952 L 258.4070796460177 591.2402783462956 L 271.15044247787614 581.5036157729567 L 283.8938053097345 575.1453131395824 L 296.63716814159295 567.1769682084869 L 309.3805309734513 562.3195524628189 L 322.12389380530976 558.4609087187885 L 334.8672566371681 549.7284759175877 L 347.6106194690266 542.5897121026061 L 360.353982300885 534.1301678264429 L 373.0973451327434 523.0345203984173 L 385.8407079646018 516.1140674034657 L 398.5840707964602 507.83462955382726 L 411.3274336283186 505.78250784554507 L 424.070796460177 498.7801882930823 L 436.8141592920354 494.1083367444399 L 449.5575221238938 489.64933824532676 L 462.3008849557522 481.5008868877064 L 475.04424778761063 474.03465684267974 L 487.78761061946904 466.0117342065766 L 500.53097345132744 462.9990448901624 L 513.2743362831859 459.94815118024286 L 526.0176991150443 455.78933005867106 L 538.7610619469026 452.1926592986765 L 551.5044247787611 446.5875289944058 L 564.2477876106195 440.70405239459683 L 576.9911504424779 436.72533769954975 L 589.7345132743362 434.34029199072177 L 602.4778761061947 429.37917860553966 L 615.2212389380531 426.07722745258565 L 627.9646017699115 410.0695865738846 L 640.70796460177 403.82589712102606 L 653.4513274336283 398.31354891526814 L 666.1946902654868 392.57197434847865 L 678.9380530973451 389.24273434302086 L 691.6814159292036 386.78673761768323 L 704.4247787610619 382.4860144630918 L 717.1681415929204 377.2629280938736 L 729.9115044247787 372.8203029062628 L 742.6548672566372 368.9398280802292 L 755.3982300884956 360.7913767226088 L 768.141592920354 358.1225269477419 L 780.8849557522124 353.7344794651385 L 793.6283185840708 347.10328830672665 L 806.3716814159292 342.8844317096466 L 819.1150442477876 337.08282166734887 L 831.858407079646 330.3042707054168 L 844.6017699115044 323.5912129894938 L 857.3451327433628 321.7301132487379 L 870.0884955752213 319.4487651794242 L 882.8318584070796 313.723563924137 L 895.5752212389381 308.95893027698185 L 908.3185840707965 304.472642925365 L 921.0619469026549 299.44603629417384 L 933.8053097345133 294.89425569654793 L 946.5486725663717 292.159912675672 L 959.2920353982302 288.99986355573753 L 972.0353982300885 283.51480420248333 L 984.778761061947 278.9466502933552 L 997.5221238938053 275.4536771728749 L 1010.2654867256638 272.8121162505116 L 1023.0088495575221 269.8430890981034 L 1035.7522123893805 266.96684404420796 L 1048.495575221239 264.42352299085826 L 1061.2389380530974 258.349024423523 L 1073.9823008849557 253.31696002183105 L 1086.7256637168143 247.2206303724928 L 1099.4690265486724 234.40578523673082 L 1112.212389380531 231.93341519989087 L 1124.9557522123894 229.90312457361165 L 1137.6991150442477 225.4113794514941 L 1150.4424778761063 221.9129485605131 L 1163.1858407079646 218.40905989903126 L 1175.929203539823 214.23386546595714 L 1188.6725663716813 208.9834902442352 L 1201.41592920354 200.6713057715923 L 1214.1592920353983 199.83080911447678 L 1226.9026548672566 196.07586300996047 L 1239.646017699115 192.1244371674171 L 1252.3893805309735 187.65452312730247 L 1265.132743362832 187.31614135625603 L 1277.8761061946902 183.6976395142584 L 1290.6194690265486 179.83899577022783 L 1303.3628318584072 176.79355983080916 L 1316.1061946902655 174.33756310547142 L 1328.8495575221239 169.1144767362532 L 1341.5929203539824 166.70759994542232 L 1354.3362831858408 163.69491062900806 L 1367.0796460176991 160.6822213125938 L 1379.8230088495575 157.41847455314507 L 1392.566371681416 154.33483422022107 L 1405.3097345132744 150.83640332924006 L 1418.0530973451328 147.47987447127844 L 1430.796460176991 144.77827807340702 L 1443.5398230088497 141.19798062491475 L 1456.283185840708 136.5916223222813 L 1469.0265486725664 133.73720835038887 L 1481.7699115044247 132.37276572520125 L 1494.5132743362833 129.098103424751 L 1507.2566371681417 123.62941738299901 L 1520.0 120.0" fill="none" stroke="#2ca02c" stroke-width="2" />
<circle cx="80.0" cy="920.0" r="4" fill="#d62728" />
<circle cx="92.7433628318584" cy="881.4790558057034" r="4" fill="#d62728" />
<circle cx="105.48672566371681" cy="825.7279301405376" r="4" fill="#d62728" />
<circle cx="118.23008849557522" cy="806.4347114203848" r="4" fill="#d62728" />
<circle cx="130.97345132743362" cy="792.7739118570064" r="4" fill="#d62728" />
<circle cx="143.71681415929203" cy="785.9626142720699" r="4" fill="#d62728" />
<circle cx="156.46017699115043" cy="772.552872151726" r="4" fill="#d62728" />
<circle cx="169.20353982300884" cy="758.4663664892892" r="4" fill="#d62728" />
<circle cx="181.94690265486724" cy="745.4987037795061" r="4" fill="#d62728" />
<circle cx="194.69026548672565" cy="734.6322827125119" r="4" fill="#d62728" />
<circle cx="207.43362831858406" cy="724.5408650566244" r="4" fill="#d62728" />
<circle cx="220.1769911504425" cy="718.1880201937508" r="4" fill="#d62728" />
<circle cx="232.9203539823009" cy="711.8952108063856" r="4" fill="#d62728" />
<circle cx="245.6637168141593" cy="702.8953472506481" r="4" fill="#d62728" />
<circle cx="258.4070796460177" cy="689.6056760813208" r="4" fill="#d62728" />
<circle cx="271.15044247787614" cy="675.3063173693546" r="4" fill="#d62728" />
<circle cx="283.8938053097345" cy="666.1099740755901" r="4" fill="#d62728" />
<circle cx="296.63716814159295" cy="653.0604448082959" r="4" fill="#d62728" />
<circle cx="309.3805309734513" cy="647.6026743075454" r="4" fill="#d62728" />
<circle cx="322.12389380530976" cy="642.6306453813618" r="4" fill="#d62728" />
<circle cx="334.8672566371681" cy="631.9497885113931" r="4" fill="#d62728" />
<circle cx="347.6106194690266" cy="621.9620684950198" r="4" fill="#d62728" />
<circle cx="360.353982300885" cy="612.5856187747305" r="4" fill="#d62728" />
<circle cx="373.0973451327434" cy="599.6015827534452" r="4" fill="#d62728" />
<circle cx="385.8407079646018" cy="590.9510165097558" r="4" fill="#d62728" />
<circle cx="398.5840707964602" cy="585.4386683039978" r="4" fill="#d62728" />
<circle cx="411.3274336283186" cy="579.2168099331423" r="4" fill="#d62728" />
<circle cx="424.070796460177" cy="571.2320916905444" r="4" fill="#d62728" />
<circle cx="436.8141592920354" cy="564.7646336471552" r="4" fill="#d62728" />
<circle cx="449.5575221238938" cy="558.886614817847" r="4" fill="#d62728" />
<circle cx="462.3008849557522" cy="548.9098103424751" r="4" fill="#d62728" />
<circle cx="475.04424778761063" cy="540.7559012143539" r="4" fill="#d62728" />
<circle cx="487.78761061946904" cy="528.377677718652" r="4" fill="#d62728" />
<circle cx="500.53097345132744" cy="524.748260335653" r="4" fill="#d62728" />
<circle cx="513.2743362831859" cy="520.6112702960841" r="4" fill="#d62728" />
<circle cx="526.0176991150443" cy="515.1644153363351" r="4" fill="#d62728" />
<circle cx="538.7610619469026" cy="510.749079001228" r="4" fill="#d62728" />
<circle cx="551.5044247787611" cy="504.2270432528312" r="4" fill="#d62728" />
<circle cx="564.2477876106195" cy="497.2847591758767" r="4" fill="#d62728" />
<circle cx="576.9911504424779" cy="493.96097694091964" r="4" fill="#d62728" />
<circle cx="589.7345132743362" cy="490.3370173284213" r="4" fill="#d62728" />
<circle cx="602.4778761061947" cy="484.35530085959886" r="4" fill="#d62728" />
<circle cx="615.2212389380531" cy="479.3723563924137" r="4" fill="#d62728" />
<circle cx="627.9646017699115" cy="462.7807340701323" r="4" fill="#d62728" />
<circle cx="640.70796460177" cy="456.3678537317506" r="4" fill="#d62728" />
<circle cx="653.4513274336283" cy="449.54564060581254" r="4" fill="#d62728" />
<circle cx="666.1946902654868" cy="444.69368263064536" r="4" fill="#d62728" />
<circle cx="678.9380530973451" cy="439.74894255696546" r="4" fill="#d62728" />
<circle cx="691.6814159292036" cy="436.63801337153774" r="4" fill="#d62728" />
<circle cx="704.4247787610619" cy="430.9346431982535" r="4" fill="#d62728" />
<circle cx="717.1681415929204" cy="430.6017191977077" r="4" fill="#d62728" />
<circle cx="729.9115044247787" cy="430.6017191977077" r="4" fill="#d62728" />
<circle cx="742.6548672566372" cy="430.6017191977077" r="4" fill="#d62728" />
<circle cx="755.3982300884956" cy="430.6017191977077" r="4" fill="#d62728" />
<circle cx="768.141592920354" cy="430.6017191977077" r="4" fill="#d62728" />
<circle cx="780.8849557522124" cy="430.6017191977077" r="4" fill="#d62728" />
<circle cx="793.6283185840708" cy="430.6017191977077" r="4" fill="#d62728" />
<circle cx="806.3716814159292" cy="430.6017191977077" r="4" fill="#d62728" />
<circle cx="819.1150442477876" cy="424.7455314504025" r="4" fill="#d62728" />
<circle cx="831.858407079646" cy="371.4886069040797" r="4" fill="#d62728" />
<circle cx="844.6017699115044" cy="366.6475644699141" r="4" fill="#d62728" />
<circle cx="857.3451327433628" cy="362.69068085687" r="4" fill="#d62728" />
<circle cx="870.0884955752213" cy="359.94542229499245" r="4" fill="#d62728" />
<circle cx="882.8318584070796" cy="354.0019102196752" r="4" fill="#d62728" />
<circle cx="895.5752212389381" cy="347.34343020875974" r="4" fill="#d62728" />
<circle cx="908.3185840707965" cy="342.5023877745941" r="4" fill="#d62728" />
<circle cx="921.0619469026549" cy="337.2956747168781" r="4" fill="#d62728" />
<circle cx="933.8053097345133" cy="332.7384363487515" r="4" fill="#d62728" />
<circle cx="946.5486725663717" cy="329.3655341792878" r="4" fill="#d62728" />
<circle cx="959.2920353982302" cy="325.92713876381504" r="4" fill="#d62728" />
<circle cx="972.0353982300885" cy="320.1691908855232" r="4" fill="#d62728" />
<circle cx="984.778761061947" cy="315.2026197298403" r="4" fill="#d62728" />
<circle cx="997.5221238938053" cy="311.52408241233456" r="4" fill="#d62728" />
<circle cx="1010.2654867256638" cy="308.44044207941056" r="4" fill="#d62728" />
<circle cx="1023.0088495575221" cy="305.4386683039978" r="4" fill="#d62728" />
<circle cx="1035.7522123893805" cy="302.4969300040933" r="4" fill="#d62728" />
<circle cx="1048.495575221239" cy="299.8117069177241" r="4" fill="#d62728" />
<circle cx="1061.2389380530974" cy="295.1180242870787" r="4" fill="#d62728" />
<circle cx="1073.9823008849557" cy="288.21394460362944" r="4" fill="#d62728" />
<circle cx="1086.7256637168143" cy="281.52271796970933" r="4" fill="#d62728" />
<circle cx="1099.4690265486724" cy="268.54413971892484" r="4" fill="#d62728" />
<circle cx="1112.212389380531" cy="266.0717696820849" r="4" fill="#d62728" />
<circle cx="1124.9557522123894" cy="263.84499931777873" r="4" fill="#d62728" />
<circle cx="1137.6991150442477" cy="259.18406331013784" r="4" fill="#d62728" />
<circle cx="1150.4424778761063" cy="255.5218993041343" r="4" fill="#d62728" />
<circle cx="1163.1858407079646" cy="251.34124710055937" r="4" fill="#d62728" />
<circle cx="1175.929203539823" cy="247.05689725747027" r="4" fill="#d62728" />
<circle cx="1188.6725663716813" cy="240.74225678810205" r="4" fill="#d62728" />
<circle cx="1201.41592920354" cy="236.63801337153768" r="4" fill="#d62728" />
<circle cx="1214.1592920353983" cy="231.35489152681134" r="4" fill="#d62728" />
<circle cx="1226.9026548672566" cy="227.39800791376717" r="4" fill="#d62728" />
<circle cx="1239.646017699115" cy="223.2992222677036" r="4" fill="#d62728" />
<circle cx="1252.3893805309735" cy="218.38722881702824" r="4" fill="#d62728" />
<circle cx="1265.132743362832" cy="217.76504297994268" r="4" fill="#d62728" />
<circle cx="1277.8761061946902" cy="214.07559012143543" r="4" fill="#d62728" />
<circle cx="1290.6194690265486" cy="211.18297175603766" r="4" fill="#d62728" />
<circle cx="1303.3628318584072" cy="206.88770637194705" r="4" fill="#d62728" />
<circle cx="1316.1061946902655" cy="204.3989630236049" r="4" fill="#d62728" />
<circle cx="1328.8495575221239" cy="199.01760130986497" r="4" fill="#d62728" />
<circle cx="1341.5929203539824" cy="195.93396097694097" r="4" fill="#d62728" />
<circle cx="1354.3362831858408" cy="192.6374675944877" r="4" fill="#d62728" />
<circle cx="1367.0796460176991" cy="189.53199617956068" r="4" fill="#d62728" />
<circle cx="1379.8230088495575" cy="186.43744030563516" r="4" fill="#d62728" />
<circle cx="1392.566371681416" cy="183.10274252967668" r="4" fill="#d62728" />
<circle cx="1405.3097345132744" cy="179.47332514667755" r="4" fill="#d62728" />
<circle cx="1418.0530973451328" cy="176.0676763542093" r="4" fill="#d62728" />
<circle cx="1430.796460176991" cy="172.312730249693" r="4" fill="#d62728" />
<circle cx="1443.5398230088497" cy="168.59053076818122" r="4" fill="#d62728" />
<circle cx="1456.283185840708" cy="163.80952380952385" r="4" fill="#d62728" />
<circle cx="1469.0265486725664" cy="161.01514531313956" r="4" fill="#d62728" />
<circle cx="1481.7699115044247" cy="159.4596807204257" r="4" fill="#d62728" />
<circle cx="1494.5132743362833" cy="156.07586300996047" r="4" fill="#d62728" />
<circle cx="1507.2566371681417" cy="150.3670350661755" r="4" fill="#d62728" />
<circle cx="1520.0" cy="146.50839132214492" r="4" fill="#d62728" />
<path d="M 80.0 920.0 L 92.7433628318584 881.4790558057034 L 105.48672566371681 825.7279301405376 L 118.23008849557522 806.4347114203848 L 130.97345132743362 792.7739118570064 L 143.71681415929203 785.9626142720699 L 156.46017699115043 772.552872151726 L 169.20353982300884 758.4663664892892 L 181.94690265486724 745.4987037795061 L 194.69026548672565 734.6322827125119 L 207.43362831858406 724.5408650566244 L 220.1769911504425 718.1880201937508 L 232.9203539823009 711.8952108063856 L 245.6637168141593 702.8953472506481 L 258.4070796460177 689.6056760813208 L 271.15044247787614 675.3063173693546 L 283.8938053097345 666.1099740755901 L 296.63716814159295 653.0604448082959 L 309.3805309734513 647.6026743075454 L 322.12389380530976 642.6306453813618 L 334.8672566371681 631.9497885113931 L 347.6106194690266 621.9620684950198 L 360.353982300885 612.5856187747305 L 373.0973451327434 599.6015827534452 L 385.8407079646018 590.9510165097558 L 398.5840707964602 585.4386683039978 L 411.3274336283186 579.2168099331423 L 424.070796460177 571.2320916905444 L 436.8141592920354 564.7646336471552 L 449.5575221238938 558.886614817847 L 462.3008849557522 548.9098103424751 L 475.04424778761063 540.7559012143539 L 487.78761061946904 528.377677718652 L 500.53097345132744 524.748260335653 L 513.2743362831859 520.6112702960841 L 526.0176991150443 515.1644153363351 L 538.7610619469026 510.749079001228 L 551.5044247787611 504.2270432528312 L 564.2477876106195 497.2847591758767 L 576.9911504424779 493.96097694091964 L 589.7345132743362 490.3370173284213 L 602.4778761061947 484.35530085959886 L 615.2212389380531 479.3723563924137 L 627.9646017699115 462.7807340701323 L 640.70796460177 456.3678537317506 L 653.4513274336283 449.54564060581254 L 666.1946902654868 444.69368263064536 L 678.9380530973451 439.74894255696546 L 691.6814159292036 436.63801337153774 L 704.4247787610619 430.9346431982535 L 717.1681415929204 430.6017191977077 L 729.9115044247787 430.6017191977077 L 742.6548672566372 430.6017191977077 L 755.3982300884956 430.6017191977077 L 768.141592920354 430.6017191977077 L 780.8849557522124 430.6017191977077 L 793.6283185840708 430.6017191977077 L 806.3716814159292 430.6017191977077 L 819.1150442477876 424.7455314504025 L 831.858407079646 371.4886069040797 L 844.6017699115044 366.6475644699141 L 857.3451327433628 362.69068085687 L 870.0884955752213 359.94542229499245 L 882.8318584070796 354.0019102196752 L 895.5752212389381 347.34343020875974 L 908.3185840707965 342.5023877745941 L 921.0619469026549 337.2956747168781 L 933.8053097345133 332.7384363487515 L 946.5486725663717 329.3655341792878 L 959.2920353982302 325.92713876381504 L 972.0353982300885 320.1691908855232 L 984.778761061947 315.2026197298403 L 997.5221238938053 311.52408241233456 L 1010.2654867256638 308.44044207941056 L 1023.0088495575221 305.4386683039978 L 1035.7522123893805 302.4969300040933 L 1048.495575221239 299.8117069177241 L 1061.2389380530974 295.1180242870787 L 1073.9823008849557 288.21394460362944 L 1086.7256637168143 281.52271796970933 L 1099.4690265486724 268.54413971892484 L 1112.212389380531 266.0717696820849 L 1124.9557522123894 263.84499931777873 L 1137.6991150442477 259.18406331013784 L 1150.4424778761063 255.5218993041343 L 1163.1858407079646 251.34124710055937 L 1175.929203539823 247.05689725747027 L 1188.6725663716813 240.74225678810205 L 1201.41592920354 236.63801337153768 L 1214.1592920353983 231.35489152681134 L 1226.9026548672566 227.39800791376717 L 1239.646017699115 223.2992222677036 L 1252.3893805309735 218.38722881702824 L 1265.132743362832 217.76504297994268 L 1277.8761061946902 214.07559012143543 L 1290.6194690265486 211.18297175603766 L 1303.3628318584072 206.88770637194705 L 1316.1061946902655 204.3989630236049 L 1328.8495575221239 199.01760130986497 L 1341.5929203539824 195.93396097694097 L 1354.3362831858408 192.6374675944877 L 1367.0796460176991 189.53199617956068 L 1379.8230088495575 186.43744030563516 L 1392.566371681416 183.10274252967668 L 1405.3097345132744 179.47332514667755 L 1418.0530973451328 176.0676763542093 L 1430.796460176991 172.312730249693 L 1443.5398230088497 168.59053076818122 L 1456.283185840708 163.80952380952385 L 1469.0265486725664 161.01514531313956 L 1481.7699115044247 159.4596807204257 L 1494.5132743362833 156.07586300996047 L 1507.2566371681417 150.3670350661755 L 1520.0 146.50839132214492" fill="none" stroke="#d62728" stroke-width="2" />
<circle cx="80.0" cy="920.0" r="4" fill="#9467bd" />
<circle cx="92.7433628318584" cy="885.5450948287624" r="4" fill="#9467bd" />
<circle cx="105.48672566371681" cy="829.5811161140674" r="4" fill="#9467bd" />
<circle cx="118.23008849557522" cy="806.8931641424479" r="4" fill="#9467bd" />
<circle cx="130.97345132743362" cy="793.1887024150634" r="4" fill="#9467bd" />
<circle cx="143.71681415929203" cy="787.0759994542229" r="4" fill="#9467bd" />
<circle cx="156.46017699115043" cy="773.5516441533633" r="4" fill="#9467bd" />
<circle cx="169.20353982300884" cy="758.8156638013372" r="4" fill="#9467bd" />
<circle cx="181.94690265486724" cy="745.4823304680039" r="4" fill="#9467bd" />
<circle cx="194.69026548672565" cy="734.4958384499932" r="4" fill="#9467bd" />
<circle cx="207.43362831858406" cy="724.5190339746214" r="4" fill="#9467bd" />
<circle cx="220.1769911504425" cy="718.1607313412471" r="4" fill="#9467bd" />
<circle cx="232.9203539823009" cy="711.8242597898759" r="4" fill="#9467bd" />
<circle cx="245.6637168141593" cy="702.4096056760814" r="4" fill="#9467bd" />
<circle cx="258.4070796460177" cy="689.2181743757675" r="4" fill="#9467bd" />
<circle cx="271.15044247787614" cy="674.6404693682631" r="4" fill="#9467bd" />
<circle cx="283.8938053097345" cy="665.193068631464" r="4" fill="#9467bd" />
<circle cx="296.63716814159295" cy="653.8518215309045" r="4" fill="#9467bd" />
<circle cx="309.3805309734513" cy="648.3885932596534" r="4" fill="#9467bd" />
<circle cx="322.12389380530976" cy="643.3619866284623" r="4" fill="#9467bd" />
<circle cx="334.8672566371681" cy="632.5228544139719" r="4" fill="#9467bd" />
<circle cx="347.6106194690266" cy="622.2240414790558" r="4" fill="#9467bd" />
<circle cx="360.353982300885" cy="612.858507299768" r="4" fill="#9467bd" />
<circle cx="373.0973451327434" cy="599.825351343976" r="4" fill="#9467bd" />
<circle cx="385.8407079646018" cy="591.0492563787693" r="4" fill="#9467bd" />
<circle cx="398.5840707964602" cy="585.5532814845136" r="4" fill="#9467bd" />
<circle cx="411.3274336283186" cy="579.331423113658" r="4" fill="#9467bd" />
<circle cx="424.070796460177" cy="571.3357893300587" r="4" fill="#9467bd" />
<circle cx="436.8141592920354" cy="564.6554782371402" r="4" fill="#9467bd" />
<circle cx="449.5575221238938" cy="558.7774594078319" r="4" fill="#9467bd" />
<circle cx="462.3008849557522" cy="548.9370991949788" r="4" fill="#9467bd" />
<circle cx="475.04424778761063" cy="540.9687542638833" r="4" fill="#9467bd" />
<circle cx="487.78761061946904" cy="528.5195797516715" r="4" fill="#9467bd" />
<circle cx="500.53097345132744" cy="524.8574157456678" r="4" fill="#9467bd" />
<circle cx="513.2743362831859" cy="520.8896165916224" r="4" fill="#9467bd" />
<circle cx="526.0176991150443" cy="515.4263883203712" r="4" fill="#9467bd" />
<circle cx="538.7610619469026" cy="510.99467867376177" r="4" fill="#9467bd" />
<circle cx="551.5044247787611" cy="504.42352299085826" r="4" fill="#9467bd" />
<circle cx="564.2477876106195" cy="497.0719061263474" r="4" fill="#9467bd" />
<circle cx="576.9911504424779" cy="493.7317505798881" r="4" fill="#9467bd" />
<circle cx="589.7345132743362" cy="490.1077909673898" r="4" fill="#9467bd" />
<circle cx="602.4778761061947" cy="484.1206167280666" r="4" fill="#9467bd" />
<circle cx="615.2212389380531" cy="479.07763678537316" r="4" fill="#9467bd" />
<circle cx="627.9646017699115" cy="462.48055669259105" r="4" fill="#9467bd" />
<circle cx="640.70796460177" cy="456.0349297312048" r="4" fill="#9467bd" />
<circle cx="653.4513274336283" cy="449.2181743757675" r="4" fill="#9467bd" />
<circle cx="666.1946902654868" cy="444.36621640060036" r="4" fill="#9467bd" />
<circle cx="678.9380530973451" cy="439.37781416291443" r="4" fill="#9467bd" />
<circle cx="691.6814159292036" cy="436.2778005184882" r="4" fill="#9467bd" />
<circle cx="704.4247787610619" cy="430.3069995906672" r="4" fill="#9467bd" />
<circle cx="717.1681415929204" cy="423.86137262928094" r="4" fill="#9467bd" />
<circle cx="729.9115044247787" cy="419.1622322281348" r="4" fill="#9467bd" />
<circle cx="742.6548672566372" cy="414.0428434984309" r="4" fill="#9467bd" />
<circle cx="755.3982300884956" cy="409.3054987037795" r="4" fill="#9467bd" />
<circle cx="768.141592920354" cy="402.58698321735574" r="4" fill="#9467bd" />
<circle cx="780.8849557522124" cy="397.9642516032201" r="4" fill="#9467bd" />
<circle cx="793.6283185840708" cy="390.072315459135" r="4" fill="#9467bd" />
<circle cx="806.3716814159292" cy="385.4222949924956" r="4" fill="#9467bd" />
<circle cx="819.1150442477876" cy="379.9481511802429" r="4" fill="#9467bd" />
<circle cx="831.858407079646" cy="371.16114067403464" r="4" fill="#9467bd" />
<circle cx="844.6017699115044" cy="366.33647155137123" r="4" fill="#9467bd" />
<circle cx="857.3451327433628" cy="362.3795879383272" r="4" fill="#9467bd" />
<circle cx="870.0884955752213" cy="359.6343293764497" r="4" fill="#9467bd" />
<circle cx="882.8318584070796" cy="353.6744439896303" r="4" fill="#9467bd" />
<circle cx="895.5752212389381" cy="347.0214217492154" r="4" fill="#9467bd" />
<circle cx="908.3185840707965" cy="342.1803793150498" r="4" fill="#9467bd" />
<circle cx="921.0619469026549" cy="336.9736662573339" r="4" fill="#9467bd" />
<circle cx="933.8053097345133" cy="332.4164278892073" r="4" fill="#9467bd" />
<circle cx="946.5486725663717" cy="329.03806794924276" r="4" fill="#9467bd" />
<circle cx="959.2920353982302" cy="325.59967253377" r="4" fill="#9467bd" />
<circle cx="972.0353982300885" cy="319.8308091144768" r="4" fill="#9467bd" />
<circle cx="984.778761061947" cy="314.86423795879386" r="4" fill="#9467bd" />
<circle cx="997.5221238938053" cy="311.185700641288" r="4" fill="#9467bd" />
<circle cx="1010.2654867256638" cy="308.102060308364" r="4" fill="#9467bd" />
<circle cx="1023.0088495575221" cy="305.10028653295126" r="4" fill="#9467bd" />
<circle cx="1035.7522123893805" cy="302.15854823304676" r="4" fill="#9467bd" />
<circle cx="1048.495575221239" cy="299.47332514667755" r="4" fill="#9467bd" />
<circle cx="1061.2389380530974" cy="294.77418474553144" r="4" fill="#9467bd" />
<circle cx="1073.9823008849557" cy="287.8701050620822" r="4" fill="#9467bd" />
<circle cx="1086.7256637168143" cy="281.1952517396644" r="4" fill="#9467bd" />
<circle cx="1099.4690265486724" cy="268.2112157183791" r="4" fill="#9467bd" />
<circle cx="1112.212389380531" cy="265.73884568153915" r="4" fill="#9467bd" />
<circle cx="1124.9557522123894" cy="263.51207531723287" r="4" fill="#9467bd" />
<circle cx="1137.6991150442477" cy="258.8565970800928" r="4" fill="#9467bd" />
<circle cx="1150.4424778761063" cy="255.18897530358845" r="4" fill="#9467bd" />
<circle cx="1163.1858407079646" cy="251.00286532951293" r="4" fill="#9467bd" />
<circle cx="1175.929203539823" cy="246.6857688634193" r="4" fill="#9467bd" />
<circle cx="1188.6725663716813" cy="240.37112839405108" r="4" fill="#9467bd" />
<circle cx="1201.41592920354" cy="236.2668849774867" r="4" fill="#9467bd" />
<circle cx="1214.1592920353983" cy="230.98376313276026" r="4" fill="#9467bd" />
<circle cx="1226.9026548672566" cy="227.0268795197162" r="4" fill="#9467bd" />
<circle cx="1239.646017699115" cy="222.93355164415334" r="4" fill="#9467bd" />
<circle cx="1252.3893805309735" cy="218.02155819347797" r="4" fill="#9467bd" />
<circle cx="1265.132743362832" cy="217.3993723563924" r="4" fill="#9467bd" />
<circle cx="1277.8761061946902" cy="213.70446172738434" r="4" fill="#9467bd" />
<circle cx="1290.6194690265486" cy="210.81184336198658" r="4" fill="#9467bd" />
<circle cx="1303.3628318584072" cy="206.5438668303998" r="4" fill="#9467bd" />
<circle cx="1316.1061946902655" cy="204.05512348205752" r="4" fill="#9467bd" />
<circle cx="1328.8495575221239" cy="198.6628462273161" r="4" fill="#9467bd" />
<circle cx="1341.5929203539824" cy="195.5846636648929" r="4" fill="#9467bd" />
<circle cx="1354.3362831858408" cy="192.28817028243964" r="4" fill="#9467bd" />
<circle cx="1367.0796460176991" cy="189.1826988675126" r="4" fill="#9467bd" />
<circle cx="1379.8230088495575" cy="186.0936007640879" r="4" fill="#9467bd" />
<circle cx="1392.566371681416" cy="182.76981852913082" r="4" fill="#9467bd" />
<circle cx="1405.3097345132744" cy="179.1404011461318" r="4" fill="#9467bd" />
<circle cx="1418.0530973451328" cy="175.72383681266206" r="4" fill="#9467bd" />
<circle cx="1430.796460176991" cy="171.9252285441397" r="4" fill="#9467bd" />
<circle cx="1443.5398230088497" cy="168.19757129212712" r="4" fill="#9467bd" />
<circle cx="1456.283185840708" cy="163.40564879246824" r="4" fill="#9467bd" />
<circle cx="1469.0265486725664" cy="160.61127029608406" r="4" fill="#9467bd" />
<circle cx="1481.7699115044247" cy="159.0558057033702" r="4" fill="#9467bd" />
<circle cx="1494.5132743362833" cy="155.67198799290486" r="4" fill="#9467bd" />
<circle cx="1507.2566371681417" cy="149.9577022786192" r="4" fill="#9467bd" />
<circle cx="1520.0" cy="146.0990585345886" r="4" fill="#9467bd" />
<path d="M 80.0 920.0 L 92.7433628318584 885.5450948287624 L 105.48672566371681 829.5811161140674 L 118.23008849557522 806.8931641424479 L 130.97345132743362 793.1887024150634 L 143.71681415929203 787.0759994542229 L 156.46017699115043 773.5516441533633 L 169.20353982300884 758.8156638013372 L 181.94690265486724 745.4823304680039 L 194.69026548672565 734.4958384499932 L 207.43362831858406 724.5190339746214 L 220.1769911504425 718.1607313412471 L 232.9203539823009 711.8242597898759 L 245.6637168141593 702.4096056760814 L 258.4070796460177 689.2181743757675 L 271.15044247787614 674.6404693682631 L 283.8938053097345 665.193068631464 L 296.63716814159295 653.8518215309045 L 309.3805309734513 648.3885932596534 L 322.12389380530976 643.3619866284623 L 334.8672566371681 632.5228544139719 L 347.6106194690266 622.2240414790558 L 360.353982300885 612.858507299768 L 373.0973451327434 599.825351343976 L 385.8407079646018 591.0492563787693 L 398.5840707964602 585.5532814845136 L 411.3274336283186 579.331423113658 L 424.070796460177 571.3357893300587 L 436.8141592920354 564.6554782371402 L 449.5575221238938 558.7774594078319 L 462.3008849557522 548.9370991949788 L 475.04424778761063 540.9687542638833 L 487.78761061946904 528.5195797516715 L 500.53097345132744 524.8574157456678 L 513.2743362831859 520.8896165916224 L 526.0176991150443 515.4263883203712 L 538.7610619469026 510.99467867376177 L 551.5044247787611 504.42352299085826 L 564.2477876106195 497.0719061263474 L 576.9911504424779 493.7317505798881 L 589.7345132743362 490.1077909673898 L 602.4778761061947 484.1206167280666 L 615.2212389380531 479.07763678537316 L 627.9646017699115 462.48055669259105 L 640.70796460177 456.0349297312048 L 653.4513274336283 449.2181743757675 L 666.1946902654868 444.36621640060036 L 678.9380530973451 439.37781416291443 L 691.6814159292036 436.2778005184882 L 704.4247787610619 430.3069995906672 L 717.1681415929204 423.86137262928094 L 729.9115044247787 419.1622322281348 L 742.6548672566372 414.0428434984309 L 755.3982300884956 409.3054987037795 L 768.141592920354 402.58698321735574 L 780.8849557522124 397.9642516032201 L 793.6283185840708 390.072315459135 L 806.3716814159292 385.4222949924956 L 819.1150442477876 379.9481511802429 L 831.858407079646 371.16114067403464 L 844.6017699115044 366.33647155137123 L 857.3451327433628 362.3795879383272 L 870.0884955752213 359.6343293764497 L 882.8318584070796 353.6744439896303 L 895.5752212389381 347.0214217492154 L 908.3185840707965 342.1803793150498 L 921.0619469026549 336.9736662573339 L 933.8053097345133 332.4164278892073 L 946.5486725663717 329.03806794924276 L 959.2920353982302 325.59967253377 L 972.0353982300885 319.8308091144768 L 984.778761061947 314.86423795879386 L 997.5221238938053 311.185700641288 L 1010.2654867256638 308.102060308364 L 1023.0088495575221 305.10028653295126 L 1035.7522123893805 302.15854823304676 L 1048.495575221239 299.47332514667755 L 1061.2389380530974 294.77418474553144 L 1073.9823008849557 287.8701050620822 L 1086.7256637168143 281.1952517396644 L 1099.4690265486724 268.2112157183791 L 1112.212389380531 265.73884568153915 L 1124.9557522123894 263.51207531723287 L 1137.6991150442477 258.8565970800928 L 1150.4424778761063 255.18897530358845 L 1163.1858407079646 251.00286532951293 L 1175.929203539823 246.6857688634193 L 1188.6725663716813 240.37112839405108 L 1201.41592920354 236.2668849774867 L 1214.1592920353983 230.98376313276026 L 1226.9026548672566 227.0268795197162 L 1239.646017699115 222.93355164415334 L 1252.3893805309735 218.02155819347797 L 1265.132743362832 217.3993723563924 L 1277.8761061946902 213.70446172738434 L 1290.6194690265486 210.81184336198658 L 1303.3628318584072 206.5438668303998 L 1316.1061946902655 204.05512348205752 L 1328.8495575221239 198.6628462273161 L 1341.5929203539824 195.5846636648929 L 1354.3362831858408 192.28817028243964 L 1367.0796460176991 189.1826988675126 L 1379.8230088495575 186.0936007640879 L 1392.566371681416 182.76981852913082 L 1405.3097345132744 179.1404011461318 L 1418.0530973451328 175.72383681266206 L 1430.796460176991 171.9252285441397 L 1443.5398230088497 168.19757129212712 L 1456.283185840708 163.40564879246824 L 1469.0265486725664 160.61127029608406 L 1481.7699115044247 159.0558057033702 L 1494.5132743362833 155.67198799290486 L 1507.2566371681417 149.9577022786192 L 1520.0 146.0990585345886" fill="none" stroke="#9467bd" stroke-width="2" />
<circle cx="80.0" cy="920.0" r="4" fill="#66ffbd" />
<circle cx="92.7433628318584" cy="748.1402647018692" r="4" fill="#66ffbd" />
<circle cx="105.48672566371681" cy="764.2133988265794" r="4" fill="#66ffbd" />
<circle cx="118.23008849557522" cy="774.0537590394324" r="4" fill="#66ffbd" />
<circle cx="130.97345132743362" cy="781.4217492154455" r="4" fill="#66ffbd" />
<circle cx="143.71681415929203" cy="783.2828489562014" r="4" fill="#66ffbd" />
<circle cx="156.46017699115043" cy="788.1129758493655" r="4" fill="#66ffbd" />
<circle cx="169.20353982300884" cy="791.6768999863556" r="4" fill="#66ffbd" />
<circle cx="181.94690265486724" cy="796.3378359939965" r="4" fill="#66ffbd" />
<circle cx="194.69026548672565" cy="800.0327466230045" r="4" fill="#66ffbd" />
<circle cx="207.43362831858406" cy="802.6415609223632" r="4" fill="#66ffbd" />
<circle cx="220.1769911504425" cy="805.1193887297039" r="4" fill="#66ffbd" />
<circle cx="232.9203539823009" cy="806.5329512893983" r="4" fill="#66ffbd" />
<circle cx="245.6637168141593" cy="810.4625460499386" r="4" fill="#66ffbd" />
<circle cx="258.4070796460177" cy="816.6407422567881" r="4" fill="#66ffbd" />
<circle cx="271.15044247787614" cy="821.4490380679492" r="4" fill="#66ffbd" />
<circle cx="283.8938053097345" cy="824.7455314504025" r="4" fill="#66ffbd" />
<circle cx="296.63716814159295" cy="829.9904489016237" r="4" fill="#66ffbd" />
<circle cx="309.3805309734513" cy="830.5908036567063" r="4" fill="#66ffbd" />
<circle cx="322.12389380530976" cy="831.7587665438668" r="4" fill="#66ffbd" />
<circle cx="334.8672566371681" cy="833.8381771046527" r="4" fill="#66ffbd" />
<circle cx="347.6106194690266" cy="837.331150225133" r="4" fill="#66ffbd" />
<circle cx="360.353982300885" cy="838.2862600627643" r="4" fill="#66ffbd" />
<circle cx="373.0973451327434" cy="840.1855641970255" r="4" fill="#66ffbd" />
<circle cx="385.8407079646018" cy="842.210397052804" r="4" fill="#66ffbd" />
<circle cx="398.5840707964602" cy="839.4433074089235" r="4" fill="#66ffbd" />
<circle cx="411.3274336283186" cy="843.607586300996" r="4" fill="#66ffbd" />
<circle cx="424.070796460177" cy="844.5899849911311" r="4" fill="#66ffbd" />
<circle cx="436.8141592920354" cy="846.8495019784418" r="4" fill="#66ffbd" />
<circle cx="449.5575221238938" cy="848.2794378496384" r="4" fill="#66ffbd" />
<circle cx="462.3008849557522" cy="850.1296220493928" r="4" fill="#66ffbd" />
<circle cx="475.04424778761063" cy="850.8227589029881" r="4" fill="#66ffbd" />
<circle cx="487.78761061946904" cy="855.243553008596" r="4" fill="#66ffbd" />
<circle cx="500.53097345132744" cy="855.8766543866831" r="4" fill="#66ffbd" />
<circle cx="513.2743362831859" cy="856.9627507163324" r="4" fill="#66ffbd" />
<circle cx="526.0176991150443" cy="858.2889889480148" r="4" fill="#66ffbd" />
<circle cx="538.7610619469026" cy="859.1021967526266" r="4" fill="#66ffbd" />
<circle cx="551.5044247787611" cy="860.0518488197571" r="4" fill="#66ffbd" />
<circle cx="564.2477876106195" cy="861.519989084459" r="4" fill="#66ffbd" />
<circle cx="576.9911504424779" cy="860.8814299358712" r="4" fill="#66ffbd" />
<circle cx="589.7345132743362" cy="862.1203438395415" r="4" fill="#66ffbd" />
<circle cx="602.4778761061947" cy="863.1573202346841" r="4" fill="#66ffbd" />
<circle cx="615.2212389380531" cy="864.887433483422" r="4" fill="#66ffbd" />
<circle cx="627.9646017699115" cy="865.5205348615091" r="4" fill="#66ffbd" />
<circle cx="640.70796460177" cy="865.7060990585346" r="4" fill="#66ffbd" />
<circle cx="653.4513274336283" cy="867.0159639787147" r="4" fill="#66ffbd" />
<circle cx="666.1946902654868" cy="866.1208896165916" r="4" fill="#66ffbd" />
<circle cx="678.9380530973451" cy="867.7363896848137" r="4" fill="#66ffbd" />
<circle cx="691.6814159292036" cy="868.3967799154045" r="4" fill="#66ffbd" />
<circle cx="704.4247787610619" cy="870.050484377132" r="4" fill="#66ffbd" />
<circle cx="717.1681415929204" cy="865.1657797789603" r="4" fill="#66ffbd" />
<circle cx="729.9115044247787" cy="860.7449856733524" r="4" fill="#66ffbd" />
<circle cx="742.6548672566372" cy="857.4866966844045" r="4" fill="#66ffbd" />
<circle cx="755.3982300884956" cy="849.4856051303043" r="4" fill="#66ffbd" />
<circle cx="768.141592920354" cy="846.8167553554373" r="4" fill="#66ffbd" />
<circle cx="780.8849557522124" cy="842.4341656433347" r="4" fill="#66ffbd" />
<circle cx="793.6283185840708" cy="835.8138900259244" r="4" fill="#66ffbd" />
<circle cx="806.3716814159292" cy="831.600491199345" r="4" fill="#66ffbd" />
<circle cx="819.1150442477876" cy="831.6550689043526" r="4" fill="#66ffbd" />
<circle cx="831.858407079646" cy="878.1225269477418" r="4" fill="#66ffbd" />
<circle cx="844.6017699115044" cy="876.2505116659845" r="4" fill="#66ffbd" />
<circle cx="857.3451327433628" cy="878.3462955382727" r="4" fill="#66ffbd" />
<circle cx="870.0884955752213" cy="878.8102060308364" r="4" fill="#66ffbd" />
<circle cx="882.8318584070796" cy="879.0448901623687" r="4" fill="#66ffbd" />
<circle cx="895.5752212389381" cy="880.9332787556283" r="4" fill="#66ffbd" />
<circle cx="908.3185840707965" cy="881.2880338381771" r="4" fill="#66ffbd" />
<circle cx="921.0619469026549" cy="881.4681402647019" r="4" fill="#66ffbd" />
<circle cx="933.8053097345133" cy="881.4735980352026" r="4" fill="#66ffbd" />
<circle cx="946.5486725663717" cy="882.1176149542912" r="4" fill="#66ffbd" />
<circle cx="959.2920353982302" cy="882.3959612498295" r="4" fill="#66ffbd" />
<circle cx="972.0353982300885" cy="882.6797653158685" r="4" fill="#66ffbd" />
<circle cx="984.778761061947" cy="883.0781825624233" r="4" fill="#66ffbd" />
<circle cx="997.5221238938053" cy="883.2637467594487" r="4" fill="#66ffbd" />
<circle cx="1010.2654867256638" cy="883.7058261700096" r="4" fill="#66ffbd" />
<circle cx="1023.0088495575221" cy="883.7385727930141" r="4" fill="#66ffbd" />
<circle cx="1035.7522123893805" cy="883.7986082685223" r="4" fill="#66ffbd" />
<circle cx="1048.495575221239" cy="883.9405103015418" r="4" fill="#66ffbd" />
<circle cx="1061.2389380530974" cy="882.5706099058534" r="4" fill="#66ffbd" />
<circle cx="1073.9823008849557" cy="884.4426251876108" r="4" fill="#66ffbd" />
<circle cx="1086.7256637168143" cy="885.0375221721927" r="4" fill="#66ffbd" />
<circle cx="1099.4690265486724" cy="885.2012552872152" r="4" fill="#66ffbd" />
<circle cx="1112.212389380531" cy="885.1957975167144" r="4" fill="#66ffbd" />
<circle cx="1124.9557522123894" cy="885.3922772547414" r="4" fill="#66ffbd" />
<circle cx="1137.6991150442477" cy="885.5614681402647" r="4" fill="#66ffbd" />
<circle cx="1150.4424778761063" cy="885.730659025788" r="4" fill="#66ffbd" />
<circle cx="1163.1858407079646" cy="886.4128803383818" r="4" fill="#66ffbd" />
<circle cx="1175.929203539823" cy="886.5547823714013" r="4" fill="#66ffbd" />
<circle cx="1188.6725663716813" cy="887.6190476190476" r="4" fill="#66ffbd" />
<circle cx="1201.41592920354" cy="883.411106562969" r="4" fill="#66ffbd" />
<circle cx="1214.1592920353983" cy="887.8537317505799" r="4" fill="#66ffbd" />
<circle cx="1226.9026548672566" cy="888.0556692591076" r="4" fill="#66ffbd" />
<circle cx="1239.646017699115" cy="888.2030290626279" r="4" fill="#66ffbd" />
<circle cx="1252.3893805309735" cy="888.6451084731887" r="4" fill="#66ffbd" />
<circle cx="1265.132743362832" cy="888.9289125392277" r="4" fill="#66ffbd" />
<circle cx="1277.8761061946902" cy="889.0053213262382" r="4" fill="#66ffbd" />
<circle cx="1290.6194690265486" cy="888.0283804066039" r="4" fill="#66ffbd" />
<circle cx="1303.3628318584072" cy="889.2782098512757" r="4" fill="#66ffbd" />
<circle cx="1316.1061946902655" cy="889.3054987037794" r="4" fill="#66ffbd" />
<circle cx="1328.8495575221239" cy="889.4746895893028" r="4" fill="#66ffbd" />
<circle cx="1341.5929203539824" cy="890.1514531313958" r="4" fill="#66ffbd" />
<circle cx="1354.3362831858408" cy="890.4352571974348" r="4" fill="#66ffbd" />
<circle cx="1367.0796460176991" cy="890.5280392959476" r="4" fill="#66ffbd" />
<circle cx="1379.8230088495575" cy="890.3588484104243" r="4" fill="#66ffbd" />
<circle cx="1392.566371681416" cy="890.6099058534588" r="4" fill="#66ffbd" />
<circle cx="1405.3097345132744" cy="890.7408923454768" r="4" fill="#66ffbd" />
<circle cx="1418.0530973451328" cy="890.8009278209852" r="4" fill="#66ffbd" />
<circle cx="1430.796460176991" cy="891.9143130031382" r="4" fill="#66ffbd" />
<circle cx="1443.5398230088497" cy="892.0616728066585" r="4" fill="#66ffbd" />
<circle cx="1456.283185840708" cy="892.247237003684" r="4" fill="#66ffbd" />
<circle cx="1469.0265486725664" cy="892.1872015281757" r="4" fill="#66ffbd" />
<circle cx="1481.7699115044247" cy="892.3782234957021" r="4" fill="#66ffbd" />
<circle cx="1494.5132743362833" cy="892.487378905717" r="4" fill="#66ffbd" />
<circle cx="1507.2566371681417" cy="892.7329785782508" r="4" fill="#66ffbd" />
<circle cx="1520.0" cy="892.9622049392823" r="4" fill="#66ffbd" />
<path d="M 80.0 920.0 L 92.7433628318584 748.1402647018692 L 105.48672566371681 764.2133988265794 L 118.23008849557522 774.0537590394324 L 130.97345132743362 781.4217492154455 L 143.71681415929203 783.2828489562014 L 156.46017699115043 788.1129758493655 L 169.20353982300884 791.6768999863556 L 181.94690265486724 796.3378359939965 L 194.69026548672565 800.0327466230045 L 207.43362831858406 802.6415609223632 L 220.1769911504425 805.1193887297039 L 232.9203539823009 806.5329512893983 L 245.6637168141593 810.4625460499386 L 258.4070796460177 816.6407422567881 L 271.15044247787614 821.4490380679492 L 283.8938053097345 824.7455314504025 L 296.63716814159295 829.9904489016237 L 309.3805309734513 830.5908036567063 L 322.12389380530976 831.7587665438668 L 334.8672566371681 833.8381771046527 L 347.6106194690266 837.331150225133 L 360.353982300885 838.2862600627643 L 373.0973451327434 840.1855641970255 L 385.8407079646018 842.210397052804 L 398.5840707964602 839.4433074089235 L 411.3274336283186 843.607586300996 L 424.070796460177 844.5899849911311 L 436.8141592920354 846.8495019784418 L 449.5575221238938 848.2794378496384 L 462.3008849557522 850.1296220493928 L 475.04424778761063 850.8227589029881 L 487.78761061946904 855.243553008596 L 500.53097345132744 855.8766543866831 L 513.2743362831859 856.9627507163324 L 526.0176991150443 858.2889889480148 L 538.7610619469026 859.1021967526266 L 551.5044247787611 860.0518488197571 L 564.2477876106195 861.519989084459 L 576.9911504424779 860.8814299358712 L 589.7345132743362 862.1203438395415 L 602.4778761061947 863.1573202346841 L 615.2212389380531 864.887433483422 L 627.9646017699115 865.5205348615091 L 640.70796460177 865.7060990585346 L 653.4513274336283 867.0159639787147 L 666.1946902654868 866.1208896165916 L 678.9380530973451 867.7363896848137 L 691.6814159292036 868.3967799154045 L 704.4247787610619 870.050484377132 L 717.1681415929204 865.1657797789603 L 729.9115044247787 860.7449856733524 L 742.6548672566372 857.4866966844045 L 755.3982300884956 849.4856051303043 L 768.141592920354 846.8167553554373 L 780.8849557522124 842.4341656433347 L 793.6283185840708 835.8138900259244 L 806.3716814159292 831.600491199345 L 819.1150442477876 831.6550689043526 L 831.858407079646 878.1225269477418 L 844.6017699115044 876.2505116659845 L 857.3451327433628 878.3462955382727 L 870.0884955752213 878.8102060308364 L 882.8318584070796 879.0448901623687 L 895.5752212389381 880.9332787556283 L 908.3185840707965 881.2880338381771 L 921.0619469026549 881.4681402647019 L 933.8053097345133 881.4735980352026 L 946.5486725663717 882.1176149542912 L 959.2920353982302 882.3959612498295 L 972.0353982300885 882.6797653158685 L 984.778761061947 883.0781825624233 L 997.5221238938053 883.2637467594487 L 1010.2654867256638 883.7058261700096 L 1023.0088495575221 883.7385727930141 L 1035.7522123893805 883.7986082685223 L 1048.495575221239 883.9405103015418 L 1061.2389380530974 882.5706099058534 L 1073.9823008849557 884.4426251876108 L 1086.7256637168143 885.0375221721927 L 1099.4690265486724 885.2012552872152 L 1112.212389380531 885.1957975167144 L 1124.9557522123894 885.3922772547414 L 1137.6991150442477 885.5614681402647 L 1150.4424778761063 885.730659025788 L 1163.1858407079646 886.4128803383818 L 1175.929203539823 886.5547823714013 L 1188.6725663716813 887.6190476190476 L 1201.41592920354 883.411106562969 L 1214.1592920353983 887.8537317505799 L 1226.9026548672566 888.0556692591076 L 1239.646017699115 888.2030290626279 L 1252.3893805309735 888.6451084731887 L 1265.132743362832 888.9289125392277 L 1277.8761061946902 889.0053213262382 L 1290.6194690265486 888.0283804066039 L 1303.3628318584072 889.2782098512757 L 1316.1061946902655 889.3054987037794 L 1328.8495575221239 889.4746895893028 L 1341.5929203539824 890.1514531313958 L 1354.3362831858408 890.4352571974348 L 1367.0796460176991 890.5280392959476 L 1379.8230088495575 890.3588484104243 L 1392.566371681416 890.6099058534588 L 1405.3097345132744 890.7408923454768 L 1418.0530973451328 890.8009278209852 L 1430.796460176991 891.9143130031382 L 1443.5398230088497 892.0616728066585 L 1456.283185840708 892.247237003684 L 1469.0265486725664 892.1872015281757 L 1481.7699115044247 892.3782234957021 L 1494.5132743362833 892.487378905717 L 1507.2566371681417 892.7329785782508 L 1520.0 892.9622049392823" fill="none" stroke="#66ffbd" stroke-width="2" />
<text x="80.0" y="940" text-anchor="middle" font-size="12">08-06</text>
<text x="169.20353982300884" y="940" text-anchor="middle" font-size="12">08-13</text>
<text x="258.4070796460177" y="940" text-anchor="middle" font-size="12">08-20</text>
<text x="347.6106194690266" y="940" text-anchor="middle" font-size="12">08-27</text>
<text x="436.8141592920354" y="940" text-anchor="middle" font-size="12">09-03</text>
<text x="526.0176991150443" y="940" text-anchor="middle" font-size="12">09-10</text>
<text x="615.2212389380531" y="940" text-anchor="middle" font-size="12">09-17</text>
<text x="704.4247787610619" y="940" text-anchor="middle" font-size="12">09-24</text>
<text x="793.6283185840708" y="940" text-anchor="middle" font-size="12">10-01</text>
<text x="882.8318584070796" y="940" text-anchor="middle" font-size="12">10-08</text>
<text x="972.0353982300885" y="940" text-anchor="middle" font-size="12">10-15</text>
<text x="1061.2389380530974" y="940" text-anchor="middle" font-size="12">10-22</text>
<text x="1150.4424778761063" y="940" text-anchor="middle" font-size="12">10-29</text>
<text x="1239.646017699115" y="940" text-anchor="middle" font-size="12">11-05</text>
<text x="1328.8495575221239" y="940" text-anchor="middle" font-size="12">11-12</text>
<text x="1418.0530973451328" y="940" text-anchor="middle" font-size="12">11-19</text>
<text x="1507.2566371681417" y="940" text-anchor="middle" font-size="12">11-26</text>
<text x="1520.0" y="940" text-anchor="middle" font-size="12">11-27</text>
<rect x="90" y="100" width="130" height="185" class="legend-box" />
<text x="100" y="120" class="legend-item">图例:</text>
<rect x="100" y="137" width="15" height="15" fill="#1f77b4" rx="3" />
<text x="120" y="145" class="legend-item">构件聚合数据</text>
<rect x="100" y="162" width="15" height="15" fill="#ff7f0e" rx="3" />
<text x="120" y="170" class="legend-item">构件基本信息</text>
<rect x="100" y="187" width="15" height="15" fill="#2ca02c" rx="3" />
<text x="120" y="195" class="legend-item">构件徽标</text>
<rect x="100" y="212" width="15" height="15" fill="#d62728" rx="3" />
<text x="120" y="220" class="legend-item">构件扩展元数据</text>
<rect x="100" y="237" width="15" height="15" fill="#9467bd" rx="3" />
<text x="120" y="245" class="legend-item">构件版本信息</text>
<rect x="100" y="262" width="15" height="15" fill="#66ffbd" rx="3" />
<text x="120" y="270" class="legend-item">数据量偏差</text>
<rect x="100" y="980" width="15" height="15" fill="#1f77b4" rx="3" />
<text x="125" y="990" class="legend-item">141626</text>
<rect x="300" y="980" width="15" height="15" fill="#ff7f0e" rx="3" />
<text x="325" y="990" class="legend-item">146430</text>
<rect x="500" y="980" width="15" height="15" fill="#2ca02c" rx="3" />
<text x="525" y="990" class="legend-item">146580</text>
<rect x="700" y="980" width="15" height="15" fill="#d62728" rx="3" />
<text x="725" y="990" class="legend-item">141723</text>
<rect x="900" y="980" width="15" height="15" fill="#9467bd" rx="3" />
<text x="925" y="990" class="legend-item">141798</text>
<rect x="1100" y="980" width="15" height="15" fill="#66ffbd" rx="3" />
<text x="1125" y="990" class="legend-item">4954</text>
<text x="1520" y="990" text-anchor="end" font-size="11" fill="#666">生成时间: 2025-11-27 02:21:18</text>
</svg>