<svg xmlns="http://www.w3.org/2000/svg" width="1600" height="1000" viewBox="0 0 1600 1000">
<style>
  text {
    font-family: Arial, sans-serif;
    font-size: 12px;
    fill: #333;
  }
  .axis-label { font-size: 14px; }
  .title { font-size: 18px; font-weight: bold; }
  .legend-item { font-size: 11px; }
  .legend-box { fill: white; fill-opacity: 0.85; stroke: #cccccc; stroke-width: 1; rx: 5; }
</style>
<text x="800.0" y="30" text-anchor="middle" class="title">Daily Data Growth Trend</text>
<text x="800.0" y="980" text-anchor="middle" class="axis-label">Date</text>
<g transform="rotate(-90)">
<text x="-500.0" y="20" text-anchor="middle" class="axis-label">Count</text>
</g>
<rect x="0" y="0" width="1600" height="1000" fill="#f8f8f8" />
<line x1="80" y1="920.0" x2="1520" y2="920.0" stroke="#e0e0e0" stroke-width="1" />
<text x="70" y="925.0" text-anchor="end">0</text>
<line x1="80" y1="752.0" x2="1520" y2="752.0" stroke="#e0e0e0" stroke-width="1" />
<text x="70" y="757.0" text-anchor="end">16.6k</text>
<line x1="80" y1="584.0" x2="1520" y2="584.0" stroke="#e0e0e0" stroke-width="1" />
<text x="70" y="589.0" text-anchor="end">33.1k</text>
<line x1="80" y1="416.0" x2="1520" y2="416.0" stroke="#e0e0e0" stroke-width="1" />
<text x="70" y="421.0" text-anchor="end">49.7k</text>
<line x1="80" y1="248.0" x2="1520" y2="248.0" stroke="#e0e0e0" stroke-width="1" />
<text x="70" y="253.0" text-anchor="end">66.2k</text>
<line x1="80" y1="80.0" x2="1520" y2="80.0" stroke="#e0e0e0" stroke-width="1" />
<text x="70" y="85.0" text-anchor="end">82.8k</text>
<line x1="80" y1="80" x2="80" y2="920" stroke="#333333" stroke-width="2" />
<line x1="80" y1="920" x2="1520" y2="920" stroke="#333333" stroke-width="2" />
<circle cx="80.0" cy="920.0" r="4" fill="#1f77b4" />
<circle cx="129.6551724137931" cy="870.4077310370192" r="4" fill="#1f77b4" />
<circle cx="179.31034482758622" cy="765.3082395911276" r="4" fill="#1f77b4" />
<circle cx="228.9655172413793" cy="723.0310332145439" r="4" fill="#1f77b4" />
<circle cx="278.62068965517244" cy="697.5855727891847" r="4" fill="#1f77b4" />
<circle cx="328.2758620689655" cy="684.8121139871403" r="4" fill="#1f77b4" />
<circle cx="377.9310344827586" cy="659.366653561781" r="4" fill="#1f77b4" />
<circle cx="427.58620689655174" cy="631.9021952797048" r="4" fill="#1f77b4" />
<circle cx="477.2413793103448" cy="606.5886291866939" r="4" fill="#1f77b4" />
<circle cx="526.8965517241379" cy="585.9522390331131" r="4" fill="#1f77b4" />
<circle cx="576.551724137931" cy="567.1319323787905" r="4" fill="#1f77b4" />
<circle cx="626.2068965517242" cy="555.3020253389304" r="4" fill="#1f77b4" />
<circle cx="675.8620689655172" cy="543.5938669135458" r="4" fill="#1f77b4" />
<circle cx="725.5172413793103" cy="525.9910464039772" r="4" fill="#1f77b4" />
<circle cx="775.1724137931035" cy="500.9919975650277" r="4" fill="#1f77b4" />
<circle cx="824.8275862068965" cy="473.9536594336153" r="4" fill="#1f77b4" />
<circle cx="874.4827586206897" cy="456.00588451636634" r="4" fill="#1f77b4" />
<circle cx="924.1379310344828" cy="431.44310154595377" r="4" fill="#1f77b4" />
<circle cx="973.7931034482758" cy="421.29738367300354" r="4" fill="#1f77b4" />
<circle cx="1023.448275862069" cy="411.95317751201634" r="4" fill="#1f77b4" />
<circle cx="1073.103448275862" cy="391.85451040570194" r="4" fill="#1f77b4" />
<circle cx="1122.7586206896551" cy="372.09065198919484" r="4" fill="#1f77b4" />
<circle cx="1172.4137931034484" cy="354.5892886583556" r="4" fill="#1f77b4" />
<circle cx="1222.0689655172414" cy="330.4323344028611" r="4" fill="#1f77b4" />
<circle cx="1271.7241379310344" cy="313.8035028090957" r="4" fill="#1f77b4" />
<circle cx="1321.3793103448277" cy="303.55632775741594" r="4" fill="#1f77b4" />
<circle cx="1371.0344827586207" cy="292.0003551001256" r="4" fill="#1f77b4" />
<circle cx="1420.6896551724137" cy="277.15716985199936" r="4" fill="#1f77b4" />
<circle cx="1470.344827586207" cy="264.2721081533525" r="4" fill="#1f77b4" />
<circle cx="1520.0" cy="253.3248785684392" r="4" fill="#1f77b4" />
<path d="M 80.0 920.0 L 129.6551724137931 870.4077310370192 L 179.31034482758622 765.3082395911276 L 228.9655172413793 723.0310332145439 L 278.62068965517244 697.5855727891847 L 328.2758620689655 684.8121139871403 L 377.9310344827586 659.366653561781 L 427.58620689655174 631.9021952797048 L 477.2413793103448 606.5886291866939 L 526.8965517241379 585.9522390331131 L 576.551724137931 567.1319323787905 L 626.2068965517242 555.3020253389304 L 675.8620689655172 543.5938669135458 L 725.5172413793103 525.9910464039772 L 775.1724137931035 500.9919975650277 L 824.8275862068965 473.9536594336153 L 874.4827586206897 456.00588451636634 L 924.1379310344828 431.44310154595377 L 973.7931034482758 421.29738367300354 L 1023.448275862069 411.95317751201634 L 1073.103448275862 391.85451040570194 L 1122.7586206896551 372.09065198919484 L 1172.4137931034484 354.5892886583556 L 1222.0689655172414 330.4323344028611 L 1271.7241379310344 313.8035028090957 L 1321.3793103448277 303.55632775741594 L 1371.0344827586207 292.0003551001256 L 1420.6896551724137 277.15716985199936 L 1470.344827586207 264.2721081533525 L 1520.0 253.3248785684392" fill="none" stroke="#1f77b4" stroke-width="2" />
<circle cx="80.0" cy="920.0" r="4" fill="#ff7f0e" />
<circle cx="129.6551724137931" cy="558.041369164627" r="4" fill="#ff7f0e" />
<circle cx="179.31034482758622" cy="482.52679103625826" r="4" fill="#ff7f0e" />
<circle cx="228.9655172413793" cy="458.30896247352604" r="4" fill="#ff7f0e" />
<circle cx="278.62068965517244" cy="446.3775982549365" r="4" fill="#ff7f0e" />
<circle cx="328.2758620689655" cy="437.0435378118223" r="4" fill="#ff7f0e" />
<circle cx="377.9310344827586" cy="420.4045605001839" r="4" fill="#ff7f0e" />
<circle cx="427.58620689655174" cy="399.29132160657446" r="4" fill="#ff7f0e" />
<circle cx="477.2413793103448" cy="382.449429937477" r="4" fill="#ff7f0e" />
<circle cx="526.8965517241379" cy="368.57008788728115" r="4" fill="#ff7f0e" />
<circle cx="576.551724137931" cy="354.52841435111793" r="4" fill="#ff7f0e" />
<circle cx="626.2068965517242" cy="347.19306032897487" r="4" fill="#ff7f0e" />
<circle cx="675.8620689655172" cy="338.1126428326844" r="4" fill="#ff7f0e" />
<circle cx="725.5172413793103" cy="327.7843020380211" r="4" fill="#ff7f0e" />
<circle cx="775.1724137931035" cy="313.9658342950629" r="4" fill="#ff7f0e" />
<circle cx="824.8275862068965" cy="295.4701906126745" r="4" fill="#ff7f0e" />
<circle cx="874.4827586206897" cy="283.5997007013227" r="4" fill="#ff7f0e" />
<circle cx="924.1379310344828" cy="268.7768068889425" r="4" fill="#ff7f0e" />
<circle cx="973.7931034482758" cy="259.7572636998897" r="4" fill="#ff7f0e" />
<circle cx="1023.448275862069" cy="252.56394972796795" r="4" fill="#ff7f0e" />
<circle cx="1073.103448275862" cy="236.2191982346451" r="4" fill="#ff7f0e" />
<circle cx="1122.7586206896551" cy="222.91816210320735" r="4" fill="#ff7f0e" />
<circle cx="1172.4137931034484" cy="207.1720079643885" r="4" fill="#ff7f0e" />
<circle cx="1222.0689655172414" cy="186.51532637506182" r="4" fill="#ff7f0e" />
<circle cx="1271.7241379310344" cy="173.6099732406691" r="4" fill="#ff7f0e" />
<circle cx="1321.3793103448277" cy="158.20877350953072" r="4" fill="#ff7f0e" />
<circle cx="1371.0344827586207" cy="154.38383787142845" r="4" fill="#ff7f0e" />
<circle cx="1420.6896551724137" cy="141.35673612256028" r="4" fill="#ff7f0e" />
<circle cx="1470.344827586207" cy="132.64156446969605" r="4" fill="#ff7f0e" />
<circle cx="1520.0" cy="124.30178437813095" r="4" fill="#ff7f0e" />
<path d="M 80.0 920.0 L 129.6551724137931 558.041369164627 L 179.31034482758622 482.52679103625826 L 228.9655172413793 458.30896247352604 L 278.62068965517244 446.3775982549365 L 328.2758620689655 437.0435378118223 L 377.9310344827586 420.4045605001839 L 427.58620689655174 399.29132160657446 L 477.2413793103448 382.449429937477 L 526.8965517241379 368.57008788728115 L 576.551724137931 354.52841435111793 L 626.2068965517242 347.19306032897487 L 675.8620689655172 338.1126428326844 L 725.5172413793103 327.7843020380211 L 775.1724137931035 313.9658342950629 L 824.8275862068965 295.4701906126745 L 874.4827586206897 283.5997007013227 L 924.1379310344828 268.7768068889425 L 973.7931034482758 259.7572636998897 L 1023.448275862069 252.56394972796795 L 1073.103448275862 236.2191982346451 L 1122.7586206896551 222.91816210320735 L 1172.4137931034484 207.1720079643885 L 1222.0689655172414 186.51532637506182 L 1271.7241379310344 173.6099732406691 L 1321.3793103448277 158.20877350953072 L 1371.0344827586207 154.38383787142845 L 1420.6896551724137 141.35673612256028 L 1470.344827586207 132.64156446969605 L 1520.0 124.30178437813095" fill="none" stroke="#ff7f0e" stroke-width="2" />
<circle cx="80.0" cy="920.0" r="4" fill="#2ca02c" />
<circle cx="129.6551724137931" cy="550.9292209356888" r="4" fill="#2ca02c" />
<circle cx="179.31034482758622" cy="475.7088686256357" r="4" fill="#2ca02c" />
<circle cx="228.9655172413793" cy="451.72439157398134" r="4" fill="#2ca02c" />
<circle cx="278.62068965517244" cy="439.97565027710493" r="4" fill="#2ca02c" />
<circle cx="328.2758620689655" cy="430.6618812697366" r="4" fill="#2ca02c" />
<circle cx="377.9310344827586" cy="414.19538116193837" r="4" fill="#2ca02c" />
<circle cx="427.58620689655174" cy="393.35607665089856" r="4" fill="#2ca02c" />
<circle cx="477.2413793103448" cy="376.70695362138724" r="4" fill="#2ca02c" />
<circle cx="526.8965517241379" cy="362.9392144677937" r="4" fill="#2ca02c" />
<circle cx="576.551724137931" cy="348.96856095674127" r="4" fill="#2ca02c" />
<circle cx="626.2068965517242" cy="341.74480983120066" r="4" fill="#2ca02c" />
<circle cx="675.8620689655172" cy="332.6643923349102" r="4" fill="#2ca02c" />
<circle cx="725.5172413793103" cy="322.3664886938657" r="4" fill="#2ca02c" />
<circle cx="775.1724137931035" cy="308.8523924870959" r="4" fill="#2ca02c" />
<circle cx="824.8275862068965" cy="290.75243180175266" r="4" fill="#2ca02c" />
<circle cx="874.4827586206897" cy="278.93267047976565" r="4" fill="#2ca02c" />
<circle cx="924.1379310344828" cy="264.1199223852583" r="4" fill="#2ca02c" />
<circle cx="973.7931034482758" cy="255.0902334783326" r="4" fill="#2ca02c" />
<circle cx="1023.448275862069" cy="247.91721094215677" r="4" fill="#2ca02c" />
<circle cx="1073.103448275862" cy="231.68406234543636" r="4" fill="#2ca02c" />
<circle cx="1122.7586206896551" cy="218.4134633676174" r="4" fill="#2ca02c" />
<circle cx="1172.4137931034484" cy="202.68760066454456" r="4" fill="#2ca02c" />
<circle cx="1222.0689655172414" cy="182.06135622883664" r="4" fill="#2ca02c" />
<circle cx="1271.7241379310344" cy="169.1965859659358" r="4" fill="#2ca02c" />
<circle cx="1321.3793103448277" cy="153.8055319526702" r="4" fill="#2ca02c" />
<circle cx="1371.0344827586207" cy="149.99074203244095" r="4" fill="#2ca02c" />
<circle cx="1420.6896551724137" cy="136.97378600144577" r="4" fill="#2ca02c" />
<circle cx="1470.344827586207" cy="128.28905150220044" r="4" fill="#2ca02c" />
<circle cx="1520.0" cy="120.0" r="4" fill="#2ca02c" />
<path d="M 80.0 920.0 L 129.6551724137931 550.9292209356888 L 179.31034482758622 475.7088686256357 L 228.9655172413793 451.72439157398134 L 278.62068965517244 439.97565027710493 L 328.2758620689655 430.6618812697366 L 377.9310344827586 414.19538116193837 L 427.58620689655174 393.35607665089856 L 477.2413793103448 376.70695362138724 L 526.8965517241379 362.9392144677937 L 576.551724137931 348.96856095674127 L 626.2068965517242 341.74480983120066 L 675.8620689655172 332.6643923349102 L 725.5172413793103 322.3664886938657 L 775.1724137931035 308.8523924870959 L 824.8275862068965 290.75243180175266 L 874.4827586206897 278.93267047976565 L 924.1379310344828 264.1199223852583 L 973.7931034482758 255.0902334783326 L 1023.448275862069 247.91721094215677 L 1073.103448275862 231.68406234543636 L 1122.7586206896551 218.4134633676174 L 1172.4137931034484 202.68760066454456 L 1222.0689655172414 182.06135622883664 L 1271.7241379310344 169.1965859659358 L 1321.3793103448277 153.8055319526702 L 1371.0344827586207 149.99074203244095 L 1420.6896551724137 136.97378600144577 L 1470.344827586207 128.28905150220044 L 1520.0 120.0" fill="none" stroke="#2ca02c" stroke-width="2" />
<circle cx="80.0" cy="920.0" r="4" fill="#d62728" />
<circle cx="129.6551724137931" cy="848.3915232527172" r="4" fill="#d62728" />
<circle cx="179.31034482758622" cy="744.7530151805304" r="4" fill="#d62728" />
<circle cx="228.9655172413793" cy="708.8879024996513" r="4" fill="#d62728" />
<circle cx="278.62068965517244" cy="683.4931706636568" r="4" fill="#d62728" />
<circle cx="328.2758620689655" cy="670.8313147582148" r="4" fill="#d62728" />
<circle cx="377.9310344827586" cy="645.9032859443762" r="4" fill="#d62728" />
<circle cx="427.58620689655174" cy="619.7171881142915" r="4" fill="#d62728" />
<circle cx="477.2413793103448" cy="595.6109624481617" r="4" fill="#d62728" />
<circle cx="526.8965517241379" cy="575.4108381631178" r="4" fill="#d62728" />
<circle cx="576.551724137931" cy="556.6514058160328" r="4" fill="#d62728" />
<circle cx="626.2068965517242" cy="544.8417902119187" r="4" fill="#d62728" />
<circle cx="675.8620689655172" cy="533.1437775044071" r="4" fill="#d62728" />
<circle cx="725.5172413793103" cy="516.4134887319121" r="4" fill="#d62728" />
<circle cx="775.1724137931035" cy="491.70866571127823" r="4" fill="#d62728" />
<circle cx="824.8275862068965" cy="465.1268848841486" r="4" fill="#d62728" />
<circle cx="874.4827586206897" cy="448.0313502682274" r="4" fill="#d62728" />
<circle cx="924.1379310344828" cy="423.7729388340034" r="4" fill="#d62728" />
<circle cx="973.7931034482758" cy="413.6272209610531" r="4" fill="#d62728" />
<circle cx="1023.448275862069" cy="404.38447197879543" r="4" fill="#d62728" />
<circle cx="1073.103448275862" cy="384.5293021014319" r="4" fill="#d62728" />
<circle cx="1122.7586206896551" cy="365.96263839393293" r="4" fill="#d62728" />
<circle cx="1172.4137931034484" cy="348.53229508820436" r="4" fill="#d62728" />
<circle cx="1222.0689655172414" cy="324.39563226845576" r="4" fill="#d62728" />
<circle cx="1271.7241379310344" cy="308.3146694398296" r="4" fill="#d62728" />
<circle cx="1321.3793103448277" cy="298.06749438814984" r="4" fill="#d62728" />
<circle cx="1371.0344827586207" cy="286.5013760129865" r="4" fill="#d62728" />
<circle cx="1420.6896551724137" cy="271.65819076486036" r="4" fill="#d62728" />
<circle cx="1470.344827586207" cy="259.63551508541434" r="4" fill="#d62728" />
<circle cx="1520.0" cy="248.7085769362469" r="4" fill="#d62728" />
<path d="M 80.0 920.0 L 129.6551724137931 848.3915232527172 L 179.31034482758622 744.7530151805304 L 228.9655172413793 708.8879024996513 L 278.62068965517244 683.4931706636568 L 328.2758620689655 670.8313147582148 L 377.9310344827586 645.9032859443762 L 427.58620689655174 619.7171881142915 L 477.2413793103448 595.6109624481617 L 526.8965517241379 575.4108381631178 L 576.551724137931 556.6514058160328 L 626.2068965517242 544.8417902119187 L 675.8620689655172 533.1437775044071 L 725.5172413793103 516.4134887319121 L 775.1724137931035 491.70866571127823 L 824.8275862068965 465.1268848841486 L 874.4827586206897 448.0313502682274 L 924.1379310344828 423.7729388340034 L 973.7931034482758 413.6272209610531 L 1023.448275862069 404.38447197879543 L 1073.103448275862 384.5293021014319 L 1122.7586206896551 365.96263839393293 L 1172.4137931034484 348.53229508820436 L 1222.0689655172414 324.39563226845576 L 1271.7241379310344 308.3146694398296 L 1321.3793103448277 298.06749438814984 L 1371.0344827586207 286.5013760129865 L 1420.6896551724137 271.65819076486036 L 1470.344827586207 259.63551508541434 L 1520.0 248.7085769362469" fill="none" stroke="#d62728" stroke-width="2" />
<circle cx="80.0" cy="920.0" r="4" fill="#9467bd" />
<circle cx="129.6551724137931" cy="855.950083068065" r="4" fill="#9467bd" />
<circle cx="179.31034482758622" cy="751.9158919988332" r="4" fill="#9467bd" />
<circle cx="228.9655172413793" cy="709.7401428009791" r="4" fill="#9467bd" />
<circle cx="278.62068965517244" cy="684.264245222001" r="4" fill="#9467bd" />
<circle cx="328.2758620689655" cy="672.9010412042967" r="4" fill="#9467bd" />
<circle cx="377.9310344827586" cy="647.7599523151259" r="4" fill="#9467bd" />
<circle cx="427.58620689655174" cy="620.3665140581604" r="4" fill="#9467bd" />
<circle cx="477.2413793103448" cy="595.5805252945429" r="4" fill="#9467bd" />
<circle cx="526.8965517241379" cy="575.157195216294" r="4" fill="#9467bd" />
<circle cx="576.551724137931" cy="556.610822944541" r="4" fill="#9467bd" />
<circle cx="626.2068965517242" cy="544.791061622554" r="4" fill="#9467bd" />
<circle cx="675.8620689655172" cy="533.0118831720588" r="4" fill="#9467bd" />
<circle cx="725.5172413793103" cy="515.5105198412195" r="4" fill="#9467bd" />
<circle cx="775.1724137931035" cy="490.98831974229876" r="4" fill="#9467bd" />
<circle cx="824.8275862068965" cy="463.88910730364864" r="4" fill="#9467bd" />
<circle cx="874.4827586206897" cy="446.3268696655718" r="4" fill="#9467bd" />
<circle cx="924.1379310344828" cy="425.2440679255812" r="4" fill="#9467bd" />
<circle cx="973.7931034482758" cy="415.08820433475796" r="4" fill="#9467bd" />
<circle cx="1023.448275862069" cy="405.7439981737708" r="4" fill="#9467bd" />
<circle cx="1073.103448275862" cy="385.5946024780916" r="4" fill="#9467bd" />
<circle cx="1122.7586206896551" cy="366.4496328518345" r="4" fill="#9467bd" />
<circle cx="1172.4137931034484" cy="349.0395809818518" r="4" fill="#9467bd" />
<circle cx="1222.0689655172414" cy="324.81160670124666" r="4" fill="#9467bd" />
<circle cx="1271.7241379310344" cy="308.4972923615427" r="4" fill="#9467bd" />
<circle cx="1321.3793103448277" cy="298.28055446348174" r="4" fill="#9467bd" />
<circle cx="1371.0344827586207" cy="286.7144360883185" r="4" fill="#9467bd" />
<circle cx="1420.6896551724137" cy="271.85095940444637" r="4" fill="#9467bd" />
<circle cx="1470.344827586207" cy="259.43260072795533" r="4" fill="#9467bd" />
<circle cx="1520.0" cy="248.5056625787879" r="4" fill="#9467bd" />
<path d="M 80.0 920.0 L 129.6551724137931 855.950083068065 L 179.31034482758622 751.9158919988332 L 228.9655172413793 709.7401428009791 L 278.62068965517244 684.264245222001 L 328.2758620689655 672.9010412042967 L 377.9310344827586 647.7599523151259 L 427.58620689655174 620.3665140581604 L 477.2413793103448 595.5805252945429 L 526.8965517241379 575.157195216294 L 576.551724137931 556.610822944541 L 626.2068965517242 544.791061622554 L 675.8620689655172 533.0118831720588 L 725.5172413793103 515.5105198412195 L 775.1724137931035 490.98831974229876 L 824.8275862068965 463.88910730364864 L 874.4827586206897 446.3268696655718 L 924.1379310344828 425.2440679255812 L 973.7931034482758 415.08820433475796 L 1023.448275862069 405.7439981737708 L 1073.103448275862 385.5946024780916 L 1122.7586206896551 366.4496328518345 L 1172.4137931034484 349.0395809818518 L 1222.0689655172414 324.81160670124666 L 1271.7241379310344 308.4972923615427 L 1321.3793103448277 298.28055446348174 L 1371.0344827586207 286.7144360883185 L 1420.6896551724137 271.85095940444637 L 1470.344827586207 259.43260072795533 L 1520.0 248.5056625787879" fill="none" stroke="#9467bd" stroke-width="2" />
<circle cx="80.0" cy="920.0" r="4" fill="#66ffbd" />
<circle cx="129.6551724137931" cy="600.5214898986696" r="4" fill="#66ffbd" />
<circle cx="179.31034482758622" cy="630.4006290345081" r="4" fill="#66ffbd" />
<circle cx="228.9655172413793" cy="648.6933583594374" r="4" fill="#66ffbd" />
<circle cx="278.62068965517244" cy="662.3900774879203" r="4" fill="#66ffbd" />
<circle cx="328.2758620689655" cy="665.8497672825963" r="4" fill="#66ffbd" />
<circle cx="377.9310344827586" cy="674.8287276001572" r="4" fill="#66ffbd" />
<circle cx="427.58620689655174" cy="681.4538813711938" r="4" fill="#66ffbd" />
<circle cx="477.2413793103448" cy="690.1183244346932" r="4" fill="#66ffbd" />
<circle cx="526.8965517241379" cy="696.9869754346806" r="4" fill="#66ffbd" />
<circle cx="576.551724137931" cy="701.8366285779508" r="4" fill="#66ffbd" />
<circle cx="626.2068965517242" cy="706.4427844922702" r="4" fill="#66ffbd" />
<circle cx="675.8620689655172" cy="709.0705254213643" r="4" fill="#66ffbd" />
<circle cx="725.5172413793103" cy="716.3754422898885" r="4" fill="#66ffbd" />
<circle cx="775.1724137931035" cy="727.8603949220683" r="4" fill="#66ffbd" />
<circle cx="824.8275862068965" cy="736.7987723681374" r="4" fill="#66ffbd" />
<circle cx="874.4827586206897" cy="742.9267859633993" r="4" fill="#66ffbd" />
<circle cx="924.1379310344828" cy="752.6768208393046" r="4" fill="#66ffbd" />
<circle cx="973.7931034482758" cy="753.7928498053291" r="4" fill="#66ffbd" />
<circle cx="1023.448275862069" cy="755.9640334301404" r="4" fill="#66ffbd" />
<circle cx="1073.103448275862" cy="759.8295519397344" r="4" fill="#66ffbd" />
<circle cx="1122.7586206896551" cy="766.3228113784226" r="4" fill="#66ffbd" />
<circle cx="1172.4137931034484" cy="768.098312006189" r="4" fill="#66ffbd" />
<circle cx="1222.0689655172414" cy="771.6290218259755" r="4" fill="#66ffbd" />
<circle cx="1271.7241379310344" cy="775.3930831568401" r="4" fill="#66ffbd" />
<circle cx="1321.3793103448277" cy="770.2492041952544" r="4" fill="#66ffbd" />
<circle cx="1371.0344827586207" cy="777.9903869323153" r="4" fill="#66ffbd" />
<circle cx="1420.6896551724137" cy="779.8166161494464" r="4" fill="#66ffbd" />
<circle cx="1470.344827586207" cy="784.0169433488478" r="4" fill="#66ffbd" />
<circle cx="1520.0" cy="786.6751214315608" r="4" fill="#66ffbd" />
<path d="M 80.0 920.0 L 129.6551724137931 600.5214898986696 L 179.31034482758622 630.4006290345081 L 228.9655172413793 648.6933583594374 L 278.62068965517244 662.3900774879203 L 328.2758620689655 665.8497672825963 L 377.9310344827586 674.8287276001572 L 427.58620689655174 681.4538813711938 L 477.2413793103448 690.1183244346932 L 526.8965517241379 696.9869754346806 L 576.551724137931 701.8366285779508 L 626.2068965517242 706.4427844922702 L 675.8620689655172 709.0705254213643 L 725.5172413793103 716.3754422898885 L 775.1724137931035 727.8603949220683 L 824.8275862068965 736.7987723681374 L 874.4827586206897 742.9267859633993 L 924.1379310344828 752.6768208393046 L 973.7931034482758 753.7928498053291 L 1023.448275862069 755.9640334301404 L 1073.103448275862 759.8295519397344 L 1122.7586206896551 766.3228113784226 L 1172.4137931034484 768.098312006189 L 1222.0689655172414 771.6290218259755 L 1271.7241379310344 775.3930831568401 L 1321.3793103448277 770.2492041952544 L 1371.0344827586207 777.9903869323153 L 1420.6896551724137 779.8166161494464 L 1470.344827586207 784.0169433488478 L 1520.0 786.6751214315608" fill="none" stroke="#66ffbd" stroke-width="2" />
<text x="80.0" y="940" text-anchor="middle">08-06</text>
<text x="129.6551724137931" y="940" text-anchor="middle">08-07</text>
<text x="179.31034482758622" y="940" text-anchor="middle">08-08</text>
<text x="228.9655172413793" y="940" text-anchor="middle">08-09</text>
<text x="278.62068965517244" y="940" text-anchor="middle">08-10</text>
<text x="328.2758620689655" y="940" text-anchor="middle">08-11</text>
<text x="377.9310344827586" y="940" text-anchor="middle">08-12</text>
<text x="427.58620689655174" y="940" text-anchor="middle">08-13</text>
<text x="477.2413793103448" y="940" text-anchor="middle">08-14</text>
<text x="526.8965517241379" y="940" text-anchor="middle">08-15</text>
<text x="576.551724137931" y="940" text-anchor="middle">08-16</text>
<text x="626.2068965517242" y="940" text-anchor="middle">08-17</text>
<text x="675.8620689655172" y="940" text-anchor="middle">08-18</text>
<text x="725.5172413793103" y="940" text-anchor="middle">08-19</text>
<text x="775.1724137931035" y="940" text-anchor="middle">08-20</text>
<text x="824.8275862068965" y="940" text-anchor="middle">08-21</text>
<text x="874.4827586206897" y="940" text-anchor="middle">08-22</text>
<text x="924.1379310344828" y="940" text-anchor="middle">08-23</text>
<text x="973.7931034482758" y="940" text-anchor="middle">08-24</text>
<text x="1023.448275862069" y="940" text-anchor="middle">08-25</text>
<text x="1073.103448275862" y="940" text-anchor="middle">08-26</text>
<text x="1122.7586206896551" y="940" text-anchor="middle">08-27</text>
<text x="1172.4137931034484" y="940" text-anchor="middle">08-28</text>
<text x="1222.0689655172414" y="940" text-anchor="middle">08-29</text>
<text x="1271.7241379310344" y="940" text-anchor="middle">08-30</text>
<text x="1321.3793103448277" y="940" text-anchor="middle">08-31</text>
<text x="1371.0344827586207" y="940" text-anchor="middle">09-01</text>
<text x="1420.6896551724137" y="940" text-anchor="middle">09-02</text>
<text x="1470.344827586207" y="940" text-anchor="middle">09-03</text>
<text x="1520.0" y="940" text-anchor="middle">09-04</text>
<rect x="90" y="100" width="130" height="185" class="legend-box" />
<text x="100" y="120" class="legend-item">图例:</text>
<rect x="100" y="137" width="15" height="15" fill="#1f77b4" rx="3" />
<text x="120" y="145" class="legend-item">构件聚合数据</text>
<rect x="100" y="162" width="15" height="15" fill="#ff7f0e" rx="3" />
<text x="120" y="170" class="legend-item">构件基本信息</text>
<rect x="100" y="187" width="15" height="15" fill="#2ca02c" rx="3" />
<text x="120" y="195" class="legend-item">构件徽标</text>
<rect x="100" y="212" width="15" height="15" fill="#d62728" rx="3" />
<text x="120" y="220" class="legend-item">构件扩展元数据</text>
<rect x="100" y="237" width="15" height="15" fill="#9467bd" rx="3" />
<text x="120" y="245" class="legend-item">构件版本信息</text>
<rect x="100" y="262" width="15" height="15" fill="#66ffbd" rx="3" />
<text x="120" y="270" class="legend-item">数据量偏差</text>
<text x="1520" y="990" text-anchor="end" font-size="10" fill="#666">生成时间: 2025-09-04 03:43:58</text>
</svg>