<svg xmlns="http://www.w3.org/2000/svg" width="1600" height="1000" viewBox="0 0 1600 1000">
<style>
  text {
    font-family: Arial, sans-serif;
    font-size: 12px;
    fill: #333;
  }
  .axis-label { font-size: 14px; }
  .title { font-size: 18px; font-weight: bold; }
  .legend-item { font-size: 11px; }
  .legend-box { fill: white; fill-opacity: 0.85; stroke: #cccccc; stroke-width: 1; rx: 5; }
</style>
<text x="800.0" y="30" text-anchor="middle" class="title">Daily Data Growth Trend</text>
<text x="800.0" y="980" text-anchor="middle" class="axis-label">Date</text>
<g transform="rotate(-90)">
<text x="-500.0" y="20" text-anchor="middle" class="axis-label">Count</text>
</g>
<rect x="0" y="0" width="1600" height="1000" fill="#f8f8f8" />
<line x1="80" y1="920.0" x2="1520" y2="920.0" stroke="#e0e0e0" stroke-width="1" />
<text x="70" y="925.0" text-anchor="end">0</text>
<line x1="80" y1="752.0" x2="1520" y2="752.0" stroke="#e0e0e0" stroke-width="1" />
<text x="70" y="757.0" text-anchor="end">17.5k</text>
<line x1="80" y1="584.0" x2="1520" y2="584.0" stroke="#e0e0e0" stroke-width="1" />
<text x="70" y="589.0" text-anchor="end">34.9k</text>
<line x1="80" y1="416.0" x2="1520" y2="416.0" stroke="#e0e0e0" stroke-width="1" />
<text x="70" y="421.0" text-anchor="end">52.4k</text>
<line x1="80" y1="248.0" x2="1520" y2="248.0" stroke="#e0e0e0" stroke-width="1" />
<text x="70" y="253.0" text-anchor="end">69.9k</text>
<line x1="80" y1="80.0" x2="1520" y2="80.0" stroke="#e0e0e0" stroke-width="1" />
<text x="70" y="85.0" text-anchor="end">87.3k</text>
<line x1="80" y1="80" x2="80" y2="920" stroke="#333333" stroke-width="2" />
<line x1="80" y1="920" x2="1520" y2="920" stroke="#333333" stroke-width="2" />
<circle cx="80.0" cy="920.0" r="4" fill="#1f77b4" />
<circle cx="125.0" cy="872.9898295304273" r="4" fill="#1f77b4" />
<circle cx="170.0" cy="773.3625063114616" r="4" fill="#1f77b4" />
<circle cx="215.0" cy="733.2865283354572" r="4" fill="#1f77b4" />
<circle cx="260.0" cy="709.1659253203818" r="4" fill="#1f77b4" />
<circle cx="305.0" cy="697.0575364862591" r="4" fill="#1f77b4" />
<circle cx="350.0" cy="672.9369334711837" r="4" fill="#1f77b4" />
<circle cx="395.0" cy="646.9024548580221" r="4" fill="#1f77b4" />
<circle cx="440.0" cy="622.906878892068" r="4" fill="#1f77b4" />
<circle cx="485.0" cy="603.3449544372581" r="4" fill="#1f77b4" />
<circle cx="530.0" cy="585.5045562741939" r="4" fill="#1f77b4" />
<circle cx="575.0" cy="574.2905917145537" r="4" fill="#1f77b4" />
<circle cx="620.0" cy="563.1920367387175" r="4" fill="#1f77b4" />
<circle cx="665.0" cy="546.5057344136953" r="4" fill="#1f77b4" />
<circle cx="710.0" cy="522.8082998725686" r="4" fill="#1f77b4" />
<circle cx="755.0" cy="497.1777548027218" r="4" fill="#1f77b4" />
<circle cx="800.0" cy="480.164458656921" r="4" fill="#1f77b4" />
<circle cx="845.0" cy="456.880575124426" r="4" fill="#1f77b4" />
<circle cx="890.0" cy="447.2631098074103" r="4" fill="#1f77b4" />
<circle cx="935.0" cy="438.40542425043884" r="4" fill="#1f77b4" />
<circle cx="980.0" cy="419.3532254574307" r="4" fill="#1f77b4" />
<circle cx="1025.0" cy="400.6184030198841" r="4" fill="#1f77b4" />
<circle cx="1070.0" cy="384.028275348032" r="4" fill="#1f77b4" />
<circle cx="1115.0" cy="361.12909042821764" r="4" fill="#1f77b4" />
<circle cx="1160.0" cy="345.366064773629" r="4" fill="#1f77b4" />
<circle cx="1205.0" cy="335.65242480344307" r="4" fill="#1f77b4" />
<circle cx="1250.0" cy="324.6981318073622" r="4" fill="#1f77b4" />
<circle cx="1295.0" cy="310.6277800485682" r="4" fill="#1f77b4" />
<circle cx="1340.0" cy="298.41359909595826" r="4" fill="#1f77b4" />
<circle cx="1385.0" cy="288.03635401889835" r="4" fill="#1f77b4" />
<circle cx="1430.0" cy="270.4171575581256" r="4" fill="#1f77b4" />
<circle cx="1475.0" cy="256.03904690918716" r="4" fill="#1f77b4" />
<circle cx="1520.0" cy="234.11122598639133" r="4" fill="#1f77b4" />
<path d="M 80.0 920.0 L 125.0 872.9898295304273 L 170.0 773.3625063114616 L 215.0 733.2865283354572 L 260.0 709.1659253203818 L 305.0 697.0575364862591 L 350.0 672.9369334711837 L 395.0 646.9024548580221 L 440.0 622.906878892068 L 485.0 603.3449544372581 L 530.0 585.5045562741939 L 575.0 574.2905917145537 L 620.0 563.1920367387175 L 665.0 546.5057344136953 L 710.0 522.8082998725686 L 755.0 497.1777548027218 L 800.0 480.164458656921 L 845.0 456.880575124426 L 890.0 447.2631098074103 L 935.0 438.40542425043884 L 980.0 419.3532254574307 L 1025.0 400.6184030198841 L 1070.0 384.028275348032 L 1115.0 361.12909042821764 L 1160.0 345.366064773629 L 1205.0 335.65242480344307 L 1250.0 324.6981318073622 L 1295.0 310.6277800485682 L 1340.0 298.41359909595826 L 1385.0 288.03635401889835 L 1430.0 270.4171575581256 L 1475.0 256.03904690918716 L 1520.0 234.11122598639133" fill="none" stroke="#1f77b4" stroke-width="2" />
<circle cx="80.0" cy="920.0" r="4" fill="#ff7f0e" />
<circle cx="125.0" cy="576.8873073501479" r="4" fill="#ff7f0e" />
<circle cx="170.0" cy="505.3045129956" r="4" fill="#ff7f0e" />
<circle cx="215.0" cy="482.34762328388354" r="4" fill="#ff7f0e" />
<circle cx="260.0" cy="471.0374840710731" r="4" fill="#ff7f0e" />
<circle cx="305.0" cy="462.18941597941864" r="4" fill="#ff7f0e" />
<circle cx="350.0" cy="446.4167728595129" r="4" fill="#ff7f0e" />
<circle cx="395.0" cy="426.40282753480324" r="4" fill="#ff7f0e" />
<circle cx="440.0" cy="410.4378351085572" r="4" fill="#ff7f0e" />
<circle cx="485.0" cy="397.2811425548797" r="4" fill="#ff7f0e" />
<circle cx="530.0" cy="383.9705705561299" r="4" fill="#ff7f0e" />
<circle cx="575.0" cy="377.0171431319276" r="4" fill="#ff7f0e" />
<circle cx="620.0" cy="368.4095116731986" r="4" fill="#ff7f0e" />
<circle cx="665.0" cy="358.61893198047653" r="4" fill="#ff7f0e" />
<circle cx="710.0" cy="345.5199442187012" r="4" fill="#ff7f0e" />
<circle cx="755.0" cy="327.9873049457816" r="4" fill="#ff7f0e" />
<circle cx="800.0" cy="316.73487052487326" r="4" fill="#ff7f0e" />
<circle cx="845.0" cy="302.6837536967133" r="4" fill="#ff7f0e" />
<circle cx="890.0" cy="294.13382702988633" r="4" fill="#ff7f0e" />
<circle cx="935.0" cy="287.31504412012214" r="4" fill="#ff7f0e" />
<circle cx="980.0" cy="271.8213074944099" r="4" fill="#ff7f0e" />
<circle cx="1025.0" cy="259.21281046380227" r="4" fill="#ff7f0e" />
<circle cx="1070.0" cy="244.2865042917939" r="4" fill="#ff7f0e" />
<circle cx="1115.0" cy="224.70534490634998" r="4" fill="#ff7f0e" />
<circle cx="1160.0" cy="212.471929023106" r="4" fill="#ff7f0e" />
<circle cx="1205.0" cy="197.87261667187613" r="4" fill="#ff7f0e" />
<circle cx="1250.0" cy="194.24683224736123" r="4" fill="#ff7f0e" />
<circle cx="1295.0" cy="181.89800678031315" r="4" fill="#ff7f0e" />
<circle cx="1340.0" cy="173.63660407299665" r="4" fill="#ff7f0e" />
<circle cx="1385.0" cy="165.7310475824097" r="4" fill="#ff7f0e" />
<circle cx="1430.0" cy="151.03556057800972" r="4" fill="#ff7f0e" />
<circle cx="1475.0" cy="137.84039816306415" r="4" fill="#ff7f0e" />
<circle cx="1520.0" cy="123.29879060373639" r="4" fill="#ff7f0e" />
<path d="M 80.0 920.0 L 125.0 576.8873073501479 L 170.0 505.3045129956 L 215.0 482.34762328388354 L 260.0 471.0374840710731 L 305.0 462.18941597941864 L 350.0 446.4167728595129 L 395.0 426.40282753480324 L 440.0 410.4378351085572 L 485.0 397.2811425548797 L 530.0 383.9705705561299 L 575.0 377.0171431319276 L 620.0 368.4095116731986 L 665.0 358.61893198047653 L 710.0 345.5199442187012 L 755.0 327.9873049457816 L 800.0 316.73487052487326 L 845.0 302.6837536967133 L 890.0 294.13382702988633 L 935.0 287.31504412012214 L 980.0 271.8213074944099 L 1025.0 259.21281046380227 L 1070.0 244.2865042917939 L 1115.0 224.70534490634998 L 1160.0 212.471929023106 L 1205.0 197.87261667187613 L 1250.0 194.24683224736123 L 1295.0 181.89800678031315 L 1340.0 173.63660407299665 L 1385.0 165.7310475824097 L 1430.0 151.03556057800972 L 1475.0 137.84039816306415 L 1520.0 123.29879060373639" fill="none" stroke="#ff7f0e" stroke-width="2" />
<circle cx="80.0" cy="920.0" r="4" fill="#2ca02c" />
<circle cx="125.0" cy="570.1454641629199" r="4" fill="#2ca02c" />
<circle cx="170.0" cy="498.8415763025655" r="4" fill="#2ca02c" />
<circle cx="215.0" cy="476.10588829314037" r="4" fill="#2ca02c" />
<circle cx="260.0" cy="464.9688634560362" r="4" fill="#2ca02c" />
<circle cx="305.0" cy="456.1400302950158" r="4" fill="#2ca02c" />
<circle cx="350.0" cy="440.5308840854993" r="4" fill="#2ca02c" />
<circle cx="395.0" cy="420.77661032434906" r="4" fill="#2ca02c" />
<circle cx="440.0" cy="404.9943497391263" r="4" fill="#2ca02c" />
<circle cx="485.0" cy="391.94344930393595" r="4" fill="#2ca02c" />
<circle cx="530.0" cy="378.7001995624054" r="4" fill="#2ca02c" />
<circle cx="575.0" cy="371.85256425669013" r="4" fill="#2ca02c" />
<circle cx="620.0" cy="363.24493279796116" r="4" fill="#2ca02c" />
<circle cx="665.0" cy="353.48320550119024" r="4" fill="#2ca02c" />
<circle cx="710.0" cy="340.6727416989253" r="4" fill="#2ca02c" />
<circle cx="755.0" cy="323.5151835733693" r="4" fill="#2ca02c" />
<circle cx="800.0" cy="312.310836479046" r="4" fill="#2ca02c" />
<circle cx="845.0" cy="298.269337116203" r="4" fill="#2ca02c" />
<circle cx="890.0" cy="289.70979298405905" r="4" fill="#2ca02c" />
<circle cx="935.0" cy="282.91024500492904" r="4" fill="#2ca02c" />
<circle cx="980.0" cy="267.5223004977039" r="4" fill="#2ca02c" />
<circle cx="1025.0" cy="254.94265586304732" r="4" fill="#2ca02c" />
<circle cx="1070.0" cy="240.03558462167302" r="4" fill="#2ca02c" />
<circle cx="1115.0" cy="220.48327763218003" r="4" fill="#2ca02c" />
<circle cx="1160.0" cy="208.28833161020418" r="4" fill="#2ca02c" />
<circle cx="1205.0" cy="193.6986367242913" r="4" fill="#2ca02c" />
<circle cx="1250.0" cy="190.0824697650935" r="4" fill="#2ca02c" />
<circle cx="1295.0" cy="177.74326176336228" r="4" fill="#2ca02c" />
<circle cx="1340.0" cy="169.51071145199683" r="4" fill="#2ca02c" />
<circle cx="1385.0" cy="161.653242287995" r="4" fill="#2ca02c" />
<circle cx="1430.0" cy="147.29436656969062" r="4" fill="#2ca02c" />
<circle cx="1475.0" cy="134.13767401601308" r="4" fill="#2ca02c" />
<circle cx="1520.0" cy="120.0" r="4" fill="#2ca02c" />
<path d="M 80.0 920.0 L 125.0 570.1454641629199 L 170.0 498.8415763025655 L 215.0 476.10588829314037 L 260.0 464.9688634560362 L 305.0 456.1400302950158 L 350.0 440.5308840854993 L 395.0 420.77661032434906 L 440.0 404.9943497391263 L 485.0 391.94344930393595 L 530.0 378.7001995624054 L 575.0 371.85256425669013 L 620.0 363.24493279796116 L 665.0 353.48320550119024 L 710.0 340.6727416989253 L 755.0 323.5151835733693 L 800.0 312.310836479046 L 845.0 298.269337116203 L 890.0 289.70979298405905 L 935.0 282.91024500492904 L 980.0 267.5223004977039 L 1025.0 254.94265586304732 L 1070.0 240.03558462167302 L 1115.0 220.48327763218003 L 1160.0 208.28833161020418 L 1205.0 193.6986367242913 L 1250.0 190.0824697650935 L 1295.0 177.74326176336228 L 1340.0 169.51071145199683 L 1385.0 161.653242287995 L 1430.0 147.29436656969062 L 1475.0 134.13767401601308 L 1520.0 120.0" fill="none" stroke="#2ca02c" stroke-width="2" />
<circle cx="80.0" cy="920.0" r="4" fill="#d62728" />
<circle cx="125.0" cy="852.1199297925032" r="4" fill="#d62728" />
<circle cx="170.0" cy="753.8775215791878" r="4" fill="#d62728" />
<circle cx="215.0" cy="719.8797816835373" r="4" fill="#d62728" />
<circle cx="260.0" cy="695.807265995047" r="4" fill="#d62728" />
<circle cx="305.0" cy="683.8046692794114" r="4" fill="#d62728" />
<circle cx="350.0" cy="660.1745569955038" r="4" fill="#d62728" />
<circle cx="395.0" cy="635.3518790122863" r="4" fill="#d62728" />
<circle cx="440.0" cy="612.500781419057" r="4" fill="#d62728" />
<circle cx="485.0" cy="593.3524079728788" r="4" fill="#d62728" />
<circle cx="530.0" cy="575.5697146017167" r="4" fill="#d62728" />
<circle cx="575.0" cy="564.3749849727105" r="4" fill="#d62728" />
<circle cx="620.0" cy="553.2860474621914" r="4" fill="#d62728" />
<circle cx="665.0" cy="537.4268471544325" r="4" fill="#d62728" />
<circle cx="710.0" cy="514.0083191074992" r="4" fill="#d62728" />
<circle cx="755.0" cy="488.8105599769181" r="4" fill="#d62728" />
<circle cx="800.0" cy="472.60513091774664" r="4" fill="#d62728" />
<circle cx="845.0" cy="449.6097713447621" r="4" fill="#d62728" />
<circle cx="890.0" cy="439.9923060277464" r="4" fill="#d62728" />
<circle cx="935.0" cy="431.23079512394514" r="4" fill="#d62728" />
<circle cx="980.0" cy="412.4094154985454" r="4" fill="#d62728" />
<circle cx="1025.0" cy="394.8094539684066" r="4" fill="#d62728" />
<circle cx="1070.0" cy="378.2866485537737" r="4" fill="#d62728" />
<circle cx="1115.0" cy="355.4066985645933" r="4" fill="#d62728" />
<circle cx="1160.0" cy="340.1630160371235" r="4" fill="#d62728" />
<circle cx="1205.0" cy="330.4493760669376" r="4" fill="#d62728" />
<circle cx="1250.0" cy="319.48546560553973" r="4" fill="#d62728" />
<circle cx="1295.0" cy="305.4151138467457" r="4" fill="#d62728" />
<circle cx="1340.0" cy="294.01841744608214" r="4" fill="#d62728" />
<circle cx="1385.0" cy="283.6604072996562" r="4" fill="#d62728" />
<circle cx="1430.0" cy="266.07968070015147" r="4" fill="#d62728" />
<circle cx="1475.0" cy="251.71118751653012" r="4" fill="#d62728" />
<circle cx="1520.0" cy="229.89877617753848" r="4" fill="#d62728" />
<path d="M 80.0 920.0 L 125.0 852.1199297925032 L 170.0 753.8775215791878 L 215.0 719.8797816835373 L 260.0 695.807265995047 L 305.0 683.8046692794114 L 350.0 660.1745569955038 L 395.0 635.3518790122863 L 440.0 612.500781419057 L 485.0 593.3524079728788 L 530.0 575.5697146017167 L 575.0 564.3749849727105 L 620.0 553.2860474621914 L 665.0 537.4268471544325 L 710.0 514.0083191074992 L 755.0 488.8105599769181 L 800.0 472.60513091774664 L 845.0 449.6097713447621 L 890.0 439.9923060277464 L 935.0 431.23079512394514 L 980.0 412.4094154985454 L 1025.0 394.8094539684066 L 1070.0 378.2866485537737 L 1115.0 355.4066985645933 L 1160.0 340.1630160371235 L 1205.0 330.4493760669376 L 1250.0 319.48546560553973 L 1295.0 305.4151138467457 L 1340.0 294.01841744608214 L 1385.0 283.6604072996562 L 1430.0 266.07968070015147 L 1475.0 251.71118751653012 L 1520.0 229.89877617753848" fill="none" stroke="#d62728" stroke-width="2" />
<circle cx="80.0" cy="920.0" r="4" fill="#9467bd" />
<circle cx="125.0" cy="859.2849414536798" r="4" fill="#9467bd" />
<circle cx="170.0" cy="760.6674520930009" r="4" fill="#9467bd" />
<circle cx="215.0" cy="720.6876487701667" r="4" fill="#9467bd" />
<circle cx="260.0" cy="696.5381933591402" r="4" fill="#9467bd" />
<circle cx="305.0" cy="685.7666322040826" r="4" fill="#9467bd" />
<circle cx="350.0" cy="661.9345531485178" r="4" fill="#9467bd" />
<circle cx="395.0" cy="635.9673967925753" r="4" fill="#9467bd" />
<circle cx="440.0" cy="612.471929023106" r="4" fill="#9467bd" />
<circle cx="485.0" cy="593.1119713399534" r="4" fill="#9467bd" />
<circle cx="530.0" cy="575.5312447404488" r="4" fill="#9467bd" />
<circle cx="575.0" cy="564.3268976461254" r="4" fill="#9467bd" />
<circle cx="620.0" cy="553.1610204130702" r="4" fill="#9467bd" />
<circle cx="665.0" cy="536.5708927412181" r="4" fill="#9467bd" />
<circle cx="710.0" cy="513.3254790699912" r="4" fill="#9467bd" />
<circle cx="755.0" cy="487.6372292082422" r="4" fill="#9467bd" />
<circle cx="800.0" cy="470.98939674448803" r="4" fill="#9467bd" />
<circle cx="845.0" cy="451.0043038157294" r="4" fill="#9467bd" />
<circle cx="890.0" cy="441.37722103339667" r="4" fill="#9467bd" />
<circle cx="935.0" cy="432.51953547642523" r="4" fill="#9467bd" />
<circle cx="980.0" cy="413.41924935683204" r="4" fill="#9467bd" />
<circle cx="1025.0" cy="395.2710923036234" r="4" fill="#9467bd" />
<circle cx="1070.0" cy="378.76752181962445" r="4" fill="#9467bd" />
<circle cx="1115.0" cy="355.801014642591" r="4" fill="#9467bd" />
<circle cx="1160.0" cy="340.3361304128298" r="4" fill="#9467bd" />
<circle cx="1205.0" cy="330.6513428385949" r="4" fill="#9467bd" />
<circle cx="1250.0" cy="319.68743237719707" r="4" fill="#9467bd" />
<circle cx="1295.0" cy="305.597845687769" r="4" fill="#9467bd" />
<circle cx="1340.0" cy="293.8260681397418" r="4" fill="#9467bd" />
<circle cx="1385.0" cy="283.46805799331594" r="4" fill="#9467bd" />
<circle cx="1430.0" cy="266.1277680267366" r="4" fill="#9467bd" />
<circle cx="1475.0" cy="252.08626866389363" r="4" fill="#9467bd" />
<circle cx="1520.0" cy="230.14883027578082" r="4" fill="#9467bd" />
<path d="M 80.0 920.0 L 125.0 859.2849414536798 L 170.0 760.6674520930009 L 215.0 720.6876487701667 L 260.0 696.5381933591402 L 305.0 685.7666322040826 L 350.0 661.9345531485178 L 395.0 635.9673967925753 L 440.0 612.471929023106 L 485.0 593.1119713399534 L 530.0 575.5312447404488 L 575.0 564.3268976461254 L 620.0 553.1610204130702 L 665.0 536.5708927412181 L 710.0 513.3254790699912 L 755.0 487.6372292082422 L 800.0 470.98939674448803 L 845.0 451.0043038157294 L 890.0 441.37722103339667 L 935.0 432.51953547642523 L 980.0 413.41924935683204 L 1025.0 395.2710923036234 L 1070.0 378.76752181962445 L 1115.0 355.801014642591 L 1160.0 340.3361304128298 L 1205.0 330.6513428385949 L 1250.0 319.68743237719707 L 1295.0 305.597845687769 L 1340.0 293.8260681397418 L 1385.0 283.46805799331594 L 1430.0 266.1277680267366 L 1475.0 252.08626866389363 L 1520.0 230.14883027578082" fill="none" stroke="#9467bd" stroke-width="2" />
<circle cx="80.0" cy="920.0" r="4" fill="#66ffbd" />
<circle cx="125.0" cy="617.1556346324926" r="4" fill="#66ffbd" />
<circle cx="170.0" cy="645.4790699911039" r="4" fill="#66ffbd" />
<circle cx="215.0" cy="662.8193599576832" r="4" fill="#66ffbd" />
<circle cx="260.0" cy="675.8029381356544" r="4" fill="#66ffbd" />
<circle cx="305.0" cy="679.0824938087567" r="4" fill="#66ffbd" />
<circle cx="350.0" cy="687.5939506143156" r="4" fill="#66ffbd" />
<circle cx="395.0" cy="693.8741554663269" r="4" fill="#66ffbd" />
<circle cx="440.0" cy="702.0874708470583" r="4" fill="#66ffbd" />
<circle cx="485.0" cy="708.5984948666779" r="4" fill="#66ffbd" />
<circle cx="530.0" cy="713.1956432882114" r="4" fill="#66ffbd" />
<circle cx="575.0" cy="717.5619725421366" r="4" fill="#66ffbd" />
<circle cx="620.0" cy="720.0528960592436" r="4" fill="#66ffbd" />
<circle cx="665.0" cy="726.9774710874949" r="4" fill="#66ffbd" />
<circle cx="710.0" cy="737.8644418263567" r="4" fill="#66ffbd" />
<circle cx="755.0" cy="746.3374287706475" r="4" fill="#66ffbd" />
<circle cx="800.0" cy="752.146377822125" r="4" fill="#66ffbd" />
<circle cx="845.0" cy="761.3887619917771" r="4" fill="#66ffbd" />
<circle cx="890.0" cy="762.4466831766488" r="4" fill="#66ffbd" />
<circle cx="935.0" cy="764.5048207544902" r="4" fill="#66ffbd" />
<circle cx="980.0" cy="768.1690750402731" r="4" fill="#66ffbd" />
<circle cx="1025.0" cy="774.3242528431632" r="4" fill="#66ffbd" />
<circle cx="1070.0" cy="776.0073092736409" r="4" fill="#66ffbd" />
<circle cx="1115.0" cy="779.3541872039624" r="4" fill="#66ffbd" />
<circle cx="1160.0" cy="782.9222668365752" r="4" fill="#66ffbd" />
<circle cx="1205.0" cy="778.0462119208482" r="4" fill="#66ffbd" />
<circle cx="1250.0" cy="785.3843379577313" r="4" fill="#66ffbd" />
<circle cx="1295.0" cy="787.1154817147941" r="4" fill="#66ffbd" />
<circle cx="1340.0" cy="791.0971123560386" r="4" fill="#66ffbd" />
<circle cx="1385.0" cy="793.6168882690966" r="4" fill="#66ffbd" />
<circle cx="1430.0" cy="796.877209011565" r="4" fill="#66ffbd" />
<circle cx="1475.0" cy="798.098627106826" r="4" fill="#66ffbd" />
<circle cx="1520.0" cy="805.8887740136088" r="4" fill="#66ffbd" />
<path d="M 80.0 920.0 L 125.0 617.1556346324926 L 170.0 645.4790699911039 L 215.0 662.8193599576832 L 260.0 675.8029381356544 L 305.0 679.0824938087567 L 350.0 687.5939506143156 L 395.0 693.8741554663269 L 440.0 702.0874708470583 L 485.0 708.5984948666779 L 530.0 713.1956432882114 L 575.0 717.5619725421366 L 620.0 720.0528960592436 L 665.0 726.9774710874949 L 710.0 737.8644418263567 L 755.0 746.3374287706475 L 800.0 752.146377822125 L 845.0 761.3887619917771 L 890.0 762.4466831766488 L 935.0 764.5048207544902 L 980.0 768.1690750402731 L 1025.0 774.3242528431632 L 1070.0 776.0073092736409 L 1115.0 779.3541872039624 L 1160.0 782.9222668365752 L 1205.0 778.0462119208482 L 1250.0 785.3843379577313 L 1295.0 787.1154817147941 L 1340.0 791.0971123560386 L 1385.0 793.6168882690966 L 1430.0 796.877209011565 L 1475.0 798.098627106826 L 1520.0 805.8887740136088" fill="none" stroke="#66ffbd" stroke-width="2" />
<text x="80.0" y="940" text-anchor="middle">08-06</text>
<text x="125.0" y="940" text-anchor="middle">08-07</text>
<text x="170.0" y="940" text-anchor="middle">08-08</text>
<text x="215.0" y="940" text-anchor="middle">08-09</text>
<text x="260.0" y="940" text-anchor="middle">08-10</text>
<text x="305.0" y="940" text-anchor="middle">08-11</text>
<text x="350.0" y="940" text-anchor="middle">08-12</text>
<text x="395.0" y="940" text-anchor="middle">08-13</text>
<text x="440.0" y="940" text-anchor="middle">08-14</text>
<text x="485.0" y="940" text-anchor="middle">08-15</text>
<text x="530.0" y="940" text-anchor="middle">08-16</text>
<text x="575.0" y="940" text-anchor="middle">08-17</text>
<text x="620.0" y="940" text-anchor="middle">08-18</text>
<text x="665.0" y="940" text-anchor="middle">08-19</text>
<text x="710.0" y="940" text-anchor="middle">08-20</text>
<text x="755.0" y="940" text-anchor="middle">08-21</text>
<text x="800.0" y="940" text-anchor="middle">08-22</text>
<text x="845.0" y="940" text-anchor="middle">08-23</text>
<text x="890.0" y="940" text-anchor="middle">08-24</text>
<text x="935.0" y="940" text-anchor="middle">08-25</text>
<text x="980.0" y="940" text-anchor="middle">08-26</text>
<text x="1025.0" y="940" text-anchor="middle">08-27</text>
<text x="1070.0" y="940" text-anchor="middle">08-28</text>
<text x="1115.0" y="940" text-anchor="middle">08-29</text>
<text x="1160.0" y="940" text-anchor="middle">08-30</text>
<text x="1205.0" y="940" text-anchor="middle">08-31</text>
<text x="1250.0" y="940" text-anchor="middle">09-01</text>
<text x="1295.0" y="940" text-anchor="middle">09-02</text>
<text x="1340.0" y="940" text-anchor="middle">09-03</text>
<text x="1385.0" y="940" text-anchor="middle">09-04</text>
<text x="1430.0" y="940" text-anchor="middle">09-05</text>
<text x="1475.0" y="940" text-anchor="middle">09-06</text>
<text x="1520.0" y="940" text-anchor="middle">09-07</text>
<rect x="90" y="100" width="130" height="185" class="legend-box" />
<text x="100" y="120" class="legend-item">图例:</text>
<rect x="100" y="137" width="15" height="15" fill="#1f77b4" rx="3" />
<text x="120" y="145" class="legend-item">构件聚合数据</text>
<rect x="100" y="162" width="15" height="15" fill="#ff7f0e" rx="3" />
<text x="120" y="170" class="legend-item">构件基本信息</text>
<rect x="100" y="187" width="15" height="15" fill="#2ca02c" rx="3" />
<text x="120" y="195" class="legend-item">构件徽标</text>
<rect x="100" y="212" width="15" height="15" fill="#d62728" rx="3" />
<text x="120" y="220" class="legend-item">构件扩展元数据</text>
<rect x="100" y="237" width="15" height="15" fill="#9467bd" rx="3" />
<text x="120" y="245" class="legend-item">构件版本信息</text>
<rect x="100" y="262" width="15" height="15" fill="#66ffbd" rx="3" />
<text x="120" y="270" class="legend-item">数据量偏差</text>
<text x="1520" y="990" text-anchor="end" font-size="10" fill="#666">生成时间: 2025-09-07 05:25:57</text>
</svg>