<svg xmlns="http://www.w3.org/2000/svg" width="1600" height="1000" viewBox="0 0 1600 1000">
<style>
  text {
    font-family: Arial, sans-serif;
    font-size: 12px;
    fill: #333;
  }
  .axis-label { font-size: 14px; }
  .title { font-size: 18px; font-weight: bold; }
  .legend-item { font-size: 11px; }
  .legend-box { fill: white; fill-opacity: 0.85; stroke: #cccccc; stroke-width: 1; rx: 5; }
</style>
<text x="800.0" y="30" text-anchor="middle" class="title">Daily Data Growth Trend</text>
<text x="800.0" y="980" text-anchor="middle" class="axis-label">Date</text>
<g transform="rotate(-90)">
<text x="-500.0" y="20" text-anchor="middle" class="axis-label">Count</text>
</g>
<rect x="0" y="0" width="1600" height="1000" fill="#f8f8f8" />
<line x1="80" y1="920.0" x2="1520" y2="920.0" stroke="#e0e0e0" stroke-width="1" />
<text x="70" y="925.0" text-anchor="end">4.6k</text>
<line x1="80" y1="752.0" x2="1520" y2="752.0" stroke="#e0e0e0" stroke-width="1" />
<text x="70" y="757.0" text-anchor="end">17.5k</text>
<line x1="80" y1="584.0" x2="1520" y2="584.0" stroke="#e0e0e0" stroke-width="1" />
<text x="70" y="589.0" text-anchor="end">30.3k</text>
<line x1="80" y1="416.0" x2="1520" y2="416.0" stroke="#e0e0e0" stroke-width="1" />
<text x="70" y="421.0" text-anchor="end">43.1k</text>
<line x1="80" y1="248.0" x2="1520" y2="248.0" stroke="#e0e0e0" stroke-width="1" />
<text x="70" y="253.0" text-anchor="end">56.0k</text>
<line x1="80" y1="80.0" x2="1520" y2="80.0" stroke="#e0e0e0" stroke-width="1" />
<text x="70" y="85.0" text-anchor="end">68.8k</text>
<line x1="80" y1="80" x2="80" y2="920" stroke="#333333" stroke-width="2" />
<line x1="80" y1="920" x2="1520" y2="920" stroke="#333333" stroke-width="2" />
<circle cx="80.0" cy="916.8007081278869" r="4" fill="#1f77b4" />
<circle cx="164.70588235294116" cy="781.1973345467919" r="4" fill="#1f77b4" />
<circle cx="249.41176470588235" cy="726.649669935109" r="4" fill="#1f77b4" />
<circle cx="334.11764705882354" cy="693.818966108351" r="4" fill="#1f77b4" />
<circle cx="418.8235294117647" cy="677.3381622335949" r="4" fill="#1f77b4" />
<circle cx="503.52941176470586" cy="644.5074584068369" r="4" fill="#1f77b4" />
<circle cx="588.2352941176471" cy="609.0717665172699" r="4" fill="#1f77b4" />
<circle cx="672.9411764705882" cy="576.4112377900924" r="4" fill="#1f77b4" />
<circle cx="757.6470588235294" cy="549.7853799018844" r="4" fill="#1f77b4" />
<circle cx="842.3529411764706" cy="525.5027022309769" r="4" fill="#1f77b4" />
<circle cx="927.0588235294117" cy="510.239304837835" r="4" fill="#1f77b4" />
<circle cx="1011.7647058823529" cy="495.13299215199817" r="4" fill="#1f77b4" />
<circle cx="1096.4705882352941" cy="472.4211615541413" r="4" fill="#1f77b4" />
<circle cx="1181.1764705882354" cy="440.1664349875018" r="4" fill="#1f77b4" />
<circle cx="1265.8823529411764" cy="405.28053957350255" r="4" fill="#1f77b4" />
<circle cx="1350.5882352941176" cy="382.12363563828137" r="4" fill="#1f77b4" />
<circle cx="1435.2941176470588" cy="350.431795939485" r="4" fill="#1f77b4" />
<circle cx="1520.0" cy="337.34140366406314" r="4" fill="#1f77b4" />
<path d="M 80.0 916.8007081278869 L 164.70588235294116 781.1973345467919 L 249.41176470588235 726.649669935109 L 334.11764705882354 693.818966108351 L 418.8235294117647 677.3381622335949 L 503.52941176470586 644.5074584068369 L 588.2352941176471 609.0717665172699 L 672.9411764705882 576.4112377900924 L 757.6470588235294 549.7853799018844 L 842.3529411764706 525.5027022309769 L 927.0588235294117 510.239304837835 L 1011.7647058823529 495.13299215199817 L 1096.4705882352941 472.4211615541413 L 1181.1764705882354 440.1664349875018 L 1265.8823529411764 405.28053957350255 L 1350.5882352941176 382.12363563828137 L 1435.2941176470588 350.431795939485 L 1520.0 337.34140366406314" fill="none" stroke="#1f77b4" stroke-width="2" />
<circle cx="80.0" cy="513.7737107521989" r="4" fill="#ff7f0e" />
<circle cx="164.70588235294116" cy="416.34192104623406" r="4" fill="#ff7f0e" />
<circle cx="249.41176470588235" cy="385.0951546848021" r="4" fill="#ff7f0e" />
<circle cx="334.11764705882354" cy="369.700853368906" r="4" fill="#ff7f0e" />
<circle cx="418.8235294117647" cy="357.65769247551793" r="4" fill="#ff7f0e" />
<circle cx="503.52941176470586" cy="336.1894491438261" r="4" fill="#ff7f0e" />
<circle cx="588.2352941176471" cy="308.94834281867315" r="4" fill="#ff7f0e" />
<circle cx="672.9411764705882" cy="287.2182916414729" r="4" fill="#ff7f0e" />
<circle cx="757.6470588235294" cy="269.31063500869584" r="4" fill="#ff7f0e" />
<circle cx="842.3529411764706" cy="251.1935320995119" r="4" fill="#ff7f0e" />
<circle cx="927.0588235294117" cy="241.72917848438192" r="4" fill="#ff7f0e" />
<circle cx="1011.7647058823529" cy="230.0132773978794" r="4" fill="#ff7f0e" />
<circle cx="1096.4705882352941" cy="216.68725806149996" r="4" fill="#ff7f0e" />
<circle cx="1181.1764705882354" cy="198.85814378237535" r="4" fill="#ff7f0e" />
<circle cx="1265.8823529411764" cy="174.99435866428132" r="4" fill="#ff7f0e" />
<circle cx="1350.5882352941176" cy="159.6785997020378" r="4" fill="#ff7f0e" />
<circle cx="1435.2941176470588" cy="140.55353658764648" r="4" fill="#ff7f0e" />
<circle cx="1520.0" cy="128.9161778547964" r="4" fill="#ff7f0e" />
<path d="M 80.0 513.7737107521989 L 164.70588235294116 416.34192104623406 L 249.41176470588235 385.0951546848021 L 334.11764705882354 369.700853368906 L 418.8235294117647 357.65769247551793 L 503.52941176470586 336.1894491438261 L 588.2352941176471 308.94834281867315 L 672.9411764705882 287.2182916414729 L 757.6470588235294 269.31063500869584 L 842.3529411764706 251.1935320995119 L 927.0588235294117 241.72917848438192 L 1011.7647058823529 230.0132773978794 L 1096.4705882352941 216.68725806149996 L 1181.1764705882354 198.85814378237535 L 1265.8823529411764 174.99435866428132 L 1350.5882352941176 159.6785997020378 L 1435.2941176470588 140.55353658764648 L 1520.0 128.9161778547964" fill="none" stroke="#ff7f0e" stroke-width="2" />
<circle cx="80.0" cy="504.59734576712816" r="4" fill="#2ca02c" />
<circle cx="164.70588235294116" cy="407.5451774371505" r="4" fill="#2ca02c" />
<circle cx="249.41176470588235" cy="376.59949009805325" r="4" fill="#2ca02c" />
<circle cx="334.11764705882354" cy="361.4408158431148" r="4" fill="#2ca02c" />
<circle cx="418.8235294117647" cy="349.42383573427753" r="4" fill="#2ca02c" />
<circle cx="503.52941176470586" cy="328.1781290712679" r="4" fill="#2ca02c" />
<circle cx="588.2352941176471" cy="301.2904633375514" r="4" fill="#2ca02c" />
<circle cx="672.9411764705882" cy="279.8091296135841" r="4" fill="#2ca02c" />
<circle cx="757.6470588235294" cy="262.0454672958367" r="4" fill="#2ca02c" />
<circle cx="842.3529411764706" cy="244.01999713258078" r="4" fill="#2ca02c" />
<circle cx="927.0588235294117" cy="234.69963783248045" r="4" fill="#2ca02c" />
<circle cx="1011.7647058823529" cy="222.98373674597792" r="4" fill="#2ca02c" />
<circle cx="1096.4705882352941" cy="209.6969885864247" r="4" fill="#2ca02c" />
<circle cx="1181.1764705882354" cy="192.26058607556274" r="4" fill="#2ca02c" />
<circle cx="1265.8823529411764" cy="168.90732625621024" r="4" fill="#2ca02c" />
<circle cx="1350.5882352941176" cy="153.6570192553437" r="4" fill="#2ca02c" />
<circle cx="1435.2941176470588" cy="134.54504653322783" r="4" fill="#2ca02c" />
<circle cx="1520.0" cy="122.89459740810241" r="4" fill="#2ca02c" />
<path d="M 80.0 504.59734576712816 L 164.70588235294116 407.5451774371505 L 249.41176470588235 376.59949009805325 L 334.11764705882354 361.4408158431148 L 418.8235294117647 349.42383573427753 L 503.52941176470586 328.1781290712679 L 588.2352941176471 301.2904633375514 L 672.9411764705882 279.8091296135841 L 757.6470588235294 262.0454672958367 L 842.3529411764706 244.01999713258078 L 927.0588235294117 234.69963783248045 L 1011.7647058823529 222.98373674597792 L 1096.4705882352941 209.6969885864247 L 1181.1764705882354 192.26058607556274 L 1265.8823529411764 168.90732625621024 L 1350.5882352941176 153.6570192553437 L 1435.2941176470588 134.54504653322783 L 1520.0 122.89459740810241" fill="none" stroke="#2ca02c" stroke-width="2" />
<circle cx="80.0" cy="888.3945568902215" r="4" fill="#d62728" />
<circle cx="164.70588235294116" cy="754.6761997967872" r="4" fill="#d62728" />
<circle cx="249.41176470588235" cy="708.401663103171" r="4" fill="#d62728" />
<circle cx="334.11764705882354" cy="675.6364112377901" r="4" fill="#d62728" />
<circle cx="418.8235294117647" cy="659.2996016780636" r="4" fill="#d62728" />
<circle cx="503.52941176470586" cy="627.1365078573522" r="4" fill="#d62728" />
<circle cx="588.2352941176471" cy="593.3502053944883" r="4" fill="#d62728" />
<circle cx="672.9411764705882" cy="562.247433348086" r="4" fill="#d62728" />
<circle cx="757.6470588235294" cy="536.1844623277211" r="4" fill="#d62728" />
<circle cx="842.3529411764706" cy="511.9803270104661" r="4" fill="#d62728" />
<circle cx="927.0588235294117" cy="496.7431104018751" r="4" fill="#d62728" />
<circle cx="1011.7647058823529" cy="481.6498881083137" r="4" fill="#d62728" />
<circle cx="1096.4705882352941" cy="460.063831246143" r="4" fill="#d62728" />
<circle cx="1181.1764705882354" cy="428.1887260554908" r="4" fill="#d62728" />
<circle cx="1265.8823529411764" cy="393.89189829388556" r="4" fill="#d62728" />
<circle cx="1350.5882352941176" cy="371.83458730979976" r="4" fill="#d62728" />
<circle cx="1435.2941176470588" cy="340.53545937926606" r="4" fill="#d62728" />
<circle cx="1520.0" cy="327.4450671038443" r="4" fill="#d62728" />
<path d="M 80.0 888.3945568902215 L 164.70588235294116 754.6761997967872 L 249.41176470588235 708.401663103171 L 334.11764705882354 675.6364112377901 L 418.8235294117647 659.2996016780636 L 503.52941176470586 627.1365078573522 L 588.2352941176471 593.3502053944883 L 672.9411764705882 562.247433348086 L 757.6470588235294 536.1844623277211 L 842.3529411764706 511.9803270104661 L 927.0588235294117 496.7431104018751 L 1011.7647058823529 481.6498881083137 L 1096.4705882352941 460.063831246143 L 1181.1764705882354 428.1887260554908 L 1265.8823529411764 393.89189829388556 L 1350.5882352941176 371.83458730979976 L 1435.2941176470588 340.53545937926606 L 1520.0 327.4450671038443" fill="none" stroke="#d62728" stroke-width="2" />
<circle cx="80.0" cy="898.1468991354108" r="4" fill="#9467bd" />
<circle cx="164.70588235294116" cy="763.9180167432351" r="4" fill="#9467bd" />
<circle cx="249.41176470588235" cy="709.5012560543064" r="4" fill="#9467bd" />
<circle cx="334.11764705882354" cy="676.6312810507221" r="4" fill="#9467bd" />
<circle cx="418.8235294117647" cy="661.9700417022497" r="4" fill="#9467bd" />
<circle cx="503.52941176470586" cy="629.5320496437544" r="4" fill="#9467bd" />
<circle cx="588.2352941176471" cy="594.1879905001153" r="4" fill="#9467bd" />
<circle cx="672.9411764705882" cy="562.2081621712598" r="4" fill="#9467bd" />
<circle cx="757.6470588235294" cy="535.8572025208356" r="4" fill="#9467bd" />
<circle cx="842.3529411764706" cy="511.9279654413644" r="4" fill="#9467bd" />
<circle cx="927.0588235294117" cy="496.67765844049796" r="4" fill="#9467bd" />
<circle cx="1011.7647058823529" cy="481.4797130087332" r="4" fill="#9467bd" />
<circle cx="1096.4705882352941" cy="458.8987863336305" r="4" fill="#9467bd" />
<circle cx="1181.1764705882354" cy="427.25930820393586" r="4" fill="#9467bd" />
<circle cx="1265.8823529411764" cy="392.2948704362841" r="4" fill="#9467bd" />
<circle cx="1350.5882352941176" cy="369.6354014075289" r="4" fill="#9467bd" />
<circle cx="1435.2941176470588" cy="342.4335662592023" r="4" fill="#9467bd" />
<circle cx="1520.0" cy="329.33008359150494" r="4" fill="#9467bd" />
<path d="M 80.0 898.1468991354108 L 164.70588235294116 763.9180167432351 L 249.41176470588235 709.5012560543064 L 334.11764705882354 676.6312810507221 L 418.8235294117647 661.9700417022497 L 503.52941176470586 629.5320496437544 L 588.2352941176471 594.1879905001153 L 672.9411764705882 562.2081621712598 L 757.6470588235294 535.8572025208356 L 842.3529411764706 511.9279654413644 L 927.0588235294117 496.67765844049796 L 1011.7647058823529 481.4797130087332 L 1096.4705882352941 458.8987863336305 L 1181.1764705882354 427.25930820393586 L 1265.8823529411764 392.2948704362841 L 1350.5882352941176 369.6354014075289 L 1435.2941176470588 342.4335662592023 L 1520.0 329.33008359150494" fill="none" stroke="#9467bd" stroke-width="2" />
<circle cx="80.0" cy="568.5831832093902" r="4" fill="#66ffbd" />
<circle cx="164.70588235294116" cy="607.1343884605076" r="4" fill="#66ffbd" />
<circle cx="249.41176470588235" cy="630.7363657330932" r="4" fill="#66ffbd" />
<circle cx="334.11764705882354" cy="648.4083953049126" r="4" fill="#66ffbd" />
<circle cx="418.8235294117647" cy="652.8722190708315" r="4" fill="#66ffbd" />
<circle cx="503.52941176470586" cy="664.4572162345798" r="4" fill="#66ffbd" />
<circle cx="588.2352941176471" cy="673.0052423904303" r="4" fill="#66ffbd" />
<circle cx="672.9411764705882" cy="684.1844373936406" r="4" fill="#66ffbd" />
<circle cx="757.6470588235294" cy="693.0466329641011" r="4" fill="#66ffbd" />
<circle cx="842.3529411764706" cy="699.3038404717528" r="4" fill="#66ffbd" />
<circle cx="927.0588235294117" cy="705.2468785647943" r="4" fill="#66ffbd" />
<circle cx="1011.7647058823529" cy="708.6372901641286" r="4" fill="#66ffbd" />
<circle cx="1096.4705882352941" cy="718.0623726024323" r="4" fill="#66ffbd" />
<circle cx="1181.1764705882354" cy="732.8806966582099" r="4" fill="#66ffbd" />
<circle cx="1265.8823529411764" cy="744.4133322528564" r="4" fill="#66ffbd" />
<circle cx="1350.5882352941176" cy="752.3199291872113" r="4" fill="#66ffbd" />
<circle cx="1435.2941176470588" cy="764.8997961638917" r="4" fill="#66ffbd" />
<circle cx="1520.0" cy="766.3397393141881" r="4" fill="#66ffbd" />
<path d="M 80.0 568.5831832093902 L 164.70588235294116 607.1343884605076 L 249.41176470588235 630.7363657330932 L 334.11764705882354 648.4083953049126 L 418.8235294117647 652.8722190708315 L 503.52941176470586 664.4572162345798 L 588.2352941176471 673.0052423904303 L 672.9411764705882 684.1844373936406 L 757.6470588235294 693.0466329641011 L 842.3529411764706 699.3038404717528 L 927.0588235294117 705.2468785647943 L 1011.7647058823529 708.6372901641286 L 1096.4705882352941 718.0623726024323 L 1181.1764705882354 732.8806966582099 L 1265.8823529411764 744.4133322528564 L 1350.5882352941176 752.3199291872113 L 1435.2941176470588 764.8997961638917 L 1520.0 766.3397393141881" fill="none" stroke="#66ffbd" stroke-width="2" />
<text x="80.0" y="940" text-anchor="middle">08-07</text>
<text x="164.70588235294116" y="940" text-anchor="middle">08-08</text>
<text x="249.41176470588235" y="940" text-anchor="middle">08-09</text>
<text x="334.11764705882354" y="940" text-anchor="middle">08-10</text>
<text x="418.8235294117647" y="940" text-anchor="middle">08-11</text>
<text x="503.52941176470586" y="940" text-anchor="middle">08-12</text>
<text x="588.2352941176471" y="940" text-anchor="middle">08-13</text>
<text x="672.9411764705882" y="940" text-anchor="middle">08-14</text>
<text x="757.6470588235294" y="940" text-anchor="middle">08-15</text>
<text x="842.3529411764706" y="940" text-anchor="middle">08-16</text>
<text x="927.0588235294117" y="940" text-anchor="middle">08-17</text>
<text x="1011.7647058823529" y="940" text-anchor="middle">08-18</text>
<text x="1096.4705882352941" y="940" text-anchor="middle">08-19</text>
<text x="1181.1764705882354" y="940" text-anchor="middle">08-20</text>
<text x="1265.8823529411764" y="940" text-anchor="middle">08-21</text>
<text x="1350.5882352941176" y="940" text-anchor="middle">08-22</text>
<text x="1435.2941176470588" y="940" text-anchor="middle">08-23</text>
<text x="1520.0" y="940" text-anchor="middle">08-24</text>
<rect x="90" y="100" width="130" height="185" class="legend-box" />
<text x="100" y="120" class="legend-item">图例:</text>
<rect x="100" y="137" width="15" height="15" fill="#1f77b4" rx="3" />
<text x="120" y="145" class="legend-item">构件聚合数据</text>
<rect x="100" y="162" width="15" height="15" fill="#ff7f0e" rx="3" />
<text x="120" y="170" class="legend-item">构件基本信息</text>
<rect x="100" y="187" width="15" height="15" fill="#2ca02c" rx="3" />
<text x="120" y="195" class="legend-item">构件徽标</text>
<rect x="100" y="212" width="15" height="15" fill="#d62728" rx="3" />
<text x="120" y="220" class="legend-item">构件扩展元数据</text>
<rect x="100" y="237" width="15" height="15" fill="#9467bd" rx="3" />
<text x="120" y="245" class="legend-item">构件版本信息</text>
<rect x="100" y="262" width="15" height="15" fill="#66ffbd" rx="3" />
<text x="120" y="270" class="legend-item">数据量偏差</text>
<text x="1520" y="990" text-anchor="end" font-size="10" fill="#666">生成时间: 2025-08-24 00:47:09</text>
</svg>