<svg xmlns="http://www.w3.org/2000/svg" width="1600" height="1000" viewBox="0 0 1600 1000">
<style>
  text {
    font-family: Arial, sans-serif;
    font-size: 12px;
    fill: #333;
  }
  .axis-label { font-size: 14px; }
  .title { font-size: 18px; font-weight: bold; }
  .legend-item { font-size: 11px; }
  .legend-box { fill: white; fill-opacity: 0.85; stroke: #cccccc; stroke-width: 1; rx: 5; }
</style>
<text x="800.0" y="30" text-anchor="middle" class="title">Daily Data Growth Trend</text>
<text x="800.0" y="980" text-anchor="middle" class="axis-label">Date</text>
<g transform="rotate(-90)">
<text x="-500.0" y="20" text-anchor="middle" class="axis-label">Count</text>
</g>
<rect x="0" y="0" width="1600" height="1000" fill="#f8f8f8" />
<line x1="80" y1="920.0" x2="1520" y2="920.0" stroke="#e0e0e0" stroke-width="1" />
<text x="70" y="925.0" text-anchor="end">0</text>
<line x1="80" y1="752.0" x2="1520" y2="752.0" stroke="#e0e0e0" stroke-width="1" />
<text x="70" y="757.0" text-anchor="end">19.9k</text>
<line x1="80" y1="584.0" x2="1520" y2="584.0" stroke="#e0e0e0" stroke-width="1" />
<text x="70" y="589.0" text-anchor="end">39.7k</text>
<line x1="80" y1="416.0" x2="1520" y2="416.0" stroke="#e0e0e0" stroke-width="1" />
<text x="70" y="421.0" text-anchor="end">59.6k</text>
<line x1="80" y1="248.0" x2="1520" y2="248.0" stroke="#e0e0e0" stroke-width="1" />
<text x="70" y="253.0" text-anchor="end">79.4k</text>
<line x1="80" y1="80.0" x2="1520" y2="80.0" stroke="#e0e0e0" stroke-width="1" />
<text x="70" y="85.0" text-anchor="end">99.3k</text>
<line x1="80" y1="80" x2="80" y2="920" stroke="#333333" stroke-width="2" />
<line x1="80" y1="920" x2="1520" y2="920" stroke="#333333" stroke-width="2" />
<circle cx="80.0" cy="920.0" r="4" fill="#1f77b4" />
<circle cx="112.72727272727272" cy="878.6533581458298" r="4" fill="#1f77b4" />
<circle cx="145.45454545454544" cy="791.0285907629843" r="4" fill="#1f77b4" />
<circle cx="178.1818181818182" cy="755.7807477584165" r="4" fill="#1f77b4" />
<circle cx="210.9090909090909" cy="734.566063271866" r="4" fill="#1f77b4" />
<circle cx="243.63636363636363" cy="723.9164270005075" r="4" fill="#1f77b4" />
<circle cx="276.3636363636364" cy="702.701742513957" r="4" fill="#1f77b4" />
<circle cx="309.0909090909091" cy="679.8037557096939" r="4" fill="#1f77b4" />
<circle cx="341.8181818181818" cy="658.6990356961596" r="4" fill="#1f77b4" />
<circle cx="374.54545454545456" cy="641.4938250718999" r="4" fill="#1f77b4" />
<circle cx="407.27272727272725" cy="625.8027406530198" r="4" fill="#1f77b4" />
<circle cx="440.0" cy="615.9397733040095" r="4" fill="#1f77b4" />
<circle cx="472.72727272727275" cy="606.178311622399" r="4" fill="#1f77b4" />
<circle cx="505.45454545454544" cy="591.5022838775164" r="4" fill="#1f77b4" />
<circle cx="538.1818181818182" cy="570.6597868380984" r="4" fill="#1f77b4" />
<circle cx="570.9090909090909" cy="548.1170698697345" r="4" fill="#1f77b4" />
<circle cx="603.6363636363636" cy="533.153442733886" r="4" fill="#1f77b4" />
<circle cx="636.3636363636364" cy="512.6746743359838" r="4" fill="#1f77b4" />
<circle cx="669.0909090909091" cy="504.21586871933687" r="4" fill="#1f77b4" />
<circle cx="701.8181818181818" cy="496.425308746405" r="4" fill="#1f77b4" />
<circle cx="734.5454545454545" cy="479.66841481982743" r="4" fill="#1f77b4" />
<circle cx="767.2727272727273" cy="463.1906614785992" r="4" fill="#1f77b4" />
<circle cx="800.0" cy="448.5992217898833" r="4" fill="#1f77b4" />
<circle cx="832.7272727272727" cy="428.45880561664694" r="4" fill="#1f77b4" />
<circle cx="865.4545454545455" cy="414.5948232109626" r="4" fill="#1f77b4" />
<circle cx="898.1818181818181" cy="406.05142953814925" r="4" fill="#1f77b4" />
<circle cx="930.9090909090909" cy="396.4168499407883" r="4" fill="#1f77b4" />
<circle cx="963.6363636363636" cy="384.0416173236339" r="4" fill="#1f77b4" />
<circle cx="996.3636363636364" cy="373.29893419049233" r="4" fill="#1f77b4" />
<circle cx="1029.090909090909" cy="364.1718829301303" r="4" fill="#1f77b4" />
<circle cx="1061.8181818181818" cy="348.67535104043316" r="4" fill="#1f77b4" />
<circle cx="1094.5454545454545" cy="336.029436643546" r="4" fill="#1f77b4" />
<circle cx="1127.2727272727273" cy="316.7433598375909" r="4" fill="#1f77b4" />
<circle cx="1160.0" cy="311.0928776856708" r="4" fill="#1f77b4" />
<circle cx="1192.7272727272727" cy="304.68110302825244" r="4" fill="#1f77b4" />
<circle cx="1225.4545454545455" cy="296.18000338352226" r="4" fill="#1f77b4" />
<circle cx="1258.1818181818182" cy="289.34528844527154" r="4" fill="#1f77b4" />
<circle cx="1290.909090909091" cy="279.1862628996786" r="4" fill="#1f77b4" />
<circle cx="1323.6363636363635" cy="267.7922517340552" r="4" fill="#1f77b4" />
<circle cx="1356.3636363636363" cy="262.61546269666724" r="4" fill="#1f77b4" />
<circle cx="1389.090909090909" cy="256.9988157672137" r="4" fill="#1f77b4" />
<circle cx="1421.8181818181818" cy="247.70258839451867" r="4" fill="#1f77b4" />
<circle cx="1454.5454545454545" cy="239.90356961597024" r="4" fill="#1f77b4" />
<circle cx="1487.2727272727273" cy="214.11267129081375" r="4" fill="#1f77b4" />
<circle cx="1520.0" cy="204.14819827440363" r="4" fill="#1f77b4" />
<path d="M 80.0 920.0 L 112.72727272727272 878.6533581458298 L 145.45454545454544 791.0285907629843 L 178.1818181818182 755.7807477584165 L 210.9090909090909 734.566063271866 L 243.63636363636363 723.9164270005075 L 276.3636363636364 702.701742513957 L 309.0909090909091 679.8037557096939 L 341.8181818181818 658.6990356961596 L 374.54545454545456 641.4938250718999 L 407.27272727272725 625.8027406530198 L 440.0 615.9397733040095 L 472.72727272727275 606.178311622399 L 505.45454545454544 591.5022838775164 L 538.1818181818182 570.6597868380984 L 570.9090909090909 548.1170698697345 L 603.6363636363636 533.153442733886 L 636.3636363636364 512.6746743359838 L 669.0909090909091 504.21586871933687 L 701.8181818181818 496.425308746405 L 734.5454545454545 479.66841481982743 L 767.2727272727273 463.1906614785992 L 800.0 448.5992217898833 L 832.7272727272727 428.45880561664694 L 865.4545454545455 414.5948232109626 L 898.1818181818181 406.05142953814925 L 930.9090909090909 396.4168499407883 L 963.6363636363636 384.0416173236339 L 996.3636363636364 373.29893419049233 L 1029.090909090909 364.1718829301303 L 1061.8181818181818 348.67535104043316 L 1094.5454545454545 336.029436643546 L 1127.2727272727273 316.7433598375909 L 1160.0 311.0928776856708 L 1192.7272727272727 304.68110302825244 L 1225.4545454545455 296.18000338352226 L 1258.1818181818182 289.34528844527154 L 1290.909090909091 279.1862628996786 L 1323.6363636363635 267.7922517340552 L 1356.3636363636363 262.61546269666724 L 1389.090909090909 256.9988157672137 L 1421.8181818181818 247.70258839451867 L 1454.5454545454545 239.90356961597024 L 1487.2727272727273 214.11267129081375 L 1520.0 204.14819827440363" fill="none" stroke="#1f77b4" stroke-width="2" />
<circle cx="80.0" cy="920.0" r="4" fill="#ff7f0e" />
<circle cx="112.72727272727272" cy="618.2236508205042" r="4" fill="#ff7f0e" />
<circle cx="145.45454545454544" cy="555.264760615801" r="4" fill="#ff7f0e" />
<circle cx="178.1818181818182" cy="535.0735916088648" r="4" fill="#ff7f0e" />
<circle cx="210.9090909090909" cy="525.126036203688" r="4" fill="#ff7f0e" />
<circle cx="243.63636363636363" cy="517.3439350363728" r="4" fill="#ff7f0e" />
<circle cx="276.3636363636364" cy="503.4714938250719" r="4" fill="#ff7f0e" />
<circle cx="309.0909090909091" cy="485.86871933682966" r="4" fill="#ff7f0e" />
<circle cx="341.8181818181818" cy="471.82710201319577" r="4" fill="#ff7f0e" />
<circle cx="374.54545454545456" cy="460.25545592962277" r="4" fill="#ff7f0e" />
<circle cx="407.27272727272725" cy="448.5484689561834" r="4" fill="#ff7f0e" />
<circle cx="440.0" cy="442.43275249534764" r="4" fill="#ff7f0e" />
<circle cx="472.72727272727275" cy="434.86212146844866" r="4" fill="#ff7f0e" />
<circle cx="505.45454545454544" cy="426.25105735070207" r="4" fill="#ff7f0e" />
<circle cx="538.1818181818182" cy="414.730164100829" r="4" fill="#ff7f0e" />
<circle cx="570.9090909090909" cy="399.30976146168166" r="4" fill="#ff7f0e" />
<circle cx="603.6363636363636" cy="389.41295889020466" r="4" fill="#ff7f0e" />
<circle cx="636.3636363636364" cy="377.05464388428356" r="4" fill="#ff7f0e" />
<circle cx="669.0909090909091" cy="369.53476569108443" r="4" fill="#ff7f0e" />
<circle cx="701.8181818181818" cy="363.5374725088817" r="4" fill="#ff7f0e" />
<circle cx="734.5454545454545" cy="349.9103366604636" r="4" fill="#ff7f0e" />
<circle cx="767.2727272727273" cy="338.8208424970394" r="4" fill="#ff7f0e" />
<circle cx="800.0" cy="325.6927761800034" r="4" fill="#ff7f0e" />
<circle cx="832.7272727272727" cy="308.47064794451023" r="4" fill="#ff7f0e" />
<circle cx="865.4545454545455" cy="297.71104720013534" r="4" fill="#ff7f0e" />
<circle cx="898.1818181818181" cy="284.87058027406533" r="4" fill="#ff7f0e" />
<circle cx="930.9090909090909" cy="281.6816105565895" r="4" fill="#ff7f0e" />
<circle cx="963.6363636363636" cy="270.8205041448148" r="4" fill="#ff7f0e" />
<circle cx="996.3636363636364" cy="263.55439012011504" r="4" fill="#ff7f0e" />
<circle cx="1029.090909090909" cy="256.6012519032313" r="4" fill="#ff7f0e" />
<circle cx="1061.8181818181818" cy="243.6761969209948" r="4" fill="#ff7f0e" />
<circle cx="1094.5454545454545" cy="232.07071561495513" r="4" fill="#ff7f0e" />
<circle cx="1127.2727272727273" cy="219.28100152258503" r="4" fill="#ff7f0e" />
<circle cx="1160.0" cy="214.61174082219588" r="4" fill="#ff7f0e" />
<circle cx="1192.7272727272727" cy="209.82405684317382" r="4" fill="#ff7f0e" />
<circle cx="1225.4545454545455" cy="203.3699881576722" r="4" fill="#ff7f0e" />
<circle cx="1258.1818181818182" cy="197.7702588394519" r="4" fill="#ff7f0e" />
<circle cx="1290.909090909091" cy="189.08306547115546" r="4" fill="#ff7f0e" />
<circle cx="1323.6363636363635" cy="179.9221789883269" r="4" fill="#ff7f0e" />
<circle cx="1356.3636363636363" cy="173.74725088817456" r="4" fill="#ff7f0e" />
<circle cx="1389.090909090909" cy="170.0507528336999" r="4" fill="#ff7f0e" />
<circle cx="1421.8181818181818" cy="162.35323972255117" r="4" fill="#ff7f0e" />
<circle cx="1454.5454545454545" cy="157.15107426831332" r="4" fill="#ff7f0e" />
<circle cx="1487.2727272727273" cy="132.12146844865504" r="4" fill="#ff7f0e" />
<circle cx="1520.0" cy="122.42767721197765" r="4" fill="#ff7f0e" />
<path d="M 80.0 920.0 L 112.72727272727272 618.2236508205042 L 145.45454545454544 555.264760615801 L 178.1818181818182 535.0735916088648 L 210.9090909090909 525.126036203688 L 243.63636363636363 517.3439350363728 L 276.3636363636364 503.4714938250719 L 309.0909090909091 485.86871933682966 L 341.8181818181818 471.82710201319577 L 374.54545454545456 460.25545592962277 L 407.27272727272725 448.5484689561834 L 440.0 442.43275249534764 L 472.72727272727275 434.86212146844866 L 505.45454545454544 426.25105735070207 L 538.1818181818182 414.730164100829 L 570.9090909090909 399.30976146168166 L 603.6363636363636 389.41295889020466 L 636.3636363636364 377.05464388428356 L 669.0909090909091 369.53476569108443 L 701.8181818181818 363.5374725088817 L 734.5454545454545 349.9103366604636 L 767.2727272727273 338.8208424970394 L 800.0 325.6927761800034 L 832.7272727272727 308.47064794451023 L 865.4545454545455 297.71104720013534 L 898.1818181818181 284.87058027406533 L 930.9090909090909 281.6816105565895 L 963.6363636363636 270.8205041448148 L 996.3636363636364 263.55439012011504 L 1029.090909090909 256.6012519032313 L 1061.8181818181818 243.6761969209948 L 1094.5454545454545 232.07071561495513 L 1127.2727272727273 219.28100152258503 L 1160.0 214.61174082219588 L 1192.7272727272727 209.82405684317382 L 1225.4545454545455 203.3699881576722 L 1258.1818181818182 197.7702588394519 L 1290.909090909091 189.08306547115546 L 1323.6363636363635 179.9221789883269 L 1356.3636363636363 173.74725088817456 L 1389.090909090909 170.0507528336999 L 1421.8181818181818 162.35323972255117 L 1454.5454545454545 157.15107426831332 L 1487.2727272727273 132.12146844865504 L 1520.0 122.42767721197765" fill="none" stroke="#ff7f0e" stroke-width="2" />
<circle cx="80.0" cy="920.0" r="4" fill="#2ca02c" />
<circle cx="112.72727272727272" cy="612.2940280832347" r="4" fill="#2ca02c" />
<circle cx="145.45454545454544" cy="549.5804432414143" r="4" fill="#2ca02c" />
<circle cx="178.1818181818182" cy="529.5838267636609" r="4" fill="#2ca02c" />
<circle cx="210.9090909090909" cy="519.7885298595838" r="4" fill="#2ca02c" />
<circle cx="243.63636363636363" cy="512.023346303502" r="4" fill="#2ca02c" />
<circle cx="276.3636363636364" cy="498.294704787684" r="4" fill="#2ca02c" />
<circle cx="309.0909090909091" cy="480.9203180510912" r="4" fill="#2ca02c" />
<circle cx="341.8181818181818" cy="467.0394180341736" r="4" fill="#2ca02c" />
<circle cx="374.54545454545456" cy="455.56081881238373" r="4" fill="#2ca02c" />
<circle cx="407.27272727272725" cy="443.9130434782609" r="4" fill="#2ca02c" />
<circle cx="440.0" cy="437.89037387920825" r="4" fill="#2ca02c" />
<circle cx="472.72727272727275" cy="430.3197428523093" r="4" fill="#2ca02c" />
<circle cx="505.45454545454544" cy="421.73405515141263" r="4" fill="#2ca02c" />
<circle cx="538.1818181818182" cy="410.46692607003894" r="4" fill="#2ca02c" />
<circle cx="570.9090909090909" cy="395.3764168499408" r="4" fill="#2ca02c" />
<circle cx="603.6363636363636" cy="385.5219083065472" r="4" fill="#2ca02c" />
<circle cx="636.3636363636364" cy="373.17205210624263" r="4" fill="#2ca02c" />
<circle cx="669.0909090909091" cy="365.64371510742683" r="4" fill="#2ca02c" />
<circle cx="701.8181818181818" cy="359.66333953645744" r="4" fill="#2ca02c" />
<circle cx="734.5454545454545" cy="346.12925054982236" r="4" fill="#2ca02c" />
<circle cx="767.2727272727273" cy="335.06513280324816" r="4" fill="#2ca02c" />
<circle cx="800.0" cy="321.9539840974454" r="4" fill="#2ca02c" />
<circle cx="832.7272727272727" cy="304.75723227880223" r="4" fill="#2ca02c" />
<circle cx="865.4545454545455" cy="294.0314667568939" r="4" fill="#2ca02c" />
<circle cx="898.1818181818181" cy="281.19945863644057" r="4" fill="#2ca02c" />
<circle cx="930.9090909090909" cy="278.01894772458127" r="4" fill="#2ca02c" />
<circle cx="963.6363636363636" cy="267.16630011842335" r="4" fill="#2ca02c" />
<circle cx="996.3636363636364" cy="259.9255625105735" r="4" fill="#2ca02c" />
<circle cx="1029.090909090909" cy="253.014718321773" r="4" fill="#2ca02c" />
<circle cx="1061.8181818181818" cy="240.38572153611915" r="4" fill="#2ca02c" />
<circle cx="1094.5454545454545" cy="228.81407545254615" r="4" fill="#2ca02c" />
<circle cx="1127.2727272727273" cy="216.37963119607514" r="4" fill="#2ca02c" />
<circle cx="1160.0" cy="211.710370495686" r="4" fill="#2ca02c" />
<circle cx="1192.7272727272727" cy="206.9818981559804" r="4" fill="#2ca02c" />
<circle cx="1225.4545454545455" cy="200.53628827609543" r="4" fill="#2ca02c" />
<circle cx="1258.1818181818182" cy="194.96193537472516" r="4" fill="#2ca02c" />
<circle cx="1290.909090909091" cy="186.2747420064287" r="4" fill="#2ca02c" />
<circle cx="1323.6363636363635" cy="177.15614955168337" r="4" fill="#2ca02c" />
<circle cx="1356.3636363636363" cy="170.9896802571477" r="4" fill="#2ca02c" />
<circle cx="1389.090909090909" cy="167.29318220267305" r="4" fill="#2ca02c" />
<circle cx="1421.8181818181818" cy="159.60412789714098" r="4" fill="#2ca02c" />
<circle cx="1454.5454545454545" cy="154.4865504990696" r="4" fill="#2ca02c" />
<circle cx="1487.2727272727273" cy="129.67687362544416" r="4" fill="#2ca02c" />
<circle cx="1520.0" cy="120.0" r="4" fill="#2ca02c" />
<path d="M 80.0 920.0 L 112.72727272727272 612.2940280832347 L 145.45454545454544 549.5804432414143 L 178.1818181818182 529.5838267636609 L 210.9090909090909 519.7885298595838 L 243.63636363636363 512.023346303502 L 276.3636363636364 498.294704787684 L 309.0909090909091 480.9203180510912 L 341.8181818181818 467.0394180341736 L 374.54545454545456 455.56081881238373 L 407.27272727272725 443.9130434782609 L 440.0 437.89037387920825 L 472.72727272727275 430.3197428523093 L 505.45454545454544 421.73405515141263 L 538.1818181818182 410.46692607003894 L 570.9090909090909 395.3764168499408 L 603.6363636363636 385.5219083065472 L 636.3636363636364 373.17205210624263 L 669.0909090909091 365.64371510742683 L 701.8181818181818 359.66333953645744 L 734.5454545454545 346.12925054982236 L 767.2727272727273 335.06513280324816 L 800.0 321.9539840974454 L 832.7272727272727 304.75723227880223 L 865.4545454545455 294.0314667568939 L 898.1818181818181 281.19945863644057 L 930.9090909090909 278.01894772458127 L 963.6363636363636 267.16630011842335 L 996.3636363636364 259.9255625105735 L 1029.090909090909 253.014718321773 L 1061.8181818181818 240.38572153611915 L 1094.5454545454545 228.81407545254615 L 1127.2727272727273 216.37963119607514 L 1160.0 211.710370495686 L 1192.7272727272727 206.9818981559804 L 1225.4545454545455 200.53628827609543 L 1258.1818181818182 194.96193537472516 L 1290.909090909091 186.2747420064287 L 1323.6363636363635 177.15614955168337 L 1356.3636363636363 170.9896802571477 L 1389.090909090909 167.29318220267305 L 1421.8181818181818 159.60412789714098 L 1454.5454545454545 154.4865504990696 L 1487.2727272727273 129.67687362544416 L 1520.0 120.0" fill="none" stroke="#2ca02c" stroke-width="2" />
<circle cx="80.0" cy="920.0" r="4" fill="#d62728" />
<circle cx="112.72727272727272" cy="860.297749957706" r="4" fill="#d62728" />
<circle cx="145.45454545454544" cy="773.8910505836576" r="4" fill="#d62728" />
<circle cx="178.1818181818182" cy="743.9891727288107" r="4" fill="#d62728" />
<circle cx="210.9090909090909" cy="722.8167822703434" r="4" fill="#d62728" />
<circle cx="243.63636363636363" cy="712.260192860768" r="4" fill="#d62728" />
<circle cx="276.3636363636364" cy="691.4769074606666" r="4" fill="#d62728" />
<circle cx="309.0909090909091" cy="669.6447301641008" r="4" fill="#d62728" />
<circle cx="341.8181818181818" cy="649.5466080189477" r="4" fill="#d62728" />
<circle cx="374.54545454545456" cy="632.7051260362036" r="4" fill="#d62728" />
<circle cx="407.27272727272725" cy="617.0647944510235" r="4" fill="#d62728" />
<circle cx="440.0" cy="607.2187447132465" r="4" fill="#d62728" />
<circle cx="472.72727272727275" cy="597.4657418372526" r="4" fill="#d62728" />
<circle cx="505.45454545454544" cy="583.5171713754019" r="4" fill="#d62728" />
<circle cx="538.1818181818182" cy="562.9199796988665" r="4" fill="#d62728" />
<circle cx="570.9090909090909" cy="540.7579089832516" r="4" fill="#d62728" />
<circle cx="603.6363636363636" cy="526.5048215192015" r="4" fill="#d62728" />
<circle cx="636.3636363636364" cy="506.2798172897987" r="4" fill="#d62728" />
<circle cx="669.0909090909091" cy="497.82101167315176" r="4" fill="#d62728" />
<circle cx="701.8181818181818" cy="490.1150397563864" r="4" fill="#d62728" />
<circle cx="734.5454545454545" cy="473.56115716460835" r="4" fill="#d62728" />
<circle cx="767.2727272727273" cy="458.08154288614446" r="4" fill="#d62728" />
<circle cx="800.0" cy="443.54931483674505" r="4" fill="#d62728" />
<circle cx="832.7272727272727" cy="423.42581627474203" r="4" fill="#d62728" />
<circle cx="865.4545454545455" cy="410.01860937235665" r="4" fill="#d62728" />
<circle cx="898.1818181818181" cy="401.47521569954324" r="4" fill="#d62728" />
<circle cx="930.9090909090909" cy="391.83217729656576" r="4" fill="#d62728" />
<circle cx="963.6363636363636" cy="379.4569446794113" r="4" fill="#d62728" />
<circle cx="996.3636363636364" cy="369.4332600236846" r="4" fill="#d62728" />
<circle cx="1029.090909090909" cy="360.32312637455595" r="4" fill="#d62728" />
<circle cx="1061.8181818181818" cy="344.86042970732535" r="4" fill="#d62728" />
<circle cx="1094.5454545454545" cy="332.22297411605484" r="4" fill="#d62728" />
<circle cx="1127.2727272727273" cy="313.0384029774996" r="4" fill="#d62728" />
<circle cx="1160.0" cy="307.4132972424294" r="4" fill="#d62728" />
<circle cx="1192.7272727272727" cy="301.001522585011" r="4" fill="#d62728" />
<circle cx="1225.4545454545455" cy="292.5596345795974" r="4" fill="#d62728" />
<circle cx="1258.1818181818182" cy="285.71646083573" r="4" fill="#d62728" />
<circle cx="1290.909090909091" cy="275.60818812383695" r="4" fill="#d62728" />
<circle cx="1323.6363636363635" cy="264.84858737946206" r="4" fill="#d62728" />
<circle cx="1356.3636363636363" cy="259.697174758924" r="4" fill="#d62728" />
<circle cx="1389.090909090909" cy="254.0805278294705" r="4" fill="#d62728" />
<circle cx="1421.8181818181818" cy="244.80967687362545" r="4" fill="#d62728" />
<circle cx="1454.5454545454545" cy="237.08678734562682" r="4" fill="#d62728" />
<circle cx="1487.2727272727273" cy="211.37201827102012" r="4" fill="#d62728" />
<circle cx="1520.0" cy="201.43292167146" r="4" fill="#d62728" />
<path d="M 80.0 920.0 L 112.72727272727272 860.297749957706 L 145.45454545454544 773.8910505836576 L 178.1818181818182 743.9891727288107 L 210.9090909090909 722.8167822703434 L 243.63636363636363 712.260192860768 L 276.3636363636364 691.4769074606666 L 309.0909090909091 669.6447301641008 L 341.8181818181818 649.5466080189477 L 374.54545454545456 632.7051260362036 L 407.27272727272725 617.0647944510235 L 440.0 607.2187447132465 L 472.72727272727275 597.4657418372526 L 505.45454545454544 583.5171713754019 L 538.1818181818182 562.9199796988665 L 570.9090909090909 540.7579089832516 L 603.6363636363636 526.5048215192015 L 636.3636363636364 506.2798172897987 L 669.0909090909091 497.82101167315176 L 701.8181818181818 490.1150397563864 L 734.5454545454545 473.56115716460835 L 767.2727272727273 458.08154288614446 L 800.0 443.54931483674505 L 832.7272727272727 423.42581627474203 L 865.4545454545455 410.01860937235665 L 898.1818181818181 401.47521569954324 L 930.9090909090909 391.83217729656576 L 963.6363636363636 379.4569446794113 L 996.3636363636364 369.4332600236846 L 1029.090909090909 360.32312637455595 L 1061.8181818181818 344.86042970732535 L 1094.5454545454545 332.22297411605484 L 1127.2727272727273 313.0384029774996 L 1160.0 307.4132972424294 L 1192.7272727272727 301.001522585011 L 1225.4545454545455 292.5596345795974 L 1258.1818181818182 285.71646083573 L 1290.909090909091 275.60818812383695 L 1323.6363636363635 264.84858737946206 L 1356.3636363636363 259.697174758924 L 1389.090909090909 254.0805278294705 L 1421.8181818181818 244.80967687362545 L 1454.5454545454545 237.08678734562682 L 1487.2727272727273 211.37201827102012 L 1520.0 201.43292167146" fill="none" stroke="#d62728" stroke-width="2" />
<circle cx="80.0" cy="920.0" r="4" fill="#9467bd" />
<circle cx="112.72727272727272" cy="866.599560142108" r="4" fill="#9467bd" />
<circle cx="145.45454545454544" cy="779.8629673490103" r="4" fill="#9467bd" />
<circle cx="178.1818181818182" cy="744.6997124006091" r="4" fill="#9467bd" />
<circle cx="210.9090909090909" cy="723.4596514972086" r="4" fill="#9467bd" />
<circle cx="243.63636363636363" cy="713.985789206564" r="4" fill="#9467bd" />
<circle cx="276.3636363636364" cy="693.024868888513" r="4" fill="#9467bd" />
<circle cx="309.0909090909091" cy="670.1860937235663" r="4" fill="#9467bd" />
<circle cx="341.8181818181818" cy="649.5212316020977" r="4" fill="#9467bd" />
<circle cx="374.54545454545456" cy="632.4936558957875" r="4" fill="#9467bd" />
<circle cx="407.27272727272725" cy="617.0309592285569" r="4" fill="#9467bd" />
<circle cx="440.0" cy="607.1764506851632" r="4" fill="#9467bd" />
<circle cx="472.72727272727275" cy="597.3557773642362" r="4" fill="#9467bd" />
<circle cx="505.45454545454544" cy="582.7643376755202" r="4" fill="#9467bd" />
<circle cx="538.1818181818182" cy="562.3194045000846" r="4" fill="#9467bd" />
<circle cx="570.9090909090909" cy="539.7259346980206" r="4" fill="#9467bd" />
<circle cx="603.6363636363636" cy="525.0837421756048" r="4" fill="#9467bd" />
<circle cx="636.3636363636364" cy="507.5063441042125" r="4" fill="#9467bd" />
<circle cx="669.0909090909091" cy="499.0390796819489" r="4" fill="#9467bd" />
<circle cx="701.8181818181818" cy="491.2485197090171" r="4" fill="#9467bd" />
<circle cx="734.5454545454545" cy="474.4493317543563" r="4" fill="#9467bd" />
<circle cx="767.2727272727273" cy="458.4875655557435" r="4" fill="#9467bd" />
<circle cx="800.0" cy="443.9722551175774" r="4" fill="#9467bd" />
<circle cx="832.7272727272727" cy="423.77262730502457" r="4" fill="#9467bd" />
<circle cx="865.4545454545455" cy="410.1708678734563" r="4" fill="#9467bd" />
<circle cx="898.1818181818181" cy="401.65285061749285" r="4" fill="#9467bd" />
<circle cx="930.9090909090909" cy="392.00981221451536" r="4" fill="#9467bd" />
<circle cx="963.6363636363636" cy="379.6176619861276" r="4" fill="#9467bd" />
<circle cx="996.3636363636364" cy="369.2640839113517" r="4" fill="#9467bd" />
<circle cx="1029.090909090909" cy="360.153950262223" r="4" fill="#9467bd" />
<circle cx="1061.8181818181818" cy="344.9027237354086" r="4" fill="#9467bd" />
<circle cx="1094.5454545454545" cy="332.55286753510404" r="4" fill="#9467bd" />
<circle cx="1127.2727272727273" cy="313.2583319235324" r="4" fill="#9467bd" />
<circle cx="1160.0" cy="307.5824733547623" r="4" fill="#9467bd" />
<circle cx="1192.7272727272727" cy="301.43292167146" r="4" fill="#9467bd" />
<circle cx="1225.4545454545455" cy="292.9656572491964" r="4" fill="#9467bd" />
<circle cx="1258.1818181818182" cy="286.0971070884791" r="4" fill="#9467bd" />
<circle cx="1290.909090909091" cy="275.91270512603626" r="4" fill="#9467bd" />
<circle cx="1323.6363636363635" cy="264.51869396041286" r="4" fill="#9467bd" />
<circle cx="1356.3636363636363" cy="259.3419049230249" r="4" fill="#9467bd" />
<circle cx="1389.090909090909" cy="253.7252579935713" r="4" fill="#9467bd" />
<circle cx="1421.8181818181818" cy="244.44594823210969" r="4" fill="#9467bd" />
<circle cx="1454.5454545454545" cy="236.63001184232792" r="4" fill="#9467bd" />
<circle cx="1487.2727272727273" cy="210.90678396210456" r="4" fill="#9467bd" />
<circle cx="1520.0" cy="200.91693452884454" r="4" fill="#9467bd" />
<path d="M 80.0 920.0 L 112.72727272727272 866.599560142108 L 145.45454545454544 779.8629673490103 L 178.1818181818182 744.6997124006091 L 210.9090909090909 723.4596514972086 L 243.63636363636363 713.985789206564 L 276.3636363636364 693.024868888513 L 309.0909090909091 670.1860937235663 L 341.8181818181818 649.5212316020977 L 374.54545454545456 632.4936558957875 L 407.27272727272725 617.0309592285569 L 440.0 607.1764506851632 L 472.72727272727275 597.3557773642362 L 505.45454545454544 582.7643376755202 L 538.1818181818182 562.3194045000846 L 570.9090909090909 539.7259346980206 L 603.6363636363636 525.0837421756048 L 636.3636363636364 507.5063441042125 L 669.0909090909091 499.0390796819489 L 701.8181818181818 491.2485197090171 L 734.5454545454545 474.4493317543563 L 767.2727272727273 458.4875655557435 L 800.0 443.9722551175774 L 832.7272727272727 423.77262730502457 L 865.4545454545455 410.1708678734563 L 898.1818181818181 401.65285061749285 L 930.9090909090909 392.00981221451536 L 963.6363636363636 379.6176619861276 L 996.3636363636364 369.2640839113517 L 1029.090909090909 360.153950262223 L 1061.8181818181818 344.9027237354086 L 1094.5454545454545 332.55286753510404 L 1127.2727272727273 313.2583319235324 L 1160.0 307.5824733547623 L 1192.7272727272727 301.43292167146 L 1225.4545454545455 292.9656572491964 L 1258.1818181818182 286.0971070884791 L 1290.909090909091 275.91270512603626 L 1323.6363636363635 264.51869396041286 L 1356.3636363636363 259.3419049230249 L 1389.090909090909 253.7252579935713 L 1421.8181818181818 244.44594823210969 L 1454.5454545454545 236.63001184232792 L 1487.2727272727273 210.90678396210456 L 1520.0 200.91693452884454" fill="none" stroke="#9467bd" stroke-width="2" />
<circle cx="80.0" cy="920.0" r="4" fill="#66ffbd" />
<circle cx="112.72727272727272" cy="653.6406699374048" r="4" fill="#66ffbd" />
<circle cx="145.45454545454544" cy="678.5518524784301" r="4" fill="#66ffbd" />
<circle cx="178.1818181818182" cy="693.8030790052444" r="4" fill="#66ffbd" />
<circle cx="210.9090909090909" cy="705.2224665877178" r="4" fill="#66ffbd" />
<circle cx="243.63636363636363" cy="708.1069193029944" r="4" fill="#66ffbd" />
<circle cx="276.3636363636364" cy="715.5929622737269" r="4" fill="#66ffbd" />
<circle cx="309.0909090909091" cy="721.1165623413974" r="4" fill="#66ffbd" />
<circle cx="341.8181818181818" cy="728.3403823380139" r="4" fill="#66ffbd" />
<circle cx="374.54545454545456" cy="734.0669937404839" r="4" fill="#66ffbd" />
<circle cx="407.27272727272725" cy="738.1103028252411" r="4" fill="#66ffbd" />
<circle cx="440.0" cy="741.9506005751988" r="4" fill="#66ffbd" />
<circle cx="472.72727272727275" cy="744.1414312299104" r="4" fill="#66ffbd" />
<circle cx="505.45454545454544" cy="750.2317712738961" r="4" fill="#66ffbd" />
<circle cx="538.1818181818182" cy="759.8071392319405" r="4" fill="#66ffbd" />
<circle cx="570.9090909090909" cy="767.2593469802064" r="4" fill="#66ffbd" />
<circle cx="603.6363636363636" cy="772.3684655726611" r="4" fill="#66ffbd" />
<circle cx="636.3636363636364" cy="780.4973777702588" r="4" fill="#66ffbd" />
<circle cx="669.0909090909091" cy="781.4278463880901" r="4" fill="#66ffbd" />
<circle cx="701.8181818181818" cy="783.2380307900524" r="4" fill="#66ffbd" />
<circle cx="734.5454545454545" cy="786.4608357299949" r="4" fill="#66ffbd" />
<circle cx="767.2727272727273" cy="791.874471324649" r="4" fill="#66ffbd" />
<circle cx="800.0" cy="793.3547623075622" r="4" fill="#66ffbd" />
<circle cx="832.7272727272727" cy="796.2984266621553" r="4" fill="#66ffbd" />
<circle cx="865.4545454545455" cy="799.4366435459314" r="4" fill="#66ffbd" />
<circle cx="898.1818181818181" cy="795.1480290982913" r="4" fill="#66ffbd" />
<circle cx="930.9090909090909" cy="801.6020977837929" r="4" fill="#66ffbd" />
<circle cx="963.6363636363636" cy="803.1246827947894" r="4" fill="#66ffbd" />
<circle cx="996.3636363636364" cy="806.6266283200812" r="4" fill="#66ffbd" />
<circle cx="1029.090909090909" cy="808.8428353916427" r="4" fill="#66ffbd" />
<circle cx="1061.8181818181818" cy="811.710370495686" r="4" fill="#66ffbd" />
<circle cx="1094.5454545454545" cy="812.7846388090002" r="4" fill="#66ffbd" />
<circle cx="1127.2727272727273" cy="819.6362713584842" r="4" fill="#66ffbd" />
<circle cx="1160.0" cy="820.6174928100153" r="4" fill="#66ffbd" />
<circle cx="1192.7272727272727" cy="822.300795127728" r="4" fill="#66ffbd" />
<circle cx="1225.4545454545455" cy="824.3562848925732" r="4" fill="#66ffbd" />
<circle cx="1258.1818181818182" cy="825.6166469294535" r="4" fill="#66ffbd" />
<circle cx="1290.909090909091" cy="827.0884791067501" r="4" fill="#66ffbd" />
<circle cx="1323.6363636363635" cy="829.3638978176282" r="4" fill="#66ffbd" />
<circle cx="1356.3636363636363" cy="828.3742175604805" r="4" fill="#66ffbd" />
<circle cx="1389.090909090909" cy="830.2943664354593" r="4" fill="#66ffbd" />
<circle cx="1421.8181818181818" cy="831.9015395026222" r="4" fill="#66ffbd" />
<circle cx="1454.5454545454545" cy="834.5829808830993" r="4" fill="#66ffbd" />
<circle cx="1487.2727272727273" cy="835.5642023346304" r="4" fill="#66ffbd" />
<circle cx="1520.0" cy="835.8518017255964" r="4" fill="#66ffbd" />
<path d="M 80.0 920.0 L 112.72727272727272 653.6406699374048 L 145.45454545454544 678.5518524784301 L 178.1818181818182 693.8030790052444 L 210.9090909090909 705.2224665877178 L 243.63636363636363 708.1069193029944 L 276.3636363636364 715.5929622737269 L 309.0909090909091 721.1165623413974 L 341.8181818181818 728.3403823380139 L 374.54545454545456 734.0669937404839 L 407.27272727272725 738.1103028252411 L 440.0 741.9506005751988 L 472.72727272727275 744.1414312299104 L 505.45454545454544 750.2317712738961 L 538.1818181818182 759.8071392319405 L 570.9090909090909 767.2593469802064 L 603.6363636363636 772.3684655726611 L 636.3636363636364 780.4973777702588 L 669.0909090909091 781.4278463880901 L 701.8181818181818 783.2380307900524 L 734.5454545454545 786.4608357299949 L 767.2727272727273 791.874471324649 L 800.0 793.3547623075622 L 832.7272727272727 796.2984266621553 L 865.4545454545455 799.4366435459314 L 898.1818181818181 795.1480290982913 L 930.9090909090909 801.6020977837929 L 963.6363636363636 803.1246827947894 L 996.3636363636364 806.6266283200812 L 1029.090909090909 808.8428353916427 L 1061.8181818181818 811.710370495686 L 1094.5454545454545 812.7846388090002 L 1127.2727272727273 819.6362713584842 L 1160.0 820.6174928100153 L 1192.7272727272727 822.300795127728 L 1225.4545454545455 824.3562848925732 L 1258.1818181818182 825.6166469294535 L 1290.909090909091 827.0884791067501 L 1323.6363636363635 829.3638978176282 L 1356.3636363636363 828.3742175604805 L 1389.090909090909 830.2943664354593 L 1421.8181818181818 831.9015395026222 L 1454.5454545454545 834.5829808830993 L 1487.2727272727273 835.5642023346304 L 1520.0 835.8518017255964" fill="none" stroke="#66ffbd" stroke-width="2" />
<text x="80.0" y="940" text-anchor="middle">08-06</text>
<text x="112.72727272727272" y="940" text-anchor="middle">08-07</text>
<text x="145.45454545454544" y="940" text-anchor="middle">08-08</text>
<text x="178.1818181818182" y="940" text-anchor="middle">08-09</text>
<text x="210.9090909090909" y="940" text-anchor="middle">08-10</text>
<text x="243.63636363636363" y="940" text-anchor="middle">08-11</text>
<text x="276.3636363636364" y="940" text-anchor="middle">08-12</text>
<text x="309.0909090909091" y="940" text-anchor="middle">08-13</text>
<text x="341.8181818181818" y="940" text-anchor="middle">08-14</text>
<text x="374.54545454545456" y="940" text-anchor="middle">08-15</text>
<text x="407.27272727272725" y="940" text-anchor="middle">08-16</text>
<text x="440.0" y="940" text-anchor="middle">08-17</text>
<text x="472.72727272727275" y="940" text-anchor="middle">08-18</text>
<text x="505.45454545454544" y="940" text-anchor="middle">08-19</text>
<text x="538.1818181818182" y="940" text-anchor="middle">08-20</text>
<text x="570.9090909090909" y="940" text-anchor="middle">08-21</text>
<text x="603.6363636363636" y="940" text-anchor="middle">08-22</text>
<text x="636.3636363636364" y="940" text-anchor="middle">08-23</text>
<text x="669.0909090909091" y="940" text-anchor="middle">08-24</text>
<text x="701.8181818181818" y="940" text-anchor="middle">08-25</text>
<text x="734.5454545454545" y="940" text-anchor="middle">08-26</text>
<text x="767.2727272727273" y="940" text-anchor="middle">08-27</text>
<text x="800.0" y="940" text-anchor="middle">08-28</text>
<text x="832.7272727272727" y="940" text-anchor="middle">08-29</text>
<text x="865.4545454545455" y="940" text-anchor="middle">08-30</text>
<text x="898.1818181818181" y="940" text-anchor="middle">08-31</text>
<text x="930.9090909090909" y="940" text-anchor="middle">09-01</text>
<text x="963.6363636363636" y="940" text-anchor="middle">09-02</text>
<text x="996.3636363636364" y="940" text-anchor="middle">09-03</text>
<text x="1029.090909090909" y="940" text-anchor="middle">09-04</text>
<text x="1061.8181818181818" y="940" text-anchor="middle">09-05</text>
<text x="1094.5454545454545" y="940" text-anchor="middle">09-06</text>
<text x="1127.2727272727273" y="940" text-anchor="middle">09-07</text>
<text x="1160.0" y="940" text-anchor="middle">09-08</text>
<text x="1192.7272727272727" y="940" text-anchor="middle">09-09</text>
<text x="1225.4545454545455" y="940" text-anchor="middle">09-10</text>
<text x="1258.1818181818182" y="940" text-anchor="middle">09-11</text>
<text x="1290.909090909091" y="940" text-anchor="middle">09-12</text>
<text x="1323.6363636363635" y="940" text-anchor="middle">09-13</text>
<text x="1356.3636363636363" y="940" text-anchor="middle">09-14</text>
<text x="1389.090909090909" y="940" text-anchor="middle">09-15</text>
<text x="1421.8181818181818" y="940" text-anchor="middle">09-16</text>
<text x="1454.5454545454545" y="940" text-anchor="middle">09-17</text>
<text x="1487.2727272727273" y="940" text-anchor="middle">09-18</text>
<text x="1520.0" y="940" text-anchor="middle">09-19</text>
<rect x="90" y="100" width="130" height="185" class="legend-box" />
<text x="100" y="120" class="legend-item">图例:</text>
<rect x="100" y="137" width="15" height="15" fill="#1f77b4" rx="3" />
<text x="120" y="145" class="legend-item">构件聚合数据</text>
<rect x="100" y="162" width="15" height="15" fill="#ff7f0e" rx="3" />
<text x="120" y="170" class="legend-item">构件基本信息</text>
<rect x="100" y="187" width="15" height="15" fill="#2ca02c" rx="3" />
<text x="120" y="195" class="legend-item">构件徽标</text>
<rect x="100" y="212" width="15" height="15" fill="#d62728" rx="3" />
<text x="120" y="220" class="legend-item">构件扩展元数据</text>
<rect x="100" y="237" width="15" height="15" fill="#9467bd" rx="3" />
<text x="120" y="245" class="legend-item">构件版本信息</text>
<rect x="100" y="262" width="15" height="15" fill="#66ffbd" rx="3" />
<text x="120" y="270" class="legend-item">数据量偏差</text>
<text x="1520" y="990" text-anchor="end" font-size="10" fill="#666">生成时间: 2025-09-19 12:37:33</text>
</svg>