<svg xmlns="http://www.w3.org/2000/svg" width="1600" height="1000" viewBox="0 0 1600 1000">
<style>
  text {
    font-family: Arial, sans-serif;
    font-size: 12px;
    fill: #333;
  }
  .axis-label { font-size: 14px; }
  .title { font-size: 18px; font-weight: bold; }
  .legend-item { font-size: 11px; }
  .legend-box { fill: white; fill-opacity: 0.85; stroke: #cccccc; stroke-width: 1; rx: 5; }
</style>
<text x="800.0" y="30" text-anchor="middle" class="title">Daily Data Growth Trend</text>
<text x="800.0" y="980" text-anchor="middle" class="axis-label">Date</text>
<g transform="rotate(-90)">
<text x="-500.0" y="20" text-anchor="middle" class="axis-label">Count</text>
</g>
<rect x="0" y="0" width="1600" height="1000" fill="#f8f8f8" />
<line x1="80" y1="920.0" x2="1520" y2="920.0" stroke="#e0e0e0" stroke-width="1" />
<text x="70" y="925.0" text-anchor="end">0</text>
<line x1="80" y1="752.0" x2="1520" y2="752.0" stroke="#e0e0e0" stroke-width="1" />
<text x="70" y="757.0" text-anchor="end">20.1k</text>
<line x1="80" y1="584.0" x2="1520" y2="584.0" stroke="#e0e0e0" stroke-width="1" />
<text x="70" y="589.0" text-anchor="end">40.1k</text>
<line x1="80" y1="416.0" x2="1520" y2="416.0" stroke="#e0e0e0" stroke-width="1" />
<text x="70" y="421.0" text-anchor="end">60.2k</text>
<line x1="80" y1="248.0" x2="1520" y2="248.0" stroke="#e0e0e0" stroke-width="1" />
<text x="70" y="253.0" text-anchor="end">80.3k</text>
<line x1="80" y1="80.0" x2="1520" y2="80.0" stroke="#e0e0e0" stroke-width="1" />
<text x="70" y="85.0" text-anchor="end">100.4k</text>
<line x1="80" y1="80" x2="80" y2="920" stroke="#333333" stroke-width="2" />
<line x1="80" y1="920" x2="1520" y2="920" stroke="#333333" stroke-width="2" />
<circle cx="80.0" cy="920.0" r="4" fill="#1f77b4" />
<circle cx="112.0" cy="879.090243341075" r="4" fill="#1f77b4" />
<circle cx="144.0" cy="792.3913543824409" r="4" fill="#1f77b4" />
<circle cx="176.0" cy="757.5159542192371" r="4" fill="#1f77b4" />
<circle cx="208.0" cy="736.5254325947315" r="4" fill="#1f77b4" />
<circle cx="240.0" cy="725.9883246500533" r="4" fill="#1f77b4" />
<circle cx="272.0" cy="704.9978030255477" r="4" fill="#1f77b4" />
<circle cx="304.0" cy="682.341765530517" r="4" fill="#1f77b4" />
<circle cx="336.0" cy="661.460046450317" r="4" fill="#1f77b4" />
<circle cx="368.0" cy="644.4366329797251" r="4" fill="#1f77b4" />
<circle cx="400.0" cy="628.9113468499571" r="4" fill="#1f77b4" />
<circle cx="432.0" cy="619.1525955683887" r="4" fill="#1f77b4" />
<circle cx="464.0" cy="609.4942774046408" r="4" fill="#1f77b4" />
<circle cx="496.0" cy="594.9733224530789" r="4" fill="#1f77b4" />
<circle cx="528.0" cy="574.3510555939154" r="4" fill="#1f77b4" />
<circle cx="560.0" cy="552.0465340112569" r="4" fill="#1f77b4" />
<circle cx="592.0" cy="537.2410185592032" r="4" fill="#1f77b4" />
<circle cx="624.0" cy="516.978637038897" r="4" fill="#1f77b4" />
<circle cx="656.0" cy="508.6092105538468" r="4" fill="#1f77b4" />
<circle cx="688.0" cy="500.9009687611157" r="4" fill="#1f77b4" />
<circle cx="720.0" cy="484.32113489423136" r="4" fill="#1f77b4" />
<circle cx="752.0" cy="468.01749210135375" r="4" fill="#1f77b4" />
<circle cx="784.0" cy="453.5802314146423" r="4" fill="#1f77b4" />
<circle cx="816.0" cy="433.65262695373804" r="4" fill="#1f77b4" />
<circle cx="848.0" cy="419.93513694474086" r="4" fill="#1f77b4" />
<circle cx="880.0" cy="411.48201619484024" r="4" fill="#1f77b4" />
<circle cx="912.0" cy="401.9492394283682" r="4" fill="#1f77b4" />
<circle cx="944.0" cy="389.70476848073986" r="4" fill="#1f77b4" />
<circle cx="976.0" cy="379.0755968447262" r="4" fill="#1f77b4" />
<circle cx="1008.0" cy="370.0449856673572" r="4" fill="#1f77b4" />
<circle cx="1040.0" cy="354.7121963467454" r="4" fill="#1f77b4" />
<circle cx="1072.0" cy="342.19990375159546" r="4" fill="#1f77b4" />
<circle cx="1104.0" cy="323.1176113656812" r="4" fill="#1f77b4" />
<circle cx="1136.0" cy="317.5268344736677" r="4" fill="#1f77b4" />
<circle cx="1168.0" cy="311.18280919799975" r="4" fill="#1f77b4" />
<circle cx="1200.0" cy="302.7715355805244" r="4" fill="#1f77b4" />
<circle cx="1232.0" cy="296.0090389806039" r="4" fill="#1f77b4" />
<circle cx="1264.0" cy="285.9573577720587" r="4" fill="#1f77b4" />
<circle cx="1296.0" cy="274.6837402966962" r="4" fill="#1f77b4" />
<circle cx="1328.0" cy="269.5616512878455" r="4" fill="#1f77b4" />
<circle cx="1360.0" cy="264.00435210177227" r="4" fill="#1f77b4" />
<circle cx="1392.0" cy="254.80635239470212" r="4" fill="#1f77b4" />
<circle cx="1424.0" cy="247.08974117548598" r="4" fill="#1f77b4" />
<circle cx="1456.0" cy="221.57135982256818" r="4" fill="#1f77b4" />
<circle cx="1488.0" cy="211.71217542317913" r="4" fill="#1f77b4" />
<circle cx="1520.0" cy="201.2503923168665" r="4" fill="#1f77b4" />
<path d="M 80.0 920.0 L 112.0 879.090243341075 L 144.0 792.3913543824409 L 176.0 757.5159542192371 L 208.0 736.5254325947315 L 240.0 725.9883246500533 L 272.0 704.9978030255477 L 304.0 682.341765530517 L 336.0 661.460046450317 L 368.0 644.4366329797251 L 400.0 628.9113468499571 L 432.0 619.1525955683887 L 464.0 609.4942774046408 L 496.0 594.9733224530789 L 528.0 574.3510555939154 L 560.0 552.0465340112569 L 592.0 537.2410185592032 L 624.0 516.978637038897 L 656.0 508.6092105538468 L 688.0 500.9009687611157 L 720.0 484.32113489423136 L 752.0 468.01749210135375 L 784.0 453.5802314146423 L 816.0 433.65262695373804 L 848.0 419.93513694474086 L 880.0 411.48201619484024 L 912.0 401.9492394283682 L 944.0 389.70476848073986 L 976.0 379.0755968447262 L 1008.0 370.0449856673572 L 1040.0 354.7121963467454 L 1072.0 342.19990375159546 L 1104.0 323.1176113656812 L 1136.0 317.5268344736677 L 1168.0 311.18280919799975 L 1200.0 302.7715355805244 L 1232.0 296.0090389806039 L 1264.0 285.9573577720587 L 1296.0 274.6837402966962 L 1328.0 269.5616512878455 L 1360.0 264.00435210177227 L 1392.0 254.80635239470212 L 1424.0 247.08974117548598 L 1456.0 221.57135982256818 L 1488.0 211.71217542317913 L 1520.0 201.2503923168665" fill="none" stroke="#1f77b4" stroke-width="2" />
<circle cx="80.0" cy="920.0" r="4" fill="#ff7f0e" />
<circle cx="112.0" cy="621.4123407193522" r="4" fill="#ff7f0e" />
<circle cx="144.0" cy="559.1186993911242" r="4" fill="#ff7f0e" />
<circle cx="176.0" cy="539.1408783713096" r="4" fill="#ff7f0e" />
<circle cx="208.0" cy="529.2984328248907" r="4" fill="#ff7f0e" />
<circle cx="240.0" cy="521.5985604586446" r="4" fill="#ff7f0e" />
<circle cx="272.0" cy="507.8727010231624" r="4" fill="#ff7f0e" />
<circle cx="304.0" cy="490.4559245077731" r="4" fill="#ff7f0e" />
<circle cx="336.0" cy="476.56267654258994" r="4" fill="#ff7f0e" />
<circle cx="368.0" cy="465.1133011110414" r="4" fill="#ff7f0e" />
<circle cx="400.0" cy="453.530014855732" r="4" fill="#ff7f0e" />
<circle cx="432.0" cy="447.4789195070408" r="4" fill="#ff7f0e" />
<circle cx="464.0" cy="439.98828280292093" r="4" fill="#ff7f0e" />
<circle cx="496.0" cy="431.46820664113994" r="4" fill="#ff7f0e" />
<circle cx="528.0" cy="420.06904776850166" r="4" fill="#ff7f0e" />
<circle cx="560.0" cy="404.8115832862553" r="4" fill="#ff7f0e" />
<circle cx="592.0" cy="395.01935429874675" r="4" fill="#ff7f0e" />
<circle cx="624.0" cy="382.7916222040885" r="4" fill="#ff7f0e" />
<circle cx="656.0" cy="375.3512020588789" r="4" fill="#ff7f0e" />
<circle cx="688.0" cy="369.41727868097837" r="4" fill="#ff7f0e" />
<circle cx="720.0" cy="355.9341326135627" r="4" fill="#ff7f0e" />
<circle cx="752.0" cy="344.9618144916619" r="4" fill="#ff7f0e" />
<circle cx="784.0" cy="331.97246458686425" r="4" fill="#ff7f0e" />
<circle cx="816.0" cy="314.93231226330215" r="4" fill="#ff7f0e" />
<circle cx="848.0" cy="304.2864017743184" r="4" fill="#ff7f0e" />
<circle cx="880.0" cy="291.5816123700124" r="4" fill="#ff7f0e" />
<circle cx="912.0" cy="288.4263385851484" r="4" fill="#ff7f0e" />
<circle cx="944.0" cy="277.6799949783441" r="4" fill="#ff7f0e" />
<circle cx="976.0" cy="270.4906576276861" r="4" fill="#ff7f0e" />
<circle cx="1008.0" cy="263.61098905697486" r="4" fill="#ff7f0e" />
<circle cx="1040.0" cy="250.8225053878183" r="4" fill="#ff7f0e" />
<circle cx="1072.0" cy="239.33965225032955" r="4" fill="#ff7f0e" />
<circle cx="1104.0" cy="226.68507940493384" r="4" fill="#ff7f0e" />
<circle cx="1136.0" cy="222.06515598518615" r="4" fill="#ff7f0e" />
<circle cx="1168.0" cy="217.3280605946478" r="4" fill="#ff7f0e" />
<circle cx="1200.0" cy="210.94218818655452" r="4" fill="#ff7f0e" />
<circle cx="1232.0" cy="205.40162785345137" r="4" fill="#ff7f0e" />
<circle cx="1264.0" cy="196.8062268533049" r="4" fill="#ff7f0e" />
<circle cx="1296.0" cy="187.7421379699956" r="4" fill="#ff7f0e" />
<circle cx="1328.0" cy="181.63245663590908" r="4" fill="#ff7f0e" />
<circle cx="1360.0" cy="177.97501726194218" r="4" fill="#ff7f0e" />
<circle cx="1392.0" cy="170.3588391605465" r="4" fill="#ff7f0e" />
<circle cx="1424.0" cy="165.21164187224076" r="4" fill="#ff7f0e" />
<circle cx="1456.0" cy="140.44650890297748" r="4" fill="#ff7f0e" />
<circle cx="1488.0" cy="130.85514615111003" r="4" fill="#ff7f0e" />
<circle cx="1520.0" cy="122.1425731801728" r="4" fill="#ff7f0e" />
<path d="M 80.0 920.0 L 112.0 621.4123407193522 L 144.0 559.1186993911242 L 176.0 539.1408783713096 L 208.0 529.2984328248907 L 240.0 521.5985604586446 L 272.0 507.8727010231624 L 304.0 490.4559245077731 L 336.0 476.56267654258994 L 368.0 465.1133011110414 L 400.0 453.530014855732 L 432.0 447.4789195070408 L 464.0 439.98828280292093 L 496.0 431.46820664113994 L 528.0 420.06904776850166 L 560.0 404.8115832862553 L 592.0 395.01935429874675 L 624.0 382.7916222040885 L 656.0 375.3512020588789 L 688.0 369.41727868097837 L 720.0 355.9341326135627 L 752.0 344.9618144916619 L 784.0 331.97246458686425 L 816.0 314.93231226330215 L 848.0 304.2864017743184 L 880.0 291.5816123700124 L 912.0 288.4263385851484 L 944.0 277.6799949783441 L 976.0 270.4906576276861 L 1008.0 263.61098905697486 L 1040.0 250.8225053878183 L 1072.0 239.33965225032955 L 1104.0 226.68507940493384 L 1136.0 222.06515598518615 L 1168.0 217.3280605946478 L 1200.0 210.94218818655452 L 1232.0 205.40162785345137 L 1264.0 196.8062268533049 L 1296.0 187.7421379699956 L 1328.0 181.63245663590908 L 1360.0 177.97501726194218 L 1392.0 170.3588391605465 L 1424.0 165.21164187224076 L 1456.0 140.44650890297748 L 1488.0 130.85514615111003 L 1520.0 122.1425731801728" fill="none" stroke="#ff7f0e" stroke-width="2" />
<circle cx="80.0" cy="920.0" r="4" fill="#2ca02c" />
<circle cx="112.0" cy="615.545372753332" r="4" fill="#2ca02c" />
<circle cx="144.0" cy="553.4944447931705" r="4" fill="#2ca02c" />
<circle cx="176.0" cy="533.709120582512" r="4" fill="#2ca02c" />
<circle cx="208.0" cy="524.0173247128241" r="4" fill="#2ca02c" />
<circle cx="240.0" cy="516.3341911995481" r="4" fill="#2ca02c" />
<circle cx="272.0" cy="502.75061201431174" r="4" fill="#2ca02c" />
<circle cx="304.0" cy="485.5598100140188" r="4" fill="#2ca02c" />
<circle cx="336.0" cy="471.82558115205154" r="4" fill="#2ca02c" />
<circle cx="368.0" cy="460.46826941183855" r="4" fill="#2ca02c" />
<circle cx="400.0" cy="448.94356914192457" r="4" fill="#2ca02c" />
<circle cx="432.0" cy="442.9845374845689" r="4" fill="#2ca02c" />
<circle cx="464.0" cy="435.49390078044905" r="4" fill="#2ca02c" />
<circle cx="496.0" cy="426.99893289812314" r="4" fill="#2ca02c" />
<circle cx="528.0" cy="415.8508568200364" r="4" fill="#2ca02c" />
<circle cx="560.0" cy="400.919799970707" r="4" fill="#2ca02c" />
<circle cx="592.0" cy="391.16941811562367" r="4" fill="#2ca02c" />
<circle cx="624.0" cy="378.9500554474505" r="4" fill="#2ca02c" />
<circle cx="656.0" cy="371.50126587575585" r="4" fill="#2ca02c" />
<circle cx="688.0" cy="365.5840813508255" r="4" fill="#2ca02c" />
<circle cx="720.0" cy="352.19299897474525" r="4" fill="#2ca02c" />
<circle cx="752.0" cy="341.2457891322997" r="4" fill="#2ca02c" />
<circle cx="784.0" cy="328.273178080472" r="4" fill="#2ca02c" />
<circle cx="816.0" cy="311.25813403636516" r="4" fill="#2ca02c" />
<circle cx="848.0" cy="300.6457012533216" r="4" fill="#2ca02c" />
<circle cx="880.0" cy="287.94928127550065" r="4" fill="#2ca02c" />
<circle cx="912.0" cy="284.8023769171218" r="4" fill="#2ca02c" />
<circle cx="944.0" cy="274.06440273680244" r="4" fill="#2ca02c" />
<circle cx="976.0" cy="266.9001736655996" r="4" fill="#2ca02c" />
<circle cx="1008.0" cy="260.0623522273137" r="4" fill="#2ca02c" />
<circle cx="1040.0" cy="247.56679848513386" r="4" fill="#2ca02c" />
<circle cx="1072.0" cy="236.1174230535853" r="4" fill="#2ca02c" />
<circle cx="1104.0" cy="223.81436612056166" r="4" fill="#2ca02c" />
<circle cx="1136.0" cy="219.19444270081397" r="4" fill="#2ca02c" />
<circle cx="1168.0" cy="214.51593329567095" r="4" fill="#2ca02c" />
<circle cx="1200.0" cy="208.1384303140627" r="4" fill="#2ca02c" />
<circle cx="1232.0" cy="202.6229782604147" r="4" fill="#2ca02c" />
<circle cx="1264.0" cy="194.02757726026823" r="4" fill="#2ca02c" />
<circle cx="1296.0" cy="185.00533550938428" r="4" fill="#2ca02c" />
<circle cx="1328.0" cy="178.90402360178268" r="4" fill="#2ca02c" />
<circle cx="1360.0" cy="175.2465842278158" r="4" fill="#2ca02c" />
<circle cx="1392.0" cy="167.63877555290526" r="4" fill="#2ca02c" />
<circle cx="1424.0" cy="162.57527252945" r="4" fill="#2ca02c" />
<circle cx="1456.0" cy="138.02774464879792" r="4" fill="#2ca02c" />
<circle cx="1488.0" cy="128.45312074990068" r="4" fill="#2ca02c" />
<circle cx="1520.0" cy="120.0" r="4" fill="#2ca02c" />
<path d="M 80.0 920.0 L 112.0 615.545372753332 L 144.0 553.4944447931705 L 176.0 533.709120582512 L 208.0 524.0173247128241 L 240.0 516.3341911995481 L 272.0 502.75061201431174 L 304.0 485.5598100140188 L 336.0 471.82558115205154 L 368.0 460.46826941183855 L 400.0 448.94356914192457 L 432.0 442.9845374845689 L 464.0 435.49390078044905 L 496.0 426.99893289812314 L 528.0 415.8508568200364 L 560.0 400.919799970707 L 592.0 391.16941811562367 L 624.0 378.9500554474505 L 656.0 371.50126587575585 L 688.0 365.5840813508255 L 720.0 352.19299897474525 L 752.0 341.2457891322997 L 784.0 328.273178080472 L 816.0 311.25813403636516 L 848.0 300.6457012533216 L 880.0 287.94928127550065 L 912.0 284.8023769171218 L 944.0 274.06440273680244 L 976.0 266.9001736655996 L 1008.0 260.0623522273137 L 1040.0 247.56679848513386 L 1072.0 236.1174230535853 L 1104.0 223.81436612056166 L 1136.0 219.19444270081397 L 1168.0 214.51593329567095 L 1200.0 208.1384303140627 L 1232.0 202.6229782604147 L 1264.0 194.02757726026823 L 1296.0 185.00533550938428 L 1328.0 178.90402360178268 L 1360.0 175.2465842278158 L 1392.0 167.63877555290526 L 1424.0 162.57527252945 L 1456.0 138.02774464879792 L 1488.0 128.45312074990068 L 1520.0 120.0" fill="none" stroke="#2ca02c" stroke-width="2" />
<circle cx="80.0" cy="920.0" r="4" fill="#d62728" />
<circle cx="112.0" cy="860.9285878685163" r="4" fill="#d62728" />
<circle cx="144.0" cy="775.4348963237294" r="4" fill="#d62728" />
<circle cx="176.0" cy="745.8489736990773" r="4" fill="#d62728" />
<circle cx="208.0" cy="724.9002992069968" r="4" fill="#d62728" />
<circle cx="240.0" cy="714.4552549536543" r="4" fill="#d62728" />
<circle cx="272.0" cy="693.8915740798861" r="4" fill="#d62728" />
<circle cx="304.0" cy="672.2900843219718" r="4" fill="#d62728" />
<circle cx="336.0" cy="652.4043269934928" r="4" fill="#d62728" />
<circle cx="368.0" cy="635.740798861758" r="4" fill="#d62728" />
<circle cx="400.0" cy="620.2657292909004" r="4" fill="#d62728" />
<circle cx="432.0" cy="610.5237168623021" r="4" fill="#d62728" />
<circle cx="464.0" cy="600.8737681250393" r="4" fill="#d62728" />
<circle cx="496.0" cy="587.0725838511917" r="4" fill="#d62728" />
<circle cx="528.0" cy="566.6930303600946" r="4" fill="#d62728" />
<circle cx="560.0" cy="544.7651329692633" r="4" fill="#d62728" />
<circle cx="592.0" cy="530.6626493419539" r="4" fill="#d62728" />
<circle cx="624.0" cy="510.651350616199" r="4" fill="#d62728" />
<circle cx="656.0" cy="502.2819241311489" r="4" fill="#d62728" />
<circle cx="688.0" cy="494.6573766032683" r="4" fill="#d62728" />
<circle cx="720.0" cy="478.2784089720252" r="4" fill="#d62728" />
<circle cx="752.0" cy="462.9623585043835" r="4" fill="#d62728" />
<circle cx="784.0" cy="448.5836838030674" r="4" fill="#d62728" />
<circle cx="816.0" cy="428.6728181951332" r="4" fill="#d62728" />
<circle cx="848.0" cy="415.4072772163288" r="4" fill="#d62728" />
<circle cx="880.0" cy="406.9541564664281" r="4" fill="#d62728" />
<circle cx="912.0" cy="397.41301027347106" r="4" fill="#d62728" />
<circle cx="944.0" cy="385.16853932584274" r="4" fill="#d62728" />
<circle cx="976.0" cy="375.25076894105837" r="4" fill="#d62728" />
<circle cx="1008.0" cy="366.23689661665935" r="4" fill="#d62728" />
<circle cx="1040.0" cy="350.9375850019877" r="4" fill="#d62728" />
<circle cx="1072.0" cy="338.43366183332284" r="4" fill="#d62728" />
<circle cx="1104.0" cy="319.4518025652293" r="4" fill="#d62728" />
<circle cx="1136.0" cy="313.8861339526709" r="4" fill="#d62728" />
<circle cx="1168.0" cy="307.54210867700294" r="4" fill="#d62728" />
<circle cx="1200.0" cy="299.18942104492294" r="4" fill="#d62728" />
<circle cx="1232.0" cy="292.4185550185174" r="4" fill="#d62728" />
<circle cx="1264.0" cy="282.41709036888244" r="4" fill="#d62728" />
<circle cx="1296.0" cy="271.7711798798988" r="4" fill="#d62728" />
<circle cx="1328.0" cy="266.6741991505032" r="4" fill="#d62728" />
<circle cx="1360.0" cy="261.11689996443" r="4" fill="#d62728" />
<circle cx="1392.0" cy="251.9440085368151" r="4" fill="#d62728" />
<circle cx="1424.0" cy="244.30272215596426" r="4" fill="#d62728" />
<circle cx="1456.0" cy="218.859665641412" r="4" fill="#d62728" />
<circle cx="1488.0" cy="209.02558952147808" r="4" fill="#d62728" />
<circle cx="1520.0" cy="198.56380641516546" r="4" fill="#d62728" />
<path d="M 80.0 920.0 L 112.0 860.9285878685163 L 144.0 775.4348963237294 L 176.0 745.8489736990773 L 208.0 724.9002992069968 L 240.0 714.4552549536543 L 272.0 693.8915740798861 L 304.0 672.2900843219718 L 336.0 652.4043269934928 L 368.0 635.740798861758 L 400.0 620.2657292909004 L 432.0 610.5237168623021 L 464.0 600.8737681250393 L 496.0 587.0725838511917 L 528.0 566.6930303600946 L 560.0 544.7651329692633 L 592.0 530.6626493419539 L 624.0 510.651350616199 L 656.0 502.2819241311489 L 688.0 494.6573766032683 L 720.0 478.2784089720252 L 752.0 462.9623585043835 L 784.0 448.5836838030674 L 816.0 428.6728181951332 L 848.0 415.4072772163288 L 880.0 406.9541564664281 L 912.0 397.41301027347106 L 944.0 385.16853932584274 L 976.0 375.25076894105837 L 1008.0 366.23689661665935 L 1040.0 350.9375850019877 L 1072.0 338.43366183332284 L 1104.0 319.4518025652293 L 1136.0 313.8861339526709 L 1168.0 307.54210867700294 L 1200.0 299.18942104492294 L 1232.0 292.4185550185174 L 1264.0 282.41709036888244 L 1296.0 271.7711798798988 L 1328.0 266.6741991505032 L 1360.0 261.11689996443 L 1392.0 251.9440085368151 L 1424.0 244.30272215596426 L 1456.0 218.859665641412 L 1488.0 209.02558952147808 L 1520.0 198.56380641516546" fill="none" stroke="#d62728" stroke-width="2" />
<circle cx="80.0" cy="920.0" r="4" fill="#9467bd" />
<circle cx="112.0" cy="867.1638105998786" r="4" fill="#9467bd" />
<circle cx="144.0" cy="781.3437114221748" r="4" fill="#9467bd" />
<circle cx="176.0" cy="746.5520055238214" r="4" fill="#9467bd" />
<circle cx="208.0" cy="725.5363756198607" r="4" fill="#9467bd" />
<circle cx="240.0" cy="716.1626179566045" r="4" fill="#9467bd" />
<circle cx="272.0" cy="695.4231791266503" r="4" fill="#9467bd" />
<circle cx="304.0" cy="672.825727617015" r="4" fill="#9467bd" />
<circle cx="336.0" cy="652.3792187140376" r="4" fill="#9467bd" />
<circle cx="368.0" cy="635.5315631996318" r="4" fill="#9467bd" />
<circle cx="400.0" cy="620.2322515849601" r="4" fill="#9467bd" />
<circle cx="432.0" cy="610.4818697298767" r="4" fill="#9467bd" />
<circle cx="464.0" cy="600.7649655807336" r="4" fill="#9467bd" />
<circle cx="496.0" cy="586.3277048940222" r="4" fill="#9467bd" />
<circle cx="528.0" cy="566.098801079656" r="4" fill="#9467bd" />
<circle cx="560.0" cy="543.7440629380872" r="4" fill="#9467bd" />
<circle cx="592.0" cy="529.2565856924655" r="4" fill="#9467bd" />
<circle cx="624.0" cy="511.8649174565313" r="4" fill="#9467bd" />
<circle cx="656.0" cy="503.4871215449961" r="4" fill="#9467bd" />
<circle cx="688.0" cy="495.77887975226497" r="4" fill="#9467bd" />
<circle cx="720.0" cy="479.1571987529555" r="4" fill="#9467bd" />
<circle cx="752.0" cy="463.36409097566593" r="4" fill="#9467bd" />
<circle cx="784.0" cy="449.0021551273199" r="4" fill="#9467bd" />
<circle cx="816.0" cy="429.01596468102025" r="4" fill="#9467bd" />
<circle cx="848.0" cy="415.5579268930597" r="4" fill="#9467bd" />
<circle cx="880.0" cy="407.1299144226142" r="4" fill="#9467bd" />
<circle cx="912.0" cy="397.58876822965703" r="4" fill="#9467bd" />
<circle cx="944.0" cy="385.3275584290586" r="4" fill="#9467bd" />
<circle cx="976.0" cy="375.0833804113573" r="4" fill="#9467bd" />
<circle cx="1008.0" cy="366.0695080869583" r="4" fill="#9467bd" />
<circle cx="1040.0" cy="350.97943213441306" r="4" fill="#9467bd" />
<circle cx="1072.0" cy="338.7600694662399" r="4" fill="#9467bd" />
<circle cx="1104.0" cy="319.6694076538405" r="4" fill="#9467bd" />
<circle cx="1136.0" cy="314.05352248237193" r="4" fill="#9467bd" />
<circle cx="1168.0" cy="307.9689494277404" r="4" fill="#9467bd" />
<circle cx="1200.0" cy="299.5911535162053" r="4" fill="#9467bd" />
<circle cx="1232.0" cy="292.7951792103446" r="4" fill="#9467bd" />
<circle cx="1264.0" cy="282.71838972234434" r="4" fill="#9467bd" />
<circle cx="1296.0" cy="271.44477224698176" r="4" fill="#9467bd" />
<circle cx="1328.0" cy="266.32268323813116" r="4" fill="#9467bd" />
<circle cx="1360.0" cy="260.7653840520578" r="4" fill="#9467bd" />
<circle cx="1392.0" cy="251.58412319795787" r="4" fill="#9467bd" />
<circle cx="1424.0" cy="243.85077312577152" r="4" fill="#9467bd" />
<circle cx="1456.0" cy="218.3993471847342" r="4" fill="#9467bd" />
<circle cx="1488.0" cy="208.51505450589002" r="4" fill="#9467bd" />
<circle cx="1520.0" cy="198.06164082606244" r="4" fill="#9467bd" />
<path d="M 80.0 920.0 L 112.0 867.1638105998786 L 144.0 781.3437114221748 L 176.0 746.5520055238214 L 208.0 725.5363756198607 L 240.0 716.1626179566045 L 272.0 695.4231791266503 L 304.0 672.825727617015 L 336.0 652.3792187140376 L 368.0 635.5315631996318 L 400.0 620.2322515849601 L 432.0 610.4818697298767 L 464.0 600.7649655807336 L 496.0 586.3277048940222 L 528.0 566.098801079656 L 560.0 543.7440629380872 L 592.0 529.2565856924655 L 624.0 511.8649174565313 L 656.0 503.4871215449961 L 688.0 495.77887975226497 L 720.0 479.1571987529555 L 752.0 463.36409097566593 L 784.0 449.0021551273199 L 816.0 429.01596468102025 L 848.0 415.5579268930597 L 880.0 407.1299144226142 L 912.0 397.58876822965703 L 944.0 385.3275584290586 L 976.0 375.0833804113573 L 1008.0 366.0695080869583 L 1040.0 350.97943213441306 L 1072.0 338.7600694662399 L 1104.0 319.6694076538405 L 1136.0 314.05352248237193 L 1168.0 307.9689494277404 L 1200.0 299.5911535162053 L 1232.0 292.7951792103446 L 1264.0 282.71838972234434 L 1296.0 271.44477224698176 L 1328.0 266.32268323813116 L 1360.0 260.7653840520578 L 1392.0 251.58412319795787 L 1424.0 243.85077312577152 L 1456.0 218.3993471847342 L 1488.0 208.51505450589002 L 1520.0 198.06164082606244" fill="none" stroke="#9467bd" stroke-width="2" />
<circle cx="80.0" cy="920.0" r="4" fill="#66ffbd" />
<circle cx="112.0" cy="656.4551294122571" r="4" fill="#66ffbd" />
<circle cx="144.0" cy="681.1030904107296" r="4" fill="#66ffbd" />
<circle cx="176.0" cy="696.1931663632749" r="4" fill="#66ffbd" />
<circle cx="208.0" cy="707.4918921180927" r="4" fill="#66ffbd" />
<circle cx="240.0" cy="710.3458665494948" r="4" fill="#66ffbd" />
<circle cx="272.0" cy="717.7528089887641" r="4" fill="#66ffbd" />
<circle cx="304.0" cy="723.2180444835018" r="4" fill="#66ffbd" />
<circle cx="336.0" cy="730.3655347017345" r="4" fill="#66ffbd" />
<circle cx="368.0" cy="736.0316364321135" r="4" fill="#66ffbd" />
<circle cx="400.0" cy="740.0322222919674" r="4" fill="#66ffbd" />
<circle cx="432.0" cy="743.8319419161802" r="4" fill="#66ffbd" />
<circle cx="464.0" cy="745.9996233758081" r="4" fill="#66ffbd" />
<circle cx="496.0" cy="752.0256104450443" r="4" fill="#66ffbd" />
<circle cx="528.0" cy="761.499801226121" r="4" fill="#66ffbd" />
<circle cx="560.0" cy="768.8732659594501" r="4" fill="#66ffbd" />
<circle cx="592.0" cy="773.9283995564203" r="4" fill="#66ffbd" />
<circle cx="624.0" cy="781.9714184085535" r="4" fill="#66ffbd" />
<circle cx="656.0" cy="782.8920553219091" r="4" fill="#66ffbd" />
<circle cx="688.0" cy="784.6831125897098" r="4" fill="#66ffbd" />
<circle cx="720.0" cy="787.8718640805139" r="4" fill="#66ffbd" />
<circle cx="752.0" cy="793.2282970309459" r="4" fill="#66ffbd" />
<circle cx="784.0" cy="794.6929466658297" r="4" fill="#66ffbd" />
<circle cx="816.0" cy="797.6055070826271" r="4" fill="#66ffbd" />
<circle cx="848.0" cy="800.7105643085807" r="4" fill="#66ffbd" />
<circle cx="880.0" cy="796.4672650806604" r="4" fill="#66ffbd" />
<circle cx="912.0" cy="802.8531374887536" r="4" fill="#66ffbd" />
<circle cx="944.0" cy="804.3596342560626" r="4" fill="#66ffbd" />
<circle cx="976.0" cy="807.8245768208733" r="4" fill="#66ffbd" />
<circle cx="1008.0" cy="810.0173665599565" r="4" fill="#66ffbd" />
<circle cx="1040.0" cy="812.8546021383885" r="4" fill="#66ffbd" />
<circle cx="1072.0" cy="813.9175193019898" r="4" fill="#66ffbd" />
<circle cx="1104.0" cy="820.6967547548804" r="4" fill="#66ffbd" />
<circle cx="1136.0" cy="821.6676082271463" r="4" fill="#66ffbd" />
<circle cx="1168.0" cy="823.3331240976712" r="4" fill="#66ffbd" />
<circle cx="1200.0" cy="825.3668947335384" r="4" fill="#66ffbd" />
<circle cx="1232.0" cy="826.6139392798109" r="4" fill="#66ffbd" />
<circle cx="1264.0" cy="828.0702194882095" r="4" fill="#66ffbd" />
<circle cx="1296.0" cy="830.3215952126881" r="4" fill="#66ffbd" />
<circle cx="1328.0" cy="829.3423723139372" r="4" fill="#66ffbd" />
<circle cx="1360.0" cy="831.2422321260435" r="4" fill="#66ffbd" />
<circle cx="1392.0" cy="832.832423158203" r="4" fill="#66ffbd" />
<circle cx="1424.0" cy="835.485531353964" r="4" fill="#66ffbd" />
<circle cx="1456.0" cy="836.4563848262297" r="4" fill="#66ffbd" />
<circle cx="1488.0" cy="836.7409453267214" r="4" fill="#66ffbd" />
<circle cx="1520.0" cy="838.7496076831335" r="4" fill="#66ffbd" />
<path d="M 80.0 920.0 L 112.0 656.4551294122571 L 144.0 681.1030904107296 L 176.0 696.1931663632749 L 208.0 707.4918921180927 L 240.0 710.3458665494948 L 272.0 717.7528089887641 L 304.0 723.2180444835018 L 336.0 730.3655347017345 L 368.0 736.0316364321135 L 400.0 740.0322222919674 L 432.0 743.8319419161802 L 464.0 745.9996233758081 L 496.0 752.0256104450443 L 528.0 761.499801226121 L 560.0 768.8732659594501 L 592.0 773.9283995564203 L 624.0 781.9714184085535 L 656.0 782.8920553219091 L 688.0 784.6831125897098 L 720.0 787.8718640805139 L 752.0 793.2282970309459 L 784.0 794.6929466658297 L 816.0 797.6055070826271 L 848.0 800.7105643085807 L 880.0 796.4672650806604 L 912.0 802.8531374887536 L 944.0 804.3596342560626 L 976.0 807.8245768208733 L 1008.0 810.0173665599565 L 1040.0 812.8546021383885 L 1072.0 813.9175193019898 L 1104.0 820.6967547548804 L 1136.0 821.6676082271463 L 1168.0 823.3331240976712 L 1200.0 825.3668947335384 L 1232.0 826.6139392798109 L 1264.0 828.0702194882095 L 1296.0 830.3215952126881 L 1328.0 829.3423723139372 L 1360.0 831.2422321260435 L 1392.0 832.832423158203 L 1424.0 835.485531353964 L 1456.0 836.4563848262297 L 1488.0 836.7409453267214 L 1520.0 838.7496076831335" fill="none" stroke="#66ffbd" stroke-width="2" />
<text x="80.0" y="940" text-anchor="middle">08-06</text>
<text x="112.0" y="940" text-anchor="middle">08-07</text>
<text x="144.0" y="940" text-anchor="middle">08-08</text>
<text x="176.0" y="940" text-anchor="middle">08-09</text>
<text x="208.0" y="940" text-anchor="middle">08-10</text>
<text x="240.0" y="940" text-anchor="middle">08-11</text>
<text x="272.0" y="940" text-anchor="middle">08-12</text>
<text x="304.0" y="940" text-anchor="middle">08-13</text>
<text x="336.0" y="940" text-anchor="middle">08-14</text>
<text x="368.0" y="940" text-anchor="middle">08-15</text>
<text x="400.0" y="940" text-anchor="middle">08-16</text>
<text x="432.0" y="940" text-anchor="middle">08-17</text>
<text x="464.0" y="940" text-anchor="middle">08-18</text>
<text x="496.0" y="940" text-anchor="middle">08-19</text>
<text x="528.0" y="940" text-anchor="middle">08-20</text>
<text x="560.0" y="940" text-anchor="middle">08-21</text>
<text x="592.0" y="940" text-anchor="middle">08-22</text>
<text x="624.0" y="940" text-anchor="middle">08-23</text>
<text x="656.0" y="940" text-anchor="middle">08-24</text>
<text x="688.0" y="940" text-anchor="middle">08-25</text>
<text x="720.0" y="940" text-anchor="middle">08-26</text>
<text x="752.0" y="940" text-anchor="middle">08-27</text>
<text x="784.0" y="940" text-anchor="middle">08-28</text>
<text x="816.0" y="940" text-anchor="middle">08-29</text>
<text x="848.0" y="940" text-anchor="middle">08-30</text>
<text x="880.0" y="940" text-anchor="middle">08-31</text>
<text x="912.0" y="940" text-anchor="middle">09-01</text>
<text x="944.0" y="940" text-anchor="middle">09-02</text>
<text x="976.0" y="940" text-anchor="middle">09-03</text>
<text x="1008.0" y="940" text-anchor="middle">09-04</text>
<text x="1040.0" y="940" text-anchor="middle">09-05</text>
<text x="1072.0" y="940" text-anchor="middle">09-06</text>
<text x="1104.0" y="940" text-anchor="middle">09-07</text>
<text x="1136.0" y="940" text-anchor="middle">09-08</text>
<text x="1168.0" y="940" text-anchor="middle">09-09</text>
<text x="1200.0" y="940" text-anchor="middle">09-10</text>
<text x="1232.0" y="940" text-anchor="middle">09-11</text>
<text x="1264.0" y="940" text-anchor="middle">09-12</text>
<text x="1296.0" y="940" text-anchor="middle">09-13</text>
<text x="1328.0" y="940" text-anchor="middle">09-14</text>
<text x="1360.0" y="940" text-anchor="middle">09-15</text>
<text x="1392.0" y="940" text-anchor="middle">09-16</text>
<text x="1424.0" y="940" text-anchor="middle">09-17</text>
<text x="1456.0" y="940" text-anchor="middle">09-18</text>
<text x="1488.0" y="940" text-anchor="middle">09-19</text>
<text x="1520.0" y="940" text-anchor="middle">09-20</text>
<rect x="90" y="100" width="130" height="185" class="legend-box" />
<text x="100" y="120" class="legend-item">图例:</text>
<rect x="100" y="137" width="15" height="15" fill="#1f77b4" rx="3" />
<text x="120" y="145" class="legend-item">构件聚合数据</text>
<rect x="100" y="162" width="15" height="15" fill="#ff7f0e" rx="3" />
<text x="120" y="170" class="legend-item">构件基本信息</text>
<rect x="100" y="187" width="15" height="15" fill="#2ca02c" rx="3" />
<text x="120" y="195" class="legend-item">构件徽标</text>
<rect x="100" y="212" width="15" height="15" fill="#d62728" rx="3" />
<text x="120" y="220" class="legend-item">构件扩展元数据</text>
<rect x="100" y="237" width="15" height="15" fill="#9467bd" rx="3" />
<text x="120" y="245" class="legend-item">构件版本信息</text>
<rect x="100" y="262" width="15" height="15" fill="#66ffbd" rx="3" />
<text x="120" y="270" class="legend-item">数据量偏差</text>
<text x="1520" y="990" text-anchor="end" font-size="10" fill="#666">生成时间: 2025-09-20 11:49:41</text>
</svg>