<svg xmlns="http://www.w3.org/2000/svg" width="1600" height="1000" viewBox="0 0 1600 1000">
<style>
  text {
    font-family: Arial, sans-serif;
    font-size: 12px;
    fill: #333;
  }
  .axis-label { font-size: 14px; }
  .title { font-size: 18px; font-weight: bold; }
  .legend-item { font-size: 11px; }
  .legend-box { fill: white; fill-opacity: 0.85; stroke: #cccccc; stroke-width: 1; rx: 5; }
</style>
<text x="800.0" y="30" text-anchor="middle" class="title">Daily Data Growth Trend</text>
<text x="800.0" y="980" text-anchor="middle" class="axis-label">Date</text>
<g transform="rotate(-90)">
<text x="-500.0" y="20" text-anchor="middle" class="axis-label">Count</text>
</g>
<rect x="0" y="0" width="1600" height="1000" fill="#f8f8f8" />
<line x1="80" y1="920.0" x2="1520" y2="920.0" stroke="#e0e0e0" stroke-width="1" />
<text x="70" y="925.0" text-anchor="end">0</text>
<line x1="80" y1="752.0" x2="1520" y2="752.0" stroke="#e0e0e0" stroke-width="1" />
<text x="70" y="757.0" text-anchor="end">18.7k</text>
<line x1="80" y1="584.0" x2="1520" y2="584.0" stroke="#e0e0e0" stroke-width="1" />
<text x="70" y="589.0" text-anchor="end">37.4k</text>
<line x1="80" y1="416.0" x2="1520" y2="416.0" stroke="#e0e0e0" stroke-width="1" />
<text x="70" y="421.0" text-anchor="end">56.1k</text>
<line x1="80" y1="248.0" x2="1520" y2="248.0" stroke="#e0e0e0" stroke-width="1" />
<text x="70" y="253.0" text-anchor="end">74.7k</text>
<line x1="80" y1="80.0" x2="1520" y2="80.0" stroke="#e0e0e0" stroke-width="1" />
<text x="70" y="85.0" text-anchor="end">93.4k</text>
<line x1="80" y1="80" x2="80" y2="920" stroke="#333333" stroke-width="2" />
<line x1="80" y1="920" x2="1520" y2="920" stroke="#333333" stroke-width="2" />
<circle cx="80.0" cy="920.0" r="4" fill="#1f77b4" />
<circle cx="116.0" cy="876.0555149744339" r="4" fill="#1f77b4" />
<circle cx="152.0" cy="782.9252121144013" r="4" fill="#1f77b4" />
<circle cx="188.0" cy="745.4627184356914" r="4" fill="#1f77b4" />
<circle cx="224.0" cy="722.9150980502332" r="4" fill="#1f77b4" />
<circle cx="260.0" cy="711.5963364612013" r="4" fill="#1f77b4" />
<circle cx="296.0" cy="689.0487160757431" r="4" fill="#1f77b4" />
<circle cx="332.0" cy="664.7120301174355" r="4" fill="#1f77b4" />
<circle cx="368.0" cy="642.2812833623644" r="4" fill="#1f77b4" />
<circle cx="404.0" cy="623.9950553464066" r="4" fill="#1f77b4" />
<circle cx="440.0" cy="607.3180873180872" r="4" fill="#1f77b4" />
<circle cx="476.0" cy="596.8354217002866" r="4" fill="#1f77b4" />
<circle cx="512.0" cy="586.4606394336124" r="4" fill="#1f77b4" />
<circle cx="548.0" cy="570.8625049165589" r="4" fill="#1f77b4" />
<circle cx="584.0" cy="548.7104568185649" r="4" fill="#1f77b4" />
<circle cx="620.0" cy="524.7513625892004" r="4" fill="#1f77b4" />
<circle cx="656.0" cy="508.8475585772883" r="4" fill="#1f77b4" />
<circle cx="692.0" cy="487.0820924874979" r="4" fill="#1f77b4" />
<circle cx="728.0" cy="478.0918132269484" r="4" fill="#1f77b4" />
<circle cx="764.0" cy="469.81176602798223" r="4" fill="#1f77b4" />
<circle cx="800.0" cy="452.0020228128336" r="4" fill="#1f77b4" />
<circle cx="836.0" cy="434.48895881328315" r="4" fill="#1f77b4" />
<circle cx="872.0" cy="418.9807270888352" r="4" fill="#1f77b4" />
<circle cx="908.0" cy="397.57487216946674" r="4" fill="#1f77b4" />
<circle cx="944.0" cy="382.83980446142607" r="4" fill="#1f77b4" />
<circle cx="980.0" cy="373.75962240827107" r="4" fill="#1f77b4" />
<circle cx="1016.0" cy="363.5196943305051" r="4" fill="#1f77b4" />
<circle cx="1052.0" cy="350.36691577232114" r="4" fill="#1f77b4" />
<circle cx="1088.0" cy="338.9492611114233" r="4" fill="#1f77b4" />
<circle cx="1124.0" cy="329.2487497892903" r="4" fill="#1f77b4" />
<circle cx="1160.0" cy="312.7785581839636" r="4" fill="#1f77b4" />
<circle cx="1196.0" cy="299.3380906894421" r="4" fill="#1f77b4" />
<circle cx="1232.0" cy="278.84025397538915" r="4" fill="#1f77b4" />
<circle cx="1268.0" cy="272.834747429342" r="4" fill="#1f77b4" />
<circle cx="1304.0" cy="266.02011574984544" r="4" fill="#1f77b4" />
<circle cx="1340.0" cy="256.9848850929932" r="4" fill="#1f77b4" />
<circle cx="1376.0" cy="249.72073945046918" r="4" fill="#1f77b4" />
<circle cx="1412.0" cy="238.92341405854916" r="4" fill="#1f77b4" />
<circle cx="1448.0" cy="226.81350789458895" r="4" fill="#1f77b4" />
<circle cx="1484.0" cy="221.31145698713271" r="4" fill="#1f77b4" />
<circle cx="1520.0" cy="215.34191155812778" r="4" fill="#1f77b4" />
<path d="M 80.0 920.0 L 116.0 876.0555149744339 L 152.0 782.9252121144013 L 188.0 745.4627184356914 L 224.0 722.9150980502332 L 260.0 711.5963364612013 L 296.0 689.0487160757431 L 332.0 664.7120301174355 L 368.0 642.2812833623644 L 404.0 623.9950553464066 L 440.0 607.3180873180872 L 476.0 596.8354217002866 L 512.0 586.4606394336124 L 548.0 570.8625049165589 L 584.0 548.7104568185649 L 620.0 524.7513625892004 L 656.0 508.8475585772883 L 692.0 487.0820924874979 L 728.0 478.0918132269484 L 764.0 469.81176602798223 L 800.0 452.0020228128336 L 836.0 434.48895881328315 L 872.0 418.9807270888352 L 908.0 397.57487216946674 L 944.0 382.83980446142607 L 980.0 373.75962240827107 L 1016.0 363.5196943305051 L 1052.0 350.36691577232114 L 1088.0 338.9492611114233 L 1124.0 329.2487497892903 L 1160.0 312.7785581839636 L 1196.0 299.3380906894421 L 1232.0 278.84025397538915 L 1268.0 272.834747429342 L 1304.0 266.02011574984544 L 1340.0 256.9848850929932 L 1376.0 249.72073945046918 L 1412.0 238.92341405854916 L 1448.0 226.81350789458895 L 1484.0 221.31145698713271 L 1520.0 215.34191155812778" fill="none" stroke="#1f77b4" stroke-width="2" />
<circle cx="80.0" cy="920.0" r="4" fill="#ff7f0e" />
<circle cx="116.0" cy="599.262797100635" r="4" fill="#ff7f0e" />
<circle cx="152.0" cy="532.3481485643648" r="4" fill="#ff7f0e" />
<circle cx="188.0" cy="510.8883519694331" r="4" fill="#ff7f0e" />
<circle cx="224.0" cy="500.3157835590268" r="4" fill="#ff7f0e" />
<circle cx="260.0" cy="492.04472663932125" r="4" fill="#ff7f0e" />
<circle cx="296.0" cy="477.30066865202" r="4" fill="#ff7f0e" />
<circle cx="332.0" cy="458.5918975108164" r="4" fill="#ff7f0e" />
<circle cx="368.0" cy="443.66803393830423" r="4" fill="#ff7f0e" />
<circle cx="404.0" cy="431.36933190987247" r="4" fill="#ff7f0e" />
<circle cx="440.0" cy="418.9267854132719" r="4" fill="#ff7f0e" />
<circle cx="476.0" cy="412.42681350789456" r="4" fill="#ff7f0e" />
<circle cx="512.0" cy="404.38051356970277" r="4" fill="#ff7f0e" />
<circle cx="548.0" cy="395.2284092824633" r="4" fill="#ff7f0e" />
<circle cx="584.0" cy="382.9836489295949" r="4" fill="#ff7f0e" />
<circle cx="620.0" cy="366.59436983761304" r="4" fill="#ff7f0e" />
<circle cx="656.0" cy="356.07574310277016" r="4" fill="#ff7f0e" />
<circle cx="692.0" cy="342.9409451031073" r="4" fill="#ff7f0e" />
<circle cx="728.0" cy="334.9485868404787" r="4" fill="#ff7f0e" />
<circle cx="764.0" cy="328.57447884474914" r="4" fill="#ff7f0e" />
<circle cx="800.0" cy="314.0911389560039" r="4" fill="#ff7f0e" />
<circle cx="836.0" cy="302.30488284542344" r="4" fill="#ff7f0e" />
<circle cx="872.0" cy="288.3519694330505" r="4" fill="#ff7f0e" />
<circle cx="908.0" cy="270.0477608585717" r="4" fill="#ff7f0e" />
<circle cx="944.0" cy="258.6121256391526" r="4" fill="#ff7f0e" />
<circle cx="980.0" cy="244.96488172163845" r="4" fill="#ff7f0e" />
<circle cx="1016.0" cy="241.57554644041136" r="4" fill="#ff7f0e" />
<circle cx="1052.0" cy="230.03202786986571" r="4" fill="#ff7f0e" />
<circle cx="1088.0" cy="222.30937798505363" r="4" fill="#ff7f0e" />
<circle cx="1124.0" cy="214.91936843288192" r="4" fill="#ff7f0e" />
<circle cx="1160.0" cy="201.18222172276228" r="4" fill="#ff7f0e" />
<circle cx="1196.0" cy="188.84755857728828" r="4" fill="#ff7f0e" />
<circle cx="1232.0" cy="175.25425633533746" r="4" fill="#ff7f0e" />
<circle cx="1268.0" cy="170.29162218351405" r="4" fill="#ff7f0e" />
<circle cx="1304.0" cy="165.20312412204305" r="4" fill="#ff7f0e" />
<circle cx="1340.0" cy="158.34354104624379" r="4" fill="#ff7f0e" />
<circle cx="1376.0" cy="152.39197617575996" r="4" fill="#ff7f0e" />
<circle cx="1412.0" cy="143.15895937517564" r="4" fill="#ff7f0e" />
<circle cx="1448.0" cy="133.4224869360005" r="4" fill="#ff7f0e" />
<circle cx="1484.0" cy="126.85958307579926" r="4" fill="#ff7f0e" />
<circle cx="1520.0" cy="122.93083103893912" r="4" fill="#ff7f0e" />
<path d="M 80.0 920.0 L 116.0 599.262797100635 L 152.0 532.3481485643648 L 188.0 510.8883519694331 L 224.0 500.3157835590268 L 260.0 492.04472663932125 L 296.0 477.30066865202 L 332.0 458.5918975108164 L 368.0 443.66803393830423 L 404.0 431.36933190987247 L 440.0 418.9267854132719 L 476.0 412.42681350789456 L 512.0 404.38051356970277 L 548.0 395.2284092824633 L 584.0 382.9836489295949 L 620.0 366.59436983761304 L 656.0 356.07574310277016 L 692.0 342.9409451031073 L 728.0 334.9485868404787 L 764.0 328.57447884474914 L 800.0 314.0911389560039 L 836.0 302.30488284542344 L 872.0 288.3519694330505 L 908.0 270.0477608585717 L 944.0 258.6121256391526 L 980.0 244.96488172163845 L 1016.0 241.57554644041136 L 1052.0 230.03202786986571 L 1088.0 222.30937798505363 L 1124.0 214.91936843288192 L 1160.0 201.18222172276228 L 1196.0 188.84755857728828 L 1232.0 175.25425633533746 L 1268.0 170.29162218351405 L 1304.0 165.20312412204305 L 1340.0 158.34354104624379 L 1376.0 152.39197617575996 L 1412.0 143.15895937517564 L 1448.0 133.4224869360005 L 1484.0 126.85958307579926 L 1520.0 122.93083103893912" fill="none" stroke="#ff7f0e" stroke-width="2" />
<circle cx="80.0" cy="920.0" r="4" fill="#2ca02c" />
<circle cx="116.0" cy="592.9606113389898" r="4" fill="#2ca02c" />
<circle cx="152.0" cy="526.3066809012755" r="4" fill="#2ca02c" />
<circle cx="188.0" cy="505.0536607293364" r="4" fill="#2ca02c" />
<circle cx="224.0" cy="494.64291734562005" r="4" fill="#2ca02c" />
<circle cx="260.0" cy="486.3898409844356" r="4" fill="#2ca02c" />
<circle cx="296.0" cy="471.79861774456367" r="4" fill="#2ca02c" />
<circle cx="332.0" cy="453.33258414339497" r="4" fill="#2ca02c" />
<circle cx="368.0" cy="438.5795358768332" r="4" fill="#2ca02c" />
<circle cx="404.0" cy="426.37972692026744" r="4" fill="#2ca02c" />
<circle cx="440.0" cy="414.00011237849077" r="4" fill="#2ca02c" />
<circle cx="476.0" cy="407.59903354497953" r="4" fill="#2ca02c" />
<circle cx="512.0" cy="399.5527336067877" r="4" fill="#2ca02c" />
<circle cx="548.0" cy="390.42760015732983" r="4" fill="#2ca02c" />
<circle cx="584.0" cy="378.45254818227795" r="4" fill="#2ca02c" />
<circle cx="620.0" cy="362.4138899814576" r="4" fill="#2ca02c" />
<circle cx="656.0" cy="351.94021464291734" r="4" fill="#2ca02c" />
<circle cx="692.0" cy="338.814406922515" r="4" fill="#2ca02c" />
<circle cx="728.0" cy="330.813058380626" r="4" fill="#2ca02c" />
<circle cx="764.0" cy="324.45693094341743" r="4" fill="#2ca02c" />
<circle cx="800.0" cy="310.07248412653814" r="4" fill="#2ca02c" />
<circle cx="836.0" cy="298.31319885373944" r="4" fill="#2ca02c" />
<circle cx="872.0" cy="284.3782659998876" r="4" fill="#2ca02c" />
<circle cx="908.0" cy="266.1010282631904" r="4" fill="#2ca02c" />
<circle cx="944.0" cy="254.7013541608136" r="4" fill="#2ca02c" />
<circle cx="980.0" cy="241.06310052256003" r="4" fill="#2ca02c" />
<circle cx="1016.0" cy="237.68275552059333" r="4" fill="#2ca02c" />
<circle cx="1052.0" cy="226.1482272293083" r="4" fill="#2ca02c" />
<circle cx="1088.0" cy="218.45254818227795" r="4" fill="#2ca02c" />
<circle cx="1124.0" cy="211.10749002640898" r="4" fill="#2ca02c" />
<circle cx="1160.0" cy="197.6850030904085" r="4" fill="#2ca02c" />
<circle cx="1196.0" cy="185.38630106197672" r="4" fill="#2ca02c" />
<circle cx="1232.0" cy="172.1705905489689" r="4" fill="#2ca02c" />
<circle cx="1268.0" cy="167.2079563971456" r="4" fill="#2ca02c" />
<circle cx="1304.0" cy="162.18239029049835" r="4" fill="#2ca02c" />
<circle cx="1340.0" cy="155.3317974939597" r="4" fill="#2ca02c" />
<circle cx="1376.0" cy="149.4072034612575" r="4" fill="#2ca02c" />
<circle cx="1412.0" cy="140.17418666067317" r="4" fill="#2ca02c" />
<circle cx="1448.0" cy="130.48266561780076" r="4" fill="#2ca02c" />
<circle cx="1484.0" cy="123.92875203686015" r="4" fill="#2ca02c" />
<circle cx="1520.0" cy="120.0" r="4" fill="#2ca02c" />
<path d="M 80.0 920.0 L 116.0 592.9606113389898 L 152.0 526.3066809012755 L 188.0 505.0536607293364 L 224.0 494.64291734562005 L 260.0 486.3898409844356 L 296.0 471.79861774456367 L 332.0 453.33258414339497 L 368.0 438.5795358768332 L 404.0 426.37972692026744 L 440.0 414.00011237849077 L 476.0 407.59903354497953 L 512.0 399.5527336067877 L 548.0 390.42760015732983 L 584.0 378.45254818227795 L 620.0 362.4138899814576 L 656.0 351.94021464291734 L 692.0 338.814406922515 L 728.0 330.813058380626 L 764.0 324.45693094341743 L 800.0 310.07248412653814 L 836.0 298.31319885373944 L 872.0 284.3782659998876 L 908.0 266.1010282631904 L 944.0 254.7013541608136 L 980.0 241.06310052256003 L 1016.0 237.68275552059333 L 1052.0 226.1482272293083 L 1088.0 218.45254818227795 L 1124.0 211.10749002640898 L 1160.0 197.6850030904085 L 1196.0 185.38630106197672 L 1232.0 172.1705905489689 L 1268.0 167.2079563971456 L 1304.0 162.18239029049835 L 1340.0 155.3317974939597 L 1376.0 149.4072034612575 L 1412.0 140.17418666067317 L 1448.0 130.48266561780076 L 1484.0 123.92875203686015 L 1520.0 120.0" fill="none" stroke="#2ca02c" stroke-width="2" />
<circle cx="80.0" cy="920.0" r="4" fill="#d62728" />
<circle cx="116.0" cy="856.5466089790414" r="4" fill="#d62728" />
<circle cx="152.0" cy="764.7109063325279" r="4" fill="#d62728" />
<circle cx="188.0" cy="732.9302691464853" r="4" fill="#d62728" />
<circle cx="224.0" cy="710.4276001573298" r="4" fill="#d62728" />
<circle cx="260.0" cy="699.2077316401641" r="4" fill="#d62728" />
<circle cx="296.0" cy="677.1186154969939" r="4" fill="#d62728" />
<circle cx="332.0" cy="653.9147047255155" r="4" fill="#d62728" />
<circle cx="368.0" cy="632.5538012024499" r="4" fill="#d62728" />
<circle cx="404.0" cy="614.6541551946957" r="4" fill="#d62728" />
<circle cx="440.0" cy="598.0311288419397" r="4" fill="#d62728" />
<circle cx="476.0" cy="587.5664437826599" r="4" fill="#d62728" />
<circle cx="512.0" cy="577.2006517952464" r="4" fill="#d62728" />
<circle cx="548.0" cy="562.3756812946002" r="4" fill="#d62728" />
<circle cx="584.0" cy="540.4843512951621" r="4" fill="#d62728" />
<circle cx="620.0" cy="516.9298196325224" r="4" fill="#d62728" />
<circle cx="656.0" cy="501.7811990784964" r="4" fill="#d62728" />
<circle cx="692.0" cy="480.28544136652243" r="4" fill="#d62728" />
<circle cx="728.0" cy="471.2951621059729" r="4" fill="#d62728" />
<circle cx="764.0" cy="463.1050176996123" r="4" fill="#d62728" />
<circle cx="800.0" cy="445.51104118671685" r="4" fill="#d62728" />
<circle cx="836.0" cy="429.0588301399112" r="4" fill="#d62728" />
<circle cx="872.0" cy="413.61353037028715" r="4" fill="#d62728" />
<circle cx="908.0" cy="392.22565600943983" r="4" fill="#d62728" />
<circle cx="944.0" cy="377.97606338146875" r="4" fill="#d62728" />
<circle cx="980.0" cy="368.89588132831375" r="4" fill="#d62728" />
<circle cx="1016.0" cy="358.6469629712873" r="4" fill="#d62728" />
<circle cx="1052.0" cy="345.4941844131033" r="4" fill="#d62728" />
<circle cx="1088.0" cy="334.8407034893521" r="4" fill="#d62728" />
<circle cx="1124.0" cy="325.1581727257403" r="4" fill="#d62728" />
<circle cx="1160.0" cy="308.72394223745573" r="4" fill="#d62728" />
<circle cx="1196.0" cy="295.29246502219473" r="4" fill="#d62728" />
<circle cx="1232.0" cy="274.9025116592684" r="4" fill="#d62728" />
<circle cx="1268.0" cy="268.92397595100294" r="4" fill="#d62728" />
<circle cx="1304.0" cy="262.1093442715064" r="4" fill="#d62728" />
<circle cx="1340.0" cy="253.137045569478" r="4" fill="#d62728" />
<circle cx="1376.0" cy="245.8639096476934" r="4" fill="#d62728" />
<circle cx="1412.0" cy="235.12052593133672" r="4" fill="#d62728" />
<circle cx="1448.0" cy="223.68489071191777" r="4" fill="#d62728" />
<circle cx="1484.0" cy="218.20981064224304" r="4" fill="#d62728" />
<circle cx="1520.0" cy="212.24026521323822" r="4" fill="#d62728" />
<path d="M 80.0 920.0 L 116.0 856.5466089790414 L 152.0 764.7109063325279 L 188.0 732.9302691464853 L 224.0 710.4276001573298 L 260.0 699.2077316401641 L 296.0 677.1186154969939 L 332.0 653.9147047255155 L 368.0 632.5538012024499 L 404.0 614.6541551946957 L 440.0 598.0311288419397 L 476.0 587.5664437826599 L 512.0 577.2006517952464 L 548.0 562.3756812946002 L 584.0 540.4843512951621 L 620.0 516.9298196325224 L 656.0 501.7811990784964 L 692.0 480.28544136652243 L 728.0 471.2951621059729 L 764.0 463.1050176996123 L 800.0 445.51104118671685 L 836.0 429.0588301399112 L 872.0 413.61353037028715 L 908.0 392.22565600943983 L 944.0 377.97606338146875 L 980.0 368.89588132831375 L 1016.0 358.6469629712873 L 1052.0 345.4941844131033 L 1088.0 334.8407034893521 L 1124.0 325.1581727257403 L 1160.0 308.72394223745573 L 1196.0 295.29246502219473 L 1232.0 274.9025116592684 L 1268.0 268.92397595100294 L 1304.0 262.1093442715064 L 1340.0 253.137045569478 L 1376.0 245.8639096476934 L 1412.0 235.12052593133672 L 1448.0 223.68489071191777 L 1484.0 218.20981064224304 L 1520.0 212.24026521323822" fill="none" stroke="#d62728" stroke-width="2" />
<circle cx="80.0" cy="920.0" r="4" fill="#9467bd" />
<circle cx="116.0" cy="863.2443670281508" r="4" fill="#9467bd" />
<circle cx="152.0" cy="771.0580434904759" r="4" fill="#9467bd" />
<circle cx="188.0" cy="733.6854526043716" r="4" fill="#9467bd" />
<circle cx="224.0" cy="711.1108613811316" r="4" fill="#9467bd" />
<circle cx="260.0" cy="701.0417486093162" r="4" fill="#9467bd" />
<circle cx="296.0" cy="678.7638366016745" r="4" fill="#9467bd" />
<circle cx="332.0" cy="654.4900825981907" r="4" fill="#9467bd" />
<circle cx="368.0" cy="632.5268303646683" r="4" fill="#9467bd" />
<circle cx="404.0" cy="614.4293982131819" r="4" fill="#9467bd" />
<circle cx="440.0" cy="597.9951677248974" r="4" fill="#9467bd" />
<circle cx="476.0" cy="587.5214923863573" r="4" fill="#9467bd" />
<circle cx="512.0" cy="577.0837781648593" r="4" fill="#9467bd" />
<circle cx="548.0" cy="561.5755464404112" r="4" fill="#9467bd" />
<circle cx="584.0" cy="539.8460414676631" r="4" fill="#9467bd" />
<circle cx="620.0" cy="515.8330055627353" r="4" fill="#9467bd" />
<circle cx="656.0" cy="500.27083216272405" r="4" fill="#9467bd" />
<circle cx="692.0" cy="481.5890318593021" r="4" fill="#9467bd" />
<circle cx="728.0" cy="472.589762319492" r="4" fill="#9467bd" />
<circle cx="764.0" cy="464.30971512052594" r="4" fill="#9467bd" />
<circle cx="800.0" cy="446.4550205090746" r="4" fill="#9467bd" />
<circle cx="836.0" cy="429.4903635444176" r="4" fill="#9467bd" />
<circle cx="872.0" cy="414.0630443333146" r="4" fill="#9467bd" />
<circle cx="908.0" cy="392.59425745912233" r="4" fill="#9467bd" />
<circle cx="944.0" cy="378.1378884081587" r="4" fill="#9467bd" />
<circle cx="980.0" cy="369.0846771927853" r="4" fill="#9467bd" />
<circle cx="1016.0" cy="358.83575883575884" r="4" fill="#9467bd" />
<circle cx="1052.0" cy="345.66499971905375" r="4" fill="#9467bd" />
<circle cx="1088.0" cy="334.66089790414117" r="4" fill="#9467bd" />
<circle cx="1124.0" cy="324.97836714052926" r="4" fill="#9467bd" />
<circle cx="1160.0" cy="308.76889363375847" r="4" fill="#9467bd" />
<circle cx="1196.0" cy="295.64308591335623" r="4" fill="#9467bd" />
<circle cx="1232.0" cy="275.1362589200427" r="4" fill="#9467bd" />
<circle cx="1268.0" cy="269.103781536214" r="4" fill="#9467bd" />
<circle cx="1304.0" cy="262.5678485137945" r="4" fill="#9467bd" />
<circle cx="1340.0" cy="253.56857897398436" r="4" fill="#9467bd" />
<circle cx="1376.0" cy="246.26847221441813" r="4" fill="#9467bd" />
<circle cx="1412.0" cy="235.44417598471648" r="4" fill="#9467bd" />
<circle cx="1448.0" cy="223.33426982075628" r="4" fill="#9467bd" />
<circle cx="1484.0" cy="217.83221891330004" r="4" fill="#9467bd" />
<circle cx="1520.0" cy="211.8626734842951" r="4" fill="#9467bd" />
<path d="M 80.0 920.0 L 116.0 863.2443670281508 L 152.0 771.0580434904759 L 188.0 733.6854526043716 L 224.0 711.1108613811316 L 260.0 701.0417486093162 L 296.0 678.7638366016745 L 332.0 654.4900825981907 L 368.0 632.5268303646683 L 404.0 614.4293982131819 L 440.0 597.9951677248974 L 476.0 587.5214923863573 L 512.0 577.0837781648593 L 548.0 561.5755464404112 L 584.0 539.8460414676631 L 620.0 515.8330055627353 L 656.0 500.27083216272405 L 692.0 481.5890318593021 L 728.0 472.589762319492 L 764.0 464.30971512052594 L 800.0 446.4550205090746 L 836.0 429.4903635444176 L 872.0 414.0630443333146 L 908.0 392.59425745912233 L 944.0 378.1378884081587 L 980.0 369.0846771927853 L 1016.0 358.83575883575884 L 1052.0 345.66499971905375 L 1088.0 334.66089790414117 L 1124.0 324.97836714052926 L 1160.0 308.76889363375847 L 1196.0 295.64308591335623 L 1232.0 275.1362589200427 L 1268.0 269.103781536214 L 1304.0 262.5678485137945 L 1340.0 253.56857897398436 L 1376.0 246.26847221441813 L 1412.0 235.44417598471648 L 1448.0 223.33426982075628 L 1484.0 217.83221891330004 L 1520.0 211.8626734842951" fill="none" stroke="#9467bd" stroke-width="2" />
<circle cx="80.0" cy="920.0" r="4" fill="#66ffbd" />
<circle cx="116.0" cy="636.9050963645559" r="4" fill="#66ffbd" />
<circle cx="152.0" cy="663.3814687868742" r="4" fill="#66ffbd" />
<circle cx="188.0" cy="679.590942293645" r="4" fill="#66ffbd" />
<circle cx="224.0" cy="691.7278192953869" r="4" fill="#66ffbd" />
<circle cx="260.0" cy="694.7935045232342" r="4" fill="#66ffbd" />
<circle cx="296.0" cy="702.7499016688206" r="4" fill="#66ffbd" />
<circle cx="332.0" cy="708.6205540259594" r="4" fill="#66ffbd" />
<circle cx="368.0" cy="716.2982525144687" r="4" fill="#66ffbd" />
<circle cx="404.0" cy="722.3846715738607" r="4" fill="#66ffbd" />
<circle cx="440.0" cy="726.6820250604035" r="4" fill="#66ffbd" />
<circle cx="476.0" cy="730.763611844693" r="4" fill="#66ffbd" />
<circle cx="512.0" cy="733.0920941731753" r="4" fill="#66ffbd" />
<circle cx="548.0" cy="739.5650952407709" r="4" fill="#66ffbd" />
<circle cx="584.0" cy="749.7420913637129" r="4" fill="#66ffbd" />
<circle cx="620.0" cy="757.6625273922571" r="4" fill="#66ffbd" />
<circle cx="656.0" cy="763.0926560656291" r="4" fill="#66ffbd" />
<circle cx="692.0" cy="771.7323144350171" r="4" fill="#66ffbd" />
<circle cx="728.0" cy="772.7212451536776" r="4" fill="#66ffbd" />
<circle cx="764.0" cy="774.6451649154352" r="4" fill="#66ffbd" />
<circle cx="800.0" cy="778.0704613137045" r="4" fill="#66ffbd" />
<circle cx="836.0" cy="783.8242400404563" r="4" fill="#66ffbd" />
<circle cx="872.0" cy="785.3975389110524" r="4" fill="#66ffbd" />
<circle cx="908.0" cy="788.5261560937237" r="4" fill="#66ffbd" />
<circle cx="944.0" cy="791.8615496993875" r="4" fill="#66ffbd" />
<circle cx="980.0" cy="787.303478114289" r="4" fill="#66ffbd" />
<circle cx="1016.0" cy="794.1630611900882" r="4" fill="#66ffbd" />
<circle cx="1052.0" cy="795.7813114569872" r="4" fill="#66ffbd" />
<circle cx="1088.0" cy="799.5032870708546" r="4" fill="#66ffbd" />
<circle cx="1124.0" cy="801.8587402371186" r="4" fill="#66ffbd" />
<circle cx="1160.0" cy="804.9064449064449" r="4" fill="#66ffbd" />
<circle cx="1196.0" cy="806.0482103725346" r="4" fill="#66ffbd" />
<circle cx="1232.0" cy="813.3303365735799" r="4" fill="#66ffbd" />
<circle cx="1268.0" cy="814.3732089678035" r="4" fill="#66ffbd" />
<circle cx="1304.0" cy="816.1622745406529" r="4" fill="#66ffbd" />
<circle cx="1340.0" cy="818.3469124009664" r="4" fill="#66ffbd" />
<circle cx="1376.0" cy="819.6864640107883" r="4" fill="#66ffbd" />
<circle cx="1412.0" cy="821.250772602124" r="4" fill="#66ffbd" />
<circle cx="1448.0" cy="823.6691577232118" r="4" fill="#66ffbd" />
<circle cx="1484.0" cy="822.6172950497275" r="4" fill="#66ffbd" />
<circle cx="1520.0" cy="824.6580884418722" r="4" fill="#66ffbd" />
<path d="M 80.0 920.0 L 116.0 636.9050963645559 L 152.0 663.3814687868742 L 188.0 679.590942293645 L 224.0 691.7278192953869 L 260.0 694.7935045232342 L 296.0 702.7499016688206 L 332.0 708.6205540259594 L 368.0 716.2982525144687 L 404.0 722.3846715738607 L 440.0 726.6820250604035 L 476.0 730.763611844693 L 512.0 733.0920941731753 L 548.0 739.5650952407709 L 584.0 749.7420913637129 L 620.0 757.6625273922571 L 656.0 763.0926560656291 L 692.0 771.7323144350171 L 728.0 772.7212451536776 L 764.0 774.6451649154352 L 800.0 778.0704613137045 L 836.0 783.8242400404563 L 872.0 785.3975389110524 L 908.0 788.5261560937237 L 944.0 791.8615496993875 L 980.0 787.303478114289 L 1016.0 794.1630611900882 L 1052.0 795.7813114569872 L 1088.0 799.5032870708546 L 1124.0 801.8587402371186 L 1160.0 804.9064449064449 L 1196.0 806.0482103725346 L 1232.0 813.3303365735799 L 1268.0 814.3732089678035 L 1304.0 816.1622745406529 L 1340.0 818.3469124009664 L 1376.0 819.6864640107883 L 1412.0 821.250772602124 L 1448.0 823.6691577232118 L 1484.0 822.6172950497275 L 1520.0 824.6580884418722" fill="none" stroke="#66ffbd" stroke-width="2" />
<text x="80.0" y="940" text-anchor="middle">08-06</text>
<text x="116.0" y="940" text-anchor="middle">08-07</text>
<text x="152.0" y="940" text-anchor="middle">08-08</text>
<text x="188.0" y="940" text-anchor="middle">08-09</text>
<text x="224.0" y="940" text-anchor="middle">08-10</text>
<text x="260.0" y="940" text-anchor="middle">08-11</text>
<text x="296.0" y="940" text-anchor="middle">08-12</text>
<text x="332.0" y="940" text-anchor="middle">08-13</text>
<text x="368.0" y="940" text-anchor="middle">08-14</text>
<text x="404.0" y="940" text-anchor="middle">08-15</text>
<text x="440.0" y="940" text-anchor="middle">08-16</text>
<text x="476.0" y="940" text-anchor="middle">08-17</text>
<text x="512.0" y="940" text-anchor="middle">08-18</text>
<text x="548.0" y="940" text-anchor="middle">08-19</text>
<text x="584.0" y="940" text-anchor="middle">08-20</text>
<text x="620.0" y="940" text-anchor="middle">08-21</text>
<text x="656.0" y="940" text-anchor="middle">08-22</text>
<text x="692.0" y="940" text-anchor="middle">08-23</text>
<text x="728.0" y="940" text-anchor="middle">08-24</text>
<text x="764.0" y="940" text-anchor="middle">08-25</text>
<text x="800.0" y="940" text-anchor="middle">08-26</text>
<text x="836.0" y="940" text-anchor="middle">08-27</text>
<text x="872.0" y="940" text-anchor="middle">08-28</text>
<text x="908.0" y="940" text-anchor="middle">08-29</text>
<text x="944.0" y="940" text-anchor="middle">08-30</text>
<text x="980.0" y="940" text-anchor="middle">08-31</text>
<text x="1016.0" y="940" text-anchor="middle">09-01</text>
<text x="1052.0" y="940" text-anchor="middle">09-02</text>
<text x="1088.0" y="940" text-anchor="middle">09-03</text>
<text x="1124.0" y="940" text-anchor="middle">09-04</text>
<text x="1160.0" y="940" text-anchor="middle">09-05</text>
<text x="1196.0" y="940" text-anchor="middle">09-06</text>
<text x="1232.0" y="940" text-anchor="middle">09-07</text>
<text x="1268.0" y="940" text-anchor="middle">09-08</text>
<text x="1304.0" y="940" text-anchor="middle">09-09</text>
<text x="1340.0" y="940" text-anchor="middle">09-10</text>
<text x="1376.0" y="940" text-anchor="middle">09-11</text>
<text x="1412.0" y="940" text-anchor="middle">09-12</text>
<text x="1448.0" y="940" text-anchor="middle">09-13</text>
<text x="1484.0" y="940" text-anchor="middle">09-14</text>
<text x="1520.0" y="940" text-anchor="middle">09-15</text>
<rect x="90" y="100" width="130" height="185" class="legend-box" />
<text x="100" y="120" class="legend-item">图例:</text>
<rect x="100" y="137" width="15" height="15" fill="#1f77b4" rx="3" />
<text x="120" y="145" class="legend-item">构件聚合数据</text>
<rect x="100" y="162" width="15" height="15" fill="#ff7f0e" rx="3" />
<text x="120" y="170" class="legend-item">构件基本信息</text>
<rect x="100" y="187" width="15" height="15" fill="#2ca02c" rx="3" />
<text x="120" y="195" class="legend-item">构件徽标</text>
<rect x="100" y="212" width="15" height="15" fill="#d62728" rx="3" />
<text x="120" y="220" class="legend-item">构件扩展元数据</text>
<rect x="100" y="237" width="15" height="15" fill="#9467bd" rx="3" />
<text x="120" y="245" class="legend-item">构件版本信息</text>
<rect x="100" y="262" width="15" height="15" fill="#66ffbd" rx="3" />
<text x="120" y="270" class="legend-item">数据量偏差</text>
<text x="1520" y="990" text-anchor="end" font-size="10" fill="#666">生成时间: 2025-09-15 07:44:08</text>
</svg>