<svg xmlns="http://www.w3.org/2000/svg" width="1600" height="1000" viewBox="0 0 1600 1000">
<style>
  text {
    font-family: Arial, sans-serif;
    font-size: 12px;
    fill: #333;
  }
  .axis-label { font-size: 14px; }
  .title { font-size: 18px; font-weight: bold; }
  .legend-item { font-size: 11px; }
  .legend-box { fill: white; fill-opacity: 0.85; stroke: #cccccc; stroke-width: 1; rx: 5; }
</style>
<text x="800.0" y="30" text-anchor="middle" class="title">Daily Data Growth Trend</text>
<text x="800.0" y="980" text-anchor="middle" class="axis-label">Date</text>
<g transform="rotate(-90)">
<text x="-500.0" y="20" text-anchor="middle" class="axis-label">Count</text>
</g>
<rect x="0" y="0" width="1600" height="1000" fill="#f8f8f8" />
<line x1="80" y1="920.0" x2="1520" y2="920.0" stroke="#e0e0e0" stroke-width="1" />
<text x="70" y="925.0" text-anchor="end">0</text>
<line x1="80" y1="752.0" x2="1520" y2="752.0" stroke="#e0e0e0" stroke-width="1" />
<text x="70" y="757.0" text-anchor="end">22.2k</text>
<line x1="80" y1="584.0" x2="1520" y2="584.0" stroke="#e0e0e0" stroke-width="1" />
<text x="70" y="589.0" text-anchor="end">44.4k</text>
<line x1="80" y1="416.0" x2="1520" y2="416.0" stroke="#e0e0e0" stroke-width="1" />
<text x="70" y="421.0" text-anchor="end">66.6k</text>
<line x1="80" y1="248.0" x2="1520" y2="248.0" stroke="#e0e0e0" stroke-width="1" />
<text x="70" y="253.0" text-anchor="end">88.8k</text>
<line x1="80" y1="80.0" x2="1520" y2="80.0" stroke="#e0e0e0" stroke-width="1" />
<text x="70" y="85.0" text-anchor="end">111.0k</text>
<line x1="80" y1="80" x2="80" y2="920" stroke="#333333" stroke-width="2" />
<line x1="80" y1="920" x2="1520" y2="920" stroke="#333333" stroke-width="2" />
<circle cx="80.0" cy="920.0" r="4" fill="#1f77b4" />
<circle cx="105.26315789473685" cy="883.0194246373248" r="4" fill="#1f77b4" />
<circle cx="130.5263157894737" cy="804.6475383480547" r="4" fill="#1f77b4" />
<circle cx="155.78947368421052" cy="773.1217491630573" r="4" fill="#1f77b4" />
<circle cx="181.05263157894737" cy="754.147264095629" r="4" fill="#1f77b4" />
<circle cx="206.31578947368422" cy="744.6221936411265" r="4" fill="#1f77b4" />
<circle cx="231.57894736842104" cy="725.6477085736983" r="4" fill="#1f77b4" />
<circle cx="256.8421052631579" cy="705.1676722588943" r="4" fill="#1f77b4" />
<circle cx="282.10526315789474" cy="686.2915397855157" r="4" fill="#1f77b4" />
<circle cx="307.36842105263156" cy="670.9031416088214" r="4" fill="#1f77b4" />
<circle cx="332.63157894736844" cy="656.8689829963496" r="4" fill="#1f77b4" />
<circle cx="357.89473684210526" cy="648.0475118685101" r="4" fill="#1f77b4" />
<circle cx="383.1578947368421" cy="639.3168277505627" r="4" fill="#1f77b4" />
<circle cx="408.42105263157896" cy="626.1905392370109" r="4" fill="#1f77b4" />
<circle cx="433.6842105263158" cy="607.5489398725199" r="4" fill="#1f77b4" />
<circle cx="458.94736842105266" cy="587.3866580923379" r="4" fill="#1f77b4" />
<circle cx="484.2105263157895" cy="574.0031397174255" r="4" fill="#1f77b4" />
<circle cx="509.4736842105263" cy="555.6868604717142" r="4" fill="#1f77b4" />
<circle cx="534.7368421052631" cy="548.1212763140475" r="4" fill="#1f77b4" />
<circle cx="560.0" cy="541.1533733048364" r="4" fill="#1f77b4" />
<circle cx="585.2631578947369" cy="526.1659510884984" r="4" fill="#1f77b4" />
<circle cx="610.5263157894736" cy="511.42819314936355" r="4" fill="#1f77b4" />
<circle cx="635.7894736842105" cy="498.3775604773884" r="4" fill="#1f77b4" />
<circle cx="661.0526315789474" cy="480.3639045979838" r="4" fill="#1f77b4" />
<circle cx="686.3157894736842" cy="467.96391216356795" r="4" fill="#1f77b4" />
<circle cx="711.578947368421" cy="460.3226721643245" r="4" fill="#1f77b4" />
<circle cx="736.8421052631579" cy="451.70547180874206" r="4" fill="#1f77b4" />
<circle cx="762.1052631578948" cy="440.63702218607557" r="4" fill="#1f77b4" />
<circle cx="787.3684210526316" cy="431.0287303058388" r="4" fill="#1f77b4" />
<circle cx="812.6315789473684" cy="422.8654649997163" r="4" fill="#1f77b4" />
<circle cx="837.8947368421053" cy="409.0053148228708" r="4" fill="#1f77b4" />
<circle cx="863.1578947368421" cy="397.694766507159" r="4" fill="#1f77b4" />
<circle cx="888.421052631579" cy="380.4452346276787" r="4" fill="#1f77b4" />
<circle cx="913.6842105263158" cy="375.39142441035733" r="4" fill="#1f77b4" />
<circle cx="938.9473684210526" cy="369.65671161884586" r="4" fill="#1f77b4" />
<circle cx="964.2105263157895" cy="362.05329954039075" r="4" fill="#1f77b4" />
<circle cx="989.4736842105264" cy="355.94030754099606" r="4" fill="#1f77b4" />
<circle cx="1014.7368421052631" cy="346.8540409676383" r="4" fill="#1f77b4" />
<circle cx="1040.0" cy="336.6631991072611" r="4" fill="#1f77b4" />
<circle cx="1065.2631578947369" cy="332.03306160276907" r="4" fill="#1f77b4" />
<circle cx="1090.5263157894738" cy="327.0095137220783" r="4" fill="#1f77b4" />
<circle cx="1115.7894736842106" cy="318.6949367328025" r="4" fill="#1f77b4" />
<circle cx="1141.0526315789473" cy="311.71946813943373" r="4" fill="#1f77b4" />
<circle cx="1166.3157894736842" cy="288.65200204270775" r="4" fill="#1f77b4" />
<circle cx="1191.578947368421" cy="279.7397439049763" r="4" fill="#1f77b4" />
<circle cx="1216.842105263158" cy="270.28276370789285" r="4" fill="#1f77b4" />
<circle cx="1242.1052631578948" cy="263.56452497588475" r="4" fill="#1f77b4" />
<circle cx="1267.3684210526317" cy="256.7101057290387" r="4" fill="#1f77b4" />
<circle cx="1292.6315789473683" cy="252.39015717501093" r="4" fill="#1f77b4" />
<circle cx="1317.8947368421052" cy="244.13610485899642" r="4" fill="#1f77b4" />
<circle cx="1343.157894736842" cy="243.6670386412211" r="4" fill="#1f77b4" />
<circle cx="1368.421052631579" cy="243.6367763045904" r="4" fill="#1f77b4" />
<circle cx="1393.6842105263158" cy="242.77429971061645" r="4" fill="#1f77b4" />
<circle cx="1418.9473684210527" cy="242.57002893835943" r="4" fill="#1f77b4" />
<circle cx="1444.2105263157896" cy="242.57002893835943" r="4" fill="#1f77b4" />
<circle cx="1469.4736842105262" cy="242.56246335420178" r="4" fill="#1f77b4" />
<circle cx="1494.7368421052631" cy="242.5473321858865" r="4" fill="#1f77b4" />
<circle cx="1520.0" cy="242.53976660172873" r="4" fill="#1f77b4" />
<path d="M 80.0 920.0 L 105.26315789473685 883.0194246373248 L 130.5263157894737 804.6475383480547 L 155.78947368421052 773.1217491630573 L 181.05263157894737 754.147264095629 L 206.31578947368422 744.6221936411265 L 231.57894736842104 725.6477085736983 L 256.8421052631579 705.1676722588943 L 282.10526315789474 686.2915397855157 L 307.36842105263156 670.9031416088214 L 332.63157894736844 656.8689829963496 L 357.89473684210526 648.0475118685101 L 383.1578947368421 639.3168277505627 L 408.42105263157896 626.1905392370109 L 433.6842105263158 607.5489398725199 L 458.94736842105266 587.3866580923379 L 484.2105263157895 574.0031397174255 L 509.4736842105263 555.6868604717142 L 534.7368421052631 548.1212763140475 L 560.0 541.1533733048364 L 585.2631578947369 526.1659510884984 L 610.5263157894736 511.42819314936355 L 635.7894736842105 498.3775604773884 L 661.0526315789474 480.3639045979838 L 686.3157894736842 467.96391216356795 L 711.578947368421 460.3226721643245 L 736.8421052631579 451.70547180874206 L 762.1052631578948 440.63702218607557 L 787.3684210526316 431.0287303058388 L 812.6315789473684 422.8654649997163 L 837.8947368421053 409.0053148228708 L 863.1578947368421 397.694766507159 L 888.421052631579 380.4452346276787 L 913.6842105263158 375.39142441035733 L 938.9473684210526 369.65671161884586 L 964.2105263157895 362.05329954039075 L 989.4736842105264 355.94030754099606 L 1014.7368421052631 346.8540409676383 L 1040.0 336.6631991072611 L 1065.2631578947369 332.03306160276907 L 1090.5263157894738 327.0095137220783 L 1115.7894736842106 318.6949367328025 L 1141.0526315789473 311.71946813943373 L 1166.3157894736842 288.65200204270775 L 1191.578947368421 279.7397439049763 L 1216.842105263158 270.28276370789285 L 1242.1052631578948 263.56452497588475 L 1267.3684210526317 256.7101057290387 L 1292.6315789473683 252.39015717501093 L 1317.8947368421052 244.13610485899642 L 1343.157894736842 243.6670386412211 L 1368.421052631579 243.6367763045904 L 1393.6842105263158 242.77429971061645 L 1418.9473684210527 242.57002893835943 L 1444.2105263157896 242.57002893835943 L 1469.4736842105262 242.56246335420178 L 1494.7368421052631 242.5473321858865 L 1520.0 242.53976660172873" fill="none" stroke="#1f77b4" stroke-width="2" />
<circle cx="80.0" cy="920.0" r="4" fill="#ff7f0e" />
<circle cx="105.26315789473685" cy="650.0902195910802" r="4" fill="#ff7f0e" />
<circle cx="130.5263157894737" cy="593.7795767055663" r="4" fill="#ff7f0e" />
<circle cx="155.78947368421052" cy="575.7205273212157" r="4" fill="#ff7f0e" />
<circle cx="181.05263157894737" cy="566.8234003517997" r="4" fill="#ff7f0e" />
<circle cx="206.31578947368422" cy="559.8630629267462" r="4" fill="#ff7f0e" />
<circle cx="231.57894736842104" cy="547.4555049081728" r="4" fill="#ff7f0e" />
<circle cx="256.8421052631579" cy="531.7115242760682" r="4" fill="#ff7f0e" />
<circle cx="282.10526315789474" cy="519.1526545743413" r="4" fill="#ff7f0e" />
<circle cx="307.36842105263156" cy="508.8029354466532" r="4" fill="#ff7f0e" />
<circle cx="332.63157894736844" cy="498.3321669724424" r="4" fill="#ff7f0e" />
<circle cx="357.89473684210526" cy="492.8622496264493" r="4" fill="#ff7f0e" />
<circle cx="383.1578947368421" cy="486.09105180533754" r="4" fill="#ff7f0e" />
<circle cx="408.42105263157896" cy="478.38928713283275" r="4" fill="#ff7f0e" />
<circle cx="433.6842105263158" cy="468.08496151009064" r="4" fill="#ff7f0e" />
<circle cx="458.94736842105266" cy="454.2929015906641" r="4" fill="#ff7f0e" />
<circle cx="484.2105263157895" cy="445.441168126194" r="4" fill="#ff7f0e" />
<circle cx="509.4736842105263" cy="434.3878496718428" r="4" fill="#ff7f0e" />
<circle cx="534.7368421052631" cy="427.66204535567704" r="4" fill="#ff7f0e" />
<circle cx="560.0" cy="422.2980461878913" r="4" fill="#ff7f0e" />
<circle cx="585.2631578947369" cy="410.10989010989016" r="4" fill="#ff7f0e" />
<circle cx="610.5263157894736" cy="400.191409279189" r="4" fill="#ff7f0e" />
<circle cx="635.7894736842105" cy="388.4496226664902" r="4" fill="#ff7f0e" />
<circle cx="661.0526315789474" cy="373.0460933214806" r="4" fill="#ff7f0e" />
<circle cx="686.3157894736842" cy="363.4226702729285" r="4" fill="#ff7f0e" />
<circle cx="711.578947368421" cy="351.93811352159037" r="4" fill="#ff7f0e" />
<circle cx="736.8421052631579" cy="349.08588829415" r="4" fill="#ff7f0e" />
<circle cx="762.1052631578948" cy="339.37167823570576" r="4" fill="#ff7f0e" />
<circle cx="787.3684210526316" cy="332.8728414442701" r="4" fill="#ff7f0e" />
<circle cx="812.6315789473684" cy="326.653931266668" r="4" fill="#ff7f0e" />
<circle cx="837.8947368421053" cy="315.0937186737531" r="4" fill="#ff7f0e" />
<circle cx="863.1578947368421" cy="304.71373720943427" r="4" fill="#ff7f0e" />
<circle cx="888.421052631579" cy="293.27457396304214" r="4" fill="#ff7f0e" />
<circle cx="913.6842105263158" cy="289.09837150801013" r="4" fill="#ff7f0e" />
<circle cx="938.9473684210526" cy="284.81625087477073" r="4" fill="#ff7f0e" />
<circle cx="964.2105263157895" cy="279.0437101624709" r="4" fill="#ff7f0e" />
<circle cx="989.4736842105264" cy="274.03529345009554" r="4" fill="#ff7f0e" />
<circle cx="1014.7368421052631" cy="266.26543852017176" r="4" fill="#ff7f0e" />
<circle cx="1040.0" cy="258.07191087741865" r="4" fill="#ff7f0e" />
<circle cx="1065.2631578947369" cy="252.54903444232195" r="4" fill="#ff7f0e" />
<circle cx="1090.5263157894738" cy="249.24287416542154" r="4" fill="#ff7f0e" />
<circle cx="1115.7894736842106" cy="242.35819258194476" r="4" fill="#ff7f0e" />
<circle cx="1141.0526315789473" cy="237.70535832497967" r="4" fill="#ff7f0e" />
<circle cx="1166.3157894736842" cy="215.31879480244368" r="4" fill="#ff7f0e" />
<circle cx="1191.578947368421" cy="206.6486353577576" r="4" fill="#ff7f0e" />
<circle cx="1216.842105263158" cy="198.77286224962654" r="4" fill="#ff7f0e" />
<circle cx="1242.1052631578948" cy="190.8063021316034" r="4" fill="#ff7f0e" />
<circle cx="1267.3684210526317" cy="186.19129579542664" r="4" fill="#ff7f0e" />
<circle cx="1292.6315789473683" cy="182.7867829244766" r="4" fill="#ff7f0e" />
<circle cx="1317.8947368421052" cy="176.80997143991988" r="4" fill="#ff7f0e" />
<circle cx="1343.157894736842" cy="169.5697074010327" r="4" fill="#ff7f0e" />
<circle cx="1368.421052631579" cy="163.41132189669202" r="4" fill="#ff7f0e" />
<circle cx="1393.6842105263158" cy="158.01706039227554" r="4" fill="#ff7f0e" />
<circle cx="1418.9473684210527" cy="146.72164324487903" r="4" fill="#ff7f0e" />
<circle cx="1444.2105263157896" cy="143.02207259178" r="4" fill="#ff7f0e" />
<circle cx="1469.4736842105262" cy="136.939342929016" r="4" fill="#ff7f0e" />
<circle cx="1494.7368421052631" cy="127.73202700913544" r="4" fill="#ff7f0e" />
<circle cx="1520.0" cy="121.8611337027861" r="4" fill="#ff7f0e" />
<path d="M 80.0 920.0 L 105.26315789473685 650.0902195910802 L 130.5263157894737 593.7795767055663 L 155.78947368421052 575.7205273212157 L 181.05263157894737 566.8234003517997 L 206.31578947368422 559.8630629267462 L 231.57894736842104 547.4555049081728 L 256.8421052631579 531.7115242760682 L 282.10526315789474 519.1526545743413 L 307.36842105263156 508.8029354466532 L 332.63157894736844 498.3321669724424 L 357.89473684210526 492.8622496264493 L 383.1578947368421 486.09105180533754 L 408.42105263157896 478.38928713283275 L 433.6842105263158 468.08496151009064 L 458.94736842105266 454.2929015906641 L 484.2105263157895 445.441168126194 L 509.4736842105263 434.3878496718428 L 534.7368421052631 427.66204535567704 L 560.0 422.2980461878913 L 585.2631578947369 410.10989010989016 L 610.5263157894736 400.191409279189 L 635.7894736842105 388.4496226664902 L 661.0526315789474 373.0460933214806 L 686.3157894736842 363.4226702729285 L 711.578947368421 351.93811352159037 L 736.8421052631579 349.08588829415 L 762.1052631578948 339.37167823570576 L 787.3684210526316 332.8728414442701 L 812.6315789473684 326.653931266668 L 837.8947368421053 315.0937186737531 L 863.1578947368421 304.71373720943427 L 888.421052631579 293.27457396304214 L 913.6842105263158 289.09837150801013 L 938.9473684210526 284.81625087477073 L 964.2105263157895 279.0437101624709 L 989.4736842105264 274.03529345009554 L 1014.7368421052631 266.26543852017176 L 1040.0 258.07191087741865 L 1065.2631578947369 252.54903444232195 L 1090.5263157894738 249.24287416542154 L 1115.7894736842106 242.35819258194476 L 1141.0526315789473 237.70535832497967 L 1166.3157894736842 215.31879480244368 L 1191.578947368421 206.6486353577576 L 1216.842105263158 198.77286224962654 L 1242.1052631578948 190.8063021316034 L 1267.3684210526317 186.19129579542664 L 1292.6315789473683 182.7867829244766 L 1317.8947368421052 176.80997143991988 L 1343.157894736842 169.5697074010327 L 1368.421052631579 163.41132189669202 L 1393.6842105263158 158.01706039227554 L 1418.9473684210527 146.72164324487903 L 1444.2105263157896 143.02207259178 L 1469.4736842105262 136.939342929016 L 1494.7368421052631 127.73202700913544 L 1520.0 121.8611337027861" fill="none" stroke="#ff7f0e" stroke-width="2" />
<circle cx="80.0" cy="920.0" r="4" fill="#2ca02c" />
<circle cx="105.26315789473685" cy="644.7867450965557" r="4" fill="#2ca02c" />
<circle cx="130.5263157894737" cy="588.6955041516144" r="4" fill="#2ca02c" />
<circle cx="155.78947368421052" cy="570.8104632028901" r="4" fill="#2ca02c" />
<circle cx="181.05263157894737" cy="562.0495167483119" r="4" fill="#2ca02c" />
<circle cx="206.31578947368422" cy="555.1043104915739" r="4" fill="#2ca02c" />
<circle cx="231.57894736842104" cy="542.8253674036807" r="4" fill="#2ca02c" />
<circle cx="256.8421052631579" cy="527.2856575438332" r="4" fill="#2ca02c" />
<circle cx="282.10526315789474" cy="514.8705339411019" r="4" fill="#2ca02c" />
<circle cx="307.36842105263156" cy="504.6040362391481" r="4" fill="#2ca02c" />
<circle cx="332.63157894736844" cy="494.18622685404097" r="4" fill="#2ca02c" />
<circle cx="357.89473684210526" cy="488.79953093378225" r="4" fill="#2ca02c" />
<circle cx="383.1578947368421" cy="482.0283331126705" r="4" fill="#2ca02c" />
<circle cx="408.42105263157896" cy="474.3492651926387" r="4" fill="#2ca02c" />
<circle cx="433.6842105263158" cy="464.27190709462656" r="4" fill="#2ca02c" />
<circle cx="458.94736842105266" cy="450.77490495734907" r="4" fill="#2ca02c" />
<circle cx="484.2105263157895" cy="441.96099941366725" r="4" fill="#2ca02c" />
<circle cx="509.4736842105263" cy="430.91524654347376" r="4" fill="#2ca02c" />
<circle cx="534.7368421052631" cy="424.18187664315036" r="4" fill="#2ca02c" />
<circle cx="560.0" cy="418.83300864367993" r="4" fill="#2ca02c" />
<circle cx="585.2631578947369" cy="406.7280739914131" r="4" fill="#2ca02c" />
<circle cx="610.5263157894736" cy="396.8322899131849" r="4" fill="#2ca02c" />
<circle cx="635.7894736842105" cy="385.10563446880144" r="4" fill="#2ca02c" />
<circle cx="661.0526315789474" cy="369.7248018762649" r="4" fill="#2ca02c" />
<circle cx="686.3157894736842" cy="360.1316411643435" r="4" fill="#2ca02c" />
<circle cx="711.578947368421" cy="348.6546499971629" r="4" fill="#2ca02c" />
<circle cx="736.8421052631579" cy="345.80999035388027" r="4" fill="#2ca02c" />
<circle cx="762.1052631578948" cy="336.1033458795938" r="4" fill="#2ca02c" />
<circle cx="787.3684210526316" cy="329.62720584063095" r="4" fill="#2ca02c" />
<circle cx="812.6315789473684" cy="323.4461235838172" r="4" fill="#2ca02c" />
<circle cx="837.8947368421053" cy="312.1507064364207" r="4" fill="#2ca02c" />
<circle cx="863.1578947368421" cy="301.8009873087326" r="4" fill="#2ca02c" />
<circle cx="888.421052631579" cy="290.6795785969624" r="4" fill="#2ca02c" />
<circle cx="913.6842105263158" cy="286.5033761419304" r="4" fill="#2ca02c" />
<circle cx="938.9473684210526" cy="282.27421459779464" r="4" fill="#2ca02c" />
<circle cx="964.2105263157895" cy="276.5092394696526" r="4" fill="#2ca02c" />
<circle cx="989.4736842105264" cy="271.52351950975014" r="4" fill="#2ca02c" />
<circle cx="1014.7368421052631" cy="263.75366457982636" r="4" fill="#2ca02c" />
<circle cx="1040.0" cy="255.5979648578616" r="4" fill="#2ca02c" />
<circle cx="1065.2631578947369" cy="250.08265400692255" r="4" fill="#2ca02c" />
<circle cx="1090.5263157894738" cy="246.77649373002214" r="4" fill="#2ca02c" />
<circle cx="1115.7894736842106" cy="239.89937773070312" r="4" fill="#2ca02c" />
<circle cx="1141.0526315789473" cy="235.32219931531472" r="4" fill="#2ca02c" />
<circle cx="1166.3157894736842" cy="213.13234098087798" r="4" fill="#2ca02c" />
<circle cx="1191.578947368421" cy="204.4773127045072" r="4" fill="#2ca02c" />
<circle cx="1216.842105263158" cy="196.83607270526375" r="4" fill="#2ca02c" />
<circle cx="1242.1052631578948" cy="188.87707817139835" r="4" fill="#2ca02c" />
<circle cx="1267.3684210526317" cy="184.2620718352216" r="4" fill="#2ca02c" />
<circle cx="1292.6315789473683" cy="180.85755896427156" r="4" fill="#2ca02c" />
<circle cx="1317.8947368421052" cy="174.89587864803013" r="4" fill="#2ca02c" />
<circle cx="1343.157894736842" cy="167.65561460914307" r="4" fill="#2ca02c" />
<circle cx="1368.421052631579" cy="161.49722910480227" r="4" fill="#2ca02c" />
<circle cx="1393.6842105263158" cy="156.1180987687012" r="4" fill="#2ca02c" />
<circle cx="1418.9473684210527" cy="144.8226816213047" r="4" fill="#2ca02c" />
<circle cx="1444.2105263157896" cy="141.12311096820565" r="4" fill="#2ca02c" />
<circle cx="1469.4736842105262" cy="135.04038130544154" r="4" fill="#2ca02c" />
<circle cx="1494.7368421052631" cy="125.8481965538765" r="4" fill="#2ca02c" />
<circle cx="1520.0" cy="120.0" r="4" fill="#2ca02c" />
<path d="M 80.0 920.0 L 105.26315789473685 644.7867450965557 L 130.5263157894737 588.6955041516144 L 155.78947368421052 570.8104632028901 L 181.05263157894737 562.0495167483119 L 206.31578947368422 555.1043104915739 L 231.57894736842104 542.8253674036807 L 256.8421052631579 527.2856575438332 L 282.10526315789474 514.8705339411019 L 307.36842105263156 504.6040362391481 L 332.63157894736844 494.18622685404097 L 357.89473684210526 488.79953093378225 L 383.1578947368421 482.0283331126705 L 408.42105263157896 474.3492651926387 L 433.6842105263158 464.27190709462656 L 458.94736842105266 450.77490495734907 L 484.2105263157895 441.96099941366725 L 509.4736842105263 430.91524654347376 L 534.7368421052631 424.18187664315036 L 560.0 418.83300864367993 L 585.2631578947369 406.7280739914131 L 610.5263157894736 396.8322899131849 L 635.7894736842105 385.10563446880144 L 661.0526315789474 369.7248018762649 L 686.3157894736842 360.1316411643435 L 711.578947368421 348.6546499971629 L 736.8421052631579 345.80999035388027 L 762.1052631578948 336.1033458795938 L 787.3684210526316 329.62720584063095 L 812.6315789473684 323.4461235838172 L 837.8947368421053 312.1507064364207 L 863.1578947368421 301.8009873087326 L 888.421052631579 290.6795785969624 L 913.6842105263158 286.5033761419304 L 938.9473684210526 282.27421459779464 L 964.2105263157895 276.5092394696526 L 989.4736842105264 271.52351950975014 L 1014.7368421052631 263.75366457982636 L 1040.0 255.5979648578616 L 1065.2631578947369 250.08265400692255 L 1090.5263157894738 246.77649373002214 L 1115.7894736842106 239.89937773070312 L 1141.0526315789473 235.32219931531472 L 1166.3157894736842 213.13234098087798 L 1191.578947368421 204.4773127045072 L 1216.842105263158 196.83607270526375 L 1242.1052631578948 188.87707817139835 L 1267.3684210526317 184.2620718352216 L 1292.6315789473683 180.85755896427156 L 1317.8947368421052 174.89587864803013 L 1343.157894736842 167.65561460914307 L 1368.421052631579 161.49722910480227 L 1393.6842105263158 156.1180987687012 L 1418.9473684210527 144.8226816213047 L 1444.2105263157896 141.12311096820565 L 1469.4736842105262 135.04038130544154 L 1494.7368421052631 125.8481965538765 L 1520.0 120.0" fill="none" stroke="#2ca02c" stroke-width="2" />
<circle cx="80.0" cy="920.0" r="4" fill="#d62728" />
<circle cx="105.26315789473685" cy="866.6021070151879" r="4" fill="#d62728" />
<circle cx="130.5263157894737" cy="789.3196648446218" r="4" fill="#d62728" />
<circle cx="155.78947368421052" cy="762.5753248472697" r="4" fill="#d62728" />
<circle cx="181.05263157894737" cy="743.6386677006299" r="4" fill="#d62728" />
<circle cx="206.31578947368422" cy="734.1968186718617" r="4" fill="#d62728" />
<circle cx="231.57894736842104" cy="715.6081783964744" r="4" fill="#d62728" />
<circle cx="256.8421052631579" cy="696.0814056855365" r="4" fill="#d62728" />
<circle cx="282.10526315789474" cy="678.1055777269203" r="4" fill="#d62728" />
<circle cx="307.36842105263156" cy="663.0424996690057" r="4" fill="#d62728" />
<circle cx="332.63157894736844" cy="649.0537345614798" r="4" fill="#d62728" />
<circle cx="357.89473684210526" cy="640.2473946019556" r="4" fill="#d62728" />
<circle cx="383.1578947368421" cy="631.5242760681659" r="4" fill="#d62728" />
<circle cx="408.42105263157896" cy="619.0486277921734" r="4" fill="#d62728" />
<circle cx="433.6842105263158" cy="600.6264303682549" r="4" fill="#d62728" />
<circle cx="458.94736842105266" cy="580.8045998751679" r="4" fill="#d62728" />
<circle cx="484.2105263157895" cy="568.0565905694993" r="4" fill="#d62728" />
<circle cx="509.4736842105263" cy="549.9672788485182" r="4" fill="#d62728" />
<circle cx="534.7368421052631" cy="542.4016946908514" r="4" fill="#d62728" />
<circle cx="560.0" cy="535.509447523217" r="4" fill="#d62728" />
<circle cx="585.2631578947369" cy="520.703599326663" r="4" fill="#d62728" />
<circle cx="610.5263157894736" cy="506.85858031813285" r="4" fill="#d62728" />
<circle cx="635.7894736842105" cy="493.8609067352613" r="4" fill="#d62728" />
<circle cx="661.0526315789474" cy="475.86238202417206" r="4" fill="#d62728" />
<circle cx="686.3157894736842" cy="463.8709311342702" r="4" fill="#d62728" />
<circle cx="711.578947368421" cy="456.22969113502677" r="4" fill="#d62728" />
<circle cx="736.8421052631579" cy="447.6049251952867" r="4" fill="#d62728" />
<circle cx="762.1052631578948" cy="436.5364755726202" r="4" fill="#d62728" />
<circle cx="787.3684210526316" cy="427.57125834578505" r="4" fill="#d62728" />
<circle cx="812.6315789473684" cy="419.42312420797793" r="4" fill="#d62728" />
<circle cx="837.8947368421053" cy="405.5932363677631" r="4" fill="#d62728" />
<circle cx="863.1578947368421" cy="394.29025363620894" r="4" fill="#d62728" />
<circle cx="888.421052631579" cy="377.13150876662064" r="4" fill="#d62728" />
<circle cx="913.6842105263158" cy="372.1003953017723" r="4" fill="#d62728" />
<circle cx="938.9473684210526" cy="366.36568251026085" r="4" fill="#d62728" />
<circle cx="964.2105263157895" cy="358.8152295209094" r="4" fill="#d62728" />
<circle cx="989.4736842105264" cy="352.69467193735704" r="4" fill="#d62728" />
<circle cx="1014.7368421052631" cy="343.65379886894516" r="4" fill="#d62728" />
<circle cx="1040.0" cy="334.03037582039303" r="4" fill="#d62728" />
<circle cx="1065.2631578947369" cy="329.42293506837404" r="4" fill="#d62728" />
<circle cx="1090.5263157894738" cy="324.39938718768326" r="4" fill="#d62728" />
<circle cx="1115.7894736842106" cy="316.1075069508805" r="4" fill="#d62728" />
<circle cx="1141.0526315789473" cy="309.2001286149307" r="4" fill="#d62728" />
<circle cx="1166.3157894736842" cy="286.20075277562376" r="4" fill="#d62728" />
<circle cx="1191.578947368421" cy="277.31119139036525" r="4" fill="#d62728" />
<circle cx="1216.842105263158" cy="267.8542111932818" r="4" fill="#d62728" />
<circle cx="1242.1052631578948" cy="261.12840687711605" r="4" fill="#d62728" />
<circle cx="1267.3684210526317" cy="254.27398763026997" r="4" fill="#d62728" />
<circle cx="1292.6315789473683" cy="249.96160466039987" r="4" fill="#d62728" />
<circle cx="1317.8947368421052" cy="242.05556921563812" r="4" fill="#d62728" />
<circle cx="1343.157894736842" cy="241.59406858202044" r="4" fill="#d62728" />
<circle cx="1368.421052631579" cy="241.59406858202044" r="4" fill="#d62728" />
<circle cx="1393.6842105263158" cy="241.59406858202044" r="4" fill="#d62728" />
<circle cx="1418.9473684210527" cy="241.59406858202044" r="4" fill="#d62728" />
<circle cx="1444.2105263157896" cy="241.59406858202044" r="4" fill="#d62728" />
<circle cx="1469.4736842105262" cy="241.59406858202044" r="4" fill="#d62728" />
<circle cx="1494.7368421052631" cy="241.59406858202044" r="4" fill="#d62728" />
<circle cx="1520.0" cy="241.59406858202044" r="4" fill="#d62728" />
<path d="M 80.0 920.0 L 105.26315789473685 866.6021070151879 L 130.5263157894737 789.3196648446218 L 155.78947368421052 762.5753248472697 L 181.05263157894737 743.6386677006299 L 206.31578947368422 734.1968186718617 L 231.57894736842104 715.6081783964744 L 256.8421052631579 696.0814056855365 L 282.10526315789474 678.1055777269203 L 307.36842105263156 663.0424996690057 L 332.63157894736844 649.0537345614798 L 357.89473684210526 640.2473946019556 L 383.1578947368421 631.5242760681659 L 408.42105263157896 619.0486277921734 L 433.6842105263158 600.6264303682549 L 458.94736842105266 580.8045998751679 L 484.2105263157895 568.0565905694993 L 509.4736842105263 549.9672788485182 L 534.7368421052631 542.4016946908514 L 560.0 535.509447523217 L 585.2631578947369 520.703599326663 L 610.5263157894736 506.85858031813285 L 635.7894736842105 493.8609067352613 L 661.0526315789474 475.86238202417206 L 686.3157894736842 463.8709311342702 L 711.578947368421 456.22969113502677 L 736.8421052631579 447.6049251952867 L 762.1052631578948 436.5364755726202 L 787.3684210526316 427.57125834578505 L 812.6315789473684 419.42312420797793 L 837.8947368421053 405.5932363677631 L 863.1578947368421 394.29025363620894 L 888.421052631579 377.13150876662064 L 913.6842105263158 372.1003953017723 L 938.9473684210526 366.36568251026085 L 964.2105263157895 358.8152295209094 L 989.4736842105264 352.69467193735704 L 1014.7368421052631 343.65379886894516 L 1040.0 334.03037582039303 L 1065.2631578947369 329.42293506837404 L 1090.5263157894738 324.39938718768326 L 1115.7894736842106 316.1075069508805 L 1141.0526315789473 309.2001286149307 L 1166.3157894736842 286.20075277562376 L 1191.578947368421 277.31119139036525 L 1216.842105263158 267.8542111932818 L 1242.1052631578948 261.12840687711605 L 1267.3684210526317 254.27398763026997 L 1292.6315789473683 249.96160466039987 L 1317.8947368421052 242.05556921563812 L 1343.157894736842 241.59406858202044 L 1368.421052631579 241.59406858202044 L 1393.6842105263158 241.59406858202044 L 1418.9473684210527 241.59406858202044 L 1444.2105263157896 241.59406858202044 L 1469.4736842105262 241.59406858202044 L 1494.7368421052631 241.59406858202044 L 1520.0 241.59406858202044" fill="none" stroke="#d62728" stroke-width="2" />
<circle cx="80.0" cy="920.0" r="4" fill="#9467bd" />
<circle cx="105.26315789473685" cy="872.2384672126497" r="4" fill="#9467bd" />
<circle cx="130.5263157894737" cy="794.6609672599345" r="4" fill="#9467bd" />
<circle cx="155.78947368421052" cy="763.2108339165138" r="4" fill="#9467bd" />
<circle cx="181.05263157894737" cy="744.2136520966126" r="4" fill="#9467bd" />
<circle cx="206.31578947368422" cy="735.7401978400258" r="4" fill="#9467bd" />
<circle cx="231.57894736842104" cy="716.9926802973275" r="4" fill="#9467bd" />
<circle cx="256.8421052631579" cy="696.5656030716272" r="4" fill="#9467bd" />
<circle cx="282.10526315789474" cy="678.0828809744472" r="4" fill="#9467bd" />
<circle cx="307.36842105263156" cy="662.853360065064" r="4" fill="#9467bd" />
<circle cx="332.63157894736844" cy="649.0234722248492" r="4" fill="#9467bd" />
<circle cx="357.89473684210526" cy="640.2095666811674" r="4" fill="#9467bd" />
<circle cx="383.1578947368421" cy="631.4259234741162" r="4" fill="#9467bd" />
<circle cx="408.42105263157896" cy="618.3752908021411" r="4" fill="#9467bd" />
<circle cx="433.6842105263158" cy="600.0892738930604" r="4" fill="#9467bd" />
<circle cx="458.94736842105266" cy="579.8815986079326" r="4" fill="#9467bd" />
<circle cx="484.2105263157895" cy="566.7855724310114" r="4" fill="#9467bd" />
<circle cx="509.4736842105263" cy="551.0642885513798" r="4" fill="#9467bd" />
<circle cx="534.7368421052631" cy="543.4911388095554" r="4" fill="#9467bd" />
<circle cx="560.0" cy="536.5232358003443" r="4" fill="#9467bd" />
<circle cx="585.2631578947369" cy="521.4979856632181" r="4" fill="#9467bd" />
<circle cx="610.5263157894736" cy="507.22172835770084" r="4" fill="#9467bd" />
<circle cx="635.7894736842105" cy="494.23918594314466" r="4" fill="#9467bd" />
<circle cx="661.0526315789474" cy="476.1725709746364" r="4" fill="#9467bd" />
<circle cx="686.3157894736842" cy="464.00711164910825" r="4" fill="#9467bd" />
<circle cx="711.578947368421" cy="456.3885684023378" r="4" fill="#9467bd" />
<circle cx="736.8421052631579" cy="447.76380246259765" r="4" fill="#9467bd" />
<circle cx="762.1052631578948" cy="436.68022167161587" r="4" fill="#9467bd" />
<circle cx="787.3684210526316" cy="427.41994666263173" r="4" fill="#9467bd" />
<circle cx="812.6315789473684" cy="419.2718125248246" r="4" fill="#9467bd" />
<circle cx="837.8947368421053" cy="405.63106428855144" r="4" fill="#9467bd" />
<circle cx="863.1578947368421" cy="394.58531141835795" r="4" fill="#9467bd" />
<circle cx="888.421052631579" cy="377.32821395472" r="4" fill="#9467bd" />
<circle cx="913.6842105263158" cy="372.2517069849256" r="4" fill="#9467bd" />
<circle cx="938.9473684210526" cy="366.75152730230184" r="4" fill="#9467bd" />
<circle cx="964.2105263157895" cy="359.17837756047743" r="4" fill="#9467bd" />
<circle cx="989.4736842105264" cy="353.03512322445204" r="4" fill="#9467bd" />
<circle cx="1014.7368421052631" cy="343.9261598986212" r="4" fill="#9467bd" />
<circle cx="1040.0" cy="333.73531803824403" r="4" fill="#9467bd" />
<circle cx="1065.2631578947369" cy="329.105180533752" r="4" fill="#9467bd" />
<circle cx="1090.5263157894738" cy="324.0816326530612" r="4" fill="#9467bd" />
<circle cx="1115.7894736842106" cy="315.7821868321008" r="4" fill="#9467bd" />
<circle cx="1141.0526315789473" cy="308.79158707041665" r="4" fill="#9467bd" />
<circle cx="1166.3157894736842" cy="285.7846456469521" r="4" fill="#9467bd" />
<circle cx="1191.578947368421" cy="276.8496907567476" r="4" fill="#9467bd" />
<circle cx="1216.842105263158" cy="267.40027614382177" r="4" fill="#9467bd" />
<circle cx="1242.1052631578948" cy="260.674471827656" r="4" fill="#9467bd" />
<circle cx="1267.3684210526317" cy="253.75952790754855" r="4" fill="#9467bd" />
<circle cx="1292.6315789473683" cy="249.46227610599385" r="4" fill="#9467bd" />
<circle cx="1317.8947368421052" cy="241.1855270375064" r="4" fill="#9467bd" />
<circle cx="1343.157894736842" cy="232.2505721473019" r="4" fill="#9467bd" />
<circle cx="1368.421052631579" cy="225.73660418755082" r="4" fill="#9467bd" />
<circle cx="1393.6842105263158" cy="218.64008624765938" r="4" fill="#9467bd" />
<circle cx="1418.9473684210527" cy="212.07315919880466" r="4" fill="#9467bd" />
<circle cx="1444.2105263157896" cy="202.75992510071683" r="4" fill="#9467bd" />
<circle cx="1469.4736842105262" cy="196.35187531917313" r="4" fill="#9467bd" />
<circle cx="1494.7368421052631" cy="185.4120406271869" r="4" fill="#9467bd" />
<circle cx="1520.0" cy="178.96616292485487" r="4" fill="#9467bd" />
<path d="M 80.0 920.0 L 105.26315789473685 872.2384672126497 L 130.5263157894737 794.6609672599345 L 155.78947368421052 763.2108339165138 L 181.05263157894737 744.2136520966126 L 206.31578947368422 735.7401978400258 L 231.57894736842104 716.9926802973275 L 256.8421052631579 696.5656030716272 L 282.10526315789474 678.0828809744472 L 307.36842105263156 662.853360065064 L 332.63157894736844 649.0234722248492 L 357.89473684210526 640.2095666811674 L 383.1578947368421 631.4259234741162 L 408.42105263157896 618.3752908021411 L 433.6842105263158 600.0892738930604 L 458.94736842105266 579.8815986079326 L 484.2105263157895 566.7855724310114 L 509.4736842105263 551.0642885513798 L 534.7368421052631 543.4911388095554 L 560.0 536.5232358003443 L 585.2631578947369 521.4979856632181 L 610.5263157894736 507.22172835770084 L 635.7894736842105 494.23918594314466 L 661.0526315789474 476.1725709746364 L 686.3157894736842 464.00711164910825 L 711.578947368421 456.3885684023378 L 736.8421052631579 447.76380246259765 L 762.1052631578948 436.68022167161587 L 787.3684210526316 427.41994666263173 L 812.6315789473684 419.2718125248246 L 837.8947368421053 405.63106428855144 L 863.1578947368421 394.58531141835795 L 888.421052631579 377.32821395472 L 913.6842105263158 372.2517069849256 L 938.9473684210526 366.75152730230184 L 964.2105263157895 359.17837756047743 L 989.4736842105264 353.03512322445204 L 1014.7368421052631 343.9261598986212 L 1040.0 333.73531803824403 L 1065.2631578947369 329.105180533752 L 1090.5263157894738 324.0816326530612 L 1115.7894736842106 315.7821868321008 L 1141.0526315789473 308.79158707041665 L 1166.3157894736842 285.7846456469521 L 1191.578947368421 276.8496907567476 L 1216.842105263158 267.40027614382177 L 1242.1052631578948 260.674471827656 L 1267.3684210526317 253.75952790754855 L 1292.6315789473683 249.46227610599385 L 1317.8947368421052 241.1855270375064 L 1343.157894736842 232.2505721473019 L 1368.421052631579 225.73660418755082 L 1393.6842105263158 218.64008624765938 L 1418.9473684210527 212.07315919880466 L 1444.2105263157896 202.75992510071683 L 1469.4736842105262 196.35187531917313 L 1494.7368421052631 185.4120406271869 L 1520.0 178.96616292485487" fill="none" stroke="#9467bd" stroke-width="2" />
<circle cx="80.0" cy="920.0" r="4" fill="#66ffbd" />
<circle cx="105.26315789473685" cy="681.767320459231" r="4" fill="#66ffbd" />
<circle cx="130.5263157894737" cy="704.0479658035596" r="4" fill="#66ffbd" />
<circle cx="155.78947368421052" cy="717.6887140398328" r="4" fill="#66ffbd" />
<circle cx="181.05263157894737" cy="727.9022526526829" r="4" fill="#66ffbd" />
<circle cx="206.31578947368422" cy="730.4821168504473" r="4" fill="#66ffbd" />
<circle cx="231.57894736842104" cy="737.1776588299824" r="4" fill="#66ffbd" />
<circle cx="256.8421052631579" cy="742.1179852849389" r="4" fill="#66ffbd" />
<circle cx="282.10526315789474" cy="748.5789941555863" r="4" fill="#66ffbd" />
<circle cx="307.36842105263156" cy="753.7008946303266" r="4" fill="#66ffbd" />
<circle cx="332.63157894736844" cy="757.3172438576914" r="4" fill="#66ffbd" />
<circle cx="357.89473684210526" cy="760.7520190652721" r="4" fill="#66ffbd" />
<circle cx="383.1578947368421" cy="762.7115053621078" r="4" fill="#66ffbd" />
<circle cx="408.42105263157896" cy="768.1587259556279" r="4" fill="#66ffbd" />
<circle cx="433.6842105263158" cy="776.7229672221066" r="4" fill="#66ffbd" />
<circle cx="458.94736842105266" cy="783.3882468650111" r="4" fill="#66ffbd" />
<circle cx="484.2105263157895" cy="787.9578596962418" r="4" fill="#66ffbd" />
<circle cx="509.4736842105263" cy="795.2283860717596" r="4" fill="#66ffbd" />
<circle cx="534.7368421052631" cy="796.060600329103" r="4" fill="#66ffbd" />
<circle cx="560.0" cy="797.6796353388436" r="4" fill="#66ffbd" />
<circle cx="585.2631578947369" cy="800.5621229029147" r="4" fill="#66ffbd" />
<circle cx="610.5263157894736" cy="805.4040967638214" r="4" fill="#66ffbd" />
<circle cx="635.7894736842105" cy="806.7280739914131" r="4" fill="#66ffbd" />
<circle cx="661.0526315789474" cy="809.3608972782811" r="4" fill="#66ffbd" />
<circle cx="686.3157894736842" cy="812.1677290007755" r="4" fill="#66ffbd" />
<circle cx="711.578947368421" cy="808.3319778328384" r="4" fill="#66ffbd" />
<circle cx="736.8421052631579" cy="814.1045185451381" r="4" fill="#66ffbd" />
<circle cx="762.1052631578948" cy="815.4663236935182" r="4" fill="#66ffbd" />
<circle cx="787.3684210526316" cy="818.5984755347922" r="4" fill="#66ffbd" />
<circle cx="812.6315789473684" cy="820.5806585841009" r="4" fill="#66ffbd" />
<circle cx="837.8947368421053" cy="823.1453916135499" r="4" fill="#66ffbd" />
<circle cx="863.1578947368421" cy="824.1062208015736" r="4" fill="#66ffbd" />
<circle cx="888.421052631579" cy="830.2343439692837" r="4" fill="#66ffbd" />
<circle cx="913.6842105263158" cy="831.1119517315731" r="4" fill="#66ffbd" />
<circle cx="938.9473684210526" cy="832.6175029789488" r="4" fill="#66ffbd" />
<circle cx="964.2105263157895" cy="834.4559399292618" r="4" fill="#66ffbd" />
<circle cx="989.4736842105264" cy="835.5832119687541" r="4" fill="#66ffbd" />
<circle cx="1014.7368421052631" cy="836.8996236121882" r="4" fill="#66ffbd" />
<circle cx="1040.0" cy="838.9347657506005" r="4" fill="#66ffbd" />
<circle cx="1065.2631578947369" cy="838.0495924041535" r="4" fill="#66ffbd" />
<circle cx="1090.5263157894738" cy="839.7669800079439" r="4" fill="#66ffbd" />
<circle cx="1115.7894736842106" cy="841.2044409979005" r="4" fill="#66ffbd" />
<circle cx="1141.0526315789473" cy="843.6027311758809" r="4" fill="#66ffbd" />
<circle cx="1166.3157894736842" cy="844.4803389381702" r="4" fill="#66ffbd" />
<circle cx="1191.578947368421" cy="844.7375687995309" r="4" fill="#66ffbd" />
<circle cx="1216.842105263158" cy="846.553308997371" r="4" fill="#66ffbd" />
<circle cx="1242.1052631578948" cy="845.3125531955136" r="4" fill="#66ffbd" />
<circle cx="1267.3684210526317" cy="847.5519661061829" r="4" fill="#66ffbd" />
<circle cx="1292.6315789473683" cy="848.4674017892606" r="4" fill="#66ffbd" />
<circle cx="1317.8947368421052" cy="850.7597737890337" r="4" fill="#66ffbd" />
<circle cx="1343.157894736842" cy="843.988575967922" r="4" fill="#66ffbd" />
<circle cx="1368.421052631579" cy="837.8604528002119" r="4" fill="#66ffbd" />
<circle cx="1393.6842105263158" cy="833.3437990580848" r="4" fill="#66ffbd" />
<circle cx="1418.9473684210527" cy="822.2526526829453" r="4" fill="#66ffbd" />
<circle cx="1444.2105263157896" cy="818.5530820298462" r="4" fill="#66ffbd" />
<circle cx="1469.4736842105262" cy="812.4779179512398" r="4" fill="#66ffbd" />
<circle cx="1494.7368421052631" cy="803.30086436799" r="4" fill="#66ffbd" />
<circle cx="1520.0" cy="797.4602333982713" r="4" fill="#66ffbd" />
<path d="M 80.0 920.0 L 105.26315789473685 681.767320459231 L 130.5263157894737 704.0479658035596 L 155.78947368421052 717.6887140398328 L 181.05263157894737 727.9022526526829 L 206.31578947368422 730.4821168504473 L 231.57894736842104 737.1776588299824 L 256.8421052631579 742.1179852849389 L 282.10526315789474 748.5789941555863 L 307.36842105263156 753.7008946303266 L 332.63157894736844 757.3172438576914 L 357.89473684210526 760.7520190652721 L 383.1578947368421 762.7115053621078 L 408.42105263157896 768.1587259556279 L 433.6842105263158 776.7229672221066 L 458.94736842105266 783.3882468650111 L 484.2105263157895 787.9578596962418 L 509.4736842105263 795.2283860717596 L 534.7368421052631 796.060600329103 L 560.0 797.6796353388436 L 585.2631578947369 800.5621229029147 L 610.5263157894736 805.4040967638214 L 635.7894736842105 806.7280739914131 L 661.0526315789474 809.3608972782811 L 686.3157894736842 812.1677290007755 L 711.578947368421 808.3319778328384 L 736.8421052631579 814.1045185451381 L 762.1052631578948 815.4663236935182 L 787.3684210526316 818.5984755347922 L 812.6315789473684 820.5806585841009 L 837.8947368421053 823.1453916135499 L 863.1578947368421 824.1062208015736 L 888.421052631579 830.2343439692837 L 913.6842105263158 831.1119517315731 L 938.9473684210526 832.6175029789488 L 964.2105263157895 834.4559399292618 L 989.4736842105264 835.5832119687541 L 1014.7368421052631 836.8996236121882 L 1040.0 838.9347657506005 L 1065.2631578947369 838.0495924041535 L 1090.5263157894738 839.7669800079439 L 1115.7894736842106 841.2044409979005 L 1141.0526315789473 843.6027311758809 L 1166.3157894736842 844.4803389381702 L 1191.578947368421 844.7375687995309 L 1216.842105263158 846.553308997371 L 1242.1052631578948 845.3125531955136 L 1267.3684210526317 847.5519661061829 L 1292.6315789473683 848.4674017892606 L 1317.8947368421052 850.7597737890337 L 1343.157894736842 843.988575967922 L 1368.421052631579 837.8604528002119 L 1393.6842105263158 833.3437990580848 L 1418.9473684210527 822.2526526829453 L 1444.2105263157896 818.5530820298462 L 1469.4736842105262 812.4779179512398 L 1494.7368421052631 803.30086436799 L 1520.0 797.4602333982713" fill="none" stroke="#66ffbd" stroke-width="2" />
<text x="80.0" y="940" text-anchor="middle">08-06</text>
<text x="105.26315789473685" y="940" text-anchor="middle">08-07</text>
<text x="130.5263157894737" y="940" text-anchor="middle">08-08</text>
<text x="155.78947368421052" y="940" text-anchor="middle">08-09</text>
<text x="181.05263157894737" y="940" text-anchor="middle">08-10</text>
<text x="206.31578947368422" y="940" text-anchor="middle">08-11</text>
<text x="231.57894736842104" y="940" text-anchor="middle">08-12</text>
<text x="256.8421052631579" y="940" text-anchor="middle">08-13</text>
<text x="282.10526315789474" y="940" text-anchor="middle">08-14</text>
<text x="307.36842105263156" y="940" text-anchor="middle">08-15</text>
<text x="332.63157894736844" y="940" text-anchor="middle">08-16</text>
<text x="357.89473684210526" y="940" text-anchor="middle">08-17</text>
<text x="383.1578947368421" y="940" text-anchor="middle">08-18</text>
<text x="408.42105263157896" y="940" text-anchor="middle">08-19</text>
<text x="433.6842105263158" y="940" text-anchor="middle">08-20</text>
<text x="458.94736842105266" y="940" text-anchor="middle">08-21</text>
<text x="484.2105263157895" y="940" text-anchor="middle">08-22</text>
<text x="509.4736842105263" y="940" text-anchor="middle">08-23</text>
<text x="534.7368421052631" y="940" text-anchor="middle">08-24</text>
<text x="560.0" y="940" text-anchor="middle">08-25</text>
<text x="585.2631578947369" y="940" text-anchor="middle">08-26</text>
<text x="610.5263157894736" y="940" text-anchor="middle">08-27</text>
<text x="635.7894736842105" y="940" text-anchor="middle">08-28</text>
<text x="661.0526315789474" y="940" text-anchor="middle">08-29</text>
<text x="686.3157894736842" y="940" text-anchor="middle">08-30</text>
<text x="711.578947368421" y="940" text-anchor="middle">08-31</text>
<text x="736.8421052631579" y="940" text-anchor="middle">09-01</text>
<text x="762.1052631578948" y="940" text-anchor="middle">09-02</text>
<text x="787.3684210526316" y="940" text-anchor="middle">09-03</text>
<text x="812.6315789473684" y="940" text-anchor="middle">09-04</text>
<text x="837.8947368421053" y="940" text-anchor="middle">09-05</text>
<text x="863.1578947368421" y="940" text-anchor="middle">09-06</text>
<text x="888.421052631579" y="940" text-anchor="middle">09-07</text>
<text x="913.6842105263158" y="940" text-anchor="middle">09-08</text>
<text x="938.9473684210526" y="940" text-anchor="middle">09-09</text>
<text x="964.2105263157895" y="940" text-anchor="middle">09-10</text>
<text x="989.4736842105264" y="940" text-anchor="middle">09-11</text>
<text x="1014.7368421052631" y="940" text-anchor="middle">09-12</text>
<text x="1040.0" y="940" text-anchor="middle">09-13</text>
<text x="1065.2631578947369" y="940" text-anchor="middle">09-14</text>
<text x="1090.5263157894738" y="940" text-anchor="middle">09-15</text>
<text x="1115.7894736842106" y="940" text-anchor="middle">09-16</text>
<text x="1141.0526315789473" y="940" text-anchor="middle">09-17</text>
<text x="1166.3157894736842" y="940" text-anchor="middle">09-18</text>
<text x="1191.578947368421" y="940" text-anchor="middle">09-19</text>
<text x="1216.842105263158" y="940" text-anchor="middle">09-20</text>
<text x="1242.1052631578948" y="940" text-anchor="middle">09-21</text>
<text x="1267.3684210526317" y="940" text-anchor="middle">09-22</text>
<text x="1292.6315789473683" y="940" text-anchor="middle">09-23</text>
<text x="1317.8947368421052" y="940" text-anchor="middle">09-24</text>
<text x="1343.157894736842" y="940" text-anchor="middle">09-25</text>
<text x="1368.421052631579" y="940" text-anchor="middle">09-26</text>
<text x="1393.6842105263158" y="940" text-anchor="middle">09-27</text>
<text x="1418.9473684210527" y="940" text-anchor="middle">09-28</text>
<text x="1444.2105263157896" y="940" text-anchor="middle">09-29</text>
<text x="1469.4736842105262" y="940" text-anchor="middle">09-30</text>
<text x="1494.7368421052631" y="940" text-anchor="middle">10-01</text>
<text x="1520.0" y="940" text-anchor="middle">10-02</text>
<rect x="90" y="100" width="130" height="185" class="legend-box" />
<text x="100" y="120" class="legend-item">图例:</text>
<rect x="100" y="137" width="15" height="15" fill="#1f77b4" rx="3" />
<text x="120" y="145" class="legend-item">构件聚合数据</text>
<rect x="100" y="162" width="15" height="15" fill="#ff7f0e" rx="3" />
<text x="120" y="170" class="legend-item">构件基本信息</text>
<rect x="100" y="187" width="15" height="15" fill="#2ca02c" rx="3" />
<text x="120" y="195" class="legend-item">构件徽标</text>
<rect x="100" y="212" width="15" height="15" fill="#d62728" rx="3" />
<text x="120" y="220" class="legend-item">构件扩展元数据</text>
<rect x="100" y="237" width="15" height="15" fill="#9467bd" rx="3" />
<text x="120" y="245" class="legend-item">构件版本信息</text>
<rect x="100" y="262" width="15" height="15" fill="#66ffbd" rx="3" />
<text x="120" y="270" class="legend-item">数据量偏差</text>
<text x="1520" y="990" text-anchor="end" font-size="10" fill="#666">生成时间: 2025-10-02 05:26:04</text>
</svg>