<svg xmlns="http://www.w3.org/2000/svg" width="1600" height="1000" viewBox="0 0 1600 1000">
<style>
  text {
    font-family: Arial, sans-serif;
    font-size: 12px;
    fill: #333;
  }
  .axis-label { font-size: 14px; }
  .title { font-size: 18px; font-weight: bold; }
  .legend-item { font-size: 11px; }
  .legend-box { fill: white; fill-opacity: 0.85; stroke: #cccccc; stroke-width: 1; rx: 5; }
</style>
<text x="800.0" y="30" text-anchor="middle" class="title">Daily Data Growth Trend</text>
<text x="800.0" y="980" text-anchor="middle" class="axis-label">Date</text>
<g transform="rotate(-90)">
<text x="-500.0" y="20" text-anchor="middle" class="axis-label">Count</text>
</g>
<rect x="0" y="0" width="1600" height="1000" fill="#f8f8f8" />
<line x1="80" y1="920.0" x2="1520" y2="920.0" stroke="#e0e0e0" stroke-width="1" />
<text x="70" y="925.0" text-anchor="end">0</text>
<line x1="80" y1="752.0" x2="1520" y2="752.0" stroke="#e0e0e0" stroke-width="1" />
<text x="70" y="757.0" text-anchor="end">17.2k</text>
<line x1="80" y1="584.0" x2="1520" y2="584.0" stroke="#e0e0e0" stroke-width="1" />
<text x="70" y="589.0" text-anchor="end">34.3k</text>
<line x1="80" y1="416.0" x2="1520" y2="416.0" stroke="#e0e0e0" stroke-width="1" />
<text x="70" y="421.0" text-anchor="end">51.5k</text>
<line x1="80" y1="248.0" x2="1520" y2="248.0" stroke="#e0e0e0" stroke-width="1" />
<text x="70" y="253.0" text-anchor="end">68.6k</text>
<line x1="80" y1="80.0" x2="1520" y2="80.0" stroke="#e0e0e0" stroke-width="1" />
<text x="70" y="85.0" text-anchor="end">85.8k</text>
<line x1="80" y1="80" x2="80" y2="920" stroke="#333333" stroke-width="2" />
<line x1="80" y1="920" x2="1520" y2="920" stroke="#333333" stroke-width="2" />
<circle cx="80.0" cy="920.0" r="4" fill="#1f77b4" />
<circle cx="126.45161290322581" cy="872.1441159193264" r="4" fill="#1f77b4" />
<circle cx="172.90322580645162" cy="770.7244957900921" r="4" fill="#1f77b4" />
<circle cx="219.35483870967744" cy="729.9275504209908" r="4" fill="#1f77b4" />
<circle cx="265.80645161290323" cy="705.3730174270609" r="4" fill="#1f77b4" />
<circle cx="312.258064516129" cy="693.0467985118465" r="4" fill="#1f77b4" />
<circle cx="358.7096774193549" cy="668.4922655179166" r="4" fill="#1f77b4" />
<circle cx="405.16129032258067" cy="641.9894262776581" r="4" fill="#1f77b4" />
<circle cx="451.61290322580646" cy="617.5621695711768" r="4" fill="#1f77b4" />
<circle cx="498.06451612903226" cy="597.6483258272958" r="4" fill="#1f77b4" />
<circle cx="544.516129032258" cy="579.4869786567457" r="4" fill="#1f77b4" />
<circle cx="590.9677419354839" cy="568.0712747209712" r="4" fill="#1f77b4" />
<circle cx="637.4193548387098" cy="556.7730565889956" r="4" fill="#1f77b4" />
<circle cx="683.8709677419355" cy="539.7865674564323" r="4" fill="#1f77b4" />
<circle cx="730.3225806451613" cy="515.6628157430978" r="4" fill="#1f77b4" />
<circle cx="776.7741935483871" cy="489.57117681613477" r="4" fill="#1f77b4" />
<circle cx="823.2258064516129" cy="472.2518112394753" r="4" fill="#1f77b4" />
<circle cx="869.6774193548388" cy="448.54905032308596" r="4" fill="#1f77b4" />
<circle cx="916.1290322580645" cy="438.7585666731937" r="4" fill="#1f77b4" />
<circle cx="962.5806451612904" cy="429.74153123164285" r="4" fill="#1f77b4" />
<circle cx="1009.0322580645161" cy="410.3465831212062" r="4" fill="#1f77b4" />
<circle cx="1055.483870967742" cy="391.27472097121597" r="4" fill="#1f77b4" />
<circle cx="1101.9354838709678" cy="374.38613667515176" r="4" fill="#1f77b4" />
<circle cx="1148.3870967741937" cy="351.07499510475816" r="4" fill="#1f77b4" />
<circle cx="1194.8387096774195" cy="335.0283924025847" r="4" fill="#1f77b4" />
<circle cx="1241.2903225806451" cy="325.14000391619345" r="4" fill="#1f77b4" />
<circle cx="1287.741935483871" cy="313.9886430389662" r="4" fill="#1f77b4" />
<circle cx="1334.1935483870968" cy="299.66516545917375" r="4" fill="#1f77b4" />
<circle cx="1380.6451612903227" cy="287.23125122381055" r="4" fill="#1f77b4" />
<circle cx="1427.0967741935485" cy="276.66731936557676" r="4" fill="#1f77b4" />
<circle cx="1473.5483870967741" cy="258.73115331897395" r="4" fill="#1f77b4" />
<circle cx="1520.0" cy="244.09438026238502" r="4" fill="#1f77b4" />
<path d="M 80.0 920.0 L 126.45161290322581 872.1441159193264 L 172.90322580645162 770.7244957900921 L 219.35483870967744 729.9275504209908 L 265.80645161290323 705.3730174270609 L 312.258064516129 693.0467985118465 L 358.7096774193549 668.4922655179166 L 405.16129032258067 641.9894262776581 L 451.61290322580646 617.5621695711768 L 498.06451612903226 597.6483258272958 L 544.516129032258 579.4869786567457 L 590.9677419354839 568.0712747209712 L 637.4193548387098 556.7730565889956 L 683.8709677419355 539.7865674564323 L 730.3225806451613 515.6628157430978 L 776.7741935483871 489.57117681613477 L 823.2258064516129 472.2518112394753 L 869.6774193548388 448.54905032308596 L 916.1290322580645 438.7585666731937 L 962.5806451612904 429.74153123164285 L 1009.0322580645161 410.3465831212062 L 1055.483870967742 391.27472097121597 L 1101.9354838709678 374.38613667515176 L 1148.3870967741937 351.07499510475816 L 1194.8387096774195 335.0283924025847 L 1241.2903225806451 325.14000391619345 L 1287.741935483871 313.9886430389662 L 1334.1935483870968 299.66516545917375 L 1380.6451612903227 287.23125122381055 L 1427.0967741935485 276.66731936557676 L 1473.5483870967741 258.73115331897395 L 1520.0 244.09438026238502" fill="none" stroke="#1f77b4" stroke-width="2" />
<circle cx="80.0" cy="920.0" r="4" fill="#ff7f0e" />
<circle cx="126.45161290322581" cy="570.7147053064422" r="4" fill="#ff7f0e" />
<circle cx="172.90322580645162" cy="497.84413550029376" r="4" fill="#ff7f0e" />
<circle cx="219.35483870967744" cy="474.4742510280008" r="4" fill="#ff7f0e" />
<circle cx="265.80645161290323" cy="462.96064225572746" r="4" fill="#ff7f0e" />
<circle cx="312.258064516129" cy="453.95339729782654" r="4" fill="#ff7f0e" />
<circle cx="358.7096774193549" cy="437.8970041120032" r="4" fill="#ff7f0e" />
<circle cx="405.16129032258067" cy="417.5230076365773" r="4" fill="#ff7f0e" />
<circle cx="451.61290322580646" cy="401.2708047777561" r="4" fill="#ff7f0e" />
<circle cx="498.06451612903226" cy="387.87742314470336" r="4" fill="#ff7f0e" />
<circle cx="544.516129032258" cy="374.3273937732524" r="4" fill="#ff7f0e" />
<circle cx="590.9677419354839" cy="367.2488740943803" r="4" fill="#ff7f0e" />
<circle cx="637.4193548387098" cy="358.4863912277267" r="4" fill="#ff7f0e" />
<circle cx="683.8709677419355" cy="348.5196788721363" r="4" fill="#ff7f0e" />
<circle cx="730.3225806451613" cy="335.185040140983" r="4" fill="#ff7f0e" />
<circle cx="776.7741935483871" cy="317.3369884472294" r="4" fill="#ff7f0e" />
<circle cx="823.2258064516129" cy="305.8821225768553" r="4" fill="#ff7f0e" />
<circle cx="869.6774193548388" cy="291.5782259643627" r="4" fill="#ff7f0e" />
<circle cx="916.1290322580645" cy="282.8744859996084" r="4" fill="#ff7f0e" />
<circle cx="962.5806451612904" cy="275.9330330918348" r="4" fill="#ff7f0e" />
<circle cx="1009.0322580645161" cy="260.1605639318583" r="4" fill="#ff7f0e" />
<circle cx="1055.483870967742" cy="247.32523986684942" r="4" fill="#ff7f0e" />
<circle cx="1101.9354838709678" cy="232.13040924221661" r="4" fill="#ff7f0e" />
<circle cx="1148.3870967741937" cy="212.19698453103592" r="4" fill="#ff7f0e" />
<circle cx="1194.8387096774195" cy="199.7434893283729" r="4" fill="#ff7f0e" />
<circle cx="1241.2903225806451" cy="184.8815351478363" r="4" fill="#ff7f0e" />
<circle cx="1287.741935483871" cy="181.190522811827" r="4" fill="#ff7f0e" />
<circle cx="1334.1935483870968" cy="168.6195418053652" r="4" fill="#ff7f0e" />
<circle cx="1380.6451612903227" cy="160.20951635010772" r="4" fill="#ff7f0e" />
<circle cx="1427.0967741935485" cy="152.16173878989628" r="4" fill="#ff7f0e" />
<circle cx="1473.5483870967741" cy="137.20187977286082" r="4" fill="#ff7f0e" />
<circle cx="1520.0" cy="123.76933620520856" r="4" fill="#ff7f0e" />
<path d="M 80.0 920.0 L 126.45161290322581 570.7147053064422 L 172.90322580645162 497.84413550029376 L 219.35483870967744 474.4742510280008 L 265.80645161290323 462.96064225572746 L 312.258064516129 453.95339729782654 L 358.7096774193549 437.8970041120032 L 405.16129032258067 417.5230076365773 L 451.61290322580646 401.2708047777561 L 498.06451612903226 387.87742314470336 L 544.516129032258 374.3273937732524 L 590.9677419354839 367.2488740943803 L 637.4193548387098 358.4863912277267 L 683.8709677419355 348.5196788721363 L 730.3225806451613 335.185040140983 L 776.7741935483871 317.3369884472294 L 823.2258064516129 305.8821225768553 L 869.6774193548388 291.5782259643627 L 916.1290322580645 282.8744859996084 L 962.5806451612904 275.9330330918348 L 1009.0322580645161 260.1605639318583 L 1055.483870967742 247.32523986684942 L 1101.9354838709678 232.13040924221661 L 1148.3870967741937 212.19698453103592 L 1194.8387096774195 199.7434893283729 L 1241.2903225806451 184.8815351478363 L 1287.741935483871 181.190522811827 L 1334.1935483870968 168.6195418053652 L 1380.6451612903227 160.20951635010772 L 1427.0967741935485 152.16173878989628 L 1473.5483870967741 137.20187977286082 L 1520.0 123.76933620520856" fill="none" stroke="#ff7f0e" stroke-width="2" />
<circle cx="80.0" cy="920.0" r="4" fill="#2ca02c" />
<circle cx="126.45161290322581" cy="563.8515762678676" r="4" fill="#2ca02c" />
<circle cx="172.90322580645162" cy="491.2649304875661" r="4" fill="#2ca02c" />
<circle cx="219.35483870967744" cy="468.12022713922073" r="4" fill="#2ca02c" />
<circle cx="265.80645161290323" cy="456.78284707264544" r="4" fill="#2ca02c" />
<circle cx="312.258064516129" cy="447.7951830820443" r="4" fill="#2ca02c" />
<circle cx="358.7096774193549" cy="431.90522811826906" r="4" fill="#2ca02c" />
<circle cx="405.16129032258067" cy="411.7955747013903" r="4" fill="#2ca02c" />
<circle cx="451.61290322580646" cy="395.729391031917" r="4" fill="#2ca02c" />
<circle cx="498.06451612903226" cy="382.4437047190131" r="4" fill="#2ca02c" />
<circle cx="544.516129032258" cy="368.9622087331114" r="4" fill="#2ca02c" />
<circle cx="590.9677419354839" cy="361.9913843743881" r="4" fill="#2ca02c" />
<circle cx="637.4193548387098" cy="353.2289015077346" r="4" fill="#2ca02c" />
<circle cx="683.8709677419355" cy="343.2915606030938" r="4" fill="#2ca02c" />
<circle cx="730.3225806451613" cy="330.2506363814373" r="4" fill="#2ca02c" />
<circle cx="776.7741935483871" cy="312.7844135500294" r="4" fill="#2ca02c" />
<circle cx="823.2258064516129" cy="301.37850009790486" r="4" fill="#2ca02c" />
<circle cx="869.6774193548388" cy="287.08439396906215" r="4" fill="#2ca02c" />
<circle cx="916.1290322580645" cy="278.37086352065796" r="4" fill="#2ca02c" />
<circle cx="962.5806451612904" cy="271.44899158018416" r="4" fill="#2ca02c" />
<circle cx="1009.0322580645161" cy="255.78421774035644" r="4" fill="#2ca02c" />
<circle cx="1055.483870967742" cy="242.9782651262973" r="4" fill="#2ca02c" />
<circle cx="1101.9354838709678" cy="227.8030154689642" r="4" fill="#2ca02c" />
<circle cx="1148.3870967741937" cy="207.8989622087331" r="4" fill="#2ca02c" />
<circle cx="1194.8387096774195" cy="195.48462894066972" r="4" fill="#2ca02c" />
<circle cx="1241.2903225806451" cy="180.63246524378314" r="4" fill="#2ca02c" />
<circle cx="1287.741935483871" cy="176.95124339142353" r="4" fill="#2ca02c" />
<circle cx="1334.1935483870968" cy="164.39005286861175" r="4" fill="#2ca02c" />
<circle cx="1380.6451612903227" cy="156.009398864304" r="4" fill="#2ca02c" />
<circle cx="1427.0967741935485" cy="148.01057372234197" r="4" fill="#2ca02c" />
<circle cx="1473.5483870967741" cy="133.39338163305274" r="4" fill="#2ca02c" />
<circle cx="1520.0" cy="120.0" r="4" fill="#2ca02c" />
<path d="M 80.0 920.0 L 126.45161290322581 563.8515762678676 L 172.90322580645162 491.2649304875661 L 219.35483870967744 468.12022713922073 L 265.80645161290323 456.78284707264544 L 312.258064516129 447.7951830820443 L 358.7096774193549 431.90522811826906 L 405.16129032258067 411.7955747013903 L 451.61290322580646 395.729391031917 L 498.06451612903226 382.4437047190131 L 544.516129032258 368.9622087331114 L 590.9677419354839 361.9913843743881 L 637.4193548387098 353.2289015077346 L 683.8709677419355 343.2915606030938 L 730.3225806451613 330.2506363814373 L 776.7741935483871 312.7844135500294 L 823.2258064516129 301.37850009790486 L 869.6774193548388 287.08439396906215 L 916.1290322580645 278.37086352065796 L 962.5806451612904 271.44899158018416 L 1009.0322580645161 255.78421774035644 L 1055.483870967742 242.9782651262973 L 1101.9354838709678 227.8030154689642 L 1148.3870967741937 207.8989622087331 L 1194.8387096774195 195.48462894066972 L 1241.2903225806451 180.63246524378314 L 1287.741935483871 176.95124339142353 L 1334.1935483870968 164.39005286861175 L 1380.6451612903227 156.009398864304 L 1427.0967741935485 148.01057372234197 L 1473.5483870967741 133.39338163305274 L 1520.0 120.0" fill="none" stroke="#2ca02c" stroke-width="2" />
<circle cx="80.0" cy="920.0" r="4" fill="#d62728" />
<circle cx="126.45161290322581" cy="850.8987663990602" r="4" fill="#d62728" />
<circle cx="172.90322580645162" cy="750.8889759154102" r="4" fill="#d62728" />
<circle cx="219.35483870967744" cy="716.279616213041" r="4" fill="#d62728" />
<circle cx="265.80645161290323" cy="691.7740356373605" r="4" fill="#d62728" />
<circle cx="312.258064516129" cy="679.5555120422949" r="4" fill="#d62728" />
<circle cx="358.7096774193549" cy="655.5002937145096" r="4" fill="#d62728" />
<circle cx="405.16129032258067" cy="630.2310554141375" r="4" fill="#d62728" />
<circle cx="451.61290322580646" cy="606.9688662619933" r="4" fill="#d62728" />
<circle cx="498.06451612903226" cy="587.4760133150578" r="4" fill="#d62728" />
<circle cx="544.516129032258" cy="569.3734090464069" r="4" fill="#d62728" />
<circle cx="590.9677419354839" cy="557.9772860779323" r="4" fill="#d62728" />
<circle cx="637.4193548387098" cy="546.6888584296064" r="4" fill="#d62728" />
<circle cx="683.8709677419355" cy="530.5443508909341" r="4" fill="#d62728" />
<circle cx="730.3225806451613" cy="506.7045232034463" r="4" fill="#d62728" />
<circle cx="776.7741935483871" cy="481.05345604072846" r="4" fill="#d62728" />
<circle cx="823.2258064516129" cy="464.5564910906599" r="4" fill="#d62728" />
<circle cx="869.6774193548388" cy="441.1474446837674" r="4" fill="#d62728" />
<circle cx="916.1290322580645" cy="431.3569610338751" r="4" fill="#d62728" />
<circle cx="962.5806451612904" cy="422.4378304288232" r="4" fill="#d62728" />
<circle cx="1009.0322580645161" cy="403.277853925984" r="4" fill="#d62728" />
<circle cx="1055.483870967742" cy="385.361268846681" r="4" fill="#d62728" />
<circle cx="1101.9354838709678" cy="368.54121793616605" r="4" fill="#d62728" />
<circle cx="1148.3870967741937" cy="345.24965733307226" r="4" fill="#d62728" />
<circle cx="1194.8387096774195" cy="329.73174074799294" r="4" fill="#d62728" />
<circle cx="1241.2903225806451" cy="319.8433522616018" r="4" fill="#d62728" />
<circle cx="1287.741935483871" cy="308.6822009007245" r="4" fill="#d62728" />
<circle cx="1334.1935483870968" cy="294.3587233209321" r="4" fill="#d62728" />
<circle cx="1380.6451612903227" cy="282.7570001958097" r="4" fill="#d62728" />
<circle cx="1427.0967741935485" cy="272.21264930487575" r="4" fill="#d62728" />
<circle cx="1473.5483870967741" cy="254.31564519287258" r="4" fill="#d62728" />
<circle cx="1520.0" cy="239.68866261993344" r="4" fill="#d62728" />
<path d="M 80.0 920.0 L 126.45161290322581 850.8987663990602 L 172.90322580645162 750.8889759154102 L 219.35483870967744 716.279616213041 L 265.80645161290323 691.7740356373605 L 312.258064516129 679.5555120422949 L 358.7096774193549 655.5002937145096 L 405.16129032258067 630.2310554141375 L 451.61290322580646 606.9688662619933 L 498.06451612903226 587.4760133150578 L 544.516129032258 569.3734090464069 L 590.9677419354839 557.9772860779323 L 637.4193548387098 546.6888584296064 L 683.8709677419355 530.5443508909341 L 730.3225806451613 506.7045232034463 L 776.7741935483871 481.05345604072846 L 823.2258064516129 464.5564910906599 L 869.6774193548388 441.1474446837674 L 916.1290322580645 431.3569610338751 L 962.5806451612904 422.4378304288232 L 1009.0322580645161 403.277853925984 L 1055.483870967742 385.361268846681 L 1101.9354838709678 368.54121793616605 L 1148.3870967741937 345.24965733307226 L 1194.8387096774195 329.73174074799294 L 1241.2903225806451 319.8433522616018 L 1287.741935483871 308.6822009007245 L 1334.1935483870968 294.3587233209321 L 1380.6451612903227 282.7570001958097 L 1427.0967741935485 272.21264930487575 L 1473.5483870967741 254.31564519287258 L 1520.0 239.68866261993344" fill="none" stroke="#d62728" stroke-width="2" />
<circle cx="80.0" cy="920.0" r="4" fill="#9467bd" />
<circle cx="126.45161290322581" cy="858.1926767182299" r="4" fill="#9467bd" />
<circle cx="172.90322580645162" cy="757.8010573722343" r="4" fill="#9467bd" />
<circle cx="219.35483870967744" cy="717.1020168396319" r="4" fill="#9467bd" />
<circle cx="265.80645161290323" cy="692.5181123947523" r="4" fill="#9467bd" />
<circle cx="312.258064516129" cy="681.5527707068729" r="4" fill="#9467bd" />
<circle cx="358.7096774193549" cy="657.2919522224398" r="4" fill="#9467bd" />
<circle cx="405.16129032258067" cy="630.8576463677306" r="4" fill="#9467bd" />
<circle cx="451.61290322580646" cy="606.9394948110437" r="4" fill="#9467bd" />
<circle cx="498.06451612903226" cy="587.2312512238104" r="4" fill="#9467bd" />
<circle cx="544.516129032258" cy="569.3342471118074" r="4" fill="#9467bd" />
<circle cx="590.9677419354839" cy="557.9283336596828" r="4" fill="#9467bd" />
<circle cx="637.4193548387098" cy="546.5615821421579" r="4" fill="#9467bd" />
<circle cx="683.8709677419355" cy="529.6729978460936" r="4" fill="#9467bd" />
<circle cx="730.3225806451613" cy="506.00939886430393" r="4" fill="#9467bd" />
<circle cx="776.7741935483871" cy="479.8590170354416" r="4" fill="#9467bd" />
<circle cx="823.2258064516129" cy="462.911689837478" r="4" fill="#9467bd" />
<circle cx="869.6774193548388" cy="442.5670648130018" r="4" fill="#9467bd" />
<circle cx="916.1290322580645" cy="432.7667906794596" r="4" fill="#9467bd" />
<circle cx="962.5806451612904" cy="423.7497552379088" r="4" fill="#9467bd" />
<circle cx="1009.0322580645161" cy="404.3058547092227" r="4" fill="#9467bd" />
<circle cx="1055.483870967742" cy="385.83121206187593" r="4" fill="#9467bd" />
<circle cx="1101.9354838709678" cy="369.03074211866067" r="4" fill="#9467bd" />
<circle cx="1148.3870967741937" cy="345.6510671627178" r="4" fill="#9467bd" />
<circle cx="1194.8387096774195" cy="329.90796945369107" r="4" fill="#9467bd" />
<circle cx="1241.2903225806451" cy="320.04895241824954" r="4" fill="#9467bd" />
<circle cx="1287.741935483871" cy="308.88780105737226" r="4" fill="#9467bd" />
<circle cx="1334.1935483870968" cy="294.54474251028" r="4" fill="#9467bd" />
<circle cx="1380.6451612903227" cy="282.5611905228119" r="4" fill="#9467bd" />
<circle cx="1427.0967741935485" cy="272.0168396318778" r="4" fill="#9467bd" />
<circle cx="1473.5483870967741" cy="254.364597611122" r="4" fill="#9467bd" />
<circle cx="1520.0" cy="240.0704914822793" r="4" fill="#9467bd" />
<path d="M 80.0 920.0 L 126.45161290322581 858.1926767182299 L 172.90322580645162 757.8010573722343 L 219.35483870967744 717.1020168396319 L 265.80645161290323 692.5181123947523 L 312.258064516129 681.5527707068729 L 358.7096774193549 657.2919522224398 L 405.16129032258067 630.8576463677306 L 451.61290322580646 606.9394948110437 L 498.06451612903226 587.2312512238104 L 544.516129032258 569.3342471118074 L 590.9677419354839 557.9283336596828 L 637.4193548387098 546.5615821421579 L 683.8709677419355 529.6729978460936 L 730.3225806451613 506.00939886430393 L 776.7741935483871 479.8590170354416 L 823.2258064516129 462.911689837478 L 869.6774193548388 442.5670648130018 L 916.1290322580645 432.7667906794596 L 962.5806451612904 423.7497552379088 L 1009.0322580645161 404.3058547092227 L 1055.483870967742 385.83121206187593 L 1101.9354838709678 369.03074211866067 L 1148.3870967741937 345.6510671627178 L 1194.8387096774195 329.90796945369107 L 1241.2903225806451 320.04895241824954 L 1287.741935483871 308.88780105737226 L 1334.1935483870968 294.54474251028 L 1380.6451612903227 282.5611905228119 L 1427.0967741935485 272.0168396318778 L 1473.5483870967741 254.364597611122 L 1520.0 240.0704914822793" fill="none" stroke="#9467bd" stroke-width="2" />
<circle cx="80.0" cy="920.0" r="4" fill="#66ffbd" />
<circle cx="126.45161290322581" cy="611.7074603485412" r="4" fill="#66ffbd" />
<circle cx="172.90322580645162" cy="640.5404346974741" r="4" fill="#66ffbd" />
<circle cx="219.35483870967744" cy="658.1926767182299" r="4" fill="#66ffbd" />
<circle cx="265.80645161290323" cy="671.4098296455845" r="4" fill="#66ffbd" />
<circle cx="312.258064516129" cy="674.7483845701978" r="4" fill="#66ffbd" />
<circle cx="358.7096774193549" cy="683.4129626003524" r="4" fill="#66ffbd" />
<circle cx="405.16129032258067" cy="689.8061484237321" r="4" fill="#66ffbd" />
<circle cx="451.61290322580646" cy="698.1672214607402" r="4" fill="#66ffbd" />
<circle cx="498.06451612903226" cy="704.7953788917173" r="4" fill="#66ffbd" />
<circle cx="544.516129032258" cy="709.4752300763657" r="4" fill="#66ffbd" />
<circle cx="590.9677419354839" cy="713.9201096534168" r="4" fill="#66ffbd" />
<circle cx="637.4193548387098" cy="716.455844918739" r="4" fill="#66ffbd" />
<circle cx="683.8709677419355" cy="723.5049931466615" r="4" fill="#66ffbd" />
<circle cx="730.3225806451613" cy="734.5878206383395" r="4" fill="#66ffbd" />
<circle cx="776.7741935483871" cy="743.2132367338946" r="4" fill="#66ffbd" />
<circle cx="823.2258064516129" cy="749.1266888584296" r="4" fill="#66ffbd" />
<circle cx="869.6774193548388" cy="758.5353436459761" r="4" fill="#66ffbd" />
<circle cx="916.1290322580645" cy="759.6122968474642" r="4" fill="#66ffbd" />
<circle cx="962.5806451612904" cy="761.7074603485412" r="4" fill="#66ffbd" />
<circle cx="1009.0322580645161" cy="765.4376346191502" r="4" fill="#66ffbd" />
<circle cx="1055.483870967742" cy="771.7035441550813" r="4" fill="#66ffbd" />
<circle cx="1101.9354838709678" cy="773.4168787938124" r="4" fill="#66ffbd" />
<circle cx="1148.3870967741937" cy="776.823967103975" r="4" fill="#66ffbd" />
<circle cx="1194.8387096774195" cy="780.456236538085" r="4" fill="#66ffbd" />
<circle cx="1241.2903225806451" cy="775.4924613275896" r="4" fill="#66ffbd" />
<circle cx="1287.741935483871" cy="782.9626003524575" r="4" fill="#66ffbd" />
<circle cx="1334.1935483870968" cy="784.724887409438" r="4" fill="#66ffbd" />
<circle cx="1380.6451612903227" cy="788.7781476404934" r="4" fill="#66ffbd" />
<circle cx="1427.0967741935485" cy="791.3432543567652" r="4" fill="#66ffbd" />
<circle cx="1473.5483870967741" cy="794.6622283140787" r="4" fill="#66ffbd" />
<circle cx="1520.0" cy="795.9056197376151" r="4" fill="#66ffbd" />
<path d="M 80.0 920.0 L 126.45161290322581 611.7074603485412 L 172.90322580645162 640.5404346974741 L 219.35483870967744 658.1926767182299 L 265.80645161290323 671.4098296455845 L 312.258064516129 674.7483845701978 L 358.7096774193549 683.4129626003524 L 405.16129032258067 689.8061484237321 L 451.61290322580646 698.1672214607402 L 498.06451612903226 704.7953788917173 L 544.516129032258 709.4752300763657 L 590.9677419354839 713.9201096534168 L 637.4193548387098 716.455844918739 L 683.8709677419355 723.5049931466615 L 730.3225806451613 734.5878206383395 L 776.7741935483871 743.2132367338946 L 823.2258064516129 749.1266888584296 L 869.6774193548388 758.5353436459761 L 916.1290322580645 759.6122968474642 L 962.5806451612904 761.7074603485412 L 1009.0322580645161 765.4376346191502 L 1055.483870967742 771.7035441550813 L 1101.9354838709678 773.4168787938124 L 1148.3870967741937 776.823967103975 L 1194.8387096774195 780.456236538085 L 1241.2903225806451 775.4924613275896 L 1287.741935483871 782.9626003524575 L 1334.1935483870968 784.724887409438 L 1380.6451612903227 788.7781476404934 L 1427.0967741935485 791.3432543567652 L 1473.5483870967741 794.6622283140787 L 1520.0 795.9056197376151" fill="none" stroke="#66ffbd" stroke-width="2" />
<text x="80.0" y="940" text-anchor="middle">08-06</text>
<text x="126.45161290322581" y="940" text-anchor="middle">08-07</text>
<text x="172.90322580645162" y="940" text-anchor="middle">08-08</text>
<text x="219.35483870967744" y="940" text-anchor="middle">08-09</text>
<text x="265.80645161290323" y="940" text-anchor="middle">08-10</text>
<text x="312.258064516129" y="940" text-anchor="middle">08-11</text>
<text x="358.7096774193549" y="940" text-anchor="middle">08-12</text>
<text x="405.16129032258067" y="940" text-anchor="middle">08-13</text>
<text x="451.61290322580646" y="940" text-anchor="middle">08-14</text>
<text x="498.06451612903226" y="940" text-anchor="middle">08-15</text>
<text x="544.516129032258" y="940" text-anchor="middle">08-16</text>
<text x="590.9677419354839" y="940" text-anchor="middle">08-17</text>
<text x="637.4193548387098" y="940" text-anchor="middle">08-18</text>
<text x="683.8709677419355" y="940" text-anchor="middle">08-19</text>
<text x="730.3225806451613" y="940" text-anchor="middle">08-20</text>
<text x="776.7741935483871" y="940" text-anchor="middle">08-21</text>
<text x="823.2258064516129" y="940" text-anchor="middle">08-22</text>
<text x="869.6774193548388" y="940" text-anchor="middle">08-23</text>
<text x="916.1290322580645" y="940" text-anchor="middle">08-24</text>
<text x="962.5806451612904" y="940" text-anchor="middle">08-25</text>
<text x="1009.0322580645161" y="940" text-anchor="middle">08-26</text>
<text x="1055.483870967742" y="940" text-anchor="middle">08-27</text>
<text x="1101.9354838709678" y="940" text-anchor="middle">08-28</text>
<text x="1148.3870967741937" y="940" text-anchor="middle">08-29</text>
<text x="1194.8387096774195" y="940" text-anchor="middle">08-30</text>
<text x="1241.2903225806451" y="940" text-anchor="middle">08-31</text>
<text x="1287.741935483871" y="940" text-anchor="middle">09-01</text>
<text x="1334.1935483870968" y="940" text-anchor="middle">09-02</text>
<text x="1380.6451612903227" y="940" text-anchor="middle">09-03</text>
<text x="1427.0967741935485" y="940" text-anchor="middle">09-04</text>
<text x="1473.5483870967741" y="940" text-anchor="middle">09-05</text>
<text x="1520.0" y="940" text-anchor="middle">09-06</text>
<rect x="90" y="100" width="130" height="185" class="legend-box" />
<text x="100" y="120" class="legend-item">图例:</text>
<rect x="100" y="137" width="15" height="15" fill="#1f77b4" rx="3" />
<text x="120" y="145" class="legend-item">构件聚合数据</text>
<rect x="100" y="162" width="15" height="15" fill="#ff7f0e" rx="3" />
<text x="120" y="170" class="legend-item">构件基本信息</text>
<rect x="100" y="187" width="15" height="15" fill="#2ca02c" rx="3" />
<text x="120" y="195" class="legend-item">构件徽标</text>
<rect x="100" y="212" width="15" height="15" fill="#d62728" rx="3" />
<text x="120" y="220" class="legend-item">构件扩展元数据</text>
<rect x="100" y="237" width="15" height="15" fill="#9467bd" rx="3" />
<text x="120" y="245" class="legend-item">构件版本信息</text>
<rect x="100" y="262" width="15" height="15" fill="#66ffbd" rx="3" />
<text x="120" y="270" class="legend-item">数据量偏差</text>
<text x="1520" y="990" text-anchor="end" font-size="10" fill="#666">生成时间: 2025-09-06 11:08:16</text>
</svg>