<svg xmlns="http://www.w3.org/2000/svg" width="1600" height="1000" viewBox="0 0 1600 1000">
<style>
  text {
    font-family: Arial, sans-serif;
    font-size: 12px;
    fill: #333;
  }
  .axis-label { font-size: 14px; }
  .title { font-size: 18px; font-weight: bold; }
  .legend-item { font-size: 11px; }
  .legend-box { fill: white; fill-opacity: 0.85; stroke: #cccccc; stroke-width: 1; rx: 5; }
</style>
<text x="800.0" y="30" text-anchor="middle" class="title">Daily Data Growth Trend</text>
<text x="800.0" y="980" text-anchor="middle" class="axis-label">Date</text>
<g transform="rotate(-90)">
<text x="-500.0" y="20" text-anchor="middle" class="axis-label">Count</text>
</g>
<rect x="0" y="0" width="1600" height="1000" fill="#f8f8f8" />
<line x1="80" y1="920.0" x2="1520" y2="920.0" stroke="#e0e0e0" stroke-width="1" />
<text x="70" y="925.0" text-anchor="end">4.6k</text>
<line x1="80" y1="752.0" x2="1520" y2="752.0" stroke="#e0e0e0" stroke-width="1" />
<text x="70" y="757.0" text-anchor="end">15.5k</text>
<line x1="80" y1="584.0" x2="1520" y2="584.0" stroke="#e0e0e0" stroke-width="1" />
<text x="70" y="589.0" text-anchor="end">26.4k</text>
<line x1="80" y1="416.0" x2="1520" y2="416.0" stroke="#e0e0e0" stroke-width="1" />
<text x="70" y="421.0" text-anchor="end">37.3k</text>
<line x1="80" y1="248.0" x2="1520" y2="248.0" stroke="#e0e0e0" stroke-width="1" />
<text x="70" y="253.0" text-anchor="end">48.2k</text>
<line x1="80" y1="80.0" x2="1520" y2="80.0" stroke="#e0e0e0" stroke-width="1" />
<text x="70" y="85.0" text-anchor="end">59.1k</text>
<line x1="80" y1="80" x2="80" y2="920" stroke="#333333" stroke-width="2" />
<line x1="80" y1="920" x2="1520" y2="920" stroke="#333333" stroke-width="2" />
<circle cx="80.0" cy="916.2298876749082" r="4" fill="#1f77b4" />
<circle cx="240.0" cy="756.4320416207943" r="4" fill="#1f77b4" />
<circle cx="400.0" cy="692.15193499781" r="4" fill="#1f77b4" />
<circle cx="560.0" cy="653.4635482902399" r="4" fill="#1f77b4" />
<circle cx="720.0" cy="634.042224978904" r="4" fill="#1f77b4" />
<circle cx="880.0" cy="595.3538382713341" r="4" fill="#1f77b4" />
<circle cx="1040.0" cy="553.5956792532352" r="4" fill="#1f77b4" />
<circle cx="1200.0" cy="515.1078304352976" r="4" fill="#1f77b4" />
<circle cx="1360.0" cy="483.7313637035602" r="4" fill="#1f77b4" />
<circle cx="1520.0" cy="455.1161494521478" r="4" fill="#1f77b4" />
<path d="M 80.0 916.2298876749082 L 240.0 756.4320416207943 L 400.0 692.15193499781 L 560.0 653.4635482902399 L 720.0 634.042224978904 L 880.0 595.3538382713341 L 1040.0 553.5956792532352 L 1200.0 515.1078304352976 L 1360.0 483.7313637035602 L 1520.0 455.1161494521478" fill="none" stroke="#1f77b4" stroke-width="2" />
<circle cx="80.0" cy="441.2944610590127" r="4" fill="#ff7f0e" />
<circle cx="240.0" cy="326.4788062486284" r="4" fill="#ff7f0e" />
<circle cx="400.0" cy="289.6569645137921" r="4" fill="#ff7f0e" />
<circle cx="560.0" cy="271.51599849780234" r="4" fill="#ff7f0e" />
<circle cx="720.0" cy="257.3240863084226" r="4" fill="#ff7f0e" />
<circle cx="880.0" cy="232.02546023170214" r="4" fill="#ff7f0e" />
<circle cx="1040.0" cy="199.92397189898554" r="4" fill="#ff7f0e" />
<circle cx="1200.0" cy="174.31682599206113" r="4" fill="#ff7f0e" />
<circle cx="1360.0" cy="153.21406960611387" r="4" fill="#ff7f0e" />
<circle cx="1520.0" cy="131.86449735600343" r="4" fill="#ff7f0e" />
<path d="M 80.0 441.2944610590127 L 240.0 326.4788062486284 L 400.0 289.6569645137921 L 560.0 271.51599849780234 L 720.0 257.3240863084226 L 880.0 232.02546023170214 L 1040.0 199.92397189898554 L 1200.0 174.31682599206113 L 1360.0 153.21406960611387 L 1520.0 131.86449735600343" fill="none" stroke="#ff7f0e" stroke-width="2" />
<circle cx="80.0" cy="430.48084101036574" r="4" fill="#2ca02c" />
<circle cx="240.0" cy="316.1125399537772" r="4" fill="#2ca02c" />
<circle cx="400.0" cy="279.64549602367526" r="4" fill="#2ca02c" />
<circle cx="560.0" cy="261.78219785486897" r="4" fill="#2ca02c" />
<circle cx="720.0" cy="247.6211376485096" r="4" fill="#2ca02c" />
<circle cx="880.0" cy="222.5847534274625" r="4" fill="#2ca02c" />
<circle cx="1040.0" cy="190.8997668655212" r="4" fill="#2ca02c" />
<circle cx="1200.0" cy="165.58571479729062" r="4" fill="#2ca02c" />
<circle cx="1360.0" cy="144.6526443179555" r="4" fill="#2ca02c" />
<circle cx="1520.0" cy="123.41105400841639" r="4" fill="#2ca02c" />
<path d="M 80.0 430.48084101036574 L 240.0 316.1125399537772 L 400.0 279.64549602367526 L 560.0 261.78219785486897 L 720.0 247.6211376485096 L 880.0 222.5847534274625 L 1040.0 190.8997668655212 L 1200.0 165.58571479729062 L 1360.0 144.6526443179555 L 1520.0 123.41105400841639" fill="none" stroke="#2ca02c" stroke-width="2" />
<circle cx="80.0" cy="882.7554860977842" r="4" fill="#d62728" />
<circle cx="240.0" cy="725.1789828211383" r="4" fill="#d62728" />
<circle cx="400.0" cy="670.6481028325977" r="4" fill="#d62728" />
<circle cx="560.0" cy="632.0368460825787" r="4" fill="#d62728" />
<circle cx="720.0" cy="612.7852086778548" r="4" fill="#d62728" />
<circle cx="880.0" cy="574.8835475373048" r="4" fill="#d62728" />
<circle cx="1040.0" cy="535.0690634494904" r="4" fill="#d62728" />
<circle cx="1200.0" cy="498.4169076212662" r="4" fill="#d62728" />
<circle cx="1360.0" cy="467.7037585244672" r="4" fill="#d62728" />
<circle cx="1520.0" cy="439.18110022211596" r="4" fill="#d62728" />
<path d="M 80.0 882.7554860977842 L 240.0 725.1789828211383 L 400.0 670.6481028325977 L 560.0 632.0368460825787 L 720.0 612.7852086778548 L 880.0 574.8835475373048 L 1040.0 535.0690634494904 L 1200.0 498.4169076212662 L 1360.0 467.7037585244672 L 1520.0 439.18110022211596" fill="none" stroke="#d62728" stroke-width="2" />
<circle cx="80.0" cy="894.2478497728798" r="4" fill="#9467bd" />
<circle cx="240.0" cy="736.0697328273363" r="4" fill="#9467bd" />
<circle cx="400.0" cy="671.9438861194541" r="4" fill="#9467bd" />
<circle cx="560.0" cy="633.2092214373534" r="4" fill="#9467bd" />
<circle cx="720.0" cy="615.9321109459347" r="4" fill="#9467bd" />
<circle cx="880.0" cy="577.7065039836705" r="4" fill="#9467bd" />
<circle cx="1040.0" cy="536.0563269061429" r="4" fill="#9467bd" />
<circle cx="1200.0" cy="498.3706296467356" r="4" fill="#9467bd" />
<circle cx="1360.0" cy="467.3181087367123" r="4" fill="#9467bd" />
<circle cx="1520.0" cy="439.11939625607516" r="4" fill="#9467bd" />
<path d="M 80.0 894.2478497728798 L 240.0 736.0697328273363 L 400.0 671.9438861194541 L 560.0 633.2092214373534 L 720.0 615.9321109459347 L 880.0 577.7065039836705 L 1040.0 536.0563269061429 L 1200.0 498.3706296467356 L 1360.0 467.3181087367123 L 1520.0 439.11939625607516" fill="none" stroke="#9467bd" stroke-width="2" />
<text x="80.0" y="940" text-anchor="middle">08-07</text>
<text x="240.0" y="940" text-anchor="middle">08-08</text>
<text x="400.0" y="940" text-anchor="middle">08-09</text>
<text x="560.0" y="940" text-anchor="middle">08-10</text>
<text x="720.0" y="940" text-anchor="middle">08-11</text>
<text x="880.0" y="940" text-anchor="middle">08-12</text>
<text x="1040.0" y="940" text-anchor="middle">08-13</text>
<text x="1200.0" y="940" text-anchor="middle">08-14</text>
<text x="1360.0" y="940" text-anchor="middle">08-15</text>
<text x="1520.0" y="940" text-anchor="middle">08-16</text>
<rect x="90" y="100" width="130" height="160" class="legend-box" />
<text x="100" y="120" class="legend-item">图例:</text>
<rect x="100" y="137" width="15" height="15" fill="#1f77b4" rx="3" />
<text x="120" y="145" class="legend-item">构件聚合数据</text>
<rect x="100" y="162" width="15" height="15" fill="#ff7f0e" rx="3" />
<text x="120" y="170" class="legend-item">构件基本信息</text>
<rect x="100" y="187" width="15" height="15" fill="#2ca02c" rx="3" />
<text x="120" y="195" class="legend-item">构件徽标</text>
<rect x="100" y="212" width="15" height="15" fill="#d62728" rx="3" />
<text x="120" y="220" class="legend-item">构件扩展元数据</text>
<rect x="100" y="237" width="15" height="15" fill="#9467bd" rx="3" />
<text x="120" y="245" class="legend-item">构件版本信息</text>
<text x="1520" y="990" text-anchor="end" font-size="10" fill="#666">生成时间: 2025-08-16 01:25:49</text>
</svg>