<svg xmlns="http://www.w3.org/2000/svg" width="1600" height="1000" viewBox="0 0 1600 1000">
<style>
  text {
    font-family: Arial, sans-serif;
    font-size: 12px;
    fill: #333;
  }
  .axis-label { font-size: 14px; }
  .title { font-size: 18px; font-weight: bold; }
  .legend-item { font-size: 11px; }
  .legend-box { fill: white; fill-opacity: 0.85; stroke: #cccccc; stroke-width: 1; rx: 5; }
</style>
<text x="800.0" y="30" text-anchor="middle" class="title">Daily Data Growth Trend</text>
<text x="800.0" y="980" text-anchor="middle" class="axis-label">Date</text>
<g transform="rotate(-90)">
<text x="-500.0" y="20" text-anchor="middle" class="axis-label">Count</text>
</g>
<rect x="0" y="0" width="1600" height="1000" fill="#f8f8f8" />
<line x1="80" y1="920.0" x2="1520" y2="920.0" stroke="#e0e0e0" stroke-width="1" />
<text x="70" y="925.0" text-anchor="end">0</text>
<line x1="80" y1="752.0" x2="1520" y2="752.0" stroke="#e0e0e0" stroke-width="1" />
<text x="70" y="757.0" text-anchor="end">21.2k</text>
<line x1="80" y1="584.0" x2="1520" y2="584.0" stroke="#e0e0e0" stroke-width="1" />
<text x="70" y="589.0" text-anchor="end">42.4k</text>
<line x1="80" y1="416.0" x2="1520" y2="416.0" stroke="#e0e0e0" stroke-width="1" />
<text x="70" y="421.0" text-anchor="end">63.6k</text>
<line x1="80" y1="248.0" x2="1520" y2="248.0" stroke="#e0e0e0" stroke-width="1" />
<text x="70" y="253.0" text-anchor="end">84.8k</text>
<line x1="80" y1="80.0" x2="1520" y2="80.0" stroke="#e0e0e0" stroke-width="1" />
<text x="70" y="85.0" text-anchor="end">106.0k</text>
<line x1="80" y1="80" x2="80" y2="920" stroke="#333333" stroke-width="2" />
<line x1="80" y1="920" x2="1520" y2="920" stroke="#333333" stroke-width="2" />
<circle cx="80.0" cy="920.0" r="4" fill="#1f77b4" />
<circle cx="107.6923076923077" cy="881.2708977101656" r="4" fill="#1f77b4" />
<circle cx="135.3846153846154" cy="799.1934078123762" r="4" fill="#1f77b4" />
<circle cx="163.0769230769231" cy="766.177006576341" r="4" fill="#1f77b4" />
<circle cx="190.76923076923077" cy="746.3053640757468" r="4" fill="#1f77b4" />
<circle cx="218.46153846153845" cy="736.3299263132874" r="4" fill="#1f77b4" />
<circle cx="246.15384615384616" cy="716.4582838126931" r="4" fill="#1f77b4" />
<circle cx="273.84615384615387" cy="695.0099041280406" r="4" fill="#1f77b4" />
<circle cx="301.53846153846155" cy="675.2412645590682" r="4" fill="#1f77b4" />
<circle cx="329.2307692307692" cy="659.1252674114571" r="4" fill="#1f77b4" />
<circle cx="356.9230769230769" cy="644.4275413992552" r="4" fill="#1f77b4" />
<circle cx="384.61538461538464" cy="635.188970763014" r="4" fill="#1f77b4" />
<circle cx="412.3076923076923" cy="626.0454797559623" r="4" fill="#1f77b4" />
<circle cx="440.0" cy="612.2985500356549" r="4" fill="#1f77b4" />
<circle cx="467.69230769230774" cy="592.7755328420886" r="4" fill="#1f77b4" />
<circle cx="495.3846153846154" cy="571.659931859599" r="4" fill="#1f77b4" />
<circle cx="523.0769230769231" cy="557.6436098565882" r="4" fill="#1f77b4" />
<circle cx="550.7692307692307" cy="538.4612946676175" r="4" fill="#1f77b4" />
<circle cx="578.4615384615385" cy="530.5379922351636" r="4" fill="#1f77b4" />
<circle cx="606.1538461538462" cy="523.2406306948736" r="4" fill="#1f77b4" />
<circle cx="633.8461538461538" cy="507.5445685761826" r="4" fill="#1f77b4" />
<circle cx="661.5384615384615" cy="492.1099754377625" r="4" fill="#1f77b4" />
<circle cx="689.2307692307693" cy="478.4422787417796" r="4" fill="#1f77b4" />
<circle cx="716.9230769230769" cy="459.576895650107" r="4" fill="#1f77b4" />
<circle cx="744.6153846153846" cy="446.5906029633151" r="4" fill="#1f77b4" />
<circle cx="772.3076923076924" cy="438.5880675065368" r="4" fill="#1f77b4" />
<circle cx="800.0" cy="429.5634260359718" r="4" fill="#1f77b4" />
<circle cx="827.6923076923077" cy="417.97163457729187" r="4" fill="#1f77b4" />
<circle cx="855.3846153846155" cy="407.90904048807545" r="4" fill="#1f77b4" />
<circle cx="883.0769230769231" cy="399.35979716345776" r="4" fill="#1f77b4" />
<circle cx="910.7692307692308" cy="384.8443071072023" r="4" fill="#1f77b4" />
<circle cx="938.4615384615385" cy="372.9989699706838" r="4" fill="#1f77b4" />
<circle cx="966.1538461538462" cy="354.93384042468904" r="4" fill="#1f77b4" />
<circle cx="993.8461538461539" cy="349.6410743998099" r="4" fill="#1f77b4" />
<circle cx="1021.5384615384615" cy="343.63521115600986" r="4" fill="#1f77b4" />
<circle cx="1049.2307692307693" cy="335.6722922113937" r="4" fill="#1f77b4" />
<circle cx="1076.923076923077" cy="329.27026384597104" r="4" fill="#1f77b4" />
<circle cx="1104.6153846153848" cy="319.754377624594" r="4" fill="#1f77b4" />
<circle cx="1132.3076923076924" cy="309.08168924807865" r="4" fill="#1f77b4" />
<circle cx="1160.0" cy="304.2326281594169" r="4" fill="#1f77b4" />
<circle cx="1187.6923076923076" cy="298.9715553442676" r="4" fill="#1f77b4" />
<circle cx="1215.3846153846155" cy="290.2638459710008" r="4" fill="#1f77b4" />
<circle cx="1243.076923076923" cy="282.95856112827835" r="4" fill="#1f77b4" />
<circle cx="1270.7692307692307" cy="258.8004120117265" r="4" fill="#1f77b4" />
<circle cx="1298.4615384615386" cy="249.4667617462959" r="4" fill="#1f77b4" />
<circle cx="1326.1538461538462" cy="239.56263370572856" r="4" fill="#1f77b4" />
<circle cx="1353.8461538461538" cy="232.5267411457096" r="4" fill="#1f77b4" />
<circle cx="1381.5384615384617" cy="225.34822914190636" r="4" fill="#1f77b4" />
<circle cx="1409.2307692307693" cy="220.8240234529752" r="4" fill="#1f77b4" />
<circle cx="1436.923076923077" cy="212.17970049916812" r="4" fill="#1f77b4" />
<circle cx="1464.6153846153848" cy="211.68845574835598" r="4" fill="#1f77b4" />
<circle cx="1492.3076923076924" cy="211.65676253862614" r="4" fill="#1f77b4" />
<circle cx="1520.0" cy="210.75350606132645" r="4" fill="#1f77b4" />
<path d="M 80.0 920.0 L 107.6923076923077 881.2708977101656 L 135.3846153846154 799.1934078123762 L 163.0769230769231 766.177006576341 L 190.76923076923077 746.3053640757468 L 218.46153846153845 736.3299263132874 L 246.15384615384616 716.4582838126931 L 273.84615384615387 695.0099041280406 L 301.53846153846155 675.2412645590682 L 329.2307692307692 659.1252674114571 L 356.9230769230769 644.4275413992552 L 384.61538461538464 635.188970763014 L 412.3076923076923 626.0454797559623 L 440.0 612.2985500356549 L 467.69230769230774 592.7755328420886 L 495.3846153846154 571.659931859599 L 523.0769230769231 557.6436098565882 L 550.7692307692307 538.4612946676175 L 578.4615384615385 530.5379922351636 L 606.1538461538462 523.2406306948736 L 633.8461538461538 507.5445685761826 L 661.5384615384615 492.1099754377625 L 689.2307692307693 478.4422787417796 L 716.9230769230769 459.576895650107 L 744.6153846153846 446.5906029633151 L 772.3076923076924 438.5880675065368 L 800.0 429.5634260359718 L 827.6923076923077 417.97163457729187 L 855.3846153846155 407.90904048807545 L 883.0769230769231 399.35979716345776 L 910.7692307692308 384.8443071072023 L 938.4615384615385 372.9989699706838 L 966.1538461538462 354.93384042468904 L 993.8461538461539 349.6410743998099 L 1021.5384615384615 343.63521115600986 L 1049.2307692307693 335.6722922113937 L 1076.923076923077 329.27026384597104 L 1104.6153846153848 319.754377624594 L 1132.3076923076924 309.08168924807865 L 1160.0 304.2326281594169 L 1187.6923076923076 298.9715553442676 L 1215.3846153846155 290.2638459710008 L 1243.076923076923 282.95856112827835 L 1270.7692307692307 258.8004120117265 L 1298.4615384615386 249.4667617462959 L 1326.1538461538462 239.56263370572856 L 1353.8461538461538 232.5267411457096 L 1381.5384615384617 225.34822914190636 L 1409.2307692307693 220.8240234529752 L 1436.923076923077 212.17970049916812 L 1464.6153846153848 211.68845574835598 L 1492.3076923076924 211.65676253862614 L 1520.0 210.75350606132645" fill="none" stroke="#1f77b4" stroke-width="2" />
<circle cx="80.0" cy="920.0" r="4" fill="#ff7f0e" />
<circle cx="107.6923076923077" cy="637.3282624197766" r="4" fill="#ff7f0e" />
<circle cx="135.3846153846154" cy="578.3551224150226" r="4" fill="#ff7f0e" />
<circle cx="163.0769230769231" cy="559.4421995087553" r="4" fill="#ff7f0e" />
<circle cx="190.76923076923077" cy="550.1243958481896" r="4" fill="#ff7f0e" />
<circle cx="218.46153846153845" cy="542.834957610332" r="4" fill="#ff7f0e" />
<circle cx="246.15384615384616" cy="529.8407416211078" r="4" fill="#ff7f0e" />
<circle cx="273.84615384615387" cy="513.3523492591712" r="4" fill="#ff7f0e" />
<circle cx="301.53846153846155" cy="500.1996672212979" r="4" fill="#ff7f0e" />
<circle cx="329.2307692307692" cy="489.360589493701" r="4" fill="#ff7f0e" />
<circle cx="356.9230769230769" cy="478.3947389271849" r="4" fill="#ff7f0e" />
<circle cx="384.61538461538464" cy="472.6661912685208" r="4" fill="#ff7f0e" />
<circle cx="412.3076923076923" cy="465.57483559147454" r="4" fill="#ff7f0e" />
<circle cx="440.0" cy="457.50891371523653" r="4" fill="#ff7f0e" />
<circle cx="467.69230769230774" cy="446.7173758022344" r="4" fill="#ff7f0e" />
<circle cx="495.3846153846154" cy="432.27319546787106" r="4" fill="#ff7f0e" />
<circle cx="523.0769230769231" cy="423.0029316219001" r="4" fill="#ff7f0e" />
<circle cx="550.7692307692307" cy="411.426986768085" r="4" fill="#ff7f0e" />
<circle cx="578.4615384615385" cy="404.3831709056335" r="4" fill="#ff7f0e" />
<circle cx="606.1538461538462" cy="398.76554948102375" r="4" fill="#ff7f0e" />
<circle cx="633.8461538461538" cy="386.0011092623406" r="4" fill="#ff7f0e" />
<circle cx="661.5384615384615" cy="375.6136597733936" r="4" fill="#ff7f0e" />
<circle cx="689.2307692307693" cy="363.3166943982252" r="4" fill="#ff7f0e" />
<circle cx="716.9230769230769" cy="347.1848506457492" r="4" fill="#ff7f0e" />
<circle cx="744.6153846153846" cy="337.10640995166796" r="4" fill="#ff7f0e" />
<circle cx="772.3076923076924" cy="325.07883685920297" r="4" fill="#ff7f0e" />
<circle cx="800.0" cy="322.0917518421678" r="4" fill="#ff7f0e" />
<circle cx="827.6923076923077" cy="311.9182315188971" r="4" fill="#ff7f0e" />
<circle cx="855.3846153846155" cy="305.1121147294193" r="4" fill="#ff7f0e" />
<circle cx="883.0769230769231" cy="298.5991601299422" r="4" fill="#ff7f0e" />
<circle cx="910.7692307692308" cy="286.49235401315275" r="4" fill="#ff7f0e" />
<circle cx="938.4615384615385" cy="275.62158307582604" r="4" fill="#ff7f0e" />
<circle cx="966.1538461538462" cy="263.6415497979558" r="4" fill="#ff7f0e" />
<circle cx="993.8461538461539" cy="259.2678868552413" r="4" fill="#ff7f0e" />
<circle cx="1021.5384615384615" cy="254.78329767847242" r="4" fill="#ff7f0e" />
<circle cx="1049.2307692307693" cy="248.7378179225102" r="4" fill="#ff7f0e" />
<circle cx="1076.923076923077" cy="243.4925917122257" r="4" fill="#ff7f0e" />
<circle cx="1104.6153846153848" cy="235.35536011409556" r="4" fill="#ff7f0e" />
<circle cx="1132.3076923076924" cy="226.77442357974815" r="4" fill="#ff7f0e" />
<circle cx="1160.0" cy="220.99041280405675" r="4" fill="#ff7f0e" />
<circle cx="1187.6923076923076" cy="217.52792964107448" r="4" fill="#ff7f0e" />
<circle cx="1215.3846153846155" cy="210.3177244275414" r="4" fill="#ff7f0e" />
<circle cx="1243.076923076923" cy="205.4448934315824" r="4" fill="#ff7f0e" />
<circle cx="1270.7692307692307" cy="181.99984153395144" r="4" fill="#ff7f0e" />
<circle cx="1298.4615384615386" cy="172.9197369463593" r="4" fill="#ff7f0e" />
<circle cx="1326.1538461538462" cy="164.67157911417485" r="4" fill="#ff7f0e" />
<circle cx="1353.8461538461538" cy="156.328341652801" r="4" fill="#ff7f0e" />
<circle cx="1381.5384615384617" cy="151.49512716900415" r="4" fill="#ff7f0e" />
<circle cx="1409.2307692307693" cy="147.9296410743999" r="4" fill="#ff7f0e" />
<circle cx="1436.923076923077" cy="141.6702321527613" r="4" fill="#ff7f0e" />
<circle cx="1464.6153846153848" cy="134.08763172490296" r="4" fill="#ff7f0e" />
<circle cx="1492.3076923076924" cy="127.63806354488554" r="4" fill="#ff7f0e" />
<circle cx="1520.0" cy="121.98874891054595" r="4" fill="#ff7f0e" />
<path d="M 80.0 920.0 L 107.6923076923077 637.3282624197766 L 135.3846153846154 578.3551224150226 L 163.0769230769231 559.4421995087553 L 190.76923076923077 550.1243958481896 L 218.46153846153845 542.834957610332 L 246.15384615384616 529.8407416211078 L 273.84615384615387 513.3523492591712 L 301.53846153846155 500.1996672212979 L 329.2307692307692 489.360589493701 L 356.9230769230769 478.3947389271849 L 384.61538461538464 472.6661912685208 L 412.3076923076923 465.57483559147454 L 440.0 457.50891371523653 L 467.69230769230774 446.7173758022344 L 495.3846153846154 432.27319546787106 L 523.0769230769231 423.0029316219001 L 550.7692307692307 411.426986768085 L 578.4615384615385 404.3831709056335 L 606.1538461538462 398.76554948102375 L 633.8461538461538 386.0011092623406 L 661.5384615384615 375.6136597733936 L 689.2307692307693 363.3166943982252 L 716.9230769230769 347.1848506457492 L 744.6153846153846 337.10640995166796 L 772.3076923076924 325.07883685920297 L 800.0 322.0917518421678 L 827.6923076923077 311.9182315188971 L 855.3846153846155 305.1121147294193 L 883.0769230769231 298.5991601299422 L 910.7692307692308 286.49235401315275 L 938.4615384615385 275.62158307582604 L 966.1538461538462 263.6415497979558 L 993.8461538461539 259.2678868552413 L 1021.5384615384615 254.78329767847242 L 1049.2307692307693 248.7378179225102 L 1076.923076923077 243.4925917122257 L 1104.6153846153848 235.35536011409556 L 1132.3076923076924 226.77442357974815 L 1160.0 220.99041280405675 L 1187.6923076923076 217.52792964107448 L 1215.3846153846155 210.3177244275414 L 1243.076923076923 205.4448934315824 L 1270.7692307692307 181.99984153395144 L 1298.4615384615386 172.9197369463593 L 1326.1538461538462 164.67157911417485 L 1353.8461538461538 156.328341652801 L 1381.5384615384617 151.49512716900415 L 1409.2307692307693 147.9296410743999 L 1436.923076923077 141.6702321527613 L 1464.6153846153848 134.08763172490296 L 1492.3076923076924 127.63806354488554 L 1520.0 121.98874891054595" fill="none" stroke="#ff7f0e" stroke-width="2" />
<circle cx="80.0" cy="920.0" r="4" fill="#2ca02c" />
<circle cx="107.6923076923077" cy="631.7740274146265" r="4" fill="#2ca02c" />
<circle cx="135.3846153846154" cy="573.0306631804136" r="4" fill="#2ca02c" />
<circle cx="163.0769230769231" cy="554.2999762300927" r="4" fill="#2ca02c" />
<circle cx="190.76923076923077" cy="545.1247920133112" r="4" fill="#2ca02c" />
<circle cx="218.46153846153845" cy="537.8512003803186" r="4" fill="#2ca02c" />
<circle cx="246.15384615384616" cy="524.991680532446" r="4" fill="#2ca02c" />
<circle cx="273.84615384615387" cy="508.71721733618574" r="4" fill="#2ca02c" />
<circle cx="301.53846153846155" cy="495.715078044529" r="4" fill="#2ca02c" />
<circle cx="329.2307692307692" cy="484.9631566436891" r="4" fill="#2ca02c" />
<circle cx="356.9230769230769" cy="474.05276919420015" r="4" fill="#2ca02c" />
<circle cx="384.61538461538464" cy="468.411377862293" r="4" fill="#2ca02c" />
<circle cx="412.3076923076923" cy="461.32002218524684" r="4" fill="#2ca02c" />
<circle cx="440.0" cy="453.2778702163062" r="4" fill="#2ca02c" />
<circle cx="467.69230769230774" cy="442.72403137627765" r="4" fill="#2ca02c" />
<circle cx="495.3846153846154" cy="428.58885983678" r="4" fill="#2ca02c" />
<circle cx="523.0769230769231" cy="419.3582125029713" r="4" fill="#2ca02c" />
<circle cx="550.7692307692307" cy="407.79019095158867" r="4" fill="#2ca02c" />
<circle cx="578.4615384615385" cy="400.7384517867048" r="4" fill="#2ca02c" />
<circle cx="606.1538461538462" cy="395.13667696695984" r="4" fill="#2ca02c" />
<circle cx="633.8461538461538" cy="382.45939307503374" r="4" fill="#2ca02c" />
<circle cx="661.5384615384615" cy="372.0957134933841" r="4" fill="#2ca02c" />
<circle cx="689.2307692307693" cy="359.81459472308063" r="4" fill="#2ca02c" />
<circle cx="716.9230769230769" cy="343.706520877902" r="4" fill="#2ca02c" />
<circle cx="744.6153846153846" cy="333.6597733935505" r="4" fill="#2ca02c" />
<circle cx="772.3076923076924" cy="321.64012360351796" r="4" fill="#2ca02c" />
<circle cx="800.0" cy="318.6609618889154" r="4" fill="#2ca02c" />
<circle cx="827.6923076923077" cy="308.4953648680771" r="4" fill="#2ca02c" />
<circle cx="855.3846153846155" cy="301.7130179858966" r="4" fill="#2ca02c" />
<circle cx="883.0769230769231" cy="295.2396798985818" r="4" fill="#2ca02c" />
<circle cx="910.7692307692308" cy="283.4101893669282" r="4" fill="#2ca02c" />
<circle cx="938.4615384615385" cy="272.5711116393313" r="4" fill="#2ca02c" />
<circle cx="966.1538461538462" cy="260.92385706362415" r="4" fill="#2ca02c" />
<circle cx="993.8461538461539" cy="256.5501941209096" r="4" fill="#2ca02c" />
<circle cx="1021.5384615384615" cy="252.121068061168" r="4" fill="#2ca02c" />
<circle cx="1049.2307692307693" cy="246.08351160763812" r="4" fill="#2ca02c" />
<circle cx="1076.923076923077" cy="240.862055304651" r="4" fill="#2ca02c" />
<circle cx="1104.6153846153848" cy="232.72482370652097" r="4" fill="#2ca02c" />
<circle cx="1132.3076923076924" cy="224.18350368433573" r="4" fill="#2ca02c" />
<circle cx="1160.0" cy="218.4074162110768" r="4" fill="#2ca02c" />
<circle cx="1187.6923076923076" cy="214.94493304809453" r="4" fill="#2ca02c" />
<circle cx="1215.3846153846155" cy="207.7426511369939" r="4" fill="#2ca02c" />
<circle cx="1243.076923076923" cy="202.94905316535937" r="4" fill="#2ca02c" />
<circle cx="1270.7692307692307" cy="179.71000713097226" r="4" fill="#2ca02c" />
<circle cx="1298.4615384615386" cy="170.64574914824505" r="4" fill="#2ca02c" />
<circle cx="1326.1538461538462" cy="162.6432136914667" r="4" fill="#2ca02c" />
<circle cx="1353.8461538461538" cy="154.3078995325252" r="4" fill="#2ca02c" />
<circle cx="1381.5384615384617" cy="149.47468504872836" r="4" fill="#2ca02c" />
<circle cx="1409.2307692307693" cy="145.90919895412412" r="4" fill="#2ca02c" />
<circle cx="1436.923076923077" cy="139.66563663735053" r="4" fill="#2ca02c" />
<circle cx="1464.6153846153848" cy="132.0830362094922" r="4" fill="#2ca02c" />
<circle cx="1492.3076923076924" cy="125.63346802947478" r="4" fill="#2ca02c" />
<circle cx="1520.0" cy="120.00000000000011" r="4" fill="#2ca02c" />
<path d="M 80.0 920.0 L 107.6923076923077 631.7740274146265 L 135.3846153846154 573.0306631804136 L 163.0769230769231 554.2999762300927 L 190.76923076923077 545.1247920133112 L 218.46153846153845 537.8512003803186 L 246.15384615384616 524.991680532446 L 273.84615384615387 508.71721733618574 L 301.53846153846155 495.715078044529 L 329.2307692307692 484.9631566436891 L 356.9230769230769 474.05276919420015 L 384.61538461538464 468.411377862293 L 412.3076923076923 461.32002218524684 L 440.0 453.2778702163062 L 467.69230769230774 442.72403137627765 L 495.3846153846154 428.58885983678 L 523.0769230769231 419.3582125029713 L 550.7692307692307 407.79019095158867 L 578.4615384615385 400.7384517867048 L 606.1538461538462 395.13667696695984 L 633.8461538461538 382.45939307503374 L 661.5384615384615 372.0957134933841 L 689.2307692307693 359.81459472308063 L 716.9230769230769 343.706520877902 L 744.6153846153846 333.6597733935505 L 772.3076923076924 321.64012360351796 L 800.0 318.6609618889154 L 827.6923076923077 308.4953648680771 L 855.3846153846155 301.7130179858966 L 883.0769230769231 295.2396798985818 L 910.7692307692308 283.4101893669282 L 938.4615384615385 272.5711116393313 L 966.1538461538462 260.92385706362415 L 993.8461538461539 256.5501941209096 L 1021.5384615384615 252.121068061168 L 1049.2307692307693 246.08351160763812 L 1076.923076923077 240.862055304651 L 1104.6153846153848 232.72482370652097 L 1132.3076923076924 224.18350368433573 L 1160.0 218.4074162110768 L 1187.6923076923076 214.94493304809453 L 1215.3846153846155 207.7426511369939 L 1243.076923076923 202.94905316535937 L 1270.7692307692307 179.71000713097226 L 1298.4615384615386 170.64574914824505 L 1326.1538461538462 162.6432136914667 L 1353.8461538461538 154.3078995325252 L 1381.5384615384617 149.47468504872836 L 1409.2307692307693 145.90919895412412 L 1436.923076923077 139.66563663735053 L 1464.6153846153848 132.0830362094922 L 1492.3076923076924 125.63346802947478 L 1520.0 120.00000000000011" fill="none" stroke="#2ca02c" stroke-width="2" />
<circle cx="80.0" cy="920.0" r="4" fill="#d62728" />
<circle cx="107.6923076923077" cy="864.0773314317407" r="4" fill="#d62728" />
<circle cx="135.3846153846154" cy="783.1407970842247" r="4" fill="#d62728" />
<circle cx="163.0769230769231" cy="755.1319229855004" r="4" fill="#d62728" />
<circle cx="190.76923076923077" cy="735.2998969970683" r="4" fill="#d62728" />
<circle cx="218.46153846153845" cy="725.411615561366" r="4" fill="#d62728" />
<circle cx="246.15384615384616" cy="705.9440614848269" r="4" fill="#d62728" />
<circle cx="273.84615384615387" cy="685.4940179066635" r="4" fill="#d62728" />
<circle cx="301.53846153846155" cy="666.6682513271531" r="4" fill="#d62728" />
<circle cx="329.2307692307692" cy="650.8929561841376" r="4" fill="#d62728" />
<circle cx="356.9230769230769" cy="636.2427699865304" r="4" fill="#d62728" />
<circle cx="384.61538461538464" cy="627.0200459551542" r="4" fill="#d62728" />
<circle cx="412.3076923076923" cy="617.8844782505348" r="4" fill="#d62728" />
<circle cx="440.0" cy="604.8189525394184" r="4" fill="#d62728" />
<circle cx="467.69230769230774" cy="585.5257111163933" r="4" fill="#d62728" />
<circle cx="495.3846153846154" cy="564.7666587433642" r="4" fill="#d62728" />
<circle cx="523.0769230769231" cy="551.4158941446796" r="4" fill="#d62728" />
<circle cx="550.7692307692307" cy="532.4712780286824" r="4" fill="#d62728" />
<circle cx="578.4615384615385" cy="524.5479755962285" r="4" fill="#d62728" />
<circle cx="606.1538461538462" cy="517.3298470802631" r="4" fill="#d62728" />
<circle cx="633.8461538461538" cy="501.82394421995093" r="4" fill="#d62728" />
<circle cx="661.5384615384615" cy="487.32430076856036" r="4" fill="#d62728" />
<circle cx="689.2307692307693" cy="473.7120671896047" r="4" fill="#d62728" />
<circle cx="716.9230769230769" cy="454.86253070279696" r="4" fill="#d62728" />
<circle cx="744.6153846153846" cy="442.30409634735764" r="4" fill="#d62728" />
<circle cx="772.3076923076924" cy="434.30156089057925" r="4" fill="#d62728" />
<circle cx="800.0" cy="425.2689961175818" r="4" fill="#d62728" />
<circle cx="827.6923076923077" cy="413.67720465890187" r="4" fill="#d62728" />
<circle cx="855.3846153846155" cy="404.2880912764441" r="4" fill="#d62728" />
<circle cx="883.0769230769231" cy="395.7546945566912" r="4" fill="#d62728" />
<circle cx="910.7692307692308" cy="381.2708977101656" r="4" fill="#d62728" />
<circle cx="938.4615384615385" cy="369.43348387607955" r="4" fill="#d62728" />
<circle cx="966.1538461538462" cy="351.4634339592743" r="4" fill="#d62728" />
<circle cx="993.8461538461539" cy="346.19443784169243" r="4" fill="#d62728" />
<circle cx="1021.5384615384615" cy="340.1885745978924" r="4" fill="#d62728" />
<circle cx="1049.2307692307693" cy="332.28111877030346" r="4" fill="#d62728" />
<circle cx="1076.923076923077" cy="325.87116710244834" r="4" fill="#d62728" />
<circle cx="1104.6153846153848" cy="316.40282069566604" r="4" fill="#d62728" />
<circle cx="1132.3076923076924" cy="306.3243800015847" r="4" fill="#d62728" />
<circle cx="1160.0" cy="301.4990888202203" r="4" fill="#d62728" />
<circle cx="1187.6923076923076" cy="296.238016005071" r="4" fill="#d62728" />
<circle cx="1215.3846153846155" cy="287.5540765391015" r="4" fill="#d62728" />
<circle cx="1243.076923076923" cy="280.3201014182712" r="4" fill="#d62728" />
<circle cx="1270.7692307692307" cy="256.2332620236115" r="4" fill="#d62728" />
<circle cx="1298.4615384615386" cy="246.92338166547825" r="4" fill="#d62728" />
<circle cx="1326.1538461538462" cy="237.0192536249109" r="4" fill="#d62728" />
<circle cx="1353.8461538461538" cy="229.97543776245948" r="4" fill="#d62728" />
<circle cx="1381.5384615384617" cy="222.79692575865624" r="4" fill="#d62728" />
<circle cx="1409.2307692307693" cy="218.28064337215756" r="4" fill="#d62728" />
<circle cx="1436.923076923077" cy="210.00079233024326" r="4" fill="#d62728" />
<circle cx="1464.6153846153848" cy="209.51747088186357" r="4" fill="#d62728" />
<circle cx="1492.3076923076924" cy="209.51747088186357" r="4" fill="#d62728" />
<circle cx="1520.0" cy="209.51747088186357" r="4" fill="#d62728" />
<path d="M 80.0 920.0 L 107.6923076923077 864.0773314317407 L 135.3846153846154 783.1407970842247 L 163.0769230769231 755.1319229855004 L 190.76923076923077 735.2998969970683 L 218.46153846153845 725.411615561366 L 246.15384615384616 705.9440614848269 L 273.84615384615387 685.4940179066635 L 301.53846153846155 666.6682513271531 L 329.2307692307692 650.8929561841376 L 356.9230769230769 636.2427699865304 L 384.61538461538464 627.0200459551542 L 412.3076923076923 617.8844782505348 L 440.0 604.8189525394184 L 467.69230769230774 585.5257111163933 L 495.3846153846154 564.7666587433642 L 523.0769230769231 551.4158941446796 L 550.7692307692307 532.4712780286824 L 578.4615384615385 524.5479755962285 L 606.1538461538462 517.3298470802631 L 633.8461538461538 501.82394421995093 L 661.5384615384615 487.32430076856036 L 689.2307692307693 473.7120671896047 L 716.9230769230769 454.86253070279696 L 744.6153846153846 442.30409634735764 L 772.3076923076924 434.30156089057925 L 800.0 425.2689961175818 L 827.6923076923077 413.67720465890187 L 855.3846153846155 404.2880912764441 L 883.0769230769231 395.7546945566912 L 910.7692307692308 381.2708977101656 L 938.4615384615385 369.43348387607955 L 966.1538461538462 351.4634339592743 L 993.8461538461539 346.19443784169243 L 1021.5384615384615 340.1885745978924 L 1049.2307692307693 332.28111877030346 L 1076.923076923077 325.87116710244834 L 1104.6153846153848 316.40282069566604 L 1132.3076923076924 306.3243800015847 L 1160.0 301.4990888202203 L 1187.6923076923076 296.238016005071 L 1215.3846153846155 287.5540765391015 L 1243.076923076923 280.3201014182712 L 1270.7692307692307 256.2332620236115 L 1298.4615384615386 246.92338166547825 L 1326.1538461538462 237.0192536249109 L 1353.8461538461538 229.97543776245948 L 1381.5384615384617 222.79692575865624 L 1409.2307692307693 218.28064337215756 L 1436.923076923077 210.00079233024326 L 1464.6153846153848 209.51747088186357 L 1492.3076923076924 209.51747088186357 L 1520.0 209.51747088186357" fill="none" stroke="#d62728" stroke-width="2" />
<circle cx="80.0" cy="920.0" r="4" fill="#9467bd" />
<circle cx="107.6923076923077" cy="869.9801917439189" r="4" fill="#9467bd" />
<circle cx="135.3846153846154" cy="788.7346486015372" r="4" fill="#9467bd" />
<circle cx="163.0769230769231" cy="755.7974803898264" r="4" fill="#9467bd" />
<circle cx="190.76923076923077" cy="735.9020679819349" r="4" fill="#9467bd" />
<circle cx="218.46153846153845" cy="727.0279692575866" r="4" fill="#9467bd" />
<circle cx="246.15384615384616" cy="707.3940258299659" r="4" fill="#9467bd" />
<circle cx="273.84615384615387" cy="686.0011092623406" r="4" fill="#9467bd" />
<circle cx="301.53846153846155" cy="666.6444814198558" r="4" fill="#9467bd" />
<circle cx="329.2307692307692" cy="650.6948736233262" r="4" fill="#9467bd" />
<circle cx="356.9230769230769" cy="636.2110767768006" r="4" fill="#9467bd" />
<circle cx="384.61538461538464" cy="626.9804294429919" r="4" fill="#9467bd" />
<circle cx="412.3076923076923" cy="617.781475318913" r="4" fill="#9467bd" />
<circle cx="440.0" cy="604.1137786229301" r="4" fill="#9467bd" />
<circle cx="467.69230769230774" cy="584.9631566436891" r="4" fill="#9467bd" />
<circle cx="495.3846153846154" cy="563.8000158466049" r="4" fill="#9467bd" />
<circle cx="523.0769230769231" cy="550.0847793360273" r="4" fill="#9467bd" />
<circle cx="550.7692307692307" cy="533.6201568813882" r="4" fill="#9467bd" />
<circle cx="578.4615384615385" cy="525.6889311465019" r="4" fill="#9467bd" />
<circle cx="606.1538461538462" cy="518.3915696062119" r="4" fill="#9467bd" />
<circle cx="633.8461538461538" cy="502.65589097535855" r="4" fill="#9467bd" />
<circle cx="661.5384615384615" cy="487.70461928531813" r="4" fill="#9467bd" />
<circle cx="689.2307692307693" cy="474.10823231122737" r="4" fill="#9467bd" />
<circle cx="716.9230769230769" cy="455.18738610252757" r="4" fill="#9467bd" />
<circle cx="744.6153846153846" cy="442.4467157911418" r="4" fill="#9467bd" />
<circle cx="772.3076923076924" cy="434.4679502416608" r="4" fill="#9467bd" />
<circle cx="800.0" cy="425.43538546866336" r="4" fill="#9467bd" />
<circle cx="827.6923076923077" cy="413.8277474051185" r="4" fill="#9467bd" />
<circle cx="855.3846153846155" cy="404.12962522779503" r="4" fill="#9467bd" />
<circle cx="883.0769230769231" cy="395.59622850804215" r="4" fill="#9467bd" />
<circle cx="910.7692307692308" cy="381.3105142223279" r="4" fill="#9467bd" />
<circle cx="938.4615384615385" cy="369.74249267094524" r="4" fill="#9467bd" />
<circle cx="966.1538461538462" cy="351.66943982251803" r="4" fill="#9467bd" />
<circle cx="993.8461538461539" cy="346.3529038903415" r="4" fill="#9467bd" />
<circle cx="1021.5384615384615" cy="340.5926630219476" r="4" fill="#9467bd" />
<circle cx="1049.2307692307693" cy="332.6614372870613" r="4" fill="#9467bd" />
<circle cx="1076.923076923077" cy="326.2277157119088" r="4" fill="#9467bd" />
<circle cx="1104.6153846153848" cy="316.68805958323435" r="4" fill="#9467bd" />
<circle cx="1132.3076923076924" cy="306.015371206719" r="4" fill="#9467bd" />
<circle cx="1160.0" cy="301.16631011805725" r="4" fill="#9467bd" />
<circle cx="1187.6923076923076" cy="295.90523730290795" r="4" fill="#9467bd" />
<circle cx="1215.3846153846155" cy="287.213374534506" r="4" fill="#9467bd" />
<circle cx="1243.076923076923" cy="279.8922430869187" r="4" fill="#9467bd" />
<circle cx="1270.7692307692307" cy="255.79748038982655" r="4" fill="#9467bd" />
<circle cx="1298.4615384615386" cy="246.44006021709856" r="4" fill="#9467bd" />
<circle cx="1326.1538461538462" cy="236.54385547896368" r="4" fill="#9467bd" />
<circle cx="1353.8461538461538" cy="229.50003961651225" r="4" fill="#9467bd" />
<circle cx="1381.5384615384617" cy="222.25814119324946" r="4" fill="#9467bd" />
<circle cx="1409.2307692307693" cy="217.75770541161558" r="4" fill="#9467bd" />
<circle cx="1436.923076923077" cy="209.0896125505111" r="4" fill="#9467bd" />
<circle cx="1464.6153846153848" cy="199.73219237778312" r="4" fill="#9467bd" />
<circle cx="1492.3076923076924" cy="192.91022898344033" r="4" fill="#9467bd" />
<circle cx="1520.0" cy="185.47817130179862" r="4" fill="#9467bd" />
<path d="M 80.0 920.0 L 107.6923076923077 869.9801917439189 L 135.3846153846154 788.7346486015372 L 163.0769230769231 755.7974803898264 L 190.76923076923077 735.9020679819349 L 218.46153846153845 727.0279692575866 L 246.15384615384616 707.3940258299659 L 273.84615384615387 686.0011092623406 L 301.53846153846155 666.6444814198558 L 329.2307692307692 650.6948736233262 L 356.9230769230769 636.2110767768006 L 384.61538461538464 626.9804294429919 L 412.3076923076923 617.781475318913 L 440.0 604.1137786229301 L 467.69230769230774 584.9631566436891 L 495.3846153846154 563.8000158466049 L 523.0769230769231 550.0847793360273 L 550.7692307692307 533.6201568813882 L 578.4615384615385 525.6889311465019 L 606.1538461538462 518.3915696062119 L 633.8461538461538 502.65589097535855 L 661.5384615384615 487.70461928531813 L 689.2307692307693 474.10823231122737 L 716.9230769230769 455.18738610252757 L 744.6153846153846 442.4467157911418 L 772.3076923076924 434.4679502416608 L 800.0 425.43538546866336 L 827.6923076923077 413.8277474051185 L 855.3846153846155 404.12962522779503 L 883.0769230769231 395.59622850804215 L 910.7692307692308 381.3105142223279 L 938.4615384615385 369.74249267094524 L 966.1538461538462 351.66943982251803 L 993.8461538461539 346.3529038903415 L 1021.5384615384615 340.5926630219476 L 1049.2307692307693 332.6614372870613 L 1076.923076923077 326.2277157119088 L 1104.6153846153848 316.68805958323435 L 1132.3076923076924 306.015371206719 L 1160.0 301.16631011805725 L 1187.6923076923076 295.90523730290795 L 1215.3846153846155 287.213374534506 L 1243.076923076923 279.8922430869187 L 1270.7692307692307 255.79748038982655 L 1298.4615384615386 246.44006021709856 L 1326.1538461538462 236.54385547896368 L 1353.8461538461538 229.50003961651225 L 1381.5384615384617 222.25814119324946 L 1409.2307692307693 217.75770541161558 L 1436.923076923077 209.0896125505111 L 1464.6153846153848 199.73219237778312 L 1492.3076923076924 192.91022898344033 L 1520.0 185.47817130179862" fill="none" stroke="#9467bd" stroke-width="2" />
<circle cx="80.0" cy="920.0" r="4" fill="#66ffbd" />
<circle cx="107.6923076923077" cy="670.5031297044609" r="4" fill="#66ffbd" />
<circle cx="135.3846153846154" cy="693.8372553680374" r="4" fill="#66ffbd" />
<circle cx="163.0769230769231" cy="708.1229696537517" r="4" fill="#66ffbd" />
<circle cx="190.76923076923077" cy="718.8194279375643" r="4" fill="#66ffbd" />
<circle cx="218.46153846153845" cy="721.5212740670312" r="4" fill="#66ffbd" />
<circle cx="246.15384615384616" cy="728.5333967197528" r="4" fill="#66ffbd" />
<circle cx="273.84615384615387" cy="733.7073132081451" r="4" fill="#66ffbd" />
<circle cx="301.53846153846155" cy="740.4738134854608" r="4" fill="#66ffbd" />
<circle cx="329.2307692307692" cy="745.837889232232" r="4" fill="#66ffbd" />
<circle cx="356.9230769230769" cy="749.625227794945" r="4" fill="#66ffbd" />
<circle cx="384.61538461538464" cy="753.222407099279" r="4" fill="#66ffbd" />
<circle cx="412.3076923076923" cy="755.2745424292846" r="4" fill="#66ffbd" />
<circle cx="440.0" cy="760.9793201806513" r="4" fill="#66ffbd" />
<circle cx="467.69230769230774" cy="769.9484985341891" r="4" fill="#66ffbd" />
<circle cx="495.3846153846154" cy="776.9289279771809" r="4" fill="#66ffbd" />
<circle cx="523.0769230769231" cy="781.714602646383" r="4" fill="#66ffbd" />
<circle cx="550.7692307692307" cy="789.3288962839712" r="4" fill="#66ffbd" />
<circle cx="578.4615384615385" cy="790.2004595515411" r="4" fill="#66ffbd" />
<circle cx="606.1538461538462" cy="791.8960462720862" r="4" fill="#66ffbd" />
<circle cx="633.8461538461538" cy="794.9148244988511" r="4" fill="#66ffbd" />
<circle cx="661.5384615384615" cy="799.9857380556216" r="4" fill="#66ffbd" />
<circle cx="689.2307692307693" cy="801.372315981301" r="4" fill="#66ffbd" />
<circle cx="716.9230769230769" cy="804.1296252277949" r="4" fill="#66ffbd" />
<circle cx="744.6153846153846" cy="807.0691704302353" r="4" fill="#66ffbd" />
<circle cx="772.3076923076924" cy="803.0520560969812" r="4" fill="#66ffbd" />
<circle cx="800.0" cy="809.0975358529436" r="4" fill="#66ffbd" />
<circle cx="827.6923076923077" cy="810.5237302907852" r="4" fill="#66ffbd" />
<circle cx="855.3846153846155" cy="813.803977497821" r="4" fill="#66ffbd" />
<circle cx="883.0769230769231" cy="815.879882735124" r="4" fill="#66ffbd" />
<circle cx="910.7692307692308" cy="818.5658822597259" r="4" fill="#66ffbd" />
<circle cx="938.4615384615385" cy="819.5721416686475" r="4" fill="#66ffbd" />
<circle cx="966.1538461538462" cy="825.9900166389351" r="4" fill="#66ffbd" />
<circle cx="993.8461538461539" cy="826.9091197210997" r="4" fill="#66ffbd" />
<circle cx="1021.5384615384615" cy="828.485856905158" r="4" fill="#66ffbd" />
<circle cx="1049.2307692307693" cy="830.4112193962444" r="4" fill="#66ffbd" />
<circle cx="1076.923076923077" cy="831.59179145868" r="4" fill="#66ffbd" />
<circle cx="1104.6153846153848" cy="832.970446081927" r="4" fill="#66ffbd" />
<circle cx="1132.3076923076924" cy="835.1018144362571" r="4" fill="#66ffbd" />
<circle cx="1160.0" cy="834.1747880516599" r="4" fill="#66ffbd" />
<circle cx="1187.6923076923076" cy="835.9733777038269" r="4" fill="#66ffbd" />
<circle cx="1215.3846153846155" cy="837.4788051659932" r="4" fill="#66ffbd" />
<circle cx="1243.076923076923" cy="839.990492037081" r="4" fill="#66ffbd" />
<circle cx="1270.7692307692307" cy="840.9095951192458" r="4" fill="#66ffbd" />
<circle cx="1298.4615384615386" cy="841.1789874019491" r="4" fill="#66ffbd" />
<circle cx="1326.1538461538462" cy="843.080579985738" r="4" fill="#66ffbd" />
<circle cx="1353.8461538461538" cy="841.7811583868156" r="4" fill="#66ffbd" />
<circle cx="1381.5384615384617" cy="844.126455906822" r="4" fill="#66ffbd" />
<circle cx="1409.2307692307693" cy="845.0851755011489" r="4" fill="#66ffbd" />
<circle cx="1436.923076923077" cy="847.4859361381824" r="4" fill="#66ffbd" />
<circle cx="1464.6153846153848" cy="840.3945804611362" r="4" fill="#66ffbd" />
<circle cx="1492.3076923076924" cy="833.9767054908486" r="4" fill="#66ffbd" />
<circle cx="1520.0" cy="829.2464939386737" r="4" fill="#66ffbd" />
<path d="M 80.0 920.0 L 107.6923076923077 670.5031297044609 L 135.3846153846154 693.8372553680374 L 163.0769230769231 708.1229696537517 L 190.76923076923077 718.8194279375643 L 218.46153846153845 721.5212740670312 L 246.15384615384616 728.5333967197528 L 273.84615384615387 733.7073132081451 L 301.53846153846155 740.4738134854608 L 329.2307692307692 745.837889232232 L 356.9230769230769 749.625227794945 L 384.61538461538464 753.222407099279 L 412.3076923076923 755.2745424292846 L 440.0 760.9793201806513 L 467.69230769230774 769.9484985341891 L 495.3846153846154 776.9289279771809 L 523.0769230769231 781.714602646383 L 550.7692307692307 789.3288962839712 L 578.4615384615385 790.2004595515411 L 606.1538461538462 791.8960462720862 L 633.8461538461538 794.9148244988511 L 661.5384615384615 799.9857380556216 L 689.2307692307693 801.372315981301 L 716.9230769230769 804.1296252277949 L 744.6153846153846 807.0691704302353 L 772.3076923076924 803.0520560969812 L 800.0 809.0975358529436 L 827.6923076923077 810.5237302907852 L 855.3846153846155 813.803977497821 L 883.0769230769231 815.879882735124 L 910.7692307692308 818.5658822597259 L 938.4615384615385 819.5721416686475 L 966.1538461538462 825.9900166389351 L 993.8461538461539 826.9091197210997 L 1021.5384615384615 828.485856905158 L 1049.2307692307693 830.4112193962444 L 1076.923076923077 831.59179145868 L 1104.6153846153848 832.970446081927 L 1132.3076923076924 835.1018144362571 L 1160.0 834.1747880516599 L 1187.6923076923076 835.9733777038269 L 1215.3846153846155 837.4788051659932 L 1243.076923076923 839.990492037081 L 1270.7692307692307 840.9095951192458 L 1298.4615384615386 841.1789874019491 L 1326.1538461538462 843.080579985738 L 1353.8461538461538 841.7811583868156 L 1381.5384615384617 844.126455906822 L 1409.2307692307693 845.0851755011489 L 1436.923076923077 847.4859361381824 L 1464.6153846153848 840.3945804611362 L 1492.3076923076924 833.9767054908486 L 1520.0 829.2464939386737" fill="none" stroke="#66ffbd" stroke-width="2" />
<text x="80.0" y="940" text-anchor="middle">08-06</text>
<text x="107.6923076923077" y="940" text-anchor="middle">08-07</text>
<text x="135.3846153846154" y="940" text-anchor="middle">08-08</text>
<text x="163.0769230769231" y="940" text-anchor="middle">08-09</text>
<text x="190.76923076923077" y="940" text-anchor="middle">08-10</text>
<text x="218.46153846153845" y="940" text-anchor="middle">08-11</text>
<text x="246.15384615384616" y="940" text-anchor="middle">08-12</text>
<text x="273.84615384615387" y="940" text-anchor="middle">08-13</text>
<text x="301.53846153846155" y="940" text-anchor="middle">08-14</text>
<text x="329.2307692307692" y="940" text-anchor="middle">08-15</text>
<text x="356.9230769230769" y="940" text-anchor="middle">08-16</text>
<text x="384.61538461538464" y="940" text-anchor="middle">08-17</text>
<text x="412.3076923076923" y="940" text-anchor="middle">08-18</text>
<text x="440.0" y="940" text-anchor="middle">08-19</text>
<text x="467.69230769230774" y="940" text-anchor="middle">08-20</text>
<text x="495.3846153846154" y="940" text-anchor="middle">08-21</text>
<text x="523.0769230769231" y="940" text-anchor="middle">08-22</text>
<text x="550.7692307692307" y="940" text-anchor="middle">08-23</text>
<text x="578.4615384615385" y="940" text-anchor="middle">08-24</text>
<text x="606.1538461538462" y="940" text-anchor="middle">08-25</text>
<text x="633.8461538461538" y="940" text-anchor="middle">08-26</text>
<text x="661.5384615384615" y="940" text-anchor="middle">08-27</text>
<text x="689.2307692307693" y="940" text-anchor="middle">08-28</text>
<text x="716.9230769230769" y="940" text-anchor="middle">08-29</text>
<text x="744.6153846153846" y="940" text-anchor="middle">08-30</text>
<text x="772.3076923076924" y="940" text-anchor="middle">08-31</text>
<text x="800.0" y="940" text-anchor="middle">09-01</text>
<text x="827.6923076923077" y="940" text-anchor="middle">09-02</text>
<text x="855.3846153846155" y="940" text-anchor="middle">09-03</text>
<text x="883.0769230769231" y="940" text-anchor="middle">09-04</text>
<text x="910.7692307692308" y="940" text-anchor="middle">09-05</text>
<text x="938.4615384615385" y="940" text-anchor="middle">09-06</text>
<text x="966.1538461538462" y="940" text-anchor="middle">09-07</text>
<text x="993.8461538461539" y="940" text-anchor="middle">09-08</text>
<text x="1021.5384615384615" y="940" text-anchor="middle">09-09</text>
<text x="1049.2307692307693" y="940" text-anchor="middle">09-10</text>
<text x="1076.923076923077" y="940" text-anchor="middle">09-11</text>
<text x="1104.6153846153848" y="940" text-anchor="middle">09-12</text>
<text x="1132.3076923076924" y="940" text-anchor="middle">09-13</text>
<text x="1160.0" y="940" text-anchor="middle">09-14</text>
<text x="1187.6923076923076" y="940" text-anchor="middle">09-15</text>
<text x="1215.3846153846155" y="940" text-anchor="middle">09-16</text>
<text x="1243.076923076923" y="940" text-anchor="middle">09-17</text>
<text x="1270.7692307692307" y="940" text-anchor="middle">09-18</text>
<text x="1298.4615384615386" y="940" text-anchor="middle">09-19</text>
<text x="1326.1538461538462" y="940" text-anchor="middle">09-20</text>
<text x="1353.8461538461538" y="940" text-anchor="middle">09-21</text>
<text x="1381.5384615384617" y="940" text-anchor="middle">09-22</text>
<text x="1409.2307692307693" y="940" text-anchor="middle">09-23</text>
<text x="1436.923076923077" y="940" text-anchor="middle">09-24</text>
<text x="1464.6153846153848" y="940" text-anchor="middle">09-25</text>
<text x="1492.3076923076924" y="940" text-anchor="middle">09-26</text>
<text x="1520.0" y="940" text-anchor="middle">09-27</text>
<rect x="90" y="100" width="130" height="185" class="legend-box" />
<text x="100" y="120" class="legend-item">图例:</text>
<rect x="100" y="137" width="15" height="15" fill="#1f77b4" rx="3" />
<text x="120" y="145" class="legend-item">构件聚合数据</text>
<rect x="100" y="162" width="15" height="15" fill="#ff7f0e" rx="3" />
<text x="120" y="170" class="legend-item">构件基本信息</text>
<rect x="100" y="187" width="15" height="15" fill="#2ca02c" rx="3" />
<text x="120" y="195" class="legend-item">构件徽标</text>
<rect x="100" y="212" width="15" height="15" fill="#d62728" rx="3" />
<text x="120" y="220" class="legend-item">构件扩展元数据</text>
<rect x="100" y="237" width="15" height="15" fill="#9467bd" rx="3" />
<text x="120" y="245" class="legend-item">构件版本信息</text>
<rect x="100" y="262" width="15" height="15" fill="#66ffbd" rx="3" />
<text x="120" y="270" class="legend-item">数据量偏差</text>
<text x="1520" y="990" text-anchor="end" font-size="10" fill="#666">生成时间: 2025-09-27 04:16:38</text>
</svg>