<svg xmlns="http://www.w3.org/2000/svg" width="1600" height="1000" viewBox="0 0 1600 1000">
<style>
  text {
    font-family: Arial, sans-serif;
    font-size: 12px;
    fill: #333;
  }
  .axis-label { font-size: 14px; }
  .title { font-size: 18px; font-weight: bold; }
  .legend-item { font-size: 11px; }
  .legend-box { fill: white; fill-opacity: 0.85; stroke: #cccccc; stroke-width: 1; rx: 5; }
</style>
<text x="800.0" y="30" text-anchor="middle" class="title">Daily Data Growth Trend</text>
<text x="800.0" y="980" text-anchor="middle" class="axis-label">Date</text>
<g transform="rotate(-90)">
<text x="-500.0" y="20" text-anchor="middle" class="axis-label">Count</text>
</g>
<rect x="0" y="0" width="1600" height="1000" fill="#f8f8f8" />
<line x1="80" y1="920.0" x2="1520" y2="920.0" stroke="#e0e0e0" stroke-width="1" />
<text x="70" y="925.0" text-anchor="end">4.6k</text>
<line x1="80" y1="752.0" x2="1520" y2="752.0" stroke="#e0e0e0" stroke-width="1" />
<text x="70" y="757.0" text-anchor="end">15.2k</text>
<line x1="80" y1="584.0" x2="1520" y2="584.0" stroke="#e0e0e0" stroke-width="1" />
<text x="70" y="589.0" text-anchor="end">25.8k</text>
<line x1="80" y1="416.0" x2="1520" y2="416.0" stroke="#e0e0e0" stroke-width="1" />
<text x="70" y="421.0" text-anchor="end">36.4k</text>
<line x1="80" y1="248.0" x2="1520" y2="248.0" stroke="#e0e0e0" stroke-width="1" />
<text x="70" y="253.0" text-anchor="end">47.0k</text>
<line x1="80" y1="80.0" x2="1520" y2="80.0" stroke="#e0e0e0" stroke-width="1" />
<text x="70" y="85.0" text-anchor="end">57.7k</text>
<line x1="80" y1="80" x2="80" y2="920" stroke="#333333" stroke-width="2" />
<line x1="80" y1="920" x2="1520" y2="920" stroke="#333333" stroke-width="2" />
<circle cx="80.0" cy="916.127053239435" r="4" fill="#1f77b4" />
<circle cx="260.0" cy="751.9705250369286" r="4" fill="#1f77b4" />
<circle cx="440.0" cy="685.9370997043825" r="4" fill="#1f77b4" />
<circle cx="620.0" cy="646.1934398210071" r="4" fill="#1f77b4" />
<circle cx="800.0" cy="626.242376107622" r="4" fill="#1f77b4" />
<circle cx="980.0" cy="586.4987162242467" r="4" fill="#1f77b4" />
<circle cx="1160.0" cy="543.6015522273179" r="4" fill="#1f77b4" />
<circle cx="1340.0" cy="504.06390015035555" r="4" fill="#1f77b4" />
<circle cx="1520.0" cy="471.831601823886" r="4" fill="#1f77b4" />
<path d="M 80.0 916.127053239435 L 260.0 751.9705250369286 L 440.0 685.9370997043825 L 620.0 646.1934398210071 L 800.0 626.242376107622 L 980.0 586.4987162242467 L 1160.0 543.6015522273179 L 1340.0 504.06390015035555 L 1520.0 471.831601823886" fill="none" stroke="#1f77b4" stroke-width="2" />
<circle cx="80.0" cy="428.23718063602087" r="4" fill="#ff7f0e" />
<circle cx="260.0" cy="310.2897880873911" r="4" fill="#ff7f0e" />
<circle cx="440.0" cy="272.46358547909085" r="4" fill="#ff7f0e" />
<circle cx="620.0" cy="253.82780237588133" r="4" fill="#ff7f0e" />
<circle cx="800.0" cy="239.2487883835745" r="4" fill="#ff7f0e" />
<circle cx="980.0" cy="213.26011126685376" r="4" fill="#ff7f0e" />
<circle cx="1160.0" cy="180.28301548642935" r="4" fill="#ff7f0e" />
<circle cx="1340.0" cy="153.97740328291934" r="4" fill="#ff7f0e" />
<circle cx="1520.0" cy="132.2990433465327" r="4" fill="#ff7f0e" />
<path d="M 80.0 428.23718063602087 L 260.0 310.2897880873911 L 440.0 272.46358547909085 L 620.0 253.82780237588133 L 800.0 239.2487883835745 L 980.0 213.26011126685376 L 1160.0 180.28301548642935 L 1340.0 153.97740328291934 L 1520.0 132.2990433465327" fill="none" stroke="#ff7f0e" stroke-width="2" />
<circle cx="80.0" cy="417.12860584405666" r="4" fill="#2ca02c" />
<circle cx="260.0" cy="299.64076917127136" r="4" fill="#2ca02c" />
<circle cx="440.0" cy="262.17904191277876" r="4" fill="#2ca02c" />
<circle cx="620.0" cy="243.82850038767958" r="4" fill="#2ca02c" />
<circle cx="800.0" cy="229.28117990405178" r="4" fill="#2ca02c" />
<circle cx="980.0" cy="203.5618976111018" r="4" fill="#2ca02c" />
<circle cx="1160.0" cy="171.01266419784304" r="4" fill="#2ca02c" />
<circle cx="1340.0" cy="145.00814032678272" r="4" fill="#2ca02c" />
<circle cx="1520.0" cy="123.5040946881303" r="4" fill="#2ca02c" />
<path d="M 80.0 417.12860584405666 L 260.0 299.64076917127136 L 440.0 262.17904191277876 L 620.0 243.82850038767958 L 800.0 229.28117990405178 L 980.0 203.5618976111018 L 1160.0 171.01266419784304 L 1340.0 145.00814032678272 L 1520.0 123.5040946881303" fill="none" stroke="#2ca02c" stroke-width="2" />
<circle cx="80.0" cy="881.7395963227984" r="4" fill="#d62728" />
<circle cx="260.0" cy="719.8650007451747" r="4" fill="#d62728" />
<circle cx="440.0" cy="663.8467241551699" r="4" fill="#d62728" />
<circle cx="620.0" cy="624.1822980434918" r="4" fill="#d62728" />
<circle cx="800.0" cy="604.4055486278409" r="4" fill="#d62728" />
<circle cx="980.0" cy="565.470073215778" r="4" fill="#d62728" />
<circle cx="1160.0" cy="524.5696002656218" r="4" fill="#d62728" />
<circle cx="1340.0" cy="486.9177119550556" r="4" fill="#d62728" />
<circle cx="1520.0" cy="455.36682406518304" r="4" fill="#d62728" />
<path d="M 80.0 881.7395963227984 L 260.0 719.8650007451747 L 440.0 663.8467241551699 L 620.0 624.1822980434918 L 800.0 604.4055486278409 L 980.0 565.470073215778 L 1160.0 524.5696002656218 L 1340.0 486.9177119550556 L 1520.0 455.36682406518304" fill="none" stroke="#d62728" stroke-width="2" />
<circle cx="80.0" cy="893.545428305699" r="4" fill="#9467bd" />
<circle cx="260.0" cy="731.0528093088362" r="4" fill="#9467bd" />
<circle cx="440.0" cy="665.1778515196849" r="4" fill="#9467bd" />
<circle cx="620.0" cy="625.386651373291" r="4" fill="#9467bd" />
<circle cx="800.0" cy="607.6382865130915" r="4" fill="#9467bd" />
<circle cx="980.0" cy="568.3700292599" r="4" fill="#9467bd" />
<circle cx="1160.0" cy="525.5837925433475" r="4" fill="#9467bd" />
<circle cx="1340.0" cy="486.8701716920372" r="4" fill="#9467bd" />
<circle cx="1520.0" cy="454.97065520669645" r="4" fill="#9467bd" />
<path d="M 80.0 893.545428305699 L 260.0 731.0528093088362 L 440.0 665.1778515196849 L 620.0 625.386651373291 L 800.0 607.6382865130915 L 980.0 568.3700292599 L 1160.0 525.5837925433475 L 1340.0 486.8701716920372 L 1520.0 454.97065520669645" fill="none" stroke="#9467bd" stroke-width="2" />
<text x="80.0" y="940" text-anchor="middle">08-07</text>
<text x="260.0" y="940" text-anchor="middle">08-08</text>
<text x="440.0" y="940" text-anchor="middle">08-09</text>
<text x="620.0" y="940" text-anchor="middle">08-10</text>
<text x="800.0" y="940" text-anchor="middle">08-11</text>
<text x="980.0" y="940" text-anchor="middle">08-12</text>
<text x="1160.0" y="940" text-anchor="middle">08-13</text>
<text x="1340.0" y="940" text-anchor="middle">08-14</text>
<text x="1520.0" y="940" text-anchor="middle">08-15</text>
<rect x="90" y="100" width="130" height="160" class="legend-box" />
<text x="100" y="120" class="legend-item">图例:</text>
<rect x="100" y="137" width="15" height="15" fill="#1f77b4" rx="3" />
<text x="120" y="145" class="legend-item">构件聚合数据</text>
<rect x="100" y="162" width="15" height="15" fill="#ff7f0e" rx="3" />
<text x="120" y="170" class="legend-item">构件基本信息</text>
<rect x="100" y="187" width="15" height="15" fill="#2ca02c" rx="3" />
<text x="120" y="195" class="legend-item">构件徽标</text>
<rect x="100" y="212" width="15" height="15" fill="#d62728" rx="3" />
<text x="120" y="220" class="legend-item">构件扩展元数据</text>
<rect x="100" y="237" width="15" height="15" fill="#9467bd" rx="3" />
<text x="120" y="245" class="legend-item">构件版本信息</text>
<text x="1520" y="990" text-anchor="end" font-size="10" fill="#666">生成时间: 2025-08-15 01:25:46</text>
</svg>