<svg xmlns="http://www.w3.org/2000/svg" width="1600" height="1000" viewBox="0 0 1600 1000">
<style>
  text {
    font-family: Arial, sans-serif;
    font-size: 12px;
    fill: #333;
  }
  .axis-label { font-size: 14px; }
  .title { font-size: 18px; font-weight: bold; }
  .legend-item { font-size: 11px; }
  .legend-box { fill: white; fill-opacity: 0.85; stroke: #cccccc; stroke-width: 1; rx: 5; }
</style>
<text x="800.0" y="30" text-anchor="middle" class="title">Daily Data Growth Trend</text>
<text x="800.0" y="980" text-anchor="middle" class="axis-label">Date</text>
<g transform="rotate(-90)">
<text x="-500.0" y="20" text-anchor="middle" class="axis-label">Count</text>
</g>
<rect x="0" y="0" width="1600" height="1000" fill="#f8f8f8" />
<line x1="80" y1="920.0" x2="1520" y2="920.0" stroke="#e0e0e0" stroke-width="1" />
<text x="70" y="925.0" text-anchor="end">0</text>
<line x1="80" y1="752.0" x2="1520" y2="752.0" stroke="#e0e0e0" stroke-width="1" />
<text x="70" y="757.0" text-anchor="end">17.6k</text>
<line x1="80" y1="584.0" x2="1520" y2="584.0" stroke="#e0e0e0" stroke-width="1" />
<text x="70" y="589.0" text-anchor="end">35.2k</text>
<line x1="80" y1="416.0" x2="1520" y2="416.0" stroke="#e0e0e0" stroke-width="1" />
<text x="70" y="421.0" text-anchor="end">52.8k</text>
<line x1="80" y1="248.0" x2="1520" y2="248.0" stroke="#e0e0e0" stroke-width="1" />
<text x="70" y="253.0" text-anchor="end">70.3k</text>
<line x1="80" y1="80.0" x2="1520" y2="80.0" stroke="#e0e0e0" stroke-width="1" />
<text x="70" y="85.0" text-anchor="end">87.9k</text>
<line x1="80" y1="80" x2="80" y2="920" stroke="#333333" stroke-width="2" />
<line x1="80" y1="920" x2="1520" y2="920" stroke="#333333" stroke-width="2" />
<circle cx="80.0" cy="920.0" r="4" fill="#1f77b4" />
<circle cx="123.63636363636363" cy="873.2997348747224" r="4" fill="#1f77b4" />
<circle cx="167.27272727272725" cy="774.3291852771873" r="4" fill="#1f77b4" />
<circle cx="210.9090909090909" cy="734.5174003391693" r="4" fill="#1f77b4" />
<circle cx="254.54545454545453" cy="710.5558076766905" r="4" fill="#1f77b4" />
<circle cx="298.18181818181813" cy="698.527241025151" r="4" fill="#1f77b4" />
<circle cx="341.8181818181818" cy="674.5656483626723" r="4" fill="#1f77b4" />
<circle cx="385.45454545454544" cy="648.7027969522535" r="4" fill="#1f77b4" />
<circle cx="429.09090909090907" cy="624.8654071225548" r="4" fill="#1f77b4" />
<circle cx="472.7272727272727" cy="605.4324408245157" r="4" fill="#1f77b4" />
<circle cx="516.3636363636363" cy="587.7096519932165" r="4" fill="#1f77b4" />
<circle cx="560.0" cy="576.5696132992572" r="4" fill="#1f77b4" />
<circle cx="603.6363636363636" cy="565.5442233740177" r="4" fill="#1f77b4" />
<circle cx="647.2727272727273" cy="548.9679222299185" r="4" fill="#1f77b4" />
<circle cx="690.9090909090909" cy="525.4267083860798" r="4" fill="#1f77b4" />
<circle cx="734.5454545454545" cy="499.965127666181" r="4" fill="#1f77b4" />
<circle cx="778.1818181818181" cy="483.06398834404183" r="4" fill="#1f77b4" />
<circle cx="821.8181818181818" cy="459.93359925478296" r="4" fill="#1f77b4" />
<circle cx="865.4545454545454" cy="450.37953519478344" r="4" fill="#1f77b4" />
<circle cx="909.090909090909" cy="441.5802421955239" r="4" fill="#1f77b4" />
<circle cx="952.7272727272726" cy="422.6536412926649" r="4" fill="#1f77b4" />
<circle cx="996.3636363636363" cy="404.04232450378584" r="4" fill="#1f77b4" />
<circle cx="1040.0" cy="387.5615640002866" r="4" fill="#1f77b4" />
<circle cx="1083.6363636363635" cy="364.81333747342774" r="4" fill="#1f77b4" />
<circle cx="1127.2727272727273" cy="349.1542264790885" r="4" fill="#1f77b4" />
<circle cx="1170.9090909090908" cy="339.50462177848897" r="4" fill="#1f77b4" />
<circle cx="1214.5454545454545" cy="328.6225428141496" r="4" fill="#1f77b4" />
<circle cx="1258.181818181818" cy="314.6449470943702" r="4" fill="#1f77b4" />
<circle cx="1301.8181818181818" cy="302.51128573817084" r="4" fill="#1f77b4" />
<circle cx="1345.4545454545453" cy="292.2024506174314" r="4" fill="#1f77b4" />
<circle cx="1389.090909090909" cy="274.6994052595122" r="4" fill="#1f77b4" />
<circle cx="1432.7272727272725" cy="260.416079489813" r="4" fill="#1f77b4" />
<circle cx="1476.3636363636363" cy="238.632813433014" r="4" fill="#1f77b4" />
<circle cx="1520.0" cy="232.2506986409344" r="4" fill="#1f77b4" />
<path d="M 80.0 920.0 L 123.63636363636363 873.2997348747224 L 167.27272727272725 774.3291852771873 L 210.9090909090909 734.5174003391693 L 254.54545454545453 710.5558076766905 L 298.18181818181813 698.527241025151 L 341.8181818181818 674.5656483626723 L 385.45454545454544 648.7027969522535 L 429.09090909090907 624.8654071225548 L 472.7272727272727 605.4324408245157 L 516.3636363636363 587.7096519932165 L 560.0 576.5696132992572 L 603.6363636363636 565.5442233740177 L 647.2727272727273 548.9679222299185 L 690.9090909090909 525.4267083860798 L 734.5454545454545 499.965127666181 L 778.1818181818181 483.06398834404183 L 821.8181818181818 459.93359925478296 L 865.4545454545454 450.37953519478344 L 909.090909090909 441.5802421955239 L 952.7272727272726 422.6536412926649 L 996.3636363636363 404.04232450378584 L 1040.0 387.5615640002866 L 1083.6363636363635 364.81333747342774 L 1127.2727272727273 349.1542264790885 L 1170.9090909090908 339.50462177848897 L 1214.5454545454545 328.6225428141496 L 1258.181818181818 314.6449470943702 L 1301.8181818181818 302.51128573817084 L 1345.4545454545453 292.2024506174314 L 1389.090909090909 274.6994052595122 L 1432.7272727272725 260.416079489813 L 1476.3636363636363 238.632813433014 L 1520.0 232.2506986409344" fill="none" stroke="#1f77b4" stroke-width="2" />
<circle cx="80.0" cy="920.0" r="4" fill="#ff7f0e" />
<circle cx="123.63636363636363" cy="579.149210595457" r="4" fill="#ff7f0e" />
<circle cx="167.27272727272725" cy="508.0383117968806" r="4" fill="#ff7f0e" />
<circle cx="210.9090909090909" cy="485.2327608856617" r="4" fill="#ff7f0e" />
<circle cx="254.54545454545453" cy="473.9971815511023" r="4" fill="#ff7f0e" />
<circle cx="298.18181818181813" cy="465.2074426159027" r="4" fill="#ff7f0e" />
<circle cx="341.8181818181818" cy="449.5387775575035" r="4" fill="#ff7f0e" />
<circle cx="385.45454545454544" cy="429.6567702486445" r="4" fill="#ff7f0e" />
<circle cx="429.09090909090907" cy="413.79702390904527" r="4" fill="#ff7f0e" />
<circle cx="472.7272727272727" cy="400.727064274966" r="4" fill="#ff7f0e" />
<circle cx="516.3636363636363" cy="387.5042396159266" r="4" fill="#ff7f0e" />
<circle cx="560.0" cy="380.5966513005469" r="4" fill="#ff7f0e" />
<circle cx="603.6363636363636" cy="372.0457639668474" r="4" fill="#ff7f0e" />
<circle cx="647.2727272727273" cy="362.3197267537679" r="4" fill="#ff7f0e" />
<circle cx="690.9090909090909" cy="349.30709150404857" r="4" fill="#ff7f0e" />
<circle cx="734.5454545454545" cy="331.8900327226694" r="4" fill="#ff7f0e" />
<circle cx="778.1818181818181" cy="320.71177777247" r="4" fill="#ff7f0e" />
<circle cx="821.8181818181818" cy="306.7532901808106" r="4" fill="#ff7f0e" />
<circle cx="865.4545454545454" cy="298.25972723147106" r="4" fill="#ff7f0e" />
<circle cx="909.090909090909" cy="291.4858958129314" r="4" fill="#ff7f0e" />
<circle cx="952.7272727272726" cy="276.09429861227215" r="4" fill="#ff7f0e" />
<circle cx="996.3636363636363" cy="263.56892062961276" r="4" fill="#ff7f0e" />
<circle cx="1040.0" cy="248.74101320849354" r="4" fill="#ff7f0e" />
<circle cx="1083.6363636363635" cy="229.28893878233453" r="4" fill="#ff7f0e" />
<circle cx="1127.2727272727273" cy="217.13616929801515" r="4" fill="#ff7f0e" />
<circle cx="1170.9090909090908" cy="202.63310005493588" r="4" fill="#ff7f0e" />
<circle cx="1214.5454545454545" cy="199.031217904316" r="4" fill="#ff7f0e" />
<circle cx="1258.181818181818" cy="186.7637996512766" r="4" fill="#ff7f0e" />
<circle cx="1301.8181818181818" cy="178.55685862373707" r="4" fill="#ff7f0e" />
<circle cx="1345.4545454545453" cy="170.70341796641742" r="4" fill="#ff7f0e" />
<circle cx="1389.090909090909" cy="156.10480808273815" r="4" fill="#ff7f0e" />
<circle cx="1432.7272727272725" cy="142.99663219241882" r="4" fill="#ff7f0e" />
<circle cx="1476.3636363636363" cy="128.5508873336995" r="4" fill="#ff7f0e" />
<circle cx="1520.0" cy="123.2770439725798" r="4" fill="#ff7f0e" />
<path d="M 80.0 920.0 L 123.63636363636363 579.149210595457 L 167.27272727272725 508.0383117968806 L 210.9090909090909 485.2327608856617 L 254.54545454545453 473.9971815511023 L 298.18181818181813 465.2074426159027 L 341.8181818181818 449.5387775575035 L 385.45454545454544 429.6567702486445 L 429.09090909090907 413.79702390904527 L 472.7272727272727 400.727064274966 L 516.3636363636363 387.5042396159266 L 560.0 380.5966513005469 L 603.6363636363636 372.0457639668474 L 647.2727272727273 362.3197267537679 L 690.9090909090909 349.30709150404857 L 734.5454545454545 331.8900327226694 L 778.1818181818181 320.71177777247 L 821.8181818181818 306.7532901808106 L 865.4545454545454 298.25972723147106 L 909.090909090909 291.4858958129314 L 952.7272727272726 276.09429861227215 L 996.3636363636363 263.56892062961276 L 1040.0 248.74101320849354 L 1083.6363636363635 229.28893878233453 L 1127.2727272727273 217.13616929801515 L 1170.9090909090908 202.63310005493588 L 1214.5454545454545 199.031217904316 L 1258.181818181818 186.7637996512766 L 1301.8181818181818 178.55685862373707 L 1345.4545454545453 170.70341796641742 L 1389.090909090909 156.10480808273815 L 1432.7272727272725 142.99663219241882 L 1476.3636363636363 128.5508873336995 L 1520.0 123.2770439725798" fill="none" stroke="#ff7f0e" stroke-width="2" />
<circle cx="80.0" cy="920.0" r="4" fill="#2ca02c" />
<circle cx="123.63636363636363" cy="572.4518116893973" r="4" fill="#2ca02c" />
<circle cx="167.27272727272725" cy="501.6179807485609" r="4" fill="#2ca02c" />
<circle cx="210.9090909090909" cy="479.03217331072204" r="4" fill="#2ca02c" />
<circle cx="254.54545454545453" cy="467.9685671292426" r="4" fill="#2ca02c" />
<circle cx="298.18181818181813" cy="459.197936322163" r="4" fill="#2ca02c" />
<circle cx="341.8181818181818" cy="443.6916903527838" r="4" fill="#2ca02c" />
<circle cx="385.45454545454544" cy="424.0676427735448" r="4" fill="#2ca02c" />
<circle cx="429.09090909090907" cy="408.38942365108556" r="4" fill="#2ca02c" />
<circle cx="472.7272727272727" cy="395.42455872166624" r="4" fill="#2ca02c" />
<circle cx="516.3636363636363" cy="382.26861251104685" r="4" fill="#2ca02c" />
<circle cx="560.0" cy="375.46611890032716" r="4" fill="#2ca02c" />
<circle cx="603.6363636363636" cy="366.91523156662765" r="4" fill="#2ca02c" />
<circle cx="647.2727272727273" cy="357.21785654572807" r="4" fill="#2ca02c" />
<circle cx="690.9090909090909" cy="344.49184321780876" r="4" fill="#2ca02c" />
<circle cx="734.5454545454545" cy="327.4473929347696" r="4" fill="#2ca02c" />
<circle cx="778.1818181818181" cy="316.31690830487014" r="4" fill="#2ca02c" />
<circle cx="821.8181818181818" cy="302.3679747772709" r="4" fill="#2ca02c" />
<circle cx="865.4545454545454" cy="293.8648577638713" r="4" fill="#2ca02c" />
<circle cx="909.090909090909" cy="287.1101344734516" r="4" fill="#2ca02c" />
<circle cx="952.7272727272726" cy="271.82363197745235" r="4" fill="#2ca02c" />
<circle cx="996.3636363636363" cy="259.326916186973" r="4" fill="#2ca02c" />
<circle cx="1040.0" cy="244.5181168939738" r="4" fill="#2ca02c" />
<circle cx="1083.6363636363635" cy="225.0947046599947" r="4" fill="#2ca02c" />
<circle cx="1127.2727272727273" cy="212.98015143191537" r="4" fill="#2ca02c" />
<circle cx="1170.9090909090908" cy="198.486636252896" r="4" fill="#2ca02c" />
<circle cx="1214.5454545454545" cy="194.89430816633626" r="4" fill="#2ca02c" />
<circle cx="1258.181818181818" cy="182.63644397735686" r="4" fill="#2ca02c" />
<circle cx="1301.8181818181818" cy="174.45816514199726" r="4" fill="#2ca02c" />
<circle cx="1345.4545454545453" cy="166.65249480497766" r="4" fill="#2ca02c" />
<circle cx="1389.090909090909" cy="152.38827716339836" r="4" fill="#2ca02c" />
<circle cx="1432.7272727272725" cy="139.31831752931896" r="4" fill="#2ca02c" />
<circle cx="1476.3636363636363" cy="125.2738433611197" r="4" fill="#2ca02c" />
<circle cx="1520.0" cy="120.0" r="4" fill="#2ca02c" />
<path d="M 80.0 920.0 L 123.63636363636363 572.4518116893973 L 167.27272727272725 501.6179807485609 L 210.9090909090909 479.03217331072204 L 254.54545454545453 467.9685671292426 L 298.18181818181813 459.197936322163 L 341.8181818181818 443.6916903527838 L 385.45454545454544 424.0676427735448 L 429.09090909090907 408.38942365108556 L 472.7272727272727 395.42455872166624 L 516.3636363636363 382.26861251104685 L 560.0 375.46611890032716 L 603.6363636363636 366.91523156662765 L 647.2727272727273 357.21785654572807 L 690.9090909090909 344.49184321780876 L 734.5454545454545 327.4473929347696 L 778.1818181818181 316.31690830487014 L 821.8181818181818 302.3679747772709 L 865.4545454545454 293.8648577638713 L 909.090909090909 287.1101344734516 L 952.7272727272726 271.82363197745235 L 996.3636363636363 259.326916186973 L 1040.0 244.5181168939738 L 1083.6363636363635 225.0947046599947 L 1127.2727272727273 212.98015143191537 L 1170.9090909090908 198.486636252896 L 1214.5454545454545 194.89430816633626 L 1258.181818181818 182.63644397735686 L 1301.8181818181818 174.45816514199726 L 1345.4545454545453 166.65249480497766 L 1389.090909090909 152.38827716339836 L 1432.7272727272725 139.31831752931896 L 1476.3636363636363 125.2738433611197 L 1520.0 120.0" fill="none" stroke="#2ca02c" stroke-width="2" />
<circle cx="80.0" cy="920.0" r="4" fill="#d62728" />
<circle cx="123.63636363636363" cy="852.5674158645234" r="4" fill="#d62728" />
<circle cx="167.27272727272725" cy="754.9726514916283" r="4" fill="#d62728" />
<circle cx="210.9090909090909" cy="721.1990350395299" r="4" fill="#d62728" />
<circle cx="254.54545454545453" cy="697.2852126973512" r="4" fill="#d62728" />
<circle cx="298.18181818181813" cy="685.3617407504717" r="4" fill="#d62728" />
<circle cx="341.8181818181818" cy="661.8874053550529" r="4" fill="#d62728" />
<circle cx="385.45454545454544" cy="637.2283660161941" r="4" fill="#d62728" />
<circle cx="429.09090909090907" cy="614.5279098096353" r="4" fill="#d62728" />
<circle cx="472.7272727272727" cy="595.5057682661762" r="4" fill="#d62728" />
<circle cx="516.3636363636363" cy="577.8403038192371" r="4" fill="#d62728" />
<circle cx="560.0" cy="566.7193732533976" r="4" fill="#d62728" />
<circle cx="603.6363636363636" cy="555.7035373922182" r="4" fill="#d62728" />
<circle cx="647.2727272727273" cy="539.948885757279" r="4" fill="#d62728" />
<circle cx="690.9090909090909" cy="516.6847397711801" r="4" fill="#d62728" />
<circle cx="734.5454545454545" cy="491.6530919339814" r="4" fill="#d62728" />
<circle cx="778.1818181818181" cy="475.5544939928822" r="4" fill="#d62728" />
<circle cx="821.8181818181818" cy="452.71072682542336" r="4" fill="#d62728" />
<circle cx="865.4545454545454" cy="443.15666276542385" r="4" fill="#d62728" />
<circle cx="909.090909090909" cy="434.45291040676426" r="4" fill="#d62728" />
<circle cx="952.7272727272726" cy="415.7556070413452" r="4" fill="#d62728" />
<circle cx="996.3636363636363" cy="398.2716698115461" r="4" fill="#d62728" />
<circle cx="1040.0" cy="381.8577877564669" r="4" fill="#d62728" />
<circle cx="1083.6363636363635" cy="359.128669357728" r="4" fill="#d62728" />
<circle cx="1127.2727272727273" cy="343.9854778226288" r="4" fill="#d62728" />
<circle cx="1170.9090909090908" cy="334.3358731220293" r="4" fill="#d62728" />
<circle cx="1214.5454545454545" cy="323.4442400936298" r="4" fill="#d62728" />
<circle cx="1258.181818181818" cy="309.4666443738505" r="4" fill="#d62728" />
<circle cx="1301.8181818181818" cy="298.14507846275103" r="4" fill="#d62728" />
<circle cx="1345.4545454545453" cy="287.8553514701316" r="4" fill="#d62728" />
<circle cx="1389.090909090909" cy="270.3905223684525" r="4" fill="#d62728" />
<circle cx="1432.7272727272725" cy="256.11675066281316" r="4" fill="#d62728" />
<circle cx="1476.3636363636363" cy="234.4481333747343" r="4" fill="#d62728" />
<circle cx="1520.0" cy="228.09468077483461" r="4" fill="#d62728" />
<path d="M 80.0 920.0 L 123.63636363636363 852.5674158645234 L 167.27272727272725 754.9726514916283 L 210.9090909090909 721.1990350395299 L 254.54545454545453 697.2852126973512 L 298.18181818181813 685.3617407504717 L 341.8181818181818 661.8874053550529 L 385.45454545454544 637.2283660161941 L 429.09090909090907 614.5279098096353 L 472.7272727272727 595.5057682661762 L 516.3636363636363 577.8403038192371 L 560.0 566.7193732533976 L 603.6363636363636 555.7035373922182 L 647.2727272727273 539.948885757279 L 690.9090909090909 516.6847397711801 L 734.5454545454545 491.6530919339814 L 778.1818181818181 475.5544939928822 L 821.8181818181818 452.71072682542336 L 865.4545454545454 443.15666276542385 L 909.090909090909 434.45291040676426 L 952.7272727272726 415.7556070413452 L 996.3636363636363 398.2716698115461 L 1040.0 381.8577877564669 L 1083.6363636363635 359.128669357728 L 1127.2727272727273 343.9854778226288 L 1170.9090909090908 334.3358731220293 L 1214.5454545454545 323.4442400936298 L 1258.181818181818 309.4666443738505 L 1301.8181818181818 298.14507846275103 L 1345.4545454545453 287.8553514701316 L 1389.090909090909 270.3905223684525 L 1432.7272727272725 256.11675066281316 L 1476.3636363636363 234.4481333747343 L 1520.0 228.09468077483461" fill="none" stroke="#d62728" stroke-width="2" />
<circle cx="80.0" cy="920.0" r="4" fill="#9467bd" />
<circle cx="123.63636363636363" cy="859.685193589223" r="4" fill="#9467bd" />
<circle cx="167.27272727272725" cy="761.7178207179879" r="4" fill="#9467bd" />
<circle cx="210.9090909090909" cy="722.0015764205699" r="4" fill="#9467bd" />
<circle cx="254.54545454545453" cy="698.0113215659111" r="4" fill="#9467bd" />
<circle cx="298.18181818181813" cy="687.3107698187116" r="4" fill="#9467bd" />
<circle cx="341.8181818181818" cy="663.6357990780327" r="4" fill="#9467bd" />
<circle cx="385.45454545454544" cy="637.8398261160341" r="4" fill="#9467bd" />
<circle cx="429.09090909090907" cy="614.4992476174552" r="4" fill="#9467bd" />
<circle cx="472.7272727272727" cy="595.2669166646763" r="4" fill="#9467bd" />
<circle cx="516.3636363636363" cy="577.802087562997" r="4" fill="#9467bd" />
<circle cx="560.0" cy="566.6716029330976" r="4" fill="#9467bd" />
<circle cx="603.6363636363636" cy="555.5793345594382" r="4" fill="#9467bd" />
<circle cx="647.2727272727273" cy="539.098574055939" r="4" fill="#9467bd" />
<circle cx="690.9090909090909" cy="516.0064012229202" r="4" fill="#9467bd" />
<circle cx="734.5454545454545" cy="490.48749611866145" r="4" fill="#9467bd" />
<circle cx="778.1818181818181" cy="473.9494112308023" r="4" fill="#9467bd" />
<circle cx="821.8181818181818" cy="454.0960661141233" r="4" fill="#9467bd" />
<circle cx="865.4545454545454" cy="444.53244799006376" r="4" fill="#9467bd" />
<circle cx="909.090909090909" cy="435.7331549908042" r="4" fill="#9467bd" />
<circle cx="952.7272727272726" cy="416.7587837676451" r="4" fill="#9467bd" />
<circle cx="996.3636363636363" cy="398.7302648864261" r="4" fill="#9467bd" />
<circle cx="1040.0" cy="382.3354909594668" r="4" fill="#9467bd" />
<circle cx="1083.6363636363635" cy="359.520385984188" r="4" fill="#9467bd" />
<circle cx="1127.2727272727273" cy="344.1574509757088" r="4" fill="#9467bd" />
<circle cx="1170.9090909090908" cy="334.5365084672893" r="4" fill="#9467bd" />
<circle cx="1214.5454545454545" cy="323.6448754388898" r="4" fill="#9467bd" />
<circle cx="1258.181818181818" cy="309.6481715909905" r="4" fill="#9467bd" />
<circle cx="1301.8181818181818" cy="297.95399718155113" r="4" fill="#9467bd" />
<circle cx="1345.4545454545453" cy="287.6642701889316" r="4" fill="#9467bd" />
<circle cx="1389.090909090909" cy="270.4382926887524" r="4" fill="#9467bd" />
<circle cx="1432.7272727272725" cy="256.4893591611532" r="4" fill="#9467bd" />
<circle cx="1476.3636363636363" cy="234.69653904029428" r="4" fill="#9467bd" />
<circle cx="1520.0" cy="228.2857620560345" r="4" fill="#9467bd" />
<path d="M 80.0 920.0 L 123.63636363636363 859.685193589223 L 167.27272727272725 761.7178207179879 L 210.9090909090909 722.0015764205699 L 254.54545454545453 698.0113215659111 L 298.18181818181813 687.3107698187116 L 341.8181818181818 663.6357990780327 L 385.45454545454544 637.8398261160341 L 429.09090909090907 614.4992476174552 L 472.7272727272727 595.2669166646763 L 516.3636363636363 577.802087562997 L 560.0 566.6716029330976 L 603.6363636363636 555.5793345594382 L 647.2727272727273 539.098574055939 L 690.9090909090909 516.0064012229202 L 734.5454545454545 490.48749611866145 L 778.1818181818181 473.9494112308023 L 821.8181818181818 454.0960661141233 L 865.4545454545454 444.53244799006376 L 909.090909090909 435.7331549908042 L 952.7272727272726 416.7587837676451 L 996.3636363636363 398.7302648864261 L 1040.0 382.3354909594668 L 1083.6363636363635 359.520385984188 L 1127.2727272727273 344.1574509757088 L 1170.9090909090908 334.5365084672893 L 1214.5454545454545 323.6448754388898 L 1258.181818181818 309.6481715909905 L 1301.8181818181818 297.95399718155113 L 1345.4545454545453 287.6642701889316 L 1389.090909090909 270.4382926887524 L 1432.7272727272725 256.4893591611532 L 1476.3636363636363 234.69653904029428 L 1520.0 228.2857620560345" fill="none" stroke="#9467bd" stroke-width="2" />
<circle cx="80.0" cy="920.0" r="4" fill="#66ffbd" />
<circle cx="123.63636363636363" cy="619.152076814675" r="4" fill="#66ffbd" />
<circle cx="167.27272727272725" cy="647.2887954713736" r="4" fill="#66ffbd" />
<circle cx="210.9090909090909" cy="664.5147729715527" r="4" fill="#66ffbd" />
<circle cx="254.54545454545453" cy="677.4127594525521" r="4" fill="#66ffbd" />
<circle cx="298.18181818181813" cy="680.6706952970119" r="4" fill="#66ffbd" />
<circle cx="341.8181818181818" cy="689.1260419901115" r="4" fill="#66ffbd" />
<circle cx="385.45454545454544" cy="695.3648458212913" r="4" fill="#66ffbd" />
<circle cx="429.09090909090907" cy="703.5240165285309" r="4" fill="#66ffbd" />
<circle cx="472.7272727272727" cy="709.9921178971505" r="4" fill="#66ffbd" />
<circle cx="516.3636363636363" cy="714.5589605178302" r="4" fill="#66ffbd" />
<circle cx="560.0" cy="718.8965056010701" r="4" fill="#66ffbd" />
<circle cx="603.6363636363636" cy="721.3710081926099" r="4" fill="#66ffbd" />
<circle cx="647.2727272727273" cy="728.2499343158096" r="4" fill="#66ffbd" />
<circle cx="690.9090909090909" cy="739.065134831729" r="4" fill="#66ffbd" />
<circle cx="734.5454545454545" cy="747.4822652685887" r="4" fill="#66ffbd" />
<circle cx="778.1818181818181" cy="753.2529199608283" r="4" fill="#66ffbd" />
<circle cx="821.8181818181818" cy="762.4343755224879" r="4" fill="#66ffbd" />
<circle cx="865.4545454545454" cy="763.4853225690879" r="4" fill="#66ffbd" />
<circle cx="909.090909090909" cy="765.5298922779277" r="4" fill="#66ffbd" />
<circle cx="952.7272727272726" cy="769.1699906847875" r="4" fill="#66ffbd" />
<circle cx="996.3636363636363" cy="775.2845916831873" r="4" fill="#66ffbd" />
<circle cx="1040.0" cy="776.9565528936871" r="4" fill="#66ffbd" />
<circle cx="1083.6363636363635" cy="780.281367186567" r="4" fill="#66ffbd" />
<circle cx="1127.2727272727273" cy="783.8259249528268" r="4" fill="#66ffbd" />
<circle cx="1170.9090909090908" cy="778.982014474407" r="4" fill="#66ffbd" />
<circle cx="1214.5454545454545" cy="786.2717653521867" r="4" fill="#66ffbd" />
<circle cx="1258.181818181818" cy="787.9914968829867" r="4" fill="#66ffbd" />
<circle cx="1301.8181818181818" cy="791.9468794038264" r="4" fill="#66ffbd" />
<circle cx="1345.4545454545453" cy="794.4500441875463" r="4" fill="#66ffbd" />
<circle cx="1389.090909090909" cy="797.6888719038861" r="4" fill="#66ffbd" />
<circle cx="1432.7272727272725" cy="798.9022380395061" r="4" fill="#66ffbd" />
<circle cx="1476.3636363636363" cy="806.6410299281057" r="4" fill="#66ffbd" />
<circle cx="1520.0" cy="807.7493013590656" r="4" fill="#66ffbd" />
<path d="M 80.0 920.0 L 123.63636363636363 619.152076814675 L 167.27272727272725 647.2887954713736 L 210.9090909090909 664.5147729715527 L 254.54545454545453 677.4127594525521 L 298.18181818181813 680.6706952970119 L 341.8181818181818 689.1260419901115 L 385.45454545454544 695.3648458212913 L 429.09090909090907 703.5240165285309 L 472.7272727272727 709.9921178971505 L 516.3636363636363 714.5589605178302 L 560.0 718.8965056010701 L 603.6363636363636 721.3710081926099 L 647.2727272727273 728.2499343158096 L 690.9090909090909 739.065134831729 L 734.5454545454545 747.4822652685887 L 778.1818181818181 753.2529199608283 L 821.8181818181818 762.4343755224879 L 865.4545454545454 763.4853225690879 L 909.090909090909 765.5298922779277 L 952.7272727272726 769.1699906847875 L 996.3636363636363 775.2845916831873 L 1040.0 776.9565528936871 L 1083.6363636363635 780.281367186567 L 1127.2727272727273 783.8259249528268 L 1170.9090909090908 778.982014474407 L 1214.5454545454545 786.2717653521867 L 1258.181818181818 787.9914968829867 L 1301.8181818181818 791.9468794038264 L 1345.4545454545453 794.4500441875463 L 1389.090909090909 797.6888719038861 L 1432.7272727272725 798.9022380395061 L 1476.3636363636363 806.6410299281057 L 1520.0 807.7493013590656" fill="none" stroke="#66ffbd" stroke-width="2" />
<text x="80.0" y="940" text-anchor="middle">08-06</text>
<text x="123.63636363636363" y="940" text-anchor="middle">08-07</text>
<text x="167.27272727272725" y="940" text-anchor="middle">08-08</text>
<text x="210.9090909090909" y="940" text-anchor="middle">08-09</text>
<text x="254.54545454545453" y="940" text-anchor="middle">08-10</text>
<text x="298.18181818181813" y="940" text-anchor="middle">08-11</text>
<text x="341.8181818181818" y="940" text-anchor="middle">08-12</text>
<text x="385.45454545454544" y="940" text-anchor="middle">08-13</text>
<text x="429.09090909090907" y="940" text-anchor="middle">08-14</text>
<text x="472.7272727272727" y="940" text-anchor="middle">08-15</text>
<text x="516.3636363636363" y="940" text-anchor="middle">08-16</text>
<text x="560.0" y="940" text-anchor="middle">08-17</text>
<text x="603.6363636363636" y="940" text-anchor="middle">08-18</text>
<text x="647.2727272727273" y="940" text-anchor="middle">08-19</text>
<text x="690.9090909090909" y="940" text-anchor="middle">08-20</text>
<text x="734.5454545454545" y="940" text-anchor="middle">08-21</text>
<text x="778.1818181818181" y="940" text-anchor="middle">08-22</text>
<text x="821.8181818181818" y="940" text-anchor="middle">08-23</text>
<text x="865.4545454545454" y="940" text-anchor="middle">08-24</text>
<text x="909.090909090909" y="940" text-anchor="middle">08-25</text>
<text x="952.7272727272726" y="940" text-anchor="middle">08-26</text>
<text x="996.3636363636363" y="940" text-anchor="middle">08-27</text>
<text x="1040.0" y="940" text-anchor="middle">08-28</text>
<text x="1083.6363636363635" y="940" text-anchor="middle">08-29</text>
<text x="1127.2727272727273" y="940" text-anchor="middle">08-30</text>
<text x="1170.9090909090908" y="940" text-anchor="middle">08-31</text>
<text x="1214.5454545454545" y="940" text-anchor="middle">09-01</text>
<text x="1258.181818181818" y="940" text-anchor="middle">09-02</text>
<text x="1301.8181818181818" y="940" text-anchor="middle">09-03</text>
<text x="1345.4545454545453" y="940" text-anchor="middle">09-04</text>
<text x="1389.090909090909" y="940" text-anchor="middle">09-05</text>
<text x="1432.7272727272725" y="940" text-anchor="middle">09-06</text>
<text x="1476.3636363636363" y="940" text-anchor="middle">09-07</text>
<text x="1520.0" y="940" text-anchor="middle">09-08</text>
<rect x="90" y="100" width="130" height="185" class="legend-box" />
<text x="100" y="120" class="legend-item">图例:</text>
<rect x="100" y="137" width="15" height="15" fill="#1f77b4" rx="3" />
<text x="120" y="145" class="legend-item">构件聚合数据</text>
<rect x="100" y="162" width="15" height="15" fill="#ff7f0e" rx="3" />
<text x="120" y="170" class="legend-item">构件基本信息</text>
<rect x="100" y="187" width="15" height="15" fill="#2ca02c" rx="3" />
<text x="120" y="195" class="legend-item">构件徽标</text>
<rect x="100" y="212" width="15" height="15" fill="#d62728" rx="3" />
<text x="120" y="220" class="legend-item">构件扩展元数据</text>
<rect x="100" y="237" width="15" height="15" fill="#9467bd" rx="3" />
<text x="120" y="245" class="legend-item">构件版本信息</text>
<rect x="100" y="262" width="15" height="15" fill="#66ffbd" rx="3" />
<text x="120" y="270" class="legend-item">数据量偏差</text>
<text x="1520" y="990" text-anchor="end" font-size="10" fill="#666">生成时间: 2025-09-08 06:55:55</text>
</svg>