<svg xmlns="http://www.w3.org/2000/svg" width="1600" height="1000" viewBox="0 0 1600 1000">
<style>
  text {
    font-family: Arial, sans-serif;
    font-size: 12px;
    fill: #333;
  }
  .axis-label { font-size: 14px; }
  .title { font-size: 18px; font-weight: bold; }
  .legend-item { font-size: 11px; }
  .legend-box { fill: white; fill-opacity: 0.85; stroke: #cccccc; stroke-width: 1; rx: 5; }
</style>
<text x="800.0" y="30" text-anchor="middle" class="title">Daily Data Growth Trend</text>
<text x="800.0" y="980" text-anchor="middle" class="axis-label">Date</text>
<g transform="rotate(-90)">
<text x="-500.0" y="20" text-anchor="middle" class="axis-label">Count</text>
</g>
<rect x="0" y="0" width="1600" height="1000" fill="#f8f8f8" />
<line x1="80" y1="920.0" x2="1520" y2="920.0" stroke="#e0e0e0" stroke-width="1" />
<text x="70" y="925.0" text-anchor="end">0</text>
<line x1="80" y1="752.0" x2="1520" y2="752.0" stroke="#e0e0e0" stroke-width="1" />
<text x="70" y="757.0" text-anchor="end">20.3k</text>
<line x1="80" y1="584.0" x2="1520" y2="584.0" stroke="#e0e0e0" stroke-width="1" />
<text x="70" y="589.0" text-anchor="end">40.6k</text>
<line x1="80" y1="416.0" x2="1520" y2="416.0" stroke="#e0e0e0" stroke-width="1" />
<text x="70" y="421.0" text-anchor="end">60.9k</text>
<line x1="80" y1="248.0" x2="1520" y2="248.0" stroke="#e0e0e0" stroke-width="1" />
<text x="70" y="253.0" text-anchor="end">81.2k</text>
<line x1="80" y1="80.0" x2="1520" y2="80.0" stroke="#e0e0e0" stroke-width="1" />
<text x="70" y="85.0" text-anchor="end">101.5k</text>
<line x1="80" y1="80" x2="80" y2="920" stroke="#333333" stroke-width="2" />
<line x1="80" y1="920" x2="1520" y2="920" stroke="#333333" stroke-width="2" />
<circle cx="80.0" cy="920.0" r="4" fill="#1f77b4" />
<circle cx="111.30434782608695" cy="879.5355864152817" r="4" fill="#1f77b4" />
<circle cx="142.6086956521739" cy="793.7805004242638" r="4" fill="#1f77b4" />
<circle cx="173.91304347826087" cy="759.2847534096318" r="4" fill="#1f77b4" />
<circle cx="205.2173913043478" cy="738.5227343281111" r="4" fill="#1f77b4" />
<circle cx="236.52173913043478" cy="728.10033320226" r="4" fill="#1f77b4" />
<circle cx="267.82608695652175" cy="707.3383141207393" r="4" fill="#1f77b4" />
<circle cx="299.1304347826087" cy="684.9289099526067" r="4" fill="#1f77b4" />
<circle cx="330.4347826086956" cy="664.2745089923219" r="4" fill="#1f77b4" />
<circle cx="361.7391304347826" cy="647.4364121774043" r="4" fill="#1f77b4" />
<circle cx="393.04347826086956" cy="632.0801341087357" r="4" fill="#1f77b4" />
<circle cx="424.3478260869565" cy="622.4276164655726" r="4" fill="#1f77b4" />
<circle cx="455.6521739130435" cy="612.8744386266272" r="4" fill="#1f77b4" />
<circle cx="486.95652173913044" cy="598.5115586001366" r="4" fill="#1f77b4" />
<circle cx="518.2608695652174" cy="578.1137854674146" r="4" fill="#1f77b4" />
<circle cx="549.5652173913044" cy="556.0520706140442" r="4" fill="#1f77b4" />
<circle cx="580.8695652173913" cy="541.4077278089364" r="4" fill="#1f77b4" />
<circle cx="612.1739130434783" cy="521.3659223079949" r="4" fill="#1f77b4" />
<circle cx="643.4782608695652" cy="513.0876052898445" r="4" fill="#1f77b4" />
<circle cx="674.7826086956521" cy="505.46327531612826" r="4" fill="#1f77b4" />
<circle cx="706.0869565217391" cy="489.0639293031727" r="4" fill="#1f77b4" />
<circle cx="737.3913043478261" cy="472.93776775181607" r="4" fill="#1f77b4" />
<circle cx="768.695652173913" cy="458.657670895507" r="4" fill="#1f77b4" />
<circle cx="800.0" cy="438.94699807529133" r="4" fill="#1f77b4" />
<circle cx="831.304347826087" cy="425.37883648254314" r="4" fill="#1f77b4" />
<circle cx="862.6086956521739" cy="417.01773629421143" r="4" fill="#1f77b4" />
<circle cx="893.9130434782609" cy="407.5887332105383" r="4" fill="#1f77b4" />
<circle cx="925.2173913043479" cy="395.47755541298454" r="4" fill="#1f77b4" />
<circle cx="956.5217391304348" cy="384.96409279993384" r="4" fill="#1f77b4" />
<circle cx="987.8260869565217" cy="376.03178873734976" r="4" fill="#1f77b4" />
<circle cx="1019.1304347826087" cy="360.8659119600985" r="4" fill="#1f77b4" />
<circle cx="1050.4347826086955" cy="348.489828017964" r="4" fill="#1f77b4" />
<circle cx="1081.7391304347825" cy="329.6152652165815" r="4" fill="#1f77b4" />
<circle cx="1113.0434782608695" cy="324.08534944845724" r="4" fill="#1f77b4" />
<circle cx="1144.3478260869565" cy="317.8103851486993" r="4" fill="#1f77b4" />
<circle cx="1175.6521739130435" cy="309.4906765454583" r="4" fill="#1f77b4" />
<circle cx="1206.9565217391305" cy="302.801796394793" r="4" fill="#1f77b4" />
<circle cx="1238.2608695652175" cy="292.8595376559946" r="4" fill="#1f77b4" />
<circle cx="1269.5652173913043" cy="281.7086446325462" r="4" fill="#1f77b4" />
<circle cx="1300.8695652173913" cy="276.6423146174383" r="4" fill="#1f77b4" />
<circle cx="1332.1739130434783" cy="271.1455121173866" r="4" fill="#1f77b4" />
<circle cx="1363.4782608695652" cy="262.04764171443946" r="4" fill="#1f77b4" />
<circle cx="1394.7826086956522" cy="254.41503342370504" r="4" fill="#1f77b4" />
<circle cx="1426.0869565217392" cy="229.17444483536508" r="4" fill="#1f77b4" />
<circle cx="1457.391304347826" cy="219.4225873879841" r="4" fill="#1f77b4" />
<circle cx="1488.695652173913" cy="209.07469111529633" r="4" fill="#1f77b4" />
<circle cx="1520.0" cy="201.723545603179" r="4" fill="#1f77b4" />
<path d="M 80.0 920.0 L 111.30434782608695 879.5355864152817 L 142.6086956521739 793.7805004242638 L 173.91304347826087 759.2847534096318 L 205.2173913043478 738.5227343281111 L 236.52173913043478 728.10033320226 L 267.82608695652175 707.3383141207393 L 299.1304347826087 684.9289099526067 L 330.4347826086956 664.2745089923219 L 361.7391304347826 647.4364121774043 L 393.04347826086956 632.0801341087357 L 424.3478260869565 622.4276164655726 L 455.6521739130435 612.8744386266272 L 486.95652173913044 598.5115586001366 L 518.2608695652174 578.1137854674146 L 549.5652173913044 556.0520706140442 L 580.8695652173913 541.4077278089364 L 612.1739130434783 521.3659223079949 L 643.4782608695652 513.0876052898445 L 674.7826086956521 505.46327531612826 L 706.0869565217391 489.0639293031727 L 737.3913043478261 472.93776775181607 L 768.695652173913 458.657670895507 L 800.0 438.94699807529133 L 831.304347826087 425.37883648254314 L 862.6086956521739 417.01773629421143 L 893.9130434782609 407.5887332105383 L 925.2173913043479 395.47755541298454 L 956.5217391304348 384.96409279993384 L 987.8260869565217 376.03178873734976 L 1019.1304347826087 360.8659119600985 L 1050.4347826086955 348.489828017964 L 1081.7391304347825 329.6152652165815 L 1113.0434782608695 324.08534944845724 L 1144.3478260869565 317.8103851486993 L 1175.6521739130435 309.4906765454583 L 1206.9565217391305 302.801796394793 L 1238.2608695652175 292.8595376559946 L 1269.5652173913043 281.7086446325462 L 1300.8695652173913 276.6423146174383 L 1332.1739130434783 271.1455121173866 L 1363.4782608695652 262.04764171443946 L 1394.7826086956522 254.41503342370504 L 1426.0869565217392 229.17444483536508 L 1457.391304347826 219.4225873879841 L 1488.695652173913 209.07469111529633 L 1520.0 201.723545603179" fill="none" stroke="#1f77b4" stroke-width="2" />
<circle cx="80.0" cy="920.0" r="4" fill="#ff7f0e" />
<circle cx="111.30434782608695" cy="624.6627620604731" r="4" fill="#ff7f0e" />
<circle cx="142.6086956521739" cy="563.0472484943812" r="4" fill="#ff7f0e" />
<circle cx="173.91304347826087" cy="543.2869057720566" r="4" fill="#ff7f0e" />
<circle cx="205.2173913043478" cy="533.551604958712" r="4" fill="#ff7f0e" />
<circle cx="236.52173913043478" cy="525.9355533020137" r="4" fill="#ff7f0e" />
<circle cx="267.82608695652175" cy="512.3591133922473" r="4" fill="#ff7f0e" />
<circle cx="299.1304347826087" cy="495.1319356774768" r="4" fill="#ff7f0e" />
<circle cx="330.4347826086956" cy="481.38992942734745" r="4" fill="#ff7f0e" />
<circle cx="361.7391304347826" cy="470.065191746518" r="4" fill="#ff7f0e" />
<circle cx="393.04347826086956" cy="458.6080009933981" r="4" fill="#ff7f0e" />
<circle cx="424.3478260869565" cy="452.62277778927546" r="4" fill="#ff7f0e" />
<circle cx="455.6521739130435" cy="445.21368405803105" r="4" fill="#ff7f0e" />
<circle cx="486.95652173913044" cy="436.7863573335541" r="4" fill="#ff7f0e" />
<circle cx="518.2608695652174" cy="425.5112895548335" r="4" fill="#ff7f0e" />
<circle cx="549.5652173913044" cy="410.4199176307457" r="4" fill="#ff7f0e" />
<circle cx="580.8695652173913" cy="400.73428671951" r="4" fill="#ff7f0e" />
<circle cx="612.1739130434783" cy="388.63966555599256" r="4" fill="#ff7f0e" />
<circle cx="643.4782608695652" cy="381.28024172685696" r="4" fill="#ff7f0e" />
<circle cx="674.7826086956521" cy="375.4109149609885" r="4" fill="#ff7f0e" />
<circle cx="706.0869565217391" cy="362.0745462447485" r="4" fill="#ff7f0e" />
<circle cx="737.3913043478261" cy="351.2216726339535" r="4" fill="#ff7f0e" />
<circle cx="768.695652173913" cy="338.3737246217844" r="4" fill="#ff7f0e" />
<circle cx="800.0" cy="321.51907117283065" r="4" fill="#ff7f0e" />
<circle cx="831.304347826087" cy="310.9890519257435" r="4" fill="#ff7f0e" />
<circle cx="862.6086956521739" cy="298.4225666921915" r="4" fill="#ff7f0e" />
<circle cx="893.9130434782609" cy="295.3016411763489" r="4" fill="#ff7f0e" />
<circle cx="925.2173913043479" cy="284.67228212504403" r="4" fill="#ff7f0e" />
<circle cx="956.5217391304348" cy="277.561207806453" r="4" fill="#ff7f0e" />
<circle cx="987.8260869565217" cy="270.75643121753353" r="4" fill="#ff7f0e" />
<circle cx="1019.1304347826087" cy="258.10716281379996" r="4" fill="#ff7f0e" />
<circle cx="1050.4347826086955" cy="246.7493118648979" r="4" fill="#ff7f0e" />
<circle cx="1081.7391304347825" cy="234.23249653345476" r="4" fill="#ff7f0e" />
<circle cx="1113.0434782608695" cy="229.66286553943587" r="4" fill="#ff7f0e" />
<circle cx="1144.3478260869565" cy="224.97733810716284" r="4" fill="#ff7f0e" />
<circle cx="1175.6521739130435" cy="218.66098222231426" r="4" fill="#ff7f0e" />
<circle cx="1206.9565217391305" cy="213.18073635629878" r="4" fill="#ff7f0e" />
<circle cx="1238.2608695652175" cy="204.67890477865853" r="4" fill="#ff7f0e" />
<circle cx="1269.5652173913043" cy="195.71348744800184" r="4" fill="#ff7f0e" />
<circle cx="1300.8695652173913" cy="189.6703160247522" r="4" fill="#ff7f0e" />
<circle cx="1332.1739130434783" cy="186.05269148782054" r="4" fill="#ff7f0e" />
<circle cx="1363.4782608695652" cy="178.51942300130395" r="4" fill="#ff7f0e" />
<circle cx="1394.7826086956522" cy="173.42825803514154" r="4" fill="#ff7f0e" />
<circle cx="1426.0869565217392" cy="148.932717978435" r="4" fill="#ff7f0e" />
<circle cx="1457.391304347826" cy="139.4457666756349" r="4" fill="#ff7f0e" />
<circle cx="1488.695652173913" cy="130.8280386597405" r="4" fill="#ff7f0e" />
<circle cx="1520.0" cy="122.11097083962841" r="4" fill="#ff7f0e" />
<path d="M 80.0 920.0 L 111.30434782608695 624.6627620604731 L 142.6086956521739 563.0472484943812 L 173.91304347826087 543.2869057720566 L 205.2173913043478 533.551604958712 L 236.52173913043478 525.9355533020137 L 267.82608695652175 512.3591133922473 L 299.1304347826087 495.1319356774768 L 330.4347826086956 481.38992942734745 L 361.7391304347826 470.065191746518 L 393.04347826086956 458.6080009933981 L 424.3478260869565 452.62277778927546 L 455.6521739130435 445.21368405803105 L 486.95652173913044 436.7863573335541 L 518.2608695652174 425.5112895548335 L 549.5652173913044 410.4199176307457 L 580.8695652173913 400.73428671951 L 612.1739130434783 388.63966555599256 L 643.4782608695652 381.28024172685696 L 674.7826086956521 375.4109149609885 L 706.0869565217391 362.0745462447485 L 737.3913043478261 351.2216726339535 L 768.695652173913 338.3737246217844 L 800.0 321.51907117283065 L 831.304347826087 310.9890519257435 L 862.6086956521739 298.4225666921915 L 893.9130434782609 295.3016411763489 L 925.2173913043479 284.67228212504403 L 956.5217391304348 277.561207806453 L 987.8260869565217 270.75643121753353 L 1019.1304347826087 258.10716281379996 L 1050.4347826086955 246.7493118648979 L 1081.7391304347825 234.23249653345476 L 1113.0434782608695 229.66286553943587 L 1144.3478260869565 224.97733810716284 L 1175.6521739130435 218.66098222231426 L 1206.9565217391305 213.18073635629878 L 1238.2608695652175 204.67890477865853 L 1269.5652173913043 195.71348744800184 L 1300.8695652173913 189.6703160247522 L 1332.1739130434783 186.05269148782054 L 1363.4782608695652 178.51942300130395 L 1394.7826086956522 173.42825803514154 L 1426.0869565217392 148.932717978435 L 1457.391304347826 139.4457666756349 L 1488.695652173913 130.8280386597405 L 1520.0 122.11097083962841" fill="none" stroke="#ff7f0e" stroke-width="2" />
<circle cx="80.0" cy="920.0" r="4" fill="#2ca02c" />
<circle cx="111.30434782608695" cy="618.8596618307498" r="4" fill="#2ca02c" />
<circle cx="142.6086956521739" cy="557.4842194581842" r="4" fill="#2ca02c" />
<circle cx="173.91304347826087" cy="537.9142780272771" r="4" fill="#2ca02c" />
<circle cx="205.2173913043478" cy="528.3279869202591" r="4" fill="#2ca02c" />
<circle cx="236.52173913043478" cy="520.7284918975972" r="4" fill="#2ca02c" />
<circle cx="267.82608695652175" cy="507.2927833771395" r="4" fill="#2ca02c" />
<circle cx="299.1304347826087" cy="490.2891202218589" r="4" fill="#2ca02c" />
<circle cx="330.4347826086956" cy="476.7044019950744" r="4" fill="#2ca02c" />
<circle cx="361.7391304347826" cy="465.4707258014446" r="4" fill="#2ca02c" />
<circle cx="393.04347826086956" cy="454.07148326745175" r="4" fill="#2ca02c" />
<circle cx="424.3478260869565" cy="448.1773215505288" r="4" fill="#2ca02c" />
<circle cx="455.6521739130435" cy="440.7682278192844" r="4" fill="#2ca02c" />
<circle cx="486.95652173913044" cy="432.3657360458619" r="4" fill="#2ca02c" />
<circle cx="518.2608695652174" cy="421.33901777768585" r="4" fill="#2ca02c" />
<circle cx="549.5652173913044" cy="406.57050021730583" r="4" fill="#2ca02c" />
<circle cx="580.8695652173913" cy="396.92626089116084" r="4" fill="#2ca02c" />
<circle cx="612.1739130434783" cy="384.83991804466154" r="4" fill="#2ca02c" />
<circle cx="643.4782608695652" cy="377.4722158985079" r="4" fill="#2ca02c" />
<circle cx="674.7826086956521" cy="371.61944576667565" r="4" fill="#2ca02c" />
<circle cx="706.0869565217391" cy="358.3741385376353" r="4" fill="#2ca02c" />
<circle cx="737.3913043478261" cy="347.5460998778949" r="4" fill="#2ca02c" />
<circle cx="768.695652173913" cy="334.7147084997621" r="4" fill="#2ca02c" />
<circle cx="800.0" cy="317.8848900018627" r="4" fill="#2ca02c" />
<circle cx="831.304347826087" cy="307.3879840228482" r="4" fill="#2ca02c" />
<circle cx="862.6086956521739" cy="294.8297771063144" r="4" fill="#2ca02c" />
<circle cx="893.9130434782609" cy="291.71712990748983" r="4" fill="#2ca02c" />
<circle cx="925.2173913043479" cy="281.09604917320314" r="4" fill="#2ca02c" />
<circle cx="956.5217391304348" cy="274.0098098056666" r="4" fill="#2ca02c" />
<circle cx="987.8260869565217" cy="267.24642480183786" r="4" fill="#2ca02c" />
<circle cx="1019.1304347826087" cy="254.88689749373953" r="4" fill="#2ca02c" />
<circle cx="1050.4347826086955" cy="243.56215981291007" r="4" fill="#2ca02c" />
<circle cx="1081.7391304347825" cy="231.39303379622925" r="4" fill="#2ca02c" />
<circle cx="1113.0434782608695" cy="226.82340280221035" r="4" fill="#2ca02c" />
<circle cx="1144.3478260869565" cy="222.1958235890644" r="4" fill="#2ca02c" />
<circle cx="1175.6521739130435" cy="215.88774602123397" r="4" fill="#2ca02c" />
<circle cx="1206.9565217391305" cy="210.43233510627294" r="4" fill="#2ca02c" />
<circle cx="1238.2608695652175" cy="201.9305035286327" r="4" fill="#2ca02c" />
<circle cx="1269.5652173913043" cy="193.00647778306677" r="4" fill="#2ca02c" />
<circle cx="1300.8695652173913" cy="186.97158467683528" r="4" fill="#2ca02c" />
<circle cx="1332.1739130434783" cy="183.35396013990362" r="4" fill="#2ca02c" />
<circle cx="1363.4782608695652" cy="175.82896997040507" r="4" fill="#2ca02c" />
<circle cx="1394.7826086956522" cy="170.8205881744242" r="4" fill="#2ca02c" />
<circle cx="1426.0869565217392" cy="146.54028436018962" r="4" fill="#2ca02c" />
<circle cx="1457.391304347826" cy="137.06988969142583" r="4" fill="#2ca02c" />
<circle cx="1488.695652173913" cy="128.70878950309407" r="4" fill="#2ca02c" />
<circle cx="1520.0" cy="120.00000000000011" r="4" fill="#2ca02c" />
<path d="M 80.0 920.0 L 111.30434782608695 618.8596618307498 L 142.6086956521739 557.4842194581842 L 173.91304347826087 537.9142780272771 L 205.2173913043478 528.3279869202591 L 236.52173913043478 520.7284918975972 L 267.82608695652175 507.2927833771395 L 299.1304347826087 490.2891202218589 L 330.4347826086956 476.7044019950744 L 361.7391304347826 465.4707258014446 L 393.04347826086956 454.07148326745175 L 424.3478260869565 448.1773215505288 L 455.6521739130435 440.7682278192844 L 486.95652173913044 432.3657360458619 L 518.2608695652174 421.33901777768585 L 549.5652173913044 406.57050021730583 L 580.8695652173913 396.92626089116084 L 612.1739130434783 384.83991804466154 L 643.4782608695652 377.4722158985079 L 674.7826086956521 371.61944576667565 L 706.0869565217391 358.3741385376353 L 737.3913043478261 347.5460998778949 L 768.695652173913 334.7147084997621 L 800.0 317.8848900018627 L 831.304347826087 307.3879840228482 L 862.6086956521739 294.8297771063144 L 893.9130434782609 291.71712990748983 L 925.2173913043479 281.09604917320314 L 956.5217391304348 274.0098098056666 L 987.8260869565217 267.24642480183786 L 1019.1304347826087 254.88689749373953 L 1050.4347826086955 243.56215981291007 L 1081.7391304347825 231.39303379622925 L 1113.0434782608695 226.82340280221035 L 1144.3478260869565 222.1958235890644 L 1175.6521739130435 215.88774602123397 L 1206.9565217391305 210.43233510627294 L 1238.2608695652175 201.9305035286327 L 1269.5652173913043 193.00647778306677 L 1300.8695652173913 186.97158467683528 L 1332.1739130434783 183.35396013990362 L 1363.4782608695652 175.82896997040507 L 1394.7826086956522 170.8205881744242 L 1426.0869565217392 146.54028436018962 L 1457.391304347826 137.06988969142583 L 1488.695652173913 128.70878950309407 L 1520.0 120.00000000000011" fill="none" stroke="#2ca02c" stroke-width="2" />
<circle cx="80.0" cy="920.0" r="4" fill="#d62728" />
<circle cx="111.30434782608695" cy="861.5716384858958" r="4" fill="#d62728" />
<circle cx="142.6086956521739" cy="777.0086301454915" r="4" fill="#d62728" />
<circle cx="173.91304347826087" cy="747.7447794863305" r="4" fill="#d62728" />
<circle cx="205.2173913043478" cy="727.0241519899005" r="4" fill="#d62728" />
<circle cx="236.52173913043478" cy="716.692812351249" r="4" fill="#d62728" />
<circle cx="267.82608695652175" cy="696.352987437654" r="4" fill="#d62728" />
<circle cx="299.1304347826087" cy="674.9866512138083" r="4" fill="#d62728" />
<circle cx="330.4347826086956" cy="655.3173699786834" r="4" fill="#d62728" />
<circle cx="361.7391304347826" cy="638.8352407955463" r="4" fill="#d62728" />
<circle cx="393.04347826086956" cy="623.5286326289865" r="4" fill="#d62728" />
<circle cx="424.3478260869565" cy="613.8926716198597" r="4" fill="#d62728" />
<circle cx="455.6521739130435" cy="604.3477720979325" r="4" fill="#d62728" />
<circle cx="486.95652173913044" cy="590.6968273350028" r="4" fill="#d62728" />
<circle cx="518.2608695652174" cy="570.5391253958071" r="4" fill="#d62728" />
<circle cx="549.5652173913044" cy="548.8499348082535" r="4" fill="#d62728" />
<circle cx="580.8695652173913" cy="534.9009706326704" r="4" fill="#d62728" />
<circle cx="612.1739130434783" cy="515.1075146422733" r="4" fill="#d62728" />
<circle cx="643.4782608695652" cy="506.829197624123" r="4" fill="#d62728" />
<circle cx="674.7826086956521" cy="499.2876508205882" r="4" fill="#d62728" />
<circle cx="706.0869565217391" cy="483.0869844160683" r="4" fill="#d62728" />
<circle cx="737.3913043478261" cy="467.93766427285334" r="4" fill="#d62728" />
<circle cx="768.695652173913" cy="453.7155156356713" r="4" fill="#d62728" />
<circle cx="800.0" cy="434.021399449492" r="4" fill="#d62728" />
<circle cx="831.304347826087" cy="420.90026697572387" r="4" fill="#d62728" />
<circle cx="862.6086956521739" cy="412.53916678739216" r="4" fill="#d62728" />
<circle cx="893.9130434782609" cy="403.1018853867009" r="4" fill="#d62728" />
<circle cx="925.2173913043479" cy="390.9907075891472" r="4" fill="#d62728" />
<circle cx="956.5217391304348" cy="381.1809019226391" r="4" fill="#d62728" />
<circle cx="987.8260869565217" cy="372.26515449409135" r="4" fill="#d62728" />
<circle cx="1019.1304347826087" cy="357.13239098491283" r="4" fill="#d62728" />
<circle cx="1050.4347826086955" cy="344.76458535979646" r="4" fill="#d62728" />
<circle cx="1081.7391304347825" cy="325.9893623626317" r="4" fill="#d62728" />
<circle cx="1113.0434782608695" cy="320.4842815455619" r="4" fill="#d62728" />
<circle cx="1144.3478260869565" cy="314.20931724580396" r="4" fill="#d62728" />
<circle cx="1175.6521739130435" cy="305.94755686169003" r="4" fill="#d62728" />
<circle cx="1206.9565217391305" cy="299.25039839400654" r="4" fill="#d62728" />
<circle cx="1238.2608695652175" cy="289.35780955731707" r="4" fill="#d62728" />
<circle cx="1269.5652173913043" cy="278.82779031022994" r="4" fill="#d62728" />
<circle cx="1300.8695652173913" cy="273.78629524617656" r="4" fill="#d62728" />
<circle cx="1332.1739130434783" cy="268.2894927461248" r="4" fill="#d62728" />
<circle cx="1363.4782608695652" cy="259.2164572942321" r="4" fill="#d62728" />
<circle cx="1394.7826086956522" cy="251.65835385666105" r="4" fill="#d62728" />
<circle cx="1426.0869565217392" cy="226.49227012148435" r="4" fill="#d62728" />
<circle cx="1457.391304347826" cy="216.76524762515783" r="4" fill="#d62728" />
<circle cx="1488.695652173913" cy="206.41735135247006" r="4" fill="#d62728" />
<circle cx="1520.0" cy="199.05792752333457" r="4" fill="#d62728" />
<path d="M 80.0 920.0 L 111.30434782608695 861.5716384858958 L 142.6086956521739 777.0086301454915 L 173.91304347826087 747.7447794863305 L 205.2173913043478 727.0241519899005 L 236.52173913043478 716.692812351249 L 267.82608695652175 696.352987437654 L 299.1304347826087 674.9866512138083 L 330.4347826086956 655.3173699786834 L 361.7391304347826 638.8352407955463 L 393.04347826086956 623.5286326289865 L 424.3478260869565 613.8926716198597 L 455.6521739130435 604.3477720979325 L 486.95652173913044 590.6968273350028 L 518.2608695652174 570.5391253958071 L 549.5652173913044 548.8499348082535 L 580.8695652173913 534.9009706326704 L 612.1739130434783 515.1075146422733 L 643.4782608695652 506.829197624123 L 674.7826086956521 499.2876508205882 L 706.0869565217391 483.0869844160683 L 737.3913043478261 467.93766427285334 L 768.695652173913 453.7155156356713 L 800.0 434.021399449492 L 831.304347826087 420.90026697572387 L 862.6086956521739 412.53916678739216 L 893.9130434782609 403.1018853867009 L 925.2173913043479 390.9907075891472 L 956.5217391304348 381.1809019226391 L 987.8260869565217 372.26515449409135 L 1019.1304347826087 357.13239098491283 L 1050.4347826086955 344.76458535979646 L 1081.7391304347825 325.9893623626317 L 1113.0434782608695 320.4842815455619 L 1144.3478260869565 314.20931724580396 L 1175.6521739130435 305.94755686169003 L 1206.9565217391305 299.25039839400654 L 1238.2608695652175 289.35780955731707 L 1269.5652173913043 278.82779031022994 L 1300.8695652173913 273.78629524617656 L 1332.1739130434783 268.2894927461248 L 1363.4782608695652 259.2164572942321 L 1394.7826086956522 251.65835385666105 L 1426.0869565217392 226.49227012148435 L 1457.391304347826 216.76524762515783 L 1488.695652173913 206.41735135247006 L 1520.0 199.05792752333457" fill="none" stroke="#d62728" stroke-width="2" />
<circle cx="80.0" cy="920.0" r="4" fill="#9467bd" />
<circle cx="111.30434782608695" cy="867.7389846644178" r="4" fill="#9467bd" />
<circle cx="142.6086956521739" cy="782.8531219603055" r="4" fill="#9467bd" />
<circle cx="173.91304347826087" cy="748.4401581158551" r="4" fill="#9467bd" />
<circle cx="205.2173913043478" cy="727.6533040832799" r="4" fill="#9467bd" />
<circle cx="236.52173913043478" cy="718.3815890229516" r="4" fill="#9467bd" />
<circle cx="267.82608695652175" cy="697.8679194519755" r="4" fill="#9467bd" />
<circle cx="299.1304347826087" cy="675.5164635029698" r="4" fill="#9467bd" />
<circle cx="330.4347826086956" cy="655.2925350276289" r="4" fill="#9467bd" />
<circle cx="361.7391304347826" cy="638.6282828700926" r="4" fill="#9467bd" />
<circle cx="393.04347826086956" cy="623.4955193609139" r="4" fill="#9467bd" />
<circle cx="424.3478260869565" cy="613.8512800347689" r="4" fill="#9467bd" />
<circle cx="455.6521739130435" cy="604.2401539766965" r="4" fill="#9467bd" />
<circle cx="486.95652173913044" cy="589.9600571203874" r="4" fill="#9467bd" />
<circle cx="518.2608695652174" cy="569.9513648875184" r="4" fill="#9467bd" />
<circle cx="549.5652173913044" cy="547.8399801320393" r="4" fill="#9467bd" />
<circle cx="580.8695652173913" cy="533.5102133736211" r="4" fill="#9467bd" />
<circle cx="612.1739130434783" cy="516.307870609905" r="4" fill="#9467bd" />
<circle cx="643.4782608695652" cy="508.0212752747367" r="4" fill="#9467bd" />
<circle cx="674.7826086956521" cy="500.39694530102037" r="4" fill="#9467bd" />
<circle cx="706.0869565217391" cy="483.95620770297404" r="4" fill="#9467bd" />
<circle cx="737.3913043478261" cy="468.33502348972456" r="4" fill="#9467bd" />
<circle cx="768.695652173913" cy="454.1294314865788" r="4" fill="#9467bd" />
<circle cx="800.0" cy="434.36081044723613" r="4" fill="#9467bd" />
<circle cx="831.304347826087" cy="421.04927668205056" r="4" fill="#9467bd" />
<circle cx="862.6086956521739" cy="412.7130114447733" r="4" fill="#9467bd" />
<circle cx="893.9130434782609" cy="403.27573004408214" r="4" fill="#9467bd" />
<circle cx="925.2173913043479" cy="391.1479956124921" r="4" fill="#9467bd" />
<circle cx="956.5217391304348" cy="381.0153355822762" r="4" fill="#9467bd" />
<circle cx="987.8260869565217" cy="372.0995881537284" r="4" fill="#9467bd" />
<circle cx="1019.1304347826087" cy="357.1737825700036" r="4" fill="#9467bd" />
<circle cx="1050.4347826086955" cy="345.0874397235043" r="4" fill="#9467bd" />
<circle cx="1081.7391304347825" cy="326.2045986051037" r="4" fill="#9467bd" />
<circle cx="1113.0434782608695" cy="320.6498478859248" r="4" fill="#9467bd" />
<circle cx="1144.3478260869565" cy="314.63151141372964" r="4" fill="#9467bd" />
<circle cx="1175.6521739130435" cy="306.34491607856125" r="4" fill="#9467bd" />
<circle cx="1206.9565217391305" cy="299.6229226598233" r="4" fill="#9467bd" />
<circle cx="1238.2608695652175" cy="289.65582896997046" r="4" fill="#9467bd" />
<circle cx="1269.5652173913043" cy="278.5049359465221" r="4" fill="#9467bd" />
<circle cx="1300.8695652173913" cy="273.43860593141414" r="4" fill="#9467bd" />
<circle cx="1332.1739130434783" cy="267.9418034313625" r="4" fill="#9467bd" />
<circle cx="1363.4782608695652" cy="258.86048966245164" r="4" fill="#9467bd" />
<circle cx="1394.7826086956522" cy="251.2113247376809" r="4" fill="#9467bd" />
<circle cx="1426.0869565217392" cy="226.03696268548606" r="4" fill="#9467bd" />
<circle cx="1457.391304347826" cy="216.26027028705073" r="4" fill="#9467bd" />
<circle cx="1488.695652173913" cy="205.92065233138112" r="4" fill="#9467bd" />
<circle cx="1520.0" cy="198.5612285022455" r="4" fill="#9467bd" />
<path d="M 80.0 920.0 L 111.30434782608695 867.7389846644178 L 142.6086956521739 782.8531219603055 L 173.91304347826087 748.4401581158551 L 205.2173913043478 727.6533040832799 L 236.52173913043478 718.3815890229516 L 267.82608695652175 697.8679194519755 L 299.1304347826087 675.5164635029698 L 330.4347826086956 655.2925350276289 L 361.7391304347826 638.6282828700926 L 393.04347826086956 623.4955193609139 L 424.3478260869565 613.8512800347689 L 455.6521739130435 604.2401539766965 L 486.95652173913044 589.9600571203874 L 518.2608695652174 569.9513648875184 L 549.5652173913044 547.8399801320393 L 580.8695652173913 533.5102133736211 L 612.1739130434783 516.307870609905 L 643.4782608695652 508.0212752747367 L 674.7826086956521 500.39694530102037 L 706.0869565217391 483.95620770297404 L 737.3913043478261 468.33502348972456 L 768.695652173913 454.1294314865788 L 800.0 434.36081044723613 L 831.304347826087 421.04927668205056 L 862.6086956521739 412.7130114447733 L 893.9130434782609 403.27573004408214 L 925.2173913043479 391.1479956124921 L 956.5217391304348 381.0153355822762 L 987.8260869565217 372.0995881537284 L 1019.1304347826087 357.1737825700036 L 1050.4347826086955 345.0874397235043 L 1081.7391304347825 326.2045986051037 L 1113.0434782608695 320.6498478859248 L 1144.3478260869565 314.63151141372964 L 1175.6521739130435 306.34491607856125 L 1206.9565217391305 299.6229226598233 L 1238.2608695652175 289.65582896997046 L 1269.5652173913043 278.5049359465221 L 1300.8695652173913 273.43860593141414 L 1332.1739130434783 267.9418034313625 L 1363.4782608695652 258.86048966245164 L 1394.7826086956522 251.2113247376809 L 1426.0869565217392 226.03696268548606 L 1457.391304347826 216.26027028705073 L 1488.695652173913 205.92065233138112 L 1520.0 198.5612285022455" fill="none" stroke="#9467bd" stroke-width="2" />
<circle cx="80.0" cy="920.0" r="4" fill="#66ffbd" />
<circle cx="111.30434782608695" cy="659.3240754154681" r="4" fill="#66ffbd" />
<circle cx="142.6086956521739" cy="683.7037190339204" r="4" fill="#66ffbd" />
<circle cx="173.91304347826087" cy="698.6295246176453" r="4" fill="#66ffbd" />
<circle cx="205.2173913043478" cy="709.805252592148" r="4" fill="#66ffbd" />
<circle cx="236.52173913043478" cy="712.6281586953372" r="4" fill="#66ffbd" />
<circle cx="267.82608695652175" cy="719.9544692564002" r="4" fill="#66ffbd" />
<circle cx="299.1304347826087" cy="725.3602102692523" r="4" fill="#66ffbd" />
<circle cx="330.4347826086956" cy="732.4298930027526" r="4" fill="#66ffbd" />
<circle cx="361.7391304347826" cy="738.0343136240402" r="4" fill="#66ffbd" />
<circle cx="393.04347826086956" cy="741.991349158716" r="4" fill="#66ffbd" />
<circle cx="424.3478260869565" cy="745.7497050849563" r="4" fill="#66ffbd" />
<circle cx="455.6521739130435" cy="747.8937891926571" r="4" fill="#66ffbd" />
<circle cx="486.95652173913044" cy="753.8541774457253" r="4" fill="#66ffbd" />
<circle cx="518.2608695652174" cy="763.2252323102714" r="4" fill="#66ffbd" />
<circle cx="549.5652173913044" cy="770.5184296032617" r="4" fill="#66ffbd" />
<circle cx="580.8695652173913" cy="775.5185330822244" r="4" fill="#66ffbd" />
<circle cx="612.1739130434783" cy="783.4739957366668" r="4" fill="#66ffbd" />
<circle cx="643.4782608695652" cy="784.3846106086633" r="4" fill="#66ffbd" />
<circle cx="674.7826086956521" cy="786.1561704505474" r="4" fill="#66ffbd" />
<circle cx="706.0869565217391" cy="789.3102092344626" r="4" fill="#66ffbd" />
<circle cx="737.3913043478261" cy="794.6083321260787" r="4" fill="#66ffbd" />
<circle cx="768.695652173913" cy="796.0570376042551" r="4" fill="#66ffbd" />
<circle cx="800.0" cy="798.9378919265713" r="4" fill="#66ffbd" />
<circle cx="831.304347826087" cy="802.0091475403051" r="4" fill="#66ffbd" />
<circle cx="862.6086956521739" cy="797.8120408121029" r="4" fill="#66ffbd" />
<circle cx="893.9130434782609" cy="804.1283966969515" r="4" fill="#66ffbd" />
<circle cx="925.2173913043479" cy="805.6184937602186" r="4" fill="#66ffbd" />
<circle cx="956.5217391304348" cy="809.0457170057327" r="4" fill="#66ffbd" />
<circle cx="987.8260869565217" cy="811.2146360644881" r="4" fill="#66ffbd" />
<circle cx="1019.1304347826087" cy="814.020985533641" r="4" fill="#66ffbd" />
<circle cx="1050.4347826086955" cy="815.0723317949461" r="4" fill="#66ffbd" />
<circle cx="1081.7391304347825" cy="821.7777685796477" r="4" fill="#66ffbd" />
<circle cx="1113.0434782608695" cy="822.7380533537532" r="4" fill="#66ffbd" />
<circle cx="1144.3478260869565" cy="824.3854384403651" r="4" fill="#66ffbd" />
<circle cx="1175.6521739130435" cy="826.3970694757755" r="4" fill="#66ffbd" />
<circle cx="1206.9565217391305" cy="827.63053871148" r="4" fill="#66ffbd" />
<circle cx="1238.2608695652175" cy="829.0709658726381" r="4" fill="#66ffbd" />
<circle cx="1269.5652173913043" cy="831.2978331505205" r="4" fill="#66ffbd" />
<circle cx="1300.8695652173913" cy="830.3292700593969" r="4" fill="#66ffbd" />
<circle cx="1332.1739130434783" cy="832.208448022517" r="4" fill="#66ffbd" />
<circle cx="1363.4782608695652" cy="833.7813282559656" r="4" fill="#66ffbd" />
<circle cx="1394.7826086956522" cy="836.4055547507191" r="4" fill="#66ffbd" />
<circle cx="1426.0869565217392" cy="837.3658395248247" r="4" fill="#66ffbd" />
<circle cx="1457.391304347826" cy="837.6473023034417" r="4" fill="#66ffbd" />
<circle cx="1488.695652173913" cy="839.6340983877977" r="4" fill="#66ffbd" />
<circle cx="1520.0" cy="838.2764543968211" r="4" fill="#66ffbd" />
<path d="M 80.0 920.0 L 111.30434782608695 659.3240754154681 L 142.6086956521739 683.7037190339204 L 173.91304347826087 698.6295246176453 L 205.2173913043478 709.805252592148 L 236.52173913043478 712.6281586953372 L 267.82608695652175 719.9544692564002 L 299.1304347826087 725.3602102692523 L 330.4347826086956 732.4298930027526 L 361.7391304347826 738.0343136240402 L 393.04347826086956 741.991349158716 L 424.3478260869565 745.7497050849563 L 455.6521739130435 747.8937891926571 L 486.95652173913044 753.8541774457253 L 518.2608695652174 763.2252323102714 L 549.5652173913044 770.5184296032617 L 580.8695652173913 775.5185330822244 L 612.1739130434783 783.4739957366668 L 643.4782608695652 784.3846106086633 L 674.7826086956521 786.1561704505474 L 706.0869565217391 789.3102092344626 L 737.3913043478261 794.6083321260787 L 768.695652173913 796.0570376042551 L 800.0 798.9378919265713 L 831.304347826087 802.0091475403051 L 862.6086956521739 797.8120408121029 L 893.9130434782609 804.1283966969515 L 925.2173913043479 805.6184937602186 L 956.5217391304348 809.0457170057327 L 987.8260869565217 811.2146360644881 L 1019.1304347826087 814.020985533641 L 1050.4347826086955 815.0723317949461 L 1081.7391304347825 821.7777685796477 L 1113.0434782608695 822.7380533537532 L 1144.3478260869565 824.3854384403651 L 1175.6521739130435 826.3970694757755 L 1206.9565217391305 827.63053871148 L 1238.2608695652175 829.0709658726381 L 1269.5652173913043 831.2978331505205 L 1300.8695652173913 830.3292700593969 L 1332.1739130434783 832.208448022517 L 1363.4782608695652 833.7813282559656 L 1394.7826086956522 836.4055547507191 L 1426.0869565217392 837.3658395248247 L 1457.391304347826 837.6473023034417 L 1488.695652173913 839.6340983877977 L 1520.0 838.2764543968211" fill="none" stroke="#66ffbd" stroke-width="2" />
<text x="80.0" y="940" text-anchor="middle">08-06</text>
<text x="111.30434782608695" y="940" text-anchor="middle">08-07</text>
<text x="142.6086956521739" y="940" text-anchor="middle">08-08</text>
<text x="173.91304347826087" y="940" text-anchor="middle">08-09</text>
<text x="205.2173913043478" y="940" text-anchor="middle">08-10</text>
<text x="236.52173913043478" y="940" text-anchor="middle">08-11</text>
<text x="267.82608695652175" y="940" text-anchor="middle">08-12</text>
<text x="299.1304347826087" y="940" text-anchor="middle">08-13</text>
<text x="330.4347826086956" y="940" text-anchor="middle">08-14</text>
<text x="361.7391304347826" y="940" text-anchor="middle">08-15</text>
<text x="393.04347826086956" y="940" text-anchor="middle">08-16</text>
<text x="424.3478260869565" y="940" text-anchor="middle">08-17</text>
<text x="455.6521739130435" y="940" text-anchor="middle">08-18</text>
<text x="486.95652173913044" y="940" text-anchor="middle">08-19</text>
<text x="518.2608695652174" y="940" text-anchor="middle">08-20</text>
<text x="549.5652173913044" y="940" text-anchor="middle">08-21</text>
<text x="580.8695652173913" y="940" text-anchor="middle">08-22</text>
<text x="612.1739130434783" y="940" text-anchor="middle">08-23</text>
<text x="643.4782608695652" y="940" text-anchor="middle">08-24</text>
<text x="674.7826086956521" y="940" text-anchor="middle">08-25</text>
<text x="706.0869565217391" y="940" text-anchor="middle">08-26</text>
<text x="737.3913043478261" y="940" text-anchor="middle">08-27</text>
<text x="768.695652173913" y="940" text-anchor="middle">08-28</text>
<text x="800.0" y="940" text-anchor="middle">08-29</text>
<text x="831.304347826087" y="940" text-anchor="middle">08-30</text>
<text x="862.6086956521739" y="940" text-anchor="middle">08-31</text>
<text x="893.9130434782609" y="940" text-anchor="middle">09-01</text>
<text x="925.2173913043479" y="940" text-anchor="middle">09-02</text>
<text x="956.5217391304348" y="940" text-anchor="middle">09-03</text>
<text x="987.8260869565217" y="940" text-anchor="middle">09-04</text>
<text x="1019.1304347826087" y="940" text-anchor="middle">09-05</text>
<text x="1050.4347826086955" y="940" text-anchor="middle">09-06</text>
<text x="1081.7391304347825" y="940" text-anchor="middle">09-07</text>
<text x="1113.0434782608695" y="940" text-anchor="middle">09-08</text>
<text x="1144.3478260869565" y="940" text-anchor="middle">09-09</text>
<text x="1175.6521739130435" y="940" text-anchor="middle">09-10</text>
<text x="1206.9565217391305" y="940" text-anchor="middle">09-11</text>
<text x="1238.2608695652175" y="940" text-anchor="middle">09-12</text>
<text x="1269.5652173913043" y="940" text-anchor="middle">09-13</text>
<text x="1300.8695652173913" y="940" text-anchor="middle">09-14</text>
<text x="1332.1739130434783" y="940" text-anchor="middle">09-15</text>
<text x="1363.4782608695652" y="940" text-anchor="middle">09-16</text>
<text x="1394.7826086956522" y="940" text-anchor="middle">09-17</text>
<text x="1426.0869565217392" y="940" text-anchor="middle">09-18</text>
<text x="1457.391304347826" y="940" text-anchor="middle">09-19</text>
<text x="1488.695652173913" y="940" text-anchor="middle">09-20</text>
<text x="1520.0" y="940" text-anchor="middle">09-21</text>
<rect x="90" y="100" width="130" height="185" class="legend-box" />
<text x="100" y="120" class="legend-item">图例:</text>
<rect x="100" y="137" width="15" height="15" fill="#1f77b4" rx="3" />
<text x="120" y="145" class="legend-item">构件聚合数据</text>
<rect x="100" y="162" width="15" height="15" fill="#ff7f0e" rx="3" />
<text x="120" y="170" class="legend-item">构件基本信息</text>
<rect x="100" y="187" width="15" height="15" fill="#2ca02c" rx="3" />
<text x="120" y="195" class="legend-item">构件徽标</text>
<rect x="100" y="212" width="15" height="15" fill="#d62728" rx="3" />
<text x="120" y="220" class="legend-item">构件扩展元数据</text>
<rect x="100" y="237" width="15" height="15" fill="#9467bd" rx="3" />
<text x="120" y="245" class="legend-item">构件版本信息</text>
<rect x="100" y="262" width="15" height="15" fill="#66ffbd" rx="3" />
<text x="120" y="270" class="legend-item">数据量偏差</text>
<text x="1520" y="990" text-anchor="end" font-size="10" fill="#666">生成时间: 2025-09-21 10:56:08</text>
</svg>