<svg xmlns="http://www.w3.org/2000/svg" width="1600" height="1000" viewBox="0 0 1600 1000">
<style>
  text {
    font-family: Arial, sans-serif;
    font-size: 12px;
    fill: #333;
  }
  .axis-label { font-size: 14px; }
  .title { font-size: 18px; font-weight: bold; }
  .legend-item { font-size: 11px; }
  .legend-box { fill: white; fill-opacity: 0.85; stroke: #cccccc; stroke-width: 1; rx: 5; }
</style>
<text x="800.0" y="30" text-anchor="middle" class="title">Daily Data Growth Trend</text>
<text x="800.0" y="980" text-anchor="middle" class="axis-label">Date</text>
<g transform="rotate(-90)">
<text x="-500.0" y="20" text-anchor="middle" class="axis-label">Count</text>
</g>
<rect x="0" y="0" width="1600" height="1000" fill="#f8f8f8" />
<line x1="80" y1="920.0" x2="1520" y2="920.0" stroke="#e0e0e0" stroke-width="1" />
<text x="70" y="925.0" text-anchor="end">0</text>
<line x1="80" y1="752.0" x2="1520" y2="752.0" stroke="#e0e0e0" stroke-width="1" />
<text x="70" y="757.0" text-anchor="end">20.7k</text>
<line x1="80" y1="584.0" x2="1520" y2="584.0" stroke="#e0e0e0" stroke-width="1" />
<text x="70" y="589.0" text-anchor="end">41.4k</text>
<line x1="80" y1="416.0" x2="1520" y2="416.0" stroke="#e0e0e0" stroke-width="1" />
<text x="70" y="421.0" text-anchor="end">62.0k</text>
<line x1="80" y1="248.0" x2="1520" y2="248.0" stroke="#e0e0e0" stroke-width="1" />
<text x="70" y="253.0" text-anchor="end">82.7k</text>
<line x1="80" y1="80.0" x2="1520" y2="80.0" stroke="#e0e0e0" stroke-width="1" />
<text x="70" y="85.0" text-anchor="end">103.4k</text>
<line x1="80" y1="80" x2="80" y2="920" stroke="#333333" stroke-width="2" />
<line x1="80" y1="920" x2="1520" y2="920" stroke="#333333" stroke-width="2" />
<circle cx="80.0" cy="920.0" r="4" fill="#1f77b4" />
<circle cx="109.38775510204081" cy="880.2948642446643" r="4" fill="#1f77b4" />
<circle cx="138.77551020408163" cy="796.1488942590825" r="4" fill="#1f77b4" />
<circle cx="168.16326530612247" cy="762.3004284872977" r="4" fill="#1f77b4" />
<circle cx="197.55102040816325" cy="741.9279897650428" r="4" fill="#1f77b4" />
<circle cx="226.9387755102041" cy="731.7011554941819" r="4" fill="#1f77b4" />
<circle cx="256.32653061224494" cy="711.328716771927" r="4" fill="#1f77b4" />
<circle cx="285.7142857142857" cy="689.3398046422842" r="4" fill="#1f77b4" />
<circle cx="315.1020408163265" cy="669.072964685336" r="4" fill="#1f77b4" />
<circle cx="344.48979591836735" cy="652.5508194058038" r="4" fill="#1f77b4" />
<circle cx="373.8775510204082" cy="637.4826878947262" r="4" fill="#1f77b4" />
<circle cx="403.265306122449" cy="628.0112909449059" r="4" fill="#1f77b4" />
<circle cx="432.6530612244898" cy="618.6373697784456" r="4" fill="#1f77b4" />
<circle cx="462.0408163265306" cy="604.5439961009687" r="4" fill="#1f77b4" />
<circle cx="491.42857142857144" cy="584.5289685843672" r="4" fill="#1f77b4" />
<circle cx="520.8163265306123" cy="562.8812216964848" r="4" fill="#1f77b4" />
<circle cx="550.204081632653" cy="548.5116666328208" r="4" fill="#1f77b4" />
<circle cx="579.591836734694" cy="528.8459273399264" r="4" fill="#1f77b4" />
<circle cx="608.9795918367347" cy="520.7229453932539" r="4" fill="#1f77b4" />
<circle cx="638.3673469387755" cy="513.2416790203683" r="4" fill="#1f77b4" />
<circle cx="667.7551020408164" cy="497.1500517840099" r="4" fill="#1f77b4" />
<circle cx="697.1428571428571" cy="481.32648295189165" r="4" fill="#1f77b4" />
<circle cx="726.530612244898" cy="467.31433909388136" r="4" fill="#1f77b4" />
<circle cx="755.9183673469388" cy="447.9735190788539" r="4" fill="#1f77b4" />
<circle cx="785.3061224489796" cy="434.6599516682574" r="4" fill="#1f77b4" />
<circle cx="814.6938775510205" cy="426.45573990211807" r="4" fill="#1f77b4" />
<circle cx="844.0816326530612" cy="417.203663464858" r="4" fill="#1f77b4" />
<circle cx="873.469387755102" cy="405.3197408768759" r="4" fill="#1f77b4" />
<circle cx="902.8571428571429" cy="395.00355380460167" r="4" fill="#1f77b4" />
<circle cx="932.2448979591837" cy="386.2388562841419" r="4" fill="#1f77b4" />
<circle cx="961.6326530612245" cy="371.3575533578377" r="4" fill="#1f77b4" />
<circle cx="991.0204081632653" cy="359.21369534756207" r="4" fill="#1f77b4" />
<circle cx="1020.4081632653061" cy="340.6932965091486" r="4" fill="#1f77b4" />
<circle cx="1049.795918367347" cy="335.2671445687712" r="4" fill="#1f77b4" />
<circle cx="1079.183673469388" cy="329.1099242531934" r="4" fill="#1f77b4" />
<circle cx="1108.5714285714287" cy="320.9463273967874" r="4" fill="#1f77b4" />
<circle cx="1137.9591836734694" cy="314.38295798387594" r="4" fill="#1f77b4" />
<circle cx="1167.3469387755101" cy="304.6272566659221" r="4" fill="#1f77b4" />
<circle cx="1196.734693877551" cy="293.68559998375406" r="4" fill="#1f77b4" />
<circle cx="1226.1224489795918" cy="288.7143350323904" r="4" fill="#1f77b4" />
<circle cx="1255.5102040816328" cy="283.32067501979975" r="4" fill="#1f77b4" />
<circle cx="1284.8979591836735" cy="274.3935178604065" r="4" fill="#1f77b4" />
<circle cx="1314.2857142857142" cy="266.90412850557436" r="4" fill="#1f77b4" />
<circle cx="1343.6734693877552" cy="242.1371565501696" r="4" fill="#1f77b4" />
<circle cx="1373.061224489796" cy="232.56828381698926" r="4" fill="#1f77b4" />
<circle cx="1402.4489795918369" cy="222.41455638364846" r="4" fill="#1f77b4" />
<circle cx="1431.8367346938776" cy="215.20134841500317" r="4" fill="#1f77b4" />
<circle cx="1461.2244897959183" cy="207.84192677131773" r="4" fill="#1f77b4" />
<circle cx="1490.6122448979593" cy="203.2037040797677" r="4" fill="#1f77b4" />
<circle cx="1520.0" cy="194.34153077594783" r="4" fill="#1f77b4" />
<path d="M 80.0 920.0 L 109.38775510204081 880.2948642446643 L 138.77551020408163 796.1488942590825 L 168.16326530612247 762.3004284872977 L 197.55102040816325 741.9279897650428 L 226.9387755102041 731.7011554941819 L 256.32653061224494 711.328716771927 L 285.7142857142857 689.3398046422842 L 315.1020408163265 669.072964685336 L 344.48979591836735 652.5508194058038 L 373.8775510204082 637.4826878947262 L 403.265306122449 628.0112909449059 L 432.6530612244898 618.6373697784456 L 462.0408163265306 604.5439961009687 L 491.42857142857144 584.5289685843672 L 520.8163265306123 562.8812216964848 L 550.204081632653 548.5116666328208 L 579.591836734694 528.8459273399264 L 608.9795918367347 520.7229453932539 L 638.3673469387755 513.2416790203683 L 667.7551020408164 497.1500517840099 L 697.1428571428571 481.32648295189165 L 726.530612244898 467.31433909388136 L 755.9183673469388 447.9735190788539 L 785.3061224489796 434.6599516682574 L 814.6938775510205 426.45573990211807 L 844.0816326530612 417.203663464858 L 873.469387755102 405.3197408768759 L 902.8571428571429 395.00355380460167 L 932.2448979591837 386.2388562841419 L 961.6326530612245 371.3575533578377 L 991.0204081632653 359.21369534756207 L 1020.4081632653061 340.6932965091486 L 1049.795918367347 335.2671445687712 L 1079.183673469388 329.1099242531934 L 1108.5714285714287 320.9463273967874 L 1137.9591836734694 314.38295798387594 L 1167.3469387755101 304.6272566659221 L 1196.734693877551 293.68559998375406 L 1226.1224489795918 288.7143350323904 L 1255.5102040816328 283.32067501979975 L 1284.8979591836735 274.3935178604065 L 1314.2857142857142 266.90412850557436 L 1343.6734693877552 242.1371565501696 L 1373.061224489796 232.56828381698926 L 1402.4489795918369 222.41455638364846 L 1431.8367346938776 215.20134841500317 L 1461.2244897959183 207.84192677131773 L 1490.6122448979593 203.2037040797677 L 1520.0 194.34153077594783" fill="none" stroke="#1f77b4" stroke-width="2" />
<circle cx="80.0" cy="920.0" r="4" fill="#ff7f0e" />
<circle cx="109.38775510204081" cy="630.2044960705075" r="4" fill="#ff7f0e" />
<circle cx="138.77551020408163" cy="569.7451414414231" r="4" fill="#ff7f0e" />
<circle cx="168.16326530612247" cy="550.3555835347156" r="4" fill="#ff7f0e" />
<circle cx="197.55102040816325" cy="540.8029567654286" r="4" fill="#ff7f0e" />
<circle cx="226.9387755102041" cy="533.3298133744897" r="4" fill="#ff7f0e" />
<circle cx="256.32653061224494" cy="520.0081229819466" r="4" fill="#ff7f0e" />
<circle cx="285.7142857142857" cy="503.10419755092096" r="4" fill="#ff7f0e" />
<circle cx="315.1020408163265" cy="489.6200475194444" r="4" fill="#ff7f0e" />
<circle cx="344.48979591836735" cy="478.50780821639626" r="4" fill="#ff7f0e" />
<circle cx="373.8775510204082" cy="467.26560120220137" r="4" fill="#ff7f0e" />
<circle cx="403.265306122449" cy="461.39268525475705" r="4" fill="#ff7f0e" />
<circle cx="432.6530612244898" cy="454.12261641248506" r="4" fill="#ff7f0e" />
<circle cx="462.0408163265306" cy="445.8534207907723" r="4" fill="#ff7f0e" />
<circle cx="491.42857142857144" cy="434.7899193794042" r="4" fill="#ff7f0e" />
<circle cx="520.8163265306123" cy="419.98172329062" r="4" fill="#ff7f0e" />
<circle cx="550.204081632653" cy="410.47783441301306" r="4" fill="#ff7f0e" />
<circle cx="579.591836734694" cy="398.6101577889243" r="4" fill="#ff7f0e" />
<circle cx="608.9795918367347" cy="391.3888268383324" r="4" fill="#ff7f0e" />
<circle cx="638.3673469387755" cy="385.6296326381415" r="4" fill="#ff7f0e" />
<circle cx="667.7551020408164" cy="372.5435087220519" r="4" fill="#ff7f0e" />
<circle cx="697.1428571428571" cy="361.894279389964" r="4" fill="#ff7f0e" />
<circle cx="726.530612244898" cy="349.2874114087282" r="4" fill="#ff7f0e" />
<circle cx="755.9183673469388" cy="332.7490201653027" r="4" fill="#ff7f0e" />
<circle cx="785.3061224489796" cy="322.4165871291351" r="4" fill="#ff7f0e" />
<circle cx="814.6938775510205" cy="310.08590053408614" r="4" fill="#ff7f0e" />
<circle cx="844.0816326530612" cy="307.0235363401905" r="4" fill="#ff7f0e" />
<circle cx="873.469387755102" cy="296.59362752066284" r="4" fill="#ff7f0e" />
<circle cx="902.8571428571429" cy="289.61598602847107" r="4" fill="#ff7f0e" />
<circle cx="932.2448979591837" cy="282.9388948683062" r="4" fill="#ff7f0e" />
<circle cx="961.6326530612245" cy="270.52697845379043" r="4" fill="#ff7f0e" />
<circle cx="991.0204081632653" cy="259.3822472229556" r="4" fill="#ff7f0e" />
<circle cx="1020.4081632653061" cy="247.10029851958654" r="4" fill="#ff7f0e" />
<circle cx="1049.795918367347" cy="242.61641248502326" r="4" fill="#ff7f0e" />
<circle cx="1079.183673469388" cy="238.01880470320657" r="4" fill="#ff7f0e" />
<circle cx="1108.5714285714287" cy="231.82096947789535" r="4" fill="#ff7f0e" />
<circle cx="1137.9591836734694" cy="226.4435554291981" r="4" fill="#ff7f0e" />
<circle cx="1167.3469387755101" cy="218.10125296996534" r="4" fill="#ff7f0e" />
<circle cx="1196.734693877551" cy="209.30406352171883" r="4" fill="#ff7f0e" />
<circle cx="1226.1224489795918" cy="203.37428670064787" r="4" fill="#ff7f0e" />
<circle cx="1255.5102040816328" cy="199.82454358995187" r="4" fill="#ff7f0e" />
<circle cx="1284.8979591836735" cy="192.4326300184798" r="4" fill="#ff7f0e" />
<circle cx="1314.2857142857142" cy="187.43699612127614" r="4" fill="#ff7f0e" />
<circle cx="1343.6734693877552" cy="163.40109254107188" r="4" fill="#ff7f0e" />
<circle cx="1373.061224489796" cy="154.09215523018497" r="4" fill="#ff7f0e" />
<circle cx="1402.4489795918369" cy="145.6361310236988" r="4" fill="#ff7f0e" />
<circle cx="1431.8367346938776" cy="137.08263103385252" r="4" fill="#ff7f0e" />
<circle cx="1461.2244897959183" cy="132.1276120463823" r="4" fill="#ff7f0e" />
<circle cx="1490.6122448979593" cy="128.4722701703796" r="4" fill="#ff7f0e" />
<circle cx="1520.0" cy="122.05511443250816" r="4" fill="#ff7f0e" />
<path d="M 80.0 920.0 L 109.38775510204081 630.2044960705075 L 138.77551020408163 569.7451414414231 L 168.16326530612247 550.3555835347156 L 197.55102040816325 540.8029567654286 L 226.9387755102041 533.3298133744897 L 256.32653061224494 520.0081229819466 L 285.7142857142857 503.10419755092096 L 315.1020408163265 489.6200475194444 L 344.48979591836735 478.50780821639626 L 373.8775510204082 467.26560120220137 L 403.265306122449 461.39268525475705 L 432.6530612244898 454.12261641248506 L 462.0408163265306 445.8534207907723 L 491.42857142857144 434.7899193794042 L 520.8163265306123 419.98172329062 L 550.204081632653 410.47783441301306 L 579.591836734694 398.6101577889243 L 608.9795918367347 391.3888268383324 L 638.3673469387755 385.6296326381415 L 667.7551020408164 372.5435087220519 L 697.1428571428571 361.894279389964 L 726.530612244898 349.2874114087282 L 755.9183673469388 332.7490201653027 L 785.3061224489796 322.4165871291351 L 814.6938775510205 310.08590053408614 L 844.0816326530612 307.0235363401905 L 873.469387755102 296.59362752066284 L 902.8571428571429 289.61598602847107 L 932.2448979591837 282.9388948683062 L 961.6326530612245 270.52697845379043 L 991.0204081632653 259.3822472229556 L 1020.4081632653061 247.10029851958654 L 1049.795918367347 242.61641248502326 L 1079.183673469388 238.01880470320657 L 1108.5714285714287 231.82096947789535 L 1137.9591836734694 226.4435554291981 L 1167.3469387755101 218.10125296996534 L 1196.734693877551 209.30406352171883 L 1226.1224489795918 203.37428670064787 L 1255.5102040816328 199.82454358995187 L 1284.8979591836735 192.4326300184798 L 1314.2857142857142 187.43699612127614 L 1343.6734693877552 163.40109254107188 L 1373.061224489796 154.09215523018497 L 1402.4489795918369 145.6361310236988 L 1431.8367346938776 137.08263103385252 L 1461.2244897959183 132.1276120463823 L 1490.6122448979593 128.4722701703796 L 1520.0 122.05511443250816" fill="none" stroke="#ff7f0e" stroke-width="2" />
<circle cx="80.0" cy="920.0" r="4" fill="#2ca02c" />
<circle cx="109.38775510204081" cy="624.51028572589" r="4" fill="#2ca02c" />
<circle cx="138.77551020408163" cy="564.2864975732591" r="4" fill="#2ca02c" />
<circle cx="168.16326530612247" cy="545.0837682513251" r="4" fill="#2ca02c" />
<circle cx="197.55102040816325" cy="535.6773551570782" r="4" fill="#2ca02c" />
<circle cx="226.9387755102041" cy="528.2204577300326" r="4" fill="#2ca02c" />
<circle cx="256.32653061224494" cy="515.0368580305831" r="4" fill="#2ca02c" />
<circle cx="285.7142857142857" cy="498.35225311211747" r="4" fill="#2ca02c" />
<circle cx="315.1020408163265" cy="485.0224397376277" r="4" fill="#2ca02c" />
<circle cx="344.48979591836735" cy="473.99955323599295" r="4" fill="#2ca02c" />
<circle cx="373.8775510204082" cy="462.81420709542476" r="4" fill="#2ca02c" />
<circle cx="403.265306122449" cy="457.03064394939383" r="4" fill="#2ca02c" />
<circle cx="432.6530612244898" cy="449.76057510712184" r="4" fill="#2ca02c" />
<circle cx="462.0408163265306" cy="441.5157484312491" r="4" fill="#2ca02c" />
<circle cx="491.42857142857144" cy="430.69593647828117" r="4" fill="#2ca02c" />
<circle cx="520.8163265306123" cy="416.2045366854172" r="4" fill="#2ca02c" />
<circle cx="550.204081632653" cy="406.7412627175436" r="4" fill="#2ca02c" />
<circle cx="579.591836734694" cy="394.88170907540155" r="4" fill="#2ca02c" />
<circle cx="608.9795918367347" cy="387.65225514286294" r="4" fill="#2ca02c" />
<circle cx="638.3673469387755" cy="381.90930690656546" r="4" fill="#2ca02c" />
<circle cx="667.7551020408164" cy="368.91253579188924" r="4" fill="#2ca02c" />
<circle cx="697.1428571428571" cy="358.2876754056414" r="4" fill="#2ca02c" />
<circle cx="726.530612244898" cy="345.69705338829885" r="4" fill="#2ca02c" />
<circle cx="755.9183673469388" cy="329.18303109071337" r="4" fill="#2ca02c" />
<circle cx="785.3061224489796" cy="318.88308998233254" r="4" fill="#2ca02c" />
<circle cx="814.6938775510205" cy="306.56052636923016" r="4" fill="#2ca02c" />
<circle cx="844.0816326530612" cy="303.50628515728124" r="4" fill="#2ca02c" />
<circle cx="873.469387755102" cy="293.0844993197003" r="4" fill="#2ca02c" />
<circle cx="902.8571428571429" cy="286.13122677334854" r="4" fill="#2ca02c" />
<circle cx="932.2448979591837" cy="279.494750522917" r="4" fill="#2ca02c" />
<circle cx="961.6326530612245" cy="267.3671384765347" r="4" fill="#2ca02c" />
<circle cx="991.0204081632653" cy="256.2548991734866" r="4" fill="#2ca02c" />
<circle cx="1020.4081632653061" cy="244.3141157118779" r="4" fill="#2ca02c" />
<circle cx="1049.795918367347" cy="239.8302296773146" r="4" fill="#2ca02c" />
<circle cx="1079.183673469388" cy="235.28948276912456" r="4" fill="#2ca02c" />
<circle cx="1108.5714285714287" cy="229.09977052576005" r="4" fill="#2ca02c" />
<circle cx="1137.9591836734694" cy="223.74672542290273" r="4" fill="#2ca02c" />
<circle cx="1167.3469387755101" cy="215.40442296366996" r="4" fill="#2ca02c" />
<circle cx="1196.734693877551" cy="206.6478484251569" r="4" fill="#2ca02c" />
<circle cx="1226.1224489795918" cy="200.72619458603253" r="4" fill="#2ca02c" />
<circle cx="1255.5102040816328" cy="197.17645147533665" r="4" fill="#2ca02c" />
<circle cx="1284.8979591836735" cy="189.7926608858112" r="4" fill="#2ca02c" />
<circle cx="1314.2857142857142" cy="184.8782568080743" r="4" fill="#2ca02c" />
<circle cx="1343.6734693877552" cy="161.05355075848342" r="4" fill="#2ca02c" />
<circle cx="1373.061224489796" cy="151.76085941148995" r="4" fill="#2ca02c" />
<circle cx="1402.4489795918369" cy="143.5566476453506" r="4" fill="#2ca02c" />
<circle cx="1431.8367346938776" cy="135.01127063745105" r="4" fill="#2ca02c" />
<circle cx="1461.2244897959183" cy="130.0562516499807" r="4" fill="#2ca02c" />
<circle cx="1490.6122448979593" cy="126.40090977397801" r="4" fill="#2ca02c" />
<circle cx="1520.0" cy="120.0" r="4" fill="#2ca02c" />
<path d="M 80.0 920.0 L 109.38775510204081 624.51028572589 L 138.77551020408163 564.2864975732591 L 168.16326530612247 545.0837682513251 L 197.55102040816325 535.6773551570782 L 226.9387755102041 528.2204577300326 L 256.32653061224494 515.0368580305831 L 285.7142857142857 498.35225311211747 L 315.1020408163265 485.0224397376277 L 344.48979591836735 473.99955323599295 L 373.8775510204082 462.81420709542476 L 403.265306122449 457.03064394939383 L 432.6530612244898 449.76057510712184 L 462.0408163265306 441.5157484312491 L 491.42857142857144 430.69593647828117 L 520.8163265306123 416.2045366854172 L 550.204081632653 406.7412627175436 L 579.591836734694 394.88170907540155 L 608.9795918367347 387.65225514286294 L 638.3673469387755 381.90930690656546 L 667.7551020408164 368.91253579188924 L 697.1428571428571 358.2876754056414 L 726.530612244898 345.69705338829885 L 755.9183673469388 329.18303109071337 L 785.3061224489796 318.88308998233254 L 814.6938775510205 306.56052636923016 L 844.0816326530612 303.50628515728124 L 873.469387755102 293.0844993197003 L 902.8571428571429 286.13122677334854 L 932.2448979591837 279.494750522917 L 961.6326530612245 267.3671384765347 L 991.0204081632653 256.2548991734866 L 1020.4081632653061 244.3141157118779 L 1049.795918367347 239.8302296773146 L 1079.183673469388 235.28948276912456 L 1108.5714285714287 229.09977052576005 L 1137.9591836734694 223.74672542290273 L 1167.3469387755101 215.40442296366996 L 1196.734693877551 206.6478484251569 L 1226.1224489795918 200.72619458603253 L 1255.5102040816328 197.17645147533665 L 1284.8979591836735 189.7926608858112 L 1314.2857142857142 184.8782568080743 L 1343.6734693877552 161.05355075848342 L 1373.061224489796 151.76085941148995 L 1402.4489795918369 143.5566476453506 L 1431.8367346938776 135.01127063745105 L 1461.2244897959183 130.0562516499807 L 1490.6122448979593 126.40090977397801 L 1520.0 120.0" fill="none" stroke="#2ca02c" stroke-width="2" />
<circle cx="80.0" cy="920.0" r="4" fill="#d62728" />
<circle cx="109.38775510204081" cy="862.6679934203846" r="4" fill="#d62728" />
<circle cx="138.77551020408163" cy="779.6917328351237" r="4" fill="#d62728" />
<circle cx="168.16326530612247" cy="750.9769916536361" r="4" fill="#d62728" />
<circle cx="197.55102040816325" cy="730.6451678411145" r="4" fill="#d62728" />
<circle cx="226.9387755102041" cy="720.507686371667" r="4" fill="#d62728" />
<circle cx="256.32653061224494" cy="700.5495197286924" r="4" fill="#d62728" />
<circle cx="285.7142857142857" cy="679.5841033243304" r="4" fill="#d62728" />
<circle cx="315.1020408163265" cy="660.2838982190362" r="4" fill="#d62728" />
<circle cx="344.48979591836735" cy="644.111041163211" r="4" fill="#d62728" />
<circle cx="373.8775510204082" cy="629.0916475438133" r="4" fill="#d62728" />
<circle cx="403.265306122449" cy="619.6364965578864" r="4" fill="#d62728" />
<circle cx="432.6530612244898" cy="610.2706983733729" r="4" fill="#d62728" />
<circle cx="462.0408163265306" cy="596.8759011433096" r="4" fill="#d62728" />
<circle cx="491.42857142857144" cy="577.0964401031619" r="4" fill="#d62728" />
<circle cx="520.8163265306123" cy="555.8142274028796" r="4" fill="#d62728" />
<circle cx="550.204081632653" cy="542.1270028227362" r="4" fill="#d62728" />
<circle cx="579.591836734694" cy="522.704952988242" r="4" fill="#d62728" />
<circle cx="608.9795918367347" cy="514.5819710415694" r="4" fill="#d62728" />
<circle cx="638.3673469387755" cy="507.1819344881506" r="4" fill="#d62728" />
<circle cx="667.7551020408164" cy="491.28525881851226" r="4" fill="#d62728" />
<circle cx="697.1428571428571" cy="476.4202018561014" r="4" fill="#d62728" />
<circle cx="726.530612244898" cy="462.4649188717178" r="4" fill="#d62728" />
<circle cx="755.9183673469388" cy="443.14034482058366" r="4" fill="#d62728" />
<circle cx="785.3061224489796" cy="430.26541843510756" r="4" fill="#d62728" />
<circle cx="814.6938775510205" cy="422.06120666896817" r="4" fill="#d62728" />
<circle cx="844.0816326530612" cy="412.8010072497614" r="4" fill="#d62728" />
<circle cx="873.469387755102" cy="400.9170846617793" r="4" fill="#d62728" />
<circle cx="902.8571428571429" cy="391.2913510549723" r="4" fill="#d62728" />
<circle cx="932.2448979591837" cy="382.54289949840586" r="4" fill="#d62728" />
<circle cx="961.6326530612245" cy="367.6940884998884" r="4" fill="#d62728" />
<circle cx="991.0204081632653" cy="355.55835347155937" r="4" fill="#d62728" />
<circle cx="1020.4081632653061" cy="337.13543041650587" r="4" fill="#d62728" />
<circle cx="1049.795918367347" cy="331.7336474219686" r="4" fill="#d62728" />
<circle cx="1079.183673469388" cy="325.5764271063907" r="4" fill="#d62728" />
<circle cx="1108.5714285714287" cy="317.4696911236115" r="4" fill="#d62728" />
<circle cx="1137.9591836734694" cy="310.8981987287533" r="4" fill="#d62728" />
<circle cx="1167.3469387755101" cy="301.1912353024795" r="4" fill="#d62728" />
<circle cx="1196.734693877551" cy="290.85880226631195" r="4" fill="#d62728" />
<circle cx="1226.1224489795918" cy="285.9119062607883" r="4" fill="#d62728" />
<circle cx="1255.5102040816328" cy="280.5182462481978" r="4" fill="#d62728" />
<circle cx="1284.8979591836735" cy="271.6154580346446" r="4" fill="#d62728" />
<circle cx="1314.2857142857142" cy="264.1991755173324" r="4" fill="#d62728" />
<circle cx="1343.6734693877552" cy="239.5053103994477" r="4" fill="#d62728" />
<circle cx="1373.061224489796" cy="229.96080661210738" r="4" fill="#d62728" />
<circle cx="1402.4489795918369" cy="219.80707917876657" r="4" fill="#d62728" />
<circle cx="1431.8367346938776" cy="212.58574822817457" r="4" fill="#d62728" />
<circle cx="1461.2244897959183" cy="205.22632658448913" r="4" fill="#d62728" />
<circle cx="1490.6122448979593" cy="200.59622687488582" r="4" fill="#d62728" />
<circle cx="1520.0" cy="192.1077107406129" r="4" fill="#d62728" />
<path d="M 80.0 920.0 L 109.38775510204081 862.6679934203846 L 138.77551020408163 779.6917328351237 L 168.16326530612247 750.9769916536361 L 197.55102040816325 730.6451678411145 L 226.9387755102041 720.507686371667 L 256.32653061224494 700.5495197286924 L 285.7142857142857 679.5841033243304 L 315.1020408163265 660.2838982190362 L 344.48979591836735 644.111041163211 L 373.8775510204082 629.0916475438133 L 403.265306122449 619.6364965578864 L 432.6530612244898 610.2706983733729 L 462.0408163265306 596.8759011433096 L 491.42857142857144 577.0964401031619 L 520.8163265306123 555.8142274028796 L 550.204081632653 542.1270028227362 L 579.591836734694 522.704952988242 L 608.9795918367347 514.5819710415694 L 638.3673469387755 507.1819344881506 L 667.7551020408164 491.28525881851226 L 697.1428571428571 476.4202018561014 L 726.530612244898 462.4649188717178 L 755.9183673469388 443.14034482058366 L 785.3061224489796 430.26541843510756 L 814.6938775510205 422.06120666896817 L 844.0816326530612 412.8010072497614 L 873.469387755102 400.9170846617793 L 902.8571428571429 391.2913510549723 L 932.2448979591837 382.54289949840586 L 961.6326530612245 367.6940884998884 L 991.0204081632653 355.55835347155937 L 1020.4081632653061 337.13543041650587 L 1049.795918367347 331.7336474219686 L 1079.183673469388 325.5764271063907 L 1108.5714285714287 317.4696911236115 L 1137.9591836734694 310.8981987287533 L 1167.3469387755101 301.1912353024795 L 1196.734693877551 290.85880226631195 L 1226.1224489795918 285.9119062607883 L 1255.5102040816328 280.5182462481978 L 1284.8979591836735 271.6154580346446 L 1314.2857142857142 264.1991755173324 L 1343.6734693877552 239.5053103994477 L 1373.061224489796 229.96080661210738 L 1402.4489795918369 219.80707917876657 L 1431.8367346938776 212.58574822817457 L 1461.2244897959183 205.22632658448913 L 1490.6122448979593 200.59622687488582 L 1520.0 192.1077107406129" fill="none" stroke="#d62728" stroke-width="2" />
<circle cx="80.0" cy="920.0" r="4" fill="#9467bd" />
<circle cx="109.38775510204081" cy="868.7196149706557" r="4" fill="#9467bd" />
<circle cx="138.77551020408163" cy="785.4265580894746" r="4" fill="#9467bd" />
<circle cx="168.16326530612247" cy="751.6593221371566" r="4" fill="#9467bd" />
<circle cx="197.55102040816325" cy="731.2625144690616" r="4" fill="#9467bd" />
<circle cx="226.9387755102041" cy="722.1647746887883" r="4" fill="#9467bd" />
<circle cx="256.32653061224494" cy="702.0360254249335" r="4" fill="#9467bd" />
<circle cx="285.7142857142857" cy="680.1039741689174" r="4" fill="#9467bd" />
<circle cx="315.1020408163265" cy="660.2595292731962" r="4" fill="#9467bd" />
<circle cx="344.48979591836735" cy="643.9079666145442" r="4" fill="#9467bd" />
<circle cx="373.8775510204082" cy="629.0591556160266" r="4" fill="#9467bd" />
<circle cx="403.265306122449" cy="619.5958816481531" r="4" fill="#9467bd" />
<circle cx="432.6530612244898" cy="610.1650996080662" r="4" fill="#9467bd" />
<circle cx="462.0408163265306" cy="596.1529557500559" r="4" fill="#9467bd" />
<circle cx="491.42857142857144" cy="576.5197083849481" r="4" fill="#9467bd" />
<circle cx="520.8163265306123" cy="554.8232236053855" r="4" fill="#9467bd" />
<circle cx="550.204081632653" cy="540.7623418556952" r="4" fill="#9467bd" />
<circle cx="579.591836734694" cy="523.8827853705095" r="4" fill="#9467bd" />
<circle cx="608.9795918367347" cy="515.7516804418902" r="4" fill="#9467bd" />
<circle cx="638.3673469387755" cy="508.27041406900474" r="4" fill="#9467bd" />
<circle cx="667.7551020408164" cy="492.13817192291293" r="4" fill="#9467bd" />
<circle cx="697.1428571428571" cy="476.8101049895417" r="4" fill="#9467bd" />
<circle cx="726.530612244898" cy="462.87106796905147" r="4" fill="#9467bd" />
<circle cx="755.9183673469388" cy="443.47338708039723" r="4" fill="#9467bd" />
<circle cx="785.3061224489796" cy="430.41163211014765" r="4" fill="#9467bd" />
<circle cx="814.6938775510205" cy="422.23178928984834" r="4" fill="#9467bd" />
<circle cx="844.0816326530612" cy="412.97158987064154" r="4" fill="#9467bd" />
<circle cx="873.469387755102" cy="401.07142131876617" r="4" fill="#9467bd" />
<circle cx="902.8571428571429" cy="391.12889141603887" r="4" fill="#9467bd" />
<circle cx="932.2448979591837" cy="382.3804398594724" r="4" fill="#9467bd" />
<circle cx="961.6326530612245" cy="367.7347034096217" r="4" fill="#9467bd" />
<circle cx="991.0204081632653" cy="355.8751497674797" r="4" fill="#9467bd" />
<circle cx="1020.4081632653061" cy="337.3466279471194" r="4" fill="#9467bd" />
<circle cx="1049.795918367347" cy="331.89610706090207" r="4" fill="#9467bd" />
<circle cx="1079.183673469388" cy="325.99069918567113" r="4" fill="#9467bd" />
<circle cx="1108.5714285714287" cy="317.85959425705175" r="4" fill="#9467bd" />
<circle cx="1137.9591836734694" cy="311.26373291635366" r="4" fill="#9467bd" />
<circle cx="1167.3469387755101" cy="301.4836626525598" r="4" fill="#9467bd" />
<circle cx="1196.734693877551" cy="290.54200597039176" r="4" fill="#9467bd" />
<circle cx="1226.1224489795918" cy="285.5707410190281" r="4" fill="#9467bd" />
<circle cx="1255.5102040816328" cy="280.17708100643745" r="4" fill="#9467bd" />
<circle cx="1284.8979591836735" cy="271.26616981093764" r="4" fill="#9467bd" />
<circle cx="1314.2857142857142" cy="263.76053449221206" r="4" fill="#9467bd" />
<circle cx="1343.6734693877552" cy="239.05854639238066" r="4" fill="#9467bd" />
<circle cx="1373.061224489796" cy="229.4653047133603" r="4" fill="#9467bd" />
<circle cx="1402.4489795918369" cy="219.3197002619662" r="4" fill="#9467bd" />
<circle cx="1431.8367346938776" cy="212.0983693113742" r="4" fill="#9467bd" />
<circle cx="1461.2244897959183" cy="204.6739638121154" r="4" fill="#9467bd" />
<circle cx="1490.6122448979593" cy="200.0601100664054" r="4" fill="#9467bd" />
<circle cx="1520.0" cy="191.1735678167455" r="4" fill="#9467bd" />
<path d="M 80.0 920.0 L 109.38775510204081 868.7196149706557 L 138.77551020408163 785.4265580894746 L 168.16326530612247 751.6593221371566 L 197.55102040816325 731.2625144690616 L 226.9387755102041 722.1647746887883 L 256.32653061224494 702.0360254249335 L 285.7142857142857 680.1039741689174 L 315.1020408163265 660.2595292731962 L 344.48979591836735 643.9079666145442 L 373.8775510204082 629.0591556160266 L 403.265306122449 619.5958816481531 L 432.6530612244898 610.1650996080662 L 462.0408163265306 596.1529557500559 L 491.42857142857144 576.5197083849481 L 520.8163265306123 554.8232236053855 L 550.204081632653 540.7623418556952 L 579.591836734694 523.8827853705095 L 608.9795918367347 515.7516804418902 L 638.3673469387755 508.27041406900474 L 667.7551020408164 492.13817192291293 L 697.1428571428571 476.8101049895417 L 726.530612244898 462.87106796905147 L 755.9183673469388 443.47338708039723 L 785.3061224489796 430.41163211014765 L 814.6938775510205 422.23178928984834 L 844.0816326530612 412.97158987064154 L 873.469387755102 401.07142131876617 L 902.8571428571429 391.12889141603887 L 932.2448979591837 382.3804398594724 L 961.6326530612245 367.7347034096217 L 991.0204081632653 355.8751497674797 L 1020.4081632653061 337.3466279471194 L 1049.795918367347 331.89610706090207 L 1079.183673469388 325.99069918567113 L 1108.5714285714287 317.85959425705175 L 1137.9591836734694 311.26373291635366 L 1167.3469387755101 301.4836626525598 L 1196.734693877551 290.54200597039176 L 1226.1224489795918 285.5707410190281 L 1255.5102040816328 280.17708100643745 L 1284.8979591836735 271.26616981093764 L 1314.2857142857142 263.76053449221206 L 1343.6734693877552 239.05854639238066 L 1373.061224489796 229.4653047133603 L 1402.4489795918369 219.3197002619662 L 1431.8367346938776 212.0983693113742 L 1461.2244897959183 204.6739638121154 L 1490.6122448979593 200.0601100664054 L 1520.0 191.1735678167455" fill="none" stroke="#9467bd" stroke-width="2" />
<circle cx="80.0" cy="920.0" r="4" fill="#66ffbd" />
<circle cx="109.38775510204081" cy="664.2154214812258" r="4" fill="#66ffbd" />
<circle cx="138.77551020408163" cy="688.1376033141767" r="4" fill="#66ffbd" />
<circle cx="168.16326530612247" cy="702.7833397640273" r="4" fill="#66ffbd" />
<circle cx="197.55102040816325" cy="713.7493653920354" r="4" fill="#66ffbd" />
<circle cx="226.9387755102041" cy="716.5193022358508" r="4" fill="#66ffbd" />
<circle cx="256.32653061224494" cy="723.708141258656" r="4" fill="#66ffbd" />
<circle cx="285.7142857142857" cy="729.0124484698333" r="4" fill="#66ffbd" />
<circle cx="315.1020408163265" cy="735.9494750522917" r="4" fill="#66ffbd" />
<circle cx="344.48979591836735" cy="741.4487338301891" r="4" fill="#66ffbd" />
<circle cx="373.8775510204082" cy="745.3315192006986" r="4" fill="#66ffbd" />
<circle cx="403.265306122449" cy="749.0193530044879" r="4" fill="#66ffbd" />
<circle cx="432.6530612244898" cy="751.1232053286761" r="4" fill="#66ffbd" />
<circle cx="462.0408163265306" cy="756.9717523302804" r="4" fill="#66ffbd" />
<circle cx="491.42857142857144" cy="766.1669678939138" r="4" fill="#66ffbd" />
<circle cx="520.8163265306123" cy="773.3233149889325" r="4" fill="#66ffbd" />
<circle cx="550.204081632653" cy="778.2295960847227" r="4" fill="#66ffbd" />
<circle cx="579.591836734694" cy="786.0357817354751" r="4" fill="#66ffbd" />
<circle cx="608.9795918367347" cy="786.929309749609" r="4" fill="#66ffbd" />
<circle cx="638.3673469387755" cy="788.667627886197" r="4" fill="#66ffbd" />
<circle cx="667.7551020408164" cy="791.7624840078793" r="4" fill="#66ffbd" />
<circle cx="697.1428571428571" cy="796.9611924537497" r="4" fill="#66ffbd" />
<circle cx="726.530612244898" cy="798.3827142944175" r="4" fill="#66ffbd" />
<circle cx="755.9183673469388" cy="801.2095120118596" r="4" fill="#66ffbd" />
<circle cx="785.3061224489796" cy="804.2231383140751" r="4" fill="#66ffbd" />
<circle cx="814.6938775510205" cy="800.104786467112" r="4" fill="#66ffbd" />
<circle cx="844.0816326530612" cy="806.3026216924233" r="4" fill="#66ffbd" />
<circle cx="873.469387755102" cy="807.7647584428244" r="4" fill="#66ffbd" />
<circle cx="902.8571428571429" cy="811.1276729687469" r="4" fill="#66ffbd" />
<circle cx="932.2448979591837" cy="813.255894238775" r="4" fill="#66ffbd" />
<circle cx="961.6326530612245" cy="816.009585118697" r="4" fill="#66ffbd" />
<circle cx="991.0204081632653" cy="817.0412038259245" r="4" fill="#66ffbd" />
<circle cx="1020.4081632653061" cy="823.6208192027293" r="4" fill="#66ffbd" />
<circle cx="1049.795918367347" cy="824.5630851085433" r="4" fill="#66ffbd" />
<circle cx="1079.183673469388" cy="826.1795585159311" r="4" fill="#66ffbd" />
<circle cx="1108.5714285714287" cy="828.1534431289726" r="4" fill="#66ffbd" />
<circle cx="1137.9591836734694" cy="829.3637674390269" r="4" fill="#66ffbd" />
<circle cx="1167.3469387755101" cy="830.777166297748" r="4" fill="#66ffbd" />
<circle cx="1196.734693877551" cy="832.9622484414028" r="4" fill="#66ffbd" />
<circle cx="1226.1224489795918" cy="832.0118595536421" r="4" fill="#66ffbd" />
<circle cx="1255.5102040816328" cy="833.8557764555368" r="4" fill="#66ffbd" />
<circle cx="1284.8979591836735" cy="835.3991430254047" r="4" fill="#66ffbd" />
<circle cx="1314.2857142857142" cy="837.9741283024998" r="4" fill="#66ffbd" />
<circle cx="1343.6734693877552" cy="838.9163942083139" r="4" fill="#66ffbd" />
<circle cx="1373.061224489796" cy="839.1925755945008" r="4" fill="#66ffbd" />
<circle cx="1402.4489795918369" cy="841.1420912617021" r="4" fill="#66ffbd" />
<circle cx="1431.8367346938776" cy="839.8099222224479" r="4" fill="#66ffbd" />
<circle cx="1461.2244897959183" cy="842.214324878663" r="4" fill="#66ffbd" />
<circle cx="1490.6122448979593" cy="843.1972056942103" r="4" fill="#66ffbd" />
<circle cx="1520.0" cy="845.6584692240522" r="4" fill="#66ffbd" />
<path d="M 80.0 920.0 L 109.38775510204081 664.2154214812258 L 138.77551020408163 688.1376033141767 L 168.16326530612247 702.7833397640273 L 197.55102040816325 713.7493653920354 L 226.9387755102041 716.5193022358508 L 256.32653061224494 723.708141258656 L 285.7142857142857 729.0124484698333 L 315.1020408163265 735.9494750522917 L 344.48979591836735 741.4487338301891 L 373.8775510204082 745.3315192006986 L 403.265306122449 749.0193530044879 L 432.6530612244898 751.1232053286761 L 462.0408163265306 756.9717523302804 L 491.42857142857144 766.1669678939138 L 520.8163265306123 773.3233149889325 L 550.204081632653 778.2295960847227 L 579.591836734694 786.0357817354751 L 608.9795918367347 786.929309749609 L 638.3673469387755 788.667627886197 L 667.7551020408164 791.7624840078793 L 697.1428571428571 796.9611924537497 L 726.530612244898 798.3827142944175 L 755.9183673469388 801.2095120118596 L 785.3061224489796 804.2231383140751 L 814.6938775510205 800.104786467112 L 844.0816326530612 806.3026216924233 L 873.469387755102 807.7647584428244 L 902.8571428571429 811.1276729687469 L 932.2448979591837 813.255894238775 L 961.6326530612245 816.009585118697 L 991.0204081632653 817.0412038259245 L 1020.4081632653061 823.6208192027293 L 1049.795918367347 824.5630851085433 L 1079.183673469388 826.1795585159311 L 1108.5714285714287 828.1534431289726 L 1137.9591836734694 829.3637674390269 L 1167.3469387755101 830.777166297748 L 1196.734693877551 832.9622484414028 L 1226.1224489795918 832.0118595536421 L 1255.5102040816328 833.8557764555368 L 1284.8979591836735 835.3991430254047 L 1314.2857142857142 837.9741283024998 L 1343.6734693877552 838.9163942083139 L 1373.061224489796 839.1925755945008 L 1402.4489795918369 841.1420912617021 L 1431.8367346938776 839.8099222224479 L 1461.2244897959183 842.214324878663 L 1490.6122448979593 843.1972056942103 L 1520.0 845.6584692240522" fill="none" stroke="#66ffbd" stroke-width="2" />
<text x="80.0" y="940" text-anchor="middle">08-06</text>
<text x="109.38775510204081" y="940" text-anchor="middle">08-07</text>
<text x="138.77551020408163" y="940" text-anchor="middle">08-08</text>
<text x="168.16326530612247" y="940" text-anchor="middle">08-09</text>
<text x="197.55102040816325" y="940" text-anchor="middle">08-10</text>
<text x="226.9387755102041" y="940" text-anchor="middle">08-11</text>
<text x="256.32653061224494" y="940" text-anchor="middle">08-12</text>
<text x="285.7142857142857" y="940" text-anchor="middle">08-13</text>
<text x="315.1020408163265" y="940" text-anchor="middle">08-14</text>
<text x="344.48979591836735" y="940" text-anchor="middle">08-15</text>
<text x="373.8775510204082" y="940" text-anchor="middle">08-16</text>
<text x="403.265306122449" y="940" text-anchor="middle">08-17</text>
<text x="432.6530612244898" y="940" text-anchor="middle">08-18</text>
<text x="462.0408163265306" y="940" text-anchor="middle">08-19</text>
<text x="491.42857142857144" y="940" text-anchor="middle">08-20</text>
<text x="520.8163265306123" y="940" text-anchor="middle">08-21</text>
<text x="550.204081632653" y="940" text-anchor="middle">08-22</text>
<text x="579.591836734694" y="940" text-anchor="middle">08-23</text>
<text x="608.9795918367347" y="940" text-anchor="middle">08-24</text>
<text x="638.3673469387755" y="940" text-anchor="middle">08-25</text>
<text x="667.7551020408164" y="940" text-anchor="middle">08-26</text>
<text x="697.1428571428571" y="940" text-anchor="middle">08-27</text>
<text x="726.530612244898" y="940" text-anchor="middle">08-28</text>
<text x="755.9183673469388" y="940" text-anchor="middle">08-29</text>
<text x="785.3061224489796" y="940" text-anchor="middle">08-30</text>
<text x="814.6938775510205" y="940" text-anchor="middle">08-31</text>
<text x="844.0816326530612" y="940" text-anchor="middle">09-01</text>
<text x="873.469387755102" y="940" text-anchor="middle">09-02</text>
<text x="902.8571428571429" y="940" text-anchor="middle">09-03</text>
<text x="932.2448979591837" y="940" text-anchor="middle">09-04</text>
<text x="961.6326530612245" y="940" text-anchor="middle">09-05</text>
<text x="991.0204081632653" y="940" text-anchor="middle">09-06</text>
<text x="1020.4081632653061" y="940" text-anchor="middle">09-07</text>
<text x="1049.795918367347" y="940" text-anchor="middle">09-08</text>
<text x="1079.183673469388" y="940" text-anchor="middle">09-09</text>
<text x="1108.5714285714287" y="940" text-anchor="middle">09-10</text>
<text x="1137.9591836734694" y="940" text-anchor="middle">09-11</text>
<text x="1167.3469387755101" y="940" text-anchor="middle">09-12</text>
<text x="1196.734693877551" y="940" text-anchor="middle">09-13</text>
<text x="1226.1224489795918" y="940" text-anchor="middle">09-14</text>
<text x="1255.5102040816328" y="940" text-anchor="middle">09-15</text>
<text x="1284.8979591836735" y="940" text-anchor="middle">09-16</text>
<text x="1314.2857142857142" y="940" text-anchor="middle">09-17</text>
<text x="1343.6734693877552" y="940" text-anchor="middle">09-18</text>
<text x="1373.061224489796" y="940" text-anchor="middle">09-19</text>
<text x="1402.4489795918369" y="940" text-anchor="middle">09-20</text>
<text x="1431.8367346938776" y="940" text-anchor="middle">09-21</text>
<text x="1461.2244897959183" y="940" text-anchor="middle">09-22</text>
<text x="1490.6122448979593" y="940" text-anchor="middle">09-23</text>
<text x="1520.0" y="940" text-anchor="middle">09-24</text>
<rect x="90" y="100" width="130" height="185" class="legend-box" />
<text x="100" y="120" class="legend-item">图例:</text>
<rect x="100" y="137" width="15" height="15" fill="#1f77b4" rx="3" />
<text x="120" y="145" class="legend-item">构件聚合数据</text>
<rect x="100" y="162" width="15" height="15" fill="#ff7f0e" rx="3" />
<text x="120" y="170" class="legend-item">构件基本信息</text>
<rect x="100" y="187" width="15" height="15" fill="#2ca02c" rx="3" />
<text x="120" y="195" class="legend-item">构件徽标</text>
<rect x="100" y="212" width="15" height="15" fill="#d62728" rx="3" />
<text x="120" y="220" class="legend-item">构件扩展元数据</text>
<rect x="100" y="237" width="15" height="15" fill="#9467bd" rx="3" />
<text x="120" y="245" class="legend-item">构件版本信息</text>
<rect x="100" y="262" width="15" height="15" fill="#66ffbd" rx="3" />
<text x="120" y="270" class="legend-item">数据量偏差</text>
<text x="1520" y="990" text-anchor="end" font-size="10" fill="#666">生成时间: 2025-09-24 00:42:02</text>
</svg>