<svg xmlns="http://www.w3.org/2000/svg" width="1600" height="1000" viewBox="0 0 1600 1000">
<style>
  text {
    font-family: Arial, sans-serif;
    font-size: 12px;
    fill: #333;
  }
  .axis-label { font-size: 14px; }
  .title { font-size: 18px; font-weight: bold; }
  .legend-item { font-size: 11px; }
  .legend-box { fill: white; fill-opacity: 0.85; stroke: #cccccc; stroke-width: 1; rx: 5; }
</style>
<text x="800.0" y="30" text-anchor="middle" class="title">Daily Data Growth Trend</text>
<text x="800.0" y="980" text-anchor="middle" class="axis-label">Date</text>
<g transform="rotate(-90)">
<text x="-500.0" y="20" text-anchor="middle" class="axis-label">Count</text>
</g>
<rect x="0" y="0" width="1600" height="1000" fill="#f8f8f8" />
<line x1="80" y1="920.0" x2="1520" y2="920.0" stroke="#e0e0e0" stroke-width="1" />
<text x="70" y="925.0" text-anchor="end">0</text>
<line x1="80" y1="752.0" x2="1520" y2="752.0" stroke="#e0e0e0" stroke-width="1" />
<text x="70" y="757.0" text-anchor="end">14.5k</text>
<line x1="80" y1="584.0" x2="1520" y2="584.0" stroke="#e0e0e0" stroke-width="1" />
<text x="70" y="589.0" text-anchor="end">29.0k</text>
<line x1="80" y1="416.0" x2="1520" y2="416.0" stroke="#e0e0e0" stroke-width="1" />
<text x="70" y="421.0" text-anchor="end">43.6k</text>
<line x1="80" y1="248.0" x2="1520" y2="248.0" stroke="#e0e0e0" stroke-width="1" />
<text x="70" y="253.0" text-anchor="end">58.1k</text>
<line x1="80" y1="80.0" x2="1520" y2="80.0" stroke="#e0e0e0" stroke-width="1" />
<text x="70" y="85.0" text-anchor="end">72.6k</text>
<line x1="80" y1="80" x2="80" y2="920" stroke="#333333" stroke-width="2" />
<line x1="80" y1="920" x2="1520" y2="920" stroke="#333333" stroke-width="2" />
<circle cx="80.0" cy="920.0" r="4" fill="#1f77b4" />
<circle cx="148.57142857142856" cy="863.4512877615653" r="4" fill="#1f77b4" />
<circle cx="217.14285714285714" cy="743.6092030484014" r="4" fill="#1f77b4" />
<circle cx="285.7142857142857" cy="695.4016572428454" r="4" fill="#1f77b4" />
<circle cx="354.2857142857143" cy="666.3868924527484" r="4" fill="#1f77b4" />
<circle cx="422.85714285714283" cy="651.8216656302873" r="4" fill="#1f77b4" />
<circle cx="491.42857142857144" cy="622.8069008401903" r="4" fill="#1f77b4" />
<circle cx="560.0" cy="591.4899278390768" r="4" fill="#1f77b4" />
<circle cx="628.5714285714286" cy="562.6255585602522" r="4" fill="#1f77b4" />
<circle cx="697.1428571428571" cy="539.0944454888577" r="4" fill="#1f77b4" />
<circle cx="765.7142857142857" cy="517.6341629188298" r="4" fill="#1f77b4" />
<circle cx="834.2857142857142" cy="504.14484244624083" r="4" fill="#1f77b4" />
<circle cx="902.8571428571429" cy="490.79434859944183" r="4" fill="#1f77b4" />
<circle cx="971.4285714285714" cy="470.7223322873133" r="4" fill="#1f77b4" />
<circle cx="1040.0" cy="442.216598458446" r="4" fill="#1f77b4" />
<circle cx="1108.5714285714284" cy="411.3855186475973" r="4" fill="#1f77b4" />
<circle cx="1177.142857142857" cy="390.920160229064" r="4" fill="#1f77b4" />
<circle cx="1245.7142857142858" cy="362.911888475944" r="4" fill="#1f77b4" />
<circle cx="1314.2857142857142" cy="351.3430029934491" r="4" fill="#1f77b4" />
<circle cx="1382.857142857143" cy="340.68805946407144" r="4" fill="#1f77b4" />
<circle cx="1451.4285714285713" cy="317.77009732324916" r="4" fill="#1f77b4" />
<circle cx="1520.0" cy="295.23390840334923" r="4" fill="#1f77b4" />
<path d="M 80.0 920.0 L 148.57142857142856 863.4512877615653 L 217.14285714285714 743.6092030484014 L 285.7142857142857 695.4016572428454 L 354.2857142857143 666.3868924527484 L 422.85714285714283 651.8216656302873 L 491.42857142857144 622.8069008401903 L 560.0 591.4899278390768 L 628.5714285714286 562.6255585602522 L 697.1428571428571 539.0944454888577 L 765.7142857142857 517.6341629188298 L 834.2857142857142 504.14484244624083 L 902.8571428571429 490.79434859944183 L 971.4285714285714 470.7223322873133 L 1040.0 442.216598458446 L 1108.5714285714284 411.3855186475973 L 1177.142857142857 390.920160229064 L 1245.7142857142858 362.911888475944 L 1314.2857142857142 351.3430029934491 L 1382.857142857143 340.68805946407144 L 1451.4285714285713 317.77009732324916 L 1520.0 295.23390840334923" fill="none" stroke="#1f77b4" stroke-width="2" />
<circle cx="80.0" cy="920.0" r="4" fill="#ff7f0e" />
<circle cx="148.57142857142856" cy="507.26844152651444" r="4" fill="#ff7f0e" />
<circle cx="217.14285714285714" cy="421.16122688030543" r="4" fill="#ff7f0e" />
<circle cx="285.7142857142857" cy="393.5462972335903" r="4" fill="#ff7f0e" />
<circle cx="354.2857142857143" cy="379.9412879061764" r="4" fill="#ff7f0e" />
<circle cx="422.85714285714283" cy="369.2979132622811" r="4" fill="#ff7f0e" />
<circle cx="491.42857142857144" cy="350.32494107098955" r="4" fill="#ff7f0e" />
<circle cx="560.0" cy="326.25009038191786" r="4" fill="#ff7f0e" />
<circle cx="628.5714285714286" cy="307.0457404809764" r="4" fill="#ff7f0e" />
<circle cx="697.1428571428571" cy="291.2195051409235" r="4" fill="#ff7f0e" />
<circle cx="765.7142857142857" cy="275.20816763315065" r="4" fill="#ff7f0e" />
<circle cx="834.2857142857142" cy="266.8438634293069" r="4" fill="#ff7f0e" />
<circle cx="902.8571428571429" cy="256.48971092247405" r="4" fill="#ff7f0e" />
<circle cx="971.4285714285714" cy="244.71258550129426" r="4" fill="#ff7f0e" />
<circle cx="1040.0" cy="228.95576347413635" r="4" fill="#ff7f0e" />
<circle cx="1108.5714285714284" cy="207.86568523954827" r="4" fill="#ff7f0e" />
<circle cx="1177.142857142857" cy="194.33008922502927" r="4" fill="#ff7f0e" />
<circle cx="1245.7142857142858" cy="177.4279475351044" r="4" fill="#ff7f0e" />
<circle cx="1314.2857142857142" cy="167.14320834116643" r="4" fill="#ff7f0e" />
<circle cx="1382.857142857143" cy="158.9408685340776" r="4" fill="#ff7f0e" />
<circle cx="1451.4285714285713" cy="140.30339402177844" r="4" fill="#ff7f0e" />
<circle cx="1520.0" cy="125.13658515422776" r="4" fill="#ff7f0e" />
<path d="M 80.0 920.0 L 148.57142857142856 507.26844152651444 L 217.14285714285714 421.16122688030543 L 285.7142857142857 393.5462972335903 L 354.2857142857143 379.9412879061764 L 422.85714285714283 369.2979132622811 L 491.42857142857144 350.32494107098955 L 560.0 326.25009038191786 L 628.5714285714286 307.0457404809764 L 697.1428571428571 291.2195051409235 L 765.7142857142857 275.20816763315065 L 834.2857142857142 266.8438634293069 L 902.8571428571429 256.48971092247405 L 971.4285714285714 244.71258550129426 L 1040.0 228.95576347413635 L 1108.5714285714284 207.86568523954827 L 1177.142857142857 194.33008922502927 L 1245.7142857142858 177.4279475351044 L 1314.2857142857142 167.14320834116643 L 1382.857142857143 158.9408685340776 L 1451.4285714285713 140.30339402177844 L 1520.0 125.13658515422776" fill="none" stroke="#ff7f0e" stroke-width="2" />
<circle cx="80.0" cy="920.0" r="4" fill="#2ca02c" />
<circle cx="148.57142857142856" cy="499.1586528032856" r="4" fill="#2ca02c" />
<circle cx="217.14285714285714" cy="413.3869358360689" r="4" fill="#2ca02c" />
<circle cx="285.7142857142857" cy="386.03809055545116" r="4" fill="#2ca02c" />
<circle cx="354.2857142857143" cy="372.64132116672215" r="4" fill="#2ca02c" />
<circle cx="422.85714285714283" cy="362.0210842937919" r="4" fill="#2ca02c" />
<circle cx="491.42857142857144" cy="343.24478315570275" r="4" fill="#2ca02c" />
<circle cx="560.0" cy="319.4822923746584" r="4" fill="#2ca02c" />
<circle cx="628.5714285714286" cy="300.4977512978844" r="4" fill="#2ca02c" />
<circle cx="697.1428571428571" cy="284.7987736981389" r="4" fill="#2ca02c" />
<circle cx="765.7142857142857" cy="268.8684183887435" r="4" fill="#2ca02c" />
<circle cx="834.2857142857142" cy="260.6313719252072" r="4" fill="#2ca02c" />
<circle cx="902.8571428571429" cy="250.27721941837433" r="4" fill="#2ca02c" />
<circle cx="971.4285714285714" cy="238.53480065364204" r="4" fill="#2ca02c" />
<circle cx="1040.0" cy="223.12504519095899" r="4" fill="#2ca02c" />
<circle cx="1108.5714285714284" cy="202.48615349018814" r="4" fill="#2ca02c" />
<circle cx="1177.142857142857" cy="189.00840190308168" r="4" fill="#2ca02c" />
<circle cx="1245.7142857142858" cy="172.11782909863928" r="4" fill="#2ca02c" />
<circle cx="1314.2857142857142" cy="161.82152101921884" r="4" fill="#2ca02c" />
<circle cx="1382.857142857143" cy="153.64231898309504" r="4" fill="#2ca02c" />
<circle cx="1451.4285714285713" cy="135.1321022111033" r="4" fill="#2ca02c" />
<circle cx="1520.0" cy="120.0" r="4" fill="#2ca02c" />
<path d="M 80.0 920.0 L 148.57142857142856 499.1586528032856 L 217.14285714285714 413.3869358360689 L 285.7142857142857 386.03809055545116 L 354.2857142857143 372.64132116672215 L 422.85714285714283 362.0210842937919 L 491.42857142857144 343.24478315570275 L 560.0 319.4822923746584 L 628.5714285714286 300.4977512978844 L 697.1428571428571 284.7987736981389 L 765.7142857142857 268.8684183887435 L 834.2857142857142 260.6313719252072 L 902.8571428571429 250.27721941837433 L 971.4285714285714 238.53480065364204 L 1040.0 223.12504519095899 L 1108.5714285714284 202.48615349018814 L 1177.142857142857 189.00840190308168 L 1245.7142857142858 172.11782909863928 L 1314.2857142857142 161.82152101921884 L 1382.857142857143 153.64231898309504 L 1451.4285714285713 135.1321022111033 L 1520.0 120.0" fill="none" stroke="#2ca02c" stroke-width="2" />
<circle cx="80.0" cy="920.0" r="4" fill="#d62728" />
<circle cx="148.57142857142856" cy="838.3468062645514" r="4" fill="#d62728" />
<circle cx="217.14285714285714" cy="720.1706410608668" r="4" fill="#d62728" />
<circle cx="285.7142857142857" cy="679.2746308802475" r="4" fill="#d62728" />
<circle cx="354.2857142857143" cy="650.317710517563" r="4" fill="#d62728" />
<circle cx="422.85714285714283" cy="635.8797414354094" r="4" fill="#d62728" />
<circle cx="491.42857142857144" cy="607.4549898049197" r="4" fill="#d62728" />
<circle cx="560.0" cy="577.5956963746005" r="4" fill="#d62728" />
<circle cx="628.5714285714286" cy="550.1080244681928" r="4" fill="#d62728" />
<circle cx="697.1428571428571" cy="527.0743734725456" r="4" fill="#d62728" />
<circle cx="765.7142857142857" cy="505.68350421541265" r="4" fill="#d62728" />
<circle cx="834.2857142857142" cy="492.2173215137887" r="4" fill="#d62728" />
<circle cx="902.8571428571429" cy="478.87839655247217" r="4" fill="#d62728" />
<circle cx="971.4285714285714" cy="459.8013043918382" r="4" fill="#d62728" />
<circle cx="1040.0" cy="431.63106824196325" r="4" fill="#d62728" />
<circle cx="1108.5714285714284" cy="401.3205882778268" r="4" fill="#d62728" />
<circle cx="1177.142857142857" cy="381.827016239823" r="4" fill="#d62728" />
<circle cx="1245.7142857142858" cy="354.1658110511779" r="4" fill="#d62728" />
<circle cx="1314.2857142857142" cy="342.5969255686831" r="4" fill="#d62728" />
<circle cx="1382.857142857143" cy="332.0576708941303" r="4" fill="#d62728" />
<circle cx="1451.4285714285713" cy="309.4173620048879" r="4" fill="#d62728" />
<circle cx="1520.0" cy="288.24630157192234" r="4" fill="#d62728" />
<path d="M 80.0 920.0 L 148.57142857142856 838.3468062645514 L 217.14285714285714 720.1706410608668 L 285.7142857142857 679.2746308802475 L 354.2857142857143 650.317710517563 L 422.85714285714283 635.8797414354094 L 491.42857142857144 607.4549898049197 L 560.0 577.5956963746005 L 628.5714285714286 550.1080244681928 L 697.1428571428571 527.0743734725456 L 765.7142857142857 505.68350421541265 L 834.2857142857142 492.2173215137887 L 902.8571428571429 478.87839655247217 L 971.4285714285714 459.8013043918382 L 1040.0 431.63106824196325 L 1108.5714285714284 401.3205882778268 L 1177.142857142857 381.827016239823 L 1245.7142857142858 354.1658110511779 L 1314.2857142857142 342.5969255686831 L 1382.857142857143 332.0576708941303 L 1451.4285714285713 309.4173620048879 L 1520.0 288.24630157192234" fill="none" stroke="#d62728" stroke-width="2" />
<circle cx="80.0" cy="920.0" r="4" fill="#9467bd" />
<circle cx="148.57142857142856" cy="846.9656259490101" r="4" fill="#9467bd" />
<circle cx="217.14285714285714" cy="728.3382742115082" r="4" fill="#9467bd" />
<circle cx="285.7142857142857" cy="680.2464172607772" r="4" fill="#9467bd" />
<circle cx="354.2857142857143" cy="651.1969458142325" r="4" fill="#9467bd" />
<circle cx="422.85714285714283" cy="638.2397940738384" r="4" fill="#9467bd" />
<circle cx="491.42857142857144" cy="609.5720958482162" r="4" fill="#9467bd" />
<circle cx="560.0" cy="578.3361050454802" r="4" fill="#9467bd" />
<circle cx="628.5714285714286" cy="550.0733178117453" r="4" fill="#9467bd" />
<circle cx="697.1428571428571" cy="526.7851513354833" r="4" fill="#9467bd" />
<circle cx="765.7142857142857" cy="505.6372286734827" r="4" fill="#9467bd" />
<circle cx="834.2857142857142" cy="492.1594770863762" r="4" fill="#9467bd" />
<circle cx="902.8571428571429" cy="478.7280010411997" r="4" fill="#9467bd" />
<circle cx="971.4285714285714" cy="458.77167358389613" r="4" fill="#9467bd" />
<circle cx="1040.0" cy="430.8096773727061" r="4" fill="#9467bd" />
<circle cx="1108.5714285714284" cy="399.90918424896245" r="4" fill="#9467bd" />
<circle cx="1177.142857142857" cy="379.88344347876387" r="4" fill="#9467bd" />
<circle cx="1245.7142857142858" cy="355.84329944613967" r="4" fill="#9467bd" />
<circle cx="1314.2857142857142" cy="344.2628450781623" r="4" fill="#9467bd" />
<circle cx="1382.857142857143" cy="333.6079015487845" r="4" fill="#9467bd" />
<circle cx="1451.4285714285713" cy="310.6320949805498" r="4" fill="#9467bd" />
<circle cx="1520.0" cy="288.8016080750821" r="4" fill="#9467bd" />
<path d="M 80.0 920.0 L 148.57142857142856 846.9656259490101 L 217.14285714285714 728.3382742115082 L 285.7142857142857 680.2464172607772 L 354.2857142857143 651.1969458142325 L 422.85714285714283 638.2397940738384 L 491.42857142857144 609.5720958482162 L 560.0 578.3361050454802 L 628.5714285714286 550.0733178117453 L 697.1428571428571 526.7851513354833 L 765.7142857142857 505.6372286734827 L 834.2857142857142 492.1594770863762 L 902.8571428571429 478.7280010411997 L 971.4285714285714 458.77167358389613 L 1040.0 430.8096773727061 L 1108.5714285714284 399.90918424896245 L 1177.142857142857 379.88344347876387 L 1245.7142857142858 355.84329944613967 L 1314.2857142857142 344.2628450781623 L 1382.857142857143 333.6079015487845 L 1451.4285714285713 310.6320949805498 L 1520.0 288.8016080750821" fill="none" stroke="#9467bd" stroke-width="2" />
<circle cx="80.0" cy="920.0" r="4" fill="#66ffbd" />
<circle cx="148.57142857142856" cy="555.7073650417203" r="4" fill="#66ffbd" />
<circle cx="217.14285714285714" cy="589.7777327876676" r="4" fill="#66ffbd" />
<circle cx="285.7142857142857" cy="610.6364333126057" r="4" fill="#66ffbd" />
<circle cx="354.2857142857143" cy="626.2544287139738" r="4" fill="#66ffbd" />
<circle cx="422.85714285714283" cy="630.1994186635045" r="4" fill="#66ffbd" />
<circle cx="491.42857142857144" cy="640.4378823155125" r="4" fill="#66ffbd" />
<circle cx="560.0" cy="647.9923645355816" r="4" fill="#66ffbd" />
<circle cx="628.5714285714286" cy="657.8721927376321" r="4" fill="#66ffbd" />
<circle cx="697.1428571428571" cy="665.7043282092811" r="4" fill="#66ffbd" />
<circle cx="765.7142857142857" cy="671.2342554699137" r="4" fill="#66ffbd" />
<circle cx="834.2857142857142" cy="676.4865294789663" r="4" fill="#66ffbd" />
<circle cx="902.8571428571429" cy="679.4828708189325" r="4" fill="#66ffbd" />
<circle cx="971.4285714285714" cy="687.8124683663287" r="4" fill="#66ffbd" />
<circle cx="1040.0" cy="700.9084467325129" r="4" fill="#66ffbd" />
<circle cx="1108.5714285714284" cy="711.1006348425908" r="4" fill="#66ffbd" />
<circle cx="1177.142857142857" cy="718.0882416740177" r="4" fill="#66ffbd" />
<circle cx="1245.7142857142858" cy="729.2059406226953" r="4" fill="#66ffbd" />
<circle cx="1314.2857142857142" cy="730.4785180257697" r="4" fill="#66ffbd" />
<circle cx="1382.857142857143" cy="732.9542595190236" r="4" fill="#66ffbd" />
<circle cx="1451.4285714285713" cy="737.3620048878541" r="4" fill="#66ffbd" />
<circle cx="1520.0" cy="744.7660915966508" r="4" fill="#66ffbd" />
<path d="M 80.0 920.0 L 148.57142857142856 555.7073650417203 L 217.14285714285714 589.7777327876676 L 285.7142857142857 610.6364333126057 L 354.2857142857143 626.2544287139738 L 422.85714285714283 630.1994186635045 L 491.42857142857144 640.4378823155125 L 560.0 647.9923645355816 L 628.5714285714286 657.8721927376321 L 697.1428571428571 665.7043282092811 L 765.7142857142857 671.2342554699137 L 834.2857142857142 676.4865294789663 L 902.8571428571429 679.4828708189325 L 971.4285714285714 687.8124683663287 L 1040.0 700.9084467325129 L 1108.5714285714284 711.1006348425908 L 1177.142857142857 718.0882416740177 L 1245.7142857142858 729.2059406226953 L 1314.2857142857142 730.4785180257697 L 1382.857142857143 732.9542595190236 L 1451.4285714285713 737.3620048878541 L 1520.0 744.7660915966508" fill="none" stroke="#66ffbd" stroke-width="2" />
<text x="80.0" y="940" text-anchor="middle">08-06</text>
<text x="148.57142857142856" y="940" text-anchor="middle">08-07</text>
<text x="217.14285714285714" y="940" text-anchor="middle">08-08</text>
<text x="285.7142857142857" y="940" text-anchor="middle">08-09</text>
<text x="354.2857142857143" y="940" text-anchor="middle">08-10</text>
<text x="422.85714285714283" y="940" text-anchor="middle">08-11</text>
<text x="491.42857142857144" y="940" text-anchor="middle">08-12</text>
<text x="560.0" y="940" text-anchor="middle">08-13</text>
<text x="628.5714285714286" y="940" text-anchor="middle">08-14</text>
<text x="697.1428571428571" y="940" text-anchor="middle">08-15</text>
<text x="765.7142857142857" y="940" text-anchor="middle">08-16</text>
<text x="834.2857142857142" y="940" text-anchor="middle">08-17</text>
<text x="902.8571428571429" y="940" text-anchor="middle">08-18</text>
<text x="971.4285714285714" y="940" text-anchor="middle">08-19</text>
<text x="1040.0" y="940" text-anchor="middle">08-20</text>
<text x="1108.5714285714284" y="940" text-anchor="middle">08-21</text>
<text x="1177.142857142857" y="940" text-anchor="middle">08-22</text>
<text x="1245.7142857142858" y="940" text-anchor="middle">08-23</text>
<text x="1314.2857142857142" y="940" text-anchor="middle">08-24</text>
<text x="1382.857142857143" y="940" text-anchor="middle">08-25</text>
<text x="1451.4285714285713" y="940" text-anchor="middle">08-26</text>
<text x="1520.0" y="940" text-anchor="middle">08-27</text>
<rect x="90" y="100" width="130" height="185" class="legend-box" />
<text x="100" y="120" class="legend-item">图例:</text>
<rect x="100" y="137" width="15" height="15" fill="#1f77b4" rx="3" />
<text x="120" y="145" class="legend-item">构件聚合数据</text>
<rect x="100" y="162" width="15" height="15" fill="#ff7f0e" rx="3" />
<text x="120" y="170" class="legend-item">构件基本信息</text>
<rect x="100" y="187" width="15" height="15" fill="#2ca02c" rx="3" />
<text x="120" y="195" class="legend-item">构件徽标</text>
<rect x="100" y="212" width="15" height="15" fill="#d62728" rx="3" />
<text x="120" y="220" class="legend-item">构件扩展元数据</text>
<rect x="100" y="237" width="15" height="15" fill="#9467bd" rx="3" />
<text x="120" y="245" class="legend-item">构件版本信息</text>
<rect x="100" y="262" width="15" height="15" fill="#66ffbd" rx="3" />
<text x="120" y="270" class="legend-item">数据量偏差</text>
<text x="1520" y="990" text-anchor="end" font-size="10" fill="#666">生成时间: 2025-08-27 01:14:01</text>
</svg>