<svg xmlns="http://www.w3.org/2000/svg" width="1600" height="1000" viewBox="0 0 1600 1000">
<style>
  text {
    font-family: Arial, sans-serif;
    font-size: 12px;
    fill: #333;
  }
  .axis-label { font-size: 14px; }
  .title { font-size: 18px; font-weight: bold; }
  .legend-item { font-size: 11px; }
  .legend-box { fill: white; fill-opacity: 0.85; stroke: #cccccc; stroke-width: 1; rx: 5; }
</style>
<text x="800.0" y="30" text-anchor="middle" class="title">Daily Data Growth Trend</text>
<text x="800.0" y="980" text-anchor="middle" class="axis-label">Date</text>
<g transform="rotate(-90)">
<text x="-500.0" y="20" text-anchor="middle" class="axis-label">Count</text>
</g>
<rect x="0" y="0" width="1600" height="1000" fill="#f8f8f8" />
<line x1="80" y1="920.0" x2="1520" y2="920.0" stroke="#e0e0e0" stroke-width="1" />
<text x="70" y="925.0" text-anchor="end">0</text>
<line x1="80" y1="752.0" x2="1520" y2="752.0" stroke="#e0e0e0" stroke-width="1" />
<text x="70" y="757.0" text-anchor="end">20.5k</text>
<line x1="80" y1="584.0" x2="1520" y2="584.0" stroke="#e0e0e0" stroke-width="1" />
<text x="70" y="589.0" text-anchor="end">41.0k</text>
<line x1="80" y1="416.0" x2="1520" y2="416.0" stroke="#e0e0e0" stroke-width="1" />
<text x="70" y="421.0" text-anchor="end">61.5k</text>
<line x1="80" y1="248.0" x2="1520" y2="248.0" stroke="#e0e0e0" stroke-width="1" />
<text x="70" y="253.0" text-anchor="end">82.1k</text>
<line x1="80" y1="80.0" x2="1520" y2="80.0" stroke="#e0e0e0" stroke-width="1" />
<text x="70" y="85.0" text-anchor="end">102.6k</text>
<line x1="80" y1="80" x2="80" y2="920" stroke="#333333" stroke-width="2" />
<line x1="80" y1="920" x2="1520" y2="920" stroke="#333333" stroke-width="2" />
<circle cx="80.0" cy="920.0" r="4" fill="#1f77b4" />
<circle cx="110.0" cy="879.9746156523163" r="4" fill="#1f77b4" />
<circle cx="140.0" cy="795.149951892567" r="4" fill="#1f77b4" />
<circle cx="170.0" cy="761.0284755061516" r="4" fill="#1f77b4" />
<circle cx="200.0" cy="740.4917193801307" r="4" fill="#1f77b4" />
<circle cx="230.0" cy="730.1823988208562" r="4" fill="#1f77b4" />
<circle cx="260.0" cy="709.6456426948351" r="4" fill="#1f77b4" />
<circle cx="290.0" cy="687.479375217507" r="4" fill="#1f77b4" />
<circle cx="320.0" cy="667.0490695817724" r="4" fill="#1f77b4" />
<circle cx="350.0" cy="650.3936621015783" r="4" fill="#1f77b4" />
<circle cx="380.0" cy="635.2039959876354" r="4" fill="#1f77b4" />
<circle cx="410.0" cy="625.6562058588713" r="4" fill="#1f77b4" />
<circle cx="440.0" cy="616.2066777211407" r="4" fill="#1f77b4" />
<circle cx="470.0" cy="601.9996315175337" r="4" fill="#1f77b4" />
<circle cx="500.0" cy="581.8231693586358" r="4" fill="#1f77b4" />
<circle cx="530.0" cy="560.0008188499253" r="4" fill="#1f77b4" />
<circle cx="560.0" cy="545.5153636717231" r="4" fill="#1f77b4" />
<circle cx="590.0" cy="525.6910069806956" r="4" fill="#1f77b4" />
<circle cx="620.0" cy="517.5025077278963" r="4" fill="#1f77b4" />
<circle cx="650.0" cy="509.96089991606794" r="4" fill="#1f77b4" />
<circle cx="680.0" cy="493.73948289627225" r="4" fill="#1f77b4" />
<circle cx="710.0" cy="477.7882863518189" r="4" fill="#1f77b4" />
<circle cx="740.0" cy="463.66312514073985" r="4" fill="#1f77b4" />
<circle cx="770.0" cy="444.1663084198244" r="4" fill="#1f77b4" />
<circle cx="800.0" cy="430.7453581444861" r="4" fill="#1f77b4" />
<circle cx="830.0" cy="422.47497389915867" r="4" fill="#1f77b4" />
<circle cx="860.0" cy="413.1482732502201" r="4" fill="#1f77b4" />
<circle cx="890.0" cy="401.16849884337455" r="4" fill="#1f77b4" />
<circle cx="920.0" cy="390.76910479231924" r="4" fill="#1f77b4" />
<circle cx="950.0" cy="381.93371409854865" r="4" fill="#1f77b4" />
<circle cx="980.0" cy="366.9323834674201" r="4" fill="#1f77b4" />
<circle cx="1010.0" cy="354.69057708448486" r="4" fill="#1f77b4" />
<circle cx="1040.0" cy="336.0207987881022" r="4" fill="#1f77b4" />
<circle cx="1070.0" cy="330.5508812872322" r="4" fill="#1f77b4" />
<circle cx="1100.0" cy="324.3439988536102" r="4" fill="#1f77b4" />
<circle cx="1130.0" cy="316.11455710454675" r="4" fill="#1f77b4" />
<circle cx="1160.0" cy="309.4982497082848" r="4" fill="#1f77b4" />
<circle cx="1190.0" cy="299.6638621056726" r="4" fill="#1f77b4" />
<circle cx="1220.0" cy="288.6339536121518" r="4" fill="#1f77b4" />
<circle cx="1250.0" cy="283.6225920694385" r="4" fill="#1f77b4" />
<circle cx="1280.0" cy="278.18542856557974" r="4" fill="#1f77b4" />
<circle cx="1310.0" cy="269.18626788675306" r="4" fill="#1f77b4" />
<circle cx="1340.0" cy="261.636471575672" r="4" fill="#1f77b4" />
<circle cx="1370.0" cy="236.6697373538865" r="4" fill="#1f77b4" />
<circle cx="1400.0" cy="227.02368523408882" r="4" fill="#1f77b4" />
<circle cx="1430.0" cy="216.78806116808948" r="4" fill="#1f77b4" />
<circle cx="1460.0" cy="209.5166738316036" r="4" fill="#1f77b4" />
<circle cx="1490.0" cy="202.09789350856727" r="4" fill="#1f77b4" />
<circle cx="1520.0" cy="197.42226043521885" r="4" fill="#1f77b4" />
<path d="M 80.0 920.0 L 110.0 879.9746156523163 L 140.0 795.149951892567 L 170.0 761.0284755061516 L 200.0 740.4917193801307 L 230.0 730.1823988208562 L 260.0 709.6456426948351 L 290.0 687.479375217507 L 320.0 667.0490695817724 L 350.0 650.3936621015783 L 380.0 635.2039959876354 L 410.0 625.6562058588713 L 440.0 616.2066777211407 L 470.0 601.9996315175337 L 500.0 581.8231693586358 L 530.0 560.0008188499253 L 560.0 545.5153636717231 L 590.0 525.6910069806956 L 620.0 517.5025077278963 L 650.0 509.96089991606794 L 680.0 493.73948289627225 L 710.0 477.7882863518189 L 740.0 463.66312514073985 L 770.0 444.1663084198244 L 800.0 430.7453581444861 L 830.0 422.47497389915867 L 860.0 413.1482732502201 L 890.0 401.16849884337455 L 920.0 390.76910479231924 L 950.0 381.93371409854865 L 980.0 366.9323834674201 L 1010.0 354.69057708448486 L 1040.0 336.0207987881022 L 1070.0 330.5508812872322 L 1100.0 324.3439988536102 L 1130.0 316.11455710454675 L 1160.0 309.4982497082848 L 1190.0 299.6638621056726 L 1220.0 288.6339536121518 L 1250.0 283.6225920694385 L 1280.0 278.18542856557974 L 1310.0 269.18626788675306 L 1340.0 261.636471575672 L 1370.0 236.6697373538865 L 1400.0 227.02368523408882 L 1430.0 216.78806116808948 L 1460.0 209.5166738316036 L 1490.0 202.09789350856727 L 1520.0 197.42226043521885" fill="none" stroke="#1f77b4" stroke-width="2" />
<circle cx="80.0" cy="920.0" r="4" fill="#ff7f0e" />
<circle cx="110.0" cy="627.8671006571271" r="4" fill="#ff7f0e" />
<circle cx="140.0" cy="566.9201007185409" r="4" fill="#ff7f0e" />
<circle cx="170.0" cy="547.3741530021086" r="4" fill="#ff7f0e" />
<circle cx="200.0" cy="537.7444778808165" r="4" fill="#ff7f0e" />
<circle cx="230.0" cy="530.211058568241" r="4" fill="#ff7f0e" />
<circle cx="260.0" cy="516.7819197936499" r="4" fill="#ff7f0e" />
<circle cx="290.0" cy="499.74165284857423" r="4" fill="#ff7f0e" />
<circle cx="320.0" cy="486.1487440889271" r="4" fill="#ff7f0e" />
<circle cx="350.0" cy="474.9468771110975" r="4" fill="#ff7f0e" />
<circle cx="380.0" cy="463.61399414522305" r="4" fill="#ff7f0e" />
<circle cx="410.0" cy="457.69370918544905" r="4" fill="#ff7f0e" />
<circle cx="440.0" cy="450.36500235419356" r="4" fill="#ff7f0e" />
<circle cx="470.0" cy="442.0291101148437" r="4" fill="#ff7f0e" />
<circle cx="500.0" cy="430.8763741325309" r="4" fill="#ff7f0e" />
<circle cx="530.0" cy="415.9487399946775" r="4" fill="#ff7f0e" />
<circle cx="560.0" cy="406.36819586890215" r="4" fill="#ff7f0e" />
<circle cx="590.0" cy="394.40479846056223" r="4" fill="#ff7f0e" />
<circle cx="620.0" cy="387.12522262482344" r="4" fill="#ff7f0e" />
<circle cx="650.0" cy="381.3195766545887" r="4" fill="#ff7f0e" />
<circle cx="680.0" cy="368.1279043583288" r="4" fill="#ff7f0e" />
<circle cx="710.0" cy="357.39278183790873" r="4" fill="#ff7f0e" />
<circle cx="740.0" cy="344.684230997564" r="4" fill="#ff7f0e" />
<circle cx="770.0" cy="328.0124465188643" r="4" fill="#ff7f0e" />
<circle cx="800.0" cy="317.59667546930336" r="4" fill="#ff7f0e" />
<circle cx="830.0" cy="305.16653360355383" r="4" fill="#ff7f0e" />
<circle cx="860.0" cy="302.07946938524844" r="4" fill="#ff7f0e" />
<circle cx="890.0" cy="291.565436344654" r="4" fill="#ff7f0e" />
<circle cx="920.0" cy="284.5315154864993" r="4" fill="#ff7f0e" />
<circle cx="950.0" cy="277.8005691006981" r="4" fill="#ff7f0e" />
<circle cx="980.0" cy="265.2885422424206" r="4" fill="#ff7f0e" />
<circle cx="1010.0" cy="254.05392126757977" r="4" fill="#ff7f0e" />
<circle cx="1040.0" cy="241.67291039734698" r="4" fill="#ff7f0e" />
<circle cx="1070.0" cy="237.15285880980173" r="4" fill="#ff7f0e" />
<circle cx="1100.0" cy="232.51816823271724" r="4" fill="#ff7f0e" />
<circle cx="1130.0" cy="226.27034330283118" r="4" fill="#ff7f0e" />
<circle cx="1160.0" cy="220.84955679747804" r="4" fill="#ff7f0e" />
<circle cx="1190.0" cy="212.43996806485302" r="4" fill="#ff7f0e" />
<circle cx="1220.0" cy="203.5718233740712" r="4" fill="#ff7f0e" />
<circle cx="1250.0" cy="197.59421891952763" r="4" fill="#ff7f0e" />
<circle cx="1280.0" cy="194.0158447460542" r="4" fill="#ff7f0e" />
<circle cx="1310.0" cy="186.56431042600673" r="4" fill="#ff7f0e" />
<circle cx="1340.0" cy="181.5283833855351" r="4" fill="#ff7f0e" />
<circle cx="1370.0" cy="157.29861409650152" r="4" fill="#ff7f0e" />
<circle cx="1400.0" cy="147.91459395279333" r="4" fill="#ff7f0e" />
<circle cx="1430.0" cy="139.39036623062918" r="4" fill="#ff7f0e" />
<circle cx="1460.0" cy="130.76787651743132" r="4" fill="#ff7f0e" />
<circle cx="1490.0" cy="125.77289197322364" r="4" fill="#ff7f0e" />
<circle cx="1520.0" cy="122.0880673094639" r="4" fill="#ff7f0e" />
<path d="M 80.0 920.0 L 110.0 627.8671006571271 L 140.0 566.9201007185409 L 170.0 547.3741530021086 L 200.0 537.7444778808165 L 230.0 530.211058568241 L 260.0 516.7819197936499 L 290.0 499.74165284857423 L 320.0 486.1487440889271 L 350.0 474.9468771110975 L 380.0 463.61399414522305 L 410.0 457.69370918544905 L 440.0 450.36500235419356 L 470.0 442.0291101148437 L 500.0 430.8763741325309 L 530.0 415.9487399946775 L 560.0 406.36819586890215 L 590.0 394.40479846056223 L 620.0 387.12522262482344 L 650.0 381.3195766545887 L 680.0 368.1279043583288 L 710.0 357.39278183790873 L 740.0 344.684230997564 L 770.0 328.0124465188643 L 800.0 317.59667546930336 L 830.0 305.16653360355383 L 860.0 302.07946938524844 L 890.0 291.565436344654 L 920.0 284.5315154864993 L 950.0 277.8005691006981 L 980.0 265.2885422424206 L 1010.0 254.05392126757977 L 1040.0 241.67291039734698 L 1070.0 237.15285880980173 L 1100.0 232.51816823271724 L 1130.0 226.27034330283118 L 1160.0 220.84955679747804 L 1190.0 212.43996806485302 L 1220.0 203.5718233740712 L 1250.0 197.59421891952763 L 1280.0 194.0158447460542 L 1310.0 186.56431042600673 L 1340.0 181.5283833855351 L 1370.0 157.29861409650152 L 1400.0 147.91459395279333 L 1430.0 139.39036623062918 L 1460.0 130.76787651743132 L 1490.0 125.77289197322364 L 1520.0 122.0880673094639" fill="none" stroke="#ff7f0e" stroke-width="2" />
<circle cx="80.0" cy="920.0" r="4" fill="#2ca02c" />
<circle cx="110.0" cy="622.1269626809146" r="4" fill="#2ca02c" />
<circle cx="140.0" cy="561.4174292206596" r="4" fill="#2ca02c" />
<circle cx="170.0" cy="542.0598169870418" r="4" fill="#2ca02c" />
<circle cx="200.0" cy="532.5775348523" r="4" fill="#2ca02c" />
<circle cx="230.0" cy="525.0604925382302" r="4" fill="#2ca02c" />
<circle cx="260.0" cy="511.7705582509366" r="4" fill="#2ca02c" />
<circle cx="290.0" cy="494.9513807856865" r="4" fill="#2ca02c" />
<circle cx="320.0" cy="481.51405351184263" r="4" fill="#2ca02c" />
<circle cx="350.0" cy="470.4022600257938" r="4" fill="#2ca02c" />
<circle cx="380.0" cy="459.126696554689" r="4" fill="#2ca02c" />
<circle cx="410.0" cy="453.2964850866958" r="4" fill="#2ca02c" />
<circle cx="440.0" cy="445.9677782554403" r="4" fill="#2ca02c" />
<circle cx="470.0" cy="437.6564515138488" r="4" fill="#2ca02c" />
<circle cx="500.0" cy="426.74937050911996" r="4" fill="#2ca02c" />
<circle cx="530.0" cy="412.1410878421258" r="4" fill="#2ca02c" />
<circle cx="560.0" cy="402.6014862126144" r="4" fill="#2ca02c" />
<circle cx="590.0" cy="390.6462773035272" r="4" fill="#2ca02c" />
<circle cx="620.0" cy="383.3585129685357" r="4" fill="#2ca02c" />
<circle cx="650.0" cy="377.56924399680656" r="4" fill="#2ca02c" />
<circle cx="680.0" cy="364.4676451923274" r="4" fill="#2ca02c" />
<circle cx="710.0" cy="353.75708816966574" r="4" fill="#2ca02c" />
<circle cx="740.0" cy="341.0649143278266" r="4" fill="#2ca02c" />
<circle cx="770.0" cy="324.41769534688535" r="4" fill="#2ca02c" />
<circle cx="800.0" cy="314.03467829433566" r="4" fill="#2ca02c" />
<circle cx="830.0" cy="301.61272492783894" r="4" fill="#2ca02c" />
<circle cx="860.0" cy="298.53384920878636" r="4" fill="#2ca02c" />
<circle cx="890.0" cy="288.02800466744463" r="4" fill="#2ca02c" />
<circle cx="920.0" cy="281.01864930704835" r="4" fill="#2ca02c" />
<circle cx="950.0" cy="274.3286454175112" r="4" fill="#2ca02c" />
<circle cx="980.0" cy="262.1032160330816" r="4" fill="#2ca02c" />
<circle cx="1010.0" cy="250.901349055252" r="4" fill="#2ca02c" />
<circle cx="1040.0" cy="238.8642551536368" r="4" fill="#2ca02c" />
<circle cx="1070.0" cy="234.34420356609144" r="4" fill="#2ca02c" />
<circle cx="1100.0" cy="229.76683248377662" r="4" fill="#2ca02c" />
<circle cx="1130.0" cy="223.52719605314337" r="4" fill="#2ca02c" />
<circle cx="1160.0" cy="218.13097504554855" r="4" fill="#2ca02c" />
<circle cx="1190.0" cy="209.72138631292353" r="4" fill="#2ca02c" />
<circle cx="1220.0" cy="200.89418411840575" r="4" fill="#2ca02c" />
<circle cx="1250.0" cy="194.924768163115" r="4" fill="#2ca02c" />
<circle cx="1280.0" cy="191.34639398964157" r="4" fill="#2ca02c" />
<circle cx="1310.0" cy="183.9030481688469" r="4" fill="#2ca02c" />
<circle cx="1340.0" cy="178.94900612090328" r="4" fill="#2ca02c" />
<circle cx="1370.0" cy="154.93213781244253" r="4" fill="#2ca02c" />
<circle cx="1400.0" cy="145.56449466723996" r="4" fill="#2ca02c" />
<circle cx="1430.0" cy="137.29411042191248" r="4" fill="#2ca02c" />
<circle cx="1460.0" cy="128.67980920796742" r="4" fill="#2ca02c" />
<circle cx="1490.0" cy="123.68482466375985" r="4" fill="#2ca02c" />
<circle cx="1520.0" cy="120.00000000000011" r="4" fill="#2ca02c" />
<path d="M 80.0 920.0 L 110.0 622.1269626809146 L 140.0 561.4174292206596 L 170.0 542.0598169870418 L 200.0 532.5775348523 L 230.0 525.0604925382302 L 260.0 511.7705582509366 L 290.0 494.9513807856865 L 320.0 481.51405351184263 L 350.0 470.4022600257938 L 380.0 459.126696554689 L 410.0 453.2964850866958 L 440.0 445.9677782554403 L 470.0 437.6564515138488 L 500.0 426.74937050911996 L 530.0 412.1410878421258 L 560.0 402.6014862126144 L 590.0 390.6462773035272 L 620.0 383.3585129685357 L 650.0 377.56924399680656 L 680.0 364.4676451923274 L 710.0 353.75708816966574 L 740.0 341.0649143278266 L 770.0 324.41769534688535 L 800.0 314.03467829433566 L 830.0 301.61272492783894 L 860.0 298.53384920878636 L 890.0 288.02800466744463 L 920.0 281.01864930704835 L 950.0 274.3286454175112 L 980.0 262.1032160330816 L 1010.0 250.901349055252 L 1040.0 238.8642551536368 L 1070.0 234.34420356609144 L 1100.0 229.76683248377662 L 1130.0 223.52719605314337 L 1160.0 218.13097504554855 L 1190.0 209.72138631292353 L 1220.0 200.89418411840575 L 1250.0 194.924768163115 L 1280.0 191.34639398964157 L 1310.0 183.9030481688469 L 1340.0 178.94900612090328 L 1370.0 154.93213781244253 L 1400.0 145.56449466723996 L 1430.0 137.29411042191248 L 1460.0 128.67980920796742 L 1490.0 123.68482466375985 L 1520.0 120.00000000000011" fill="none" stroke="#2ca02c" stroke-width="2" />
<circle cx="80.0" cy="920.0" r="4" fill="#d62728" />
<circle cx="110.0" cy="862.2055722737415" r="4" fill="#d62728" />
<circle cx="140.0" cy="778.5600524063952" r="4" fill="#d62728" />
<circle cx="170.0" cy="749.6137075477492" r="4" fill="#d62728" />
<circle cx="200.0" cy="729.1178939179922" r="4" fill="#d62728" />
<circle cx="230.0" cy="718.8986468504985" r="4" fill="#d62728" />
<circle cx="260.0" cy="698.7795041863703" r="4" fill="#d62728" />
<circle cx="290.0" cy="677.644987614895" r="4" fill="#d62728" />
<circle cx="320.0" cy="658.1891133902434" r="4" fill="#d62728" />
<circle cx="350.0" cy="641.8858113779197" r="4" fill="#d62728" />
<circle cx="380.0" cy="626.7452762594935" r="4" fill="#d62728" />
<circle cx="410.0" cy="617.213863129235" r="4" fill="#d62728" />
<circle cx="440.0" cy="607.7725234907573" r="4" fill="#d62728" />
<circle cx="470.0" cy="594.269688222891" r="4" fill="#d62728" />
<circle cx="500.0" cy="574.3306925423244" r="4" fill="#d62728" />
<circle cx="530.0" cy="552.8768244999899" r="4" fill="#d62728" />
<circle cx="560.0" cy="539.0792032590227" r="4" fill="#d62728" />
<circle cx="590.0" cy="519.5005015455793" r="4" fill="#d62728" />
<circle cx="620.0" cy="511.3120022927798" r="4" fill="#d62728" />
<circle cx="650.0" cy="503.85227947347954" r="4" fill="#d62728" />
<circle cx="680.0" cy="487.827386435751" r="4" fill="#d62728" />
<circle cx="710.0" cy="472.842432803128" r="4" fill="#d62728" />
<circle cx="740.0" cy="458.7745910868186" r="4" fill="#d62728" />
<circle cx="770.0" cy="439.2941513644087" r="4" fill="#d62728" />
<circle cx="800.0" cy="426.31538004872164" r="4" fill="#d62728" />
<circle cx="830.0" cy="418.04499580339416" r="4" fill="#d62728" />
<circle cx="860.0" cy="408.7101066552028" r="4" fill="#d62728" />
<circle cx="890.0" cy="396.7303322483572" r="4" fill="#d62728" />
<circle cx="920.0" cy="387.02696063378994" r="4" fill="#d62728" />
<circle cx="950.0" cy="378.20794693852486" r="4" fill="#d62728" />
<circle cx="980.0" cy="363.23937030440754" r="4" fill="#d62728" />
<circle cx="1010.0" cy="351.0057524207251" r="4" fill="#d62728" />
<circle cx="1040.0" cy="332.43423611537605" r="4" fill="#d62728" />
<circle cx="1070.0" cy="326.9888841122644" r="4" fill="#d62728" />
<circle cx="1100.0" cy="320.78200167864236" r="4" fill="#d62728" />
<circle cx="1130.0" cy="312.6098794243486" r="4" fill="#d62728" />
<circle cx="1160.0" cy="305.98538352883384" r="4" fill="#d62728" />
<circle cx="1190.0" cy="296.2001269217385" r="4" fill="#d62728" />
<circle cx="1220.0" cy="285.78435587217757" r="4" fill="#d62728" />
<circle cx="1250.0" cy="280.7975598272227" r="4" fill="#d62728" />
<circle cx="1280.0" cy="275.36039632336394" r="4" fill="#d62728" />
<circle cx="1310.0" cy="266.3858011422957" r="4" fill="#d62728" />
<circle cx="1340.0" cy="258.9097013244898" r="4" fill="#d62728" />
<circle cx="1370.0" cy="234.01666359597948" r="4" fill="#d62728" />
<circle cx="1400.0" cy="224.39517697394012" r="4" fill="#d62728" />
<circle cx="1430.0" cy="214.1595529079409" r="4" fill="#d62728" />
<circle cx="1460.0" cy="206.8799770722021" r="4" fill="#d62728" />
<circle cx="1490.0" cy="199.46119674916588" r="4" fill="#d62728" />
<circle cx="1520.0" cy="194.79375217507015" r="4" fill="#d62728" />
<path d="M 80.0 920.0 L 110.0 862.2055722737415 L 140.0 778.5600524063952 L 170.0 749.6137075477492 L 200.0 729.1178939179922 L 230.0 718.8986468504985 L 260.0 698.7795041863703 L 290.0 677.644987614895 L 320.0 658.1891133902434 L 350.0 641.8858113779197 L 380.0 626.7452762594935 L 410.0 617.213863129235 L 440.0 607.7725234907573 L 470.0 594.269688222891 L 500.0 574.3306925423244 L 530.0 552.8768244999899 L 560.0 539.0792032590227 L 590.0 519.5005015455793 L 620.0 511.3120022927798 L 650.0 503.85227947347954 L 680.0 487.827386435751 L 710.0 472.842432803128 L 740.0 458.7745910868186 L 770.0 439.2941513644087 L 800.0 426.31538004872164 L 830.0 418.04499580339416 L 860.0 408.7101066552028 L 890.0 396.7303322483572 L 920.0 387.02696063378994 L 950.0 378.20794693852486 L 980.0 363.23937030440754 L 1010.0 351.0057524207251 L 1040.0 332.43423611537605 L 1070.0 326.9888841122644 L 1100.0 320.78200167864236 L 1130.0 312.6098794243486 L 1160.0 305.98538352883384 L 1190.0 296.2001269217385 L 1220.0 285.78435587217757 L 1250.0 280.7975598272227 L 1280.0 275.36039632336394 L 1310.0 266.3858011422957 L 1340.0 258.9097013244898 L 1370.0 234.01666359597948 L 1400.0 224.39517697394012 L 1430.0 214.1595529079409 L 1460.0 206.8799770722021 L 1490.0 199.46119674916588 L 1520.0 194.79375217507015" fill="none" stroke="#d62728" stroke-width="2" />
<circle cx="80.0" cy="920.0" r="4" fill="#9467bd" />
<circle cx="110.0" cy="868.3060042170771" r="4" fill="#9467bd" />
<circle cx="140.0" cy="784.3411328788716" r="4" fill="#9467bd" />
<circle cx="170.0" cy="750.3015414849843" r="4" fill="#9467bd" />
<circle cx="200.0" cy="729.740219861205" r="4" fill="#9467bd" />
<circle cx="230.0" cy="720.5691006980696" r="4" fill="#9467bd" />
<circle cx="260.0" cy="700.2779995496326" r="4" fill="#9467bd" />
<circle cx="290.0" cy="678.1690515670741" r="4" fill="#9467bd" />
<circle cx="320.0" cy="658.164547892485" r="4" fill="#9467bd" />
<circle cx="350.0" cy="641.6810988965997" r="4" fill="#9467bd" />
<circle cx="380.0" cy="626.7125222624824" r="4" fill="#9467bd" />
<circle cx="410.0" cy="617.172920632971" r="4" fill="#9467bd" />
<circle cx="440.0" cy="607.6660730004709" r="4" fill="#9467bd" />
<circle cx="470.0" cy="593.5409117893919" r="4" fill="#9467bd" />
<circle cx="500.0" cy="573.7493090953756" r="4" fill="#9467bd" />
<circle cx="530.0" cy="551.8778275911483" r="4" fill="#9467bd" />
<circle cx="560.0" cy="537.7035353845524" r="4" fill="#9467bd" />
<circle cx="590.0" cy="520.6878339372352" r="4" fill="#9467bd" />
<circle cx="620.0" cy="512.491146185183" r="4" fill="#9467bd" />
<circle cx="650.0" cy="504.94953837335464" r="4" fill="#9467bd" />
<circle cx="680.0" cy="488.68717885729495" r="4" fill="#9467bd" />
<circle cx="710.0" cy="473.2354807672624" r="4" fill="#9467bd" />
<circle cx="740.0" cy="459.1840160494586" r="4" fill="#9467bd" />
<circle cx="770.0" cy="439.6298798337735" r="4" fill="#9467bd" />
<circle cx="800.0" cy="426.462773035272" r="4" fill="#9467bd" />
<circle cx="830.0" cy="418.21695428770295" r="4" fill="#9467bd" />
<circle cx="860.0" cy="408.8820651395116" r="4" fill="#9467bd" />
<circle cx="890.0" cy="396.88591373416045" r="4" fill="#9467bd" />
<circle cx="920.0" cy="386.86319064873385" r="4" fill="#9467bd" />
<circle cx="950.0" cy="378.0441769534689" r="4" fill="#9467bd" />
<circle cx="980.0" cy="363.2803128006715" r="4" fill="#9467bd" />
<circle cx="1010.0" cy="351.32510389158426" r="4" fill="#9467bd" />
<circle cx="1040.0" cy="332.6471370959488" r="4" fill="#9467bd" />
<circle cx="1070.0" cy="327.15265409732035" r="4" fill="#9467bd" />
<circle cx="1100.0" cy="321.1996151405351" r="4" fill="#9467bd" />
<circle cx="1130.0" cy="313.00292738848293" r="4" fill="#9467bd" />
<circle cx="1160.0" cy="306.35386599520973" r="4" fill="#9467bd" />
<circle cx="1190.0" cy="296.4949128948392" r="4" fill="#9467bd" />
<circle cx="1220.0" cy="285.4650044013184" r="4" fill="#9467bd" />
<circle cx="1250.0" cy="280.4536428586051" r="4" fill="#9467bd" />
<circle cx="1280.0" cy="275.01647935474637" r="4" fill="#9467bd" />
<circle cx="1310.0" cy="266.0336956744253" r="4" fill="#9467bd" />
<circle cx="1340.0" cy="258.4675223648386" r="4" fill="#9467bd" />
<circle cx="1370.0" cy="233.56629613707548" r="4" fill="#9467bd" />
<circle cx="1400.0" cy="223.89567851951938" r="4" fill="#9467bd" />
<circle cx="1430.0" cy="213.66824295277286" r="4" fill="#9467bd" />
<circle cx="1460.0" cy="206.38866711703417" r="4" fill="#9467bd" />
<circle cx="1490.0" cy="198.90437879997546" r="4" fill="#9467bd" />
<circle cx="1520.0" cy="194.25331122438536" r="4" fill="#9467bd" />
<path d="M 80.0 920.0 L 110.0 868.3060042170771 L 140.0 784.3411328788716 L 170.0 750.3015414849843 L 200.0 729.740219861205 L 230.0 720.5691006980696 L 260.0 700.2779995496326 L 290.0 678.1690515670741 L 320.0 658.164547892485 L 350.0 641.6810988965997 L 380.0 626.7125222624824 L 410.0 617.172920632971 L 440.0 607.6660730004709 L 470.0 593.5409117893919 L 500.0 573.7493090953756 L 530.0 551.8778275911483 L 560.0 537.7035353845524 L 590.0 520.6878339372352 L 620.0 512.491146185183 L 650.0 504.94953837335464 L 680.0 488.68717885729495 L 710.0 473.2354807672624 L 740.0 459.1840160494586 L 770.0 439.6298798337735 L 800.0 426.462773035272 L 830.0 418.21695428770295 L 860.0 408.8820651395116 L 890.0 396.88591373416045 L 920.0 386.86319064873385 L 950.0 378.0441769534689 L 980.0 363.2803128006715 L 1010.0 351.32510389158426 L 1040.0 332.6471370959488 L 1070.0 327.15265409732035 L 1100.0 321.1996151405351 L 1130.0 313.00292738848293 L 1160.0 306.35386599520973 L 1190.0 296.4949128948392 L 1220.0 285.4650044013184 L 1250.0 280.4536428586051 L 1280.0 275.01647935474637 L 1310.0 266.0336956744253 L 1340.0 258.4675223648386 L 1370.0 233.56629613707548 L 1400.0 223.89567851951938 L 1430.0 213.66824295277286 L 1460.0 206.38866711703417 L 1490.0 198.90437879997546 L 1520.0 194.25331122438536" fill="none" stroke="#9467bd" stroke-width="2" />
<circle cx="80.0" cy="920.0" r="4" fill="#66ffbd" />
<circle cx="110.0" cy="662.1523470285983" r="4" fill="#66ffbd" />
<circle cx="140.0" cy="686.2674773280927" r="4" fill="#66ffbd" />
<circle cx="170.0" cy="701.0313414808901" r="4" fill="#66ffbd" />
<circle cx="200.0" cy="712.0858154721693" r="4" fill="#66ffbd" />
<circle cx="230.0" cy="714.878093717374" r="4" fill="#66ffbd" />
<circle cx="260.0" cy="722.1249155561015" r="4" fill="#66ffbd" />
<circle cx="290.0" cy="727.4720055681795" r="4" fill="#66ffbd" />
<circle cx="320.0" cy="734.4649839300703" r="4" fill="#66ffbd" />
<circle cx="350.0" cy="740.0085979242155" r="4" fill="#66ffbd" />
<circle cx="380.0" cy="743.9227005670537" r="4" fill="#66ffbd" />
<circle cx="410.0" cy="747.6402792278245" r="4" fill="#66ffbd" />
<circle cx="440.0" cy="749.7611005342997" r="4" fill="#66ffbd" />
<circle cx="470.0" cy="755.6568199963152" r="4" fill="#66ffbd" />
<circle cx="500.0" cy="764.9262011504842" r="4" fill="#66ffbd" />
<circle cx="530.0" cy="772.1402689922005" r="4" fill="#66ffbd" />
<circle cx="560.0" cy="777.0861225408913" r="4" fill="#66ffbd" />
<circle cx="590.0" cy="784.9552703228316" r="4" fill="#66ffbd" />
<circle cx="620.0" cy="785.8560052406395" r="4" fill="#66ffbd" />
<circle cx="650.0" cy="787.6083440807386" r="4" fill="#66ffbd" />
<circle cx="680.0" cy="790.7281622960552" r="4" fill="#66ffbd" />
<circle cx="710.0" cy="795.9688018178468" r="4" fill="#66ffbd" />
<circle cx="740.0" cy="797.4017891870867" r="4" fill="#66ffbd" />
<circle cx="770.0" cy="800.2513869270609" r="4" fill="#66ffbd" />
<circle cx="800.0" cy="803.2893201498496" r="4" fill="#66ffbd" />
<circle cx="830.0" cy="799.1377510286802" r="4" fill="#66ffbd" />
<circle cx="860.0" cy="805.3855759585662" r="4" fill="#66ffbd" />
<circle cx="890.0" cy="806.8595058240701" r="4" fill="#66ffbd" />
<circle cx="920.0" cy="810.2495445147291" r="4" fill="#66ffbd" />
<circle cx="950.0" cy="812.3949313189626" r="4" fill="#66ffbd" />
<circle cx="980.0" cy="815.1708325656615" r="4" fill="#66ffbd" />
<circle cx="1010.0" cy="816.210771970767" r="4" fill="#66ffbd" />
<circle cx="1040.0" cy="822.8434563655346" r="4" fill="#66ffbd" />
<circle cx="1070.0" cy="823.7933222788594" r="4" fill="#66ffbd" />
<circle cx="1100.0" cy="825.4228336301665" r="4" fill="#66ffbd" />
<circle cx="1130.0" cy="827.4126389485967" r="4" fill="#66ffbd" />
<circle cx="1160.0" cy="828.6327253372638" r="4" fill="#66ffbd" />
<circle cx="1190.0" cy="830.0575242072509" r="4" fill="#66ffbd" />
<circle cx="1220.0" cy="832.260230506254" r="4" fill="#66ffbd" />
<circle cx="1250.0" cy="831.3021760936764" r="4" fill="#66ffbd" />
<circle cx="1280.0" cy="833.1609654240619" r="4" fill="#66ffbd" />
<circle cx="1310.0" cy="834.7167802820939" r="4" fill="#66ffbd" />
<circle cx="1340.0" cy="837.3125345452312" r="4" fill="#66ffbd" />
<circle cx="1370.0" cy="838.2624004585559" r="4" fill="#66ffbd" />
<circle cx="1400.0" cy="838.5408094331511" r="4" fill="#66ffbd" />
<circle cx="1430.0" cy="840.506049253823" r="4" fill="#66ffbd" />
<circle cx="1460.0" cy="839.1631353763639" r="4" fill="#66ffbd" />
<circle cx="1490.0" cy="841.5869311551926" r="4" fill="#66ffbd" />
<circle cx="1520.0" cy="842.5777395647813" r="4" fill="#66ffbd" />
<path d="M 80.0 920.0 L 110.0 662.1523470285983 L 140.0 686.2674773280927 L 170.0 701.0313414808901 L 200.0 712.0858154721693 L 230.0 714.878093717374 L 260.0 722.1249155561015 L 290.0 727.4720055681795 L 320.0 734.4649839300703 L 350.0 740.0085979242155 L 380.0 743.9227005670537 L 410.0 747.6402792278245 L 440.0 749.7611005342997 L 470.0 755.6568199963152 L 500.0 764.9262011504842 L 530.0 772.1402689922005 L 560.0 777.0861225408913 L 590.0 784.9552703228316 L 620.0 785.8560052406395 L 650.0 787.6083440807386 L 680.0 790.7281622960552 L 710.0 795.9688018178468 L 740.0 797.4017891870867 L 770.0 800.2513869270609 L 800.0 803.2893201498496 L 830.0 799.1377510286802 L 860.0 805.3855759585662 L 890.0 806.8595058240701 L 920.0 810.2495445147291 L 950.0 812.3949313189626 L 980.0 815.1708325656615 L 1010.0 816.210771970767 L 1040.0 822.8434563655346 L 1070.0 823.7933222788594 L 1100.0 825.4228336301665 L 1130.0 827.4126389485967 L 1160.0 828.6327253372638 L 1190.0 830.0575242072509 L 1220.0 832.260230506254 L 1250.0 831.3021760936764 L 1280.0 833.1609654240619 L 1310.0 834.7167802820939 L 1340.0 837.3125345452312 L 1370.0 838.2624004585559 L 1400.0 838.5408094331511 L 1430.0 840.506049253823 L 1460.0 839.1631353763639 L 1490.0 841.5869311551926 L 1520.0 842.5777395647813" fill="none" stroke="#66ffbd" stroke-width="2" />
<text x="80.0" y="940" text-anchor="middle">08-06</text>
<text x="110.0" y="940" text-anchor="middle">08-07</text>
<text x="140.0" y="940" text-anchor="middle">08-08</text>
<text x="170.0" y="940" text-anchor="middle">08-09</text>
<text x="200.0" y="940" text-anchor="middle">08-10</text>
<text x="230.0" y="940" text-anchor="middle">08-11</text>
<text x="260.0" y="940" text-anchor="middle">08-12</text>
<text x="290.0" y="940" text-anchor="middle">08-13</text>
<text x="320.0" y="940" text-anchor="middle">08-14</text>
<text x="350.0" y="940" text-anchor="middle">08-15</text>
<text x="380.0" y="940" text-anchor="middle">08-16</text>
<text x="410.0" y="940" text-anchor="middle">08-17</text>
<text x="440.0" y="940" text-anchor="middle">08-18</text>
<text x="470.0" y="940" text-anchor="middle">08-19</text>
<text x="500.0" y="940" text-anchor="middle">08-20</text>
<text x="530.0" y="940" text-anchor="middle">08-21</text>
<text x="560.0" y="940" text-anchor="middle">08-22</text>
<text x="590.0" y="940" text-anchor="middle">08-23</text>
<text x="620.0" y="940" text-anchor="middle">08-24</text>
<text x="650.0" y="940" text-anchor="middle">08-25</text>
<text x="680.0" y="940" text-anchor="middle">08-26</text>
<text x="710.0" y="940" text-anchor="middle">08-27</text>
<text x="740.0" y="940" text-anchor="middle">08-28</text>
<text x="770.0" y="940" text-anchor="middle">08-29</text>
<text x="800.0" y="940" text-anchor="middle">08-30</text>
<text x="830.0" y="940" text-anchor="middle">08-31</text>
<text x="860.0" y="940" text-anchor="middle">09-01</text>
<text x="890.0" y="940" text-anchor="middle">09-02</text>
<text x="920.0" y="940" text-anchor="middle">09-03</text>
<text x="950.0" y="940" text-anchor="middle">09-04</text>
<text x="980.0" y="940" text-anchor="middle">09-05</text>
<text x="1010.0" y="940" text-anchor="middle">09-06</text>
<text x="1040.0" y="940" text-anchor="middle">09-07</text>
<text x="1070.0" y="940" text-anchor="middle">09-08</text>
<text x="1100.0" y="940" text-anchor="middle">09-09</text>
<text x="1130.0" y="940" text-anchor="middle">09-10</text>
<text x="1160.0" y="940" text-anchor="middle">09-11</text>
<text x="1190.0" y="940" text-anchor="middle">09-12</text>
<text x="1220.0" y="940" text-anchor="middle">09-13</text>
<text x="1250.0" y="940" text-anchor="middle">09-14</text>
<text x="1280.0" y="940" text-anchor="middle">09-15</text>
<text x="1310.0" y="940" text-anchor="middle">09-16</text>
<text x="1340.0" y="940" text-anchor="middle">09-17</text>
<text x="1370.0" y="940" text-anchor="middle">09-18</text>
<text x="1400.0" y="940" text-anchor="middle">09-19</text>
<text x="1430.0" y="940" text-anchor="middle">09-20</text>
<text x="1460.0" y="940" text-anchor="middle">09-21</text>
<text x="1490.0" y="940" text-anchor="middle">09-22</text>
<text x="1520.0" y="940" text-anchor="middle">09-23</text>
<rect x="90" y="100" width="130" height="185" class="legend-box" />
<text x="100" y="120" class="legend-item">图例:</text>
<rect x="100" y="137" width="15" height="15" fill="#1f77b4" rx="3" />
<text x="120" y="145" class="legend-item">构件聚合数据</text>
<rect x="100" y="162" width="15" height="15" fill="#ff7f0e" rx="3" />
<text x="120" y="170" class="legend-item">构件基本信息</text>
<rect x="100" y="187" width="15" height="15" fill="#2ca02c" rx="3" />
<text x="120" y="195" class="legend-item">构件徽标</text>
<rect x="100" y="212" width="15" height="15" fill="#d62728" rx="3" />
<text x="120" y="220" class="legend-item">构件扩展元数据</text>
<rect x="100" y="237" width="15" height="15" fill="#9467bd" rx="3" />
<text x="120" y="245" class="legend-item">构件版本信息</text>
<rect x="100" y="262" width="15" height="15" fill="#66ffbd" rx="3" />
<text x="120" y="270" class="legend-item">数据量偏差</text>
<text x="1520" y="990" text-anchor="end" font-size="10" fill="#666">生成时间: 2025-09-23 01:44:51</text>
</svg>