<svg xmlns="http://www.w3.org/2000/svg" width="1600" height="1000" viewBox="0 0 1600 1000">
<style>
  text {
    font-family: Arial, sans-serif;
    font-size: 12px;
    fill: #333;
  }
  .axis-label { font-size: 14px; }
  .title { font-size: 18px; font-weight: bold; }
  .legend-item { font-size: 11px; }
  .legend-box { fill: white; fill-opacity: 0.85; stroke: #cccccc; stroke-width: 1; rx: 5; }
</style>
<text x="800.0" y="30" text-anchor="middle" class="title">Daily Data Growth Trend</text>
<text x="800.0" y="980" text-anchor="middle" class="axis-label">Date</text>
<g transform="rotate(-90)">
<text x="-500.0" y="20" text-anchor="middle" class="axis-label">Count</text>
</g>
<rect x="0" y="0" width="1600" height="1000" fill="#f8f8f8" />
<line x1="80" y1="920.0" x2="1520" y2="920.0" stroke="#e0e0e0" stroke-width="1" />
<text x="70" y="925.0" text-anchor="end">0</text>
<line x1="80" y1="752.0" x2="1520" y2="752.0" stroke="#e0e0e0" stroke-width="1" />
<text x="70" y="757.0" text-anchor="end">21.8k</text>
<line x1="80" y1="584.0" x2="1520" y2="584.0" stroke="#e0e0e0" stroke-width="1" />
<text x="70" y="589.0" text-anchor="end">43.6k</text>
<line x1="80" y1="416.0" x2="1520" y2="416.0" stroke="#e0e0e0" stroke-width="1" />
<text x="70" y="421.0" text-anchor="end">65.4k</text>
<line x1="80" y1="248.0" x2="1520" y2="248.0" stroke="#e0e0e0" stroke-width="1" />
<text x="70" y="253.0" text-anchor="end">87.2k</text>
<line x1="80" y1="80.0" x2="1520" y2="80.0" stroke="#e0e0e0" stroke-width="1" />
<text x="70" y="85.0" text-anchor="end">108.9k</text>
<line x1="80" y1="80" x2="80" y2="920" stroke="#333333" stroke-width="2" />
<line x1="80" y1="920" x2="1520" y2="920" stroke="#333333" stroke-width="2" />
<circle cx="80.0" cy="920.0" r="4" fill="#1f77b4" />
<circle cx="106.18181818181819" cy="882.3108506659984" r="4" fill="#1f77b4" />
<circle cx="132.36363636363637" cy="802.437303622029" r="4" fill="#1f77b4" />
<circle cx="158.54545454545456" cy="770.3074580257147" r="4" fill="#1f77b4" />
<circle cx="184.72727272727275" cy="750.9694084083505" r="4" fill="#1f77b4" />
<circle cx="210.9090909090909" cy="741.2618308691713" r="4" fill="#1f77b4" />
<circle cx="237.0909090909091" cy="721.9237812518072" r="4" fill="#1f77b4" />
<circle cx="263.27272727272725" cy="701.051332960657" r="4" fill="#1f77b4" />
<circle cx="289.4545454545455" cy="681.8135204425854" r="4" fill="#1f77b4" />
<circle cx="315.6363636363636" cy="666.1302696763498" r="4" fill="#1f77b4" />
<circle cx="341.8181818181818" cy="651.8272066619119" r="4" fill="#1f77b4" />
<circle cx="368.0" cy="642.8367099099794" r="4" fill="#1f77b4" />
<circle cx="394.1818181818182" cy="633.93873971124" r="4" fill="#1f77b4" />
<circle cx="420.3636363636364" cy="620.5609422287334" r="4" fill="#1f77b4" />
<circle cx="446.54545454545456" cy="601.562156639744" r="4" fill="#1f77b4" />
<circle cx="472.72727272727275" cy="581.0135512847698" r="4" fill="#1f77b4" />
<circle cx="498.90909090909093" cy="567.3735952348825" r="4" fill="#1f77b4" />
<circle cx="525.0909090909091" cy="548.7063631281686" r="4" fill="#1f77b4" />
<circle cx="551.2727272727273" cy="540.9958170287412" r="4" fill="#1f77b4" />
<circle cx="577.4545454545455" cy="533.8944040711683" r="4" fill="#1f77b4" />
<circle cx="603.6363636363636" cy="518.6198122482026" r="4" fill="#1f77b4" />
<circle cx="629.8181818181819" cy="503.5996684465178" r="4" fill="#1f77b4" />
<circle cx="656.0" cy="490.2989764250053" r="4" fill="#1f77b4" />
<circle cx="682.1818181818182" cy="471.9401661622685" r="4" fill="#1f77b4" />
<circle cx="708.3636363636364" cy="459.30258110530684" r="4" fill="#1f77b4" />
<circle cx="734.5454545454546" cy="451.5149295448851" r="4" fill="#1f77b4" />
<circle cx="760.7272727272727" cy="442.73261753763717" r="4" fill="#1f77b4" />
<circle cx="786.909090909091" cy="431.4520885941747" r="4" fill="#1f77b4" />
<circle cx="813.0909090909091" cy="421.65969504790183" r="4" fill="#1f77b4" />
<circle cx="839.2727272727274" cy="413.34001580661953" r="4" fill="#1f77b4" />
<circle cx="865.4545454545455" cy="399.2142953524684" r="4" fill="#1f77b4" />
<circle cx="891.6363636363637" cy="387.6870289338243" r="4" fill="#1f77b4" />
<circle cx="917.8181818181819" cy="370.1069838271296" r="4" fill="#1f77b4" />
<circle cx="944.0" cy="364.9563390327121" r="4" fill="#1f77b4" />
<circle cx="970.1818181818182" cy="359.11174508934596" r="4" fill="#1f77b4" />
<circle cx="996.3636363636364" cy="351.36264625942135" r="4" fill="#1f77b4" />
<circle cx="1022.5454545454546" cy="345.132525011084" r="4" fill="#1f77b4" />
<circle cx="1048.7272727272727" cy="335.8721591456715" r="4" fill="#1f77b4" />
<circle cx="1074.909090909091" cy="325.4860535497427" r="4" fill="#1f77b4" />
<circle cx="1101.090909090909" cy="320.7671993368931" r="4" fill="#1f77b4" />
<circle cx="1127.2727272727273" cy="315.64739672687324" r="4" fill="#1f77b4" />
<circle cx="1153.4545454545455" cy="307.1735065636025" r="4" fill="#1f77b4" />
<circle cx="1179.6363636363637" cy="300.06438305993026" r="4" fill="#1f77b4" />
<circle cx="1205.818181818182" cy="276.5549280027759" r="4" fill="#1f77b4" />
<circle cx="1232.0" cy="267.4719046976503" r="4" fill="#1f77b4" />
<circle cx="1258.1818181818182" cy="257.83372207336595" r="4" fill="#1f77b4" />
<circle cx="1284.3636363636365" cy="250.98675713707428" r="4" fill="#1f77b4" />
<circle cx="1310.5454545454547" cy="244.00100237099298" r="4" fill="#1f77b4" />
<circle cx="1336.7272727272727" cy="239.59828054821992" r="4" fill="#1f77b4" />
<circle cx="1362.909090909091" cy="231.1860747537445" r="4" fill="#1f77b4" />
<circle cx="1389.0909090909092" cy="230.70802089558003" r="4" fill="#1f77b4" />
<circle cx="1415.2727272727273" cy="230.67717871118225" r="4" fill="#1f77b4" />
<circle cx="1441.4545454545455" cy="229.7981764558475" r="4" fill="#1f77b4" />
<circle cx="1467.6363636363637" cy="229.58999171116307" r="4" fill="#1f77b4" />
<circle cx="1493.818181818182" cy="229.58999171116307" r="4" fill="#1f77b4" />
<circle cx="1520.0" cy="229.5822811650636" r="4" fill="#1f77b4" />
<path d="M 80.0 920.0 L 106.18181818181819 882.3108506659984 L 132.36363636363637 802.437303622029 L 158.54545454545456 770.3074580257147 L 184.72727272727275 750.9694084083505 L 210.9090909090909 741.2618308691713 L 237.0909090909091 721.9237812518072 L 263.27272727272725 701.051332960657 L 289.4545454545455 681.8135204425854 L 315.6363636363636 666.1302696763498 L 341.8181818181818 651.8272066619119 L 368.0 642.8367099099794 L 394.1818181818182 633.93873971124 L 420.3636363636364 620.5609422287334 L 446.54545454545456 601.562156639744 L 472.72727272727275 581.0135512847698 L 498.90909090909093 567.3735952348825 L 525.0909090909091 548.7063631281686 L 551.2727272727273 540.9958170287412 L 577.4545454545455 533.8944040711683 L 603.6363636363636 518.6198122482026 L 629.8181818181819 503.5996684465178 L 656.0 490.2989764250053 L 682.1818181818182 471.9401661622685 L 708.3636363636364 459.30258110530684 L 734.5454545454546 451.5149295448851 L 760.7272727272727 442.73261753763717 L 786.909090909091 431.4520885941747 L 813.0909090909091 421.65969504790183 L 839.2727272727274 413.34001580661953 L 865.4545454545455 399.2142953524684 L 891.6363636363637 387.6870289338243 L 917.8181818181819 370.1069838271296 L 944.0 364.9563390327121 L 970.1818181818182 359.11174508934596 L 996.3636363636364 351.36264625942135 L 1022.5454545454546 345.132525011084 L 1048.7272727272727 335.8721591456715 L 1074.909090909091 325.4860535497427 L 1101.090909090909 320.7671993368931 L 1127.2727272727273 315.64739672687324 L 1153.4545454545455 307.1735065636025 L 1179.6363636363637 300.06438305993026 L 1205.818181818182 276.5549280027759 L 1232.0 267.4719046976503 L 1258.1818181818182 257.83372207336595 L 1284.3636363636365 250.98675713707428 L 1310.5454545454547 244.00100237099298 L 1336.7272727272727 239.59828054821992 L 1362.909090909091 231.1860747537445 L 1389.0909090909092 230.70802089558003 L 1415.2727272727273 230.67717871118225 L 1441.4545454545455 229.7981764558475 L 1467.6363636363637 229.58999171116307 L 1493.818181818182 229.58999171116307 L 1520.0 229.5822811650636" fill="none" stroke="#1f77b4" stroke-width="2" />
<circle cx="80.0" cy="920.0" r="4" fill="#ff7f0e" />
<circle cx="106.18181818181819" cy="644.9185573568247" r="4" fill="#ff7f0e" />
<circle cx="132.36363636363637" cy="587.528962738786" r="4" fill="#ff7f0e" />
<circle cx="158.54545454545456" cy="569.1238891994526" r="4" fill="#ff7f0e" />
<circle cx="184.72727272727275" cy="560.0562869865258" r="4" fill="#ff7f0e" />
<circle cx="210.9090909090909" cy="552.9625845750526" r="4" fill="#ff7f0e" />
<circle cx="237.0909090909091" cy="540.3172889719915" r="4" fill="#ff7f0e" />
<circle cx="263.27272727272725" cy="524.2716425390829" r="4" fill="#ff7f0e" />
<circle cx="289.4545454545455" cy="511.47213601403325" r="4" fill="#ff7f0e" />
<circle cx="315.6363636363636" cy="500.92410895001643" r="4" fill="#ff7f0e" />
<circle cx="341.8181818181818" cy="490.25271314840876" r="4" fill="#ff7f0e" />
<circle cx="368.0" cy="484.6779883185227" r="4" fill="#ff7f0e" />
<circle cx="394.1818181818182" cy="477.7770495595351" r="4" fill="#ff7f0e" />
<circle cx="420.3636363636364" cy="469.9277136303179" r="4" fill="#ff7f0e" />
<circle cx="446.54545454545456" cy="459.4259498428977" r="4" fill="#ff7f0e" />
<circle cx="472.72727272727275" cy="445.36962430364133" r="4" fill="#ff7f0e" />
<circle cx="498.90909090909093" cy="436.3482853673112" r="4" fill="#ff7f0e" />
<circle cx="525.0909090909091" cy="425.0831775160476" r="4" fill="#ff7f0e" />
<circle cx="551.2727272727273" cy="418.2285020336566" r="4" fill="#ff7f0e" />
<circle cx="577.4545454545455" cy="412.7617248491625" r="4" fill="#ff7f0e" />
<circle cx="603.6363636363636" cy="400.34003508298485" r="4" fill="#ff7f0e" />
<circle cx="629.8181818181819" cy="390.2315091466354" r="4" fill="#ff7f0e" />
<circle cx="656.0" cy="378.2647416003239" r="4" fill="#ff7f0e" />
<circle cx="682.1818181818182" cy="362.5660697418896" r="4" fill="#ff7f0e" />
<circle cx="708.3636363636364" cy="352.7582551034178" r="4" fill="#ff7f0e" />
<circle cx="734.5454545454546" cy="341.0536461244868" r="4" fill="#ff7f0e" />
<circle cx="760.7272727272727" cy="338.1467702450027" r="4" fill="#ff7f0e" />
<circle cx="786.909090909091" cy="328.2464290533378" r="4" fill="#ff7f0e" />
<circle cx="813.0909090909091" cy="321.62306995392953" r="4" fill="#ff7f0e" />
<circle cx="839.2727272727274" cy="315.2850010602001" r="4" fill="#ff7f0e" />
<circle cx="865.4545454545455" cy="303.50328662027493" r="4" fill="#ff7f0e" />
<circle cx="891.6363636363637" cy="292.9244173718604" r="4" fill="#ff7f0e" />
<circle cx="917.8181818181819" cy="281.266071669526" r="4" fill="#ff7f0e" />
<circle cx="944.0" cy="277.00985022264206" r="4" fill="#ff7f0e" />
<circle cx="970.1818181818182" cy="272.64568113036614" r="4" fill="#ff7f0e" />
<circle cx="996.3636363636364" cy="266.762534456503" r="4" fill="#ff7f0e" />
<circle cx="1022.5454545454546" cy="261.65815293868195" r="4" fill="#ff7f0e" />
<circle cx="1048.7272727272727" cy="253.73942209456993" r="4" fill="#ff7f0e" />
<circle cx="1074.909090909091" cy="245.38890066888996" r="4" fill="#ff7f0e" />
<circle cx="1101.090909090909" cy="239.76020201630786" r="4" fill="#ff7f0e" />
<circle cx="1127.2727272727273" cy="236.39069337085812" r="4" fill="#ff7f0e" />
<circle cx="1153.4545454545455" cy="229.37409642037903" r="4" fill="#ff7f0e" />
<circle cx="1179.6363636363637" cy="224.63211056923114" r="4" fill="#ff7f0e" />
<circle cx="1205.818181818182" cy="201.81660466102517" r="4" fill="#ff7f0e" />
<circle cx="1232.0" cy="192.98031883108126" r="4" fill="#ff7f0e" />
<circle cx="1258.1818181818182" cy="184.95364034157728" r="4" fill="#ff7f0e" />
<circle cx="1284.3636363636365" cy="176.83443529888007" r="4" fill="#ff7f0e" />
<circle cx="1310.5454545454547" cy="172.13100217822932" r="4" fill="#ff7f0e" />
<circle cx="1336.7272727272727" cy="168.66125643348698" r="4" fill="#ff7f0e" />
<circle cx="1362.909090909091" cy="162.56992501493926" r="4" fill="#ff7f0e" />
<circle cx="1389.0909090909092" cy="155.19093239778715" r="4" fill="#ff7f0e" />
<circle cx="1415.2727272727273" cy="148.91454787285318" r="4" fill="#ff7f0e" />
<circle cx="1441.4545454545455" cy="143.41692850396134" r="4" fill="#ff7f0e" />
<circle cx="1467.6363636363637" cy="131.90508317751608" r="4" fill="#ff7f0e" />
<circle cx="1493.818181818182" cy="128.13462613489605" r="4" fill="#ff7f0e" />
<circle cx="1520.0" cy="121.93534707095637" r="4" fill="#ff7f0e" />
<path d="M 80.0 920.0 L 106.18181818181819 644.9185573568247 L 132.36363636363637 587.528962738786 L 158.54545454545456 569.1238891994526 L 184.72727272727275 560.0562869865258 L 210.9090909090909 552.9625845750526 L 237.0909090909091 540.3172889719915 L 263.27272727272725 524.2716425390829 L 289.4545454545455 511.47213601403325 L 315.6363636363636 500.92410895001643 L 341.8181818181818 490.25271314840876 L 368.0 484.6779883185227 L 394.1818181818182 477.7770495595351 L 420.3636363636364 469.9277136303179 L 446.54545454545456 459.4259498428977 L 472.72727272727275 445.36962430364133 L 498.90909090909093 436.3482853673112 L 525.0909090909091 425.0831775160476 L 551.2727272727273 418.2285020336566 L 577.4545454545455 412.7617248491625 L 603.6363636363636 400.34003508298485 L 629.8181818181819 390.2315091466354 L 656.0 378.2647416003239 L 682.1818181818182 362.5660697418896 L 708.3636363636364 352.7582551034178 L 734.5454545454546 341.0536461244868 L 760.7272727272727 338.1467702450027 L 786.909090909091 328.2464290533378 L 813.0909090909091 321.62306995392953 L 839.2727272727274 315.2850010602001 L 865.4545454545455 303.50328662027493 L 891.6363636363637 292.9244173718604 L 917.8181818181819 281.266071669526 L 944.0 277.00985022264206 L 970.1818181818182 272.64568113036614 L 996.3636363636364 266.762534456503 L 1022.5454545454546 261.65815293868195 L 1048.7272727272727 253.73942209456993 L 1074.909090909091 245.38890066888996 L 1101.090909090909 239.76020201630786 L 1127.2727272727273 236.39069337085812 L 1153.4545454545455 229.37409642037903 L 1179.6363636363637 224.63211056923114 L 1205.818181818182 201.81660466102517 L 1232.0 192.98031883108126 L 1258.1818181818182 184.95364034157728 L 1284.3636363636365 176.83443529888007 L 1310.5454545454547 172.13100217822932 L 1336.7272727272727 168.66125643348698 L 1362.909090909091 162.56992501493926 L 1389.0909090909092 155.19093239778715 L 1415.2727272727273 148.91454787285318 L 1441.4545454545455 143.41692850396134 L 1467.6363636363637 131.90508317751608 L 1493.818181818182 128.13462613489605 L 1520.0 121.93534707095637" fill="none" stroke="#ff7f0e" stroke-width="2" />
<circle cx="80.0" cy="920.0" r="4" fill="#2ca02c" />
<circle cx="106.18181818181819" cy="639.5134645411262" r="4" fill="#2ca02c" />
<circle cx="132.36363636363637" cy="582.3474757599707" r="4" fill="#2ca02c" />
<circle cx="158.54545454545456" cy="564.1197447809241" r="4" fill="#2ca02c" />
<circle cx="184.72727272727275" cy="555.190932397787" r="4" fill="#2ca02c" />
<circle cx="210.9090909090909" cy="548.1126510785127" r="4" fill="#2ca02c" />
<circle cx="237.0909090909091" cy="535.5984347591418" r="4" fill="#2ca02c" />
<circle cx="263.27272727272725" cy="519.7609730709178" r="4" fill="#2ca02c" />
<circle cx="289.4545454545455" cy="507.1079669217573" r="4" fill="#2ca02c" />
<circle cx="315.6363636363636" cy="496.64475586483417" r="4" fill="#2ca02c" />
<circle cx="341.8181818181818" cy="486.02733388592253" r="4" fill="#2ca02c" />
<circle cx="368.0" cy="480.5374250631301" r="4" fill="#2ca02c" />
<circle cx="394.1818181818182" cy="473.6364863041425" r="4" fill="#2ca02c" />
<circle cx="420.3636363636364" cy="465.8102820132236" r="4" fill="#2ca02c" />
<circle cx="446.54545454545456" cy="455.53983460878624" r="4" fill="#2ca02c" />
<circle cx="472.72727272727275" cy="441.78422036740756" r="4" fill="#2ca02c" />
<circle cx="498.90909090909093" cy="432.80143416157455" r="4" fill="#2ca02c" />
<circle cx="525.0909090909091" cy="421.5440368564104" r="4" fill="#2ca02c" />
<circle cx="551.2727272727273" cy="414.68165082791995" r="4" fill="#2ca02c" />
<circle cx="577.4545454545455" cy="409.2302947356247" r="4" fill="#2ca02c" />
<circle cx="603.6363636363636" cy="396.8934209765407" r="4" fill="#2ca02c" />
<circle cx="629.8181818181819" cy="386.80802667848957" r="4" fill="#2ca02c" />
<circle cx="656.0" cy="374.856680224377" r="4" fill="#2ca02c" />
<circle cx="682.1818181818182" cy="359.1811400042409" r="4" fill="#2ca02c" />
<circle cx="708.3636363636364" cy="349.4041675501668" r="4" fill="#2ca02c" />
<circle cx="734.5454545454546" cy="337.7072691173353" r="4" fill="#2ca02c" />
<circle cx="760.7272727272727" cy="334.8081037839505" r="4" fill="#2ca02c" />
<circle cx="786.909090909091" cy="324.9154731383851" r="4" fill="#2ca02c" />
<circle cx="813.0909090909091" cy="318.31524567727513" r="4" fill="#2ca02c" />
<circle cx="839.2727272727274" cy="312.01572951404285" r="4" fill="#2ca02c" />
<circle cx="865.4545454545455" cy="300.5038841875977" r="4" fill="#2ca02c" />
<circle cx="891.6363636363637" cy="289.9558571235808" r="4" fill="#2ca02c" />
<circle cx="917.8181818181819" cy="278.62135435742243" r="4" fill="#2ca02c" />
<circle cx="944.0" cy="274.3651329105385" r="4" fill="#2ca02c" />
<circle cx="970.1818181818182" cy="270.05493764095854" r="4" fill="#2ca02c" />
<circle cx="996.3636363636364" cy="264.17950151319474" r="4" fill="#2ca02c" />
<circle cx="1022.5454545454546" cy="259.098251633672" r="4" fill="#2ca02c" />
<circle cx="1048.7272727272727" cy="251.17952078956" r="4" fill="#2ca02c" />
<circle cx="1074.909090909091" cy="242.86755209437717" r="4" fill="#2ca02c" />
<circle cx="1101.090909090909" cy="237.24656398789455" r="4" fill="#2ca02c" />
<circle cx="1127.2727272727273" cy="233.8770553424447" r="4" fill="#2ca02c" />
<circle cx="1153.4545454545455" cy="226.86816893806508" r="4" fill="#2ca02c" />
<circle cx="1179.6363636363637" cy="222.20328854791148" r="4" fill="#2ca02c" />
<circle cx="1205.818181818182" cy="199.5882568382907" r="4" fill="#2ca02c" />
<circle cx="1232.0" cy="190.76739210054564" r="4" fill="#2ca02c" />
<circle cx="1258.1818181818182" cy="182.97974054012388" r="4" fill="#2ca02c" />
<circle cx="1284.3636363636365" cy="174.86824604352614" r="4" fill="#2ca02c" />
<circle cx="1310.5454545454547" cy="170.1648129228754" r="4" fill="#2ca02c" />
<circle cx="1336.7272727272727" cy="166.69506717813294" r="4" fill="#2ca02c" />
<circle cx="1362.909090909091" cy="160.61915685178406" r="4" fill="#2ca02c" />
<circle cx="1389.0909090909092" cy="153.24016423463195" r="4" fill="#2ca02c" />
<circle cx="1415.2727272727273" cy="146.96377970969797" r="4" fill="#2ca02c" />
<circle cx="1441.4545454545455" cy="141.4815814330051" r="4" fill="#2ca02c" />
<circle cx="1467.6363636363637" cy="129.96973610655982" r="4" fill="#2ca02c" />
<circle cx="1493.818181818182" cy="126.1992790639398" r="4" fill="#2ca02c" />
<circle cx="1520.0" cy="120.00000000000011" r="4" fill="#2ca02c" />
<path d="M 80.0 920.0 L 106.18181818181819 639.5134645411262 L 132.36363636363637 582.3474757599707 L 158.54545454545456 564.1197447809241 L 184.72727272727275 555.190932397787 L 210.9090909090909 548.1126510785127 L 237.0909090909091 535.5984347591418 L 263.27272727272725 519.7609730709178 L 289.4545454545455 507.1079669217573 L 315.6363636363636 496.64475586483417 L 341.8181818181818 486.02733388592253 L 368.0 480.5374250631301 L 394.1818181818182 473.6364863041425 L 420.3636363636364 465.8102820132236 L 446.54545454545456 455.53983460878624 L 472.72727272727275 441.78422036740756 L 498.90909090909093 432.80143416157455 L 525.0909090909091 421.5440368564104 L 551.2727272727273 414.68165082791995 L 577.4545454545455 409.2302947356247 L 603.6363636363636 396.8934209765407 L 629.8181818181819 386.80802667848957 L 656.0 374.856680224377 L 682.1818181818182 359.1811400042409 L 708.3636363636364 349.4041675501668 L 734.5454545454546 337.7072691173353 L 760.7272727272727 334.8081037839505 L 786.909090909091 324.9154731383851 L 813.0909090909091 318.31524567727513 L 839.2727272727274 312.01572951404285 L 865.4545454545455 300.5038841875977 L 891.6363636363637 289.9558571235808 L 917.8181818181819 278.62135435742243 L 944.0 274.3651329105385 L 970.1818181818182 270.05493764095854 L 996.3636363636364 264.17950151319474 L 1022.5454545454546 259.098251633672 L 1048.7272727272727 251.17952078956 L 1074.909090909091 242.86755209437717 L 1101.090909090909 237.24656398789455 L 1127.2727272727273 233.8770553424447 L 1153.4545454545455 226.86816893806508 L 1179.6363636363637 222.20328854791148 L 1205.818181818182 199.5882568382907 L 1232.0 190.76739210054564 L 1258.1818181818182 182.97974054012388 L 1284.3636363636365 174.86824604352614 L 1310.5454545454547 170.1648129228754 L 1336.7272727272727 166.69506717813294 L 1362.909090909091 160.61915685178406 L 1389.0909090909092 153.24016423463195 L 1415.2727272727273 146.96377970969797 L 1441.4545454545455 141.4815814330051 L 1467.6363636363637 129.96973610655982 L 1493.818181818182 126.1992790639398 L 1520.0 120.00000000000011" fill="none" stroke="#2ca02c" stroke-width="2" />
<circle cx="80.0" cy="920.0" r="4" fill="#d62728" />
<circle cx="106.18181818181819" cy="865.5789656302408" r="4" fill="#d62728" />
<circle cx="132.36363636363637" cy="786.8157372245889" r="4" fill="#d62728" />
<circle cx="158.54545454545456" cy="759.5589567631127" r="4" fill="#d62728" />
<circle cx="184.72727272727275" cy="740.2594598762457" r="4" fill="#d62728" />
<circle cx="210.9090909090909" cy="730.6366983441602" r="4" fill="#d62728" />
<circle cx="237.0909090909091" cy="711.6918865778669" r="4" fill="#d62728" />
<circle cx="263.27272727272725" cy="691.7909670952446" r="4" fill="#d62728" />
<circle cx="289.4545454545455" cy="673.4707095630048" r="4" fill="#d62728" />
<circle cx="315.6363636363636" cy="658.1190122790447" r="4" fill="#d62728" />
<circle cx="341.8181818181818" cy="643.8622125412032" r="4" fill="#d62728" />
<circle cx="368.0" cy="634.8871368814696" r="4" fill="#d62728" />
<circle cx="394.1818181818182" cy="625.9968772288298" r="4" fill="#d62728" />
<circle cx="420.3636363636364" cy="613.2821867108738" r="4" fill="#d62728" />
<circle cx="446.54545454545456" cy="594.5070069587679" r="4" fill="#d62728" />
<circle cx="472.72727272727275" cy="574.3053761782678" r="4" fill="#d62728" />
<circle cx="498.90909090909093" cy="561.3131060007325" r="4" fill="#d62728" />
<circle cx="525.0909090909091" cy="542.8771902770014" r="4" fill="#d62728" />
<circle cx="551.2727272727273" cy="535.166644177574" r="4" fill="#d62728" />
<circle cx="577.4545454545455" cy="528.1423366809954" r="4" fill="#d62728" />
<circle cx="603.6363636363636" cy="513.0527979644158" r="4" fill="#d62728" />
<circle cx="629.8181818181819" cy="498.94249860246356" r="4" fill="#d62728" />
<circle cx="656.0" cy="485.6957804036471" r="4" fill="#d62728" />
<circle cx="682.1818181818182" cy="467.35239123310913" r="4" fill="#d62728" />
<circle cx="708.3636363636364" cy="455.13117566551654" r="4" fill="#d62728" />
<circle cx="734.5454545454546" cy="447.3435241050948" r="4" fill="#d62728" />
<circle cx="760.7272727272727" cy="438.55350155174744" r="4" fill="#d62728" />
<circle cx="786.909090909091" cy="427.27297260828504" r="4" fill="#d62728" />
<circle cx="813.0909090909091" cy="418.13597548046346" r="4" fill="#d62728" />
<circle cx="839.2727272727274" cy="409.83171733138005" r="4" fill="#d62728" />
<circle cx="865.4545454545455" cy="395.7368390616266" r="4" fill="#d62728" />
<circle cx="891.6363636363637" cy="384.21728318908197" r="4" fill="#d62728" />
<circle cx="917.8181818181819" cy="366.7297646355804" r="4" fill="#d62728" />
<circle cx="944.0" cy="361.6022514794611" r="4" fill="#d62728" />
<circle cx="970.1818181818182" cy="355.75765753609505" r="4" fill="#d62728" />
<circle cx="996.3636363636364" cy="348.0625325288664" r="4" fill="#d62728" />
<circle cx="1022.5454545454546" cy="341.8247007344296" r="4" fill="#d62728" />
<circle cx="1048.7272727272727" cy="332.6105981456137" r="4" fill="#d62728" />
<circle cx="1074.909090909091" cy="322.80278350714195" r="4" fill="#d62728" />
<circle cx="1101.090909090909" cy="318.10706093259057" r="4" fill="#d62728" />
<circle cx="1127.2727272727273" cy="312.9872583225707" r="4" fill="#d62728" />
<circle cx="1153.4545454545455" cy="304.53649979759825" r="4" fill="#d62728" />
<circle cx="1179.6363636363637" cy="297.496771208821" r="4" fill="#d62728" />
<circle cx="1205.818181818182" cy="274.0567110665613" r="4" fill="#d62728" />
<circle cx="1232.0" cy="264.996819399734" r="4" fill="#d62728" />
<circle cx="1258.1818181818182" cy="255.35863677544967" r="4" fill="#d62728" />
<circle cx="1284.3636363636365" cy="248.50396129305864" r="4" fill="#d62728" />
<circle cx="1310.5454545454547" cy="241.51820652697734" r="4" fill="#d62728" />
<circle cx="1336.7272727272727" cy="237.12319525030364" r="4" fill="#d62728" />
<circle cx="1362.909090909091" cy="229.065674576402" r="4" fill="#d62728" />
<circle cx="1389.0909090909092" cy="228.5953312643369" r="4" fill="#d62728" />
<circle cx="1415.2727272727273" cy="228.5953312643369" r="4" fill="#d62728" />
<circle cx="1441.4545454545455" cy="228.5953312643369" r="4" fill="#d62728" />
<circle cx="1467.6363636363637" cy="228.5953312643369" r="4" fill="#d62728" />
<circle cx="1493.818181818182" cy="228.5953312643369" r="4" fill="#d62728" />
<circle cx="1520.0" cy="228.5953312643369" r="4" fill="#d62728" />
<path d="M 80.0 920.0 L 106.18181818181819 865.5789656302408 L 132.36363636363637 786.8157372245889 L 158.54545454545456 759.5589567631127 L 184.72727272727275 740.2594598762457 L 210.9090909090909 730.6366983441602 L 237.0909090909091 711.6918865778669 L 263.27272727272725 691.7909670952446 L 289.4545454545455 673.4707095630048 L 315.6363636363636 658.1190122790447 L 341.8181818181818 643.8622125412032 L 368.0 634.8871368814696 L 394.1818181818182 625.9968772288298 L 420.3636363636364 613.2821867108738 L 446.54545454545456 594.5070069587679 L 472.72727272727275 574.3053761782678 L 498.90909090909093 561.3131060007325 L 525.0909090909091 542.8771902770014 L 551.2727272727273 535.166644177574 L 577.4545454545455 528.1423366809954 L 603.6363636363636 513.0527979644158 L 629.8181818181819 498.94249860246356 L 656.0 485.6957804036471 L 682.1818181818182 467.35239123310913 L 708.3636363636364 455.13117566551654 L 734.5454545454546 447.3435241050948 L 760.7272727272727 438.55350155174744 L 786.909090909091 427.27297260828504 L 813.0909090909091 418.13597548046346 L 839.2727272727274 409.83171733138005 L 865.4545454545455 395.7368390616266 L 891.6363636363637 384.21728318908197 L 917.8181818181819 366.7297646355804 L 944.0 361.6022514794611 L 970.1818181818182 355.75765753609505 L 996.3636363636364 348.0625325288664 L 1022.5454545454546 341.8247007344296 L 1048.7272727272727 332.6105981456137 L 1074.909090909091 322.80278350714195 L 1101.090909090909 318.10706093259057 L 1127.2727272727273 312.9872583225707 L 1153.4545454545455 304.53649979759825 L 1179.6363636363637 297.496771208821 L 1205.818181818182 274.0567110665613 L 1232.0 264.996819399734 L 1258.1818181818182 255.35863677544967 L 1284.3636363636365 248.50396129305864 L 1310.5454545454547 241.51820652697734 L 1336.7272727272727 237.12319525030364 L 1362.909090909091 229.065674576402 L 1389.0909090909092 228.5953312643369 L 1415.2727272727273 228.5953312643369 L 1441.4545454545455 228.5953312643369 L 1467.6363636363637 228.5953312643369 L 1493.818181818182 228.5953312643369 L 1520.0 228.5953312643369" fill="none" stroke="#d62728" stroke-width="2" />
<circle cx="80.0" cy="920.0" r="4" fill="#9467bd" />
<circle cx="106.18181818181819" cy="871.3233224743143" r="4" fill="#9467bd" />
<circle cx="132.36363636363637" cy="792.2593827707848" r="4" fill="#9467bd" />
<circle cx="158.54545454545456" cy="760.2066426354647" r="4" fill="#9467bd" />
<circle cx="184.72727272727275" cy="740.8454613798023" r="4" fill="#9467bd" />
<circle cx="210.9090909090909" cy="732.2096497484434" r="4" fill="#9467bd" />
<circle cx="237.0909090909091" cy="713.1029165140621" r="4" fill="#9467bd" />
<circle cx="263.27272727272725" cy="692.2844420456079" r="4" fill="#9467bd" />
<circle cx="289.4545454545455" cy="673.4475779247066" r="4" fill="#9467bd" />
<circle cx="315.6363636363636" cy="657.9262486265591" r="4" fill="#9467bd" />
<circle cx="341.8181818181818" cy="643.8313703568056" r="4" fill="#9467bd" />
<circle cx="368.0" cy="634.8485841509726" r="4" fill="#9467bd" />
<circle cx="394.1818181818182" cy="625.8966401295372" r="4" fill="#9467bd" />
<circle cx="420.3636363636364" cy="612.5959481080248" r="4" fill="#9467bd" />
<circle cx="446.54545454545456" cy="593.9595581857086" r="4" fill="#9467bd" />
<circle cx="472.72727272727275" cy="573.3646895541377" r="4" fill="#9467bd" />
<circle cx="498.90909090909093" cy="560.0177342560287" r="4" fill="#9467bd" />
<circle cx="525.0909090909091" cy="543.9952194614184" r="4" fill="#9467bd" />
<circle cx="551.2727272727273" cy="536.2769628158915" r="4" fill="#9467bd" />
<circle cx="577.4545454545455" cy="529.1755498583187" r="4" fill="#9467bd" />
<circle cx="603.6363636363636" cy="513.8624053048558" r="4" fill="#9467bd" />
<circle cx="629.8181818181819" cy="499.31260481523606" r="4" fill="#9467bd" />
<circle cx="656.0" cy="486.0813077086185" r="4" fill="#9467bd" />
<circle cx="682.1818181818182" cy="467.66852362318565" r="4" fill="#9467bd" />
<circle cx="708.3636363636364" cy="455.2699654953063" r="4" fill="#9467bd" />
<circle cx="734.5454545454546" cy="447.5054455731828" r="4" fill="#9467bd" />
<circle cx="760.7272727272727" cy="438.71542301983544" r="4" fill="#9467bd" />
<circle cx="786.909090909091" cy="427.41947298417415" r="4" fill="#9467bd" />
<circle cx="813.0909090909091" cy="417.98176455847494" r="4" fill="#9467bd" />
<circle cx="839.2727272727274" cy="409.6775064093915" r="4" fill="#9467bd" />
<circle cx="865.4545454545455" cy="395.77539179212374" r="4" fill="#9467bd" />
<circle cx="891.6363636363637" cy="384.51799448695965" r="4" fill="#9467bd" />
<circle cx="917.8181818181819" cy="366.9302388341655" r="4" fill="#9467bd" />
<circle cx="944.0" cy="361.75646240144965" r="4" fill="#9467bd" />
<circle cx="970.1818181818182" cy="356.15089538716586" r="4" fill="#9467bd" />
<circle cx="996.3636363636364" cy="348.4326387416389" r="4" fill="#9467bd" />
<circle cx="1022.5454545454546" cy="342.1716753089038" r="4" fill="#9467bd" />
<circle cx="1048.7272727272727" cy="332.8881778051931" r="4" fill="#9467bd" />
<circle cx="1074.909090909091" cy="322.50207220926427" r="4" fill="#9467bd" />
<circle cx="1101.090909090909" cy="317.7832179964147" r="4" fill="#9467bd" />
<circle cx="1127.2727272727273" cy="312.66341538639483" r="4" fill="#9467bd" />
<circle cx="1153.4545454545455" cy="304.2049463153229" r="4" fill="#9467bd" />
<circle cx="1179.6363636363637" cy="297.08040171945186" r="4" fill="#9467bd" />
<circle cx="1205.818181818182" cy="273.63263103109284" r="4" fill="#9467bd" />
<circle cx="1232.0" cy="264.5264760876689" r="4" fill="#9467bd" />
<circle cx="1258.1818181818182" cy="254.89600400948405" r="4" fill="#9467bd" />
<circle cx="1284.3636363636365" cy="248.04132852709301" r="4" fill="#9467bd" />
<circle cx="1310.5454545454547" cy="240.99388939221626" r="4" fill="#9467bd" />
<circle cx="1336.7272727272727" cy="236.6142992077415" r="4" fill="#9467bd" />
<circle cx="1362.909090909091" cy="228.17896177496777" r="4" fill="#9467bd" />
<circle cx="1389.0909090909092" cy="219.07280683154397" r="4" fill="#9467bd" />
<circle cx="1415.2727272727273" cy="212.43402663993686" r="4" fill="#9467bd" />
<circle cx="1441.4545454545455" cy="205.20153439867386" r="4" fill="#9467bd" />
<circle cx="1467.6363636363637" cy="198.50878038437077" r="4" fill="#9467bd" />
<circle cx="1493.818181818182" cy="189.01709813597552" r="4" fill="#9467bd" />
<circle cx="1520.0" cy="182.48626558976048" r="4" fill="#9467bd" />
<path d="M 80.0 920.0 L 106.18181818181819 871.3233224743143 L 132.36363636363637 792.2593827707848 L 158.54545454545456 760.2066426354647 L 184.72727272727275 740.8454613798023 L 210.9090909090909 732.2096497484434 L 237.0909090909091 713.1029165140621 L 263.27272727272725 692.2844420456079 L 289.4545454545455 673.4475779247066 L 315.6363636363636 657.9262486265591 L 341.8181818181818 643.8313703568056 L 368.0 634.8485841509726 L 394.1818181818182 625.8966401295372 L 420.3636363636364 612.5959481080248 L 446.54545454545456 593.9595581857086 L 472.72727272727275 573.3646895541377 L 498.90909090909093 560.0177342560287 L 525.0909090909091 543.9952194614184 L 551.2727272727273 536.2769628158915 L 577.4545454545455 529.1755498583187 L 603.6363636363636 513.8624053048558 L 629.8181818181819 499.31260481523606 L 656.0 486.0813077086185 L 682.1818181818182 467.66852362318565 L 708.3636363636364 455.2699654953063 L 734.5454545454546 447.5054455731828 L 760.7272727272727 438.71542301983544 L 786.909090909091 427.41947298417415 L 813.0909090909091 417.98176455847494 L 839.2727272727274 409.6775064093915 L 865.4545454545455 395.77539179212374 L 891.6363636363637 384.51799448695965 L 917.8181818181819 366.9302388341655 L 944.0 361.75646240144965 L 970.1818181818182 356.15089538716586 L 996.3636363636364 348.4326387416389 L 1022.5454545454546 342.1716753089038 L 1048.7272727272727 332.8881778051931 L 1074.909090909091 322.50207220926427 L 1101.090909090909 317.7832179964147 L 1127.2727272727273 312.66341538639483 L 1153.4545454545455 304.2049463153229 L 1179.6363636363637 297.08040171945186 L 1205.818181818182 273.63263103109284 L 1232.0 264.5264760876689 L 1258.1818181818182 254.89600400948405 L 1284.3636363636365 248.04132852709301 L 1310.5454545454547 240.99388939221626 L 1336.7272727272727 236.6142992077415 L 1362.909090909091 228.17896177496777 L 1389.0909090909092 219.07280683154397 L 1415.2727272727273 212.43402663993686 L 1441.4545454545455 205.20153439867386 L 1467.6363636363637 198.50878038437077 L 1493.818181818182 189.01709813597552 L 1520.0 182.48626558976048" fill="none" stroke="#9467bd" stroke-width="2" />
<circle cx="80.0" cy="920.0" r="4" fill="#66ffbd" />
<circle cx="106.18181818181819" cy="677.2026138751278" r="4" fill="#66ffbd" />
<circle cx="132.36363636363637" cy="699.9101721379417" r="4" fill="#66ffbd" />
<circle cx="158.54545454545456" cy="713.8122867552095" r="4" fill="#66ffbd" />
<circle cx="184.72727272727275" cy="724.2215239894366" r="4" fill="#66ffbd" />
<circle cx="210.9090909090909" cy="726.8508202093414" r="4" fill="#66ffbd" />
<circle cx="237.0909090909091" cy="733.6746535073347" r="4" fill="#66ffbd" />
<circle cx="263.27272727272725" cy="738.7096401102608" r="4" fill="#66ffbd" />
<circle cx="289.4545454545455" cy="745.2944464791719" r="4" fill="#66ffbd" />
<circle cx="315.6363636363636" cy="750.5144861884843" r="4" fill="#66ffbd" />
<circle cx="341.8181818181818" cy="754.2001272240107" r="4" fill="#66ffbd" />
<circle cx="368.0" cy="757.7007151531508" r="4" fill="#66ffbd" />
<circle cx="394.1818181818182" cy="759.6977465929025" r="4" fill="#66ffbd" />
<circle cx="420.3636363636364" cy="765.2493397844903" r="4" fill="#66ffbd" />
<circle cx="446.54545454545456" cy="773.9776779690421" r="4" fill="#66ffbd" />
<circle cx="472.72727272727275" cy="780.7706690826378" r="4" fill="#66ffbd" />
<circle cx="498.90909090909093" cy="785.427838926692" r="4" fill="#66ffbd" />
<circle cx="525.0909090909091" cy="792.8376737282418" r="4" fill="#66ffbd" />
<circle cx="551.2727272727273" cy="793.6858337991788" r="4" fill="#66ffbd" />
<circle cx="577.4545454545455" cy="795.3358906644563" r="4" fill="#66ffbd" />
<circle cx="603.6363636363636" cy="798.2736087283382" r="4" fill="#66ffbd" />
<circle cx="629.8181818181819" cy="803.2083582319718" r="4" fill="#66ffbd" />
<circle cx="656.0" cy="804.5577037993717" r="4" fill="#66ffbd" />
<circle cx="682.1818181818182" cy="807.2409738419724" r="4" fill="#66ffbd" />
<circle cx="708.3636363636364" cy="810.10158644486" r="4" fill="#66ffbd" />
<circle cx="734.5454545454546" cy="806.1923395724502" r="4" fill="#66ffbd" />
<circle cx="760.7272727272727" cy="812.0754862463134" r="4" fill="#66ffbd" />
<circle cx="786.909090909091" cy="813.4633845442104" r="4" fill="#66ffbd" />
<circle cx="813.0909090909091" cy="816.6555506293734" r="4" fill="#66ffbd" />
<circle cx="839.2727272727274" cy="818.6757137074234" r="4" fill="#66ffbd" />
<circle cx="865.4545454545455" cy="821.2895888351293" r="4" fill="#66ffbd" />
<circle cx="891.6363636363637" cy="822.2688281897565" r="4" fill="#66ffbd" />
<circle cx="917.8181818181819" cy="828.5143705302928" r="4" fill="#66ffbd" />
<circle cx="944.0" cy="829.4087938778264" r="4" fill="#66ffbd" />
<circle cx="970.1818181818182" cy="830.9431925516125" r="4" fill="#66ffbd" />
<circle cx="996.3636363636364" cy="832.8168552537734" r="4" fill="#66ffbd" />
<circle cx="1022.5454545454546" cy="833.965726622588" r="4" fill="#66ffbd" />
<circle cx="1048.7272727272727" cy="835.3073616438885" r="4" fill="#66ffbd" />
<circle cx="1074.909090909091" cy="837.3814985446345" r="4" fill="#66ffbd" />
<circle cx="1101.090909090909" cy="836.4793646510014" r="4" fill="#66ffbd" />
<circle cx="1127.2727272727273" cy="838.2296586155715" r="4" fill="#66ffbd" />
<circle cx="1153.4545454545455" cy="839.6946623744627" r="4" fill="#66ffbd" />
<circle cx="1179.6363636363637" cy="842.1389054879812" r="4" fill="#66ffbd" />
<circle cx="1205.818181818182" cy="843.0333288355148" r="4" fill="#66ffbd" />
<circle cx="1232.0" cy="843.2954874028953" r="4" fill="#66ffbd" />
<circle cx="1258.1818181818182" cy="845.1460184667579" r="4" fill="#66ffbd" />
<circle cx="1284.3636363636365" cy="843.8814889064518" r="4" fill="#66ffbd" />
<circle cx="1310.5454545454547" cy="846.1638105518823" r="4" fill="#66ffbd" />
<circle cx="1336.7272727272727" cy="847.096786629913" r="4" fill="#66ffbd" />
<circle cx="1362.909090909091" cy="849.4330820980396" r="4" fill="#66ffbd" />
<circle cx="1389.0909090909092" cy="842.532143339052" r="4" fill="#66ffbd" />
<circle cx="1415.2727272727273" cy="836.2866009985157" r="4" fill="#66ffbd" />
<circle cx="1441.4545454545455" cy="831.6834049771576" r="4" fill="#66ffbd" />
<circle cx="1467.6363636363637" cy="820.3797443953968" r="4" fill="#66ffbd" />
<circle cx="1493.818181818182" cy="816.6092873527767" r="4" fill="#66ffbd" />
<circle cx="1520.0" cy="810.4177188349365" r="4" fill="#66ffbd" />
<path d="M 80.0 920.0 L 106.18181818181819 677.2026138751278 L 132.36363636363637 699.9101721379417 L 158.54545454545456 713.8122867552095 L 184.72727272727275 724.2215239894366 L 210.9090909090909 726.8508202093414 L 237.0909090909091 733.6746535073347 L 263.27272727272725 738.7096401102608 L 289.4545454545455 745.2944464791719 L 315.6363636363636 750.5144861884843 L 341.8181818181818 754.2001272240107 L 368.0 757.7007151531508 L 394.1818181818182 759.6977465929025 L 420.3636363636364 765.2493397844903 L 446.54545454545456 773.9776779690421 L 472.72727272727275 780.7706690826378 L 498.90909090909093 785.427838926692 L 525.0909090909091 792.8376737282418 L 551.2727272727273 793.6858337991788 L 577.4545454545455 795.3358906644563 L 603.6363636363636 798.2736087283382 L 629.8181818181819 803.2083582319718 L 656.0 804.5577037993717 L 682.1818181818182 807.2409738419724 L 708.3636363636364 810.10158644486 L 734.5454545454546 806.1923395724502 L 760.7272727272727 812.0754862463134 L 786.909090909091 813.4633845442104 L 813.0909090909091 816.6555506293734 L 839.2727272727274 818.6757137074234 L 865.4545454545455 821.2895888351293 L 891.6363636363637 822.2688281897565 L 917.8181818181819 828.5143705302928 L 944.0 829.4087938778264 L 970.1818181818182 830.9431925516125 L 996.3636363636364 832.8168552537734 L 1022.5454545454546 833.965726622588 L 1048.7272727272727 835.3073616438885 L 1074.909090909091 837.3814985446345 L 1101.090909090909 836.4793646510014 L 1127.2727272727273 838.2296586155715 L 1153.4545454545455 839.6946623744627 L 1179.6363636363637 842.1389054879812 L 1205.818181818182 843.0333288355148 L 1232.0 843.2954874028953 L 1258.1818181818182 845.1460184667579 L 1284.3636363636365 843.8814889064518 L 1310.5454545454547 846.1638105518823 L 1336.7272727272727 847.096786629913 L 1362.909090909091 849.4330820980396 L 1389.0909090909092 842.532143339052 L 1415.2727272727273 836.2866009985157 L 1441.4545454545455 831.6834049771576 L 1467.6363636363637 820.3797443953968 L 1493.818181818182 816.6092873527767 L 1520.0 810.4177188349365" fill="none" stroke="#66ffbd" stroke-width="2" />
<text x="80.0" y="940" text-anchor="middle">08-06</text>
<text x="106.18181818181819" y="940" text-anchor="middle">08-07</text>
<text x="132.36363636363637" y="940" text-anchor="middle">08-08</text>
<text x="158.54545454545456" y="940" text-anchor="middle">08-09</text>
<text x="184.72727272727275" y="940" text-anchor="middle">08-10</text>
<text x="210.9090909090909" y="940" text-anchor="middle">08-11</text>
<text x="237.0909090909091" y="940" text-anchor="middle">08-12</text>
<text x="263.27272727272725" y="940" text-anchor="middle">08-13</text>
<text x="289.4545454545455" y="940" text-anchor="middle">08-14</text>
<text x="315.6363636363636" y="940" text-anchor="middle">08-15</text>
<text x="341.8181818181818" y="940" text-anchor="middle">08-16</text>
<text x="368.0" y="940" text-anchor="middle">08-17</text>
<text x="394.1818181818182" y="940" text-anchor="middle">08-18</text>
<text x="420.3636363636364" y="940" text-anchor="middle">08-19</text>
<text x="446.54545454545456" y="940" text-anchor="middle">08-20</text>
<text x="472.72727272727275" y="940" text-anchor="middle">08-21</text>
<text x="498.90909090909093" y="940" text-anchor="middle">08-22</text>
<text x="525.0909090909091" y="940" text-anchor="middle">08-23</text>
<text x="551.2727272727273" y="940" text-anchor="middle">08-24</text>
<text x="577.4545454545455" y="940" text-anchor="middle">08-25</text>
<text x="603.6363636363636" y="940" text-anchor="middle">08-26</text>
<text x="629.8181818181819" y="940" text-anchor="middle">08-27</text>
<text x="656.0" y="940" text-anchor="middle">08-28</text>
<text x="682.1818181818182" y="940" text-anchor="middle">08-29</text>
<text x="708.3636363636364" y="940" text-anchor="middle">08-30</text>
<text x="734.5454545454546" y="940" text-anchor="middle">08-31</text>
<text x="760.7272727272727" y="940" text-anchor="middle">09-01</text>
<text x="786.909090909091" y="940" text-anchor="middle">09-02</text>
<text x="813.0909090909091" y="940" text-anchor="middle">09-03</text>
<text x="839.2727272727274" y="940" text-anchor="middle">09-04</text>
<text x="865.4545454545455" y="940" text-anchor="middle">09-05</text>
<text x="891.6363636363637" y="940" text-anchor="middle">09-06</text>
<text x="917.8181818181819" y="940" text-anchor="middle">09-07</text>
<text x="944.0" y="940" text-anchor="middle">09-08</text>
<text x="970.1818181818182" y="940" text-anchor="middle">09-09</text>
<text x="996.3636363636364" y="940" text-anchor="middle">09-10</text>
<text x="1022.5454545454546" y="940" text-anchor="middle">09-11</text>
<text x="1048.7272727272727" y="940" text-anchor="middle">09-12</text>
<text x="1074.909090909091" y="940" text-anchor="middle">09-13</text>
<text x="1101.090909090909" y="940" text-anchor="middle">09-14</text>
<text x="1127.2727272727273" y="940" text-anchor="middle">09-15</text>
<text x="1153.4545454545455" y="940" text-anchor="middle">09-16</text>
<text x="1179.6363636363637" y="940" text-anchor="middle">09-17</text>
<text x="1205.818181818182" y="940" text-anchor="middle">09-18</text>
<text x="1232.0" y="940" text-anchor="middle">09-19</text>
<text x="1258.1818181818182" y="940" text-anchor="middle">09-20</text>
<text x="1284.3636363636365" y="940" text-anchor="middle">09-21</text>
<text x="1310.5454545454547" y="940" text-anchor="middle">09-22</text>
<text x="1336.7272727272727" y="940" text-anchor="middle">09-23</text>
<text x="1362.909090909091" y="940" text-anchor="middle">09-24</text>
<text x="1389.0909090909092" y="940" text-anchor="middle">09-25</text>
<text x="1415.2727272727273" y="940" text-anchor="middle">09-26</text>
<text x="1441.4545454545455" y="940" text-anchor="middle">09-27</text>
<text x="1467.6363636363637" y="940" text-anchor="middle">09-28</text>
<text x="1493.818181818182" y="940" text-anchor="middle">09-29</text>
<text x="1520.0" y="940" text-anchor="middle">09-30</text>
<rect x="90" y="100" width="130" height="185" class="legend-box" />
<text x="100" y="120" class="legend-item">图例:</text>
<rect x="100" y="137" width="15" height="15" fill="#1f77b4" rx="3" />
<text x="120" y="145" class="legend-item">构件聚合数据</text>
<rect x="100" y="162" width="15" height="15" fill="#ff7f0e" rx="3" />
<text x="120" y="170" class="legend-item">构件基本信息</text>
<rect x="100" y="187" width="15" height="15" fill="#2ca02c" rx="3" />
<text x="120" y="195" class="legend-item">构件徽标</text>
<rect x="100" y="212" width="15" height="15" fill="#d62728" rx="3" />
<text x="120" y="220" class="legend-item">构件扩展元数据</text>
<rect x="100" y="237" width="15" height="15" fill="#9467bd" rx="3" />
<text x="120" y="245" class="legend-item">构件版本信息</text>
<rect x="100" y="262" width="15" height="15" fill="#66ffbd" rx="3" />
<text x="120" y="270" class="legend-item">数据量偏差</text>
<text x="1520" y="990" text-anchor="end" font-size="10" fill="#666">生成时间: 2025-09-30 08:56:35</text>
</svg>