<svg xmlns="http://www.w3.org/2000/svg" width="1600" height="1000" viewBox="0 0 1600 1000">
<style>
  text {
    font-family: Arial, sans-serif;
    font-size: 12px;
    fill: #333;
  }
  .axis-label { font-size: 14px; }
  .title { font-size: 18px; font-weight: bold; }
  .legend-item { font-size: 11px; }
  .legend-box { fill: white; fill-opacity: 0.85; stroke: #cccccc; stroke-width: 1; rx: 5; }
</style>
<text x="800.0" y="30" text-anchor="middle" class="title">Daily Data Growth Trend</text>
<text x="800.0" y="980" text-anchor="middle" class="axis-label">Date</text>
<g transform="rotate(-90)">
<text x="-500.0" y="20" text-anchor="middle" class="axis-label">Count</text>
</g>
<rect x="0" y="0" width="1600" height="1000" fill="#f8f8f8" />
<line x1="80" y1="920.0" x2="1520" y2="920.0" stroke="#e0e0e0" stroke-width="1" />
<text x="70" y="925.0" text-anchor="end">0</text>
<line x1="80" y1="752.0" x2="1520" y2="752.0" stroke="#e0e0e0" stroke-width="1" />
<text x="70" y="757.0" text-anchor="end">15.9k</text>
<line x1="80" y1="584.0" x2="1520" y2="584.0" stroke="#e0e0e0" stroke-width="1" />
<text x="70" y="589.0" text-anchor="end">31.9k</text>
<line x1="80" y1="416.0" x2="1520" y2="416.0" stroke="#e0e0e0" stroke-width="1" />
<text x="70" y="421.0" text-anchor="end">47.8k</text>
<line x1="80" y1="248.0" x2="1520" y2="248.0" stroke="#e0e0e0" stroke-width="1" />
<text x="70" y="253.0" text-anchor="end">63.8k</text>
<line x1="80" y1="80.0" x2="1520" y2="80.0" stroke="#e0e0e0" stroke-width="1" />
<text x="70" y="85.0" text-anchor="end">79.7k</text>
<line x1="80" y1="80" x2="80" y2="920" stroke="#333333" stroke-width="2" />
<line x1="80" y1="920" x2="1520" y2="920" stroke="#333333" stroke-width="2" />
<circle cx="80.0" cy="920.0" r="4" fill="#1f77b4" />
<circle cx="135.3846153846154" cy="868.4761842018578" r="4" fill="#1f77b4" />
<circle cx="190.76923076923077" cy="759.2832202384874" r="4" fill="#1f77b4" />
<circle cx="246.15384615384616" cy="715.3593780881481" r="4" fill="#1f77b4" />
<circle cx="301.53846153846155" cy="688.9228539429475" r="4" fill="#1f77b4" />
<circle cx="356.9230769230769" cy="675.6518874761183" r="4" fill="#1f77b4" />
<circle cx="412.3076923076923" cy="649.2153633309177" r="4" fill="#1f77b4" />
<circle cx="467.69230769230774" cy="620.6812042954082" r="4" fill="#1f77b4" />
<circle cx="523.0769230769231" cy="594.3817115752026" r="4" fill="#1f77b4" />
<circle cx="578.4615384615385" cy="572.9415640028988" r="4" fill="#1f77b4" />
<circle cx="633.8461538461538" cy="553.3882337439884" r="4" fill="#1f77b4" />
<circle cx="689.2307692307693" cy="541.0975690098162" r="4" fill="#1f77b4" />
<circle cx="744.6153846153846" cy="528.9333948217933" r="4" fill="#1f77b4" />
<circle cx="800.0" cy="510.64497002437577" r="4" fill="#1f77b4" />
<circle cx="855.3846153846155" cy="484.67224454838924" r="4" fill="#1f77b4" />
<circle cx="910.7692307692308" cy="456.5808024244021" r="4" fill="#1f77b4" />
<circle cx="966.1538461538462" cy="437.93398774622835" r="4" fill="#1f77b4" />
<circle cx="1021.5384615384615" cy="412.4145200606101" r="4" fill="#1f77b4" />
<circle cx="1076.923076923077" cy="401.8736412148363" r="4" fill="#1f77b4" />
<circle cx="1132.3076923076924" cy="392.16549179787864" r="4" fill="#1f77b4" />
<circle cx="1187.6923076923076" cy="371.28401080440085" r="4" fill="#1f77b4" />
<circle cx="1243.076923076923" cy="350.75037881283356" r="4" fill="#1f77b4" />
<circle cx="1298.4615384615386" cy="332.5673628038737" r="4" fill="#1f77b4" />
<circle cx="1353.8461538461538" cy="307.46953027208644" r="4" fill="#1f77b4" />
<circle cx="1409.2307692307693" cy="290.1930298438632" r="4" fill="#1f77b4" />
<circle cx="1464.6153846153848" cy="279.5467422096317" r="4" fill="#1f77b4" />
<circle cx="1520.0" cy="267.5406812042954" r="4" fill="#1f77b4" />
<path d="M 80.0 920.0 L 135.3846153846154 868.4761842018578 L 190.76923076923077 759.2832202384874 L 246.15384615384616 715.3593780881481 L 301.53846153846155 688.9228539429475 L 356.9230769230769 675.6518874761183 L 412.3076923076923 649.2153633309177 L 467.69230769230774 620.6812042954082 L 523.0769230769231 594.3817115752026 L 578.4615384615385 572.9415640028988 L 633.8461538461538 553.3882337439884 L 689.2307692307693 541.0975690098162 L 744.6153846153846 528.9333948217933 L 800.0 510.64497002437577 L 855.3846153846155 484.67224454838924 L 910.7692307692308 456.5808024244021 L 966.1538461538462 437.93398774622835 L 1021.5384615384615 412.4145200606101 L 1076.923076923077 401.8736412148363 L 1132.3076923076924 392.16549179787864 L 1187.6923076923076 371.28401080440085 L 1243.076923076923 350.75037881283356 L 1298.4615384615386 332.5673628038737 L 1353.8461538461538 307.46953027208644 L 1409.2307692307693 290.1930298438632 L 1464.6153846153848 279.5467422096317 L 1520.0 267.5406812042954" fill="none" stroke="#1f77b4" stroke-width="2" />
<circle cx="80.0" cy="920.0" r="4" fill="#ff7f0e" />
<circle cx="135.3846153846154" cy="543.9436062981752" r="4" fill="#ff7f0e" />
<circle cx="190.76923076923077" cy="465.487845049081" r="4" fill="#ff7f0e" />
<circle cx="246.15384615384616" cy="440.326767244219" r="4" fill="#ff7f0e" />
<circle cx="301.53846153846155" cy="427.930693721589" r="4" fill="#ff7f0e" />
<circle cx="356.9230769230769" cy="418.23308518347716" r="4" fill="#ff7f0e" />
<circle cx="412.3076923076923" cy="400.9460438764082" r="4" fill="#ff7f0e" />
<circle cx="467.69230769230774" cy="379.01047499835295" r="4" fill="#ff7f0e" />
<circle cx="523.0769230769231" cy="361.5126161143685" r="4" fill="#ff7f0e" />
<circle cx="578.4615384615385" cy="347.09269385335006" r="4" fill="#ff7f0e" />
<circle cx="633.8461538461538" cy="332.50411753079914" r="4" fill="#ff7f0e" />
<circle cx="689.2307692307693" cy="324.8830621253047" r="4" fill="#ff7f0e" />
<circle cx="744.6153846153846" cy="315.4489755583372" r="4" fill="#ff7f0e" />
<circle cx="800.0" cy="304.71836089333954" r="4" fill="#ff7f0e" />
<circle cx="855.3846153846155" cy="290.3616839053956" r="4" fill="#ff7f0e" />
<circle cx="910.7692307692308" cy="271.1456617695501" r="4" fill="#ff7f0e" />
<circle cx="966.1538461538462" cy="258.8128335199947" r="4" fill="#ff7f0e" />
<circle cx="1021.5384615384615" cy="243.41260952631922" r="4" fill="#ff7f0e" />
<circle cx="1076.923076923077" cy="234.04176823242642" r="4" fill="#ff7f0e" />
<circle cx="1132.3076923076924" cy="226.56828513077278" r="4" fill="#ff7f0e" />
<circle cx="1187.6923076923076" cy="209.5869293102312" r="4" fill="#ff7f0e" />
<circle cx="1243.076923076923" cy="195.76783714342184" r="4" fill="#ff7f0e" />
<circle cx="1298.4615384615386" cy="179.40839317478094" r="4" fill="#ff7f0e" />
<circle cx="1353.8461538461538" cy="157.94716384478556" r="4" fill="#ff7f0e" />
<circle cx="1409.2307692307693" cy="144.5391659529613" r="4" fill="#ff7f0e" />
<circle cx="1464.6153846153848" cy="128.53811186507676" r="4" fill="#ff7f0e" />
<circle cx="1520.0" cy="124.56420054021999" r="4" fill="#ff7f0e" />
<path d="M 80.0 920.0 L 135.3846153846154 543.9436062981752 L 190.76923076923077 465.487845049081 L 246.15384615384616 440.326767244219 L 301.53846153846155 427.930693721589 L 356.9230769230769 418.23308518347716 L 412.3076923076923 400.9460438764082 L 467.69230769230774 379.01047499835295 L 523.0769230769231 361.5126161143685 L 578.4615384615385 347.09269385335006 L 633.8461538461538 332.50411753079914 L 689.2307692307693 324.8830621253047 L 744.6153846153846 315.4489755583372 L 800.0 304.71836089333954 L 855.3846153846155 290.3616839053956 L 910.7692307692308 271.1456617695501 L 966.1538461538462 258.8128335199947 L 1021.5384615384615 243.41260952631922 L 1076.923076923077 234.04176823242642 L 1132.3076923076924 226.56828513077278 L 1187.6923076923076 209.5869293102312 L 1243.076923076923 195.76783714342184 L 1298.4615384615386 179.40839317478094 L 1353.8461538461538 157.94716384478556 L 1409.2307692307693 144.5391659529613 L 1464.6153846153848 128.53811186507676 L 1520.0 124.56420054021999" fill="none" stroke="#ff7f0e" stroke-width="2" />
<circle cx="80.0" cy="920.0" r="4" fill="#2ca02c" />
<circle cx="135.3846153846154" cy="536.5544502272877" r="4" fill="#2ca02c" />
<circle cx="190.76923076923077" cy="458.404374464721" r="4" fill="#2ca02c" />
<circle cx="246.15384615384616" cy="433.4857368733118" r="4" fill="#2ca02c" />
<circle cx="301.53846153846155" cy="421.2793991699058" r="4" fill="#2ca02c" />
<circle cx="356.9230769230769" cy="411.60287238948547" r="4" fill="#2ca02c" />
<circle cx="412.3076923076923" cy="394.4950260227946" r="4" fill="#2ca02c" />
<circle cx="467.69230769230774" cy="372.84406087357536" r="4" fill="#2ca02c" />
<circle cx="523.0769230769231" cy="355.5464786876606" r="4" fill="#2ca02c" />
<circle cx="578.4615384615385" cy="341.2425060939456" r="4" fill="#2ca02c" />
<circle cx="633.8461538461538" cy="326.72771592331515" r="4" fill="#2ca02c" />
<circle cx="689.2307692307693" cy="319.22261018512415" r="4" fill="#2ca02c" />
<circle cx="744.6153846153846" cy="309.78852361815666" r="4" fill="#2ca02c" />
<circle cx="800.0" cy="299.0895315896963" r="4" fill="#2ca02c" />
<circle cx="855.3846153846155" cy="285.04908096712563" r="4" fill="#2ca02c" />
<circle cx="910.7692307692308" cy="266.24415310626523" r="4" fill="#2ca02c" />
<circle cx="966.1538461538462" cy="253.96402925093878" r="4" fill="#2ca02c" />
<circle cx="1021.5384615384615" cy="238.57434613610906" r="4" fill="#2ca02c" />
<circle cx="1076.923076923077" cy="229.1929639633704" r="4" fill="#2ca02c" />
<circle cx="1132.3076923076924" cy="221.74056261940837" r="4" fill="#2ca02c" />
<circle cx="1187.6923076923076" cy="204.87515646617032" r="4" fill="#2ca02c" />
<circle cx="1243.076923076923" cy="191.08768693589832" r="4" fill="#2ca02c" />
<circle cx="1298.4615384615386" cy="174.7493247249489" r="4" fill="#2ca02c" />
<circle cx="1353.8461538461538" cy="153.31971803149088" r="4" fill="#2ca02c" />
<circle cx="1409.2307692307693" cy="139.9538836550497" r="4" fill="#2ca02c" />
<circle cx="1464.6153846153848" cy="123.96337044601091" r="4" fill="#2ca02c" />
<circle cx="1520.0" cy="120.0" r="4" fill="#2ca02c" />
<path d="M 80.0 920.0 L 135.3846153846154 536.5544502272877 L 190.76923076923077 458.404374464721 L 246.15384615384616 433.4857368733118 L 301.53846153846155 421.2793991699058 L 356.9230769230769 411.60287238948547 L 412.3076923076923 394.4950260227946 L 467.69230769230774 372.84406087357536 L 523.0769230769231 355.5464786876606 L 578.4615384615385 341.2425060939456 L 633.8461538461538 326.72771592331515 L 689.2307692307693 319.22261018512415 L 744.6153846153846 309.78852361815666 L 800.0 299.0895315896963 L 855.3846153846155 285.04908096712563 L 910.7692307692308 266.24415310626523 L 966.1538461538462 253.96402925093878 L 1021.5384615384615 238.57434613610906 L 1076.923076923077 229.1929639633704 L 1132.3076923076924 221.74056261940837 L 1187.6923076923076 204.87515646617032 L 1243.076923076923 191.08768693589832 L 1298.4615384615386 174.7493247249489 L 1353.8461538461538 153.31971803149088 L 1409.2307692307693 139.9538836550497 L 1464.6153846153848 123.96337044601091 L 1520.0 120.0" fill="none" stroke="#2ca02c" stroke-width="2" />
<circle cx="80.0" cy="920.0" r="4" fill="#d62728" />
<circle cx="135.3846153846154" cy="845.6024771065288" r="4" fill="#d62728" />
<circle cx="190.76923076923077" cy="737.9273996969497" r="4" fill="#d62728" />
<circle cx="246.15384615384616" cy="700.6653929771395" r="4" fill="#d62728" />
<circle cx="301.53846153846155" cy="674.2815732261677" r="4" fill="#d62728" />
<circle cx="356.9230769230769" cy="661.1265564266421" r="4" fill="#d62728" />
<circle cx="412.3076923076923" cy="635.227617102576" r="4" fill="#d62728" />
<circle cx="467.69230769230774" cy="608.0216088016339" r="4" fill="#d62728" />
<circle cx="523.0769230769231" cy="582.9764806640753" r="4" fill="#d62728" />
<circle cx="578.4615384615385" cy="561.9895908821397" r="4" fill="#d62728" />
<circle cx="633.8461538461538" cy="542.4995058963041" r="4" fill="#d62728" />
<circle cx="689.2307692307693" cy="530.2299229198234" r="4" fill="#d62728" />
<circle cx="744.6153846153846" cy="518.0762896106463" r="4" fill="#d62728" />
<circle cx="800.0" cy="500.69438039396533" r="4" fill="#d62728" />
<circle cx="855.3846153846155" cy="475.0273404045062" r="4" fill="#d62728" />
<circle cx="910.7692307692308" cy="447.41023782857894" r="4" fill="#d62728" />
<circle cx="966.1538461538462" cy="429.64885697345017" r="4" fill="#d62728" />
<circle cx="1021.5384615384615" cy="404.4456156532051" r="4" fill="#d62728" />
<circle cx="1076.923076923077" cy="393.9047368074313" r="4" fill="#d62728" />
<circle cx="1132.3076923076924" cy="384.3019961789314" r="4" fill="#d62728" />
<circle cx="1187.6923076923076" cy="363.6734962777522" r="4" fill="#d62728" />
<circle cx="1243.076923076923" cy="344.38368798998613" r="4" fill="#d62728" />
<circle cx="1298.4615384615386" cy="326.27445813294685" r="4" fill="#d62728" />
<circle cx="1353.8461538461538" cy="301.19770735885106" r="4" fill="#d62728" />
<circle cx="1409.2307692307693" cy="284.49041438829966" r="4" fill="#d62728" />
<circle cx="1464.6153846153848" cy="273.84412675406816" r="4" fill="#d62728" />
<circle cx="1520.0" cy="261.827524869886" r="4" fill="#d62728" />
<path d="M 80.0 920.0 L 135.3846153846154 845.6024771065288 L 190.76923076923077 737.9273996969497 L 246.15384615384616 700.6653929771395 L 301.53846153846155 674.2815732261677 L 356.9230769230769 661.1265564266421 L 412.3076923076923 635.227617102576 L 467.69230769230774 608.0216088016339 L 523.0769230769231 582.9764806640753 L 578.4615384615385 561.9895908821397 L 633.8461538461538 542.4995058963041 L 689.2307692307693 530.2299229198234 L 744.6153846153846 518.0762896106463 L 800.0 500.69438039396533 L 855.3846153846155 475.0273404045062 L 910.7692307692308 447.41023782857894 L 966.1538461538462 429.64885697345017 L 1021.5384615384615 404.4456156532051 L 1076.923076923077 393.9047368074313 L 1132.3076923076924 384.3019961789314 L 1187.6923076923076 363.6734962777522 L 1243.076923076923 344.38368798998613 L 1298.4615384615386 326.27445813294685 L 1353.8461538461538 301.19770735885106 L 1409.2307692307693 284.49041438829966 L 1464.6153846153848 273.84412675406816 L 1520.0 261.827524869886" fill="none" stroke="#d62728" stroke-width="2" />
<circle cx="80.0" cy="920.0" r="4" fill="#9467bd" />
<circle cx="135.3846153846154" cy="853.4554318466302" r="4" fill="#9467bd" />
<circle cx="190.76923076923077" cy="745.369260162066" r="4" fill="#9467bd" />
<circle cx="246.15384615384616" cy="701.5508268001845" r="4" fill="#9467bd" />
<circle cx="301.53846153846155" cy="675.0826800184466" r="4" fill="#9467bd" />
<circle cx="356.9230769230769" cy="663.2768957111799" r="4" fill="#9467bd" />
<circle cx="412.3076923076923" cy="637.1565979313525" r="4" fill="#9467bd" />
<circle cx="467.69230769230774" cy="608.6962250477634" r="4" fill="#9467bd" />
<circle cx="523.0769230769231" cy="582.944858027538" r="4" fill="#9467bd" />
<circle cx="578.4615384615385" cy="561.7260689109955" r="4" fill="#9467bd" />
<circle cx="633.8461538461538" cy="542.4573423809211" r="4" fill="#9467bd" />
<circle cx="689.2307692307693" cy="530.1772185255945" r="4" fill="#9467bd" />
<circle cx="744.6153846153846" cy="517.9392581856512" r="4" fill="#9467bd" />
<circle cx="800.0" cy="499.7562421766915" r="4" fill="#9467bd" />
<circle cx="855.3846153846155" cy="474.2789380064563" r="4" fill="#9467bd" />
<circle cx="910.7692307692308" cy="446.12425060939455" r="4" fill="#9467bd" />
<circle cx="966.1538461538462" cy="427.8779893273602" r="4" fill="#9467bd" />
<circle cx="1021.5384615384615" cy="405.97404308584225" r="4" fill="#9467bd" />
<circle cx="1076.923076923077" cy="395.4226233612227" r="4" fill="#9467bd" />
<circle cx="1132.3076923076924" cy="385.71447394426514" r="4" fill="#9467bd" />
<circle cx="1187.6923076923076" cy="364.7802885565584" r="4" fill="#9467bd" />
<circle cx="1243.076923076923" cy="344.88965017458327" r="4" fill="#9467bd" />
<circle cx="1298.4615384615386" cy="326.8015020752355" r="4" fill="#9467bd" />
<circle cx="1353.8461538461538" cy="301.62988339152776" r="4" fill="#9467bd" />
<circle cx="1409.2307692307693" cy="284.6801502075235" r="4" fill="#9467bd" />
<circle cx="1464.6153846153848" cy="274.0654852098294" r="4" fill="#9467bd" />
<circle cx="1520.0" cy="262.04888332564724" r="4" fill="#9467bd" />
<path d="M 80.0 920.0 L 135.3846153846154 853.4554318466302 L 190.76923076923077 745.369260162066 L 246.15384615384616 701.5508268001845 L 301.53846153846155 675.0826800184466 L 356.9230769230769 663.2768957111799 L 412.3076923076923 637.1565979313525 L 467.69230769230774 608.6962250477634 L 523.0769230769231 582.944858027538 L 578.4615384615385 561.7260689109955 L 633.8461538461538 542.4573423809211 L 689.2307692307693 530.1772185255945 L 744.6153846153846 517.9392581856512 L 800.0 499.7562421766915 L 855.3846153846155 474.2789380064563 L 910.7692307692308 446.12425060939455 L 966.1538461538462 427.8779893273602 L 1021.5384615384615 405.97404308584225 L 1076.923076923077 395.4226233612227 L 1132.3076923076924 385.71447394426514 L 1187.6923076923076 364.7802885565584 L 1243.076923076923 344.88965017458327 L 1298.4615384615386 326.8015020752355 L 1353.8461538461538 301.62988339152776 L 1409.2307692307693 284.6801502075235 L 1464.6153846153848 274.0654852098294 L 1520.0 262.04888332564724" fill="none" stroke="#9467bd" stroke-width="2" />
<circle cx="80.0" cy="920.0" r="4" fill="#66ffbd" />
<circle cx="135.3846153846154" cy="588.0782660254299" r="4" fill="#66ffbd" />
<circle cx="190.76923076923077" cy="619.1211542262336" r="4" fill="#66ffbd" />
<circle cx="246.15384615384616" cy="638.1263587851637" r="4" fill="#66ffbd" />
<circle cx="301.53846153846155" cy="652.3565452269584" r="4" fill="#66ffbd" />
<circle cx="356.9230769230769" cy="655.9509849133672" r="4" fill="#66ffbd" />
<circle cx="412.3076923076923" cy="665.2796626918769" r="4" fill="#66ffbd" />
<circle cx="467.69230769230774" cy="672.1628565781672" r="4" fill="#66ffbd" />
<circle cx="523.0769230769231" cy="681.164767112458" r="4" fill="#66ffbd" />
<circle cx="578.4615384615385" cy="688.3009420910469" r="4" fill="#66ffbd" />
<circle cx="633.8461538461538" cy="693.3394821793268" r="4" fill="#66ffbd" />
<circle cx="689.2307692307693" cy="698.125041175308" r="4" fill="#66ffbd" />
<circle cx="744.6153846153846" cy="700.8551287963634" r="4" fill="#66ffbd" />
<circle cx="800.0" cy="708.4445615653206" r="4" fill="#66ffbd" />
<circle cx="855.3846153846155" cy="720.3768364187364" r="4" fill="#66ffbd" />
<circle cx="910.7692307692308" cy="729.6633506818631" r="4" fill="#66ffbd" />
<circle cx="966.1538461538462" cy="736.0300415047104" r="4" fill="#66ffbd" />
<circle cx="1021.5384615384615" cy="746.159826075499" r="4" fill="#66ffbd" />
<circle cx="1076.923076923077" cy="747.3193227485342" r="4" fill="#66ffbd" />
<circle cx="1132.3076923076924" cy="749.5750708215297" r="4" fill="#66ffbd" />
<circle cx="1187.6923076923076" cy="753.5911456617696" r="4" fill="#66ffbd" />
<circle cx="1243.076923076923" cy="760.3373081230648" r="4" fill="#66ffbd" />
<circle cx="1298.4615384615386" cy="762.1819619210752" r="4" fill="#66ffbd" />
<circle cx="1353.8461538461538" cy="765.8501877594044" r="4" fill="#66ffbd" />
<circle cx="1409.2307692307693" cy="769.7608538111865" r="4" fill="#66ffbd" />
<circle cx="1464.6153846153848" cy="764.4166282363792" r="4" fill="#66ffbd" />
<circle cx="1520.0" cy="772.4593187957046" r="4" fill="#66ffbd" />
<path d="M 80.0 920.0 L 135.3846153846154 588.0782660254299 L 190.76923076923077 619.1211542262336 L 246.15384615384616 638.1263587851637 L 301.53846153846155 652.3565452269584 L 356.9230769230769 655.9509849133672 L 412.3076923076923 665.2796626918769 L 467.69230769230774 672.1628565781672 L 523.0769230769231 681.164767112458 L 578.4615384615385 688.3009420910469 L 633.8461538461538 693.3394821793268 L 689.2307692307693 698.125041175308 L 744.6153846153846 700.8551287963634 L 800.0 708.4445615653206 L 855.3846153846155 720.3768364187364 L 910.7692307692308 729.6633506818631 L 966.1538461538462 736.0300415047104 L 1021.5384615384615 746.159826075499 L 1076.923076923077 747.3193227485342 L 1132.3076923076924 749.5750708215297 L 1187.6923076923076 753.5911456617696 L 1243.076923076923 760.3373081230648 L 1298.4615384615386 762.1819619210752 L 1353.8461538461538 765.8501877594044 L 1409.2307692307693 769.7608538111865 L 1464.6153846153848 764.4166282363792 L 1520.0 772.4593187957046" fill="none" stroke="#66ffbd" stroke-width="2" />
<text x="80.0" y="940" text-anchor="middle">08-06</text>
<text x="135.3846153846154" y="940" text-anchor="middle">08-07</text>
<text x="190.76923076923077" y="940" text-anchor="middle">08-08</text>
<text x="246.15384615384616" y="940" text-anchor="middle">08-09</text>
<text x="301.53846153846155" y="940" text-anchor="middle">08-10</text>
<text x="356.9230769230769" y="940" text-anchor="middle">08-11</text>
<text x="412.3076923076923" y="940" text-anchor="middle">08-12</text>
<text x="467.69230769230774" y="940" text-anchor="middle">08-13</text>
<text x="523.0769230769231" y="940" text-anchor="middle">08-14</text>
<text x="578.4615384615385" y="940" text-anchor="middle">08-15</text>
<text x="633.8461538461538" y="940" text-anchor="middle">08-16</text>
<text x="689.2307692307693" y="940" text-anchor="middle">08-17</text>
<text x="744.6153846153846" y="940" text-anchor="middle">08-18</text>
<text x="800.0" y="940" text-anchor="middle">08-19</text>
<text x="855.3846153846155" y="940" text-anchor="middle">08-20</text>
<text x="910.7692307692308" y="940" text-anchor="middle">08-21</text>
<text x="966.1538461538462" y="940" text-anchor="middle">08-22</text>
<text x="1021.5384615384615" y="940" text-anchor="middle">08-23</text>
<text x="1076.923076923077" y="940" text-anchor="middle">08-24</text>
<text x="1132.3076923076924" y="940" text-anchor="middle">08-25</text>
<text x="1187.6923076923076" y="940" text-anchor="middle">08-26</text>
<text x="1243.076923076923" y="940" text-anchor="middle">08-27</text>
<text x="1298.4615384615386" y="940" text-anchor="middle">08-28</text>
<text x="1353.8461538461538" y="940" text-anchor="middle">08-29</text>
<text x="1409.2307692307693" y="940" text-anchor="middle">08-30</text>
<text x="1464.6153846153848" y="940" text-anchor="middle">08-31</text>
<text x="1520.0" y="940" text-anchor="middle">09-01</text>
<rect x="90" y="100" width="130" height="185" class="legend-box" />
<text x="100" y="120" class="legend-item">图例:</text>
<rect x="100" y="137" width="15" height="15" fill="#1f77b4" rx="3" />
<text x="120" y="145" class="legend-item">构件聚合数据</text>
<rect x="100" y="162" width="15" height="15" fill="#ff7f0e" rx="3" />
<text x="120" y="170" class="legend-item">构件基本信息</text>
<rect x="100" y="187" width="15" height="15" fill="#2ca02c" rx="3" />
<text x="120" y="195" class="legend-item">构件徽标</text>
<rect x="100" y="212" width="15" height="15" fill="#d62728" rx="3" />
<text x="120" y="220" class="legend-item">构件扩展元数据</text>
<rect x="100" y="237" width="15" height="15" fill="#9467bd" rx="3" />
<text x="120" y="245" class="legend-item">构件版本信息</text>
<rect x="100" y="262" width="15" height="15" fill="#66ffbd" rx="3" />
<text x="120" y="270" class="legend-item">数据量偏差</text>
<text x="1520" y="990" text-anchor="end" font-size="10" fill="#666">生成时间: 2025-09-01 02:25:56</text>
</svg>