<svg xmlns="http://www.w3.org/2000/svg" width="1600" height="1000" viewBox="0 0 1600 1000">
<style>
  text {
    font-family: Arial, sans-serif;
    font-size: 12px;
    fill: #333;
  }
  .axis-label { font-size: 14px; }
  .title { font-size: 18px; font-weight: bold; }
  .legend-item { font-size: 11px; }
  .legend-box { fill: white; fill-opacity: 0.85; stroke: #cccccc; stroke-width: 1; rx: 5; }
</style>
<text x="800.0" y="30" text-anchor="middle" class="title">Daily Data Growth Trend</text>
<text x="800.0" y="980" text-anchor="middle" class="axis-label">Date</text>
<g transform="rotate(-90)">
<text x="-500.0" y="20" text-anchor="middle" class="axis-label">Count</text>
</g>
<rect x="0" y="0" width="1600" height="1000" fill="#f8f8f8" />
<line x1="80" y1="920.0" x2="1520" y2="920.0" stroke="#e0e0e0" stroke-width="1" />
<text x="70" y="925.0" text-anchor="end">0</text>
<line x1="80" y1="752.0" x2="1520" y2="752.0" stroke="#e0e0e0" stroke-width="1" />
<text x="70" y="757.0" text-anchor="end">19.0k</text>
<line x1="80" y1="584.0" x2="1520" y2="584.0" stroke="#e0e0e0" stroke-width="1" />
<text x="70" y="589.0" text-anchor="end">38.0k</text>
<line x1="80" y1="416.0" x2="1520" y2="416.0" stroke="#e0e0e0" stroke-width="1" />
<text x="70" y="421.0" text-anchor="end">57.0k</text>
<line x1="80" y1="248.0" x2="1520" y2="248.0" stroke="#e0e0e0" stroke-width="1" />
<text x="70" y="253.0" text-anchor="end">76.0k</text>
<line x1="80" y1="80.0" x2="1520" y2="80.0" stroke="#e0e0e0" stroke-width="1" />
<text x="70" y="85.0" text-anchor="end">95.0k</text>
<line x1="80" y1="80" x2="80" y2="920" stroke="#333333" stroke-width="2" />
<line x1="80" y1="920" x2="1520" y2="920" stroke="#333333" stroke-width="2" />
<circle cx="80.0" cy="920.0" r="4" fill="#1f77b4" />
<circle cx="114.28571428571428" cy="876.7906827699753" r="4" fill="#1f77b4" />
<circle cx="148.57142857142856" cy="785.2184002033172" r="4" fill="#1f77b4" />
<circle cx="182.85714285714286" cy="748.3826340622549" r="4" fill="#1f77b4" />
<circle cx="217.14285714285714" cy="726.2122233394844" r="4" fill="#1f77b4" />
<circle cx="251.42857142857142" cy="715.0828185946806" r="4" fill="#1f77b4" />
<circle cx="285.7142857142857" cy="692.9124078719102" r="4" fill="#1f77b4" />
<circle cx="320.0" cy="668.9828616890794" r="4" fill="#1f77b4" />
<circle cx="354.2857142857143" cy="646.9273693631974" r="4" fill="#1f77b4" />
<circle cx="388.57142857142856" cy="628.9470601885104" r="4" fill="#1f77b4" />
<circle cx="422.85714285714283" cy="612.5490889402092" r="4" fill="#1f77b4" />
<circle cx="457.1428571428571" cy="602.2417927269914" r="4" fill="#1f77b4" />
<circle cx="491.42857142857144" cy="592.0405750339783" r="4" fill="#1f77b4" />
<circle cx="525.7142857142858" cy="576.7033889877237" r="4" fill="#1f77b4" />
<circle cx="560.0" cy="554.9219328390368" r="4" fill="#1f77b4" />
<circle cx="594.2857142857142" cy="531.3636614769224" r="4" fill="#1f77b4" />
<circle cx="628.5714285714286" cy="515.7259196234213" r="4" fill="#1f77b4" />
<circle cx="662.8571428571429" cy="494.32457817213447" r="4" fill="#1f77b4" />
<circle cx="697.1428571428571" cy="485.4847014884142" r="4" fill="#1f77b4" />
<circle cx="731.4285714285714" cy="477.34317506270787" r="4" fill="#1f77b4" />
<circle cx="765.7142857142857" cy="459.831379352258" r="4" fill="#1f77b4" />
<circle cx="800.0" cy="442.61129957237097" r="4" fill="#1f77b4" />
<circle cx="834.2857142857142" cy="427.3625122929535" r="4" fill="#1f77b4" />
<circle cx="868.5714285714286" cy="406.3147659090156" r="4" fill="#1f77b4" />
<circle cx="902.8571428571429" cy="391.82620802439806" r="4" fill="#1f77b4" />
<circle cx="937.1428571428571" cy="382.89793257384054" r="4" fill="#1f77b4" />
<circle cx="971.4285714285714" cy="372.8293130310832" r="4" fill="#1f77b4" />
<circle cx="1005.7142857142857" cy="359.89657344280045" r="4" fill="#1f77b4" />
<circle cx="1040.0" cy="348.6699300544757" r="4" fill="#1f77b4" />
<circle cx="1074.2857142857142" cy="339.13170311274155" r="4" fill="#1f77b4" />
<circle cx="1108.5714285714284" cy="322.93704902816603" r="4" fill="#1f77b4" />
<circle cx="1142.857142857143" cy="309.72143338600426" r="4" fill="#1f77b4" />
<circle cx="1177.142857142857" cy="289.5665145471221" r="4" fill="#1f77b4" />
<circle cx="1211.4285714285713" cy="283.6614769223969" r="4" fill="#1f77b4" />
<circle cx="1245.7142857142858" cy="276.96085039613695" r="4" fill="#1f77b4" />
<circle cx="1280.0" cy="268.0767743289981" r="4" fill="#1f77b4" />
<circle cx="1314.2857142857142" cy="260.9341539685521" r="4" fill="#1f77b4" />
<circle cx="1348.5714285714284" cy="250.31746207140407" r="4" fill="#1f77b4" />
<circle cx="1382.857142857143" cy="238.4101481784329" r="4" fill="#1f77b4" />
<circle cx="1417.142857142857" cy="233.00014364799608" r="4" fill="#1f77b4" />
<circle cx="1451.4285714285713" cy="227.13046553000584" r="4" fill="#1f77b4" />
<circle cx="1485.7142857142858" cy="217.4154410545973" r="4" fill="#1f77b4" />
<circle cx="1520.0" cy="209.26507475220717" r="4" fill="#1f77b4" />
<path d="M 80.0 920.0 L 114.28571428571428 876.7906827699753 L 148.57142857142856 785.2184002033172 L 182.85714285714286 748.3826340622549 L 217.14285714285714 726.2122233394844 L 251.42857142857142 715.0828185946806 L 285.7142857142857 692.9124078719102 L 320.0 668.9828616890794 L 354.2857142857143 646.9273693631974 L 388.57142857142856 628.9470601885104 L 422.85714285714283 612.5490889402092 L 457.1428571428571 602.2417927269914 L 491.42857142857144 592.0405750339783 L 525.7142857142858 576.7033889877237 L 560.0 554.9219328390368 L 594.2857142857142 531.3636614769224 L 628.5714285714286 515.7259196234213 L 662.8571428571429 494.32457817213447 L 697.1428571428571 485.4847014884142 L 731.4285714285714 477.34317506270787 L 765.7142857142857 459.831379352258 L 800.0 442.61129957237097 L 834.2857142857142 427.3625122929535 L 868.5714285714286 406.3147659090156 L 902.8571428571429 391.82620802439806 L 937.1428571428571 382.89793257384054 L 971.4285714285714 372.8293130310832 L 1005.7142857142857 359.89657344280045 L 1040.0 348.6699300544757 L 1074.2857142857142 339.13170311274155 L 1108.5714285714284 322.93704902816603 L 1142.857142857143 309.72143338600426 L 1177.142857142857 289.5665145471221 L 1211.4285714285713 283.6614769223969 L 1245.7142857142858 276.96085039613695 L 1280.0 268.0767743289981 L 1314.2857142857142 260.9341539685521 L 1348.5714285714284 250.31746207140407 L 1382.857142857143 238.4101481784329 L 1417.142857142857 233.00014364799608 L 1451.4285714285713 227.13046553000584 L 1485.7142857142858 217.4154410545973 L 1520.0 209.26507475220717" fill="none" stroke="#1f77b4" stroke-width="2" />
<circle cx="80.0" cy="920.0" r="4" fill="#ff7f0e" />
<circle cx="114.28571428571428" cy="604.6285594315959" r="4" fill="#ff7f0e" />
<circle cx="148.57142857142856" cy="538.833357274666" r="4" fill="#ff7f0e" />
<circle cx="182.85714285714286" cy="517.7325716306257" r="4" fill="#ff7f0e" />
<circle cx="217.14285714285714" cy="507.33687665057073" r="4" fill="#ff7f0e" />
<circle cx="251.42857142857142" cy="499.2041901015481" r="4" fill="#ff7f0e" />
<circle cx="285.7142857142857" cy="484.70679234024686" r="4" fill="#ff7f0e" />
<circle cx="320.0" cy="466.311008961425" r="4" fill="#ff7f0e" />
<circle cx="354.2857142857143" cy="451.6368136664493" r="4" fill="#ff7f0e" />
<circle cx="388.57142857142856" cy="439.54386236312" r="4" fill="#ff7f0e" />
<circle cx="422.85714285714283" cy="427.3094730328512" r="4" fill="#ff7f0e" />
<circle cx="457.1428571428571" cy="420.9182421905214" r="4" fill="#ff7f0e" />
<circle cx="491.42857142857144" cy="413.0065525585918" r="4" fill="#ff7f0e" />
<circle cx="525.7142857142858" cy="404.0075580945646" r="4" fill="#ff7f0e" />
<circle cx="560.0" cy="391.9676460513376" r="4" fill="#ff7f0e" />
<circle cx="594.2857142857142" cy="375.8525508569155" r="4" fill="#ff7f0e" />
<circle cx="628.5714285714286" cy="365.50989513696277" r="4" fill="#ff7f0e" />
<circle cx="662.8571428571429" cy="352.5948353020475" r="4" fill="#ff7f0e" />
<circle cx="697.1428571428571" cy="344.73618493022025" r="4" fill="#ff7f0e" />
<circle cx="731.4285714285714" cy="338.4687123614625" r="4" fill="#ff7f0e" />
<circle cx="765.7142857142857" cy="324.22767102398916" r="4" fill="#ff7f0e" />
<circle cx="800.0" cy="312.63859269163197" r="4" fill="#ff7f0e" />
<circle cx="834.2857142857142" cy="298.9191040784981" r="4" fill="#ff7f0e" />
<circle cx="868.5714285714286" cy="280.9211151504436" r="4" fill="#ff7f0e" />
<circle cx="902.8571428571429" cy="269.6767920087515" r="4" fill="#ff7f0e" />
<circle cx="937.1428571428571" cy="256.2578592028641" r="4" fill="#ff7f0e" />
<circle cx="971.4285714285714" cy="252.92522569310154" r="4" fill="#ff7f0e" />
<circle cx="1005.7142857142857" cy="241.5748240312048" r="4" fill="#ff7f0e" />
<circle cx="1040.0" cy="233.9813699598891" r="4" fill="#ff7f0e" />
<circle cx="1074.2857142857142" cy="226.71499132587098" r="4" fill="#ff7f0e" />
<circle cx="1108.5714285714284" cy="213.20765975314646" r="4" fill="#ff7f0e" />
<circle cx="1142.857142857143" cy="201.0793489430822" r="4" fill="#ff7f0e" />
<circle cx="1177.142857142857" cy="187.71345539729714" r="4" fill="#ff7f0e" />
<circle cx="1211.4285714285713" cy="182.83384346788364" r="4" fill="#ff7f0e" />
<circle cx="1245.7142857142858" cy="177.83047326489793" r="4" fill="#ff7f0e" />
<circle cx="1280.0" cy="171.0856473552194" r="4" fill="#ff7f0e" />
<circle cx="1314.2857142857142" cy="165.23364899059652" r="4" fill="#ff7f0e" />
<circle cx="1348.5714285714284" cy="156.1550956364158" r="4" fill="#ff7f0e" />
<circle cx="1382.857142857143" cy="146.58150918794684" r="4" fill="#ff7f0e" />
<circle cx="1417.142857142857" cy="140.12839920883107" r="4" fill="#ff7f0e" />
<circle cx="1451.4285714285713" cy="136.2653730980453" r="4" fill="#ff7f0e" />
<circle cx="1485.7142857142858" cy="128.2210853158598" r="4" fill="#ff7f0e" />
<circle cx="1520.0" cy="122.78456115537188" r="4" fill="#ff7f0e" />
<path d="M 80.0 920.0 L 114.28571428571428 604.6285594315959 L 148.57142857142856 538.833357274666 L 182.85714285714286 517.7325716306257 L 217.14285714285714 507.33687665057073 L 251.42857142857142 499.2041901015481 L 285.7142857142857 484.70679234024686 L 320.0 466.311008961425 L 354.2857142857143 451.6368136664493 L 388.57142857142856 439.54386236312 L 422.85714285714283 427.3094730328512 L 457.1428571428571 420.9182421905214 L 491.42857142857144 413.0065525585918 L 525.7142857142858 404.0075580945646 L 560.0 391.9676460513376 L 594.2857142857142 375.8525508569155 L 628.5714285714286 365.50989513696277 L 662.8571428571429 352.5948353020475 L 697.1428571428571 344.73618493022025 L 731.4285714285714 338.4687123614625 L 765.7142857142857 324.22767102398916 L 800.0 312.63859269163197 L 834.2857142857142 298.9191040784981 L 868.5714285714286 280.9211151504436 L 902.8571428571429 269.6767920087515 L 937.1428571428571 256.2578592028641 L 971.4285714285714 252.92522569310154 L 1005.7142857142857 241.5748240312048 L 1040.0 233.9813699598891 L 1074.2857142857142 226.71499132587098 L 1108.5714285714284 213.20765975314646 L 1142.857142857143 201.0793489430822 L 1177.142857142857 187.71345539729714 L 1211.4285714285713 182.83384346788364 L 1245.7142857142858 177.83047326489793 L 1280.0 171.0856473552194 L 1314.2857142857142 165.23364899059652 L 1348.5714285714284 156.1550956364158 L 1382.857142857143 146.58150918794684 L 1417.142857142857 140.12839920883107 L 1451.4285714285713 136.2653730980453 L 1485.7142857142858 128.2210853158598 L 1520.0 122.78456115537188" fill="none" stroke="#ff7f0e" stroke-width="2" />
<circle cx="80.0" cy="920.0" r="4" fill="#2ca02c" />
<circle cx="114.28571428571428" cy="598.4318058763081" r="4" fill="#2ca02c" />
<circle cx="148.57142857142856" cy="532.892960143206" r="4" fill="#2ca02c" />
<circle cx="182.85714285714286" cy="511.9954916628913" r="4" fill="#2ca02c" />
<circle cx="217.14285714285714" cy="501.75891446314324" r="4" fill="#2ca02c" />
<circle cx="251.42857142857142" cy="493.643907667488" r="4" fill="#2ca02c" />
<circle cx="285.7142857142857" cy="479.29678780981004" r="4" fill="#2ca02c" />
<circle cx="320.0" cy="461.1396811014486" r="4" fill="#2ca02c" />
<circle cx="354.2857142857143" cy="446.63344346346366" r="4" fill="#2ca02c" />
<circle cx="388.57142857142856" cy="434.6377308036553" r="4" fill="#2ca02c" />
<circle cx="422.85714285714283" cy="422.4652206101725" r="4" fill="#2ca02c" />
<circle cx="457.1428571428571" cy="416.17122841136364" r="4" fill="#2ca02c" />
<circle cx="491.42857142857144" cy="408.259538779434" r="4" fill="#2ca02c" />
<circle cx="525.7142857142858" cy="399.28706394545793" r="4" fill="#2ca02c" />
<circle cx="560.0" cy="387.5123482027426" r="4" fill="#2ca02c" />
<circle cx="594.2857142857142" cy="371.74200819898556" r="4" fill="#2ca02c" />
<circle cx="628.5714285714286" cy="361.4435518624515" r="4" fill="#2ca02c" />
<circle cx="662.8571428571429" cy="348.53733190421997" r="4" fill="#2ca02c" />
<circle cx="697.1428571428571" cy="340.66984165570886" r="4" fill="#2ca02c" />
<circle cx="731.4285714285714" cy="334.4200488403187" r="4" fill="#2ca02c" />
<circle cx="765.7142857142857" cy="320.27624614636625" r="4" fill="#2ca02c" />
<circle cx="800.0" cy="308.71368744406016" r="4" fill="#2ca02c" />
<circle cx="834.2857142857142" cy="295.01187858429375" r="4" fill="#2ca02c" />
<circle cx="868.5714285714286" cy="277.04040928629047" r="4" fill="#2ca02c" />
<circle cx="902.8571428571429" cy="265.8314456513332" r="4" fill="#2ca02c" />
<circle cx="937.1428571428571" cy="252.42135272212954" r="4" fill="#2ca02c" />
<circle cx="971.4285714285714" cy="249.09755908905072" r="4" fill="#2ca02c" />
<circle cx="1005.7142857142857" cy="237.7559973038376" r="4" fill="#2ca02c" />
<circle cx="1040.0" cy="230.189062862573" r="4" fill="#2ca02c" />
<circle cx="1074.2857142857142" cy="222.96688361197357" r="4" fill="#2ca02c" />
<circle cx="1108.5714285714284" cy="209.76894772317928" r="4" fill="#2ca02c" />
<circle cx="1142.857142857143" cy="197.67599641984987" r="4" fill="#2ca02c" />
<circle cx="1177.142857142857" cy="184.6813776947812" r="4" fill="#2ca02c" />
<circle cx="1211.4285714285713" cy="179.80176576536758" r="4" fill="#2ca02c" />
<circle cx="1245.7142857142858" cy="174.86027469916792" r="4" fill="#2ca02c" />
<circle cx="1280.0" cy="168.12428866617313" r="4" fill="#2ca02c" />
<circle cx="1314.2857142857142" cy="162.29880993160145" r="4" fill="#2ca02c" />
<circle cx="1348.5714285714284" cy="153.22025657742074" r="4" fill="#2ca02c" />
<circle cx="1382.857142857143" cy="143.69086951237023" r="4" fill="#2ca02c" />
<circle cx="1417.142857142857" cy="137.2465994099382" r="4" fill="#2ca02c" />
<circle cx="1451.4285714285713" cy="133.38357329915243" r="4" fill="#2ca02c" />
<circle cx="1485.7142857142858" cy="125.34812539365078" r="4" fill="#2ca02c" />
<circle cx="1520.0" cy="120.0" r="4" fill="#2ca02c" />
<path d="M 80.0 920.0 L 114.28571428571428 598.4318058763081 L 148.57142857142856 532.892960143206 L 182.85714285714286 511.9954916628913 L 217.14285714285714 501.75891446314324 L 251.42857142857142 493.643907667488 L 285.7142857142857 479.29678780981004 L 320.0 461.1396811014486 L 354.2857142857143 446.63344346346366 L 388.57142857142856 434.6377308036553 L 422.85714285714283 422.4652206101725 L 457.1428571428571 416.17122841136364 L 491.42857142857144 408.259538779434 L 525.7142857142858 399.28706394545793 L 560.0 387.5123482027426 L 594.2857142857142 371.74200819898556 L 628.5714285714286 361.4435518624515 L 662.8571428571429 348.53733190421997 L 697.1428571428571 340.66984165570886 L 731.4285714285714 334.4200488403187 L 765.7142857142857 320.27624614636625 L 800.0 308.71368744406016 L 834.2857142857142 295.01187858429375 L 868.5714285714286 277.04040928629047 L 902.8571428571429 265.8314456513332 L 937.1428571428571 252.42135272212954 L 971.4285714285714 249.09755908905072 L 1005.7142857142857 237.7559973038376 L 1040.0 230.189062862573 L 1074.2857142857142 222.96688361197357 L 1108.5714285714284 209.76894772317928 L 1142.857142857143 197.67599641984987 L 1177.142857142857 184.6813776947812 L 1211.4285714285713 179.80176576536758 L 1245.7142857142858 174.86027469916792 L 1280.0 168.12428866617313 L 1314.2857142857142 162.29880993160145 L 1348.5714285714284 153.22025657742074 L 1382.857142857143 143.69086951237023 L 1417.142857142857 137.2465994099382 L 1451.4285714285713 133.38357329915243 L 1485.7142857142858 125.34812539365078 L 1520.0 120.0" fill="none" stroke="#2ca02c" stroke-width="2" />
<circle cx="80.0" cy="920.0" r="4" fill="#d62728" />
<circle cx="114.28571428571428" cy="857.6081503663024" r="4" fill="#d62728" />
<circle cx="148.57142857142856" cy="767.3088100420999" r="4" fill="#d62728" />
<circle cx="182.85714285714286" cy="736.0598459651487" r="4" fill="#d62728" />
<circle cx="217.14285714285714" cy="713.9336346257969" r="4" fill="#d62728" />
<circle cx="251.42857142857142" cy="702.901468524514" r="4" fill="#d62728" />
<circle cx="285.7142857142857" cy="681.1818915126134" r="4" fill="#d62728" />
<circle cx="320.0" cy="658.3661697919314" r="4" fill="#d62728" />
<circle cx="354.2857142857143" cy="637.362622791412" r="4" fill="#d62728" />
<circle cx="388.57142857142856" cy="619.762428314125" r="4" fill="#d62728" />
<circle cx="422.85714285714283" cy="603.4174963259263" r="4" fill="#d62728" />
<circle cx="457.1428571428571" cy="593.1278798660759" r="4" fill="#d62728" />
<circle cx="491.42857142857144" cy="582.9355020497464" r="4" fill="#d62728" />
<circle cx="525.7142857142858" cy="568.3585453982917" r="4" fill="#d62728" />
<circle cx="560.0" cy="546.8334456734328" r="4" fill="#d62728" />
<circle cx="594.2857142857142" cy="523.6729687620857" r="4" fill="#d62728" />
<circle cx="628.5714285714286" cy="508.7777765500171" r="4" fill="#d62728" />
<circle cx="662.8571428571429" cy="487.641631399242" r="4" fill="#d62728" />
<circle cx="697.1428571428571" cy="478.8017547155217" r="4" fill="#d62728" />
<circle cx="731.4285714285714" cy="470.74862705665254" r="4" fill="#d62728" />
<circle cx="765.7142857142857" cy="453.448988386612" r="4" fill="#d62728" />
<circle cx="800.0" cy="437.27201405540393" r="4" fill="#d62728" />
<circle cx="834.2857142857142" cy="422.0851059127725" r="4" fill="#d62728" />
<circle cx="868.5714285714286" cy="401.05503928220196" r="4" fill="#d62728" />
<circle cx="902.8571428571429" cy="387.0438347385053" r="4" fill="#d62728" />
<circle cx="937.1428571428571" cy="378.1155592879479" r="4" fill="#d62728" />
<circle cx="971.4285714285714" cy="368.03809986850683" r="4" fill="#d62728" />
<circle cx="1005.7142857142857" cy="355.1053602802241" r="4" fill="#d62728" />
<circle cx="1040.0" cy="344.6301064100155" r="4" fill="#d62728" />
<circle cx="1074.2857142857142" cy="335.10955922164885" r="4" fill="#d62728" />
<circle cx="1108.5714285714284" cy="318.95026464380817" r="4" fill="#d62728" />
<circle cx="1142.857142857143" cy="305.74348887833014" r="4" fill="#d62728" />
<circle cx="1177.142857142857" cy="285.6946485596526" r="4" fill="#d62728" />
<circle cx="1211.4285714285713" cy="279.8161305649786" r="4" fill="#d62728" />
<circle cx="1245.7142857142858" cy="273.11550403871865" r="4" fill="#d62728" />
<circle cx="1280.0" cy="264.29330710836587" r="4" fill="#d62728" />
<circle cx="1314.2857142857142" cy="257.1418468712361" r="4" fill="#d62728" />
<circle cx="1348.5714285714284" cy="246.5781942341904" r="4" fill="#d62728" />
<circle cx="1382.857142857143" cy="235.33387109249827" r="4" fill="#d62728" />
<circle cx="1417.142857142857" cy="229.95038619211255" r="4" fill="#d62728" />
<circle cx="1451.4285714285713" cy="224.0807080741223" r="4" fill="#d62728" />
<circle cx="1485.7142857142858" cy="214.39220322876497" r="4" fill="#d62728" />
<circle cx="1520.0" cy="206.32139581652837" r="4" fill="#d62728" />
<path d="M 80.0 920.0 L 114.28571428571428 857.6081503663024 L 148.57142857142856 767.3088100420999 L 182.85714285714286 736.0598459651487 L 217.14285714285714 713.9336346257969 L 251.42857142857142 702.901468524514 L 285.7142857142857 681.1818915126134 L 320.0 658.3661697919314 L 354.2857142857143 637.362622791412 L 388.57142857142856 619.762428314125 L 422.85714285714283 603.4174963259263 L 457.1428571428571 593.1278798660759 L 491.42857142857144 582.9355020497464 L 525.7142857142858 568.3585453982917 L 560.0 546.8334456734328 L 594.2857142857142 523.6729687620857 L 628.5714285714286 508.7777765500171 L 662.8571428571429 487.641631399242 L 697.1428571428571 478.8017547155217 L 731.4285714285714 470.74862705665254 L 765.7142857142857 453.448988386612 L 800.0 437.27201405540393 L 834.2857142857142 422.0851059127725 L 868.5714285714286 401.05503928220196 L 902.8571428571429 387.0438347385053 L 937.1428571428571 378.1155592879479 L 971.4285714285714 368.03809986850683 L 1005.7142857142857 355.1053602802241 L 1040.0 344.6301064100155 L 1074.2857142857142 335.10955922164885 L 1108.5714285714284 318.95026464380817 L 1142.857142857143 305.74348887833014 L 1177.142857142857 285.6946485596526 L 1211.4285714285713 279.8161305649786 L 1245.7142857142858 273.11550403871865 L 1280.0 264.29330710836587 L 1314.2857142857142 257.1418468712361 L 1348.5714285714284 246.5781942341904 L 1382.857142857143 235.33387109249827 L 1417.142857142857 229.95038619211255 L 1451.4285714285713 224.0807080741223 L 1485.7142857142858 214.39220322876497 L 1520.0 206.32139581652837" fill="none" stroke="#d62728" stroke-width="2" />
<circle cx="80.0" cy="920.0" r="4" fill="#9467bd" />
<circle cx="114.28571428571428" cy="864.193858495674" r="4" fill="#9467bd" />
<circle cx="148.57142857142856" cy="773.5497629808065" r="4" fill="#9467bd" />
<circle cx="182.85714285714286" cy="736.8023956065813" r="4" fill="#9467bd" />
<circle cx="217.14285714285714" cy="714.6054652537597" r="4" fill="#9467bd" />
<circle cx="251.42857142857142" cy="704.704803367993" r="4" fill="#9467bd" />
<circle cx="285.7142857142857" cy="682.7995889457342" r="4" fill="#9467bd" />
<circle cx="320.0" cy="658.9319218996895" r="4" fill="#9467bd" />
<circle cx="354.2857142857143" cy="637.3361031613608" r="4" fill="#9467bd" />
<circle cx="388.57142857142856" cy="619.541431397032" r="4" fill="#9467bd" />
<circle cx="422.85714285714283" cy="603.3821368191914" r="4" fill="#9467bd" />
<circle cx="457.1428571428571" cy="593.0836804826572" r="4" fill="#9467bd" />
<circle cx="491.42857142857144" cy="582.820583652858" r="4" fill="#9467bd" />
<circle cx="525.7142857142858" cy="567.5717963734405" r="4" fill="#9467bd" />
<circle cx="560.0" cy="546.2058144288887" r="4" fill="#9467bd" />
<circle cx="594.2857142857142" cy="522.5945038066718" r="4" fill="#9467bd" />
<circle cx="628.5714285714286" cy="507.2926772671521" r="4" fill="#9467bd" />
<circle cx="662.8571428571429" cy="488.9234135183814" r="4" fill="#9467bd" />
<circle cx="697.1428571428571" cy="480.07469695797744" r="4" fill="#9467bd" />
<circle cx="731.4285714285714" cy="471.93317053227105" r="4" fill="#9467bd" />
<circle cx="765.7142857142857" cy="454.3771754384026" r="4" fill="#9467bd" />
<circle cx="800.0" cy="437.69632813622246" r="4" fill="#9467bd" />
<circle cx="834.2857142857142" cy="422.5270997469585" r="4" fill="#9467bd" />
<circle cx="868.5714285714286" cy="401.4174742262345" r="4" fill="#9467bd" />
<circle cx="902.8571428571429" cy="387.20295251881237" r="4" fill="#9467bd" />
<circle cx="937.1428571428571" cy="378.30119669830606" r="4" fill="#9467bd" />
<circle cx="971.4285714285714" cy="368.223737278865" r="4" fill="#9467bd" />
<circle cx="1005.7142857142857" cy="355.27331793721476" r="4" fill="#9467bd" />
<circle cx="1040.0" cy="344.4533088763411" r="4" fill="#9467bd" />
<circle cx="1074.2857142857142" cy="334.93276168797445" r="4" fill="#9467bd" />
<circle cx="1108.5714285714284" cy="318.99446402722685" r="4" fill="#9467bd" />
<circle cx="1142.857142857143" cy="306.0882440689952" r="4" fill="#9467bd" />
<circle cx="1177.142857142857" cy="285.9244853534293" r="4" fill="#9467bd" />
<circle cx="1211.4285714285713" cy="279.992928098653" r="4" fill="#9467bd" />
<circle cx="1245.7142857142858" cy="273.56633774958834" r="4" fill="#9467bd" />
<circle cx="1280.0" cy="264.71762118918434" r="4" fill="#9467bd" />
<circle cx="1314.2857142857142" cy="257.5396413220035" r="4" fill="#9467bd" />
<circle cx="1348.5714285714284" cy="246.89642979480436" r="4" fill="#9467bd" />
<circle cx="1382.857142857143" cy="234.9891159018332" r="4" fill="#9467bd" />
<circle cx="1417.142857142857" cy="229.57911137139638" r="4" fill="#9467bd" />
<circle cx="1451.4285714285713" cy="223.70943325340613" r="4" fill="#9467bd" />
<circle cx="1485.7142857142858" cy="214.01208853136495" r="4" fill="#9467bd" />
<circle cx="1520.0" cy="205.84404247560747" r="4" fill="#9467bd" />
<path d="M 80.0 920.0 L 114.28571428571428 864.193858495674 L 148.57142857142856 773.5497629808065 L 182.85714285714286 736.8023956065813 L 217.14285714285714 714.6054652537597 L 251.42857142857142 704.704803367993 L 285.7142857142857 682.7995889457342 L 320.0 658.9319218996895 L 354.2857142857143 637.3361031613608 L 388.57142857142856 619.541431397032 L 422.85714285714283 603.3821368191914 L 457.1428571428571 593.0836804826572 L 491.42857142857144 582.820583652858 L 525.7142857142858 567.5717963734405 L 560.0 546.2058144288887 L 594.2857142857142 522.5945038066718 L 628.5714285714286 507.2926772671521 L 662.8571428571429 488.9234135183814 L 697.1428571428571 480.07469695797744 L 731.4285714285714 471.93317053227105 L 765.7142857142857 454.3771754384026 L 800.0 437.69632813622246 L 834.2857142857142 422.5270997469585 L 868.5714285714286 401.4174742262345 L 902.8571428571429 387.20295251881237 L 937.1428571428571 378.30119669830606 L 971.4285714285714 368.223737278865 L 1005.7142857142857 355.27331793721476 L 1040.0 344.4533088763411 L 1074.2857142857142 334.93276168797445 L 1108.5714285714284 318.99446402722685 L 1142.857142857143 306.0882440689952 L 1177.142857142857 285.9244853534293 L 1211.4285714285713 279.992928098653 L 1245.7142857142858 273.56633774958834 L 1280.0 264.71762118918434 L 1314.2857142857142 257.5396413220035 L 1348.5714285714284 246.89642979480436 L 1382.857142857143 234.9891159018332 L 1417.142857142857 229.57911137139638 L 1451.4285714285713 223.70943325340613 L 1485.7142857142858 214.01208853136495 L 1520.0 205.84404247560747" fill="none" stroke="#9467bd" stroke-width="2" />
<circle cx="80.0" cy="920.0" r="4" fill="#66ffbd" />
<circle cx="114.28571428571428" cy="641.6411231063327" r="4" fill="#66ffbd" />
<circle cx="148.57142857142856" cy="667.6745599398888" r="4" fill="#66ffbd" />
<circle cx="182.85714285714286" cy="683.6128576006365" r="4" fill="#66ffbd" />
<circle cx="217.14285714285714" cy="695.5466911236588" r="4" fill="#66ffbd" />
<circle cx="251.42857142857142" cy="698.5610890728074" r="4" fill="#66ffbd" />
<circle cx="285.7142857142857" cy="706.3843799378999" r="4" fill="#66ffbd" />
<circle cx="320.0" cy="712.1568194123693" r="4" fill="#66ffbd" />
<circle cx="354.2857142857143" cy="719.7060741002663" r="4" fill="#66ffbd" />
<circle cx="388.57142857142856" cy="725.6906706151449" r="4" fill="#66ffbd" />
<circle cx="422.85714285714283" cy="729.9161316699632" r="4" fill="#66ffbd" />
<circle cx="457.1428571428571" cy="733.9294356843723" r="4" fill="#66ffbd" />
<circle cx="491.42857142857144" cy="736.2189637454558" r="4" fill="#66ffbd" />
<circle cx="525.7142857142858" cy="742.5836749577343" r="4" fill="#66ffbd" />
<circle cx="560.0" cy="752.5904153637057" r="4" fill="#66ffbd" />
<circle cx="594.2857142857142" cy="760.3783467220633" r="4" fill="#66ffbd" />
<circle cx="628.5714285714286" cy="765.7176322390303" r="4" fill="#66ffbd" />
<circle cx="662.8571428571429" cy="774.2127537320855" r="4" fill="#66ffbd" />
<circle cx="697.1428571428571" cy="775.1851401672947" r="4" fill="#66ffbd" />
<circle cx="731.4285714285714" cy="777.0768737776108" r="4" fill="#66ffbd" />
<circle cx="765.7142857142857" cy="780.4448667941082" r="4" fill="#66ffbd" />
<circle cx="800.0" cy="786.1023878716892" r="4" fill="#66ffbd" />
<circle cx="834.2857142857142" cy="787.6493662913402" r="4" fill="#66ffbd" />
<circle cx="868.5714285714286" cy="790.7256433772749" r="4" fill="#66ffbd" />
<circle cx="902.8571428571429" cy="794.0052376269351" r="4" fill="#66ffbd" />
<circle cx="937.1428571428571" cy="789.5234201482889" r="4" fill="#66ffbd" />
<circle cx="971.4285714285714" cy="796.2682460579675" r="4" fill="#66ffbd" />
<circle cx="1005.7142857142857" cy="797.8594238610372" r="4" fill="#66ffbd" />
<circle cx="1040.0" cy="801.5191328080973" r="4" fill="#66ffbd" />
<circle cx="1074.2857142857142" cy="803.835180499232" r="4" fill="#66ffbd" />
<circle cx="1108.5714285714284" cy="806.8318986950133" r="4" fill="#66ffbd" />
<circle cx="1142.857142857143" cy="807.9545630338457" r="4" fill="#66ffbd" />
<circle cx="1177.142857142857" cy="815.1148631476591" r="4" fill="#66ffbd" />
<circle cx="1211.4285714285713" cy="816.1402888429707" r="4" fill="#66ffbd" />
<circle cx="1245.7142857142858" cy="817.899424303031" r="4" fill="#66ffbd" />
<circle cx="1280.0" cy="820.047514337175" r="4" fill="#66ffbd" />
<circle cx="1314.2857142857142" cy="821.3646559630494" r="4" fill="#66ffbd" />
<circle cx="1348.5714285714284" cy="822.9027945060167" r="4" fill="#66ffbd" />
<circle cx="1382.857142857143" cy="825.2807213339374" r="4" fill="#66ffbd" />
<circle cx="1417.142857142857" cy="824.2464557619421" r="4" fill="#66ffbd" />
<circle cx="1451.4285714285713" cy="826.2531077691466" r="4" fill="#66ffbd" />
<circle cx="1485.7142857142858" cy="827.9326843390535" r="4" fill="#66ffbd" />
<circle cx="1520.0" cy="830.7349252477928" r="4" fill="#66ffbd" />
<path d="M 80.0 920.0 L 114.28571428571428 641.6411231063327 L 148.57142857142856 667.6745599398888 L 182.85714285714286 683.6128576006365 L 217.14285714285714 695.5466911236588 L 251.42857142857142 698.5610890728074 L 285.7142857142857 706.3843799378999 L 320.0 712.1568194123693 L 354.2857142857143 719.7060741002663 L 388.57142857142856 725.6906706151449 L 422.85714285714283 729.9161316699632 L 457.1428571428571 733.9294356843723 L 491.42857142857144 736.2189637454558 L 525.7142857142858 742.5836749577343 L 560.0 752.5904153637057 L 594.2857142857142 760.3783467220633 L 628.5714285714286 765.7176322390303 L 662.8571428571429 774.2127537320855 L 697.1428571428571 775.1851401672947 L 731.4285714285714 777.0768737776108 L 765.7142857142857 780.4448667941082 L 800.0 786.1023878716892 L 834.2857142857142 787.6493662913402 L 868.5714285714286 790.7256433772749 L 902.8571428571429 794.0052376269351 L 937.1428571428571 789.5234201482889 L 971.4285714285714 796.2682460579675 L 1005.7142857142857 797.8594238610372 L 1040.0 801.5191328080973 L 1074.2857142857142 803.835180499232 L 1108.5714285714284 806.8318986950133 L 1142.857142857143 807.9545630338457 L 1177.142857142857 815.1148631476591 L 1211.4285714285713 816.1402888429707 L 1245.7142857142858 817.899424303031 L 1280.0 820.047514337175 L 1314.2857142857142 821.3646559630494 L 1348.5714285714284 822.9027945060167 L 1382.857142857143 825.2807213339374 L 1417.142857142857 824.2464557619421 L 1451.4285714285713 826.2531077691466 L 1485.7142857142858 827.9326843390535 L 1520.0 830.7349252477928" fill="none" stroke="#66ffbd" stroke-width="2" />
<text x="80.0" y="940" text-anchor="middle">08-06</text>
<text x="114.28571428571428" y="940" text-anchor="middle">08-07</text>
<text x="148.57142857142856" y="940" text-anchor="middle">08-08</text>
<text x="182.85714285714286" y="940" text-anchor="middle">08-09</text>
<text x="217.14285714285714" y="940" text-anchor="middle">08-10</text>
<text x="251.42857142857142" y="940" text-anchor="middle">08-11</text>
<text x="285.7142857142857" y="940" text-anchor="middle">08-12</text>
<text x="320.0" y="940" text-anchor="middle">08-13</text>
<text x="354.2857142857143" y="940" text-anchor="middle">08-14</text>
<text x="388.57142857142856" y="940" text-anchor="middle">08-15</text>
<text x="422.85714285714283" y="940" text-anchor="middle">08-16</text>
<text x="457.1428571428571" y="940" text-anchor="middle">08-17</text>
<text x="491.42857142857144" y="940" text-anchor="middle">08-18</text>
<text x="525.7142857142858" y="940" text-anchor="middle">08-19</text>
<text x="560.0" y="940" text-anchor="middle">08-20</text>
<text x="594.2857142857142" y="940" text-anchor="middle">08-21</text>
<text x="628.5714285714286" y="940" text-anchor="middle">08-22</text>
<text x="662.8571428571429" y="940" text-anchor="middle">08-23</text>
<text x="697.1428571428571" y="940" text-anchor="middle">08-24</text>
<text x="731.4285714285714" y="940" text-anchor="middle">08-25</text>
<text x="765.7142857142857" y="940" text-anchor="middle">08-26</text>
<text x="800.0" y="940" text-anchor="middle">08-27</text>
<text x="834.2857142857142" y="940" text-anchor="middle">08-28</text>
<text x="868.5714285714286" y="940" text-anchor="middle">08-29</text>
<text x="902.8571428571429" y="940" text-anchor="middle">08-30</text>
<text x="937.1428571428571" y="940" text-anchor="middle">08-31</text>
<text x="971.4285714285714" y="940" text-anchor="middle">09-01</text>
<text x="1005.7142857142857" y="940" text-anchor="middle">09-02</text>
<text x="1040.0" y="940" text-anchor="middle">09-03</text>
<text x="1074.2857142857142" y="940" text-anchor="middle">09-04</text>
<text x="1108.5714285714284" y="940" text-anchor="middle">09-05</text>
<text x="1142.857142857143" y="940" text-anchor="middle">09-06</text>
<text x="1177.142857142857" y="940" text-anchor="middle">09-07</text>
<text x="1211.4285714285713" y="940" text-anchor="middle">09-08</text>
<text x="1245.7142857142858" y="940" text-anchor="middle">09-09</text>
<text x="1280.0" y="940" text-anchor="middle">09-10</text>
<text x="1314.2857142857142" y="940" text-anchor="middle">09-11</text>
<text x="1348.5714285714284" y="940" text-anchor="middle">09-12</text>
<text x="1382.857142857143" y="940" text-anchor="middle">09-13</text>
<text x="1417.142857142857" y="940" text-anchor="middle">09-14</text>
<text x="1451.4285714285713" y="940" text-anchor="middle">09-15</text>
<text x="1485.7142857142858" y="940" text-anchor="middle">09-16</text>
<text x="1520.0" y="940" text-anchor="middle">09-17</text>
<rect x="90" y="100" width="130" height="185" class="legend-box" />
<text x="100" y="120" class="legend-item">图例:</text>
<rect x="100" y="137" width="15" height="15" fill="#1f77b4" rx="3" />
<text x="120" y="145" class="legend-item">构件聚合数据</text>
<rect x="100" y="162" width="15" height="15" fill="#ff7f0e" rx="3" />
<text x="120" y="170" class="legend-item">构件基本信息</text>
<rect x="100" y="187" width="15" height="15" fill="#2ca02c" rx="3" />
<text x="120" y="195" class="legend-item">构件徽标</text>
<rect x="100" y="212" width="15" height="15" fill="#d62728" rx="3" />
<text x="120" y="220" class="legend-item">构件扩展元数据</text>
<rect x="100" y="237" width="15" height="15" fill="#9467bd" rx="3" />
<text x="120" y="245" class="legend-item">构件版本信息</text>
<rect x="100" y="262" width="15" height="15" fill="#66ffbd" rx="3" />
<text x="120" y="270" class="legend-item">数据量偏差</text>
<text x="1520" y="990" text-anchor="end" font-size="10" fill="#666">生成时间: 2025-09-17 01:44:48</text>
</svg>