<svg xmlns="http://www.w3.org/2000/svg" width="1600" height="1000" viewBox="0 0 1600 1000">
<style>
  text {
    font-family: Arial, sans-serif;
    font-size: 12px;
    fill: #333;
  }
  .axis-label { font-size: 14px; }
  .title { font-size: 18px; font-weight: bold; }
  .legend-item { font-size: 11px; }
  .legend-box { fill: white; fill-opacity: 0.85; stroke: #cccccc; stroke-width: 1; rx: 5; }
</style>
<text x="800.0" y="30" text-anchor="middle" class="title">Daily Data Growth Trend</text>
<text x="800.0" y="980" text-anchor="middle" class="axis-label">Date</text>
<g transform="rotate(-90)">
<text x="-500.0" y="20" text-anchor="middle" class="axis-label">Count</text>
</g>
<rect x="0" y="0" width="1600" height="1000" fill="#f8f8f8" />
<line x1="80" y1="920.0" x2="1520" y2="920.0" stroke="#e0e0e0" stroke-width="1" />
<text x="70" y="925.0" text-anchor="end">4.6k</text>
<line x1="80" y1="752.0" x2="1520" y2="752.0" stroke="#e0e0e0" stroke-width="1" />
<text x="70" y="757.0" text-anchor="end">15.9k</text>
<line x1="80" y1="584.0" x2="1520" y2="584.0" stroke="#e0e0e0" stroke-width="1" />
<text x="70" y="589.0" text-anchor="end">27.1k</text>
<line x1="80" y1="416.0" x2="1520" y2="416.0" stroke="#e0e0e0" stroke-width="1" />
<text x="70" y="421.0" text-anchor="end">38.3k</text>
<line x1="80" y1="248.0" x2="1520" y2="248.0" stroke="#e0e0e0" stroke-width="1" />
<text x="70" y="253.0" text-anchor="end">49.6k</text>
<line x1="80" y1="80.0" x2="1520" y2="80.0" stroke="#e0e0e0" stroke-width="1" />
<text x="70" y="85.0" text-anchor="end">60.8k</text>
<line x1="80" y1="80" x2="80" y2="920" stroke="#333333" stroke-width="2" />
<line x1="80" y1="920" x2="1520" y2="920" stroke="#333333" stroke-width="2" />
<circle cx="80.0" cy="916.3432007680675" r="4" fill="#1f77b4" />
<circle cx="210.9090909090909" cy="761.348179313121" r="4" fill="#1f77b4" />
<circle cx="341.8181818181818" cy="699.0000516557448" r="4" fill="#1f77b4" />
<circle cx="472.72727272727275" cy="661.474468702853" r="4" fill="#1f77b4" />
<circle cx="603.6363636363636" cy="642.6368654581597" r="4" fill="#1f77b4" />
<circle cx="734.5454545454545" cy="605.111282505268" r="4" fill="#1f77b4" />
<circle cx="865.4545454545455" cy="564.60819117613" r="4" fill="#1f77b4" />
<circle cx="996.3636363636364" cy="527.2771188206816" r="4" fill="#1f77b4" />
<circle cx="1127.2727272727273" cy="496.84369149764257" r="4" fill="#1f77b4" />
<circle cx="1258.1818181818182" cy="469.0885254778602" r="4" fill="#1f77b4" />
<circle cx="1389.090909090909" cy="451.6424211225684" r="4" fill="#1f77b4" />
<circle cx="1520.0" cy="434.37586501107035" r="4" fill="#1f77b4" />
<path d="M 80.0 916.3432007680675 L 210.9090909090909 761.348179313121 L 341.8181818181818 699.0000516557448 L 472.72727272727275 661.474468702853 L 603.6363636363636 642.6368654581597 L 734.5454545454545 605.111282505268 L 865.4545454545455 564.60819117613 L 996.3636363636364 527.2771188206816 L 1127.2727272727273 496.84369149764257 L 1258.1818181818182 469.0885254778602 L 1389.090909090909 451.6424211225684 L 1520.0 434.37586501107035" fill="none" stroke="#1f77b4" stroke-width="2" />
<circle cx="80.0" cy="455.68225660792757" r="4" fill="#ff7f0e" />
<circle cx="210.9090909090909" cy="344.31745839486007" r="4" fill="#ff7f0e" />
<circle cx="341.8181818181818" cy="308.60232023355525" r="4" fill="#ff7f0e" />
<circle cx="472.72727272727275" cy="291.0065923417686" r="4" fill="#ff7f0e" />
<circle cx="603.6363636363636" cy="277.24122698424856" r="4" fill="#ff7f0e" />
<circle cx="734.5454545454545" cy="252.7029669991041" r="4" fill="#ff7f0e" />
<circle cx="865.4545454545455" cy="221.5663090545396" r="4" fill="#ff7f0e" />
<circle cx="996.3636363636364" cy="196.72880199640554" r="4" fill="#ff7f0e" />
<circle cx="1127.2727272727273" cy="176.26030220391908" r="4" fill="#ff7f0e" />
<circle cx="1258.1818181818182" cy="155.55240475304106" r="4" fill="#ff7f0e" />
<circle cx="1389.090909090909" cy="144.73462306446822" r="4" fill="#ff7f0e" />
<circle cx="1520.0" cy="131.34331654818504" r="4" fill="#ff7f0e" />
<path d="M 80.0 455.68225660792757 L 210.9090909090909 344.31745839486007 L 341.8181818181818 308.60232023355525 L 472.72727272727275 291.0065923417686 L 603.6363636363636 277.24122698424856 L 734.5454545454545 252.7029669991041 L 865.4545454545455 221.5663090545396 L 996.3636363636364 196.72880199640554 L 1127.2727272727273 176.26030220391908 L 1258.1818181818182 155.55240475304106 L 1389.090909090909 144.73462306446822 L 1520.0 131.34331654818504" fill="none" stroke="#ff7f0e" stroke-width="2" />
<circle cx="80.0" cy="445.19364669964324" r="4" fill="#2ca02c" />
<circle cx="210.9090909090909" cy="334.2627567424106" r="4" fill="#2ca02c" />
<circle cx="341.8181818181818" cy="298.8917527150438" r="4" fill="#2ca02c" />
<circle cx="472.72727272727275" cy="281.56534718894784" r="4" fill="#2ca02c" />
<circle cx="603.6363636363636" cy="267.82990653872673" r="4" fill="#2ca02c" />
<circle cx="734.5454545454545" cy="243.54600656562332" r="4" fill="#2ca02c" />
<circle cx="865.4545454545455" cy="212.8133321695948" r="4" fill="#2ca02c" />
<circle cx="996.3636363636364" cy="188.26010983080073" r="4" fill="#2ca02c" />
<circle cx="1127.2727272727273" cy="167.95619592845856" r="4" fill="#2ca02c" />
<circle cx="1258.1818181818182" cy="147.3530349531269" r="4" fill="#2ca02c" />
<circle cx="1389.090909090909" cy="136.69983915469834" r="4" fill="#2ca02c" />
<circle cx="1520.0" cy="123.30853263841516" r="4" fill="#2ca02c" />
<path d="M 80.0 445.19364669964324 L 210.9090909090909 334.2627567424106 L 341.8181818181818 298.8917527150438 L 472.72727272727275 281.56534718894784 L 603.6363636363636 267.82990653872673 L 734.5454545454545 243.54600656562332 L 865.4545454545455 212.8133321695948 L 996.3636363636364 188.26010983080073 L 1127.2727272727273 167.95619592845856 L 1258.1818181818182 147.3530349531269 L 1389.090909090909 136.69983915469834 L 1520.0 123.30853263841516" fill="none" stroke="#2ca02c" stroke-width="2" />
<circle cx="80.0" cy="883.8748933486994" r="4" fill="#d62728" />
<circle cx="210.9090909090909" cy="731.0344508192779" r="4" fill="#d62728" />
<circle cx="341.8181818181818" cy="678.1425306683718" r="4" fill="#d62728" />
<circle cx="472.72727272727275" cy="640.6917594837275" r="4" fill="#d62728" />
<circle cx="603.6363636363636" cy="622.0187421291785" r="4" fill="#d62728" />
<circle cx="734.5454545454545" cy="585.2562392124103" r="4" fill="#d62728" />
<circle cx="865.4545454545455" cy="546.6384044431065" r="4" fill="#d62728" />
<circle cx="996.3636363636364" cy="511.08785217194594" r="4" fill="#d62728" />
<circle cx="1127.2727272727273" cy="481.29780605583454" r="4" fill="#d62728" />
<circle cx="1258.1818181818182" cy="453.63241415794903" r="4" fill="#d62728" />
<circle cx="1389.090909090909" cy="436.2162345099562" r="4" fill="#d62728" />
<circle cx="1520.0" cy="418.96464075210764" r="4" fill="#d62728" />
<path d="M 80.0 883.8748933486994 L 210.9090909090909 731.0344508192779 L 341.8181818181818 678.1425306683718 L 472.72727272727275 640.6917594837275 L 603.6363636363636 622.0187421291785 L 734.5454545454545 585.2562392124103 L 865.4545454545455 546.6384044431065 L 996.3636363636364 511.08785217194594 L 1127.2727272727273 481.29780605583454 L 1258.1818181818182 453.63241415794903 L 1389.090909090909 436.2162345099562 L 1520.0 418.96464075210764" fill="none" stroke="#d62728" stroke-width="2" />
<circle cx="80.0" cy="895.0218468175608" r="4" fill="#9467bd" />
<circle cx="210.9090909090909" cy="741.5978724958096" r="4" fill="#9467bd" />
<circle cx="341.8181818181818" cy="679.399368374928" r="4" fill="#9467bd" />
<circle cx="472.72727272727275" cy="641.8288983610878" r="4" fill="#9467bd" />
<circle cx="603.6363636363636" cy="625.0710622736722" r="4" fill="#9467bd" />
<circle cx="734.5454545454545" cy="587.9943499302648" r="4" fill="#9467bd" />
<circle cx="865.4545454545455" cy="547.5959950766731" r="4" fill="#9467bd" />
<circle cx="996.3636363636364" cy="511.0429651109975" r="4" fill="#9467bd" />
<circle cx="1127.2727272727273" cy="480.92374721459754" r="4" fill="#9467bd" />
<circle cx="1258.1818181818182" cy="453.5725647433511" r="4" fill="#9467bd" />
<circle cx="1389.090909090909" cy="436.1414227417088" r="4" fill="#9467bd" />
<circle cx="1520.0" cy="418.77013015466446" r="4" fill="#9467bd" />
<path d="M 80.0 895.0218468175608 L 210.9090909090909 741.5978724958096 L 341.8181818181818 679.399368374928 L 472.72727272727275 641.8288983610878 L 603.6363636363636 625.0710622736722 L 734.5454545454545 587.9943499302648 L 865.4545454545455 547.5959950766731 L 996.3636363636364 511.0429651109975 L 1127.2727272727273 480.92374721459754 L 1258.1818181818182 453.5725647433511 L 1389.090909090909 436.1414227417088 L 1520.0 418.77013015466446" fill="none" stroke="#9467bd" stroke-width="2" />
<circle cx="80.0" cy="518.3296313382934" r="4" fill="#66ffbd" />
<circle cx="210.9090909090909" cy="562.3937628360072" r="4" fill="#66ffbd" />
<circle cx="341.8181818181818" cy="589.3708864660168" r="4" fill="#66ffbd" />
<circle cx="472.72727272727275" cy="609.5700638928126" r="4" fill="#66ffbd" />
<circle cx="603.6363636363636" cy="614.6722264872847" r="4" fill="#66ffbd" />
<circle cx="734.5454545454545" cy="627.9139094670729" r="4" fill="#66ffbd" />
<circle cx="865.4545454545455" cy="637.6843264001824" r="4" fill="#66ffbd" />
<circle cx="996.3636363636364" cy="650.4621764168369" r="4" fill="#66ffbd" />
<circle cx="1127.2727272727273" cy="660.5916898375337" r="4" fill="#66ffbd" />
<circle cx="1258.1818181818182" cy="667.7436948819844" r="4" fill="#66ffbd" />
<circle cx="1389.090909090909" cy="674.5366034388476" r="4" fill="#66ffbd" />
<circle cx="1520.0" cy="678.4118530340625" r="4" fill="#66ffbd" />
<path d="M 80.0 518.3296313382934 L 210.9090909090909 562.3937628360072 L 341.8181818181818 589.3708864660168 L 472.72727272727275 609.5700638928126 L 603.6363636363636 614.6722264872847 L 734.5454545454545 627.9139094670729 L 865.4545454545455 637.6843264001824 L 996.3636363636364 650.4621764168369 L 1127.2727272727273 660.5916898375337 L 1258.1818181818182 667.7436948819844 L 1389.090909090909 674.5366034388476 L 1520.0 678.4118530340625" fill="none" stroke="#66ffbd" stroke-width="2" />
<text x="80.0" y="940" text-anchor="middle">08-07</text>
<text x="210.9090909090909" y="940" text-anchor="middle">08-08</text>
<text x="341.8181818181818" y="940" text-anchor="middle">08-09</text>
<text x="472.72727272727275" y="940" text-anchor="middle">08-10</text>
<text x="603.6363636363636" y="940" text-anchor="middle">08-11</text>
<text x="734.5454545454545" y="940" text-anchor="middle">08-12</text>
<text x="865.4545454545455" y="940" text-anchor="middle">08-13</text>
<text x="996.3636363636364" y="940" text-anchor="middle">08-14</text>
<text x="1127.2727272727273" y="940" text-anchor="middle">08-15</text>
<text x="1258.1818181818182" y="940" text-anchor="middle">08-16</text>
<text x="1389.090909090909" y="940" text-anchor="middle">08-17</text>
<text x="1520.0" y="940" text-anchor="middle">08-18</text>
<rect x="90" y="100" width="130" height="185" class="legend-box" />
<text x="100" y="120" class="legend-item">图例:</text>
<rect x="100" y="137" width="15" height="15" fill="#1f77b4" rx="3" />
<text x="120" y="145" class="legend-item">构件聚合数据</text>
<rect x="100" y="162" width="15" height="15" fill="#ff7f0e" rx="3" />
<text x="120" y="170" class="legend-item">构件基本信息</text>
<rect x="100" y="187" width="15" height="15" fill="#2ca02c" rx="3" />
<text x="120" y="195" class="legend-item">构件徽标</text>
<rect x="100" y="212" width="15" height="15" fill="#d62728" rx="3" />
<text x="120" y="220" class="legend-item">构件扩展元数据</text>
<rect x="100" y="237" width="15" height="15" fill="#9467bd" rx="3" />
<text x="120" y="245" class="legend-item">构件版本信息</text>
<rect x="100" y="262" width="15" height="15" fill="#66ffbd" rx="3" />
<text x="120" y="270" class="legend-item">数据量偏差</text>
<text x="1520" y="990" text-anchor="end" font-size="10" fill="#666">生成时间: 2025-08-18 07:46:28</text>
</svg>