<svg xmlns="http://www.w3.org/2000/svg" width="1600" height="1000" viewBox="0 0 1600 1000">
<style>
  text {
    font-family: Arial, sans-serif;
    font-size: 12px;
    fill: #333;
  }
  .axis-label { font-size: 14px; }
  .title { font-size: 18px; font-weight: bold; }
  .legend-item { font-size: 11px; }
  .legend-box { fill: white; fill-opacity: 0.85; stroke: #cccccc; stroke-width: 1; rx: 5; }
</style>
<text x="800.0" y="30" text-anchor="middle" class="title">Daily Data Growth Trend</text>
<text x="800.0" y="980" text-anchor="middle" class="axis-label">Date</text>
<g transform="rotate(-90)">
<text x="-500.0" y="20" text-anchor="middle" class="axis-label">Count</text>
</g>
<rect x="0" y="0" width="1600" height="1000" fill="#f8f8f8" />
<line x1="80" y1="920.0" x2="1520" y2="920.0" stroke="#e0e0e0" stroke-width="1" />
<text x="70" y="925.0" text-anchor="end">0</text>
<line x1="80" y1="752.0" x2="1520" y2="752.0" stroke="#e0e0e0" stroke-width="1" />
<text x="70" y="757.0" text-anchor="end">22.4k</text>
<line x1="80" y1="584.0" x2="1520" y2="584.0" stroke="#e0e0e0" stroke-width="1" />
<text x="70" y="589.0" text-anchor="end">44.8k</text>
<line x1="80" y1="416.0" x2="1520" y2="416.0" stroke="#e0e0e0" stroke-width="1" />
<text x="70" y="421.0" text-anchor="end">67.2k</text>
<line x1="80" y1="248.0" x2="1520" y2="248.0" stroke="#e0e0e0" stroke-width="1" />
<text x="70" y="253.0" text-anchor="end">89.6k</text>
<line x1="80" y1="80.0" x2="1520" y2="80.0" stroke="#e0e0e0" stroke-width="1" />
<text x="70" y="85.0" text-anchor="end">112.1k</text>
<line x1="80" y1="80" x2="80" y2="920" stroke="#333333" stroke-width="2" />
<line x1="80" y1="920" x2="1520" y2="920" stroke="#333333" stroke-width="2" />
<circle cx="80.0" cy="920.0" r="4" fill="#1f77b4" />
<circle cx="104.82758620689656" cy="883.3600374795034" r="4" fill="#1f77b4" />
<circle cx="129.6551724137931" cy="805.710002342469" r="4" fill="#1f77b4" />
<circle cx="154.48275862068965" cy="774.4745842117592" r="4" fill="#1f77b4" />
<circle cx="179.31034482758622" cy="755.6748653080347" r="4" fill="#1f77b4" />
<circle cx="204.13793103448276" cy="746.2375263527758" r="4" fill="#1f77b4" />
<circle cx="228.9655172413793" cy="727.4378074490513" r="4" fill="#1f77b4" />
<circle cx="253.79310344827587" cy="707.1464043101429" r="4" fill="#1f77b4" />
<circle cx="278.62068965517244" cy="688.4441321152494" r="4" fill="#1f77b4" />
<circle cx="303.44827586206895" cy="673.1974701335207" r="4" fill="#1f77b4" />
<circle cx="328.2758620689655" cy="659.2925743733895" r="4" fill="#1f77b4" />
<circle cx="353.1034482758621" cy="650.5523541813071" r="4" fill="#1f77b4" />
<circle cx="377.9310344827586" cy="641.9020847973765" r="4" fill="#1f77b4" />
<circle cx="402.7586206896552" cy="628.8966971187632" r="4" fill="#1f77b4" />
<circle cx="427.58620689655174" cy="610.4267978449286" r="4" fill="#1f77b4" />
<circle cx="452.41379310344826" cy="590.4502225345514" r="4" fill="#1f77b4" />
<circle cx="477.2413793103448" cy="577.1899742328415" r="4" fill="#1f77b4" />
<circle cx="502.0689655172414" cy="559.0423986882174" r="4" fill="#1f77b4" />
<circle cx="526.8965517241379" cy="551.5464980089014" r="4" fill="#1f77b4" />
<circle cx="551.7241379310344" cy="544.6427734832514" r="4" fill="#1f77b4" />
<circle cx="576.551724137931" cy="529.7933942375264" r="4" fill="#1f77b4" />
<circle cx="601.3793103448276" cy="515.1913797142188" r="4" fill="#1f77b4" />
<circle cx="626.2068965517242" cy="502.2609510423987" r="4" fill="#1f77b4" />
<circle cx="651.0344827586207" cy="484.4132115249473" r="4" fill="#1f77b4" />
<circle cx="675.8620689655172" cy="472.1274303115484" r="4" fill="#1f77b4" />
<circle cx="700.6896551724138" cy="464.55657062543924" r="4" fill="#1f77b4" />
<circle cx="725.5172413793103" cy="456.01873975169826" r="4" fill="#1f77b4" />
<circle cx="750.3448275862069" cy="445.052237057859" r="4" fill="#1f77b4" />
<circle cx="775.1724137931035" cy="435.53244319512766" r="4" fill="#1f77b4" />
<circle cx="800.0" cy="427.44436636214573" r="4" fill="#1f77b4" />
<circle cx="824.8275862068965" cy="413.71187631763877" r="4" fill="#1f77b4" />
<circle cx="849.6551724137931" cy="402.5055048020614" r="4" fill="#1f77b4" />
<circle cx="874.4827586206897" cy="385.41485125322095" r="4" fill="#1f77b4" />
<circle cx="899.3103448275862" cy="380.40758959943776" r="4" fill="#1f77b4" />
<circle cx="924.1379310344828" cy="374.7256968845163" r="4" fill="#1f77b4" />
<circle cx="948.9655172413793" cy="367.19231670180375" r="4" fill="#1f77b4" />
<circle cx="973.7931034482758" cy="361.13562895291636" r="4" fill="#1f77b4" />
<circle cx="998.6206896551724" cy="352.1330522370579" r="4" fill="#1f77b4" />
<circle cx="1023.448275862069" cy="342.0360740220192" r="4" fill="#1f77b4" />
<circle cx="1048.2758620689656" cy="337.44858280627784" r="4" fill="#1f77b4" />
<circle cx="1073.103448275862" cy="332.47130475521203" r="4" fill="#1f77b4" />
<circle cx="1097.9310344827586" cy="324.2333099086437" r="4" fill="#1f77b4" />
<circle cx="1122.7586206896551" cy="317.32208948231437" r="4" fill="#1f77b4" />
<circle cx="1147.5862068965516" cy="294.4670883110799" r="4" fill="#1f77b4" />
<circle cx="1172.4137931034484" cy="285.63691731084566" r="4" fill="#1f77b4" />
<circle cx="1197.2413793103449" cy="276.2670414617006" r="4" fill="#1f77b4" />
<circle cx="1222.0689655172414" cy="269.610681658468" r="4" fill="#1f77b4" />
<circle cx="1246.896551724138" cy="262.81939564300774" r="4" fill="#1f77b4" />
<circle cx="1271.7241379310344" cy="258.5392363551183" r="4" fill="#1f77b4" />
<circle cx="1296.551724137931" cy="250.36120871398452" r="4" fill="#1f77b4" />
<circle cx="1321.3793103448277" cy="249.8964628718669" r="4" fill="#1f77b4" />
<circle cx="1346.2068965517242" cy="249.86647926914964" r="4" fill="#1f77b4" />
<circle cx="1371.0344827586207" cy="249.01194659170767" r="4" fill="#1f77b4" />
<circle cx="1395.8620689655172" cy="248.80955727336618" r="4" fill="#1f77b4" />
<circle cx="1420.6896551724137" cy="248.80955727336618" r="4" fill="#1f77b4" />
<circle cx="1445.5172413793102" cy="248.8020613726868" r="4" fill="#1f77b4" />
<circle cx="1470.344827586207" cy="248.78706957132817" r="4" fill="#1f77b4" />
<circle cx="1495.1724137931035" cy="248.77957367064892" r="4" fill="#1f77b4" />
<circle cx="1520.0" cy="248.77957367064892" r="4" fill="#1f77b4" />
<path d="M 80.0 920.0 L 104.82758620689656 883.3600374795034 L 129.6551724137931 805.710002342469 L 154.48275862068965 774.4745842117592 L 179.31034482758622 755.6748653080347 L 204.13793103448276 746.2375263527758 L 228.9655172413793 727.4378074490513 L 253.79310344827587 707.1464043101429 L 278.62068965517244 688.4441321152494 L 303.44827586206895 673.1974701335207 L 328.2758620689655 659.2925743733895 L 353.1034482758621 650.5523541813071 L 377.9310344827586 641.9020847973765 L 402.7586206896552 628.8966971187632 L 427.58620689655174 610.4267978449286 L 452.41379310344826 590.4502225345514 L 477.2413793103448 577.1899742328415 L 502.0689655172414 559.0423986882174 L 526.8965517241379 551.5464980089014 L 551.7241379310344 544.6427734832514 L 576.551724137931 529.7933942375264 L 601.3793103448276 515.1913797142188 L 626.2068965517242 502.2609510423987 L 651.0344827586207 484.4132115249473 L 675.8620689655172 472.1274303115484 L 700.6896551724138 464.55657062543924 L 725.5172413793103 456.01873975169826 L 750.3448275862069 445.052237057859 L 775.1724137931035 435.53244319512766 L 800.0 427.44436636214573 L 824.8275862068965 413.71187631763877 L 849.6551724137931 402.5055048020614 L 874.4827586206897 385.41485125322095 L 899.3103448275862 380.40758959943776 L 924.1379310344828 374.7256968845163 L 948.9655172413793 367.19231670180375 L 973.7931034482758 361.13562895291636 L 998.6206896551724 352.1330522370579 L 1023.448275862069 342.0360740220192 L 1048.2758620689656 337.44858280627784 L 1073.103448275862 332.47130475521203 L 1097.9310344827586 324.2333099086437 L 1122.7586206896551 317.32208948231437 L 1147.5862068965516 294.4670883110799 L 1172.4137931034484 285.63691731084566 L 1197.2413793103449 276.2670414617006 L 1222.0689655172414 269.610681658468 L 1246.896551724138 262.81939564300774 L 1271.7241379310344 258.5392363551183 L 1296.551724137931 250.36120871398452 L 1321.3793103448277 249.8964628718669 L 1346.2068965517242 249.86647926914964 L 1371.0344827586207 249.01194659170767 L 1395.8620689655172 248.80955727336618 L 1420.6896551724137 248.80955727336618 L 1445.5172413793102 248.8020613726868 L 1470.344827586207 248.78706957132817 L 1495.1724137931035 248.77957367064892 L 1520.0 248.77957367064892" fill="none" stroke="#1f77b4" stroke-width="2" />
<circle cx="80.0" cy="920.0" r="4" fill="#ff7f0e" />
<circle cx="104.82758620689656" cy="652.5762473647223" r="4" fill="#ff7f0e" />
<circle cx="129.6551724137931" cy="596.7842586085735" r="4" fill="#ff7f0e" />
<circle cx="154.48275862068965" cy="578.8915436870461" r="4" fill="#ff7f0e" />
<circle cx="179.31034482758622" cy="570.0763644881706" r="4" fill="#ff7f0e" />
<circle cx="204.13793103448276" cy="563.1801358631999" r="4" fill="#ff7f0e" />
<circle cx="228.9655172413793" cy="550.8868587491215" r="4" fill="#ff7f0e" />
<circle cx="253.79310344827587" cy="535.287889435465" r="4" fill="#ff7f0e" />
<circle cx="278.62068965517244" cy="522.8446943078004" r="4" fill="#ff7f0e" />
<circle cx="303.44827586206895" cy="512.5903021784961" r="4" fill="#ff7f0e" />
<circle cx="328.2758620689655" cy="502.2159756383228" r="4" fill="#ff7f0e" />
<circle cx="353.1034482758621" cy="496.7964394471773" r="4" fill="#ff7f0e" />
<circle cx="377.9310344827586" cy="490.0876083391895" r="4" fill="#ff7f0e" />
<circle cx="402.7586206896552" cy="482.4567814476458" r="4" fill="#ff7f0e" />
<circle cx="427.58620689655174" cy="472.24736472241744" r="4" fill="#ff7f0e" />
<circle cx="452.41379310344826" cy="458.5823377840244" r="4" fill="#ff7f0e" />
<circle cx="477.2413793103448" cy="449.81213398922466" r="4" fill="#ff7f0e" />
<circle cx="502.0689655172414" cy="438.86062309674395" r="4" fill="#ff7f0e" />
<circle cx="526.8965517241379" cy="432.19676739283204" r="4" fill="#ff7f0e" />
<circle cx="551.7241379310344" cy="426.882173811197" r="4" fill="#ff7f0e" />
<circle cx="576.551724137931" cy="414.8062778168189" r="4" fill="#ff7f0e" />
<circle cx="601.3793103448276" cy="404.9791520262356" r="4" fill="#ff7f0e" />
<circle cx="626.2068965517242" cy="393.3455141719372" r="4" fill="#ff7f0e" />
<circle cx="651.0344827586207" cy="378.08386038884987" r="4" fill="#ff7f0e" />
<circle cx="675.8620689655172" cy="368.54907472475986" r="4" fill="#ff7f0e" />
<circle cx="700.6896551724138" cy="357.1702974935582" r="4" fill="#ff7f0e" />
<circle cx="725.5172413793103" cy="354.3443429374561" r="4" fill="#ff7f0e" />
<circle cx="750.3448275862069" cy="344.7196064652144" r="4" fill="#ff7f0e" />
<circle cx="775.1724137931035" cy="338.2806277816819" r="4" fill="#ff7f0e" />
<circle cx="800.0" cy="332.1189974232841" r="4" fill="#ff7f0e" />
<circle cx="824.8275862068965" cy="320.6652611852893" r="4" fill="#ff7f0e" />
<circle cx="849.6551724137931" cy="310.38088545326775" r="4" fill="#ff7f0e" />
<circle cx="874.4827586206897" cy="299.0470836261419" r="4" fill="#ff7f0e" />
<circle cx="899.3103448275862" cy="294.90934645115954" r="4" fill="#ff7f0e" />
<circle cx="924.1379310344828" cy="290.66666666666663" r="4" fill="#ff7f0e" />
<circle cx="948.9655172413793" cy="284.94729444834854" r="4" fill="#ff7f0e" />
<circle cx="973.7931034482758" cy="279.98500819864137" r="4" fill="#ff7f0e" />
<circle cx="998.6206896551724" cy="272.28671820098384" r="4" fill="#ff7f0e" />
<circle cx="1023.448275862069" cy="264.1686577652846" r="4" fill="#ff7f0e" />
<circle cx="1048.2758620689656" cy="258.6966502693839" r="4" fill="#ff7f0e" />
<circle cx="1073.103448275862" cy="255.42094167252287" r="4" fill="#ff7f0e" />
<circle cx="1097.9310344827586" cy="248.59967205434532" r="4" fill="#ff7f0e" />
<circle cx="1122.7586206896551" cy="243.98969313656596" r="4" fill="#ff7f0e" />
<circle cx="1147.5862068965516" cy="221.80932302646988" r="4" fill="#ff7f0e" />
<circle cx="1172.4137931034484" cy="213.21902084797375" r="4" fill="#ff7f0e" />
<circle cx="1197.2413793103449" cy="205.4157882408058" r="4" fill="#ff7f0e" />
<circle cx="1222.0689655172414" cy="197.52260482548604" r="4" fill="#ff7f0e" />
<circle cx="1246.896551724138" cy="192.95010541110332" r="4" fill="#ff7f0e" />
<circle cx="1271.7241379310344" cy="189.57695010541113" r="4" fill="#ff7f0e" />
<circle cx="1296.551724137931" cy="183.65518856875144" r="4" fill="#ff7f0e" />
<circle cx="1321.3793103448277" cy="176.48161161864607" r="4" fill="#ff7f0e" />
<circle cx="1346.2068965517242" cy="170.3799484656828" r="4" fill="#ff7f0e" />
<circle cx="1371.0344827586207" cy="165.03537128133053" r="4" fill="#ff7f0e" />
<circle cx="1395.8620689655172" cy="153.84399156711174" r="4" fill="#ff7f0e" />
<circle cx="1420.6896551724137" cy="150.17849613492626" r="4" fill="#ff7f0e" />
<circle cx="1445.5172413793102" cy="144.15179198875614" r="4" fill="#ff7f0e" />
<circle cx="1470.344827586207" cy="135.0292808620286" r="4" fill="#ff7f0e" />
<circle cx="1495.1724137931035" cy="129.21246193487934" r="4" fill="#ff7f0e" />
<circle cx="1520.0" cy="121.83649566643237" r="4" fill="#ff7f0e" />
<path d="M 80.0 920.0 L 104.82758620689656 652.5762473647223 L 129.6551724137931 596.7842586085735 L 154.48275862068965 578.8915436870461 L 179.31034482758622 570.0763644881706 L 204.13793103448276 563.1801358631999 L 228.9655172413793 550.8868587491215 L 253.79310344827587 535.287889435465 L 278.62068965517244 522.8446943078004 L 303.44827586206895 512.5903021784961 L 328.2758620689655 502.2159756383228 L 353.1034482758621 496.7964394471773 L 377.9310344827586 490.0876083391895 L 402.7586206896552 482.4567814476458 L 427.58620689655174 472.24736472241744 L 452.41379310344826 458.5823377840244 L 477.2413793103448 449.81213398922466 L 502.0689655172414 438.86062309674395 L 526.8965517241379 432.19676739283204 L 551.7241379310344 426.882173811197 L 576.551724137931 414.8062778168189 L 601.3793103448276 404.9791520262356 L 626.2068965517242 393.3455141719372 L 651.0344827586207 378.08386038884987 L 675.8620689655172 368.54907472475986 L 700.6896551724138 357.1702974935582 L 725.5172413793103 354.3443429374561 L 750.3448275862069 344.7196064652144 L 775.1724137931035 338.2806277816819 L 800.0 332.1189974232841 L 824.8275862068965 320.6652611852893 L 849.6551724137931 310.38088545326775 L 874.4827586206897 299.0470836261419 L 899.3103448275862 294.90934645115954 L 924.1379310344828 290.66666666666663 L 948.9655172413793 284.94729444834854 L 973.7931034482758 279.98500819864137 L 998.6206896551724 272.28671820098384 L 1023.448275862069 264.1686577652846 L 1048.2758620689656 258.6966502693839 L 1073.103448275862 255.42094167252287 L 1097.9310344827586 248.59967205434532 L 1122.7586206896551 243.98969313656596 L 1147.5862068965516 221.80932302646988 L 1172.4137931034484 213.21902084797375 L 1197.2413793103449 205.4157882408058 L 1222.0689655172414 197.52260482548604 L 1246.896551724138 192.95010541110332 L 1271.7241379310344 189.57695010541113 L 1296.551724137931 183.65518856875144 L 1321.3793103448277 176.48161161864607 L 1346.2068965517242 170.3799484656828 L 1371.0344827586207 165.03537128133053 L 1395.8620689655172 153.84399156711174 L 1420.6896551724137 150.17849613492626 L 1445.5172413793102 144.15179198875614 L 1470.344827586207 135.0292808620286 L 1495.1724137931035 129.21246193487934 L 1520.0 121.83649566643237" fill="none" stroke="#ff7f0e" stroke-width="2" />
<circle cx="80.0" cy="920.0" r="4" fill="#2ca02c" />
<circle cx="104.82758620689656" cy="647.3216209885219" r="4" fill="#2ca02c" />
<circle cx="129.6551724137931" cy="591.747013352073" r="4" fill="#2ca02c" />
<circle cx="154.48275862068965" cy="574.02670414617" r="4" fill="#2ca02c" />
<circle cx="179.31034482758622" cy="565.3464511595221" r="4" fill="#2ca02c" />
<circle cx="204.13793103448276" cy="558.4652143359101" r="4" fill="#2ca02c" />
<circle cx="228.9655172413793" cy="546.2993675333802" r="4" fill="#2ca02c" />
<circle cx="253.79310344827587" cy="530.9027875380651" r="4" fill="#2ca02c" />
<circle cx="278.62068965517244" cy="518.6020145233076" r="4" fill="#2ca02c" />
<circle cx="303.44827586206895" cy="508.43007730147576" r="4" fill="#2ca02c" />
<circle cx="328.2758620689655" cy="498.10822206605764" r="4" fill="#2ca02c" />
<circle cx="353.1034482758621" cy="492.77114078238463" r="4" fill="#2ca02c" />
<circle cx="377.9310344827586" cy="486.06230967439683" r="4" fill="#2ca02c" />
<circle cx="402.7586206896552" cy="478.4539704848911" r="4" fill="#2ca02c" />
<circle cx="427.58620689655174" cy="468.46943078004216" r="4" fill="#2ca02c" />
<circle cx="452.41379310344826" cy="455.09674396814245" r="4" fill="#2ca02c" />
<circle cx="477.2413793103448" cy="446.3640196767393" r="4" fill="#2ca02c" />
<circle cx="502.0689655172414" cy="435.4200046849379" r="4" fill="#2ca02c" />
<circle cx="526.8965517241379" cy="428.7486530803467" r="4" fill="#2ca02c" />
<circle cx="551.7241379310344" cy="423.44905130007027" r="4" fill="#2ca02c" />
<circle cx="576.551724137931" cy="411.4556102131647" r="4" fill="#2ca02c" />
<circle cx="601.3793103448276" cy="401.65097212461933" r="4" fill="#2ca02c" />
<circle cx="626.2068965517242" cy="390.03232607167956" r="4" fill="#2ca02c" />
<circle cx="651.0344827586207" cy="374.7931599906301" r="4" fill="#2ca02c" />
<circle cx="675.8620689655172" cy="365.2883579292575" r="4" fill="#2ca02c" />
<circle cx="700.6896551724138" cy="353.9170765987351" r="4" fill="#2ca02c" />
<circle cx="725.5172413793103" cy="351.0986179433122" r="4" fill="#2ca02c" />
<circle cx="750.3448275862069" cy="341.4813773717498" r="4" fill="#2ca02c" />
<circle cx="775.1724137931035" cy="335.0648863902553" r="4" fill="#2ca02c" />
<circle cx="800.0" cy="328.94073553525413" r="4" fill="#2ca02c" />
<circle cx="824.8275862068965" cy="317.74935582103535" r="4" fill="#2ca02c" />
<circle cx="849.6551724137931" cy="307.4949636917311" r="4" fill="#2ca02c" />
<circle cx="874.4827586206897" cy="296.4759896931365" r="4" fill="#2ca02c" />
<circle cx="899.3103448275862" cy="292.33825251815415" r="4" fill="#2ca02c" />
<circle cx="924.1379310344828" cy="288.1480440384165" r="4" fill="#2ca02c" />
<circle cx="948.9655172413793" cy="282.4361677207777" r="4" fill="#2ca02c" />
<circle cx="973.7931034482758" cy="277.4963691731084" r="4" fill="#2ca02c" />
<circle cx="998.6206896551724" cy="269.7980791754509" r="4" fill="#2ca02c" />
<circle cx="1023.448275862069" cy="261.71749824314827" r="4" fill="#2ca02c" />
<circle cx="1048.2758620689656" cy="256.25298664792695" r="4" fill="#2ca02c" />
<circle cx="1073.103448275862" cy="252.9772780510658" r="4" fill="#2ca02c" />
<circle cx="1097.9310344827586" cy="246.16350433356763" r="4" fill="#2ca02c" />
<circle cx="1122.7586206896551" cy="241.62848442258144" r="4" fill="#2ca02c" />
<circle cx="1147.5862068965516" cy="219.6430077301476" r="4" fill="#2ca02c" />
<circle cx="1172.4137931034484" cy="211.0676973530101" r="4" fill="#2ca02c" />
<circle cx="1197.2413793103449" cy="203.4968376669009" r="4" fill="#2ca02c" />
<circle cx="1222.0689655172414" cy="195.6111501522605" r="4" fill="#2ca02c" />
<circle cx="1246.896551724138" cy="191.03865073787767" r="4" fill="#2ca02c" />
<circle cx="1271.7241379310344" cy="187.66549543218548" r="4" fill="#2ca02c" />
<circle cx="1296.551724137931" cy="181.75872569688454" r="4" fill="#2ca02c" />
<circle cx="1321.3793103448277" cy="174.58514874677905" r="4" fill="#2ca02c" />
<circle cx="1346.2068965517242" cy="168.48348559381589" r="4" fill="#2ca02c" />
<circle cx="1371.0344827586207" cy="163.15390021082226" r="4" fill="#2ca02c" />
<circle cx="1395.8620689655172" cy="151.96252049660347" r="4" fill="#2ca02c" />
<circle cx="1420.6896551724137" cy="148.29702506441788" r="4" fill="#2ca02c" />
<circle cx="1445.5172413793102" cy="142.27032091824788" r="4" fill="#2ca02c" />
<circle cx="1470.344827586207" cy="133.16280159287885" r="4" fill="#2ca02c" />
<circle cx="1495.1724137931035" cy="127.3684703677676" r="4" fill="#2ca02c" />
<circle cx="1520.0" cy="120.0" r="4" fill="#2ca02c" />
<path d="M 80.0 920.0 L 104.82758620689656 647.3216209885219 L 129.6551724137931 591.747013352073 L 154.48275862068965 574.02670414617 L 179.31034482758622 565.3464511595221 L 204.13793103448276 558.4652143359101 L 228.9655172413793 546.2993675333802 L 253.79310344827587 530.9027875380651 L 278.62068965517244 518.6020145233076 L 303.44827586206895 508.43007730147576 L 328.2758620689655 498.10822206605764 L 353.1034482758621 492.77114078238463 L 377.9310344827586 486.06230967439683 L 402.7586206896552 478.4539704848911 L 427.58620689655174 468.46943078004216 L 452.41379310344826 455.09674396814245 L 477.2413793103448 446.3640196767393 L 502.0689655172414 435.4200046849379 L 526.8965517241379 428.7486530803467 L 551.7241379310344 423.44905130007027 L 576.551724137931 411.4556102131647 L 601.3793103448276 401.65097212461933 L 626.2068965517242 390.03232607167956 L 651.0344827586207 374.7931599906301 L 675.8620689655172 365.2883579292575 L 700.6896551724138 353.9170765987351 L 725.5172413793103 351.0986179433122 L 750.3448275862069 341.4813773717498 L 775.1724137931035 335.0648863902553 L 800.0 328.94073553525413 L 824.8275862068965 317.74935582103535 L 849.6551724137931 307.4949636917311 L 874.4827586206897 296.4759896931365 L 899.3103448275862 292.33825251815415 L 924.1379310344828 288.1480440384165 L 948.9655172413793 282.4361677207777 L 973.7931034482758 277.4963691731084 L 998.6206896551724 269.7980791754509 L 1023.448275862069 261.71749824314827 L 1048.2758620689656 256.25298664792695 L 1073.103448275862 252.9772780510658 L 1097.9310344827586 246.16350433356763 L 1122.7586206896551 241.62848442258144 L 1147.5862068965516 219.6430077301476 L 1172.4137931034484 211.0676973530101 L 1197.2413793103449 203.4968376669009 L 1222.0689655172414 195.6111501522605 L 1246.896551724138 191.03865073787767 L 1271.7241379310344 187.66549543218548 L 1296.551724137931 181.75872569688454 L 1321.3793103448277 174.58514874677905 L 1346.2068965517242 168.48348559381589 L 1371.0344827586207 163.15390021082226 L 1395.8620689655172 151.96252049660347 L 1420.6896551724137 148.29702506441788 L 1445.5172413793102 142.27032091824788 L 1470.344827586207 133.16280159287885 L 1495.1724137931035 127.3684703677676 L 1520.0 120.0" fill="none" stroke="#2ca02c" stroke-width="2" />
<circle cx="80.0" cy="920.0" r="4" fill="#d62728" />
<circle cx="104.82758620689656" cy="867.0939330053877" r="4" fill="#d62728" />
<circle cx="129.6551724137931" cy="790.5233075661747" r="4" fill="#d62728" />
<circle cx="154.48275862068965" cy="764.0252986647927" r="4" fill="#d62728" />
<circle cx="179.31034482758622" cy="745.2630592644648" r="4" fill="#d62728" />
<circle cx="204.13793103448276" cy="735.9081752166784" r="4" fill="#d62728" />
<circle cx="228.9655172413793" cy="717.490747247599" r="4" fill="#d62728" />
<circle cx="253.79310344827587" cy="698.1438275942844" r="4" fill="#d62728" />
<circle cx="278.62068965517244" cy="680.3335675802296" r="4" fill="#d62728" />
<circle cx="303.44827586206895" cy="665.4092293277114" r="4" fill="#d62728" />
<circle cx="328.2758620689655" cy="651.549308971656" r="4" fill="#d62728" />
<circle cx="353.1034482758621" cy="642.8240805809323" r="4" fill="#d62728" />
<circle cx="377.9310344827586" cy="634.1813070976809" r="4" fill="#d62728" />
<circle cx="402.7586206896552" cy="621.8205668774889" r="4" fill="#d62728" />
<circle cx="427.58620689655174" cy="603.5680487233544" r="4" fill="#d62728" />
<circle cx="452.41379310344826" cy="583.9287889435466" r="4" fill="#d62728" />
<circle cx="477.2413793103448" cy="571.298196298899" r="4" fill="#d62728" />
<circle cx="502.0689655172414" cy="553.3754977746545" r="4" fill="#d62728" />
<circle cx="526.8965517241379" cy="545.8795970953386" r="4" fill="#d62728" />
<circle cx="551.7241379310344" cy="539.0508315764816" r="4" fill="#d62728" />
<circle cx="576.551724137931" cy="524.3813539470602" r="4" fill="#d62728" />
<circle cx="601.3793103448276" cy="510.6638557039119" r="4" fill="#d62728" />
<circle cx="626.2068965517242" cy="497.785898336847" r="4" fill="#d62728" />
<circle cx="651.0344827586207" cy="479.9531506207543" r="4" fill="#d62728" />
<circle cx="675.8620689655172" cy="468.07214804403844" r="4" fill="#d62728" />
<circle cx="700.6896551724138" cy="460.50128835792924" r="4" fill="#d62728" />
<circle cx="725.5172413793103" cy="451.955961583509" r="4" fill="#d62728" />
<circle cx="750.3448275862069" cy="440.9894588896697" r="4" fill="#d62728" />
<circle cx="775.1724137931035" cy="432.10681658468025" r="4" fill="#d62728" />
<circle cx="800.0" cy="424.0337315530569" r="4" fill="#d62728" />
<circle cx="824.8275862068965" cy="410.33122511126726" r="4" fill="#d62728" />
<circle cx="849.6551724137931" cy="399.1323494963692" r="4" fill="#d62728" />
<circle cx="874.4827586206897" cy="382.13164675568044" r="4" fill="#d62728" />
<circle cx="899.3103448275862" cy="377.14687280393537" r="4" fill="#d62728" />
<circle cx="924.1379310344828" cy="371.4649800890138" r="4" fill="#d62728" />
<circle cx="948.9655172413793" cy="363.9840712110564" r="4" fill="#d62728" />
<circle cx="973.7931034482758" cy="357.91988756148976" r="4" fill="#d62728" />
<circle cx="998.6206896551724" cy="348.9622862497072" r="4" fill="#d62728" />
<circle cx="1023.448275862069" cy="339.4275005856173" r="4" fill="#d62728" />
<circle cx="1048.2758620689656" cy="334.8624970719138" r="4" fill="#d62728" />
<circle cx="1073.103448275862" cy="329.885219020848" r="4" fill="#d62728" />
<circle cx="1097.9310344827586" cy="321.6697118763176" r="4" fill="#d62728" />
<circle cx="1122.7586206896551" cy="314.82595455610215" r="4" fill="#d62728" />
<circle cx="1147.5862068965516" cy="292.0384164909815" r="4" fill="#d62728" />
<circle cx="1172.4137931034484" cy="283.23073319278524" r="4" fill="#d62728" />
<circle cx="1197.2413793103449" cy="273.8608573436402" r="4" fill="#d62728" />
<circle cx="1222.0689655172414" cy="267.1970016397282" r="4" fill="#d62728" />
<circle cx="1246.896551724138" cy="260.40571562426794" r="4" fill="#d62728" />
<circle cx="1271.7241379310344" cy="256.1330522370579" r="4" fill="#d62728" />
<circle cx="1296.551724137931" cy="248.29983602717266" r="4" fill="#d62728" />
<circle cx="1321.3793103448277" cy="247.8425860857344" r="4" fill="#d62728" />
<circle cx="1346.2068965517242" cy="247.8425860857344" r="4" fill="#d62728" />
<circle cx="1371.0344827586207" cy="247.8425860857344" r="4" fill="#d62728" />
<circle cx="1395.8620689655172" cy="247.8425860857344" r="4" fill="#d62728" />
<circle cx="1420.6896551724137" cy="247.8425860857344" r="4" fill="#d62728" />
<circle cx="1445.5172413793102" cy="247.8425860857344" r="4" fill="#d62728" />
<circle cx="1470.344827586207" cy="247.8425860857344" r="4" fill="#d62728" />
<circle cx="1495.1724137931035" cy="247.8425860857344" r="4" fill="#d62728" />
<circle cx="1520.0" cy="247.8425860857344" r="4" fill="#d62728" />
<path d="M 80.0 920.0 L 104.82758620689656 867.0939330053877 L 129.6551724137931 790.5233075661747 L 154.48275862068965 764.0252986647927 L 179.31034482758622 745.2630592644648 L 204.13793103448276 735.9081752166784 L 228.9655172413793 717.490747247599 L 253.79310344827587 698.1438275942844 L 278.62068965517244 680.3335675802296 L 303.44827586206895 665.4092293277114 L 328.2758620689655 651.549308971656 L 353.1034482758621 642.8240805809323 L 377.9310344827586 634.1813070976809 L 402.7586206896552 621.8205668774889 L 427.58620689655174 603.5680487233544 L 452.41379310344826 583.9287889435466 L 477.2413793103448 571.298196298899 L 502.0689655172414 553.3754977746545 L 526.8965517241379 545.8795970953386 L 551.7241379310344 539.0508315764816 L 576.551724137931 524.3813539470602 L 601.3793103448276 510.6638557039119 L 626.2068965517242 497.785898336847 L 651.0344827586207 479.9531506207543 L 675.8620689655172 468.07214804403844 L 700.6896551724138 460.50128835792924 L 725.5172413793103 451.955961583509 L 750.3448275862069 440.9894588896697 L 775.1724137931035 432.10681658468025 L 800.0 424.0337315530569 L 824.8275862068965 410.33122511126726 L 849.6551724137931 399.1323494963692 L 874.4827586206897 382.13164675568044 L 899.3103448275862 377.14687280393537 L 924.1379310344828 371.4649800890138 L 948.9655172413793 363.9840712110564 L 973.7931034482758 357.91988756148976 L 998.6206896551724 348.9622862497072 L 1023.448275862069 339.4275005856173 L 1048.2758620689656 334.8624970719138 L 1073.103448275862 329.885219020848 L 1097.9310344827586 321.6697118763176 L 1122.7586206896551 314.82595455610215 L 1147.5862068965516 292.0384164909815 L 1172.4137931034484 283.23073319278524 L 1197.2413793103449 273.8608573436402 L 1222.0689655172414 267.1970016397282 L 1246.896551724138 260.40571562426794 L 1271.7241379310344 256.1330522370579 L 1296.551724137931 248.29983602717266 L 1321.3793103448277 247.8425860857344 L 1346.2068965517242 247.8425860857344 L 1371.0344827586207 247.8425860857344 L 1395.8620689655172 247.8425860857344 L 1420.6896551724137 247.8425860857344 L 1445.5172413793102 247.8425860857344 L 1470.344827586207 247.8425860857344 L 1495.1724137931035 247.8425860857344 L 1520.0 247.8425860857344" fill="none" stroke="#d62728" stroke-width="2" />
<circle cx="80.0" cy="920.0" r="4" fill="#9467bd" />
<circle cx="104.82758620689656" cy="872.6783790114781" r="4" fill="#9467bd" />
<circle cx="129.6551724137931" cy="795.8154134457718" r="4" fill="#9467bd" />
<circle cx="154.48275862068965" cy="764.6549543218553" r="4" fill="#9467bd" />
<circle cx="179.31034482758622" cy="745.8327477160927" r="4" fill="#9467bd" />
<circle cx="204.13793103448276" cy="737.4373389552588" r="4" fill="#9467bd" />
<circle cx="228.9655172413793" cy="718.8624970719138" r="4" fill="#9467bd" />
<circle cx="253.79310344827587" cy="698.6235652377607" r="4" fill="#9467bd" />
<circle cx="278.62068965517244" cy="680.3110798781915" r="4" fill="#9467bd" />
<circle cx="303.44827586206895" cy="665.2218318107285" r="4" fill="#9467bd" />
<circle cx="328.2758620689655" cy="651.5193253689388" r="4" fill="#9467bd" />
<circle cx="353.1034482758621" cy="642.7866010775358" r="4" fill="#9467bd" />
<circle cx="377.9310344827586" cy="634.0838603888499" r="4" fill="#9467bd" />
<circle cx="402.7586206896552" cy="621.1534317170298" r="4" fill="#9467bd" />
<circle cx="427.58620689655174" cy="603.0358397751229" r="4" fill="#9467bd" />
<circle cx="452.41379310344826" cy="583.01428906067" r="4" fill="#9467bd" />
<circle cx="477.2413793103448" cy="570.038884984774" r="4" fill="#9467bd" />
<circle cx="502.0689655172414" cy="554.4624033731553" r="4" fill="#9467bd" />
<circle cx="526.8965517241379" cy="546.9590067931599" r="4" fill="#9467bd" />
<circle cx="551.7241379310344" cy="540.0552822675099" r="4" fill="#9467bd" />
<circle cx="576.551724137931" cy="525.1684235183884" r="4" fill="#9467bd" />
<circle cx="601.3793103448276" cy="511.0236589365191" r="4" fill="#9467bd" />
<circle cx="626.2068965517242" cy="498.16069337081285" r="4" fill="#9467bd" />
<circle cx="651.0344827586207" cy="480.2604825486062" r="4" fill="#9467bd" />
<circle cx="675.8620689655172" cy="468.2070742562661" r="4" fill="#9467bd" />
<circle cx="700.6896551724138" cy="460.6587022721949" r="4" fill="#9467bd" />
<circle cx="725.5172413793103" cy="452.11337549777465" r="4" fill="#9467bd" />
<circle cx="750.3448275862069" cy="441.13188100257673" r="4" fill="#9467bd" />
<circle cx="775.1724137931035" cy="431.9568985710939" r="4" fill="#9467bd" />
<circle cx="800.0" cy="423.8838135394706" r="4" fill="#9467bd" />
<circle cx="824.8275862068965" cy="410.36870461466384" r="4" fill="#9467bd" />
<circle cx="849.6551724137931" cy="399.4246896228625" r="4" fill="#9467bd" />
<circle cx="874.4827586206897" cy="382.32654017334266" r="4" fill="#9467bd" />
<circle cx="899.3103448275862" cy="377.2967908175217" r="4" fill="#9467bd" />
<circle cx="924.1379310344828" cy="371.8472710236589" r="4" fill="#9467bd" />
<circle cx="948.9655172413793" cy="364.3438744436636" r="4" fill="#9467bd" />
<circle cx="973.7931034482758" cy="358.25720309205906" r="4" fill="#9467bd" />
<circle cx="998.6206896551724" cy="349.23213867416257" r="4" fill="#9467bd" />
<circle cx="1023.448275862069" cy="339.1351604591239" r="4" fill="#9467bd" />
<circle cx="1048.2758620689656" cy="334.54766924338253" r="4" fill="#9467bd" />
<circle cx="1073.103448275862" cy="329.5703911923167" r="4" fill="#9467bd" />
<circle cx="1097.9310344827586" cy="321.34738814710704" r="4" fill="#9467bd" />
<circle cx="1122.7586206896551" cy="314.42117591941906" r="4" fill="#9467bd" />
<circle cx="1147.5862068965516" cy="291.62614195361914" r="4" fill="#9467bd" />
<circle cx="1172.4137931034484" cy="282.7734832513469" r="4" fill="#9467bd" />
<circle cx="1197.2413793103449" cy="273.4111033028812" r="4" fill="#9467bd" />
<circle cx="1222.0689655172414" cy="266.74724759896935" r="4" fill="#9467bd" />
<circle cx="1246.896551724138" cy="259.89599437807453" r="4" fill="#9467bd" />
<circle cx="1271.7241379310344" cy="255.638322792223" r="4" fill="#9467bd" />
<circle cx="1296.551724137931" cy="247.43780744905132" r="4" fill="#9467bd" />
<circle cx="1321.3793103448277" cy="238.58514874677905" r="4" fill="#9467bd" />
<circle cx="1346.2068965517242" cy="232.13117826188807" r="4" fill="#9467bd" />
<circle cx="1371.0344827586207" cy="225.10002342468965" r="4" fill="#9467bd" />
<circle cx="1395.8620689655172" cy="218.5935816350434" r="4" fill="#9467bd" />
<circle cx="1420.6896551724137" cy="209.3661278988053" r="4" fill="#9467bd" />
<circle cx="1445.5172413793102" cy="203.01710002342475" r="4" fill="#9467bd" />
<circle cx="1470.344827586207" cy="192.17802764113378" r="4" fill="#9467bd" />
<circle cx="1495.1724137931035" cy="185.79152026235647" r="4" fill="#9467bd" />
<circle cx="1520.0" cy="179.12766455844462" r="4" fill="#9467bd" />
<path d="M 80.0 920.0 L 104.82758620689656 872.6783790114781 L 129.6551724137931 795.8154134457718 L 154.48275862068965 764.6549543218553 L 179.31034482758622 745.8327477160927 L 204.13793103448276 737.4373389552588 L 228.9655172413793 718.8624970719138 L 253.79310344827587 698.6235652377607 L 278.62068965517244 680.3110798781915 L 303.44827586206895 665.2218318107285 L 328.2758620689655 651.5193253689388 L 353.1034482758621 642.7866010775358 L 377.9310344827586 634.0838603888499 L 402.7586206896552 621.1534317170298 L 427.58620689655174 603.0358397751229 L 452.41379310344826 583.01428906067 L 477.2413793103448 570.038884984774 L 502.0689655172414 554.4624033731553 L 526.8965517241379 546.9590067931599 L 551.7241379310344 540.0552822675099 L 576.551724137931 525.1684235183884 L 601.3793103448276 511.0236589365191 L 626.2068965517242 498.16069337081285 L 651.0344827586207 480.2604825486062 L 675.8620689655172 468.2070742562661 L 700.6896551724138 460.6587022721949 L 725.5172413793103 452.11337549777465 L 750.3448275862069 441.13188100257673 L 775.1724137931035 431.9568985710939 L 800.0 423.8838135394706 L 824.8275862068965 410.36870461466384 L 849.6551724137931 399.4246896228625 L 874.4827586206897 382.32654017334266 L 899.3103448275862 377.2967908175217 L 924.1379310344828 371.8472710236589 L 948.9655172413793 364.3438744436636 L 973.7931034482758 358.25720309205906 L 998.6206896551724 349.23213867416257 L 1023.448275862069 339.1351604591239 L 1048.2758620689656 334.54766924338253 L 1073.103448275862 329.5703911923167 L 1097.9310344827586 321.34738814710704 L 1122.7586206896551 314.42117591941906 L 1147.5862068965516 291.62614195361914 L 1172.4137931034484 282.7734832513469 L 1197.2413793103449 273.4111033028812 L 1222.0689655172414 266.74724759896935 L 1246.896551724138 259.89599437807453 L 1271.7241379310344 255.638322792223 L 1296.551724137931 247.43780744905132 L 1321.3793103448277 238.58514874677905 L 1346.2068965517242 232.13117826188807 L 1371.0344827586207 225.10002342468965 L 1395.8620689655172 218.5935816350434 L 1420.6896551724137 209.3661278988053 L 1445.5172413793102 203.01710002342475 L 1470.344827586207 192.17802764113378 L 1495.1724137931035 185.79152026235647 L 1520.0 179.12766455844462" fill="none" stroke="#9467bd" stroke-width="2" />
<circle cx="80.0" cy="920.0" r="4" fill="#66ffbd" />
<circle cx="104.82758620689656" cy="683.9615835090185" r="4" fill="#66ffbd" />
<circle cx="129.6551724137931" cy="706.0370110096042" r="4" fill="#66ffbd" />
<circle cx="154.48275862068965" cy="719.5521199344109" r="4" fill="#66ffbd" />
<circle cx="179.31034482758622" cy="729.6715858514874" r="4" fill="#66ffbd" />
<circle cx="204.13793103448276" cy="732.2276879831343" r="4" fill="#66ffbd" />
<circle cx="228.9655172413793" cy="738.8615600843289" r="4" fill="#66ffbd" />
<circle cx="253.79310344827587" cy="743.7563832279222" r="4" fill="#66ffbd" />
<circle cx="278.62068965517244" cy="750.1578824080581" r="4" fill="#66ffbd" />
<circle cx="303.44827586206895" cy="755.232607167955" r="4" fill="#66ffbd" />
<circle cx="328.2758620689655" cy="758.8156476926681" r="4" fill="#66ffbd" />
<circle cx="353.1034482758621" cy="762.2187866010776" r="4" fill="#66ffbd" />
<circle cx="377.9310344827586" cy="764.1602248770204" r="4" fill="#66ffbd" />
<circle cx="402.7586206896552" cy="769.5572733661279" r="4" fill="#66ffbd" />
<circle cx="427.58620689655174" cy="778.0426329351136" r="4" fill="#66ffbd" />
<circle cx="452.41379310344826" cy="784.646521433591" r="4" fill="#66ffbd" />
<circle cx="477.2413793103448" cy="789.1740454438979" r="4" fill="#66ffbd" />
<circle cx="502.0689655172414" cy="796.3776059967206" r="4" fill="#66ffbd" />
<circle cx="526.8965517241379" cy="797.2021550714453" r="4" fill="#66ffbd" />
<circle cx="551.7241379310344" cy="798.8062778168189" r="4" fill="#66ffbd" />
<circle cx="576.551724137931" cy="801.6622159756383" r="4" fill="#66ffbd" />
<circle cx="601.3793103448276" cy="806.4595924104005" r="4" fill="#66ffbd" />
<circle cx="626.2068965517242" cy="807.7713750292809" r="4" fill="#66ffbd" />
<circle cx="651.0344827586207" cy="810.3799484656828" r="4" fill="#66ffbd" />
<circle cx="675.8620689655172" cy="813.160927617709" r="4" fill="#66ffbd" />
<circle cx="700.6896551724138" cy="809.3605059732959" r="4" fill="#66ffbd" />
<circle cx="725.5172413793103" cy="815.079878191614" r="4" fill="#66ffbd" />
<circle cx="750.3448275862069" cy="816.4291403138908" r="4" fill="#66ffbd" />
<circle cx="775.1724137931035" cy="819.5324431951277" r="4" fill="#66ffbd" />
<circle cx="800.0" cy="821.4963691731084" r="4" fill="#66ffbd" />
<circle cx="824.8275862068965" cy="824.0374795033965" r="4" fill="#66ffbd" />
<circle cx="849.6551724137931" cy="824.9894588896697" r="4" fill="#66ffbd" />
<circle cx="874.4827586206897" cy="831.0611384399157" r="4" fill="#66ffbd" />
<circle cx="899.3103448275862" cy="831.9306629187163" r="4" fill="#66ffbd" />
<circle cx="924.1379310344828" cy="833.4223471539002" r="4" fill="#66ffbd" />
<circle cx="948.9655172413793" cy="835.243851018974" r="4" fill="#66ffbd" />
<circle cx="973.7931034482758" cy="836.360740220192" r="4" fill="#66ffbd" />
<circle cx="998.6206896551724" cy="837.6650269383931" r="4" fill="#66ffbd" />
<circle cx="1023.448275862069" cy="839.6814242211291" r="4" fill="#66ffbd" />
<circle cx="1048.2758620689656" cy="838.8044038416491" r="4" fill="#66ffbd" />
<circle cx="1073.103448275862" cy="840.5059732958539" r="4" fill="#66ffbd" />
<circle cx="1097.9310344827586" cy="841.9301944249239" r="4" fill="#66ffbd" />
<circle cx="1122.7586206896551" cy="844.3063949402671" r="4" fill="#66ffbd" />
<circle cx="1147.5862068965516" cy="845.1759194190677" r="4" fill="#66ffbd" />
<circle cx="1172.4137931034484" cy="845.4307800421644" r="4" fill="#66ffbd" />
<circle cx="1197.2413793103449" cy="847.2297962052003" r="4" fill="#66ffbd" />
<circle cx="1222.0689655172414" cy="846.0004684937925" r="4" fill="#66ffbd" />
<circle cx="1246.896551724138" cy="848.21925509487" r="4" fill="#66ffbd" />
<circle cx="1271.7241379310344" cy="849.1262590770673" r="4" fill="#66ffbd" />
<circle cx="1296.551724137931" cy="851.3975169829" r="4" fill="#66ffbd" />
<circle cx="1321.3793103448277" cy="844.6886858749122" r="4" fill="#66ffbd" />
<circle cx="1346.2068965517242" cy="838.6170063246661" r="4" fill="#66ffbd" />
<circle cx="1371.0344827586207" cy="834.1419536191146" r="4" fill="#66ffbd" />
<circle cx="1395.8620689655172" cy="823.1529632232373" r="4" fill="#66ffbd" />
<circle cx="1420.6896551724137" cy="819.4874677910518" r="4" fill="#66ffbd" />
<circle cx="1445.5172413793102" cy="813.4682595455611" r="4" fill="#66ffbd" />
<circle cx="1470.344827586207" cy="804.3757320215507" r="4" fill="#66ffbd" />
<circle cx="1495.1724137931035" cy="798.5888966971188" r="4" fill="#66ffbd" />
<circle cx="1520.0" cy="791.2204263293511" r="4" fill="#66ffbd" />
<path d="M 80.0 920.0 L 104.82758620689656 683.9615835090185 L 129.6551724137931 706.0370110096042 L 154.48275862068965 719.5521199344109 L 179.31034482758622 729.6715858514874 L 204.13793103448276 732.2276879831343 L 228.9655172413793 738.8615600843289 L 253.79310344827587 743.7563832279222 L 278.62068965517244 750.1578824080581 L 303.44827586206895 755.232607167955 L 328.2758620689655 758.8156476926681 L 353.1034482758621 762.2187866010776 L 377.9310344827586 764.1602248770204 L 402.7586206896552 769.5572733661279 L 427.58620689655174 778.0426329351136 L 452.41379310344826 784.646521433591 L 477.2413793103448 789.1740454438979 L 502.0689655172414 796.3776059967206 L 526.8965517241379 797.2021550714453 L 551.7241379310344 798.8062778168189 L 576.551724137931 801.6622159756383 L 601.3793103448276 806.4595924104005 L 626.2068965517242 807.7713750292809 L 651.0344827586207 810.3799484656828 L 675.8620689655172 813.160927617709 L 700.6896551724138 809.3605059732959 L 725.5172413793103 815.079878191614 L 750.3448275862069 816.4291403138908 L 775.1724137931035 819.5324431951277 L 800.0 821.4963691731084 L 824.8275862068965 824.0374795033965 L 849.6551724137931 824.9894588896697 L 874.4827586206897 831.0611384399157 L 899.3103448275862 831.9306629187163 L 924.1379310344828 833.4223471539002 L 948.9655172413793 835.243851018974 L 973.7931034482758 836.360740220192 L 998.6206896551724 837.6650269383931 L 1023.448275862069 839.6814242211291 L 1048.2758620689656 838.8044038416491 L 1073.103448275862 840.5059732958539 L 1097.9310344827586 841.9301944249239 L 1122.7586206896551 844.3063949402671 L 1147.5862068965516 845.1759194190677 L 1172.4137931034484 845.4307800421644 L 1197.2413793103449 847.2297962052003 L 1222.0689655172414 846.0004684937925 L 1246.896551724138 848.21925509487 L 1271.7241379310344 849.1262590770673 L 1296.551724137931 851.3975169829 L 1321.3793103448277 844.6886858749122 L 1346.2068965517242 838.6170063246661 L 1371.0344827586207 834.1419536191146 L 1395.8620689655172 823.1529632232373 L 1420.6896551724137 819.4874677910518 L 1445.5172413793102 813.4682595455611 L 1470.344827586207 804.3757320215507 L 1495.1724137931035 798.5888966971188 L 1520.0 791.2204263293511" fill="none" stroke="#66ffbd" stroke-width="2" />
<text x="80.0" y="940" text-anchor="middle">08-06</text>
<text x="104.82758620689656" y="940" text-anchor="middle">08-07</text>
<text x="129.6551724137931" y="940" text-anchor="middle">08-08</text>
<text x="154.48275862068965" y="940" text-anchor="middle">08-09</text>
<text x="179.31034482758622" y="940" text-anchor="middle">08-10</text>
<text x="204.13793103448276" y="940" text-anchor="middle">08-11</text>
<text x="228.9655172413793" y="940" text-anchor="middle">08-12</text>
<text x="253.79310344827587" y="940" text-anchor="middle">08-13</text>
<text x="278.62068965517244" y="940" text-anchor="middle">08-14</text>
<text x="303.44827586206895" y="940" text-anchor="middle">08-15</text>
<text x="328.2758620689655" y="940" text-anchor="middle">08-16</text>
<text x="353.1034482758621" y="940" text-anchor="middle">08-17</text>
<text x="377.9310344827586" y="940" text-anchor="middle">08-18</text>
<text x="402.7586206896552" y="940" text-anchor="middle">08-19</text>
<text x="427.58620689655174" y="940" text-anchor="middle">08-20</text>
<text x="452.41379310344826" y="940" text-anchor="middle">08-21</text>
<text x="477.2413793103448" y="940" text-anchor="middle">08-22</text>
<text x="502.0689655172414" y="940" text-anchor="middle">08-23</text>
<text x="526.8965517241379" y="940" text-anchor="middle">08-24</text>
<text x="551.7241379310344" y="940" text-anchor="middle">08-25</text>
<text x="576.551724137931" y="940" text-anchor="middle">08-26</text>
<text x="601.3793103448276" y="940" text-anchor="middle">08-27</text>
<text x="626.2068965517242" y="940" text-anchor="middle">08-28</text>
<text x="651.0344827586207" y="940" text-anchor="middle">08-29</text>
<text x="675.8620689655172" y="940" text-anchor="middle">08-30</text>
<text x="700.6896551724138" y="940" text-anchor="middle">08-31</text>
<text x="725.5172413793103" y="940" text-anchor="middle">09-01</text>
<text x="750.3448275862069" y="940" text-anchor="middle">09-02</text>
<text x="775.1724137931035" y="940" text-anchor="middle">09-03</text>
<text x="800.0" y="940" text-anchor="middle">09-04</text>
<text x="824.8275862068965" y="940" text-anchor="middle">09-05</text>
<text x="849.6551724137931" y="940" text-anchor="middle">09-06</text>
<text x="874.4827586206897" y="940" text-anchor="middle">09-07</text>
<text x="899.3103448275862" y="940" text-anchor="middle">09-08</text>
<text x="924.1379310344828" y="940" text-anchor="middle">09-09</text>
<text x="948.9655172413793" y="940" text-anchor="middle">09-10</text>
<text x="973.7931034482758" y="940" text-anchor="middle">09-11</text>
<text x="998.6206896551724" y="940" text-anchor="middle">09-12</text>
<text x="1023.448275862069" y="940" text-anchor="middle">09-13</text>
<text x="1048.2758620689656" y="940" text-anchor="middle">09-14</text>
<text x="1073.103448275862" y="940" text-anchor="middle">09-15</text>
<text x="1097.9310344827586" y="940" text-anchor="middle">09-16</text>
<text x="1122.7586206896551" y="940" text-anchor="middle">09-17</text>
<text x="1147.5862068965516" y="940" text-anchor="middle">09-18</text>
<text x="1172.4137931034484" y="940" text-anchor="middle">09-19</text>
<text x="1197.2413793103449" y="940" text-anchor="middle">09-20</text>
<text x="1222.0689655172414" y="940" text-anchor="middle">09-21</text>
<text x="1246.896551724138" y="940" text-anchor="middle">09-22</text>
<text x="1271.7241379310344" y="940" text-anchor="middle">09-23</text>
<text x="1296.551724137931" y="940" text-anchor="middle">09-24</text>
<text x="1321.3793103448277" y="940" text-anchor="middle">09-25</text>
<text x="1346.2068965517242" y="940" text-anchor="middle">09-26</text>
<text x="1371.0344827586207" y="940" text-anchor="middle">09-27</text>
<text x="1395.8620689655172" y="940" text-anchor="middle">09-28</text>
<text x="1420.6896551724137" y="940" text-anchor="middle">09-29</text>
<text x="1445.5172413793102" y="940" text-anchor="middle">09-30</text>
<text x="1470.344827586207" y="940" text-anchor="middle">10-01</text>
<text x="1495.1724137931035" y="940" text-anchor="middle">10-02</text>
<text x="1520.0" y="940" text-anchor="middle">10-03</text>
<rect x="90" y="100" width="130" height="185" class="legend-box" />
<text x="100" y="120" class="legend-item">图例:</text>
<rect x="100" y="137" width="15" height="15" fill="#1f77b4" rx="3" />
<text x="120" y="145" class="legend-item">构件聚合数据</text>
<rect x="100" y="162" width="15" height="15" fill="#ff7f0e" rx="3" />
<text x="120" y="170" class="legend-item">构件基本信息</text>
<rect x="100" y="187" width="15" height="15" fill="#2ca02c" rx="3" />
<text x="120" y="195" class="legend-item">构件徽标</text>
<rect x="100" y="212" width="15" height="15" fill="#d62728" rx="3" />
<text x="120" y="220" class="legend-item">构件扩展元数据</text>
<rect x="100" y="237" width="15" height="15" fill="#9467bd" rx="3" />
<text x="120" y="245" class="legend-item">构件版本信息</text>
<rect x="100" y="262" width="15" height="15" fill="#66ffbd" rx="3" />
<text x="120" y="270" class="legend-item">数据量偏差</text>
<text x="1520" y="990" text-anchor="end" font-size="10" fill="#666">生成时间: 2025-10-03 00:40:47</text>
</svg>