<svg xmlns="http://www.w3.org/2000/svg" width="1600" height="1000" viewBox="0 0 1600 1000">
<style>
  text {
    font-family: Arial, sans-serif;
    font-size: 12px;
    fill: #333;
  }
  .axis-label { font-size: 14px; }
  .title { font-size: 18px; font-weight: bold; }
  .legend-item { font-size: 11px; }
  .legend-box { fill: white; fill-opacity: 0.85; stroke: #cccccc; stroke-width: 1; rx: 5; }
</style>
<text x="800.0" y="30" text-anchor="middle" class="title">Daily Data Growth Trend</text>
<text x="800.0" y="980" text-anchor="middle" class="axis-label">Date</text>
<g transform="rotate(-90)">
<text x="-500.0" y="20" text-anchor="middle" class="axis-label">Count</text>
</g>
<rect x="0" y="0" width="1600" height="1000" fill="#f8f8f8" />
<line x1="80" y1="920.0" x2="1520" y2="920.0" stroke="#e0e0e0" stroke-width="1" />
<text x="70" y="925.0" text-anchor="end">0</text>
<line x1="80" y1="752.0" x2="1520" y2="752.0" stroke="#e0e0e0" stroke-width="1" />
<text x="70" y="757.0" text-anchor="end">18.2k</text>
<line x1="80" y1="584.0" x2="1520" y2="584.0" stroke="#e0e0e0" stroke-width="1" />
<text x="70" y="589.0" text-anchor="end">36.4k</text>
<line x1="80" y1="416.0" x2="1520" y2="416.0" stroke="#e0e0e0" stroke-width="1" />
<text x="70" y="421.0" text-anchor="end">54.6k</text>
<line x1="80" y1="248.0" x2="1520" y2="248.0" stroke="#e0e0e0" stroke-width="1" />
<text x="70" y="253.0" text-anchor="end">72.9k</text>
<line x1="80" y1="80.0" x2="1520" y2="80.0" stroke="#e0e0e0" stroke-width="1" />
<text x="70" y="85.0" text-anchor="end">91.1k</text>
<line x1="80" y1="80" x2="80" y2="920" stroke="#333333" stroke-width="2" />
<line x1="80" y1="920" x2="1520" y2="920" stroke="#333333" stroke-width="2" />
<circle cx="80.0" cy="920.0" r="4" fill="#1f77b4" />
<circle cx="118.91891891891892" cy="874.9186659134665" r="4" fill="#1f77b4" />
<circle cx="157.83783783783784" cy="779.3790710275417" r="4" fill="#1f77b4" />
<circle cx="196.75675675675677" cy="740.9474181759491" r="4" fill="#1f77b4" />
<circle cx="235.67567567567568" cy="717.8164881659193" r="4" fill="#1f77b4" />
<circle cx="274.5945945945946" cy="706.2049088666259" r="4" fill="#1f77b4" />
<circle cx="313.51351351351354" cy="683.0739788565961" r="4" fill="#1f77b4" />
<circle cx="352.43243243243245" cy="658.1076999342872" r="4" fill="#1f77b4" />
<circle cx="391.35135135135135" cy="635.0966670893811" r="4" fill="#1f77b4" />
<circle cx="430.27027027027026" cy="616.3373721769406" r="4" fill="#1f77b4" />
<circle cx="469.18918918918916" cy="599.2289689996657" r="4" fill="#1f77b4" />
<circle cx="508.1081081081081" cy="588.47511557395" r="4" fill="#1f77b4" />
<circle cx="547.0270270270271" cy="577.8319364545025" r="4" fill="#1f77b4" />
<circle cx="585.9459459459459" cy="561.8302763399086" r="4" fill="#1f77b4" />
<circle cx="624.8648648648649" cy="539.1051521195283" r="4" fill="#1f77b4" />
<circle cx="663.7837837837837" cy="514.5262332691576" r="4" fill="#1f77b4" />
<circle cx="702.7027027027027" cy="498.2109959534707" r="4" fill="#1f77b4" />
<circle cx="741.6216216216217" cy="475.88245466388446" r="4" fill="#1f77b4" />
<circle cx="780.5405405405405" cy="466.65959580821067" r="4" fill="#1f77b4" />
<circle cx="819.4594594594595" cy="458.1653428021351" r="4" fill="#1f77b4" />
<circle cx="858.3783783783783" cy="439.89485940904535" r="4" fill="#1f77b4" />
<circle cx="897.2972972972973" cy="421.9287303581928" r="4" fill="#1f77b4" />
<circle cx="936.2162162162163" cy="406.0192988321555" r="4" fill="#1f77b4" />
<circle cx="975.1351351351351" cy="384.0596718967962" r="4" fill="#1f77b4" />
<circle cx="1014.0540540540541" cy="368.9434062323469" r="4" fill="#1f77b4" />
<circle cx="1052.972972972973" cy="359.6283187881164" r="4" fill="#1f77b4" />
<circle cx="1091.8918918918919" cy="349.1234825515039" r="4" fill="#1f77b4" />
<circle cx="1130.8108108108108" cy="335.63044004565313" r="4" fill="#1f77b4" />
<circle cx="1169.7297297297298" cy="323.9174092989474" r="4" fill="#1f77b4" />
<circle cx="1208.6486486486488" cy="313.96594459367543" r="4" fill="#1f77b4" />
<circle cx="1247.5675675675675" cy="297.06966717008106" r="4" fill="#1f77b4" />
<circle cx="1286.4864864864865" cy="283.28149318084877" r="4" fill="#1f77b4" />
<circle cx="1325.4054054054054" cy="262.2533749899126" r="4" fill="#1f77b4" />
<circle cx="1364.3243243243244" cy="256.09250527432243" r="4" fill="#1f77b4" />
<circle cx="1403.2432432432433" cy="249.10157826172167" r="4" fill="#1f77b4" />
<circle cx="1442.162162162162" cy="239.83260511176957" r="4" fill="#1f77b4" />
<circle cx="1481.081081081081" cy="232.38053515638512" r="4" fill="#1f77b4" />
<circle cx="1520.0" cy="221.3038816707209" r="4" fill="#1f77b4" />
<path d="M 80.0 920.0 L 118.91891891891892 874.9186659134665 L 157.83783783783784 779.3790710275417 L 196.75675675675677 740.9474181759491 L 235.67567567567568 717.8164881659193 L 274.5945945945946 706.2049088666259 L 313.51351351351354 683.0739788565961 L 352.43243243243245 658.1076999342872 L 391.35135135135135 635.0966670893811 L 430.27027027027026 616.3373721769406 L 469.18918918918916 599.2289689996657 L 508.1081081081081 588.47511557395 L 547.0270270270271 577.8319364545025 L 585.9459459459459 561.8302763399086 L 624.8648648648649 539.1051521195283 L 663.7837837837837 514.5262332691576 L 702.7027027027027 498.2109959534707 L 741.6216216216217 475.88245466388446 L 780.5405405405405 466.65959580821067 L 819.4594594594595 458.1653428021351 L 858.3783783783783 439.89485940904535 L 897.2972972972973 421.9287303581928 L 936.2162162162163 406.0192988321555 L 975.1351351351351 384.0596718967962 L 1014.0540540540541 368.9434062323469 L 1052.972972972973 359.6283187881164 L 1091.8918918918919 349.1234825515039 L 1130.8108108108108 335.63044004565313 L 1169.7297297297298 323.9174092989474 L 1208.6486486486488 313.96594459367543 L 1247.5675675675675 297.06966717008106 L 1286.4864864864865 283.28149318084877 L 1325.4054054054054 262.2533749899126 L 1364.3243243243244 256.09250527432243 L 1403.2432432432433 249.10157826172167 L 1442.162162162162 239.83260511176957 L 1481.081081081081 232.38053515638512 L 1520.0 221.3038816707209" fill="none" stroke="#1f77b4" stroke-width="2" />
<circle cx="80.0" cy="920.0" r="4" fill="#ff7f0e" />
<circle cx="118.91891891891892" cy="590.9652874649819" r="4" fill="#ff7f0e" />
<circle cx="157.83783783783784" cy="522.3195490022019" r="4" fill="#ff7f0e" />
<circle cx="196.75675675675677" cy="500.30458491370865" r="4" fill="#ff7f0e" />
<circle cx="235.67567567567568" cy="489.45850289943627" r="4" fill="#ff7f0e" />
<circle cx="274.5945945945946" cy="480.97347275221637" r="4" fill="#ff7f0e" />
<circle cx="313.51351351351354" cy="465.84798422891134" r="4" fill="#ff7f0e" />
<circle cx="352.43243243243245" cy="446.6552149502542" r="4" fill="#ff7f0e" />
<circle cx="391.35135135135135" cy="431.3452692498357" r="4" fill="#ff7f0e" />
<circle cx="430.27027027027026" cy="418.728398335274" r="4" fill="#ff7f0e" />
<circle cx="469.18918918918916" cy="405.9639616790215" r="4" fill="#ff7f0e" />
<circle cx="508.1081081081081" cy="399.2958347263693" r="4" fill="#ff7f0e" />
<circle cx="547.0270270270271" cy="391.0413760505413" r="4" fill="#ff7f0e" />
<circle cx="585.9459459459459" cy="381.6525057354654" r="4" fill="#ff7f0e" />
<circle cx="624.8648648648649" cy="369.09097197403764" r="4" fill="#ff7f0e" />
<circle cx="663.7837837837837" cy="352.27770028014436" r="4" fill="#ff7f0e" />
<circle cx="702.7027027027027" cy="341.486955419006" r="4" fill="#ff7f0e" />
<circle cx="741.6216216216217" cy="328.01235863086663" r="4" fill="#ff7f0e" />
<circle cx="780.5405405405405" cy="319.81323710817264" r="4" fill="#ff7f0e" />
<circle cx="819.4594594594595" cy="313.2742301794999" r="4" fill="#ff7f0e" />
<circle cx="858.3783783783783" cy="298.4162045630094" r="4" fill="#ff7f0e" />
<circle cx="897.2972972972973" cy="286.32503660322106" r="4" fill="#ff7f0e" />
<circle cx="936.2162162162163" cy="272.0111596592154" r="4" fill="#ff7f0e" />
<circle cx="975.1351351351351" cy="253.2334190290636" r="4" fill="#ff7f0e" />
<circle cx="1014.0540540540541" cy="241.50194256464647" r="4" fill="#ff7f0e" />
<circle cx="1052.972972972973" cy="227.50164282173364" r="4" fill="#ff7f0e" />
<circle cx="1091.8918918918919" cy="224.02462503314462" r="4" fill="#ff7f0e" />
<circle cx="1130.8108108108108" cy="212.18247426245955" r="4" fill="#ff7f0e" />
<circle cx="1169.7297297297298" cy="204.26003850543577" r="4" fill="#ff7f0e" />
<circle cx="1208.6486486486488" cy="196.67884852607187" r="4" fill="#ff7f0e" />
<circle cx="1247.5675675675675" cy="182.5863201946023" r="4" fill="#ff7f0e" />
<circle cx="1286.4864864864865" cy="169.93255784461792" r="4" fill="#ff7f0e" />
<circle cx="1325.4054054054054" cy="155.9875952548391" r="4" fill="#ff7f0e" />
<circle cx="1364.3243243243244" cy="150.8965771665072" r="4" fill="#ff7f0e" />
<circle cx="1403.2432432432433" cy="145.67643905419584" r="4" fill="#ff7f0e" />
<circle cx="1442.162162162162" cy="138.6393977473167" r="4" fill="#ff7f0e" />
<circle cx="1481.081081081081" cy="132.5338651848607" r="4" fill="#ff7f0e" />
<circle cx="1520.0" cy="123.06198914008371" r="4" fill="#ff7f0e" />
<path d="M 80.0 920.0 L 118.91891891891892 590.9652874649819 L 157.83783783783784 522.3195490022019 L 196.75675675675677 500.30458491370865 L 235.67567567567568 489.45850289943627 L 274.5945945945946 480.97347275221637 L 313.51351351351354 465.84798422891134 L 352.43243243243245 446.6552149502542 L 391.35135135135135 431.3452692498357 L 430.27027027027026 418.728398335274 L 469.18918918918916 405.9639616790215 L 508.1081081081081 399.2958347263693 L 547.0270270270271 391.0413760505413 L 585.9459459459459 381.6525057354654 L 624.8648648648649 369.09097197403764 L 663.7837837837837 352.27770028014436 L 702.7027027027027 341.486955419006 L 741.6216216216217 328.01235863086663 L 780.5405405405405 319.81323710817264 L 819.4594594594595 313.2742301794999 L 858.3783783783783 298.4162045630094 L 897.2972972972973 286.32503660322106 L 936.2162162162163 272.0111596592154 L 975.1351351351351 253.2334190290636 L 1014.0540540540541 241.50194256464647 L 1052.972972972973 227.50164282173364 L 1091.8918918918919 224.02462503314462 L 1130.8108108108108 212.18247426245955 L 1169.7297297297298 204.26003850543577 L 1208.6486486486488 196.67884852607187 L 1247.5675675675675 182.5863201946023 L 1286.4864864864865 169.93255784461792 L 1325.4054054054054 155.9875952548391 L 1364.3243243243244 150.8965771665072 L 1403.2432432432433 145.67643905419584 L 1442.162162162162 138.6393977473167 L 1481.081081081081 132.5338651848607 L 1520.0 123.06198914008371" fill="none" stroke="#ff7f0e" stroke-width="2" />
<circle cx="80.0" cy="920.0" r="4" fill="#2ca02c" />
<circle cx="118.91891891891892" cy="584.5000634071546" r="4" fill="#2ca02c" />
<circle cx="157.83783783783784" cy="516.1217878511892" r="4" fill="#2ca02c" />
<circle cx="196.75675675675677" cy="494.31894951637634" r="4" fill="#2ca02c" />
<circle cx="235.67567567567568" cy="483.6388789615061" r="4" fill="#2ca02c" />
<circle cx="274.5945945945946" cy="475.1722945319976" r="4" fill="#2ca02c" />
<circle cx="313.51351351351354" cy="460.203594609239" r="4" fill="#2ca02c" />
<circle cx="352.43243243243245" cy="441.25984251968504" r="4" fill="#2ca02c" />
<circle cx="391.35135135135135" cy="426.12513113752436" r="4" fill="#2ca02c" />
<circle cx="430.27027027027026" cy="413.609711670375" r="4" fill="#2ca02c" />
<circle cx="469.18918918918916" cy="400.9098350261122" r="4" fill="#2ca02c" />
<circle cx="508.1081081081081" cy="394.3431595208725" r="4" fill="#2ca02c" />
<circle cx="547.0270270270271" cy="386.0887008450445" r="4" fill="#2ca02c" />
<circle cx="585.9459459459459" cy="376.72749910653556" r="4" fill="#2ca02c" />
<circle cx="624.8648648648649" cy="364.4426511107781" r="4" fill="#2ca02c" />
<circle cx="663.7837837837837" cy="347.989070912256" r="4" fill="#2ca02c" />
<circle cx="702.7027027027027" cy="337.24444034539613" r="4" fill="#2ca02c" />
<circle cx="741.6216216216217" cy="323.7790664161123" r="4" fill="#2ca02c" />
<circle cx="780.5405405405405" cy="315.57072203456266" r="4" fill="#2ca02c" />
<circle cx="819.4594594594595" cy="309.05016082360135" r="4" fill="#2ca02c" />
<circle cx="858.3783783783783" cy="294.2935866545232" r="4" fill="#2ca02c" />
<circle cx="897.2972972972973" cy="282.23008727130195" r="4" fill="#2ca02c" />
<circle cx="936.2162162162163" cy="267.9346560450076" r="4" fill="#2ca02c" />
<circle cx="975.1351351351351" cy="249.18458399142276" r="4" fill="#2ca02c" />
<circle cx="1014.0540540540541" cy="237.48999896242844" r="4" fill="#2ca02c" />
<circle cx="1052.972972972973" cy="223.49892207837127" r="4" fill="#2ca02c" />
<circle cx="1091.8918918918919" cy="220.0311271486379" r="4" fill="#2ca02c" />
<circle cx="1130.8108108108108" cy="208.19819923680848" r="4" fill="#2ca02c" />
<circle cx="1169.7297297297298" cy="200.30343205635165" r="4" fill="#2ca02c" />
<circle cx="1208.6486486486488" cy="192.76835637126624" r="4" fill="#2ca02c" />
<circle cx="1247.5675675675675" cy="178.99862809974525" r="4" fill="#2ca02c" />
<circle cx="1286.4864864864865" cy="166.38175718518346" r="4" fill="#2ca02c" />
<circle cx="1325.4054054054054" cy="152.824154667343" r="4" fill="#2ca02c" />
<circle cx="1364.3243243243244" cy="147.7331365790111" r="4" fill="#2ca02c" />
<circle cx="1403.2432432432433" cy="142.5775584786894" r="4" fill="#2ca02c" />
<circle cx="1442.162162162162" cy="135.54974003066604" r="4" fill="#2ca02c" />
<circle cx="1481.081081081081" cy="129.471876044777" r="4" fill="#2ca02c" />
<circle cx="1520.0" cy="120.0" r="4" fill="#2ca02c" />
<path d="M 80.0 920.0 L 118.91891891891892 584.5000634071546 L 157.83783783783784 516.1217878511892 L 196.75675675675677 494.31894951637634 L 235.67567567567568 483.6388789615061 L 274.5945945945946 475.1722945319976 L 313.51351351351354 460.203594609239 L 352.43243243243245 441.25984251968504 L 391.35135135135135 426.12513113752436 L 430.27027027027026 413.609711670375 L 469.18918918918916 400.9098350261122 L 508.1081081081081 394.3431595208725 L 547.0270270270271 386.0887008450445 L 585.9459459459459 376.72749910653556 L 624.8648648648649 364.4426511107781 L 663.7837837837837 347.989070912256 L 702.7027027027027 337.24444034539613 L 741.6216216216217 323.7790664161123 L 780.5405405405405 315.57072203456266 L 819.4594594594595 309.05016082360135 L 858.3783783783783 294.2935866545232 L 897.2972972972973 282.23008727130195 L 936.2162162162163 267.9346560450076 L 975.1351351351351 249.18458399142276 L 1014.0540540540541 237.48999896242844 L 1052.972972972973 223.49892207837127 L 1091.8918918918919 220.0311271486379 L 1130.8108108108108 208.19819923680848 L 1169.7297297297298 200.30343205635165 L 1208.6486486486488 192.76835637126624 L 1247.5675675675675 178.99862809974525 L 1286.4864864864865 166.38175718518346 L 1325.4054054054054 152.824154667343 L 1364.3243243243244 147.7331365790111 L 1403.2432432432433 142.5775584786894 L 1442.162162162162 135.54974003066604 L 1481.081081081081 129.471876044777 L 1520.0 120.0" fill="none" stroke="#2ca02c" stroke-width="2" />
<circle cx="80.0" cy="920.0" r="4" fill="#d62728" />
<circle cx="118.91891891891892" cy="854.9050621966544" r="4" fill="#d62728" />
<circle cx="157.83783783783784" cy="760.6935589859467" r="4" fill="#d62728" />
<circle cx="196.75675675675677" cy="728.0907529311398" r="4" fill="#d62728" />
<circle cx="235.67567567567568" cy="705.0059372153884" r="4" fill="#d62728" />
<circle cx="274.5945945945946" cy="693.4958093635074" r="4" fill="#d62728" />
<circle cx="313.51351351351354" cy="670.835245155117" r="4" fill="#d62728" />
<circle cx="352.43243243243245" cy="647.0310464486229" r="4" fill="#d62728" />
<circle cx="391.35135135135135" cy="625.117533807542" r="4" fill="#d62728" />
<circle cx="430.27027027027026" cy="606.7548218258955" r="4" fill="#d62728" />
<circle cx="469.18918918918916" cy="589.7017558017546" r="4" fill="#d62728" />
<circle cx="508.1081081081081" cy="578.9663480937504" r="4" fill="#d62728" />
<circle cx="547.0270270270271" cy="568.3323918331585" r="4" fill="#d62728" />
<circle cx="585.9459459459459" cy="553.1238975801524" r="4" fill="#d62728" />
<circle cx="624.8648648648649" cy="530.6662362665868" r="4" fill="#d62728" />
<circle cx="663.7837837837837" cy="506.50234606472145" r="4" fill="#d62728" />
<circle cx="702.7027027027027" cy="490.9618288929111" r="4" fill="#d62728" />
<circle cx="741.6216216216217" cy="468.90997336899505" r="4" fill="#d62728" />
<circle cx="780.5405405405405" cy="459.68711451332126" r="4" fill="#d62728" />
<circle cx="819.4594594594595" cy="451.28509009580245" r="4" fill="#d62728" />
<circle cx="858.3783783783783" cy="433.2359553152489" r="4" fill="#d62728" />
<circle cx="897.2972972972973" cy="416.3581236093658" r="4" fill="#d62728" />
<circle cx="936.2162162162163" cy="400.5132520953183" r="4" fill="#d62728" />
<circle cx="975.1351351351351" cy="378.5720708776703" r="4" fill="#d62728" />
<circle cx="1014.0540540540541" cy="363.95383959142737" r="4" fill="#d62728" />
<circle cx="1052.972972972973" cy="354.6387521471969" r="4" fill="#d62728" />
<circle cx="1091.8918918918919" cy="344.12469305172874" r="4" fill="#d62728" />
<circle cx="1130.8108108108108" cy="330.63165054587796" r="4" fill="#d62728" />
<circle cx="1169.7297297297298" cy="319.7025628019045" r="4" fill="#d62728" />
<circle cx="1208.6486486486488" cy="309.7695438143438" r="4" fill="#d62728" />
<circle cx="1247.5675675675675" cy="292.91015782617217" r="4" fill="#d62728" />
<circle cx="1286.4864864864865" cy="279.1312066957955" r="4" fill="#d62728" />
<circle cx="1325.4054054054054" cy="258.21376281112737" r="4" fill="#d62728" />
<circle cx="1364.3243243243244" cy="252.0805616721043" r="4" fill="#d62728" />
<circle cx="1403.2432432432433" cy="245.08963465950364" r="4" fill="#d62728" />
<circle cx="1442.162162162162" cy="235.8852215215412" r="4" fill="#d62728" />
<circle cx="1481.081081081081" cy="228.42392870730112" r="4" fill="#d62728" />
<circle cx="1520.0" cy="217.4026123747709" r="4" fill="#d62728" />
<path d="M 80.0 920.0 L 118.91891891891892 854.9050621966544 L 157.83783783783784 760.6935589859467 L 196.75675675675677 728.0907529311398 L 235.67567567567568 705.0059372153884 L 274.5945945945946 693.4958093635074 L 313.51351351351354 670.835245155117 L 352.43243243243245 647.0310464486229 L 391.35135135135135 625.117533807542 L 430.27027027027026 606.7548218258955 L 469.18918918918916 589.7017558017546 L 508.1081081081081 578.9663480937504 L 547.0270270270271 568.3323918331585 L 585.9459459459459 553.1238975801524 L 624.8648648648649 530.6662362665868 L 663.7837837837837 506.50234606472145 L 702.7027027027027 490.9618288929111 L 741.6216216216217 468.90997336899505 L 780.5405405405405 459.68711451332126 L 819.4594594594595 451.28509009580245 L 858.3783783783783 433.2359553152489 L 897.2972972972973 416.3581236093658 L 936.2162162162163 400.5132520953183 L 975.1351351351351 378.5720708776703 L 1014.0540540540541 363.95383959142737 L 1052.972972972973 354.6387521471969 L 1091.8918918918919 344.12469305172874 L 1130.8108108108108 330.63165054587796 L 1169.7297297297298 319.7025628019045 L 1208.6486486486488 309.7695438143438 L 1247.5675675675675 292.91015782617217 L 1286.4864864864865 279.1312066957955 L 1325.4054054054054 258.21376281112737 L 1364.3243243243244 252.0805616721043 L 1403.2432432432433 245.08963465950364 L 1442.162162162162 235.8852215215412 L 1481.081081081081 228.42392870730112 L 1520.0 217.4026123747709" fill="none" stroke="#d62728" stroke-width="2" />
<circle cx="80.0" cy="920.0" r="4" fill="#9467bd" />
<circle cx="118.91891891891892" cy="861.7760920441314" r="4" fill="#9467bd" />
<circle cx="157.83783783783784" cy="767.2048973380524" r="4" fill="#9467bd" />
<circle cx="196.75675675675677" cy="728.8654730750164" r="4" fill="#9467bd" />
<circle cx="235.67567567567568" cy="705.7068744884195" r="4" fill="#9467bd" />
<circle cx="274.5945945945946" cy="695.3772725700649" r="4" fill="#9467bd" />
<circle cx="313.51351351351354" cy="672.5230283257052" r="4" fill="#9467bd" />
<circle cx="352.43243243243245" cy="647.6213094153861" r="4" fill="#9467bd" />
<circle cx="391.35135135135135" cy="625.089865230975" r="4" fill="#9467bd" />
<circle cx="430.27027027027026" cy="606.5242503545037" r="4" fill="#9467bd" />
<circle cx="469.18918918918916" cy="589.664864366332" r="4" fill="#9467bd" />
<circle cx="508.1081081081081" cy="578.920233799472" r="4" fill="#9467bd" />
<circle cx="547.0270270270271" cy="568.2124946680347" r="4" fill="#9467bd" />
<circle cx="585.9459459459459" cy="552.3030631419974" r="4" fill="#9467bd" />
<circle cx="624.8648648648649" cy="530.0114132878339" r="4" fill="#9467bd" />
<circle cx="663.7837837837837" cy="505.3771572843292" r="4" fill="#9467bd" />
<circle cx="702.7027027027027" cy="489.4123886051579" r="4" fill="#9467bd" />
<circle cx="741.6216216216217" cy="470.2472879030678" r="4" fill="#9467bd" />
<circle cx="780.5405405405405" cy="461.0152061885383" r="4" fill="#9467bd" />
<circle cx="819.4594594594595" cy="452.52095318246273" r="4" fill="#9467bd" />
<circle cx="858.3783783783783" cy="434.2043554950946" r="4" fill="#9467bd" />
<circle cx="897.2972972972973" cy="416.8008208344382" r="4" fill="#9467bd" />
<circle cx="936.2162162162163" cy="400.974395038102" r="4" fill="#9467bd" />
<circle cx="975.1351351351351" cy="378.950208090753" r="4" fill="#9467bd" />
<circle cx="1014.0540540540541" cy="364.11985105082954" r="4" fill="#9467bd" />
<circle cx="1052.972972972973" cy="354.832432183166" r="4" fill="#9467bd" />
<circle cx="1091.8918918918919" cy="344.31837308769786" r="4" fill="#9467bd" />
<circle cx="1130.8108108108108" cy="330.8068848641358" r="4" fill="#9467bd" />
<circle cx="1169.7297297297298" cy="319.518105624791" r="4" fill="#9467bd" />
<circle cx="1208.6486486486488" cy="309.58508663723035" r="4" fill="#9467bd" />
<circle cx="1247.5675675675675" cy="292.95627212045054" r="4" fill="#9467bd" />
<circle cx="1286.4864864864865" cy="279.4908981911668" r="4" fill="#9467bd" />
<circle cx="1325.4054054054054" cy="258.453557141375" r="4" fill="#9467bd" />
<circle cx="1364.3243243243244" cy="252.26501884921777" r="4" fill="#9467bd" />
<circle cx="1403.2432432432433" cy="245.56000046114298" r="4" fill="#9467bd" />
<circle cx="1442.162162162162" cy="236.32791874661348" r="4" fill="#9467bd" />
<circle cx="1481.081081081081" cy="228.83895735580643" r="4" fill="#9467bd" />
<circle cx="1520.0" cy="217.73463529357514" r="4" fill="#9467bd" />
<path d="M 80.0 920.0 L 118.91891891891892 861.7760920441314 L 157.83783783783784 767.2048973380524 L 196.75675675675677 728.8654730750164 L 235.67567567567568 705.7068744884195 L 274.5945945945946 695.3772725700649 L 313.51351351351354 672.5230283257052 L 352.43243243243245 647.6213094153861 L 391.35135135135135 625.089865230975 L 430.27027027027026 606.5242503545037 L 469.18918918918916 589.664864366332 L 508.1081081081081 578.920233799472 L 547.0270270270271 568.2124946680347 L 585.9459459459459 552.3030631419974 L 624.8648648648649 530.0114132878339 L 663.7837837837837 505.3771572843292 L 702.7027027027027 489.4123886051579 L 741.6216216216217 470.2472879030678 L 780.5405405405405 461.0152061885383 L 819.4594594594595 452.52095318246273 L 858.3783783783783 434.2043554950946 L 897.2972972972973 416.8008208344382 L 936.2162162162163 400.974395038102 L 975.1351351351351 378.950208090753 L 1014.0540540540541 364.11985105082954 L 1052.972972972973 354.832432183166 L 1091.8918918918919 344.31837308769786 L 1130.8108108108108 330.8068848641358 L 1169.7297297297298 319.518105624791 L 1208.6486486486488 309.58508663723035 L 1247.5675675675675 292.95627212045054 L 1286.4864864864865 279.4908981911668 L 1325.4054054054054 258.453557141375 L 1364.3243243243244 252.26501884921777 L 1403.2432432432433 245.56000046114298 L 1442.162162162162 236.32791874661348 L 1481.081081081081 228.83895735580643 L 1520.0 217.73463529357514" fill="none" stroke="#9467bd" stroke-width="2" />
<circle cx="80.0" cy="920.0" r="4" fill="#66ffbd" />
<circle cx="118.91891891891892" cy="629.5813974936882" r="4" fill="#66ffbd" />
<circle cx="157.83783783783784" cy="656.7427168236475" r="4" fill="#66ffbd" />
<circle cx="196.75675675675677" cy="673.3715313404273" r="4" fill="#66ffbd" />
<circle cx="235.67567567567568" cy="685.8223907955869" r="4" fill="#66ffbd" />
<circle cx="274.5945945945946" cy="688.9673856653717" r="4" fill="#66ffbd" />
<circle cx="313.51351351351354" cy="697.129615752643" r="4" fill="#66ffbd" />
<circle cx="352.43243243243245" cy="703.1521425853979" r="4" fill="#66ffbd" />
<circle cx="391.35135135135135" cy="711.0284640481433" r="4" fill="#66ffbd" />
<circle cx="430.27027027027026" cy="717.2723394934345" r="4" fill="#66ffbd" />
<circle cx="469.18918918918916" cy="721.6808660264466" r="4" fill="#66ffbd" />
<circle cx="508.1081081081081" cy="725.8680439469224" r="4" fill="#66ffbd" />
<circle cx="547.0270270270271" cy="728.256764390542" r="4" fill="#66ffbd" />
<circle cx="585.9459459459459" cy="734.8972227666271" r="4" fill="#66ffbd" />
<circle cx="624.8648648648649" cy="745.3374989912498" r="4" fill="#66ffbd" />
<circle cx="663.7837837837837" cy="753.4628376430984" r="4" fill="#66ffbd" />
<circle cx="702.7027027027027" cy="759.0334443919254" r="4" fill="#66ffbd" />
<circle cx="741.6216216216217" cy="767.896611752228" r="4" fill="#66ffbd" />
<circle cx="780.5405405405405" cy="768.911126226352" r="4" fill="#66ffbd" />
<circle cx="819.4594594594595" cy="770.8848180214662" r="4" fill="#66ffbd" />
<circle cx="858.3783783783783" cy="774.3987272454779" r="4" fill="#66ffbd" />
<circle cx="897.2972972972973" cy="780.3013569131092" r="4" fill="#66ffbd" />
<circle cx="936.2162162162163" cy="781.9153572128521" r="4" fill="#66ffbd" />
<circle cx="975.1351351351351" cy="785.1249120946266" r="4" fill="#66ffbd" />
<circle cx="1014.0540540540541" cy="788.5465927300816" r="4" fill="#66ffbd" />
<circle cx="1052.972972972973" cy="783.8706032902548" r="4" fill="#66ffbd" />
<circle cx="1091.8918918918919" cy="790.907644597134" r="4" fill="#66ffbd" />
<circle cx="1130.8108108108108" cy="792.5677591911553" r="4" fill="#66ffbd" />
<circle cx="1169.7297297297298" cy="796.3860227574042" r="4" fill="#66ffbd" />
<circle cx="1208.6486486486488" cy="798.8024117775908" r="4" fill="#66ffbd" />
<circle cx="1247.5675675675675" cy="801.9289609296642" r="4" fill="#66ffbd" />
<circle cx="1286.4864864864865" cy="803.1002640043348" r="4" fill="#66ffbd" />
<circle cx="1325.4054054054054" cy="810.5707796774306" r="4" fill="#66ffbd" />
<circle cx="1364.3243243243244" cy="811.6406313046887" r="4" fill="#66ffbd" />
<circle cx="1403.2432432432433" cy="813.4759802169677" r="4" fill="#66ffbd" />
<circle cx="1442.162162162162" cy="815.7171349188965" r="4" fill="#66ffbd" />
<circle cx="1481.081081081081" cy="817.0913408883919" r="4" fill="#66ffbd" />
<circle cx="1520.0" cy="818.6961183292791" r="4" fill="#66ffbd" />
<path d="M 80.0 920.0 L 118.91891891891892 629.5813974936882 L 157.83783783783784 656.7427168236475 L 196.75675675675677 673.3715313404273 L 235.67567567567568 685.8223907955869 L 274.5945945945946 688.9673856653717 L 313.51351351351354 697.129615752643 L 352.43243243243245 703.1521425853979 L 391.35135135135135 711.0284640481433 L 430.27027027027026 717.2723394934345 L 469.18918918918916 721.6808660264466 L 508.1081081081081 725.8680439469224 L 547.0270270270271 728.256764390542 L 585.9459459459459 734.8972227666271 L 624.8648648648649 745.3374989912498 L 663.7837837837837 753.4628376430984 L 702.7027027027027 759.0334443919254 L 741.6216216216217 767.896611752228 L 780.5405405405405 768.911126226352 L 819.4594594594595 770.8848180214662 L 858.3783783783783 774.3987272454779 L 897.2972972972973 780.3013569131092 L 936.2162162162163 781.9153572128521 L 975.1351351351351 785.1249120946266 L 1014.0540540540541 788.5465927300816 L 1052.972972972973 783.8706032902548 L 1091.8918918918919 790.907644597134 L 1130.8108108108108 792.5677591911553 L 1169.7297297297298 796.3860227574042 L 1208.6486486486488 798.8024117775908 L 1247.5675675675675 801.9289609296642 L 1286.4864864864865 803.1002640043348 L 1325.4054054054054 810.5707796774306 L 1364.3243243243244 811.6406313046887 L 1403.2432432432433 813.4759802169677 L 1442.162162162162 815.7171349188965 L 1481.081081081081 817.0913408883919 L 1520.0 818.6961183292791" fill="none" stroke="#66ffbd" stroke-width="2" />
<text x="80.0" y="940" text-anchor="middle">08-06</text>
<text x="118.91891891891892" y="940" text-anchor="middle">08-07</text>
<text x="157.83783783783784" y="940" text-anchor="middle">08-08</text>
<text x="196.75675675675677" y="940" text-anchor="middle">08-09</text>
<text x="235.67567567567568" y="940" text-anchor="middle">08-10</text>
<text x="274.5945945945946" y="940" text-anchor="middle">08-11</text>
<text x="313.51351351351354" y="940" text-anchor="middle">08-12</text>
<text x="352.43243243243245" y="940" text-anchor="middle">08-13</text>
<text x="391.35135135135135" y="940" text-anchor="middle">08-14</text>
<text x="430.27027027027026" y="940" text-anchor="middle">08-15</text>
<text x="469.18918918918916" y="940" text-anchor="middle">08-16</text>
<text x="508.1081081081081" y="940" text-anchor="middle">08-17</text>
<text x="547.0270270270271" y="940" text-anchor="middle">08-18</text>
<text x="585.9459459459459" y="940" text-anchor="middle">08-19</text>
<text x="624.8648648648649" y="940" text-anchor="middle">08-20</text>
<text x="663.7837837837837" y="940" text-anchor="middle">08-21</text>
<text x="702.7027027027027" y="940" text-anchor="middle">08-22</text>
<text x="741.6216216216217" y="940" text-anchor="middle">08-23</text>
<text x="780.5405405405405" y="940" text-anchor="middle">08-24</text>
<text x="819.4594594594595" y="940" text-anchor="middle">08-25</text>
<text x="858.3783783783783" y="940" text-anchor="middle">08-26</text>
<text x="897.2972972972973" y="940" text-anchor="middle">08-27</text>
<text x="936.2162162162163" y="940" text-anchor="middle">08-28</text>
<text x="975.1351351351351" y="940" text-anchor="middle">08-29</text>
<text x="1014.0540540540541" y="940" text-anchor="middle">08-30</text>
<text x="1052.972972972973" y="940" text-anchor="middle">08-31</text>
<text x="1091.8918918918919" y="940" text-anchor="middle">09-01</text>
<text x="1130.8108108108108" y="940" text-anchor="middle">09-02</text>
<text x="1169.7297297297298" y="940" text-anchor="middle">09-03</text>
<text x="1208.6486486486488" y="940" text-anchor="middle">09-04</text>
<text x="1247.5675675675675" y="940" text-anchor="middle">09-05</text>
<text x="1286.4864864864865" y="940" text-anchor="middle">09-06</text>
<text x="1325.4054054054054" y="940" text-anchor="middle">09-07</text>
<text x="1364.3243243243244" y="940" text-anchor="middle">09-08</text>
<text x="1403.2432432432433" y="940" text-anchor="middle">09-09</text>
<text x="1442.162162162162" y="940" text-anchor="middle">09-10</text>
<text x="1481.081081081081" y="940" text-anchor="middle">09-11</text>
<text x="1520.0" y="940" text-anchor="middle">09-12</text>
<rect x="90" y="100" width="130" height="185" class="legend-box" />
<text x="100" y="120" class="legend-item">图例:</text>
<rect x="100" y="137" width="15" height="15" fill="#1f77b4" rx="3" />
<text x="120" y="145" class="legend-item">构件聚合数据</text>
<rect x="100" y="162" width="15" height="15" fill="#ff7f0e" rx="3" />
<text x="120" y="170" class="legend-item">构件基本信息</text>
<rect x="100" y="187" width="15" height="15" fill="#2ca02c" rx="3" />
<text x="120" y="195" class="legend-item">构件徽标</text>
<rect x="100" y="212" width="15" height="15" fill="#d62728" rx="3" />
<text x="120" y="220" class="legend-item">构件扩展元数据</text>
<rect x="100" y="237" width="15" height="15" fill="#9467bd" rx="3" />
<text x="120" y="245" class="legend-item">构件版本信息</text>
<rect x="100" y="262" width="15" height="15" fill="#66ffbd" rx="3" />
<text x="120" y="270" class="legend-item">数据量偏差</text>
<text x="1520" y="990" text-anchor="end" font-size="10" fill="#666">生成时间: 2025-09-12 02:49:33</text>
</svg>