<svg xmlns="http://www.w3.org/2000/svg" width="1600" height="1000" viewBox="0 0 1600 1000">
<style>
  text {
    font-family: Arial, sans-serif;
    font-size: 12px;
    fill: #333;
  }
  .axis-label { font-size: 14px; }
  .title { font-size: 18px; font-weight: bold; }
  .legend-item { font-size: 11px; }
  .legend-box { fill: white; fill-opacity: 0.85; stroke: #cccccc; stroke-width: 1; rx: 5; }
</style>
<text x="800.0" y="30" text-anchor="middle" class="title">Daily Data Growth Trend</text>
<text x="800.0" y="980" text-anchor="middle" class="axis-label">Date</text>
<g transform="rotate(-90)">
<text x="-500.0" y="20" text-anchor="middle" class="axis-label">Count</text>
</g>
<rect x="0" y="0" width="1600" height="1000" fill="#f8f8f8" />
<line x1="80" y1="920.0" x2="1520" y2="920.0" stroke="#e0e0e0" stroke-width="1" />
<text x="70" y="925.0" text-anchor="end">0</text>
<line x1="80" y1="752.0" x2="1520" y2="752.0" stroke="#e0e0e0" stroke-width="1" />
<text x="70" y="757.0" text-anchor="end">18.0k</text>
<line x1="80" y1="584.0" x2="1520" y2="584.0" stroke="#e0e0e0" stroke-width="1" />
<text x="70" y="589.0" text-anchor="end">36.0k</text>
<line x1="80" y1="416.0" x2="1520" y2="416.0" stroke="#e0e0e0" stroke-width="1" />
<text x="70" y="421.0" text-anchor="end">54.0k</text>
<line x1="80" y1="248.0" x2="1520" y2="248.0" stroke="#e0e0e0" stroke-width="1" />
<text x="70" y="253.0" text-anchor="end">72.0k</text>
<line x1="80" y1="80.0" x2="1520" y2="80.0" stroke="#e0e0e0" stroke-width="1" />
<text x="70" y="85.0" text-anchor="end">90.0k</text>
<line x1="80" y1="80" x2="80" y2="920" stroke="#333333" stroke-width="2" />
<line x1="80" y1="920" x2="1520" y2="920" stroke="#333333" stroke-width="2" />
<circle cx="80.0" cy="920.0" r="4" fill="#1f77b4" />
<circle cx="120.0" cy="874.3785145950486" r="4" fill="#1f77b4" />
<circle cx="160.0" cy="777.6941923139743" r="4" fill="#1f77b4" />
<circle cx="200.0" cy="738.8020626735422" r="4" fill="#1f77b4" />
<circle cx="240.0" cy="715.3939846466155" r="4" fill="#1f77b4" />
<circle cx="280.0" cy="703.6432788109294" r="4" fill="#1f77b4" />
<circle cx="320.0" cy="680.2352007840026" r="4" fill="#1f77b4" />
<circle cx="360.0" cy="654.9697832326108" r="4" fill="#1f77b4" />
<circle cx="400.0" cy="631.6830389434631" r="4" fill="#1f77b4" />
<circle cx="440.0" cy="612.6989756632522" r="4" fill="#1f77b4" />
<circle cx="480.0" cy="595.3855846186154" r="4" fill="#1f77b4" />
<circle cx="520.0" cy="584.5028816762722" r="4" fill="#1f77b4" />
<circle cx="560.0" cy="573.7321791072636" r="4" fill="#1f77b4" />
<circle cx="600.0" cy="557.5387917959727" r="4" fill="#1f77b4" />
<circle cx="640.0" cy="534.541381804606" r="4" fill="#1f77b4" />
<circle cx="680.0" cy="509.6679655598852" r="4" fill="#1f77b4" />
<circle cx="720.0" cy="493.1572438574795" r="4" fill="#1f77b4" />
<circle cx="760.0" cy="470.56116853722847" r="4" fill="#1f77b4" />
<circle cx="800.0" cy="461.2278040926803" r="4" fill="#1f77b4" />
<circle cx="840.0" cy="452.63177543925144" r="4" fill="#1f77b4" />
<circle cx="880.0" cy="434.14238047460157" r="4" fill="#1f77b4" />
<circle cx="920.0" cy="415.96098653662176" r="4" fill="#1f77b4" />
<circle cx="960.0" cy="399.8609328697762" r="4" fill="#1f77b4" />
<circle cx="1000.0" cy="377.6381921273071" r="4" fill="#1f77b4" />
<circle cx="1040.0" cy="362.34080780269267" r="4" fill="#1f77b4" />
<circle cx="1080.0" cy="352.9141097136991" r="4" fill="#1f77b4" />
<circle cx="1120.0" cy="342.2834076113587" r="4" fill="#1f77b4" />
<circle cx="1160.0" cy="328.62869542898477" r="4" fill="#1f77b4" />
<circle cx="1200.0" cy="316.7753225844086" r="4" fill="#1f77b4" />
<circle cx="1240.0" cy="306.70462234874117" r="4" fill="#1f77b4" />
<circle cx="1280.0" cy="289.60589868632894" r="4" fill="#1f77b4" />
<circle cx="1320.0" cy="275.6525188417295" r="4" fill="#1f77b4" />
<circle cx="1360.0" cy="254.37244790815964" r="4" fill="#1f77b4" />
<circle cx="1400.0" cy="248.13776045920156" r="4" fill="#1f77b4" />
<circle cx="1440.0" cy="241.06307021023406" r="4" fill="#1f77b4" />
<circle cx="1480.0" cy="231.6830389434631" r="4" fill="#1f77b4" />
<circle cx="1520.0" cy="224.14168047226826" r="4" fill="#1f77b4" />
<path d="M 80.0 920.0 L 120.0 874.3785145950486 L 160.0 777.6941923139743 L 200.0 738.8020626735422 L 240.0 715.3939846466155 L 280.0 703.6432788109294 L 320.0 680.2352007840026 L 360.0 654.9697832326108 L 400.0 631.6830389434631 L 440.0 612.6989756632522 L 480.0 595.3855846186154 L 520.0 584.5028816762722 L 560.0 573.7321791072636 L 600.0 557.5387917959727 L 640.0 534.541381804606 L 680.0 509.6679655598852 L 720.0 493.1572438574795 L 760.0 470.56116853722847 L 800.0 461.2278040926803 L 840.0 452.63177543925144 L 880.0 434.14238047460157 L 920.0 415.96098653662176 L 960.0 399.8609328697762 L 1000.0 377.6381921273071 L 1040.0 362.34080780269267 L 1080.0 352.9141097136991 L 1120.0 342.2834076113587 L 1160.0 328.62869542898477 L 1200.0 316.7753225844086 L 1240.0 306.70462234874117 L 1280.0 289.60589868632894 L 1320.0 275.6525188417295 L 1360.0 254.37244790815964 L 1400.0 248.13776045920156 L 1440.0 241.06307021023406 L 1480.0 231.6830389434631 L 1520.0 224.14168047226826" fill="none" stroke="#1f77b4" stroke-width="2" />
<circle cx="80.0" cy="920.0" r="4" fill="#ff7f0e" />
<circle cx="120.0" cy="587.0228900763002" r="4" fill="#ff7f0e" />
<circle cx="160.0" cy="517.5546585155284" r="4" fill="#ff7f0e" />
<circle cx="200.0" cy="495.2759175863919" r="4" fill="#ff7f0e" />
<circle cx="240.0" cy="484.2998809996033" r="4" fill="#ff7f0e" />
<circle cx="280.0" cy="475.71318571061903" r="4" fill="#ff7f0e" />
<circle cx="320.0" cy="460.40646802156004" r="4" fill="#ff7f0e" />
<circle cx="360.0" cy="440.98373661245535" r="4" fill="#ff7f0e" />
<circle cx="400.0" cy="425.49035163450543" r="4" fill="#ff7f0e" />
<circle cx="440.0" cy="412.7223090743636" r="4" fill="#ff7f0e" />
<circle cx="480.0" cy="399.804932683109" r="4" fill="#ff7f0e" />
<circle cx="520.0" cy="393.0569101897006" r="4" fill="#ff7f0e" />
<circle cx="560.0" cy="384.70354901183" r="4" fill="#ff7f0e" />
<circle cx="600.0" cy="375.20218400728004" r="4" fill="#ff7f0e" />
<circle cx="640.0" cy="362.4901416338055" r="4" fill="#ff7f0e" />
<circle cx="680.0" cy="345.4754182513941" r="4" fill="#ff7f0e" />
<circle cx="720.0" cy="334.55538185127284" r="4" fill="#ff7f0e" />
<circle cx="760.0" cy="320.919336397788" r="4" fill="#ff7f0e" />
<circle cx="800.0" cy="312.6219754065846" r="4" fill="#ff7f0e" />
<circle cx="840.0" cy="306.00462001540006" r="4" fill="#ff7f0e" />
<circle cx="880.0" cy="290.9685698952329" r="4" fill="#ff7f0e" />
<circle cx="920.0" cy="278.7325291084303" r="4" fill="#ff7f0e" />
<circle cx="960.0" cy="264.24714749049167" r="4" fill="#ff7f0e" />
<circle cx="1000.0" cy="245.24441748139157" r="4" fill="#ff7f0e" />
<circle cx="1040.0" cy="233.3723779079263" r="4" fill="#ff7f0e" />
<circle cx="1080.0" cy="219.2043306811022" r="4" fill="#ff7f0e" />
<circle cx="1120.0" cy="215.68565228550756" r="4" fill="#ff7f0e" />
<circle cx="1160.0" cy="203.70161233870772" r="4" fill="#ff7f0e" />
<circle cx="1200.0" cy="195.68425228084095" r="4" fill="#ff7f0e" />
<circle cx="1240.0" cy="188.01222670742231" r="4" fill="#ff7f0e" />
<circle cx="1280.0" cy="173.75084583615273" r="4" fill="#ff7f0e" />
<circle cx="1320.0" cy="160.9454698182327" r="4" fill="#ff7f0e" />
<circle cx="1360.0" cy="146.83342277807594" r="4" fill="#ff7f0e" />
<circle cx="1400.0" cy="141.68140560468532" r="4" fill="#ff7f0e" />
<circle cx="1440.0" cy="136.39872132907112" r="4" fill="#ff7f0e" />
<circle cx="1480.0" cy="129.2773642578809" r="4" fill="#ff7f0e" />
<circle cx="1520.0" cy="123.09867699558993" r="4" fill="#ff7f0e" />
<path d="M 80.0 920.0 L 120.0 587.0228900763002 L 160.0 517.5546585155284 L 200.0 495.2759175863919 L 240.0 484.2998809996033 L 280.0 475.71318571061903 L 320.0 460.40646802156004 L 360.0 440.98373661245535 L 400.0 425.49035163450543 L 440.0 412.7223090743636 L 480.0 399.804932683109 L 520.0 393.0569101897006 L 560.0 384.70354901183 L 600.0 375.20218400728004 L 640.0 362.4901416338055 L 680.0 345.4754182513941 L 720.0 334.55538185127284 L 760.0 320.919336397788 L 800.0 312.6219754065846 L 840.0 306.00462001540006 L 880.0 290.9685698952329 L 920.0 278.7325291084303 L 960.0 264.24714749049167 L 1000.0 245.24441748139157 L 1040.0 233.3723779079263 L 1080.0 219.2043306811022 L 1120.0 215.68565228550756 L 1160.0 203.70161233870772 L 1200.0 195.68425228084095 L 1240.0 188.01222670742231 L 1280.0 173.75084583615273 L 1320.0 160.9454698182327 L 1360.0 146.83342277807594 L 1400.0 141.68140560468532 L 1440.0 136.39872132907112 L 1480.0 129.2773642578809 L 1520.0 123.09867699558993" fill="none" stroke="#ff7f0e" stroke-width="2" />
<circle cx="80.0" cy="920.0" r="4" fill="#2ca02c" />
<circle cx="120.0" cy="580.480201600672" r="4" fill="#2ca02c" />
<circle cx="160.0" cy="511.282637608792" r="4" fill="#2ca02c" />
<circle cx="200.0" cy="489.2185640618802" r="4" fill="#2ca02c" />
<circle cx="240.0" cy="478.4105280350934" r="4" fill="#2ca02c" />
<circle cx="280.0" cy="469.84249947499825" r="4" fill="#2ca02c" />
<circle cx="320.0" cy="454.6944489814966" r="4" fill="#2ca02c" />
<circle cx="360.0" cy="435.5237184123947" r="4" fill="#2ca02c" />
<circle cx="400.0" cy="420.2076673588912" r="4" fill="#2ca02c" />
<circle cx="440.0" cy="407.54229180763934" r="4" fill="#2ca02c" />
<circle cx="480.0" cy="394.6902489674966" r="4" fill="#2ca02c" />
<circle cx="520.0" cy="388.0448934829783" r="4" fill="#2ca02c" />
<circle cx="560.0" cy="379.69153230510767" r="4" fill="#2ca02c" />
<circle cx="600.0" cy="370.21816739389135" r="4" fill="#2ca02c" />
<circle cx="640.0" cy="357.7861259537532" r="4" fill="#2ca02c" />
<circle cx="680.0" cy="341.1354037846793" r="4" fill="#2ca02c" />
<circle cx="720.0" cy="330.26203420678064" r="4" fill="#2ca02c" />
<circle cx="760.0" cy="316.63532211774043" r="4" fill="#2ca02c" />
<circle cx="800.0" cy="308.32862776209254" r="4" fill="#2ca02c" />
<circle cx="840.0" cy="301.729939099797" r="4" fill="#2ca02c" />
<circle cx="880.0" cy="286.7965559885199" r="4" fill="#2ca02c" />
<circle cx="920.0" cy="274.5885152950509" r="4" fill="#2ca02c" />
<circle cx="960.0" cy="260.1218004060013" r="4" fill="#2ca02c" />
<circle cx="1000.0" cy="241.1470704902349" r="4" fill="#2ca02c" />
<circle cx="1040.0" cy="229.31236437454788" r="4" fill="#2ca02c" />
<circle cx="1080.0" cy="215.15365051216838" r="4" fill="#2ca02c" />
<circle cx="1120.0" cy="211.64430548101825" r="4" fill="#2ca02c" />
<circle cx="1160.0" cy="199.66959889866303" r="4" fill="#2ca02c" />
<circle cx="1200.0" cy="191.68023893412976" r="4" fill="#2ca02c" />
<circle cx="1240.0" cy="184.05488018293397" r="4" fill="#2ca02c" />
<circle cx="1280.0" cy="170.12016706722352" r="4" fill="#2ca02c" />
<circle cx="1320.0" cy="157.3521245070816" r="4" fill="#2ca02c" />
<circle cx="1360.0" cy="143.63207877359594" r="4" fill="#2ca02c" />
<circle cx="1400.0" cy="138.48006160020532" r="4" fill="#2ca02c" />
<circle cx="1440.0" cy="133.26271087570285" r="4" fill="#2ca02c" />
<circle cx="1480.0" cy="126.15068716895723" r="4" fill="#2ca02c" />
<circle cx="1520.0" cy="120.0" r="4" fill="#2ca02c" />
<path d="M 80.0 920.0 L 120.0 580.480201600672 L 160.0 511.282637608792 L 200.0 489.2185640618802 L 240.0 478.4105280350934 L 280.0 469.84249947499825 L 320.0 454.6944489814966 L 360.0 435.5237184123947 L 400.0 420.2076673588912 L 440.0 407.54229180763934 L 480.0 394.6902489674966 L 520.0 388.0448934829783 L 560.0 379.69153230510767 L 600.0 370.21816739389135 L 640.0 357.7861259537532 L 680.0 341.1354037846793 L 720.0 330.26203420678064 L 760.0 316.63532211774043 L 800.0 308.32862776209254 L 840.0 301.729939099797 L 880.0 286.7965559885199 L 920.0 274.5885152950509 L 960.0 260.1218004060013 L 1000.0 241.1470704902349 L 1040.0 229.31236437454788 L 1080.0 215.15365051216838 L 1120.0 211.64430548101825 L 1160.0 199.66959889866303 L 1200.0 191.68023893412976 L 1240.0 184.05488018293397 L 1280.0 170.12016706722352 L 1320.0 157.3521245070816 L 1360.0 143.63207877359594 L 1400.0 138.48006160020532 L 1440.0 133.26271087570285 L 1480.0 126.15068716895723 L 1520.0 120.0" fill="none" stroke="#2ca02c" stroke-width="2" />
<circle cx="80.0" cy="920.0" r="4" fill="#d62728" />
<circle cx="120.0" cy="854.1251137503791" r="4" fill="#d62728" />
<circle cx="160.0" cy="758.7847959493198" r="4" fill="#d62728" />
<circle cx="200.0" cy="725.7913526378421" r="4" fill="#d62728" />
<circle cx="240.0" cy="702.4299414331381" r="4" fill="#d62728" />
<circle cx="280.0" cy="690.781902606342" r="4" fill="#d62728" />
<circle cx="320.0" cy="667.8498261660873" r="4" fill="#d62728" />
<circle cx="360.0" cy="643.7604125347084" r="4" fill="#d62728" />
<circle cx="400.0" cy="621.584338614462" r="4" fill="#d62728" />
<circle cx="440.0" cy="603.0016100053667" r="4" fill="#d62728" />
<circle cx="480.0" cy="585.7442191473972" r="4" fill="#d62728" />
<circle cx="520.0" cy="574.8801829339432" r="4" fill="#d62728" />
<circle cx="560.0" cy="564.1188137293791" r="4" fill="#d62728" />
<circle cx="600.0" cy="548.7280957603192" r="4" fill="#d62728" />
<circle cx="640.0" cy="526.0013533378444" r="4" fill="#d62728" />
<circle cx="680.0" cy="501.5479384931283" r="4" fill="#d62728" />
<circle cx="720.0" cy="485.82121940406466" r="4" fill="#d62728" />
<circle cx="760.0" cy="463.50514501715" r="4" fill="#d62728" />
<circle cx="800.0" cy="454.1717805726019" r="4" fill="#d62728" />
<circle cx="840.0" cy="445.6690855636185" r="4" fill="#d62728" />
<circle cx="880.0" cy="427.4036913456378" r="4" fill="#d62728" />
<circle cx="920.0" cy="410.3236344121147" r="4" fill="#d62728" />
<circle cx="960.0" cy="394.288914296381" r="4" fill="#d62728" />
<circle cx="1000.0" cy="372.0848402828009" r="4" fill="#d62728" />
<circle cx="1040.0" cy="357.2914576381921" r="4" fill="#d62728" />
<circle cx="1080.0" cy="347.8647595491984" r="4" fill="#d62728" />
<circle cx="1120.0" cy="337.22472408241356" r="4" fill="#d62728" />
<circle cx="1160.0" cy="323.5700119000396" r="4" fill="#d62728" />
<circle cx="1200.0" cy="312.50997503325004" r="4" fill="#d62728" />
<circle cx="1240.0" cy="302.4579415264717" r="4" fill="#d62728" />
<circle cx="1280.0" cy="285.3965513218377" r="4" fill="#d62728" />
<circle cx="1320.0" cy="271.45250484168275" r="4" fill="#d62728" />
<circle cx="1360.0" cy="250.2844342814476" r="4" fill="#d62728" />
<circle cx="1400.0" cy="244.07774692582302" r="4" fill="#d62728" />
<circle cx="1440.0" cy="237.00305667685552" r="4" fill="#d62728" />
<circle cx="1480.0" cy="227.6883589611965" r="4" fill="#d62728" />
<circle cx="1520.0" cy="220.13766712555707" r="4" fill="#d62728" />
<path d="M 80.0 920.0 L 120.0 854.1251137503791 L 160.0 758.7847959493198 L 200.0 725.7913526378421 L 240.0 702.4299414331381 L 280.0 690.781902606342 L 320.0 667.8498261660873 L 360.0 643.7604125347084 L 400.0 621.584338614462 L 440.0 603.0016100053667 L 480.0 585.7442191473972 L 520.0 574.8801829339432 L 560.0 564.1188137293791 L 600.0 548.7280957603192 L 640.0 526.0013533378444 L 680.0 501.5479384931283 L 720.0 485.82121940406466 L 760.0 463.50514501715 L 800.0 454.1717805726019 L 840.0 445.6690855636185 L 880.0 427.4036913456378 L 920.0 410.3236344121147 L 960.0 394.288914296381 L 1000.0 372.0848402828009 L 1040.0 357.2914576381921 L 1080.0 347.8647595491984 L 1120.0 337.22472408241356 L 1160.0 323.5700119000396 L 1200.0 312.50997503325004 L 1240.0 302.4579415264717 L 1280.0 285.3965513218377 L 1320.0 271.45250484168275 L 1360.0 250.2844342814476 L 1400.0 244.07774692582302 L 1440.0 237.00305667685552 L 1480.0 227.6883589611965 L 1520.0 220.13766712555707" fill="none" stroke="#d62728" stroke-width="2" />
<circle cx="80.0" cy="920.0" r="4" fill="#9467bd" />
<circle cx="120.0" cy="861.0784702615675" r="4" fill="#9467bd" />
<circle cx="160.0" cy="765.3741512471709" r="4" fill="#9467bd" />
<circle cx="200.0" cy="726.5753552511842" r="4" fill="#9467bd" />
<circle cx="240.0" cy="703.1392771309238" r="4" fill="#9467bd" />
<circle cx="280.0" cy="692.6859089530299" r="4" fill="#9467bd" />
<circle cx="320.0" cy="669.5578318594395" r="4" fill="#9467bd" />
<circle cx="360.0" cy="644.3577478591595" r="4" fill="#9467bd" />
<circle cx="400.0" cy="621.5563385211284" r="4" fill="#9467bd" />
<circle cx="440.0" cy="602.768275894253" r="4" fill="#9467bd" />
<circle cx="480.0" cy="585.706885689619" r="4" fill="#9467bd" />
<circle cx="520.0" cy="574.8335161117204" r="4" fill="#9467bd" />
<circle cx="560.0" cy="563.9974799915999" r="4" fill="#9467bd" />
<circle cx="600.0" cy="547.8974263247544" r="4" fill="#9467bd" />
<circle cx="640.0" cy="525.3386844622815" r="4" fill="#9467bd" />
<circle cx="680.0" cy="500.40926803089343" r="4" fill="#9467bd" />
<circle cx="720.0" cy="484.2532141773806" r="4" fill="#9467bd" />
<circle cx="760.0" cy="464.8584828616095" r="4" fill="#9467bd" />
<circle cx="800.0" cy="455.5157850526168" r="4" fill="#9467bd" />
<circle cx="840.0" cy="446.919756399188" r="4" fill="#9467bd" />
<circle cx="880.0" cy="428.38369461231537" r="4" fill="#9467bd" />
<circle cx="920.0" cy="410.771635905453" r="4" fill="#9467bd" />
<circle cx="960.0" cy="394.75558251860843" r="4" fill="#9467bd" />
<circle cx="1000.0" cy="372.46750822502736" r="4" fill="#9467bd" />
<circle cx="1040.0" cy="357.45945819819394" r="4" fill="#9467bd" />
<circle cx="1080.0" cy="348.06076020253397" r="4" fill="#9467bd" />
<circle cx="1120.0" cy="337.4207247357491" r="4" fill="#9467bd" />
<circle cx="1160.0" cy="323.74734582448605" r="4" fill="#9467bd" />
<circle cx="1200.0" cy="312.3233077443591" r="4" fill="#9467bd" />
<circle cx="1240.0" cy="302.27127423758077" r="4" fill="#9467bd" />
<circle cx="1280.0" cy="285.44321814406044" r="4" fill="#9467bd" />
<circle cx="1320.0" cy="271.8165060550201" r="4" fill="#9467bd" />
<circle cx="1360.0" cy="250.52710175700588" r="4" fill="#9467bd" />
<circle cx="1400.0" cy="244.26441421471407" r="4" fill="#9467bd" />
<circle cx="1440.0" cy="237.47905826352758" r="4" fill="#9467bd" />
<circle cx="1480.0" cy="228.13636045453484" r="4" fill="#9467bd" />
<circle cx="1520.0" cy="220.55766852556178" r="4" fill="#9467bd" />
<path d="M 80.0 920.0 L 120.0 861.0784702615675 L 160.0 765.3741512471709 L 200.0 726.5753552511842 L 240.0 703.1392771309238 L 280.0 692.6859089530299 L 320.0 669.5578318594395 L 360.0 644.3577478591595 L 400.0 621.5563385211284 L 440.0 602.768275894253 L 480.0 585.706885689619 L 520.0 574.8335161117204 L 560.0 563.9974799915999 L 600.0 547.8974263247544 L 640.0 525.3386844622815 L 680.0 500.40926803089343 L 720.0 484.2532141773806 L 760.0 464.8584828616095 L 800.0 455.5157850526168 L 840.0 446.919756399188 L 880.0 428.38369461231537 L 920.0 410.771635905453 L 960.0 394.75558251860843 L 1000.0 372.46750822502736 L 1040.0 357.45945819819394 L 1080.0 348.06076020253397 L 1120.0 337.4207247357491 L 1160.0 323.74734582448605 L 1200.0 312.3233077443591 L 1240.0 302.27127423758077 L 1280.0 285.44321814406044 L 1320.0 271.8165060550201 L 1360.0 250.52710175700588 L 1400.0 244.26441421471407 L 1440.0 237.47905826352758 L 1480.0 228.13636045453484 L 1520.0 220.55766852556178" fill="none" stroke="#9467bd" stroke-width="2" />
<circle cx="80.0" cy="920.0" r="4" fill="#66ffbd" />
<circle cx="120.0" cy="626.1016870056233" r="4" fill="#66ffbd" />
<circle cx="160.0" cy="653.5884452948176" r="4" fill="#66ffbd" />
<circle cx="200.0" cy="670.416501388338" r="4" fill="#66ffbd" />
<circle cx="240.0" cy="683.0165433884779" r="4" fill="#66ffbd" />
<circle cx="280.0" cy="686.1992206640689" r="4" fill="#66ffbd" />
<circle cx="320.0" cy="694.4592481974939" r="4" fill="#66ffbd" />
<circle cx="360.0" cy="700.5539351797839" r="4" fill="#66ffbd" />
<circle cx="400.0" cy="708.5246284154281" r="4" fill="#66ffbd" />
<circle cx="440.0" cy="714.8433161443871" r="4" fill="#66ffbd" />
<circle cx="480.0" cy="719.3046643488811" r="4" fill="#66ffbd" />
<circle cx="520.0" cy="723.542011806706" r="4" fill="#66ffbd" />
<circle cx="560.0" cy="725.9593531978439" r="4" fill="#66ffbd" />
<circle cx="600.0" cy="732.6793755979187" r="4" fill="#66ffbd" />
<circle cx="640.0" cy="743.2447441491472" r="4" fill="#66ffbd" />
<circle cx="680.0" cy="751.467438224794" r="4" fill="#66ffbd" />
<circle cx="720.0" cy="757.1047903493012" r="4" fill="#66ffbd" />
<circle cx="760.0" cy="766.074153580512" r="4" fill="#66ffbd" />
<circle cx="800.0" cy="767.1008236694122" r="4" fill="#66ffbd" />
<circle cx="840.0" cy="769.0981636605455" r="4" fill="#66ffbd" />
<circle cx="880.0" cy="772.6541755139184" r="4" fill="#66ffbd" />
<circle cx="920.0" cy="778.6275287584292" r="4" fill="#66ffbd" />
<circle cx="960.0" cy="780.2608675362251" r="4" fill="#66ffbd" />
<circle cx="1000.0" cy="783.5088783629278" r="4" fill="#66ffbd" />
<circle cx="1040.0" cy="786.9715565718552" r="4" fill="#66ffbd" />
<circle cx="1080.0" cy="782.2395407984693" r="4" fill="#66ffbd" />
<circle cx="1120.0" cy="789.3608978696595" r="4" fill="#66ffbd" />
<circle cx="1160.0" cy="791.0409034696783" r="4" fill="#66ffbd" />
<circle cx="1200.0" cy="794.9049163497211" r="4" fill="#66ffbd" />
<circle cx="1240.0" cy="797.3502578341928" r="4" fill="#66ffbd" />
<circle cx="1280.0" cy="800.5142683808946" r="4" fill="#66ffbd" />
<circle cx="1320.0" cy="801.6996056653522" r="4" fill="#66ffbd" />
<circle cx="1360.0" cy="809.2596308654362" r="4" fill="#66ffbd" />
<circle cx="1400.0" cy="810.3423011410038" r="4" fill="#66ffbd" />
<circle cx="1440.0" cy="812.1996406654689" r="4" fill="#66ffbd" />
<circle cx="1480.0" cy="814.467648225494" r="4" fill="#66ffbd" />
<circle cx="1520.0" cy="815.8583195277317" r="4" fill="#66ffbd" />
<path d="M 80.0 920.0 L 120.0 626.1016870056233 L 160.0 653.5884452948176 L 200.0 670.416501388338 L 240.0 683.0165433884779 L 280.0 686.1992206640689 L 320.0 694.4592481974939 L 360.0 700.5539351797839 L 400.0 708.5246284154281 L 440.0 714.8433161443871 L 480.0 719.3046643488811 L 520.0 723.542011806706 L 560.0 725.9593531978439 L 600.0 732.6793755979187 L 640.0 743.2447441491472 L 680.0 751.467438224794 L 720.0 757.1047903493012 L 760.0 766.074153580512 L 800.0 767.1008236694122 L 840.0 769.0981636605455 L 880.0 772.6541755139184 L 920.0 778.6275287584292 L 960.0 780.2608675362251 L 1000.0 783.5088783629278 L 1040.0 786.9715565718552 L 1080.0 782.2395407984693 L 1120.0 789.3608978696595 L 1160.0 791.0409034696783 L 1200.0 794.9049163497211 L 1240.0 797.3502578341928 L 1280.0 800.5142683808946 L 1320.0 801.6996056653522 L 1360.0 809.2596308654362 L 1400.0 810.3423011410038 L 1440.0 812.1996406654689 L 1480.0 814.467648225494 L 1520.0 815.8583195277317" fill="none" stroke="#66ffbd" stroke-width="2" />
<text x="80.0" y="940" text-anchor="middle">08-06</text>
<text x="120.0" y="940" text-anchor="middle">08-07</text>
<text x="160.0" y="940" text-anchor="middle">08-08</text>
<text x="200.0" y="940" text-anchor="middle">08-09</text>
<text x="240.0" y="940" text-anchor="middle">08-10</text>
<text x="280.0" y="940" text-anchor="middle">08-11</text>
<text x="320.0" y="940" text-anchor="middle">08-12</text>
<text x="360.0" y="940" text-anchor="middle">08-13</text>
<text x="400.0" y="940" text-anchor="middle">08-14</text>
<text x="440.0" y="940" text-anchor="middle">08-15</text>
<text x="480.0" y="940" text-anchor="middle">08-16</text>
<text x="520.0" y="940" text-anchor="middle">08-17</text>
<text x="560.0" y="940" text-anchor="middle">08-18</text>
<text x="600.0" y="940" text-anchor="middle">08-19</text>
<text x="640.0" y="940" text-anchor="middle">08-20</text>
<text x="680.0" y="940" text-anchor="middle">08-21</text>
<text x="720.0" y="940" text-anchor="middle">08-22</text>
<text x="760.0" y="940" text-anchor="middle">08-23</text>
<text x="800.0" y="940" text-anchor="middle">08-24</text>
<text x="840.0" y="940" text-anchor="middle">08-25</text>
<text x="880.0" y="940" text-anchor="middle">08-26</text>
<text x="920.0" y="940" text-anchor="middle">08-27</text>
<text x="960.0" y="940" text-anchor="middle">08-28</text>
<text x="1000.0" y="940" text-anchor="middle">08-29</text>
<text x="1040.0" y="940" text-anchor="middle">08-30</text>
<text x="1080.0" y="940" text-anchor="middle">08-31</text>
<text x="1120.0" y="940" text-anchor="middle">09-01</text>
<text x="1160.0" y="940" text-anchor="middle">09-02</text>
<text x="1200.0" y="940" text-anchor="middle">09-03</text>
<text x="1240.0" y="940" text-anchor="middle">09-04</text>
<text x="1280.0" y="940" text-anchor="middle">09-05</text>
<text x="1320.0" y="940" text-anchor="middle">09-06</text>
<text x="1360.0" y="940" text-anchor="middle">09-07</text>
<text x="1400.0" y="940" text-anchor="middle">09-08</text>
<text x="1440.0" y="940" text-anchor="middle">09-09</text>
<text x="1480.0" y="940" text-anchor="middle">09-10</text>
<text x="1520.0" y="940" text-anchor="middle">09-11</text>
<rect x="90" y="100" width="130" height="185" class="legend-box" />
<text x="100" y="120" class="legend-item">图例:</text>
<rect x="100" y="137" width="15" height="15" fill="#1f77b4" rx="3" />
<text x="120" y="145" class="legend-item">构件聚合数据</text>
<rect x="100" y="162" width="15" height="15" fill="#ff7f0e" rx="3" />
<text x="120" y="170" class="legend-item">构件基本信息</text>
<rect x="100" y="187" width="15" height="15" fill="#2ca02c" rx="3" />
<text x="120" y="195" class="legend-item">构件徽标</text>
<rect x="100" y="212" width="15" height="15" fill="#d62728" rx="3" />
<text x="120" y="220" class="legend-item">构件扩展元数据</text>
<rect x="100" y="237" width="15" height="15" fill="#9467bd" rx="3" />
<text x="120" y="245" class="legend-item">构件版本信息</text>
<rect x="100" y="262" width="15" height="15" fill="#66ffbd" rx="3" />
<text x="120" y="270" class="legend-item">数据量偏差</text>
<text x="1520" y="990" text-anchor="end" font-size="10" fill="#666">生成时间: 2025-09-11 12:17:54</text>
</svg>