<svg xmlns="http://www.w3.org/2000/svg" width="1600" height="1000" viewBox="0 0 1600 1000">
<style>
  text {
    font-family: Arial, sans-serif;
    font-size: 12px;
    fill: #333;
  }
  .axis-label { font-size: 14px; }
  .title { font-size: 18px; font-weight: bold; }
  .legend-item { font-size: 11px; }
  .legend-box { fill: white; fill-opacity: 0.85; stroke: #cccccc; stroke-width: 1; rx: 5; }
</style>
<text x="800.0" y="30" text-anchor="middle" class="title">Daily Data Growth Trend</text>
<text x="800.0" y="980" text-anchor="middle" class="axis-label">Date</text>
<g transform="rotate(-90)">
<text x="-500.0" y="20" text-anchor="middle" class="axis-label">Count</text>
</g>
<rect x="0" y="0" width="1600" height="1000" fill="#f8f8f8" />
<line x1="80" y1="920.0" x2="1520" y2="920.0" stroke="#e0e0e0" stroke-width="1" />
<text x="70" y="925.0" text-anchor="end">4.6k</text>
<line x1="80" y1="752.0" x2="1520" y2="752.0" stroke="#e0e0e0" stroke-width="1" />
<text x="70" y="757.0" text-anchor="end">16.1k</text>
<line x1="80" y1="584.0" x2="1520" y2="584.0" stroke="#e0e0e0" stroke-width="1" />
<text x="70" y="589.0" text-anchor="end">27.5k</text>
<line x1="80" y1="416.0" x2="1520" y2="416.0" stroke="#e0e0e0" stroke-width="1" />
<text x="70" y="421.0" text-anchor="end">39.0k</text>
<line x1="80" y1="248.0" x2="1520" y2="248.0" stroke="#e0e0e0" stroke-width="1" />
<text x="70" y="253.0" text-anchor="end">50.4k</text>
<line x1="80" y1="80.0" x2="1520" y2="80.0" stroke="#e0e0e0" stroke-width="1" />
<text x="70" y="85.0" text-anchor="end">61.9k</text>
<line x1="80" y1="80" x2="80" y2="920" stroke="#333333" stroke-width="2" />
<line x1="80" y1="920" x2="1520" y2="920" stroke="#333333" stroke-width="2" />
<circle cx="80.0" cy="916.4113263055956" r="4" fill="#1f77b4" />
<circle cx="200.0" cy="764.3038353058604" r="4" fill="#1f77b4" />
<circle cx="320.0" cy="703.117242488417" r="4" fill="#1f77b4" />
<circle cx="440.0" cy="666.2907546587678" r="4" fill="#1f77b4" />
<circle cx="560.0" cy="647.8040927060053" r="4" fill="#1f77b4" />
<circle cx="680.0" cy="610.9776048763562" r="4" fill="#1f77b4" />
<circle cx="800.0" cy="571.2290791367786" r="4" fill="#1f77b4" />
<circle cx="920.0" cy="534.5934782057681" r="4" fill="#1f77b4" />
<circle cx="1040.0" cy="504.7270203726315" r="4" fill="#1f77b4" />
<circle cx="1160.0" cy="477.4889282976717" r="4" fill="#1f77b4" />
<circle cx="1280.0" cy="460.3678418505541" r="4" fill="#1f77b4" />
<circle cx="1400.0" cy="443.4229586944875" r="4" fill="#1f77b4" />
<circle cx="1520.0" cy="417.9468995300372" r="4" fill="#1f77b4" />
<path d="M 80.0 916.4113263055956 L 200.0 764.3038353058604 L 320.0 703.117242488417 L 440.0 666.2907546587678 L 560.0 647.8040927060053 L 680.0 610.9776048763562 L 800.0 571.2290791367786 L 920.0 534.5934782057681 L 1040.0 504.7270203726315 L 1160.0 477.4889282976717 L 1280.0 460.3678418505541 L 1400.0 443.4229586944875 L 1520.0 417.9468995300372" fill="none" stroke="#1f77b4" stroke-width="2" />
<circle cx="80.0" cy="464.33241589920056" r="4" fill="#ff7f0e" />
<circle cx="200.0" cy="355.04232462484697" r="4" fill="#ff7f0e" />
<circle cx="320.0" cy="319.99255331329493" r="4" fill="#ff7f0e" />
<circle cx="440.0" cy="302.7246307903015" r="4" fill="#ff7f0e" />
<circle cx="560.0" cy="289.2157118097284" r="4" fill="#ff7f0e" />
<circle cx="680.0" cy="265.1345953660982" r="4" fill="#ff7f0e" />
<circle cx="800.0" cy="234.57800797634548" r="4" fill="#ff7f0e" />
<circle cx="920.0" cy="210.20321938096356" r="4" fill="#ff7f0e" />
<circle cx="1040.0" cy="190.11604420115498" r="4" fill="#ff7f0e" />
<circle cx="1160.0" cy="169.79393129994503" r="4" fill="#ff7f0e" />
<circle cx="1280.0" cy="159.17768301412514" r="4" fill="#ff7f0e" />
<circle cx="1400.0" cy="146.03585422324159" r="4" fill="#ff7f0e" />
<circle cx="1520.0" cy="131.08794169908572" r="4" fill="#ff7f0e" />
<path d="M 80.0 464.33241589920056 L 200.0 355.04232462484697 L 320.0 319.99255331329493 L 440.0 302.7246307903015 L 560.0 289.2157118097284 L 680.0 265.1345953660982 L 800.0 234.57800797634548 L 920.0 210.20321938096356 L 1040.0 190.11604420115498 L 1160.0 169.79393129994503 L 1280.0 159.17768301412514 L 1400.0 146.03585422324159 L 1520.0 131.08794169908572" fill="none" stroke="#ff7f0e" stroke-width="2" />
<circle cx="80.0" cy="454.03920698030737" r="4" fill="#2ca02c" />
<circle cx="200.0" cy="345.1749403259936" r="4" fill="#2ca02c" />
<circle cx="320.0" cy="310.4628919889558" r="4" fill="#2ca02c" />
<circle cx="440.0" cy="293.4592744025389" r="4" fill="#2ca02c" />
<circle cx="560.0" cy="279.979722637141" r="4" fill="#2ca02c" />
<circle cx="680.0" cy="256.1482275224996" r="4" fill="#2ca02c" />
<circle cx="800.0" cy="225.98809753761145" r="4" fill="#2ca02c" />
<circle cx="920.0" cy="201.89229748639366" r="4" fill="#2ca02c" />
<circle cx="1040.0" cy="181.9666419900484" r="4" fill="#2ca02c" />
<circle cx="1160.0" cy="161.74731434195155" r="4" fill="#2ca02c" />
<circle cx="1280.0" cy="151.29258573959498" r="4" fill="#2ca02c" />
<circle cx="1400.0" cy="138.15075694871143" r="4" fill="#2ca02c" />
<circle cx="1520.0" cy="123.24689524731832" r="4" fill="#2ca02c" />
<path d="M 80.0 454.03920698030737 L 200.0 345.1749403259936 L 320.0 310.4628919889558 L 440.0 293.4592744025389 L 560.0 279.979722637141 L 680.0 256.1482275224996 L 800.0 225.98809753761145 L 920.0 201.89229748639366 L 1040.0 181.9666419900484 L 1160.0 161.74731434195155 L 1280.0 151.29258573959498 L 1400.0 138.15075694871143 L 1520.0 123.24689524731832" fill="none" stroke="#2ca02c" stroke-width="2" />
<circle cx="80.0" cy="884.5478978405482" r="4" fill="#d62728" />
<circle cx="200.0" cy="734.5548463334245" r="4" fill="#d62728" />
<circle cx="320.0" cy="682.6482935113313" r="4" fill="#d62728" />
<circle cx="440.0" cy="645.8952237196199" r="4" fill="#d62728" />
<circle cx="560.0" cy="627.5700814503209" r="4" fill="#d62728" />
<circle cx="680.0" cy="591.4924576076382" r="4" fill="#d62728" />
<circle cx="800.0" cy="553.5940664240958" r="4" fill="#d62728" />
<circle cx="920.0" cy="518.7058147960072" r="4" fill="#d62728" />
<circle cx="1040.0" cy="489.4707520891365" r="4" fill="#d62728" />
<circle cx="1160.0" cy="462.32076165970216" r="4" fill="#d62728" />
<circle cx="1280.0" cy="445.22904242775974" r="4" fill="#d62728" />
<circle cx="1400.0" cy="428.29884287928064" r="4" fill="#d62728" />
<circle cx="1520.0" cy="404.08557396736217" r="4" fill="#d62728" />
<path d="M 80.0 884.5478978405482 L 200.0 734.5548463334245 L 320.0 682.6482935113313 L 440.0 645.8952237196199 L 560.0 627.5700814503209 L 680.0 591.4924576076382 L 800.0 553.5940664240958 L 920.0 518.7058147960072 L 1040.0 489.4707520891365 L 1160.0 462.32076165970216 L 1280.0 445.22904242775974 L 1400.0 428.29884287928064 L 1520.0 404.08557396736217" fill="none" stroke="#d62728" stroke-width="2" />
<circle cx="80.0" cy="895.4871854932949" r="4" fill="#9467bd" />
<circle cx="200.0" cy="744.9214732902556" r="4" fill="#9467bd" />
<circle cx="320.0" cy="683.8817165486879" r="4" fill="#9467bd" />
<circle cx="440.0" cy="647.011177896276" r="4" fill="#9467bd" />
<circle cx="560.0" cy="630.5655373981871" r="4" fill="#9467bd" />
<circle cx="680.0" cy="594.1795577961653" r="4" fill="#9467bd" />
<circle cx="800.0" cy="554.5338173097009" r="4" fill="#9467bd" />
<circle cx="920.0" cy="518.6617639732444" r="4" fill="#9467bd" />
<circle cx="1040.0" cy="489.103661899447" r="4" fill="#9467bd" />
<circle cx="1160.0" cy="462.2620272293519" r="4" fill="#9467bd" />
<circle cx="1280.0" cy="445.1556243898218" r="4" fill="#9467bd" />
<circle cx="1400.0" cy="428.10795598064215" r="4" fill="#9467bd" />
<circle cx="1520.0" cy="402.77873289206764" r="4" fill="#9467bd" />
<path d="M 80.0 895.4871854932949 L 200.0 744.9214732902556 L 320.0 683.8817165486879 L 440.0 647.011177896276 L 560.0 630.5655373981871 L 680.0 594.1795577961653 L 800.0 554.5338173097009 L 920.0 518.6617639732444 L 1040.0 489.103661899447 L 1160.0 462.2620272293519 L 1280.0 445.1556243898218 L 1400.0 428.10795598064215 L 1520.0 402.77873289206764" fill="none" stroke="#9467bd" stroke-width="2" />
<circle cx="80.0" cy="525.8126808683955" r="4" fill="#66ffbd" />
<circle cx="200.0" cy="569.0559052138169" r="4" fill="#66ffbd" />
<circle cx="320.0" cy="595.5304496942226" r="4" fill="#66ffbd" />
<circle cx="440.0" cy="615.3533199374549" r="4" fill="#66ffbd" />
<circle cx="560.0" cy="620.3604301248195" r="4" fill="#66ffbd" />
<circle cx="680.0" cy="633.3554228398272" r="4" fill="#66ffbd" />
<circle cx="800.0" cy="642.9438185945165" r="4" fill="#66ffbd" />
<circle cx="920.0" cy="655.4836194743093" r="4" fill="#66ffbd" />
<circle cx="1040.0" cy="665.4244218111006" r="4" fill="#66ffbd" />
<circle cx="1160.0" cy="672.4431862379636" r="4" fill="#66ffbd" />
<circle cx="1280.0" cy="679.1095440827246" r="4" fill="#66ffbd" />
<circle cx="1400.0" cy="682.9125984479077" r="4" fill="#66ffbd" />
<circle cx="1520.0" cy="693.4847959109649" r="4" fill="#66ffbd" />
<path d="M 80.0 525.8126808683955 L 200.0 569.0559052138169 L 320.0 595.5304496942226 L 440.0 615.3533199374549 L 560.0 620.3604301248195 L 680.0 633.3554228398272 L 800.0 642.9438185945165 L 920.0 655.4836194743093 L 1040.0 665.4244218111006 L 1160.0 672.4431862379636 L 1280.0 679.1095440827246 L 1400.0 682.9125984479077 L 1520.0 693.4847959109649" fill="none" stroke="#66ffbd" stroke-width="2" />
<text x="80.0" y="940" text-anchor="middle">08-07</text>
<text x="200.0" y="940" text-anchor="middle">08-08</text>
<text x="320.0" y="940" text-anchor="middle">08-09</text>
<text x="440.0" y="940" text-anchor="middle">08-10</text>
<text x="560.0" y="940" text-anchor="middle">08-11</text>
<text x="680.0" y="940" text-anchor="middle">08-12</text>
<text x="800.0" y="940" text-anchor="middle">08-13</text>
<text x="920.0" y="940" text-anchor="middle">08-14</text>
<text x="1040.0" y="940" text-anchor="middle">08-15</text>
<text x="1160.0" y="940" text-anchor="middle">08-16</text>
<text x="1280.0" y="940" text-anchor="middle">08-17</text>
<text x="1400.0" y="940" text-anchor="middle">08-18</text>
<text x="1520.0" y="940" text-anchor="middle">08-19</text>
<rect x="90" y="100" width="130" height="185" class="legend-box" />
<text x="100" y="120" class="legend-item">图例:</text>
<rect x="100" y="137" width="15" height="15" fill="#1f77b4" rx="3" />
<text x="120" y="145" class="legend-item">构件聚合数据</text>
<rect x="100" y="162" width="15" height="15" fill="#ff7f0e" rx="3" />
<text x="120" y="170" class="legend-item">构件基本信息</text>
<rect x="100" y="187" width="15" height="15" fill="#2ca02c" rx="3" />
<text x="120" y="195" class="legend-item">构件徽标</text>
<rect x="100" y="212" width="15" height="15" fill="#d62728" rx="3" />
<text x="120" y="220" class="legend-item">构件扩展元数据</text>
<rect x="100" y="237" width="15" height="15" fill="#9467bd" rx="3" />
<text x="120" y="245" class="legend-item">构件版本信息</text>
<rect x="100" y="262" width="15" height="15" fill="#66ffbd" rx="3" />
<text x="120" y="270" class="legend-item">数据量偏差</text>
<text x="1520" y="990" text-anchor="end" font-size="10" fill="#666">生成时间: 2025-08-19 00:25:51</text>
</svg>