<svg xmlns="http://www.w3.org/2000/svg" width="1600" height="1000" viewBox="0 0 1600 1000">
<style>
  text {
    font-family: Arial, sans-serif;
    font-size: 12px;
    fill: #333;
  }
  .axis-label { font-size: 14px; }
  .title { font-size: 18px; font-weight: bold; }
  .legend-item { font-size: 11px; }
  .legend-box { fill: white; fill-opacity: 0.85; stroke: #cccccc; stroke-width: 1; rx: 5; }
</style>
<text x="800.0" y="30" text-anchor="middle" class="title">Daily Data Growth Trend</text>
<text x="800.0" y="980" text-anchor="middle" class="axis-label">Date</text>
<g transform="rotate(-90)">
<text x="-500.0" y="20" text-anchor="middle" class="axis-label">Count</text>
</g>
<rect x="0" y="0" width="1600" height="1000" fill="#f8f8f8" />
<line x1="80" y1="920.0" x2="1520" y2="920.0" stroke="#e0e0e0" stroke-width="1" />
<text x="70" y="925.0" text-anchor="end">0</text>
<line x1="80" y1="752.0" x2="1520" y2="752.0" stroke="#e0e0e0" stroke-width="1" />
<text x="70" y="757.0" text-anchor="end">21.1k</text>
<line x1="80" y1="584.0" x2="1520" y2="584.0" stroke="#e0e0e0" stroke-width="1" />
<text x="70" y="589.0" text-anchor="end">42.1k</text>
<line x1="80" y1="416.0" x2="1520" y2="416.0" stroke="#e0e0e0" stroke-width="1" />
<text x="70" y="421.0" text-anchor="end">63.2k</text>
<line x1="80" y1="248.0" x2="1520" y2="248.0" stroke="#e0e0e0" stroke-width="1" />
<text x="70" y="253.0" text-anchor="end">84.2k</text>
<line x1="80" y1="80.0" x2="1520" y2="80.0" stroke="#e0e0e0" stroke-width="1" />
<text x="70" y="85.0" text-anchor="end">105.3k</text>
<line x1="80" y1="80" x2="80" y2="920" stroke="#333333" stroke-width="2" />
<line x1="80" y1="920" x2="1520" y2="920" stroke="#333333" stroke-width="2" />
<circle cx="80.0" cy="920.0" r="4" fill="#1f77b4" />
<circle cx="108.23529411764706" cy="880.9962396640634" r="4" fill="#1f77b4" />
<circle cx="136.47058823529412" cy="798.336674745903" r="4" fill="#1f77b4" />
<circle cx="164.70588235294116" cy="765.0861286493712" r="4" fill="#1f77b4" />
<circle cx="192.94117647058823" cy="745.0735609483627" r="4" fill="#1f77b4" />
<circle cx="221.1764705882353" cy="735.0273796343397" r="4" fill="#1f77b4" />
<circle cx="249.41176470588235" cy="715.0148119333313" r="4" fill="#1f77b4" />
<circle cx="277.6470588235294" cy="693.4143251842764" r="4" fill="#1f77b4" />
<circle cx="305.88235294117646" cy="673.5054908884167" r="4" fill="#1f77b4" />
<circle cx="334.11764705882354" cy="657.2752027289865" r="4" fill="#1f77b4" />
<circle cx="362.3529411764706" cy="642.4732437635278" r="4" fill="#1f77b4" />
<circle cx="390.5882352941176" cy="633.1691552709536" r="4" fill="#1f77b4" />
<circle cx="418.8235294117647" cy="623.9608206908247" r="4" fill="#1f77b4" />
<circle cx="447.05882352941177" cy="610.116400849816" r="4" fill="#1f77b4" />
<circle cx="475.2941176470588" cy="590.4549308277726" r="4" fill="#1f77b4" />
<circle cx="503.52941176470586" cy="569.1895827722753" r="4" fill="#1f77b4" />
<circle cx="531.7647058823529" cy="555.0738601793391" r="4" fill="#1f77b4" />
<circle cx="560.0" cy="535.755508343557" r="4" fill="#1f77b4" />
<circle cx="588.2352941176471" cy="527.7760156398058" r="4" fill="#1f77b4" />
<circle cx="616.4705882352941" cy="520.4269028596507" r="4" fill="#1f77b4" />
<circle cx="644.7058823529412" cy="504.61952781351926" r="4" fill="#1f77b4" />
<circle cx="672.9411764705882" cy="489.0754760266116" r="4" fill="#1f77b4" />
<circle cx="701.1764705882352" cy="475.31085111264053" r="4" fill="#1f77b4" />
<circle cx="729.4117647058823" cy="456.31167898500854" r="4" fill="#1f77b4" />
<circle cx="757.6470588235294" cy="443.23329044356007" r="4" fill="#1f77b4" />
<circle cx="785.8823529411765" cy="435.1740028127712" r="4" fill="#1f77b4" />
<circle cx="814.1176470588235" cy="426.0853606231984" r="4" fill="#1f77b4" />
<circle cx="842.3529411764706" cy="414.4113627976102" r="4" fill="#1f77b4" />
<circle cx="870.5882352941176" cy="404.277407063846" r="4" fill="#1f77b4" />
<circle cx="898.8235294117646" cy="395.6675344364983" r="4" fill="#1f77b4" />
<circle cx="927.0588235294117" cy="381.04910380322576" r="4" fill="#1f77b4" />
<circle cx="955.2941176470588" cy="369.1197622111174" r="4" fill="#1f77b4" />
<circle cx="983.5294117647059" cy="350.92651884656436" r="4" fill="#1f77b4" />
<circle cx="1011.7647058823529" cy="345.5962177204584" r="4" fill="#1f77b4" />
<circle cx="1040.0" cy="339.5477622510149" r="4" fill="#1f77b4" />
<circle cx="1068.235294117647" cy="331.5283720837448" r="4" fill="#1f77b4" />
<circle cx="1096.4705882352941" cy="325.08094197911373" r="4" fill="#1f77b4" />
<circle cx="1124.7058823529412" cy="315.4975712419083" r="4" fill="#1f77b4" />
<circle cx="1152.9411764705883" cy="304.7491945699552" r="4" fill="#1f77b4" />
<circle cx="1181.1764705882354" cy="299.86574503525947" r="4" fill="#1f77b4" />
<circle cx="1209.4117647058824" cy="294.56736187996853" r="4" fill="#1f77b4" />
<circle cx="1237.6470588235293" cy="285.7978993985457" r="4" fill="#1f77b4" />
<circle cx="1265.8823529411764" cy="278.440807125687" r="4" fill="#1f77b4" />
<circle cx="1294.1176470588234" cy="254.1113338719491" r="4" fill="#1f77b4" />
<circle cx="1322.3529411764705" cy="244.71149146693006" r="4" fill="#1f77b4" />
<circle cx="1350.5882352941176" cy="234.73712558724083" r="4" fill="#1f77b4" />
<circle cx="1378.8235294117646" cy="227.65133606630957" r="4" fill="#1f77b4" />
<circle cx="1407.0588235294117" cy="220.4219156767109" r="4" fill="#1f77b4" />
<circle cx="1435.2941176470588" cy="215.86562534286884" r="4" fill="#1f77b4" />
<circle cx="1463.5294117647059" cy="207.15999880307618" r="4" fill="#1f77b4" />
<circle cx="1491.764705882353" cy="206.6652702554436" r="4" fill="#1f77b4" />
<circle cx="1520.0" cy="206.6333522846286" r="4" fill="#1f77b4" />
<path d="M 80.0 920.0 L 108.23529411764706 880.9962396640634 L 136.47058823529412 798.336674745903 L 164.70588235294116 765.0861286493712 L 192.94117647058823 745.0735609483627 L 221.1764705882353 735.0273796343397 L 249.41176470588235 715.0148119333313 L 277.6470588235294 693.4143251842764 L 305.88235294117646 673.5054908884167 L 334.11764705882354 657.2752027289865 L 362.3529411764706 642.4732437635278 L 390.5882352941176 633.1691552709536 L 418.8235294117647 623.9608206908247 L 447.05882352941177 610.116400849816 L 475.2941176470588 590.4549308277726 L 503.52941176470586 569.1895827722753 L 531.7647058823529 555.0738601793391 L 560.0 535.755508343557 L 588.2352941176471 527.7760156398058 L 616.4705882352941 520.4269028596507 L 644.7058823529412 504.61952781351926 L 672.9411764705882 489.0754760266116 L 701.1764705882352 475.31085111264053 L 729.4117647058823 456.31167898500854 L 757.6470588235294 443.23329044356007 L 785.8823529411765 435.1740028127712 L 814.1176470588235 426.0853606231984 L 842.3529411764706 414.4113627976102 L 870.5882352941176 404.277407063846 L 898.8235294117646 395.6675344364983 L 927.0588235294117 381.04910380322576 L 955.2941176470588 369.1197622111174 L 983.5294117647059 350.92651884656436 L 1011.7647058823529 345.5962177204584 L 1040.0 339.5477622510149 L 1068.235294117647 331.5283720837448 L 1096.4705882352941 325.08094197911373 L 1124.7058823529412 315.4975712419083 L 1152.9411764705883 304.7491945699552 L 1181.1764705882354 299.86574503525947 L 1209.4117647058824 294.56736187996853 L 1237.6470588235293 285.7978993985457 L 1265.8823529411764 278.440807125687 L 1294.1176470588234 254.1113338719491 L 1322.3529411764705 244.71149146693006 L 1350.5882352941176 234.73712558724083 L 1378.8235294117646 227.65133606630957 L 1407.0588235294117 220.4219156767109 L 1435.2941176470588 215.86562534286884 L 1463.5294117647059 207.15999880307618 L 1491.764705882353 206.6652702554436 L 1520.0 206.6333522846286" fill="none" stroke="#1f77b4" stroke-width="2" />
<circle cx="80.0" cy="920.0" r="4" fill="#ff7f0e" />
<circle cx="108.23529411764706" cy="635.3236183009665" r="4" fill="#ff7f0e" />
<circle cx="136.47058823529412" cy="575.9322541069452" r="4" fill="#ff7f0e" />
<circle cx="164.70588235294116" cy="556.8852050230907" r="4" fill="#ff7f0e" />
<circle cx="192.94117647058823" cy="547.501321603479" r="4" fill="#ff7f0e" />
<circle cx="221.1764705882353" cy="540.1601883160279" r="4" fill="#ff7f0e" />
<circle cx="249.41176470588235" cy="527.0738202818757" r="4" fill="#ff7f0e" />
<circle cx="277.6470588235294" cy="510.468495965369" r="4" fill="#ff7f0e" />
<circle cx="305.88235294117646" cy="497.2225380771418" r="4" fill="#ff7f0e" />
<circle cx="334.11764705882354" cy="486.30659205840993" r="4" fill="#ff7f0e" />
<circle cx="362.3529411764706" cy="475.262974156418" r="4" fill="#ff7f0e" />
<circle cx="390.5882352941176" cy="469.4938009316058" r="4" fill="#ff7f0e" />
<circle cx="418.8235294117647" cy="462.35215496174834" r="4" fill="#ff7f0e" />
<circle cx="447.05882352941177" cy="454.22903138932946" r="4" fill="#ff7f0e" />
<circle cx="475.2941176470588" cy="443.3609623268201" r="4" fill="#ff7f0e" />
<circle cx="503.52941176470586" cy="428.8143471278814" r="4" fill="#ff7f0e" />
<circle cx="531.7647058823529" cy="419.4783406644923" r="4" fill="#ff7f0e" />
<circle cx="560.0" cy="407.8203018243115" r="4" fill="#ff7f0e" />
<circle cx="588.2352941176471" cy="400.72653281067664" r="4" fill="#ff7f0e" />
<circle cx="616.4705882352941" cy="395.0690724837169" r="4" fill="#ff7f0e" />
<circle cx="644.7058823529412" cy="382.21410973797344" r="4" fill="#ff7f0e" />
<circle cx="672.9411764705882" cy="371.75299480335536" r="4" fill="#ff7f0e" />
<circle cx="701.1764705882352" cy="359.3688221271333" r="4" fill="#ff7f0e" />
<circle cx="729.4117647058823" cy="343.12257498229553" r="4" fill="#ff7f0e" />
<circle cx="757.6470588235294" cy="332.97266026312377" r="4" fill="#ff7f0e" />
<circle cx="785.8823529411765" cy="320.85979033882927" r="4" fill="#ff7f0e" />
<circle cx="814.1176470588235" cy="317.85152158951496" r="4" fill="#ff7f0e" />
<circle cx="842.3529411764706" cy="307.60585295789826" r="4" fill="#ff7f0e" />
<circle cx="870.5882352941176" cy="300.75146872537584" r="4" fill="#ff7f0e" />
<circle cx="898.8235294117646" cy="294.1923257228922" r="4" fill="#ff7f0e" />
<circle cx="927.0588235294117" cy="281.9996608715601" r="4" fill="#ff7f0e" />
<circle cx="955.2941176470588" cy="271.05179688201326" r="4" fill="#ff7f0e" />
<circle cx="983.5294117647059" cy="258.98680391394123" r="4" fill="#ff7f0e" />
<circle cx="1011.7647058823529" cy="254.5821239414705" r="4" fill="#ff7f0e" />
<circle cx="1040.0" cy="250.06573107114718" r="4" fill="#ff7f0e" />
<circle cx="1068.235294117647" cy="243.97737813818492" r="4" fill="#ff7f0e" />
<circle cx="1096.4705882352941" cy="238.69495396830155" r="4" fill="#ff7f0e" />
<circle cx="1124.7058823529412" cy="230.5000149615489" r="4" fill="#ff7f0e" />
<circle cx="1152.9411764705883" cy="221.85822436338617" r="4" fill="#ff7f0e" />
<circle cx="1181.1764705882354" cy="216.03319468964764" r="4" fill="#ff7f0e" />
<circle cx="1209.4117647058824" cy="212.54615637810832" r="4" fill="#ff7f0e" />
<circle cx="1237.6470588235293" cy="205.28481801769453" r="4" fill="#ff7f0e" />
<circle cx="1265.8823529411764" cy="200.37743000488751" r="4" fill="#ff7f0e" />
<circle cx="1294.1176470588234" cy="176.7661110944872" r="4" fill="#ff7f0e" />
<circle cx="1322.3529411764705" cy="167.62161245598816" r="4" fill="#ff7f0e" />
<circle cx="1350.5882352941176" cy="159.31496055138302" r="4" fill="#ff7f0e" />
<circle cx="1378.8235294117646" cy="150.91255473433284" r="4" fill="#ff7f0e" />
<circle cx="1407.0588235294117" cy="146.04506418504445" r="4" fill="#ff7f0e" />
<circle cx="1435.2941176470588" cy="142.45429246835636" r="4" fill="#ff7f0e" />
<circle cx="1463.5294117647059" cy="136.15049323239282" r="4" fill="#ff7f0e" />
<circle cx="1491.764705882353" cy="128.5141187149028" r="4" fill="#ff7f0e" />
<circle cx="1520.0" cy="122.01881165404916" r="4" fill="#ff7f0e" />
<path d="M 80.0 920.0 L 108.23529411764706 635.3236183009665 L 136.47058823529412 575.9322541069452 L 164.70588235294116 556.8852050230907 L 192.94117647058823 547.501321603479 L 221.1764705882353 540.1601883160279 L 249.41176470588235 527.0738202818757 L 277.6470588235294 510.468495965369 L 305.88235294117646 497.2225380771418 L 334.11764705882354 486.30659205840993 L 362.3529411764706 475.262974156418 L 390.5882352941176 469.4938009316058 L 418.8235294117647 462.35215496174834 L 447.05882352941177 454.22903138932946 L 475.2941176470588 443.3609623268201 L 503.52941176470586 428.8143471278814 L 531.7647058823529 419.4783406644923 L 560.0 407.8203018243115 L 588.2352941176471 400.72653281067664 L 616.4705882352941 395.0690724837169 L 644.7058823529412 382.21410973797344 L 672.9411764705882 371.75299480335536 L 701.1764705882352 359.3688221271333 L 729.4117647058823 343.12257498229553 L 757.6470588235294 332.97266026312377 L 785.8823529411765 320.85979033882927 L 814.1176470588235 317.85152158951496 L 842.3529411764706 307.60585295789826 L 870.5882352941176 300.75146872537584 L 898.8235294117646 294.1923257228922 L 927.0588235294117 281.9996608715601 L 955.2941176470588 271.05179688201326 L 983.5294117647059 258.98680391394123 L 1011.7647058823529 254.5821239414705 L 1040.0 250.06573107114718 L 1068.235294117647 243.97737813818492 L 1096.4705882352941 238.69495396830155 L 1124.7058823529412 230.5000149615489 L 1152.9411764705883 221.85822436338617 L 1181.1764705882354 216.03319468964764 L 1209.4117647058824 212.54615637810832 L 1237.6470588235293 205.28481801769453 L 1265.8823529411764 200.37743000488751 L 1294.1176470588234 176.7661110944872 L 1322.3529411764705 167.62161245598816 L 1350.5882352941176 159.31496055138302 L 1378.8235294117646 150.91255473433284 L 1407.0588235294117 146.04506418504445 L 1435.2941176470588 142.45429246835636 L 1463.5294117647059 136.15049323239282 L 1491.764705882353 128.5141187149028 L 1520.0 122.01881165404916" fill="none" stroke="#ff7f0e" stroke-width="2" />
<circle cx="80.0" cy="920.0" r="4" fill="#2ca02c" />
<circle cx="108.23529411764706" cy="629.7299939156369" r="4" fill="#2ca02c" />
<circle cx="136.47058823529412" cy="570.5700350100242" r="4" fill="#2ca02c" />
<circle cx="164.70588235294116" cy="551.706514258356" r="4" fill="#2ca02c" />
<circle cx="192.94117647058823" cy="542.466261707412" r="4" fill="#2ca02c" />
<circle cx="221.1764705882353" cy="535.1410874053682" r="4" fill="#2ca02c" />
<circle cx="249.41176470588235" cy="522.1903707471797" r="4" fill="#2ca02c" />
<circle cx="277.6470588235294" cy="505.8004927336745" r="4" fill="#2ca02c" />
<circle cx="305.88235294117646" cy="492.7061452068185" r="4" fill="#2ca02c" />
<circle cx="334.11764705882354" cy="481.8779736078279" r="4" fill="#2ca02c" />
<circle cx="362.3529411764706" cy="470.8902121547623" r="4" fill="#2ca02c" />
<circle cx="390.5882352941176" cy="465.2088133496913" r="4" fill="#2ca02c" />
<circle cx="418.8235294117647" cy="458.06716737983385" r="4" fill="#2ca02c" />
<circle cx="447.05882352941177" cy="449.9679822855262" r="4" fill="#2ca02c" />
<circle cx="475.2941176470588" cy="439.33929800412943" r="4" fill="#2ca02c" />
<circle cx="503.52941176470586" cy="425.103883020637" r="4" fill="#2ca02c" />
<circle cx="531.7647058823529" cy="415.80777402076666" r="4" fill="#2ca02c" />
<circle cx="560.0" cy="404.15771467328966" r="4" fill="#2ca02c" />
<circle cx="588.2352941176471" cy="397.05596616695095" r="4" fill="#2ca02c" />
<circle cx="616.4705882352941" cy="391.4144648253988" r="4" fill="#2ca02c" />
<circle cx="644.7058823529412" cy="378.6472764993965" r="4" fill="#2ca02c" />
<circle cx="672.9411764705882" cy="368.21010004288985" r="4" fill="#2ca02c" />
<circle cx="701.1764705882352" cy="355.8418863520752" r="4" fill="#2ca02c" />
<circle cx="729.4117647058823" cy="339.61957768534864" r="4" fill="#2ca02c" />
<circle cx="757.6470588235294" cy="329.501580936992" r="4" fill="#2ca02c" />
<circle cx="785.8823529411765" cy="317.3966905054011" r="4" fill="#2ca02c" />
<circle cx="814.1176470588235" cy="314.39640124879065" r="4" fill="#2ca02c" />
<circle cx="842.3529411764706" cy="304.1587121098777" r="4" fill="#2ca02c" />
<circle cx="870.5882352941176" cy="297.32826635546644" r="4" fill="#2ca02c" />
<circle cx="898.8235294117646" cy="290.80902081650163" r="4" fill="#2ca02c" />
<circle cx="927.0588235294117" cy="278.89563820980084" r="4" fill="#2ca02c" />
<circle cx="955.2941176470588" cy="267.97969219106903" r="4" fill="#2ca02c" />
<circle cx="983.5294117647059" cy="256.2498379165545" r="4" fill="#2ca02c" />
<circle cx="1011.7647058823529" cy="251.84515794408378" r="4" fill="#2ca02c" />
<circle cx="1040.0" cy="247.38462152268676" r="4" fill="#2ca02c" />
<circle cx="1068.235294117647" cy="241.30424808242822" r="4" fill="#2ca02c" />
<circle cx="1096.4705882352941" cy="236.04576239065602" r="4" fill="#2ca02c" />
<circle cx="1124.7058823529412" cy="227.8508233839034" r="4" fill="#2ca02c" />
<circle cx="1152.9411764705883" cy="219.2489302492594" r="4" fill="#2ca02c" />
<circle cx="1181.1764705882354" cy="213.4318800682247" r="4" fill="#2ca02c" />
<circle cx="1209.4117647058824" cy="209.94484175668538" r="4" fill="#2ca02c" />
<circle cx="1237.6470588235293" cy="202.69148288897543" r="4" fill="#2ca02c" />
<circle cx="1265.8823529411764" cy="197.86388980320578" r="4" fill="#2ca02c" />
<circle cx="1294.1176470588234" cy="174.460037703103" r="4" fill="#2ca02c" />
<circle cx="1322.3529411764705" cy="165.33149805001153" r="4" fill="#2ca02c" />
<circle cx="1350.5882352941176" cy="157.2722104192227" r="4" fill="#2ca02c" />
<circle cx="1378.8235294117646" cy="148.87778409487623" r="4" fill="#2ca02c" />
<circle cx="1407.0588235294117" cy="144.01029354558784" r="4" fill="#2ca02c" />
<circle cx="1435.2941176470588" cy="140.41952182889975" r="4" fill="#2ca02c" />
<circle cx="1463.5294117647059" cy="134.13168157834366" r="4" fill="#2ca02c" />
<circle cx="1491.764705882353" cy="126.49530706085363" r="4" fill="#2ca02c" />
<circle cx="1520.0" cy="120.0" r="4" fill="#2ca02c" />
<path d="M 80.0 920.0 L 108.23529411764706 629.7299939156369 L 136.47058823529412 570.5700350100242 L 164.70588235294116 551.706514258356 L 192.94117647058823 542.466261707412 L 221.1764705882353 535.1410874053682 L 249.41176470588235 522.1903707471797 L 277.6470588235294 505.8004927336745 L 305.88235294117646 492.7061452068185 L 334.11764705882354 481.8779736078279 L 362.3529411764706 470.8902121547623 L 390.5882352941176 465.2088133496913 L 418.8235294117647 458.06716737983385 L 447.05882352941177 449.9679822855262 L 475.2941176470588 439.33929800412943 L 503.52941176470586 425.103883020637 L 531.7647058823529 415.80777402076666 L 560.0 404.15771467328966 L 588.2352941176471 397.05596616695095 L 616.4705882352941 391.4144648253988 L 644.7058823529412 378.6472764993965 L 672.9411764705882 368.21010004288985 L 701.1764705882352 355.8418863520752 L 729.4117647058823 339.61957768534864 L 757.6470588235294 329.501580936992 L 785.8823529411765 317.3966905054011 L 814.1176470588235 314.39640124879065 L 842.3529411764706 304.1587121098777 L 870.5882352941176 297.32826635546644 L 898.8235294117646 290.80902081650163 L 927.0588235294117 278.89563820980084 L 955.2941176470588 267.97969219106903 L 983.5294117647059 256.2498379165545 L 1011.7647058823529 251.84515794408378 L 1040.0 247.38462152268676 L 1068.235294117647 241.30424808242822 L 1096.4705882352941 236.04576239065602 L 1124.7058823529412 227.8508233839034 L 1152.9411764705883 219.2489302492594 L 1181.1764705882354 213.4318800682247 L 1209.4117647058824 209.94484175668538 L 1237.6470588235293 202.69148288897543 L 1265.8823529411764 197.86388980320578 L 1294.1176470588234 174.460037703103 L 1322.3529411764705 165.33149805001153 L 1350.5882352941176 157.2722104192227 L 1378.8235294117646 148.87778409487623 L 1407.0588235294117 144.01029354558784 L 1435.2941176470588 140.41952182889975 L 1463.5294117647059 134.13168157834366 L 1491.764705882353 126.49530706085363 L 1520.0 120.0" fill="none" stroke="#2ca02c" stroke-width="2" />
<circle cx="80.0" cy="920.0" r="4" fill="#d62728" />
<circle cx="108.23529411764706" cy="863.6807404969229" r="4" fill="#d62728" />
<circle cx="136.47058823529412" cy="782.1702225281028" r="4" fill="#d62728" />
<circle cx="164.70588235294116" cy="753.9627158203417" r="4" fill="#d62728" />
<circle cx="192.94117647058823" cy="733.9900455828521" r="4" fill="#d62728" />
<circle cx="221.1764705882353" cy="724.0316386885704" r="4" fill="#d62728" />
<circle cx="249.41176470588235" cy="704.4260251154533" r="4" fill="#d62728" />
<circle cx="277.6470588235294" cy="683.830954447071" r="4" fill="#d62728" />
<circle cx="305.88235294117646" cy="664.8716797829578" r="4" fill="#d62728" />
<circle cx="334.11764705882354" cy="648.9845098097888" r="4" fill="#d62728" />
<circle cx="362.3529411764706" cy="634.2304278005527" r="4" fill="#d62728" />
<circle cx="390.5882352941176" cy="624.942298293386" r="4" fill="#d62728" />
<circle cx="418.8235294117647" cy="615.7419432059608" r="4" fill="#d62728" />
<circle cx="447.05882352941177" cy="602.5837597374747" r="4" fill="#d62728" />
<circle cx="475.2941176470588" cy="583.1536950038401" r="4" fill="#d62728" />
<circle cx="503.52941176470586" cy="562.2474241200116" r="4" fill="#d62728" />
<circle cx="531.7647058823529" cy="548.8019789141906" r="4" fill="#d62728" />
<circle cx="560.0" cy="529.7230118595211" r="4" fill="#d62728" />
<circle cx="588.2352941176471" cy="521.7435191557697" r="4" fill="#d62728" />
<circle cx="616.4705882352941" cy="514.4742013026522" r="4" fill="#d62728" />
<circle cx="644.7058823529412" cy="498.8583340814108" r="4" fill="#d62728" />
<circle cx="672.9411764705882" cy="484.2558624335458" r="4" fill="#d62728" />
<circle cx="701.1764705882352" cy="470.547093968501" r="4" fill="#d62728" />
<circle cx="729.4117647058823" cy="451.5638808262765" r="4" fill="#d62728" />
<circle cx="757.6470588235294" cy="438.9163848908306" r="4" fill="#d62728" />
<circle cx="785.8823529411765" cy="430.8570972600417" r="4" fill="#d62728" />
<circle cx="814.1176470588235" cy="421.7604755777652" r="4" fill="#d62728" />
<circle cx="842.3529411764706" cy="410.08647775217696" r="4" fill="#d62728" />
<circle cx="870.5882352941176" cy="400.6307788982316" r="4" fill="#d62728" />
<circle cx="898.8235294117646" cy="392.0368652562913" r="4" fill="#d62728" />
<circle cx="927.0588235294117" cy="377.4503525938338" r="4" fill="#d62728" />
<circle cx="955.2941176470588" cy="365.5289904944293" r="4" fill="#d62728" />
<circle cx="983.5294117647059" cy="347.4315010423213" r="4" fill="#d62728" />
<circle cx="1011.7647058823529" cy="342.12513839432665" r="4" fill="#d62728" />
<circle cx="1040.0" cy="336.07668292488313" r="4" fill="#d62728" />
<circle cx="1068.235294117647" cy="328.1131492065392" r="4" fill="#d62728" />
<circle cx="1096.4705882352941" cy="321.6577396092043" r="4" fill="#d62728" />
<circle cx="1124.7058823529412" cy="312.1222458282215" r="4" fill="#d62728" />
<circle cx="1152.9411764705883" cy="301.97233110904983" r="4" fill="#d62728" />
<circle cx="1181.1764705882354" cy="297.11282005246517" r="4" fill="#d62728" />
<circle cx="1209.4117647058824" cy="291.81443689717435" r="4" fill="#d62728" />
<circle cx="1237.6470588235293" cy="283.06891289386283" r="4" fill="#d62728" />
<circle cx="1265.8823529411764" cy="275.78363605533787" r="4" fill="#d62728" />
<circle cx="1294.1176470588234" cy="251.52597823593374" r="4" fill="#d62728" />
<circle cx="1322.3529411764705" cy="242.15007430902585" r="4" fill="#d62728" />
<circle cx="1350.5882352941176" cy="232.17570842933662" r="4" fill="#d62728" />
<circle cx="1378.8235294117646" cy="225.08193941570164" r="4" fill="#d62728" />
<circle cx="1407.0588235294117" cy="217.85251902610298" r="4" fill="#d62728" />
<circle cx="1435.2941176470588" cy="213.30420818496464" r="4" fill="#d62728" />
<circle cx="1463.5294117647059" cy="204.9656383095445" r="4" fill="#d62728" />
<circle cx="1491.764705882353" cy="204.47888925461564" r="4" fill="#d62728" />
<circle cx="1520.0" cy="204.47888925461564" r="4" fill="#d62728" />
<path d="M 80.0 920.0 L 108.23529411764706 863.6807404969229 L 136.47058823529412 782.1702225281028 L 164.70588235294116 753.9627158203417 L 192.94117647058823 733.9900455828521 L 221.1764705882353 724.0316386885704 L 249.41176470588235 704.4260251154533 L 277.6470588235294 683.830954447071 L 305.88235294117646 664.8716797829578 L 334.11764705882354 648.9845098097888 L 362.3529411764706 634.2304278005527 L 390.5882352941176 624.942298293386 L 418.8235294117647 615.7419432059608 L 447.05882352941177 602.5837597374747 L 475.2941176470588 583.1536950038401 L 503.52941176470586 562.2474241200116 L 531.7647058823529 548.8019789141906 L 560.0 529.7230118595211 L 588.2352941176471 521.7435191557697 L 616.4705882352941 514.4742013026522 L 644.7058823529412 498.8583340814108 L 672.9411764705882 484.2558624335458 L 701.1764705882352 470.547093968501 L 729.4117647058823 451.5638808262765 L 757.6470588235294 438.9163848908306 L 785.8823529411765 430.8570972600417 L 814.1176470588235 421.7604755777652 L 842.3529411764706 410.08647775217696 L 870.5882352941176 400.6307788982316 L 898.8235294117646 392.0368652562913 L 927.0588235294117 377.4503525938338 L 955.2941176470588 365.5289904944293 L 983.5294117647059 347.4315010423213 L 1011.7647058823529 342.12513839432665 L 1040.0 336.07668292488313 L 1068.235294117647 328.1131492065392 L 1096.4705882352941 321.6577396092043 L 1124.7058823529412 312.1222458282215 L 1152.9411764705883 301.97233110904983 L 1181.1764705882354 297.11282005246517 L 1209.4117647058824 291.81443689717435 L 1237.6470588235293 283.06891289386283 L 1265.8823529411764 275.78363605533787 L 1294.1176470588234 251.52597823593374 L 1322.3529411764705 242.15007430902585 L 1350.5882352941176 232.17570842933662 L 1378.8235294117646 225.08193941570164 L 1407.0588235294117 217.85251902610298 L 1435.2941176470588 213.30420818496464 L 1463.5294117647059 204.9656383095445 L 1491.764705882353 204.47888925461564 L 1520.0 204.47888925461564" fill="none" stroke="#d62728" stroke-width="2" />
<circle cx="80.0" cy="920.0" r="4" fill="#9467bd" />
<circle cx="108.23529411764706" cy="869.6254625612177" r="4" fill="#9467bd" />
<circle cx="136.47058823529412" cy="787.8037443769513" r="4" fill="#9467bd" />
<circle cx="164.70588235294116" cy="754.6329932074568" r="4" fill="#9467bd" />
<circle cx="192.94117647058823" cy="734.5964870283372" r="4" fill="#9467bd" />
<circle cx="221.1764705882353" cy="725.6594552001357" r="4" fill="#9467bd" />
<circle cx="249.41176470588235" cy="705.8862722802398" r="4" fill="#9467bd" />
<circle cx="277.6470588235294" cy="684.3416419801111" r="4" fill="#9467bd" />
<circle cx="305.88235294117646" cy="664.8477413048465" r="4" fill="#9467bd" />
<circle cx="334.11764705882354" cy="648.7850224921951" r="4" fill="#9467bd" />
<circle cx="362.3529411764706" cy="634.1985098297375" r="4" fill="#9467bd" />
<circle cx="390.5882352941176" cy="624.9024008298672" r="4" fill="#9467bd" />
<circle cx="418.8235294117647" cy="615.6382098008119" r="4" fill="#9467bd" />
<circle cx="447.05882352941177" cy="601.8735848868408" r="4" fill="#9467bd" />
<circle cx="475.2941176470588" cy="582.5871510218738" r="4" fill="#9467bd" />
<circle cx="503.52941176470586" cy="561.2739260101539" r="4" fill="#9467bd" />
<circle cx="531.7647058823529" cy="547.4614241399604" r="4" fill="#9467bd" />
<circle cx="560.0" cy="530.880038301565" r="4" fill="#9467bd" />
<circle cx="588.2352941176471" cy="522.8925661051098" r="4" fill="#9467bd" />
<circle cx="616.4705882352941" cy="515.543453324955" r="4" fill="#9467bd" />
<circle cx="644.7058823529412" cy="499.6961808153047" r="4" fill="#9467bd" />
<circle cx="672.9411764705882" cy="484.6388780833259" r="4" fill="#9467bd" />
<circle cx="701.1764705882352" cy="470.94606860368856" r="4" fill="#9467bd" />
<circle cx="729.4117647058823" cy="451.8910400271303" r="4" fill="#9467bd" />
<circle cx="757.6470588235294" cy="439.0600157594981" r="4" fill="#9467bd" />
<circle cx="785.8823529411765" cy="431.0246666068205" r="4" fill="#9467bd" />
<circle cx="814.1176470588235" cy="421.92804492454394" r="4" fill="#9467bd" />
<circle cx="842.3529411764706" cy="410.2380881135482" r="4" fill="#9467bd" />
<circle cx="870.5882352941176" cy="400.4711890441565" r="4" fill="#9467bd" />
<circle cx="898.8235294117646" cy="391.87727540221636" r="4" fill="#9467bd" />
<circle cx="927.0588235294117" cy="377.4902500573527" r="4" fill="#9467bd" />
<circle cx="955.2941176470588" cy="365.8401907098756" r="4" fill="#9467bd" />
<circle cx="983.5294117647059" cy="347.63896785261875" r="4" fill="#9467bd" />
<circle cx="1011.7647058823529" cy="342.2847282484016" r="4" fill="#9467bd" />
<circle cx="1040.0" cy="336.4836370527744" r="4" fill="#9467bd" />
<circle cx="1068.235294117647" cy="328.4961648563193" r="4" fill="#9467bd" />
<circle cx="1096.4705882352941" cy="322.0168167808732" r="4" fill="#9467bd" />
<circle cx="1124.7058823529412" cy="312.4095075655565" r="4" fill="#9467bd" />
<circle cx="1152.9411764705883" cy="301.6611308936035" r="4" fill="#9467bd" />
<circle cx="1181.1764705882354" cy="296.77768135890767" r="4" fill="#9467bd" />
<circle cx="1209.4117647058824" cy="291.47929820361674" r="4" fill="#9467bd" />
<circle cx="1237.6470588235293" cy="282.7257947076015" r="4" fill="#9467bd" />
<circle cx="1265.8823529411764" cy="275.3527434493352" r="4" fill="#9467bd" />
<circle cx="1294.1176470588234" cy="251.08710613722735" r="4" fill="#9467bd" />
<circle cx="1322.3529411764705" cy="241.663325254097" r="4" fill="#9467bd" />
<circle cx="1350.5882352941176" cy="231.6969388671116" r="4" fill="#9467bd" />
<circle cx="1378.8235294117646" cy="224.60316985347663" r="4" fill="#9467bd" />
<circle cx="1407.0588235294117" cy="217.30991352224783" r="4" fill="#9467bd" />
<circle cx="1435.2941176470588" cy="212.77756166651704" r="4" fill="#9467bd" />
<circle cx="1463.5294117647059" cy="204.0479966486131" r="4" fill="#9467bd" />
<circle cx="1491.764705882353" cy="194.62421576548275" r="4" fill="#9467bd" />
<circle cx="1520.0" cy="187.75387254755287" r="4" fill="#9467bd" />
<path d="M 80.0 920.0 L 108.23529411764706 869.6254625612177 L 136.47058823529412 787.8037443769513 L 164.70588235294116 754.6329932074568 L 192.94117647058823 734.5964870283372 L 221.1764705882353 725.6594552001357 L 249.41176470588235 705.8862722802398 L 277.6470588235294 684.3416419801111 L 305.88235294117646 664.8477413048465 L 334.11764705882354 648.7850224921951 L 362.3529411764706 634.1985098297375 L 390.5882352941176 624.9024008298672 L 418.8235294117647 615.6382098008119 L 447.05882352941177 601.8735848868408 L 475.2941176470588 582.5871510218738 L 503.52941176470586 561.2739260101539 L 531.7647058823529 547.4614241399604 L 560.0 530.880038301565 L 588.2352941176471 522.8925661051098 L 616.4705882352941 515.543453324955 L 644.7058823529412 499.6961808153047 L 672.9411764705882 484.6388780833259 L 701.1764705882352 470.94606860368856 L 729.4117647058823 451.8910400271303 L 757.6470588235294 439.0600157594981 L 785.8823529411765 431.0246666068205 L 814.1176470588235 421.92804492454394 L 842.3529411764706 410.2380881135482 L 870.5882352941176 400.4711890441565 L 898.8235294117646 391.87727540221636 L 927.0588235294117 377.4902500573527 L 955.2941176470588 365.8401907098756 L 983.5294117647059 347.63896785261875 L 1011.7647058823529 342.2847282484016 L 1040.0 336.4836370527744 L 1068.235294117647 328.4961648563193 L 1096.4705882352941 322.0168167808732 L 1124.7058823529412 312.4095075655565 L 1152.9411764705883 301.6611308936035 L 1181.1764705882354 296.77768135890767 L 1209.4117647058824 291.47929820361674 L 1237.6470588235293 282.7257947076015 L 1265.8823529411764 275.3527434493352 L 1294.1176470588234 251.08710613722735 L 1322.3529411764705 241.663325254097 L 1350.5882352941176 231.6969388671116 L 1378.8235294117646 224.60316985347663 L 1407.0588235294117 217.30991352224783 L 1435.2941176470588 212.77756166651704 L 1463.5294117647059 204.0479966486131 L 1491.764705882353 194.62421576548275 L 1520.0 187.75387254755287" fill="none" stroke="#9467bd" stroke-width="2" />
<circle cx="80.0" cy="920.0" r="4" fill="#66ffbd" />
<circle cx="108.23529411764706" cy="668.7337542515735" r="4" fill="#66ffbd" />
<circle cx="136.47058823529412" cy="692.2333602641212" r="4" fill="#66ffbd" />
<circle cx="164.70588235294116" cy="706.6203856089849" r="4" fill="#66ffbd" />
<circle cx="192.94117647058823" cy="717.3927007590493" r="4" fill="#66ffbd" />
<circle cx="221.1764705882353" cy="720.1137077710284" r="4" fill="#66ffbd" />
<circle cx="249.41176470588235" cy="727.1755588138484" r="4" fill="#66ffbd" />
<circle cx="277.6470588235294" cy="732.3861675493981" r="4" fill="#66ffbd" />
<circle cx="305.88235294117646" cy="739.2006543184017" r="4" fill="#66ffbd" />
<circle cx="334.11764705882354" cy="744.6027708788414" r="4" fill="#66ffbd" />
<circle cx="362.3529411764706" cy="748.4169683912346" r="4" fill="#66ffbd" />
<circle cx="390.5882352941176" cy="752.0396580787376" r="4" fill="#66ffbd" />
<circle cx="418.8235294117647" cy="754.1063466890092" r="4" fill="#66ffbd" />
<circle cx="447.05882352941177" cy="759.8515814357103" r="4" fill="#66ffbd" />
<circle cx="475.2941176470588" cy="768.8843671763568" r="4" fill="#66ffbd" />
<circle cx="503.52941176470586" cy="775.9143002483618" r="4" fill="#66ffbd" />
<circle cx="531.7647058823529" cy="780.7339138414276" r="4" fill="#66ffbd" />
<circle cx="560.0" cy="788.4022063297326" r="4" fill="#66ffbd" />
<circle cx="588.2352941176471" cy="789.2799505271453" r="4" fill="#66ffbd" />
<circle cx="616.4705882352941" cy="790.987561965748" r="4" fill="#66ffbd" />
<circle cx="644.7058823529412" cy="794.0277486858773" r="4" fill="#66ffbd" />
<circle cx="672.9411764705882" cy="799.1346240162782" r="4" fill="#66ffbd" />
<circle cx="701.1764705882352" cy="800.5310352394347" r="4" fill="#66ffbd" />
<circle cx="729.4117647058823" cy="803.3078987003402" r="4" fill="#66ffbd" />
<circle cx="757.6470588235294" cy="806.2682904934319" r="4" fill="#66ffbd" />
<circle cx="785.8823529411765" cy="802.22268769263" r="4" fill="#66ffbd" />
<circle cx="814.1176470588235" cy="808.3110406255922" r="4" fill="#66ffbd" />
<circle cx="842.3529411764706" cy="809.7473493122675" r="4" fill="#66ffbd" />
<circle cx="870.5882352941176" cy="813.0508592916206" r="4" fill="#66ffbd" />
<circle cx="898.8235294117646" cy="815.1414863800034" r="4" fill="#66ffbd" />
<circle cx="927.0588235294117" cy="817.8465344065751" r="4" fill="#66ffbd" />
<circle cx="955.2941176470588" cy="818.8599299799515" r="4" fill="#66ffbd" />
<circle cx="983.5294117647059" cy="825.3233190699901" r="4" fill="#66ffbd" />
<circle cx="1011.7647058823529" cy="826.2489402236253" r="4" fill="#66ffbd" />
<circle cx="1040.0" cy="827.8368592716718" r="4" fill="#66ffbd" />
<circle cx="1068.235294117647" cy="829.7758759986834" r="4" fill="#66ffbd" />
<circle cx="1096.4705882352941" cy="830.9648204115424" r="4" fill="#66ffbd" />
<circle cx="1124.7058823529412" cy="832.3532521419951" r="4" fill="#66ffbd" />
<circle cx="1152.9411764705883" cy="834.4997356793042" r="4" fill="#66ffbd" />
<circle cx="1181.1764705882354" cy="833.5661350329652" r="4" fill="#66ffbd" />
<circle cx="1209.4117647058824" cy="835.3774798767168" r="4" fill="#66ffbd" />
<circle cx="1237.6470588235293" cy="836.8935834904296" r="4" fill="#66ffbd" />
<circle cx="1265.8823529411764" cy="839.4230826775188" r="4" fill="#66ffbd" />
<circle cx="1294.1176470588234" cy="840.3487038311539" r="4" fill="#66ffbd" />
<circle cx="1322.3529411764705" cy="840.6200065830815" r="4" fill="#66ffbd" />
<circle cx="1350.5882352941176" cy="842.5350848319817" r="4" fill="#66ffbd" />
<circle cx="1378.8235294117646" cy="841.2264480285666" r="4" fill="#66ffbd" />
<circle cx="1407.0588235294117" cy="843.5883778688769" r="4" fill="#66ffbd" />
<circle cx="1435.2941176470588" cy="844.5538964860309" r="4" fill="#66ffbd" />
<circle cx="1463.5294117647059" cy="846.9716827752676" r="4" fill="#66ffbd" />
<circle cx="1491.764705882353" cy="839.8300368054101" r="4" fill="#66ffbd" />
<circle cx="1520.0" cy="833.3666477153715" r="4" fill="#66ffbd" />
<path d="M 80.0 920.0 L 108.23529411764706 668.7337542515735 L 136.47058823529412 692.2333602641212 L 164.70588235294116 706.6203856089849 L 192.94117647058823 717.3927007590493 L 221.1764705882353 720.1137077710284 L 249.41176470588235 727.1755588138484 L 277.6470588235294 732.3861675493981 L 305.88235294117646 739.2006543184017 L 334.11764705882354 744.6027708788414 L 362.3529411764706 748.4169683912346 L 390.5882352941176 752.0396580787376 L 418.8235294117647 754.1063466890092 L 447.05882352941177 759.8515814357103 L 475.2941176470588 768.8843671763568 L 503.52941176470586 775.9143002483618 L 531.7647058823529 780.7339138414276 L 560.0 788.4022063297326 L 588.2352941176471 789.2799505271453 L 616.4705882352941 790.987561965748 L 644.7058823529412 794.0277486858773 L 672.9411764705882 799.1346240162782 L 701.1764705882352 800.5310352394347 L 729.4117647058823 803.3078987003402 L 757.6470588235294 806.2682904934319 L 785.8823529411765 802.22268769263 L 814.1176470588235 808.3110406255922 L 842.3529411764706 809.7473493122675 L 870.5882352941176 813.0508592916206 L 898.8235294117646 815.1414863800034 L 927.0588235294117 817.8465344065751 L 955.2941176470588 818.8599299799515 L 983.5294117647059 825.3233190699901 L 1011.7647058823529 826.2489402236253 L 1040.0 827.8368592716718 L 1068.235294117647 829.7758759986834 L 1096.4705882352941 830.9648204115424 L 1124.7058823529412 832.3532521419951 L 1152.9411764705883 834.4997356793042 L 1181.1764705882354 833.5661350329652 L 1209.4117647058824 835.3774798767168 L 1237.6470588235293 836.8935834904296 L 1265.8823529411764 839.4230826775188 L 1294.1176470588234 840.3487038311539 L 1322.3529411764705 840.6200065830815 L 1350.5882352941176 842.5350848319817 L 1378.8235294117646 841.2264480285666 L 1407.0588235294117 843.5883778688769 L 1435.2941176470588 844.5538964860309 L 1463.5294117647059 846.9716827752676 L 1491.764705882353 839.8300368054101 L 1520.0 833.3666477153715" fill="none" stroke="#66ffbd" stroke-width="2" />
<text x="80.0" y="940" text-anchor="middle">08-06</text>
<text x="108.23529411764706" y="940" text-anchor="middle">08-07</text>
<text x="136.47058823529412" y="940" text-anchor="middle">08-08</text>
<text x="164.70588235294116" y="940" text-anchor="middle">08-09</text>
<text x="192.94117647058823" y="940" text-anchor="middle">08-10</text>
<text x="221.1764705882353" y="940" text-anchor="middle">08-11</text>
<text x="249.41176470588235" y="940" text-anchor="middle">08-12</text>
<text x="277.6470588235294" y="940" text-anchor="middle">08-13</text>
<text x="305.88235294117646" y="940" text-anchor="middle">08-14</text>
<text x="334.11764705882354" y="940" text-anchor="middle">08-15</text>
<text x="362.3529411764706" y="940" text-anchor="middle">08-16</text>
<text x="390.5882352941176" y="940" text-anchor="middle">08-17</text>
<text x="418.8235294117647" y="940" text-anchor="middle">08-18</text>
<text x="447.05882352941177" y="940" text-anchor="middle">08-19</text>
<text x="475.2941176470588" y="940" text-anchor="middle">08-20</text>
<text x="503.52941176470586" y="940" text-anchor="middle">08-21</text>
<text x="531.7647058823529" y="940" text-anchor="middle">08-22</text>
<text x="560.0" y="940" text-anchor="middle">08-23</text>
<text x="588.2352941176471" y="940" text-anchor="middle">08-24</text>
<text x="616.4705882352941" y="940" text-anchor="middle">08-25</text>
<text x="644.7058823529412" y="940" text-anchor="middle">08-26</text>
<text x="672.9411764705882" y="940" text-anchor="middle">08-27</text>
<text x="701.1764705882352" y="940" text-anchor="middle">08-28</text>
<text x="729.4117647058823" y="940" text-anchor="middle">08-29</text>
<text x="757.6470588235294" y="940" text-anchor="middle">08-30</text>
<text x="785.8823529411765" y="940" text-anchor="middle">08-31</text>
<text x="814.1176470588235" y="940" text-anchor="middle">09-01</text>
<text x="842.3529411764706" y="940" text-anchor="middle">09-02</text>
<text x="870.5882352941176" y="940" text-anchor="middle">09-03</text>
<text x="898.8235294117646" y="940" text-anchor="middle">09-04</text>
<text x="927.0588235294117" y="940" text-anchor="middle">09-05</text>
<text x="955.2941176470588" y="940" text-anchor="middle">09-06</text>
<text x="983.5294117647059" y="940" text-anchor="middle">09-07</text>
<text x="1011.7647058823529" y="940" text-anchor="middle">09-08</text>
<text x="1040.0" y="940" text-anchor="middle">09-09</text>
<text x="1068.235294117647" y="940" text-anchor="middle">09-10</text>
<text x="1096.4705882352941" y="940" text-anchor="middle">09-11</text>
<text x="1124.7058823529412" y="940" text-anchor="middle">09-12</text>
<text x="1152.9411764705883" y="940" text-anchor="middle">09-13</text>
<text x="1181.1764705882354" y="940" text-anchor="middle">09-14</text>
<text x="1209.4117647058824" y="940" text-anchor="middle">09-15</text>
<text x="1237.6470588235293" y="940" text-anchor="middle">09-16</text>
<text x="1265.8823529411764" y="940" text-anchor="middle">09-17</text>
<text x="1294.1176470588234" y="940" text-anchor="middle">09-18</text>
<text x="1322.3529411764705" y="940" text-anchor="middle">09-19</text>
<text x="1350.5882352941176" y="940" text-anchor="middle">09-20</text>
<text x="1378.8235294117646" y="940" text-anchor="middle">09-21</text>
<text x="1407.0588235294117" y="940" text-anchor="middle">09-22</text>
<text x="1435.2941176470588" y="940" text-anchor="middle">09-23</text>
<text x="1463.5294117647059" y="940" text-anchor="middle">09-24</text>
<text x="1491.764705882353" y="940" text-anchor="middle">09-25</text>
<text x="1520.0" y="940" text-anchor="middle">09-26</text>
<rect x="90" y="100" width="130" height="185" class="legend-box" />
<text x="100" y="120" class="legend-item">图例:</text>
<rect x="100" y="137" width="15" height="15" fill="#1f77b4" rx="3" />
<text x="120" y="145" class="legend-item">构件聚合数据</text>
<rect x="100" y="162" width="15" height="15" fill="#ff7f0e" rx="3" />
<text x="120" y="170" class="legend-item">构件基本信息</text>
<rect x="100" y="187" width="15" height="15" fill="#2ca02c" rx="3" />
<text x="120" y="195" class="legend-item">构件徽标</text>
<rect x="100" y="212" width="15" height="15" fill="#d62728" rx="3" />
<text x="120" y="220" class="legend-item">构件扩展元数据</text>
<rect x="100" y="237" width="15" height="15" fill="#9467bd" rx="3" />
<text x="120" y="245" class="legend-item">构件版本信息</text>
<rect x="100" y="262" width="15" height="15" fill="#66ffbd" rx="3" />
<text x="120" y="270" class="legend-item">数据量偏差</text>
<text x="1520" y="990" text-anchor="end" font-size="10" fill="#666">生成时间: 2025-09-26 00:56:11</text>
</svg>