<svg xmlns="http://www.w3.org/2000/svg" width="1600" height="1000" viewBox="0 0 1600 1000">
<style>
  text {
    font-family: Arial, sans-serif;
    font-size: 12px;
    fill: #333;
  }
  .axis-label { font-size: 14px; }
  .title { font-size: 18px; font-weight: bold; }
  .legend-item { font-size: 11px; }
  .legend-box { fill: white; fill-opacity: 0.85; stroke: #cccccc; stroke-width: 1; rx: 5; }
</style>
<text x="800.0" y="30" text-anchor="middle" class="title">Daily Data Growth Trend</text>
<text x="800.0" y="980" text-anchor="middle" class="axis-label">Date</text>
<g transform="rotate(-90)">
<text x="-500.0" y="20" text-anchor="middle" class="axis-label">Count</text>
</g>
<rect x="0" y="0" width="1600" height="1000" fill="#f8f8f8" />
<line x1="80" y1="920.0" x2="1520" y2="920.0" stroke="#e0e0e0" stroke-width="1" />
<text x="70" y="925.0" text-anchor="end">0</text>
<line x1="80" y1="752.0" x2="1520" y2="752.0" stroke="#e0e0e0" stroke-width="1" />
<text x="70" y="757.0" text-anchor="end">16.9k</text>
<line x1="80" y1="584.0" x2="1520" y2="584.0" stroke="#e0e0e0" stroke-width="1" />
<text x="70" y="589.0" text-anchor="end">33.7k</text>
<line x1="80" y1="416.0" x2="1520" y2="416.0" stroke="#e0e0e0" stroke-width="1" />
<text x="70" y="421.0" text-anchor="end">50.6k</text>
<line x1="80" y1="248.0" x2="1520" y2="248.0" stroke="#e0e0e0" stroke-width="1" />
<text x="70" y="253.0" text-anchor="end">67.5k</text>
<line x1="80" y1="80.0" x2="1520" y2="80.0" stroke="#e0e0e0" stroke-width="1" />
<text x="70" y="85.0" text-anchor="end">84.4k</text>
<line x1="80" y1="80" x2="80" y2="920" stroke="#333333" stroke-width="2" />
<line x1="80" y1="920" x2="1520" y2="920" stroke="#333333" stroke-width="2" />
<circle cx="80.0" cy="920.0" r="4" fill="#1f77b4" />
<circle cx="128.0" cy="871.3292840784626" r="4" fill="#1f77b4" />
<circle cx="176.0" cy="768.182813900229" r="4" fill="#1f77b4" />
<circle cx="224.0" cy="726.6912277208005" r="4" fill="#1f77b4" />
<circle cx="272.0" cy="701.7186099770985" r="4" fill="#1f77b4" />
<circle cx="320.0" cy="689.1825151847057" r="4" fill="#1f77b4" />
<circle cx="368.0" cy="664.2098974410037" r="4" fill="#1f77b4" />
<circle cx="416.0" cy="637.255800059743" r="4" fill="#1f77b4" />
<circle cx="464.0" cy="612.4126257094493" r="4" fill="#1f77b4" />
<circle cx="512.0" cy="592.1597132330976" r="4" fill="#1f77b4" />
<circle cx="560.0" cy="573.6891367121377" r="4" fill="#1f77b4" />
<circle cx="608.0" cy="562.0790600418202" r="4" fill="#1f77b4" />
<circle cx="656.0" cy="550.5884695808026" r="4" fill="#1f77b4" />
<circle cx="704.0" cy="533.3127551528428" r="4" fill="#1f77b4" />
<circle cx="752.0" cy="508.77825350990736" r="4" fill="#1f77b4" />
<circle cx="800.0" cy="482.24235786119687" r="4" fill="#1f77b4" />
<circle cx="848.0" cy="464.6280991735537" r="4" fill="#1f77b4" />
<circle cx="896.0" cy="440.5217564472767" r="4" fill="#1f77b4" />
<circle cx="944.0" cy="430.5645723389425" r="4" fill="#1f77b4" />
<circle cx="992.0" cy="421.39400577516676" r="4" fill="#1f77b4" />
<circle cx="1040.0" cy="401.6688240565568" r="4" fill="#1f77b4" />
<circle cx="1088.0" cy="382.2722294135218" r="4" fill="#1f77b4" />
<circle cx="1136.0" cy="365.09608682664543" r="4" fill="#1f77b4" />
<circle cx="1184.0" cy="341.3880314647017" r="4" fill="#1f77b4" />
<circle cx="1232.0" cy="325.0682067111421" r="4" fill="#1f77b4" />
<circle cx="1280.0" cy="315.0114507617245" r="4" fill="#1f77b4" />
<circle cx="1328.0" cy="303.67021806233197" r="4" fill="#1f77b4" />
<circle cx="1376.0" cy="289.1028577118391" r="4" fill="#1f77b4" />
<circle cx="1424.0" cy="276.4572338942547" r="4" fill="#1f77b4" />
<circle cx="1472.0" cy="265.71343224136217" r="4" fill="#1f77b4" />
<circle cx="1520.0" cy="247.47187095489392" r="4" fill="#1f77b4" />
<path d="M 80.0 920.0 L 128.0 871.3292840784626 L 176.0 768.182813900229 L 224.0 726.6912277208005 L 272.0 701.7186099770985 L 320.0 689.1825151847057 L 368.0 664.2098974410037 L 416.0 637.255800059743 L 464.0 612.4126257094493 L 512.0 592.1597132330976 L 560.0 573.6891367121377 L 608.0 562.0790600418202 L 656.0 550.5884695808026 L 704.0 533.3127551528428 L 752.0 508.77825350990736 L 800.0 482.24235786119687 L 848.0 464.6280991735537 L 896.0 440.5217564472767 L 944.0 430.5645723389425 L 992.0 421.39400577516676 L 1040.0 401.6688240565568 L 1088.0 382.2722294135218 L 1136.0 365.09608682664543 L 1184.0 341.3880314647017 L 1232.0 325.0682067111421 L 1280.0 315.0114507617245 L 1328.0 303.67021806233197 L 1376.0 289.1028577118391 L 1424.0 276.4572338942547 L 1472.0 265.71343224136217 L 1520.0 247.47187095489392" fill="none" stroke="#1f77b4" stroke-width="2" />
<circle cx="80.0" cy="920.0" r="4" fill="#ff7f0e" />
<circle cx="128.0" cy="564.7674997510703" r="4" fill="#ff7f0e" />
<circle cx="176.0" cy="490.6561784327392" r="4" fill="#ff7f0e" />
<circle cx="224.0" cy="466.8883799661456" r="4" fill="#ff7f0e" />
<circle cx="272.0" cy="455.1787314547446" r="4" fill="#ff7f0e" />
<circle cx="320.0" cy="446.01812207507714" r="4" fill="#ff7f0e" />
<circle cx="368.0" cy="429.6883401374091" r="4" fill="#ff7f0e" />
<circle cx="416.0" cy="408.9674400079657" r="4" fill="#ff7f0e" />
<circle cx="464.0" cy="392.438514388131" r="4" fill="#ff7f0e" />
<circle cx="512.0" cy="378.81708652792986" r="4" fill="#ff7f0e" />
<circle cx="560.0" cy="365.0363437219954" r="4" fill="#ff7f0e" />
<circle cx="608.0" cy="357.8372996116698" r="4" fill="#ff7f0e" />
<circle cx="656.0" cy="348.9256198347107" r="4" fill="#ff7f0e" />
<circle cx="704.0" cy="338.78920641242655" r="4" fill="#ff7f0e" />
<circle cx="752.0" cy="325.2275216568754" r="4" fill="#ff7f0e" />
<circle cx="800.0" cy="307.07557502738223" r="4" fill="#ff7f0e" />
<circle cx="848.0" cy="295.4256696206313" r="4" fill="#ff7f0e" />
<circle cx="896.0" cy="280.87822363835505" r="4" fill="#ff7f0e" />
<circle cx="944.0" cy="272.026286966046" r="4" fill="#ff7f0e" />
<circle cx="992.0" cy="264.9666434332371" r="4" fill="#ff7f0e" />
<circle cx="1040.0" cy="248.9256198347107" r="4" fill="#ff7f0e" />
<circle cx="1088.0" cy="235.87175146868458" r="4" fill="#ff7f0e" />
<circle cx="1136.0" cy="220.41820173254996" r="4" fill="#ff7f0e" />
<circle cx="1184.0" cy="200.1453748879817" r="4" fill="#ff7f0e" />
<circle cx="1232.0" cy="187.4798367021806" r="4" fill="#ff7f0e" />
<circle cx="1280.0" cy="172.3648312257293" r="4" fill="#ff7f0e" />
<circle cx="1328.0" cy="168.6109728168874" r="4" fill="#ff7f0e" />
<circle cx="1376.0" cy="155.82594842178628" r="4" fill="#ff7f0e" />
<circle cx="1424.0" cy="147.27272727272725" r="4" fill="#ff7f0e" />
<circle cx="1472.0" cy="139.0879219356766" r="4" fill="#ff7f0e" />
<circle cx="1520.0" cy="123.87334461814191" r="4" fill="#ff7f0e" />
<path d="M 80.0 920.0 L 128.0 564.7674997510703 L 176.0 490.6561784327392 L 224.0 466.8883799661456 L 272.0 455.1787314547446 L 320.0 446.01812207507714 L 368.0 429.6883401374091 L 416.0 408.9674400079657 L 464.0 392.438514388131 L 512.0 378.81708652792986 L 560.0 365.0363437219954 L 608.0 357.8372996116698 L 656.0 348.9256198347107 L 704.0 338.78920641242655 L 752.0 325.2275216568754 L 800.0 307.07557502738223 L 848.0 295.4256696206313 L 896.0 280.87822363835505 L 944.0 272.026286966046 L 992.0 264.9666434332371 L 1040.0 248.9256198347107 L 1088.0 235.87175146868458 L 1136.0 220.41820173254996 L 1184.0 200.1453748879817 L 1232.0 187.4798367021806 L 1280.0 172.3648312257293 L 1328.0 168.6109728168874 L 1376.0 155.82594842178628 L 1424.0 147.27272727272725 L 1472.0 139.0879219356766 L 1520.0 123.87334461814191" fill="none" stroke="#ff7f0e" stroke-width="2" />
<circle cx="80.0" cy="920.0" r="4" fill="#2ca02c" />
<circle cx="128.0" cy="557.7875136911282" r="4" fill="#2ca02c" />
<circle cx="176.0" cy="483.9649507119386" r="4" fill="#2ca02c" />
<circle cx="224.0" cy="460.4261674798367" r="4" fill="#2ca02c" />
<circle cx="272.0" cy="448.89574828238574" r="4" fill="#2ca02c" />
<circle cx="320.0" cy="439.755053270935" r="4" fill="#2ca02c" />
<circle cx="368.0" cy="423.5945434631086" r="4" fill="#2ca02c" />
<circle cx="416.0" cy="403.1424873045902" r="4" fill="#2ca02c" />
<circle cx="464.0" cy="386.80274818281384" r="4" fill="#2ca02c" />
<circle cx="512.0" cy="373.2908493478044" r="4" fill="#2ca02c" />
<circle cx="560.0" cy="359.5798068306283" r="4" fill="#2ca02c" />
<circle cx="608.0" cy="352.49029174549435" r="4" fill="#2ca02c" />
<circle cx="656.0" cy="343.57861196853526" r="4" fill="#2ca02c" />
<circle cx="704.0" cy="333.47207009857607" r="4" fill="#2ca02c" />
<circle cx="752.0" cy="320.209100866275" r="4" fill="#2ca02c" />
<circle cx="800.0" cy="302.4454844170068" r="4" fill="#2ca02c" />
<circle cx="848.0" cy="290.8453649307976" r="4" fill="#2ca02c" />
<circle cx="896.0" cy="276.30787613262964" r="4" fill="#2ca02c" />
<circle cx="944.0" cy="267.44598227621225" r="4" fill="#2ca02c" />
<circle cx="992.0" cy="260.40625311162" r="4" fill="#2ca02c" />
<circle cx="1040.0" cy="244.4747585382853" r="4" fill="#2ca02c" />
<circle cx="1088.0" cy="231.45076172458425" r="4" fill="#2ca02c" />
<circle cx="1136.0" cy="216.01712635666627" r="4" fill="#2ca02c" />
<circle cx="1184.0" cy="195.77417106442294" r="4" fill="#2ca02c" />
<circle cx="1232.0" cy="183.14846161505523" r="4" fill="#2ca02c" />
<circle cx="1280.0" cy="168.04341332271235" r="4" fill="#2ca02c" />
<circle cx="1328.0" cy="164.29951209797866" r="4" fill="#2ca02c" />
<circle cx="1376.0" cy="151.52444488698598" r="4" fill="#2ca02c" />
<circle cx="1424.0" cy="143.0010952902519" r="4" fill="#2ca02c" />
<circle cx="1472.0" cy="134.86607587374283" r="4" fill="#2ca02c" />
<circle cx="1520.0" cy="120.0" r="4" fill="#2ca02c" />
<path d="M 80.0 920.0 L 128.0 557.7875136911282 L 176.0 483.9649507119386 L 224.0 460.4261674798367 L 272.0 448.89574828238574 L 320.0 439.755053270935 L 368.0 423.5945434631086 L 416.0 403.1424873045902 L 464.0 386.80274818281384 L 512.0 373.2908493478044 L 560.0 359.5798068306283 L 608.0 352.49029174549435 L 656.0 343.57861196853526 L 704.0 333.47207009857607 L 752.0 320.209100866275 L 800.0 302.4454844170068 L 848.0 290.8453649307976 L 896.0 276.30787613262964 L 944.0 267.44598227621225 L 992.0 260.40625311162 L 1040.0 244.4747585382853 L 1088.0 231.45076172458425 L 1136.0 216.01712635666627 L 1184.0 195.77417106442294 L 1232.0 183.14846161505523 L 1280.0 168.04341332271235 L 1328.0 164.29951209797866 L 1376.0 151.52444488698598 L 1424.0 143.0010952902519 L 1472.0 134.86607587374283 L 1520.0 120.0" fill="none" stroke="#2ca02c" stroke-width="2" />
<circle cx="80.0" cy="920.0" r="4" fill="#d62728" />
<circle cx="128.0" cy="849.7221945633775" r="4" fill="#d62728" />
<circle cx="176.0" cy="748.009558896744" r="4" fill="#d62728" />
<circle cx="224.0" cy="712.8109130737828" r="4" fill="#d62728" />
<circle cx="272.0" cy="687.8880812506223" r="4" fill="#d62728" />
<circle cx="320.0" cy="675.4615154834213" r="4" fill="#d62728" />
<circle cx="368.0" cy="650.9967141292443" r="4" fill="#d62728" />
<circle cx="416.0" cy="625.2972219456337" r="4" fill="#d62728" />
<circle cx="464.0" cy="601.6389525042318" r="4" fill="#d62728" />
<circle cx="512.0" cy="581.8141989445385" r="4" fill="#d62728" />
<circle cx="560.0" cy="563.4033655282286" r="4" fill="#d62728" />
<circle cx="608.0" cy="551.8132032261276" r="4" fill="#d62728" />
<circle cx="656.0" cy="540.3325699492184" r="4" fill="#d62728" />
<circle cx="704.0" cy="523.9131733545753" r="4" fill="#d62728" />
<circle cx="752.0" cy="499.6674300507816" r="4" fill="#d62728" />
<circle cx="800.0" cy="473.57960768694613" r="4" fill="#d62728" />
<circle cx="848.0" cy="456.801752464403" r="4" fill="#d62728" />
<circle cx="896.0" cy="432.99412526137604" r="4" fill="#d62728" />
<circle cx="944.0" cy="423.0369411530419" r="4" fill="#d62728" />
<circle cx="992.0" cy="413.9659464303495" r="4" fill="#d62728" />
<circle cx="1040.0" cy="394.4797371303396" r="4" fill="#d62728" />
<circle cx="1088.0" cy="376.25809021208795" r="4" fill="#d62728" />
<circle cx="1136.0" cy="359.1516479139699" r="4" fill="#d62728" />
<circle cx="1184.0" cy="335.46350692024293" r="4" fill="#d62728" />
<circle cx="1232.0" cy="319.6813701085333" r="4" fill="#d62728" />
<circle cx="1280.0" cy="309.6246141591158" r="4" fill="#d62728" />
<circle cx="1328.0" cy="298.27342427561484" r="4" fill="#d62728" />
<circle cx="1376.0" cy="283.70606392512195" r="4" fill="#d62728" />
<circle cx="1424.0" cy="271.90680075674595" r="4" fill="#d62728" />
<circle cx="1472.0" cy="261.18291347207" r="4" fill="#d62728" />
<circle cx="1520.0" cy="242.98118092203526" r="4" fill="#d62728" />
<path d="M 80.0 920.0 L 128.0 849.7221945633775 L 176.0 748.009558896744 L 224.0 712.8109130737828 L 272.0 687.8880812506223 L 320.0 675.4615154834213 L 368.0 650.9967141292443 L 416.0 625.2972219456337 L 464.0 601.6389525042318 L 512.0 581.8141989445385 L 560.0 563.4033655282286 L 608.0 551.8132032261276 L 656.0 540.3325699492184 L 704.0 523.9131733545753 L 752.0 499.6674300507816 L 800.0 473.57960768694613 L 848.0 456.801752464403 L 896.0 432.99412526137604 L 944.0 423.0369411530419 L 992.0 413.9659464303495 L 1040.0 394.4797371303396 L 1088.0 376.25809021208795 L 1136.0 359.1516479139699 L 1184.0 335.46350692024293 L 1232.0 319.6813701085333 L 1280.0 309.6246141591158 L 1328.0 298.27342427561484 L 1376.0 283.70606392512195 L 1424.0 271.90680075674595 L 1472.0 261.18291347207 L 1520.0 242.98118092203526" fill="none" stroke="#d62728" stroke-width="2" />
<circle cx="80.0" cy="920.0" r="4" fill="#9467bd" />
<circle cx="128.0" cy="857.1402967240864" r="4" fill="#9467bd" />
<circle cx="176.0" cy="755.0393308772279" r="4" fill="#9467bd" />
<circle cx="224.0" cy="713.6473165388828" r="4" fill="#9467bd" />
<circle cx="272.0" cy="688.6448272428557" r="4" fill="#9467bd" />
<circle cx="320.0" cy="677.4927810415214" r="4" fill="#9467bd" />
<circle cx="368.0" cy="652.8188788210693" r="4" fill="#9467bd" />
<circle cx="416.0" cy="625.9344817285671" r="4" fill="#9467bd" />
<circle cx="464.0" cy="601.6090809519068" r="4" fill="#9467bd" />
<circle cx="512.0" cy="581.5652693418301" r="4" fill="#9467bd" />
<circle cx="560.0" cy="563.3635367917952" r="4" fill="#9467bd" />
<circle cx="608.0" cy="551.763417305586" r="4" fill="#9467bd" />
<circle cx="656.0" cy="540.2031265558101" r="4" fill="#9467bd" />
<circle cx="704.0" cy="523.0269839689336" r="4" fill="#9467bd" />
<circle cx="752.0" cy="498.9604699790899" r="4" fill="#9467bd" />
<circle cx="800.0" cy="472.36483122572935" r="4" fill="#9467bd" />
<circle cx="848.0" cy="455.1289455342029" r="4" fill="#9467bd" />
<circle cx="896.0" cy="434.4379169570845" r="4" fill="#9467bd" />
<circle cx="944.0" cy="424.470775664642" r="4" fill="#9467bd" />
<circle cx="992.0" cy="415.30020910086625" r="4" fill="#9467bd" />
<circle cx="1040.0" cy="395.5252414617146" r="4" fill="#9467bd" />
<circle cx="1088.0" cy="376.73603504928803" r="4" fill="#9467bd" />
<circle cx="1136.0" cy="359.6495071193866" r="4" fill="#9467bd" />
<circle cx="1184.0" cy="335.8717514686847" r="4" fill="#9467bd" />
<circle cx="1232.0" cy="319.86059942248335" r="4" fill="#9467bd" />
<circle cx="1280.0" cy="309.8337150253908" r="4" fill="#9467bd" />
<circle cx="1328.0" cy="298.4825251418898" r="4" fill="#9467bd" />
<circle cx="1376.0" cy="283.8952504231803" r="4" fill="#9467bd" />
<circle cx="1424.0" cy="271.7076570745793" r="4" fill="#9467bd" />
<circle cx="1472.0" cy="260.98376978990336" r="4" fill="#9467bd" />
<circle cx="1520.0" cy="243.03096684257685" r="4" fill="#9467bd" />
<path d="M 80.0 920.0 L 128.0 857.1402967240864 L 176.0 755.0393308772279 L 224.0 713.6473165388828 L 272.0 688.6448272428557 L 320.0 677.4927810415214 L 368.0 652.8188788210693 L 416.0 625.9344817285671 L 464.0 601.6090809519068 L 512.0 581.5652693418301 L 560.0 563.3635367917952 L 608.0 551.763417305586 L 656.0 540.2031265558101 L 704.0 523.0269839689336 L 752.0 498.9604699790899 L 800.0 472.36483122572935 L 848.0 455.1289455342029 L 896.0 434.4379169570845 L 944.0 424.470775664642 L 992.0 415.30020910086625 L 1040.0 395.5252414617146 L 1088.0 376.73603504928803 L 1136.0 359.6495071193866 L 1184.0 335.8717514686847 L 1232.0 319.86059942248335 L 1280.0 309.8337150253908 L 1328.0 298.4825251418898 L 1376.0 283.8952504231803 L 1424.0 271.7076570745793 L 1472.0 260.98376978990336 L 1520.0 243.03096684257685" fill="none" stroke="#9467bd" stroke-width="2" />
<circle cx="80.0" cy="920.0" r="4" fill="#66ffbd" />
<circle cx="128.0" cy="606.4582296126655" r="4" fill="#66ffbd" />
<circle cx="176.0" cy="635.7821368117096" r="4" fill="#66ffbd" />
<circle cx="224.0" cy="653.7349397590361" r="4" fill="#66ffbd" />
<circle cx="272.0" cy="667.1771383052873" r="4" fill="#66ffbd" />
<circle cx="320.0" cy="670.5725380862292" r="4" fill="#66ffbd" />
<circle cx="368.0" cy="679.3846460221049" r="4" fill="#66ffbd" />
<circle cx="416.0" cy="685.8866872448472" r="4" fill="#66ffbd" />
<circle cx="464.0" cy="694.3901224733645" r="4" fill="#66ffbd" />
<circle cx="512.0" cy="701.1311361147068" r="4" fill="#66ffbd" />
<circle cx="560.0" cy="705.8906701184904" r="4" fill="#66ffbd" />
<circle cx="608.0" cy="710.4112317036742" r="4" fill="#66ffbd" />
<circle cx="656.0" cy="712.9901423877327" r="4" fill="#66ffbd" />
<circle cx="704.0" cy="720.1593149457333" r="4" fill="#66ffbd" />
<circle cx="752.0" cy="731.4308473563676" r="4" fill="#66ffbd" />
<circle cx="800.0" cy="740.2031265558101" r="4" fill="#66ffbd" />
<circle cx="848.0" cy="746.2172657572438" r="4" fill="#66ffbd" />
<circle cx="896.0" cy="755.786119685353" r="4" fill="#66ffbd" />
<circle cx="944.0" cy="756.8814099372697" r="4" fill="#66ffbd" />
<circle cx="992.0" cy="759.0122473364532" r="4" fill="#66ffbd" />
<circle cx="1040.0" cy="762.8059344817286" r="4" fill="#66ffbd" />
<circle cx="1088.0" cy="769.1785323110624" r="4" fill="#66ffbd" />
<circle cx="1136.0" cy="770.9210395300208" r="4" fill="#66ffbd" />
<circle cx="1184.0" cy="774.3861395997212" r="4" fill="#66ffbd" />
<circle cx="1232.0" cy="778.0802549039131" r="4" fill="#66ffbd" />
<circle cx="1280.0" cy="773.0319625609877" r="4" fill="#66ffbd" />
<circle cx="1328.0" cy="780.6292940356467" r="4" fill="#66ffbd" />
<circle cx="1376.0" cy="782.4215871751469" r="4" fill="#66ffbd" />
<circle cx="1424.0" cy="786.5438613959972" r="4" fill="#66ffbd" />
<circle cx="1472.0" cy="789.1526436323808" r="4" fill="#66ffbd" />
<circle cx="1520.0" cy="792.5281290451061" r="4" fill="#66ffbd" />
<path d="M 80.0 920.0 L 128.0 606.4582296126655 L 176.0 635.7821368117096 L 224.0 653.7349397590361 L 272.0 667.1771383052873 L 320.0 670.5725380862292 L 368.0 679.3846460221049 L 416.0 685.8866872448472 L 464.0 694.3901224733645 L 512.0 701.1311361147068 L 560.0 705.8906701184904 L 608.0 710.4112317036742 L 656.0 712.9901423877327 L 704.0 720.1593149457333 L 752.0 731.4308473563676 L 800.0 740.2031265558101 L 848.0 746.2172657572438 L 896.0 755.786119685353 L 944.0 756.8814099372697 L 992.0 759.0122473364532 L 1040.0 762.8059344817286 L 1088.0 769.1785323110624 L 1136.0 770.9210395300208 L 1184.0 774.3861395997212 L 1232.0 778.0802549039131 L 1280.0 773.0319625609877 L 1328.0 780.6292940356467 L 1376.0 782.4215871751469 L 1424.0 786.5438613959972 L 1472.0 789.1526436323808 L 1520.0 792.5281290451061" fill="none" stroke="#66ffbd" stroke-width="2" />
<text x="80.0" y="940" text-anchor="middle">08-06</text>
<text x="128.0" y="940" text-anchor="middle">08-07</text>
<text x="176.0" y="940" text-anchor="middle">08-08</text>
<text x="224.0" y="940" text-anchor="middle">08-09</text>
<text x="272.0" y="940" text-anchor="middle">08-10</text>
<text x="320.0" y="940" text-anchor="middle">08-11</text>
<text x="368.0" y="940" text-anchor="middle">08-12</text>
<text x="416.0" y="940" text-anchor="middle">08-13</text>
<text x="464.0" y="940" text-anchor="middle">08-14</text>
<text x="512.0" y="940" text-anchor="middle">08-15</text>
<text x="560.0" y="940" text-anchor="middle">08-16</text>
<text x="608.0" y="940" text-anchor="middle">08-17</text>
<text x="656.0" y="940" text-anchor="middle">08-18</text>
<text x="704.0" y="940" text-anchor="middle">08-19</text>
<text x="752.0" y="940" text-anchor="middle">08-20</text>
<text x="800.0" y="940" text-anchor="middle">08-21</text>
<text x="848.0" y="940" text-anchor="middle">08-22</text>
<text x="896.0" y="940" text-anchor="middle">08-23</text>
<text x="944.0" y="940" text-anchor="middle">08-24</text>
<text x="992.0" y="940" text-anchor="middle">08-25</text>
<text x="1040.0" y="940" text-anchor="middle">08-26</text>
<text x="1088.0" y="940" text-anchor="middle">08-27</text>
<text x="1136.0" y="940" text-anchor="middle">08-28</text>
<text x="1184.0" y="940" text-anchor="middle">08-29</text>
<text x="1232.0" y="940" text-anchor="middle">08-30</text>
<text x="1280.0" y="940" text-anchor="middle">08-31</text>
<text x="1328.0" y="940" text-anchor="middle">09-01</text>
<text x="1376.0" y="940" text-anchor="middle">09-02</text>
<text x="1424.0" y="940" text-anchor="middle">09-03</text>
<text x="1472.0" y="940" text-anchor="middle">09-04</text>
<text x="1520.0" y="940" text-anchor="middle">09-05</text>
<rect x="90" y="100" width="130" height="185" class="legend-box" />
<text x="100" y="120" class="legend-item">图例:</text>
<rect x="100" y="137" width="15" height="15" fill="#1f77b4" rx="3" />
<text x="120" y="145" class="legend-item">构件聚合数据</text>
<rect x="100" y="162" width="15" height="15" fill="#ff7f0e" rx="3" />
<text x="120" y="170" class="legend-item">构件基本信息</text>
<rect x="100" y="187" width="15" height="15" fill="#2ca02c" rx="3" />
<text x="120" y="195" class="legend-item">构件徽标</text>
<rect x="100" y="212" width="15" height="15" fill="#d62728" rx="3" />
<text x="120" y="220" class="legend-item">构件扩展元数据</text>
<rect x="100" y="237" width="15" height="15" fill="#9467bd" rx="3" />
<text x="120" y="245" class="legend-item">构件版本信息</text>
<rect x="100" y="262" width="15" height="15" fill="#66ffbd" rx="3" />
<text x="120" y="270" class="legend-item">数据量偏差</text>
<text x="1520" y="990" text-anchor="end" font-size="10" fill="#666">生成时间: 2025-09-05 12:26:00</text>
</svg>