<svg xmlns="http://www.w3.org/2000/svg" width="1600" height="1000" viewBox="0 0 1600 1000">
<style>
  text {
    font-family: Arial, sans-serif;
    font-size: 12px;
    fill: #333;
  }
  .axis-label { font-size: 14px; }
  .title { font-size: 18px; font-weight: bold; }
  .legend-item { font-size: 11px; }
  .legend-box { fill: white; fill-opacity: 0.85; stroke: #cccccc; stroke-width: 1; rx: 5; }
</style>
<text x="800.0" y="30" text-anchor="middle" class="title">Daily Data Growth Trend</text>
<text x="800.0" y="980" text-anchor="middle" class="axis-label">Date</text>
<g transform="rotate(-90)">
<text x="-500.0" y="20" text-anchor="middle" class="axis-label">Count</text>
</g>
<rect x="0" y="0" width="1600" height="1000" fill="#f8f8f8" />
<line x1="80" y1="920.0" x2="1520" y2="920.0" stroke="#e0e0e0" stroke-width="1" />
<text x="70" y="925.0" text-anchor="end">0</text>
<line x1="80" y1="752.0" x2="1520" y2="752.0" stroke="#e0e0e0" stroke-width="1" />
<text x="70" y="757.0" text-anchor="end">16.2k</text>
<line x1="80" y1="584.0" x2="1520" y2="584.0" stroke="#e0e0e0" stroke-width="1" />
<text x="70" y="589.0" text-anchor="end">32.4k</text>
<line x1="80" y1="416.0" x2="1520" y2="416.0" stroke="#e0e0e0" stroke-width="1" />
<text x="70" y="421.0" text-anchor="end">48.6k</text>
<line x1="80" y1="248.0" x2="1520" y2="248.0" stroke="#e0e0e0" stroke-width="1" />
<text x="70" y="253.0" text-anchor="end">64.8k</text>
<line x1="80" y1="80.0" x2="1520" y2="80.0" stroke="#e0e0e0" stroke-width="1" />
<text x="70" y="85.0" text-anchor="end">81.0k</text>
<line x1="80" y1="80" x2="80" y2="920" stroke="#333333" stroke-width="2" />
<line x1="80" y1="920" x2="1520" y2="920" stroke="#333333" stroke-width="2" />
<circle cx="80.0" cy="920.0" r="4" fill="#1f77b4" />
<circle cx="133.33333333333334" cy="869.3327113944389" r="4" fill="#1f77b4" />
<circle cx="186.66666666666669" cy="761.9549612583897" r="4" fill="#1f77b4" />
<circle cx="240.0" cy="718.7613050351137" r="4" fill="#1f77b4" />
<circle cx="293.33333333333337" cy="692.7642592448626" r="4" fill="#1f77b4" />
<circle cx="346.6666666666667" cy="679.7139081085284" r="4" fill="#1f77b4" />
<circle cx="400.0" cy="653.7168623182772" r="4" fill="#1f77b4" />
<circle cx="453.33333333333337" cy="625.6570525279225" r="4" fill="#1f77b4" />
<circle cx="506.6666666666667" cy="599.7947601648139" r="4" fill="#1f77b4" />
<circle cx="560.0" cy="578.7110316411413" r="4" fill="#1f77b4" />
<circle cx="613.3333333333334" cy="559.4827541527379" r="4" fill="#1f77b4" />
<circle cx="666.6666666666667" cy="547.3964083028843" r="4" fill="#1f77b4" />
<circle cx="720.0" cy="535.4344502319314" r="4" fill="#1f77b4" />
<circle cx="773.3333333333334" cy="517.4500505325352" r="4" fill="#1f77b4" />
<circle cx="826.6666666666667" cy="491.9090932649201" r="4" fill="#1f77b4" />
<circle cx="880.0" cy="464.2846407007179" r="4" fill="#1f77b4" />
<circle cx="933.3333333333334" cy="445.94780896110296" r="4" fill="#1f77b4" />
<circle cx="986.6666666666667" cy="420.8525745678821" r="4" fill="#1f77b4" />
<circle cx="1040.0" cy="410.4869263261552" r="4" fill="#1f77b4" />
<circle cx="1093.3333333333335" cy="400.9401642955247" r="4" fill="#1f77b4" />
<circle cx="1146.6666666666667" cy="380.4058151286637" r="4" fill="#1f77b4" />
<circle cx="1200.0" cy="360.21353235377967" r="4" fill="#1f77b4" />
<circle cx="1253.3333333333335" cy="342.33278913680067" r="4" fill="#1f77b4" />
<circle cx="1306.6666666666667" cy="317.65218067324895" r="4" fill="#1f77b4" />
<circle cx="1360.0" cy="300.6628832050585" r="4" fill="#1f77b4" />
<circle cx="1413.3333333333335" cy="290.1935784809143" r="4" fill="#1f77b4" />
<circle cx="1466.6666666666667" cy="278.3871051335874" r="4" fill="#1f77b4" />
<circle cx="1520.0" cy="263.2221617559409" r="4" fill="#1f77b4" />
<path d="M 80.0 920.0 L 133.33333333333334 869.3327113944389 L 186.66666666666669 761.9549612583897 L 240.0 718.7613050351137 L 293.33333333333337 692.7642592448626 L 346.6666666666667 679.7139081085284 L 400.0 653.7168623182772 L 453.33333333333337 625.6570525279225 L 506.6666666666667 599.7947601648139 L 560.0 578.7110316411413 L 613.3333333333334 559.4827541527379 L 666.6666666666667 547.3964083028843 L 720.0 535.4344502319314 L 773.3333333333334 517.4500505325352 L 826.6666666666667 491.9090932649201 L 880.0 464.2846407007179 L 933.3333333333334 445.94780896110296 L 986.6666666666667 420.8525745678821 L 1040.0 410.4869263261552 L 1093.3333333333335 400.9401642955247 L 1146.6666666666667 380.4058151286637 L 1200.0 360.21353235377967 L 1253.3333333333335 342.33278913680067 L 1306.6666666666667 317.65218067324895 L 1360.0 300.6628832050585 L 1413.3333333333335 290.1935784809143 L 1466.6666666666667 278.3871051335874 L 1520.0 263.2221617559409" fill="none" stroke="#1f77b4" stroke-width="2" />
<circle cx="80.0" cy="920.0" r="4" fill="#ff7f0e" />
<circle cx="133.33333333333334" cy="550.1951333281506" r="4" fill="#ff7f0e" />
<circle cx="186.66666666666669" cy="473.0436134649771" r="4" fill="#ff7f0e" />
<circle cx="240.0" cy="448.30081111197495" r="4" fill="#ff7f0e" />
<circle cx="293.33333333333337" cy="436.1108087797041" r="4" fill="#ff7f0e" />
<circle cx="346.6666666666667" cy="426.57441239731537" r="4" fill="#ff7f0e" />
<circle cx="400.0" cy="409.5747492808832" r="4" fill="#ff7f0e" />
<circle cx="453.33333333333337" cy="388.00383528984946" r="4" fill="#ff7f0e" />
<circle cx="506.6666666666667" cy="370.79685920858276" r="4" fill="#ff7f0e" />
<circle cx="560.0" cy="356.6166524139004" r="4" fill="#ff7f0e" />
<circle cx="613.3333333333334" cy="342.27059524735034" r="4" fill="#ff7f0e" />
<circle cx="666.6666666666667" cy="334.7762315685818" r="4" fill="#ff7f0e" />
<circle cx="720.0" cy="325.49897639223616" r="4" fill="#ff7f0e" />
<circle cx="773.3333333333334" cy="314.94674648215823" r="4" fill="#ff7f0e" />
<circle cx="826.6666666666667" cy="300.8287335769261" r="4" fill="#ff7f0e" />
<circle cx="880.0" cy="281.932156832258" r="4" fill="#ff7f0e" />
<circle cx="933.3333333333334" cy="269.80434838943745" r="4" fill="#ff7f0e" />
<circle cx="986.6666666666667" cy="254.66013630827445" r="4" fill="#ff7f0e" />
<circle cx="1040.0" cy="245.44507502137924" r="4" fill="#ff7f0e" />
<circle cx="1093.3333333333335" cy="238.09583041799488" r="4" fill="#ff7f0e" />
<circle cx="1146.6666666666667" cy="221.39677110057278" r="4" fill="#ff7f0e" />
<circle cx="1200.0" cy="207.80740625566875" r="4" fill="#ff7f0e" />
<circle cx="1253.3333333333335" cy="191.71992018450862" r="4" fill="#ff7f0e" />
<circle cx="1306.6666666666667" cy="170.61546036435266" r="4" fill="#ff7f0e" />
<circle cx="1360.0" cy="157.430355800876" r="4" fill="#ff7f0e" />
<circle cx="1413.3333333333335" cy="141.69530176993453" r="4" fill="#ff7f0e" />
<circle cx="1466.6666666666667" cy="137.7874523828035" r="4" fill="#ff7f0e" />
<circle cx="1520.0" cy="124.47796004042607" r="4" fill="#ff7f0e" />
<path d="M 80.0 920.0 L 133.33333333333334 550.1951333281506 L 186.66666666666669 473.0436134649771 L 240.0 448.30081111197495 L 293.33333333333337 436.1108087797041 L 346.6666666666667 426.57441239731537 L 400.0 409.5747492808832 L 453.33333333333337 388.00383528984946 L 506.6666666666667 370.79685920858276 L 560.0 356.6166524139004 L 613.3333333333334 342.27059524735034 L 666.6666666666667 334.7762315685818 L 720.0 325.49897639223616 L 773.3333333333334 314.94674648215823 L 826.6666666666667 300.8287335769261 L 880.0 281.932156832258 L 933.3333333333334 269.80434838943745 L 986.6666666666667 254.66013630827445 L 1040.0 245.44507502137924 L 1093.3333333333335 238.09583041799488 L 1146.6666666666667 221.39677110057278 L 1200.0 207.80740625566875 L 1253.3333333333335 191.71992018450862 L 1306.6666666666667 170.61546036435266 L 1360.0 157.430355800876 L 1413.3333333333335 141.69530176993453 L 1466.6666666666667 137.7874523828035 L 1520.0 124.47796004042607" fill="none" stroke="#ff7f0e" stroke-width="2" />
<circle cx="80.0" cy="920.0" r="4" fill="#2ca02c" />
<circle cx="133.33333333333334" cy="542.9288139107" r="4" fill="#2ca02c" />
<circle cx="186.66666666666669" cy="466.07789784653664" r="4" fill="#2ca02c" />
<circle cx="240.0" cy="441.5735054030942" r="4" fill="#2ca02c" />
<circle cx="293.33333333333337" cy="429.57008473917443" r="4" fill="#2ca02c" />
<circle cx="346.6666666666667" cy="420.0544196532691" r="4" fill="#2ca02c" />
<circle cx="400.0" cy="403.2309725569463" r="4" fill="#2ca02c" />
<circle cx="453.33333333333337" cy="381.93993106843925" r="4" fill="#2ca02c" />
<circle cx="506.6666666666667" cy="364.9299023037654" r="4" fill="#2ca02c" />
<circle cx="560.0" cy="350.86371763974194" r="4" fill="#2ca02c" />
<circle cx="613.3333333333334" cy="336.59022001088397" r="4" fill="#2ca02c" />
<circle cx="666.6666666666667" cy="329.20987846277444" r="4" fill="#2ca02c" />
<circle cx="720.0" cy="319.9326232864288" r="4" fill="#2ca02c" />
<circle cx="773.3333333333334" cy="309.41149032107603" r="4" fill="#2ca02c" />
<circle cx="826.6666666666667" cy="295.60444686309575" r="4" fill="#2ca02c" />
<circle cx="880.0" cy="277.112130399855" r="4" fill="#2ca02c" />
<circle cx="933.3333333333334" cy="265.03615019824315" r="4" fill="#2ca02c" />
<circle cx="986.6666666666667" cy="249.9023037653218" r="4" fill="#2ca02c" />
<circle cx="1040.0" cy="240.67687683018482" r="4" fill="#2ca02c" />
<circle cx="1093.3333333333335" cy="233.34836352328387" r="4" fill="#2ca02c" />
<circle cx="1146.6666666666667" cy="216.7633263365209" r="4" fill="#2ca02c" />
<circle cx="1200.0" cy="203.20505843634203" r="4" fill="#2ca02c" />
<circle cx="1253.3333333333335" cy="187.1383036616653" r="4" fill="#2ca02c" />
<circle cx="1306.6666666666667" cy="166.0649407862345" r="4" fill="#2ca02c" />
<circle cx="1360.0" cy="152.92129881572475" r="4" fill="#2ca02c" />
<circle cx="1413.3333333333335" cy="137.19661043302506" r="4" fill="#2ca02c" />
<circle cx="1466.6666666666667" cy="133.29912669413568" r="4" fill="#2ca02c" />
<circle cx="1520.0" cy="120.00000000000011" r="4" fill="#2ca02c" />
<path d="M 80.0 920.0 L 133.33333333333334 542.9288139107 L 186.66666666666669 466.07789784653664 L 240.0 441.5735054030942 L 293.33333333333337 429.57008473917443 L 346.6666666666667 420.0544196532691 L 400.0 403.2309725569463 L 453.33333333333337 381.93993106843925 L 506.6666666666667 364.9299023037654 L 560.0 350.86371763974194 L 613.3333333333334 336.59022001088397 L 666.6666666666667 329.20987846277444 L 720.0 319.9326232864288 L 773.3333333333334 309.41149032107603 L 826.6666666666667 295.60444686309575 L 880.0 277.112130399855 L 933.3333333333334 265.03615019824315 L 986.6666666666667 249.9023037653218 L 1040.0 240.67687683018482 L 1093.3333333333335 233.34836352328387 L 1146.6666666666667 216.7633263365209 L 1200.0 203.20505843634203 L 1253.3333333333335 187.1383036616653 L 1306.6666666666667 166.0649407862345 L 1360.0 152.92129881572475 L 1413.3333333333335 137.19661043302506 L 1466.6666666666667 133.29912669413568 L 1520.0 120.00000000000011" fill="none" stroke="#2ca02c" stroke-width="2" />
<circle cx="80.0" cy="920.0" r="4" fill="#d62728" />
<circle cx="133.33333333333334" cy="846.8392547098914" r="4" fill="#d62728" />
<circle cx="186.66666666666669" cy="740.9541579206509" r="4" fill="#d62728" />
<circle cx="240.0" cy="704.3115913861463" r="4" fill="#d62728" />
<circle cx="293.33333333333337" cy="678.3663738371039" r="4" fill="#d62728" />
<circle cx="346.6666666666667" cy="665.4300448314286" r="4" fill="#d62728" />
<circle cx="400.0" cy="639.9616471015056" r="4" fill="#d62728" />
<circle cx="453.33333333333337" cy="613.2079089896085" r="4" fill="#d62728" />
<circle cx="506.6666666666667" cy="588.5791287672653" r="4" fill="#d62728" />
<circle cx="560.0" cy="567.941123117987" r="4" fill="#d62728" />
<circle cx="613.3333333333334" cy="548.775039519034" r="4" fill="#d62728" />
<circle cx="666.6666666666667" cy="536.7094249656639" r="4" fill="#d62728" />
<circle cx="720.0" cy="524.7578325429527" r="4" fill="#d62728" />
<circle cx="773.3333333333334" cy="507.664878592345" r="4" fill="#d62728" />
<circle cx="826.6666666666667" cy="482.42452512373995" r="4" fill="#d62728" />
<circle cx="880.0" cy="455.2665267304155" r="4" fill="#d62728" />
<circle cx="933.3333333333334" cy="437.8004094431056" r="4" fill="#d62728" />
<circle cx="986.6666666666667" cy="413.01614449713657" r="4" fill="#d62728" />
<circle cx="1040.0" cy="402.6504962554096" r="4" fill="#d62728" />
<circle cx="1093.3333333333335" cy="393.2073907071964" r="4" fill="#d62728" />
<circle cx="1146.6666666666667" cy="372.9218170981368" r="4" fill="#d62728" />
<circle cx="1200.0" cy="353.9526808157766" r="4" fill="#d62728" />
<circle cx="1253.3333333333335" cy="336.1444971364897" r="4" fill="#d62728" />
<circle cx="1306.6666666666667" cy="311.4846199694214" r="4" fill="#d62728" />
<circle cx="1360.0" cy="295.0550675062842" r="4" fill="#d62728" />
<circle cx="1413.3333333333335" cy="284.58576278214" r="4" fill="#d62728" />
<circle cx="1466.6666666666667" cy="272.76892378657135" r="4" fill="#d62728" />
<circle cx="1520.0" cy="257.60398040892494" r="4" fill="#d62728" />
<path d="M 80.0 920.0 L 133.33333333333334 846.8392547098914 L 186.66666666666669 740.9541579206509 L 240.0 704.3115913861463 L 293.33333333333337 678.3663738371039 L 346.6666666666667 665.4300448314286 L 400.0 639.9616471015056 L 453.33333333333337 613.2079089896085 L 506.6666666666667 588.5791287672653 L 560.0 567.941123117987 L 613.3333333333334 548.775039519034 L 666.6666666666667 536.7094249656639 L 720.0 524.7578325429527 L 773.3333333333334 507.664878592345 L 826.6666666666667 482.42452512373995 L 880.0 455.2665267304155 L 933.3333333333334 437.8004094431056 L 986.6666666666667 413.01614449713657 L 1040.0 402.6504962554096 L 1093.3333333333335 393.2073907071964 L 1146.6666666666667 372.9218170981368 L 1200.0 353.9526808157766 L 1253.3333333333335 336.1444971364897 L 1306.6666666666667 311.4846199694214 L 1360.0 295.0550675062842 L 1413.3333333333335 284.58576278214 L 1466.6666666666667 272.76892378657135 L 1520.0 257.60398040892494" fill="none" stroke="#d62728" stroke-width="2" />
<circle cx="80.0" cy="920.0" r="4" fill="#9467bd" />
<circle cx="133.33333333333334" cy="854.561662649978" r="4" fill="#9467bd" />
<circle cx="186.66666666666669" cy="748.2723055793101" r="4" fill="#9467bd" />
<circle cx="240.0" cy="705.1823058384514" r="4" fill="#9467bd" />
<circle cx="293.33333333333337" cy="679.1541631034751" r="4" fill="#9467bd" />
<circle cx="346.6666666666667" cy="667.5446370727409" r="4" fill="#9467bd" />
<circle cx="400.0" cy="641.8585607297416" r="4" fill="#9467bd" />
<circle cx="453.33333333333337" cy="613.8713104770791" r="4" fill="#9467bd" />
<circle cx="506.6666666666667" cy="588.5480318225401" r="4" fill="#9467bd" />
<circle cx="560.0" cy="567.6819819119439" r="4" fill="#9467bd" />
<circle cx="613.3333333333334" cy="548.733576926067" r="4" fill="#9467bd" />
<circle cx="666.6666666666667" cy="536.6575967244552" r="4" fill="#9467bd" />
<circle cx="720.0" cy="524.6230791158102" r="4" fill="#9467bd" />
<circle cx="773.3333333333334" cy="506.7423358988313" r="4" fill="#9467bd" />
<circle cx="826.6666666666667" cy="481.6885640985774" r="4" fill="#9467bd" />
<circle cx="880.0" cy="454.0019176449248" r="4" fill="#9467bd" />
<circle cx="933.3333333333334" cy="436.05898053849546" r="4" fill="#9467bd" />
<circle cx="986.6666666666667" cy="414.5191634921869" r="4" fill="#9467bd" />
<circle cx="1040.0" cy="404.1431496022183" r="4" fill="#9467bd" />
<circle cx="1093.3333333333335" cy="394.5963875715878" r="4" fill="#9467bd" />
<circle cx="1146.6666666666667" cy="374.0102101635182" r="4" fill="#9467bd" />
<circle cx="1200.0" cy="354.45023193137945" r="4" fill="#9467bd" />
<circle cx="1253.3333333333335" cy="336.66277954857605" r="4" fill="#9467bd" />
<circle cx="1306.6666666666667" cy="311.90961154733225" r="4" fill="#9467bd" />
<circle cx="1360.0" cy="295.2416491746353" r="4" fill="#9467bd" />
<circle cx="1413.3333333333335" cy="284.8034413952163" r="4" fill="#9467bd" />
<circle cx="1466.6666666666667" cy="272.9866023996476" r="4" fill="#9467bd" />
<circle cx="1520.0" cy="257.8009277255177" r="4" fill="#9467bd" />
<path d="M 80.0 920.0 L 133.33333333333334 854.561662649978 L 186.66666666666669 748.2723055793101 L 240.0 705.1823058384514 L 293.33333333333337 679.1541631034751 L 346.6666666666667 667.5446370727409 L 400.0 641.8585607297416 L 453.33333333333337 613.8713104770791 L 506.6666666666667 588.5480318225401 L 560.0 567.6819819119439 L 613.3333333333334 548.733576926067 L 666.6666666666667 536.6575967244552 L 720.0 524.6230791158102 L 773.3333333333334 506.7423358988313 L 826.6666666666667 481.6885640985774 L 880.0 454.0019176449248 L 933.3333333333334 436.05898053849546 L 986.6666666666667 414.5191634921869 L 1040.0 404.1431496022183 L 1093.3333333333335 394.5963875715878 L 1146.6666666666667 374.0102101635182 L 1200.0 354.45023193137945 L 1253.3333333333335 336.66277954857605 L 1306.6666666666667 311.90961154733225 L 1360.0 295.2416491746353 L 1413.3333333333335 284.8034413952163 L 1466.6666666666667 272.9866023996476 L 1520.0 257.8009277255177" fill="none" stroke="#9467bd" stroke-width="2" />
<circle cx="80.0" cy="920.0" r="4" fill="#66ffbd" />
<circle cx="133.33333333333334" cy="593.5961025162612" r="4" fill="#66ffbd" />
<circle cx="186.66666666666669" cy="624.1229365881469" r="4" fill="#66ffbd" />
<circle cx="240.0" cy="642.8122003679805" r="4" fill="#66ffbd" />
<circle cx="293.33333333333337" cy="656.8058254943119" r="4" fill="#66ffbd" />
<circle cx="346.6666666666667" cy="660.3405115447408" r="4" fill="#66ffbd" />
<circle cx="400.0" cy="669.5141102386691" r="4" fill="#66ffbd" />
<circle cx="453.33333333333337" cy="676.2828785405168" r="4" fill="#66ffbd" />
<circle cx="506.6666666666667" cy="685.1351421389516" r="4" fill="#66ffbd" />
<circle cx="560.0" cy="692.1526859986006" r="4" fill="#66ffbd" />
<circle cx="613.3333333333334" cy="697.1074658581462" r="4" fill="#66ffbd" />
<circle cx="666.6666666666667" cy="701.8134701598901" r="4" fill="#66ffbd" />
<circle cx="720.0" cy="704.4981730544974" r="4" fill="#66ffbd" />
<circle cx="773.3333333333334" cy="711.9614397885408" r="4" fill="#66ffbd" />
<circle cx="826.6666666666667" cy="723.6953535981756" r="4" fill="#66ffbd" />
<circle cx="880.0" cy="732.8274896991371" r="4" fill="#66ffbd" />
<circle cx="933.3333333333334" cy="739.0883412371402" r="4" fill="#66ffbd" />
<circle cx="986.6666666666667" cy="749.0497291974398" r="4" fill="#66ffbd" />
<circle cx="1040.0" cy="750.1899505040296" r="4" fill="#66ffbd" />
<circle cx="1093.3333333333335" cy="752.4081992277593" r="4" fill="#66ffbd" />
<circle cx="1146.6666666666667" cy="756.3575112078572" r="4" fill="#66ffbd" />
<circle cx="1200.0" cy="762.9915260825624" r="4" fill="#66ffbd" />
<circle cx="1253.3333333333335" cy="764.8055145248646" r="4" fill="#66ffbd" />
<circle cx="1306.6666666666667" cy="768.4127601129856" r="4" fill="#66ffbd" />
<circle cx="1360.0" cy="772.2584156106662" r="4" fill="#66ffbd" />
<circle cx="1413.3333333333335" cy="767.0030319521107" r="4" fill="#66ffbd" />
<circle cx="1466.6666666666667" cy="774.9120215605484" r="4" fill="#66ffbd" />
<circle cx="1520.0" cy="776.7778382440592" r="4" fill="#66ffbd" />
<path d="M 80.0 920.0 L 133.33333333333334 593.5961025162612 L 186.66666666666669 624.1229365881469 L 240.0 642.8122003679805 L 293.33333333333337 656.8058254943119 L 346.6666666666667 660.3405115447408 L 400.0 669.5141102386691 L 453.33333333333337 676.2828785405168 L 506.6666666666667 685.1351421389516 L 560.0 692.1526859986006 L 613.3333333333334 697.1074658581462 L 666.6666666666667 701.8134701598901 L 720.0 704.4981730544974 L 773.3333333333334 711.9614397885408 L 826.6666666666667 723.6953535981756 L 880.0 732.8274896991371 L 933.3333333333334 739.0883412371402 L 986.6666666666667 749.0497291974398 L 1040.0 750.1899505040296 L 1093.3333333333335 752.4081992277593 L 1146.6666666666667 756.3575112078572 L 1200.0 762.9915260825624 L 1253.3333333333335 764.8055145248646 L 1306.6666666666667 768.4127601129856 L 1360.0 772.2584156106662 L 1413.3333333333335 767.0030319521107 L 1466.6666666666667 774.9120215605484 L 1520.0 776.7778382440592" fill="none" stroke="#66ffbd" stroke-width="2" />
<text x="80.0" y="940" text-anchor="middle">08-06</text>
<text x="133.33333333333334" y="940" text-anchor="middle">08-07</text>
<text x="186.66666666666669" y="940" text-anchor="middle">08-08</text>
<text x="240.0" y="940" text-anchor="middle">08-09</text>
<text x="293.33333333333337" y="940" text-anchor="middle">08-10</text>
<text x="346.6666666666667" y="940" text-anchor="middle">08-11</text>
<text x="400.0" y="940" text-anchor="middle">08-12</text>
<text x="453.33333333333337" y="940" text-anchor="middle">08-13</text>
<text x="506.6666666666667" y="940" text-anchor="middle">08-14</text>
<text x="560.0" y="940" text-anchor="middle">08-15</text>
<text x="613.3333333333334" y="940" text-anchor="middle">08-16</text>
<text x="666.6666666666667" y="940" text-anchor="middle">08-17</text>
<text x="720.0" y="940" text-anchor="middle">08-18</text>
<text x="773.3333333333334" y="940" text-anchor="middle">08-19</text>
<text x="826.6666666666667" y="940" text-anchor="middle">08-20</text>
<text x="880.0" y="940" text-anchor="middle">08-21</text>
<text x="933.3333333333334" y="940" text-anchor="middle">08-22</text>
<text x="986.6666666666667" y="940" text-anchor="middle">08-23</text>
<text x="1040.0" y="940" text-anchor="middle">08-24</text>
<text x="1093.3333333333335" y="940" text-anchor="middle">08-25</text>
<text x="1146.6666666666667" y="940" text-anchor="middle">08-26</text>
<text x="1200.0" y="940" text-anchor="middle">08-27</text>
<text x="1253.3333333333335" y="940" text-anchor="middle">08-28</text>
<text x="1306.6666666666667" y="940" text-anchor="middle">08-29</text>
<text x="1360.0" y="940" text-anchor="middle">08-30</text>
<text x="1413.3333333333335" y="940" text-anchor="middle">08-31</text>
<text x="1466.6666666666667" y="940" text-anchor="middle">09-01</text>
<text x="1520.0" y="940" text-anchor="middle">09-02</text>
<rect x="90" y="100" width="130" height="185" class="legend-box" />
<text x="100" y="120" class="legend-item">图例:</text>
<rect x="100" y="137" width="15" height="15" fill="#1f77b4" rx="3" />
<text x="120" y="145" class="legend-item">构件聚合数据</text>
<rect x="100" y="162" width="15" height="15" fill="#ff7f0e" rx="3" />
<text x="120" y="170" class="legend-item">构件基本信息</text>
<rect x="100" y="187" width="15" height="15" fill="#2ca02c" rx="3" />
<text x="120" y="195" class="legend-item">构件徽标</text>
<rect x="100" y="212" width="15" height="15" fill="#d62728" rx="3" />
<text x="120" y="220" class="legend-item">构件扩展元数据</text>
<rect x="100" y="237" width="15" height="15" fill="#9467bd" rx="3" />
<text x="120" y="245" class="legend-item">构件版本信息</text>
<rect x="100" y="262" width="15" height="15" fill="#66ffbd" rx="3" />
<text x="120" y="270" class="legend-item">数据量偏差</text>
<text x="1520" y="990" text-anchor="end" font-size="10" fill="#666">生成时间: 2025-09-02 04:44:35</text>
</svg>