<svg xmlns="http://www.w3.org/2000/svg" width="1600" height="1000" viewBox="0 0 1600 1000">
<style>
  text {
    font-family: Arial, sans-serif;
    font-size: 12px;
    fill: #333;
  }
  .axis-label { font-size: 14px; }
  .title { font-size: 18px; font-weight: bold; }
  .legend-item { font-size: 11px; }
  .legend-box { fill: white; fill-opacity: 0.85; stroke: #cccccc; stroke-width: 1; rx: 5; }
</style>
<text x="800.0" y="30" text-anchor="middle" class="title">Daily Data Growth Trend</text>
<text x="800.0" y="980" text-anchor="middle" class="axis-label">Date</text>
<g transform="rotate(-90)">
<text x="-500.0" y="20" text-anchor="middle" class="axis-label">Count</text>
</g>
<rect x="0" y="0" width="1600" height="1000" fill="#f8f8f8" />
<line x1="80" y1="920.0" x2="1520" y2="920.0" stroke="#e0e0e0" stroke-width="1" />
<text x="70" y="925.0" text-anchor="end">0</text>
<line x1="80" y1="752.0" x2="1520" y2="752.0" stroke="#e0e0e0" stroke-width="1" />
<text x="70" y="757.0" text-anchor="end">21.6k</text>
<line x1="80" y1="584.0" x2="1520" y2="584.0" stroke="#e0e0e0" stroke-width="1" />
<text x="70" y="589.0" text-anchor="end">43.2k</text>
<line x1="80" y1="416.0" x2="1520" y2="416.0" stroke="#e0e0e0" stroke-width="1" />
<text x="70" y="421.0" text-anchor="end">64.9k</text>
<line x1="80" y1="248.0" x2="1520" y2="248.0" stroke="#e0e0e0" stroke-width="1" />
<text x="70" y="253.0" text-anchor="end">86.5k</text>
<line x1="80" y1="80.0" x2="1520" y2="80.0" stroke="#e0e0e0" stroke-width="1" />
<text x="70" y="85.0" text-anchor="end">108.1k</text>
<line x1="80" y1="80" x2="80" y2="920" stroke="#333333" stroke-width="2" />
<line x1="80" y1="920" x2="1520" y2="920" stroke="#333333" stroke-width="2" />
<circle cx="80.0" cy="920.0" r="4" fill="#1f77b4" />
<circle cx="106.66666666666667" cy="882.0165128703254" r="4" fill="#1f77b4" />
<circle cx="133.33333333333334" cy="801.5191840699368" r="4" fill="#1f77b4" />
<circle cx="160.0" cy="769.1384167071394" r="4" fill="#1f77b4" />
<circle cx="186.66666666666669" cy="749.6493443419135" r="4" fill="#1f77b4" />
<circle cx="213.33333333333334" cy="739.8659543467703" r="4" fill="#1f77b4" />
<circle cx="240.0" cy="720.3768819815444" r="4" fill="#1f77b4" />
<circle cx="266.6666666666667" cy="699.3414278776105" r="4" fill="#1f77b4" />
<circle cx="293.33333333333337" cy="679.9533754249636" r="4" fill="#1f77b4" />
<circle cx="320.0" cy="664.1476444876154" r="4" fill="#1f77b4" />
<circle cx="346.6666666666667" cy="649.7328800388539" r="4" fill="#1f77b4" />
<circle cx="373.33333333333337" cy="640.6721709567751" r="4" fill="#1f77b4" />
<circle cx="400.0" cy="631.7047110247693" r="4" fill="#1f77b4" />
<circle cx="426.6666666666667" cy="618.2224380767364" r="4" fill="#1f77b4" />
<circle cx="453.33333333333337" cy="599.0752792617775" r="4" fill="#1f77b4" />
<circle cx="480.0" cy="578.3661971830986" r="4" fill="#1f77b4" />
<circle cx="506.6666666666667" cy="564.6197183098591" r="4" fill="#1f77b4" />
<circle cx="533.3333333333334" cy="545.8067022826615" r="4" fill="#1f77b4" />
<circle cx="560.0" cy="538.0359397765906" r="4" fill="#1f77b4" />
<circle cx="586.6666666666667" cy="530.8790675084992" r="4" fill="#1f77b4" />
<circle cx="613.3333333333334" cy="515.4851869839729" r="4" fill="#1f77b4" />
<circle cx="640.0" cy="500.34774162214666" r="4" fill="#1f77b4" />
<circle cx="666.6666666666667" cy="486.94317629917435" r="4" fill="#1f77b4" />
<circle cx="693.3333333333334" cy="468.44099077221955" r="4" fill="#1f77b4" />
<circle cx="720.0" cy="455.7047110247693" r="4" fill="#1f77b4" />
<circle cx="746.6666666666667" cy="447.8562408936377" r="4" fill="#1f77b4" />
<circle cx="773.3333333333334" cy="439.0053423992229" r="4" fill="#1f77b4" />
<circle cx="800.0" cy="427.6367168528412" r="4" fill="#1f77b4" />
<circle cx="826.6666666666667" cy="417.7678484701311" r="4" fill="#1f77b4" />
<circle cx="853.3333333333334" cy="409.3831957260806" r="4" fill="#1f77b4" />
<circle cx="880.0" cy="395.14715881495874" r="4" fill="#1f77b4" />
<circle cx="906.6666666666667" cy="383.52986886838266" r="4" fill="#1f77b4" />
<circle cx="933.3333333333334" cy="365.8125303545411" r="4" fill="#1f77b4" />
<circle cx="960.0" cy="360.6216610004857" r="4" fill="#1f77b4" />
<circle cx="986.6666666666667" cy="354.7314230208839" r="4" fill="#1f77b4" />
<circle cx="1013.3333333333334" cy="346.92180670228265" r="4" fill="#1f77b4" />
<circle cx="1040.0" cy="340.64303059737733" r="4" fill="#1f77b4" />
<circle cx="1066.6666666666667" cy="331.31034482758616" r="4" fill="#1f77b4" />
<circle cx="1093.3333333333335" cy="320.8431277319087" r="4" fill="#1f77b4" />
<circle cx="1120.0" cy="316.0874210781933" r="4" fill="#1f77b4" />
<circle cx="1146.6666666666667" cy="310.92763477416224" r="4" fill="#1f77b4" />
<circle cx="1173.3333333333335" cy="302.38756677999027" r="4" fill="#1f77b4" />
<circle cx="1200.0" cy="295.22292374939286" r="4" fill="#1f77b4" />
<circle cx="1226.6666666666667" cy="271.52986886838266" r="4" fill="#1f77b4" />
<circle cx="1253.3333333333335" cy="262.3759106362312" r="4" fill="#1f77b4" />
<circle cx="1280.0" cy="252.6624575036426" r="4" fill="#1f77b4" />
<circle cx="1306.6666666666667" cy="245.7620203982516" r="4" fill="#1f77b4" />
<circle cx="1333.3333333333335" cy="238.7217095677513" r="4" fill="#1f77b4" />
<circle cx="1360.0" cy="234.2846041767848" r="4" fill="#1f77b4" />
<circle cx="1386.6666666666667" cy="225.8067022826615" r="4" fill="#1f77b4" />
<circle cx="1413.3333333333335" cy="225.32491500728509" r="4" fill="#1f77b4" />
<circle cx="1440.0" cy="225.29383195726075" r="4" fill="#1f77b4" />
<circle cx="1466.6666666666667" cy="224.40796503156878" r="4" fill="#1f77b4" />
<circle cx="1493.3333333333335" cy="224.19815444390485" r="4" fill="#1f77b4" />
<circle cx="1520.0" cy="224.19815444390485" r="4" fill="#1f77b4" />
<path d="M 80.0 920.0 L 106.66666666666667 882.0165128703254 L 133.33333333333334 801.5191840699368 L 160.0 769.1384167071394 L 186.66666666666669 749.6493443419135 L 213.33333333333334 739.8659543467703 L 240.0 720.3768819815444 L 266.6666666666667 699.3414278776105 L 293.33333333333337 679.9533754249636 L 320.0 664.1476444876154 L 346.6666666666667 649.7328800388539 L 373.33333333333337 640.6721709567751 L 400.0 631.7047110247693 L 426.6666666666667 618.2224380767364 L 453.33333333333337 599.0752792617775 L 480.0 578.3661971830986 L 506.6666666666667 564.6197183098591 L 533.3333333333334 545.8067022826615 L 560.0 538.0359397765906 L 586.6666666666667 530.8790675084992 L 613.3333333333334 515.4851869839729 L 640.0 500.34774162214666 L 666.6666666666667 486.94317629917435 L 693.3333333333334 468.44099077221955 L 720.0 455.7047110247693 L 746.6666666666667 447.8562408936377 L 773.3333333333334 439.0053423992229 L 800.0 427.6367168528412 L 826.6666666666667 417.7678484701311 L 853.3333333333334 409.3831957260806 L 880.0 395.14715881495874 L 906.6666666666667 383.52986886838266 L 933.3333333333334 365.8125303545411 L 960.0 360.6216610004857 L 986.6666666666667 354.7314230208839 L 1013.3333333333334 346.92180670228265 L 1040.0 340.64303059737733 L 1066.6666666666667 331.31034482758616 L 1093.3333333333335 320.8431277319087 L 1120.0 316.0874210781933 L 1146.6666666666667 310.92763477416224 L 1173.3333333333335 302.38756677999027 L 1200.0 295.22292374939286 L 1226.6666666666667 271.52986886838266 L 1253.3333333333335 262.3759106362312 L 1280.0 252.6624575036426 L 1306.6666666666667 245.7620203982516 L 1333.3333333333335 238.7217095677513 L 1360.0 234.2846041767848 L 1386.6666666666667 225.8067022826615 L 1413.3333333333335 225.32491500728509 L 1440.0 225.29383195726075 L 1466.6666666666667 224.40796503156878 L 1493.3333333333335 224.19815444390485 L 1520.0 224.19815444390485" fill="none" stroke="#1f77b4" stroke-width="2" />
<circle cx="80.0" cy="920.0" r="4" fill="#ff7f0e" />
<circle cx="106.66666666666667" cy="642.7702768334143" r="4" fill="#ff7f0e" />
<circle cx="133.33333333333334" cy="584.9324915007285" r="4" fill="#ff7f0e" />
<circle cx="160.0" cy="566.3836813987373" r="4" fill="#ff7f0e" />
<circle cx="186.66666666666669" cy="557.2452646915979" r="4" fill="#ff7f0e" />
<circle cx="213.33333333333334" cy="550.0961631860126" r="4" fill="#ff7f0e" />
<circle cx="240.0" cy="537.3521126760563" r="4" fill="#ff7f0e" />
<circle cx="266.6666666666667" cy="521.1811559009227" r="4" fill="#ff7f0e" />
<circle cx="293.33333333333337" cy="508.28169014084506" r="4" fill="#ff7f0e" />
<circle cx="320.0" cy="497.65128703254004" r="4" fill="#ff7f0e" />
<circle cx="346.6666666666667" cy="486.8965517241379" r="4" fill="#ff7f0e" />
<circle cx="373.33333333333337" cy="481.27829043224864" r="4" fill="#ff7f0e" />
<circle cx="400.0" cy="474.3234579893152" r="4" fill="#ff7f0e" />
<circle cx="426.6666666666667" cy="466.412821758135" r="4" fill="#ff7f0e" />
<circle cx="453.33333333333337" cy="455.82904322486644" r="4" fill="#ff7f0e" />
<circle cx="480.0" cy="441.66294317629917" r="4" fill="#ff7f0e" />
<circle cx="506.6666666666667" cy="432.5711510441962" r="4" fill="#ff7f0e" />
<circle cx="533.3333333333334" cy="421.21806702282663" r="4" fill="#ff7f0e" />
<circle cx="560.0" cy="414.3098591549296" r="4" fill="#ff7f0e" />
<circle cx="586.6666666666667" cy="408.8003885381253" r="4" fill="#ff7f0e" />
<circle cx="613.3333333333334" cy="396.28169014084506" r="4" fill="#ff7f0e" />
<circle cx="640.0" cy="386.09422049538614" r="4" fill="#ff7f0e" />
<circle cx="666.6666666666667" cy="374.0339970859641" r="4" fill="#ff7f0e" />
<circle cx="693.3333333333334" cy="358.21272462360366" r="4" fill="#ff7f0e" />
<circle cx="720.0" cy="348.32831471588145" r="4" fill="#ff7f0e" />
<circle cx="746.6666666666667" cy="336.5322972316659" r="4" fill="#ff7f0e" />
<circle cx="773.3333333333334" cy="333.60271976687716" r="4" fill="#ff7f0e" />
<circle cx="800.0" cy="323.62506070908205" r="4" fill="#ff7f0e" />
<circle cx="826.6666666666667" cy="316.94997571636713" r="4" fill="#ff7f0e" />
<circle cx="853.3333333333334" cy="310.56240893637687" r="4" fill="#ff7f0e" />
<circle cx="880.0" cy="298.6886838271006" r="4" fill="#ff7f0e" />
<circle cx="906.6666666666667" cy="288.02719766877124" r="4" fill="#ff7f0e" />
<circle cx="933.3333333333334" cy="276.2778047595921" r="4" fill="#ff7f0e" />
<circle cx="960.0" cy="271.98834385624093" r="4" fill="#ff7f0e" />
<circle cx="986.6666666666667" cy="267.59009227780473" r="4" fill="#ff7f0e" />
<circle cx="1013.3333333333334" cy="261.6610004856726" r="4" fill="#ff7f0e" />
<circle cx="1040.0" cy="256.5167557066537" r="4" fill="#ff7f0e" />
<circle cx="1066.6666666666667" cy="248.53618261291888" r="4" fill="#ff7f0e" />
<circle cx="1093.3333333333335" cy="240.12044681884413" r="4" fill="#ff7f0e" />
<circle cx="1120.0" cy="234.44779018941233" r="4" fill="#ff7f0e" />
<circle cx="1146.6666666666667" cy="231.05196697425936" r="4" fill="#ff7f0e" />
<circle cx="1173.3333333333335" cy="223.98057309373485" r="4" fill="#ff7f0e" />
<circle cx="1200.0" cy="219.20155415250122" r="4" fill="#ff7f0e" />
<circle cx="1226.6666666666667" cy="196.20786789703743" r="4" fill="#ff7f0e" />
<circle cx="1253.3333333333335" cy="187.30257406508008" r="4" fill="#ff7f0e" />
<circle cx="1280.0" cy="179.21321029626029" r="4" fill="#ff7f0e" />
<circle cx="1306.6666666666667" cy="171.0305973773676" r="4" fill="#ff7f0e" />
<circle cx="1333.3333333333335" cy="166.2904322486644" r="4" fill="#ff7f0e" />
<circle cx="1360.0" cy="162.79358912093244" r="4" fill="#ff7f0e" />
<circle cx="1386.6666666666667" cy="156.65468674113652" r="4" fill="#ff7f0e" />
<circle cx="1413.3333333333335" cy="149.21806702282663" r="4" fill="#ff7f0e" />
<circle cx="1440.0" cy="142.89266634288492" r="4" fill="#ff7f0e" />
<circle cx="1466.6666666666667" cy="137.35211267605632" r="4" fill="#ff7f0e" />
<circle cx="1493.3333333333335" cy="125.75036425449252" r="4" fill="#ff7f0e" />
<circle cx="1520.0" cy="121.95046138902376" r="4" fill="#ff7f0e" />
<path d="M 80.0 920.0 L 106.66666666666667 642.7702768334143 L 133.33333333333334 584.9324915007285 L 160.0 566.3836813987373 L 186.66666666666669 557.2452646915979 L 213.33333333333334 550.0961631860126 L 240.0 537.3521126760563 L 266.6666666666667 521.1811559009227 L 293.33333333333337 508.28169014084506 L 320.0 497.65128703254004 L 346.6666666666667 486.8965517241379 L 373.33333333333337 481.27829043224864 L 400.0 474.3234579893152 L 426.6666666666667 466.412821758135 L 453.33333333333337 455.82904322486644 L 480.0 441.66294317629917 L 506.6666666666667 432.5711510441962 L 533.3333333333334 421.21806702282663 L 560.0 414.3098591549296 L 586.6666666666667 408.8003885381253 L 613.3333333333334 396.28169014084506 L 640.0 386.09422049538614 L 666.6666666666667 374.0339970859641 L 693.3333333333334 358.21272462360366 L 720.0 348.32831471588145 L 746.6666666666667 336.5322972316659 L 773.3333333333334 333.60271976687716 L 800.0 323.62506070908205 L 826.6666666666667 316.94997571636713 L 853.3333333333334 310.56240893637687 L 880.0 298.6886838271006 L 906.6666666666667 288.02719766877124 L 933.3333333333334 276.2778047595921 L 960.0 271.98834385624093 L 986.6666666666667 267.59009227780473 L 1013.3333333333334 261.6610004856726 L 1040.0 256.5167557066537 L 1066.6666666666667 248.53618261291888 L 1093.3333333333335 240.12044681884413 L 1120.0 234.44779018941233 L 1146.6666666666667 231.05196697425936 L 1173.3333333333335 223.98057309373485 L 1200.0 219.20155415250122 L 1226.6666666666667 196.20786789703743 L 1253.3333333333335 187.30257406508008 L 1280.0 179.21321029626029 L 1306.6666666666667 171.0305973773676 L 1333.3333333333335 166.2904322486644 L 1360.0 162.79358912093244 L 1386.6666666666667 156.65468674113652 L 1413.3333333333335 149.21806702282663 L 1440.0 142.89266634288492 L 1466.6666666666667 137.35211267605632 L 1493.3333333333335 125.75036425449252 L 1520.0 121.95046138902376" fill="none" stroke="#ff7f0e" stroke-width="2" />
<circle cx="80.0" cy="920.0" r="4" fill="#2ca02c" />
<circle cx="106.66666666666667" cy="637.3229723166586" r="4" fill="#2ca02c" />
<circle cx="133.33333333333334" cy="579.7105390966489" r="4" fill="#2ca02c" />
<circle cx="160.0" cy="561.3404565322973" r="4" fill="#2ca02c" />
<circle cx="186.66666666666669" cy="552.3419135502671" r="4" fill="#2ca02c" />
<circle cx="213.33333333333334" cy="545.208353569694" r="4" fill="#2ca02c" />
<circle cx="240.0" cy="532.596406022341" r="4" fill="#2ca02c" />
<circle cx="266.6666666666667" cy="516.6352598348712" r="4" fill="#2ca02c" />
<circle cx="293.33333333333337" cy="503.8834385624089" r="4" fill="#2ca02c" />
<circle cx="320.0" cy="493.3385138416707" r="4" fill="#2ca02c" />
<circle cx="346.6666666666667" cy="482.6381738708111" r="4" fill="#2ca02c" />
<circle cx="373.33333333333337" cy="477.1053909664886" r="4" fill="#2ca02c" />
<circle cx="400.0" cy="470.1505585235551" r="4" fill="#2ca02c" />
<circle cx="426.6666666666667" cy="462.26323457989315" r="4" fill="#2ca02c" />
<circle cx="453.33333333333337" cy="451.9125789218067" r="4" fill="#2ca02c" />
<circle cx="480.0" cy="438.0495386109762" r="4" fill="#2ca02c" />
<circle cx="506.6666666666667" cy="428.9966002914036" r="4" fill="#2ca02c" />
<circle cx="533.3333333333334" cy="417.65128703254004" r="4" fill="#2ca02c" />
<circle cx="560.0" cy="410.735308402137" r="4" fill="#2ca02c" />
<circle cx="586.6666666666667" cy="405.2413793103449" r="4" fill="#2ca02c" />
<circle cx="613.3333333333334" cy="392.80815930063136" r="4" fill="#2ca02c" />
<circle cx="640.0" cy="382.6440019426906" r="4" fill="#2ca02c" />
<circle cx="666.6666666666667" cy="370.5993200582807" r="4" fill="#2ca02c" />
<circle cx="693.3333333333334" cy="354.8013598834385" r="4" fill="#2ca02c" />
<circle cx="720.0" cy="344.94803302574064" r="4" fill="#2ca02c" />
<circle cx="746.6666666666667" cy="333.15978630403106" r="4" fill="#2ca02c" />
<circle cx="773.3333333333334" cy="330.2379796017484" r="4" fill="#2ca02c" />
<circle cx="800.0" cy="320.2680913064595" r="4" fill="#2ca02c" />
<circle cx="826.6666666666667" cy="313.6163186012627" r="4" fill="#2ca02c" />
<circle cx="853.3333333333334" cy="307.2676056338029" r="4" fill="#2ca02c" />
<circle cx="880.0" cy="295.66585721223896" r="4" fill="#2ca02c" />
<circle cx="906.6666666666667" cy="285.03545410393394" r="4" fill="#2ca02c" />
<circle cx="933.3333333333334" cy="273.61243322000973" r="4" fill="#2ca02c" />
<circle cx="960.0" cy="269.3229723166586" r="4" fill="#2ca02c" />
<circle cx="986.6666666666667" cy="264.979116075765" r="4" fill="#2ca02c" />
<circle cx="1013.3333333333334" cy="259.05779504613895" r="4" fill="#2ca02c" />
<circle cx="1040.0" cy="253.9368625546382" r="4" fill="#2ca02c" />
<circle cx="1066.6666666666667" cy="245.95628946090335" r="4" fill="#2ca02c" />
<circle cx="1093.3333333333335" cy="237.5794074793589" r="4" fill="#2ca02c" />
<circle cx="1120.0" cy="231.9145216124332" r="4" fill="#2ca02c" />
<circle cx="1146.6666666666667" cy="228.51869839728022" r="4" fill="#2ca02c" />
<circle cx="1173.3333333333335" cy="221.4550752792618" r="4" fill="#2ca02c" />
<circle cx="1200.0" cy="216.7537639630889" r="4" fill="#2ca02c" />
<circle cx="1226.6666666666667" cy="193.96211753278294" r="4" fill="#2ca02c" />
<circle cx="1253.3333333333335" cy="185.07236522583776" r="4" fill="#2ca02c" />
<circle cx="1280.0" cy="177.22389509470622" r="4" fill="#2ca02c" />
<circle cx="1306.6666666666667" cy="169.04905293831962" r="4" fill="#2ca02c" />
<circle cx="1333.3333333333335" cy="164.3088878096163" r="4" fill="#2ca02c" />
<circle cx="1360.0" cy="160.81204468188446" r="4" fill="#2ca02c" />
<circle cx="1386.6666666666667" cy="154.6886838271006" r="4" fill="#2ca02c" />
<circle cx="1413.3333333333335" cy="147.2520641087907" r="4" fill="#2ca02c" />
<circle cx="1440.0" cy="140.926663428849" r="4" fill="#2ca02c" />
<circle cx="1466.6666666666667" cy="135.40165128703256" r="4" fill="#2ca02c" />
<circle cx="1493.3333333333335" cy="123.79990286546865" r="4" fill="#2ca02c" />
<circle cx="1520.0" cy="120.0" r="4" fill="#2ca02c" />
<path d="M 80.0 920.0 L 106.66666666666667 637.3229723166586 L 133.33333333333334 579.7105390966489 L 160.0 561.3404565322973 L 186.66666666666669 552.3419135502671 L 213.33333333333334 545.208353569694 L 240.0 532.596406022341 L 266.6666666666667 516.6352598348712 L 293.33333333333337 503.8834385624089 L 320.0 493.3385138416707 L 346.6666666666667 482.6381738708111 L 373.33333333333337 477.1053909664886 L 400.0 470.1505585235551 L 426.6666666666667 462.26323457989315 L 453.33333333333337 451.9125789218067 L 480.0 438.0495386109762 L 506.6666666666667 428.9966002914036 L 533.3333333333334 417.65128703254004 L 560.0 410.735308402137 L 586.6666666666667 405.2413793103449 L 613.3333333333334 392.80815930063136 L 640.0 382.6440019426906 L 666.6666666666667 370.5993200582807 L 693.3333333333334 354.8013598834385 L 720.0 344.94803302574064 L 746.6666666666667 333.15978630403106 L 773.3333333333334 330.2379796017484 L 800.0 320.2680913064595 L 826.6666666666667 313.6163186012627 L 853.3333333333334 307.2676056338029 L 880.0 295.66585721223896 L 906.6666666666667 285.03545410393394 L 933.3333333333334 273.61243322000973 L 960.0 269.3229723166586 L 986.6666666666667 264.979116075765 L 1013.3333333333334 259.05779504613895 L 1040.0 253.9368625546382 L 1066.6666666666667 245.95628946090335 L 1093.3333333333335 237.5794074793589 L 1120.0 231.9145216124332 L 1146.6666666666667 228.51869839728022 L 1173.3333333333335 221.4550752792618 L 1200.0 216.7537639630889 L 1226.6666666666667 193.96211753278294 L 1253.3333333333335 185.07236522583776 L 1280.0 177.22389509470622 L 1306.6666666666667 169.04905293831962 L 1333.3333333333335 164.3088878096163 L 1360.0 160.81204468188446 L 1386.6666666666667 154.6886838271006 L 1413.3333333333335 147.2520641087907 L 1440.0 140.926663428849 L 1466.6666666666667 135.40165128703256 L 1493.3333333333335 123.79990286546865 L 1520.0 120.0" fill="none" stroke="#2ca02c" stroke-width="2" />
<circle cx="80.0" cy="920.0" r="4" fill="#d62728" />
<circle cx="106.66666666666667" cy="865.1539582321516" r="4" fill="#d62728" />
<circle cx="133.33333333333334" cy="785.7756192326372" r="4" fill="#d62728" />
<circle cx="160.0" cy="758.3059737736766" r="4" fill="#d62728" />
<circle cx="186.66666666666669" cy="738.8557552209811" r="4" fill="#d62728" />
<circle cx="213.33333333333334" cy="729.1578436134046" r="4" fill="#d62728" />
<circle cx="240.0" cy="710.0650801359884" r="4" fill="#d62728" />
<circle cx="266.6666666666667" cy="690.0087421078193" r="4" fill="#d62728" />
<circle cx="293.33333333333337" cy="671.5454103933948" r="4" fill="#d62728" />
<circle cx="320.0" cy="656.0738222438076" r="4" fill="#d62728" />
<circle cx="346.6666666666667" cy="641.7056823700825" r="4" fill="#d62728" />
<circle cx="373.33333333333337" cy="632.6605148130161" r="4" fill="#d62728" />
<circle cx="400.0" cy="623.7008256435163" r="4" fill="#d62728" />
<circle cx="426.6666666666667" cy="610.8868382710053" r="4" fill="#d62728" />
<circle cx="453.33333333333337" cy="591.9650315687227" r="4" fill="#d62728" />
<circle cx="480.0" cy="571.6056338028169" r="4" fill="#d62728" />
<circle cx="506.6666666666667" cy="558.5118989800874" r="4" fill="#d62728" />
<circle cx="533.3333333333334" cy="539.9320058280719" r="4" fill="#d62728" />
<circle cx="560.0" cy="532.1612433220009" r="4" fill="#d62728" />
<circle cx="586.6666666666667" cy="525.0820786789704" r="4" fill="#d62728" />
<circle cx="613.3333333333334" cy="509.8746964545896" r="4" fill="#d62728" />
<circle cx="640.0" cy="495.65420106847984" r="4" fill="#d62728" />
<circle cx="666.6666666666667" cy="482.30403108305" r="4" fill="#d62728" />
<circle cx="693.3333333333334" cy="463.8173870811073" r="4" fill="#d62728" />
<circle cx="720.0" cy="451.50072850898493" r="4" fill="#d62728" />
<circle cx="746.6666666666667" cy="443.65225837785334" r="4" fill="#d62728" />
<circle cx="773.3333333333334" cy="434.7935891209325" r="4" fill="#d62728" />
<circle cx="800.0" cy="423.42496357455076" r="4" fill="#d62728" />
<circle cx="826.6666666666667" cy="414.2166100048567" r="4" fill="#d62728" />
<circle cx="853.3333333333334" cy="405.8474987858184" r="4" fill="#d62728" />
<circle cx="880.0" cy="391.6425449247207" r="4" fill="#d62728" />
<circle cx="906.6666666666667" cy="380.0330257406508" r="4" fill="#d62728" />
<circle cx="933.3333333333334" cy="362.408936376882" r="4" fill="#d62728" />
<circle cx="960.0" cy="357.2413793103449" r="4" fill="#d62728" />
<circle cx="986.6666666666667" cy="351.3511413307431" r="4" fill="#d62728" />
<circle cx="1013.3333333333334" cy="343.5959203496843" r="4" fill="#d62728" />
<circle cx="1040.0" cy="337.3093734822729" r="4" fill="#d62728" />
<circle cx="1066.6666666666667" cy="328.02331228751825" r="4" fill="#d62728" />
<circle cx="1093.3333333333335" cy="318.13890237979604" r="4" fill="#d62728" />
<circle cx="1120.0" cy="313.4065080135988" r="4" fill="#d62728" />
<circle cx="1146.6666666666667" cy="308.24672170956774" r="4" fill="#d62728" />
<circle cx="1173.3333333333335" cy="299.729966002914" r="4" fill="#d62728" />
<circle cx="1200.0" cy="292.63525983487125" r="4" fill="#d62728" />
<circle cx="1226.6666666666667" cy="269.0121418164157" r="4" fill="#d62728" />
<circle cx="1253.3333333333335" cy="259.88149587178236" r="4" fill="#d62728" />
<circle cx="1280.0" cy="250.16804273919377" r="4" fill="#d62728" />
<circle cx="1306.6666666666667" cy="243.2598348712968" r="4" fill="#d62728" />
<circle cx="1333.3333333333335" cy="236.2195240407965" r="4" fill="#d62728" />
<circle cx="1360.0" cy="231.79018941233608" r="4" fill="#d62728" />
<circle cx="1386.6666666666667" cy="223.66974259349195" r="4" fill="#d62728" />
<circle cx="1413.3333333333335" cy="223.19572608062163" r="4" fill="#d62728" />
<circle cx="1440.0" cy="223.19572608062163" r="4" fill="#d62728" />
<circle cx="1466.6666666666667" cy="223.19572608062163" r="4" fill="#d62728" />
<circle cx="1493.3333333333335" cy="223.19572608062163" r="4" fill="#d62728" />
<circle cx="1520.0" cy="223.19572608062163" r="4" fill="#d62728" />
<path d="M 80.0 920.0 L 106.66666666666667 865.1539582321516 L 133.33333333333334 785.7756192326372 L 160.0 758.3059737736766 L 186.66666666666669 738.8557552209811 L 213.33333333333334 729.1578436134046 L 240.0 710.0650801359884 L 266.6666666666667 690.0087421078193 L 293.33333333333337 671.5454103933948 L 320.0 656.0738222438076 L 346.6666666666667 641.7056823700825 L 373.33333333333337 632.6605148130161 L 400.0 623.7008256435163 L 426.6666666666667 610.8868382710053 L 453.33333333333337 591.9650315687227 L 480.0 571.6056338028169 L 506.6666666666667 558.5118989800874 L 533.3333333333334 539.9320058280719 L 560.0 532.1612433220009 L 586.6666666666667 525.0820786789704 L 613.3333333333334 509.8746964545896 L 640.0 495.65420106847984 L 666.6666666666667 482.30403108305 L 693.3333333333334 463.8173870811073 L 720.0 451.50072850898493 L 746.6666666666667 443.65225837785334 L 773.3333333333334 434.7935891209325 L 800.0 423.42496357455076 L 826.6666666666667 414.2166100048567 L 853.3333333333334 405.8474987858184 L 880.0 391.6425449247207 L 906.6666666666667 380.0330257406508 L 933.3333333333334 362.408936376882 L 960.0 357.2413793103449 L 986.6666666666667 351.3511413307431 L 1013.3333333333334 343.5959203496843 L 1040.0 337.3093734822729 L 1066.6666666666667 328.02331228751825 L 1093.3333333333335 318.13890237979604 L 1120.0 313.4065080135988 L 1146.6666666666667 308.24672170956774 L 1173.3333333333335 299.729966002914 L 1200.0 292.63525983487125 L 1226.6666666666667 269.0121418164157 L 1253.3333333333335 259.88149587178236 L 1280.0 250.16804273919377 L 1306.6666666666667 243.2598348712968 L 1333.3333333333335 236.2195240407965 L 1360.0 231.79018941233608 L 1386.6666666666667 223.66974259349195 L 1413.3333333333335 223.19572608062163 L 1440.0 223.19572608062163 L 1466.6666666666667 223.19572608062163 L 1493.3333333333335 223.19572608062163 L 1520.0 223.19572608062163" fill="none" stroke="#d62728" stroke-width="2" />
<circle cx="80.0" cy="920.0" r="4" fill="#9467bd" />
<circle cx="106.66666666666667" cy="870.9431762991744" r="4" fill="#9467bd" />
<circle cx="133.33333333333334" cy="791.2617775619233" r="4" fill="#9467bd" />
<circle cx="160.0" cy="758.9587178241865" r="4" fill="#9467bd" />
<circle cx="186.66666666666669" cy="739.4463331714425" r="4" fill="#9467bd" />
<circle cx="213.33333333333334" cy="730.7430791646431" r="4" fill="#9467bd" />
<circle cx="240.0" cy="711.4871296745994" r="4" fill="#9467bd" />
<circle cx="266.6666666666667" cy="690.5060709082079" r="4" fill="#9467bd" />
<circle cx="293.33333333333337" cy="671.5220981058767" r="4" fill="#9467bd" />
<circle cx="320.0" cy="655.8795531811559" r="4" fill="#9467bd" />
<circle cx="346.6666666666667" cy="641.6745993200583" r="4" fill="#9467bd" />
<circle cx="373.33333333333337" cy="632.6216610004857" r="4" fill="#9467bd" />
<circle cx="400.0" cy="623.5998057309373" r="4" fill="#9467bd" />
<circle cx="426.6666666666667" cy="610.195240407965" r="4" fill="#9467bd" />
<circle cx="453.33333333333337" cy="591.4133074307916" r="4" fill="#9467bd" />
<circle cx="480.0" cy="570.6576007770763" r="4" fill="#9467bd" />
<circle cx="506.6666666666667" cy="557.2064108790676" r="4" fill="#9467bd" />
<circle cx="533.3333333333334" cy="541.0587663914521" r="4" fill="#9467bd" />
<circle cx="560.0" cy="533.2802331228752" r="4" fill="#9467bd" />
<circle cx="586.6666666666667" cy="526.1233608547839" r="4" fill="#9467bd" />
<circle cx="613.3333333333334" cy="510.690626517727" r="4" fill="#9467bd" />
<circle cx="640.0" cy="496.02719766877124" r="4" fill="#9467bd" />
<circle cx="666.6666666666667" cy="482.6925692083536" r="4" fill="#9467bd" />
<circle cx="693.3333333333334" cy="464.13598834385624" r="4" fill="#9467bd" />
<circle cx="720.0" cy="451.6406022340942" r="4" fill="#9467bd" />
<circle cx="746.6666666666667" cy="443.8154443904808" r="4" fill="#9467bd" />
<circle cx="773.3333333333334" cy="434.95677513356" r="4" fill="#9467bd" />
<circle cx="800.0" cy="423.5726080621661" r="4" fill="#9467bd" />
<circle cx="826.6666666666667" cy="414.0611947547353" r="4" fill="#9467bd" />
<circle cx="853.3333333333334" cy="405.69208353569695" r="4" fill="#9467bd" />
<circle cx="880.0" cy="391.68139873725113" r="4" fill="#9467bd" />
<circle cx="906.6666666666667" cy="380.33608547838753" r="4" fill="#9467bd" />
<circle cx="933.3333333333334" cy="362.61097620203986" r="4" fill="#9467bd" />
<circle cx="960.0" cy="357.3967945604662" r="4" fill="#9467bd" />
<circle cx="986.6666666666667" cy="351.7474502185527" r="4" fill="#9467bd" />
<circle cx="1013.3333333333334" cy="343.96891694997566" r="4" fill="#9467bd" />
<circle cx="1040.0" cy="337.6590577950461" r="4" fill="#9467bd" />
<circle cx="1066.6666666666667" cy="328.3030597377368" r="4" fill="#9467bd" />
<circle cx="1093.3333333333335" cy="317.8358426420592" r="4" fill="#9467bd" />
<circle cx="1120.0" cy="313.08013598834384" r="4" fill="#9467bd" />
<circle cx="1146.6666666666667" cy="307.9203496843128" r="4" fill="#9467bd" />
<circle cx="1173.3333333333335" cy="299.395823215153" r="4" fill="#9467bd" />
<circle cx="1200.0" cy="292.2156386595435" r="4" fill="#9467bd" />
<circle cx="1226.6666666666667" cy="268.5847498785819" r="4" fill="#9467bd" />
<circle cx="1253.3333333333335" cy="259.40747935891204" r="4" fill="#9467bd" />
<circle cx="1280.0" cy="249.70179698882953" r="4" fill="#9467bd" />
<circle cx="1306.6666666666667" cy="242.79358912093244" r="4" fill="#9467bd" />
<circle cx="1333.3333333333335" cy="235.6911121903837" r="4" fill="#9467bd" />
<circle cx="1360.0" cy="231.27731908693545" r="4" fill="#9467bd" />
<circle cx="1386.6666666666667" cy="222.77610490529378" r="4" fill="#9467bd" />
<circle cx="1413.3333333333335" cy="213.59883438562406" r="4" fill="#9467bd" />
<circle cx="1440.0" cy="206.9082078678971" r="4" fill="#9467bd" />
<circle cx="1466.6666666666667" cy="199.61923263720257" r="4" fill="#9467bd" />
<circle cx="1493.3333333333335" cy="192.87421078193302" r="4" fill="#9467bd" />
<circle cx="1520.0" cy="183.30840213695967" r="4" fill="#9467bd" />
<path d="M 80.0 920.0 L 106.66666666666667 870.9431762991744 L 133.33333333333334 791.2617775619233 L 160.0 758.9587178241865 L 186.66666666666669 739.4463331714425 L 213.33333333333334 730.7430791646431 L 240.0 711.4871296745994 L 266.6666666666667 690.5060709082079 L 293.33333333333337 671.5220981058767 L 320.0 655.8795531811559 L 346.6666666666667 641.6745993200583 L 373.33333333333337 632.6216610004857 L 400.0 623.5998057309373 L 426.6666666666667 610.195240407965 L 453.33333333333337 591.4133074307916 L 480.0 570.6576007770763 L 506.6666666666667 557.2064108790676 L 533.3333333333334 541.0587663914521 L 560.0 533.2802331228752 L 586.6666666666667 526.1233608547839 L 613.3333333333334 510.690626517727 L 640.0 496.02719766877124 L 666.6666666666667 482.6925692083536 L 693.3333333333334 464.13598834385624 L 720.0 451.6406022340942 L 746.6666666666667 443.8154443904808 L 773.3333333333334 434.95677513356 L 800.0 423.5726080621661 L 826.6666666666667 414.0611947547353 L 853.3333333333334 405.69208353569695 L 880.0 391.68139873725113 L 906.6666666666667 380.33608547838753 L 933.3333333333334 362.61097620203986 L 960.0 357.3967945604662 L 986.6666666666667 351.7474502185527 L 1013.3333333333334 343.96891694997566 L 1040.0 337.6590577950461 L 1066.6666666666667 328.3030597377368 L 1093.3333333333335 317.8358426420592 L 1120.0 313.08013598834384 L 1146.6666666666667 307.9203496843128 L 1173.3333333333335 299.395823215153 L 1200.0 292.2156386595435 L 1226.6666666666667 268.5847498785819 L 1253.3333333333335 259.40747935891204 L 1280.0 249.70179698882953 L 1306.6666666666667 242.79358912093244 L 1333.3333333333335 235.6911121903837 L 1360.0 231.27731908693545 L 1386.6666666666667 222.77610490529378 L 1413.3333333333335 213.59883438562406 L 1440.0 206.9082078678971 L 1466.6666666666667 199.61923263720257 L 1493.3333333333335 192.87421078193302 L 1520.0 183.30840213695967" fill="none" stroke="#9467bd" stroke-width="2" />
<circle cx="80.0" cy="920.0" r="4" fill="#66ffbd" />
<circle cx="106.66666666666667" cy="675.3064594463332" r="4" fill="#66ffbd" />
<circle cx="133.33333333333334" cy="698.191355026712" r="4" fill="#66ffbd" />
<circle cx="160.0" cy="712.2020398251578" r="4" fill="#66ffbd" />
<circle cx="186.66666666666669" cy="722.6925692083536" r="4" fill="#66ffbd" />
<circle cx="213.33333333333334" cy="725.3423992229237" r="4" fill="#66ffbd" />
<circle cx="240.0" cy="732.2195240407965" r="4" fill="#66ffbd" />
<circle cx="266.6666666666667" cy="737.2938319572609" r="4" fill="#66ffbd" />
<circle cx="293.33333333333337" cy="743.9300631374454" r="4" fill="#66ffbd" />
<circle cx="320.0" cy="749.1908693540554" r="4" fill="#66ffbd" />
<circle cx="346.6666666666667" cy="752.9052938319572" r="4" fill="#66ffbd" />
<circle cx="373.33333333333337" cy="756.4332200097135" r="4" fill="#66ffbd" />
<circle cx="400.0" cy="758.4458474987858" r="4" fill="#66ffbd" />
<circle cx="426.6666666666667" cy="764.0407965031569" r="4" fill="#66ffbd" />
<circle cx="453.33333333333337" cy="772.8372996600292" r="4" fill="#66ffbd" />
<circle cx="480.0" cy="779.6833414278776" r="4" fill="#66ffbd" />
<circle cx="506.6666666666667" cy="784.3768819815444" r="4" fill="#66ffbd" />
<circle cx="533.3333333333334" cy="791.8445847498785" r="4" fill="#66ffbd" />
<circle cx="560.0" cy="792.6993686255464" r="4" fill="#66ffbd" />
<circle cx="586.6666666666667" cy="794.3623118018455" r="4" fill="#66ffbd" />
<circle cx="613.3333333333334" cy="797.3229723166586" r="4" fill="#66ffbd" />
<circle cx="640.0" cy="802.296260320544" r="4" fill="#66ffbd" />
<circle cx="666.6666666666667" cy="803.6561437591064" r="4" fill="#66ffbd" />
<circle cx="693.3333333333334" cy="806.360369111219" r="4" fill="#66ffbd" />
<circle cx="720.0" cy="809.2433220009714" r="4" fill="#66ffbd" />
<circle cx="746.6666666666667" cy="805.3035454103934" r="4" fill="#66ffbd" />
<circle cx="773.3333333333334" cy="811.2326372025254" r="4" fill="#66ffbd" />
<circle cx="800.0" cy="812.6313744536183" r="4" fill="#66ffbd" />
<circle cx="826.6666666666667" cy="815.8484701311316" r="4" fill="#66ffbd" />
<circle cx="853.3333333333334" cy="817.8844099077222" r="4" fill="#66ffbd" />
<circle cx="880.0" cy="820.5186983972802" r="4" fill="#66ffbd" />
<circle cx="906.6666666666667" cy="821.5055852355513" r="4" fill="#66ffbd" />
<circle cx="933.3333333333334" cy="827.7999028654687" r="4" fill="#66ffbd" />
<circle cx="960.0" cy="828.7013113161729" r="4" fill="#66ffbd" />
<circle cx="986.6666666666667" cy="830.247693054881" r="4" fill="#66ffbd" />
<circle cx="1013.3333333333334" cy="832.1359883438563" r="4" fill="#66ffbd" />
<circle cx="1040.0" cy="833.2938319572609" r="4" fill="#66ffbd" />
<circle cx="1066.6666666666667" cy="834.6459446333172" r="4" fill="#66ffbd" />
<circle cx="1093.3333333333335" cy="836.7362797474502" r="4" fill="#66ffbd" />
<circle cx="1120.0" cy="835.8271005342399" r="4" fill="#66ffbd" />
<circle cx="1146.6666666666667" cy="837.591063623118" r="4" fill="#66ffbd" />
<circle cx="1173.3333333333335" cy="839.0675084992715" r="4" fill="#66ffbd" />
<circle cx="1200.0" cy="841.5308402136959" r="4" fill="#66ffbd" />
<circle cx="1226.6666666666667" cy="842.4322486644002" r="4" fill="#66ffbd" />
<circle cx="1253.3333333333335" cy="842.6964545896066" r="4" fill="#66ffbd" />
<circle cx="1280.0" cy="844.5614375910636" r="4" fill="#66ffbd" />
<circle cx="1306.6666666666667" cy="843.287032540068" r="4" fill="#66ffbd" />
<circle cx="1333.3333333333335" cy="845.587178241865" r="4" fill="#66ffbd" />
<circle cx="1360.0" cy="846.5274405050995" r="4" fill="#66ffbd" />
<circle cx="1386.6666666666667" cy="848.881981544439" r="4" fill="#66ffbd" />
<circle cx="1413.3333333333335" cy="841.9271491015056" r="4" fill="#66ffbd" />
<circle cx="1440.0" cy="835.6328314715881" r="4" fill="#66ffbd" />
<circle cx="1466.6666666666667" cy="830.9936862554638" r="4" fill="#66ffbd" />
<circle cx="1493.3333333333335" cy="819.6017484215639" r="4" fill="#66ffbd" />
<circle cx="1520.0" cy="815.8018455560951" r="4" fill="#66ffbd" />
<path d="M 80.0 920.0 L 106.66666666666667 675.3064594463332 L 133.33333333333334 698.191355026712 L 160.0 712.2020398251578 L 186.66666666666669 722.6925692083536 L 213.33333333333334 725.3423992229237 L 240.0 732.2195240407965 L 266.6666666666667 737.2938319572609 L 293.33333333333337 743.9300631374454 L 320.0 749.1908693540554 L 346.6666666666667 752.9052938319572 L 373.33333333333337 756.4332200097135 L 400.0 758.4458474987858 L 426.6666666666667 764.0407965031569 L 453.33333333333337 772.8372996600292 L 480.0 779.6833414278776 L 506.6666666666667 784.3768819815444 L 533.3333333333334 791.8445847498785 L 560.0 792.6993686255464 L 586.6666666666667 794.3623118018455 L 613.3333333333334 797.3229723166586 L 640.0 802.296260320544 L 666.6666666666667 803.6561437591064 L 693.3333333333334 806.360369111219 L 720.0 809.2433220009714 L 746.6666666666667 805.3035454103934 L 773.3333333333334 811.2326372025254 L 800.0 812.6313744536183 L 826.6666666666667 815.8484701311316 L 853.3333333333334 817.8844099077222 L 880.0 820.5186983972802 L 906.6666666666667 821.5055852355513 L 933.3333333333334 827.7999028654687 L 960.0 828.7013113161729 L 986.6666666666667 830.247693054881 L 1013.3333333333334 832.1359883438563 L 1040.0 833.2938319572609 L 1066.6666666666667 834.6459446333172 L 1093.3333333333335 836.7362797474502 L 1120.0 835.8271005342399 L 1146.6666666666667 837.591063623118 L 1173.3333333333335 839.0675084992715 L 1200.0 841.5308402136959 L 1226.6666666666667 842.4322486644002 L 1253.3333333333335 842.6964545896066 L 1280.0 844.5614375910636 L 1306.6666666666667 843.287032540068 L 1333.3333333333335 845.587178241865 L 1360.0 846.5274405050995 L 1386.6666666666667 848.881981544439 L 1413.3333333333335 841.9271491015056 L 1440.0 835.6328314715881 L 1466.6666666666667 830.9936862554638 L 1493.3333333333335 819.6017484215639 L 1520.0 815.8018455560951" fill="none" stroke="#66ffbd" stroke-width="2" />
<text x="80.0" y="940" text-anchor="middle">08-06</text>
<text x="106.66666666666667" y="940" text-anchor="middle">08-07</text>
<text x="133.33333333333334" y="940" text-anchor="middle">08-08</text>
<text x="160.0" y="940" text-anchor="middle">08-09</text>
<text x="186.66666666666669" y="940" text-anchor="middle">08-10</text>
<text x="213.33333333333334" y="940" text-anchor="middle">08-11</text>
<text x="240.0" y="940" text-anchor="middle">08-12</text>
<text x="266.6666666666667" y="940" text-anchor="middle">08-13</text>
<text x="293.33333333333337" y="940" text-anchor="middle">08-14</text>
<text x="320.0" y="940" text-anchor="middle">08-15</text>
<text x="346.6666666666667" y="940" text-anchor="middle">08-16</text>
<text x="373.33333333333337" y="940" text-anchor="middle">08-17</text>
<text x="400.0" y="940" text-anchor="middle">08-18</text>
<text x="426.6666666666667" y="940" text-anchor="middle">08-19</text>
<text x="453.33333333333337" y="940" text-anchor="middle">08-20</text>
<text x="480.0" y="940" text-anchor="middle">08-21</text>
<text x="506.6666666666667" y="940" text-anchor="middle">08-22</text>
<text x="533.3333333333334" y="940" text-anchor="middle">08-23</text>
<text x="560.0" y="940" text-anchor="middle">08-24</text>
<text x="586.6666666666667" y="940" text-anchor="middle">08-25</text>
<text x="613.3333333333334" y="940" text-anchor="middle">08-26</text>
<text x="640.0" y="940" text-anchor="middle">08-27</text>
<text x="666.6666666666667" y="940" text-anchor="middle">08-28</text>
<text x="693.3333333333334" y="940" text-anchor="middle">08-29</text>
<text x="720.0" y="940" text-anchor="middle">08-30</text>
<text x="746.6666666666667" y="940" text-anchor="middle">08-31</text>
<text x="773.3333333333334" y="940" text-anchor="middle">09-01</text>
<text x="800.0" y="940" text-anchor="middle">09-02</text>
<text x="826.6666666666667" y="940" text-anchor="middle">09-03</text>
<text x="853.3333333333334" y="940" text-anchor="middle">09-04</text>
<text x="880.0" y="940" text-anchor="middle">09-05</text>
<text x="906.6666666666667" y="940" text-anchor="middle">09-06</text>
<text x="933.3333333333334" y="940" text-anchor="middle">09-07</text>
<text x="960.0" y="940" text-anchor="middle">09-08</text>
<text x="986.6666666666667" y="940" text-anchor="middle">09-09</text>
<text x="1013.3333333333334" y="940" text-anchor="middle">09-10</text>
<text x="1040.0" y="940" text-anchor="middle">09-11</text>
<text x="1066.6666666666667" y="940" text-anchor="middle">09-12</text>
<text x="1093.3333333333335" y="940" text-anchor="middle">09-13</text>
<text x="1120.0" y="940" text-anchor="middle">09-14</text>
<text x="1146.6666666666667" y="940" text-anchor="middle">09-15</text>
<text x="1173.3333333333335" y="940" text-anchor="middle">09-16</text>
<text x="1200.0" y="940" text-anchor="middle">09-17</text>
<text x="1226.6666666666667" y="940" text-anchor="middle">09-18</text>
<text x="1253.3333333333335" y="940" text-anchor="middle">09-19</text>
<text x="1280.0" y="940" text-anchor="middle">09-20</text>
<text x="1306.6666666666667" y="940" text-anchor="middle">09-21</text>
<text x="1333.3333333333335" y="940" text-anchor="middle">09-22</text>
<text x="1360.0" y="940" text-anchor="middle">09-23</text>
<text x="1386.6666666666667" y="940" text-anchor="middle">09-24</text>
<text x="1413.3333333333335" y="940" text-anchor="middle">09-25</text>
<text x="1440.0" y="940" text-anchor="middle">09-26</text>
<text x="1466.6666666666667" y="940" text-anchor="middle">09-27</text>
<text x="1493.3333333333335" y="940" text-anchor="middle">09-28</text>
<text x="1520.0" y="940" text-anchor="middle">09-29</text>
<rect x="90" y="100" width="130" height="185" class="legend-box" />
<text x="100" y="120" class="legend-item">图例:</text>
<rect x="100" y="137" width="15" height="15" fill="#1f77b4" rx="3" />
<text x="120" y="145" class="legend-item">构件聚合数据</text>
<rect x="100" y="162" width="15" height="15" fill="#ff7f0e" rx="3" />
<text x="120" y="170" class="legend-item">构件基本信息</text>
<rect x="100" y="187" width="15" height="15" fill="#2ca02c" rx="3" />
<text x="120" y="195" class="legend-item">构件徽标</text>
<rect x="100" y="212" width="15" height="15" fill="#d62728" rx="3" />
<text x="120" y="220" class="legend-item">构件扩展元数据</text>
<rect x="100" y="237" width="15" height="15" fill="#9467bd" rx="3" />
<text x="120" y="245" class="legend-item">构件版本信息</text>
<rect x="100" y="262" width="15" height="15" fill="#66ffbd" rx="3" />
<text x="120" y="270" class="legend-item">数据量偏差</text>
<text x="1520" y="990" text-anchor="end" font-size="10" fill="#666">生成时间: 2025-09-29 04:56:06</text>
</svg>