<svg xmlns="http://www.w3.org/2000/svg" width="1600" height="1000" viewBox="0 0 1600 1000">
<style>
  text {
    font-family: Arial, sans-serif;
    font-size: 12px;
    fill: #333;
  }
  .axis-label { font-size: 14px; }
  .title { font-size: 18px; font-weight: bold; }
  .legend-item { font-size: 11px; }
  .legend-box { fill: white; fill-opacity: 0.85; stroke: #cccccc; stroke-width: 1; rx: 5; }
</style>
<text x="800.0" y="30" text-anchor="middle" class="title">Daily Data Growth Trend</text>
<text x="800.0" y="980" text-anchor="middle" class="axis-label">Date</text>
<g transform="rotate(-90)">
<text x="-500.0" y="20" text-anchor="middle" class="axis-label">Count</text>
</g>
<rect x="0" y="0" width="1600" height="1000" fill="#f8f8f8" />
<line x1="80" y1="920.0" x2="1520" y2="920.0" stroke="#e0e0e0" stroke-width="1" />
<text x="70" y="925.0" text-anchor="end">4.6k</text>
<line x1="80" y1="752.0" x2="1520" y2="752.0" stroke="#e0e0e0" stroke-width="1" />
<text x="70" y="757.0" text-anchor="end">17.0k</text>
<line x1="80" y1="584.0" x2="1520" y2="584.0" stroke="#e0e0e0" stroke-width="1" />
<text x="70" y="589.0" text-anchor="end">29.3k</text>
<line x1="80" y1="416.0" x2="1520" y2="416.0" stroke="#e0e0e0" stroke-width="1" />
<text x="70" y="421.0" text-anchor="end">41.7k</text>
<line x1="80" y1="248.0" x2="1520" y2="248.0" stroke="#e0e0e0" stroke-width="1" />
<text x="70" y="253.0" text-anchor="end">54.0k</text>
<line x1="80" y1="80.0" x2="1520" y2="80.0" stroke="#e0e0e0" stroke-width="1" />
<text x="70" y="85.0" text-anchor="end">66.3k</text>
<line x1="80" y1="80" x2="80" y2="920" stroke="#333333" stroke-width="2" />
<line x1="80" y1="920" x2="1520" y2="920" stroke="#333333" stroke-width="2" />
<circle cx="80.0" cy="916.672765904343" r="4" fill="#1f77b4" />
<circle cx="176.0" cy="775.6465056878498" r="4" fill="#1f77b4" />
<circle cx="272.0" cy="718.917436634647" r="4" fill="#1f77b4" />
<circle cx="368.0" cy="684.7738068805236" r="4" fill="#1f77b4" />
<circle cx="464.0" cy="667.6339225661529" r="4" fill="#1f77b4" />
<circle cx="560.0" cy="633.4902928120296" r="4" fill="#1f77b4" />
<circle cx="656.0" cy="596.6374994530134" r="4" fill="#1f77b4" />
<circle cx="752.0" cy="562.6708502358931" r="4" fill="#1f77b4" />
<circle cx="848.0" cy="534.9802031386494" r="4" fill="#1f77b4" />
<circle cx="944.0" cy="509.72644189706284" r="4" fill="#1f77b4" />
<circle cx="1040.0" cy="493.852649116637" r="4" fill="#1f77b4" />
<circle cx="1136.0" cy="478.1422229857524" r="4" fill="#1f77b4" />
<circle cx="1232.0" cy="454.52212823957854" r="4" fill="#1f77b4" />
<circle cx="1328.0" cy="420.977509533773" r="4" fill="#1f77b4" />
<circle cx="1424.0" cy="384.69649944815137" r="4" fill="#1f77b4" />
<circle cx="1520.0" cy="360.61353252827723" r="4" fill="#1f77b4" />
<path d="M 80.0 916.672765904343 L 176.0 775.6465056878498 L 272.0 718.917436634647 L 368.0 684.7738068805236 L 464.0 667.6339225661529 L 560.0 633.4902928120296 L 656.0 596.6374994530134 L 752.0 562.6708502358931 L 848.0 534.9802031386494 L 944.0 509.72644189706284 L 1040.0 493.852649116637 L 1136.0 478.1422229857524 L 1232.0 454.52212823957854 L 1328.0 420.977509533773 L 1424.0 384.69649944815137 L 1520.0 360.61353252827723" fill="none" stroke="#1f77b4" stroke-width="2" />
<circle cx="80.0" cy="497.52839873131535" r="4" fill="#ff7f0e" />
<circle cx="176.0" cy="396.2002343533485" r="4" fill="#ff7f0e" />
<circle cx="272.0" cy="363.70388498209945" r="4" fill="#ff7f0e" />
<circle cx="368.0" cy="347.69395332705585" r="4" fill="#ff7f0e" />
<circle cx="464.0" cy="335.16917686222587" r="4" fill="#ff7f0e" />
<circle cx="560.0" cy="312.84240142492024" r="4" fill="#ff7f0e" />
<circle cx="656.0" cy="284.5119016169733" r="4" fill="#ff7f0e" />
<circle cx="752.0" cy="261.9128484304323" r="4" fill="#ff7f0e" />
<circle cx="848.0" cy="243.28905038272853" r="4" fill="#ff7f0e" />
<circle cx="944.0" cy="224.44743013563652" r="4" fill="#ff7f0e" />
<circle cx="1040.0" cy="214.60458950077555" r="4" fill="#ff7f0e" />
<circle cx="1136.0" cy="202.4201602224898" r="4" fill="#ff7f0e" />
<circle cx="1232.0" cy="188.56122278640623" r="4" fill="#ff7f0e" />
<circle cx="1328.0" cy="170.01910806347314" r="4" fill="#ff7f0e" />
<circle cx="1424.0" cy="145.20099122066335" r="4" fill="#ff7f0e" />
<circle cx="1520.0" cy="129.27274289039042" r="4" fill="#ff7f0e" />
<path d="M 80.0 497.52839873131535 L 176.0 396.2002343533485 L 272.0 363.70388498209945 L 368.0 347.69395332705585 L 464.0 335.16917686222587 L 560.0 312.84240142492024 L 656.0 284.5119016169733 L 752.0 261.9128484304323 L 848.0 243.28905038272853 L 944.0 224.44743013563652 L 1040.0 214.60458950077555 L 1136.0 202.4201602224898 L 1232.0 188.56122278640623 L 1328.0 170.01910806347314 L 1424.0 145.20099122066335 L 1520.0 129.27274289039042" fill="none" stroke="#ff7f0e" stroke-width="2" />
<circle cx="80.0" cy="487.9850636206134" r="4" fill="#2ca02c" />
<circle cx="176.0" cy="387.05170197903794" r="4" fill="#2ca02c" />
<circle cx="272.0" cy="354.8684720194095" r="4" fill="#2ca02c" />
<circle cx="368.0" cy="339.1035903386779" r="4" fill="#2ca02c" />
<circle cx="464.0" cy="326.60604164877145" r="4" fill="#2ca02c" />
<circle cx="560.0" cy="304.510702298316" r="4" fill="#2ca02c" />
<circle cx="656.0" cy="276.54777745183685" r="4" fill="#2ca02c" />
<circle cx="752.0" cy="254.20738812706952" r="4" fill="#2ca02c" />
<circle cx="848.0" cy="235.73334284144528" r="4" fill="#2ca02c" />
<circle cx="944.0" cy="216.98701980658564" r="4" fill="#2ca02c" />
<circle cx="1040.0" cy="207.29393193380417" r="4" fill="#2ca02c" />
<circle cx="1136.0" cy="195.10950265551844" r="4" fill="#2ca02c" />
<circle cx="1232.0" cy="181.2914068818202" r="4" fill="#2ca02c" />
<circle cx="1328.0" cy="163.1577087827402" r="4" fill="#2ca02c" />
<circle cx="1424.0" cy="138.8705335509395" r="4" fill="#2ca02c" />
<circle cx="1520.0" cy="123.01035465797543" r="4" fill="#2ca02c" />
<path d="M 80.0 487.9850636206134 L 176.0 387.05170197903794 L 272.0 354.8684720194095 L 368.0 339.1035903386779 L 464.0 326.60604164877145 L 560.0 304.510702298316 L 656.0 276.54777745183685 L 752.0 254.20738812706952 L 848.0 235.73334284144528 L 944.0 216.98701980658564 L 1040.0 207.29393193380417 L 1136.0 195.10950265551844 L 1232.0 181.2914068818202 L 1328.0 163.1577087827402 L 1424.0 138.8705335509395 L 1520.0 123.01035465797543" fill="none" stroke="#2ca02c" stroke-width="2" />
<circle cx="80.0" cy="887.1306301122984" r="4" fill="#d62728" />
<circle cx="176.0" cy="748.0647696903002" r="4" fill="#d62728" />
<circle cx="272.0" cy="699.9396775129372" r="4" fill="#d62728" />
<circle cx="368.0" cy="665.8641171961226" r="4" fill="#d62728" />
<circle cx="464.0" cy="648.8739856438315" r="4" fill="#d62728" />
<circle cx="560.0" cy="615.4246641502584" r="4" fill="#d62728" />
<circle cx="656.0" cy="580.2872206114257" r="4" fill="#d62728" />
<circle cx="752.0" cy="547.9406240022561" r="4" fill="#d62728" />
<circle cx="848.0" cy="520.8353740658686" r="4" fill="#d62728" />
<circle cx="944.0" cy="495.66329614905266" r="4" fill="#d62728" />
<circle cx="1040.0" cy="479.8167311435504" r="4" fill="#d62728" />
<circle cx="1136.0" cy="464.1199189001276" r="4" fill="#d62728" />
<circle cx="1232.0" cy="441.670618475666" r="4" fill="#d62728" />
<circle cx="1328.0" cy="408.52080250625187" r="4" fill="#d62728" />
<circle cx="1424.0" cy="372.85241735641" r="4" fill="#d62728" />
<circle cx="1520.0" cy="349.9130169833246" r="4" fill="#d62728" />
<path d="M 80.0 887.1306301122984 L 176.0 748.0647696903002 L 272.0 699.9396775129372 L 368.0 665.8641171961226 L 464.0 648.8739856438315 L 560.0 615.4246641502584 L 656.0 580.2872206114257 L 752.0 547.9406240022561 L 848.0 520.8353740658686 L 944.0 495.66329614905266 L 1040.0 479.8167311435504 L 1136.0 464.1199189001276 L 1232.0 441.670618475666 L 1328.0 408.52080250625187 L 1424.0 372.85241735641 L 1520.0 349.9130169833246" fill="none" stroke="#d62728" stroke-width="2" />
<circle cx="80.0" cy="897.2729762713183" r="4" fill="#9467bd" />
<circle cx="176.0" cy="757.6761742383111" r="4" fill="#9467bd" />
<circle cx="272.0" cy="701.083244059726" r="4" fill="#9467bd" />
<circle cx="368.0" cy="666.8987726432173" r="4" fill="#9467bd" />
<circle cx="464.0" cy="651.651218686033" r="4" fill="#9467bd" />
<circle cx="560.0" cy="617.9160055557627" r="4" fill="#9467bd" />
<circle cx="656.0" cy="581.1585094089791" r="4" fill="#9467bd" />
<circle cx="752.0" cy="547.8997823398707" r="4" fill="#9467bd" />
<circle cx="848.0" cy="520.4950268793243" r="4" fill="#9467bd" />
<circle cx="944.0" cy="495.60884059920556" r="4" fill="#9467bd" />
<circle cx="1040.0" cy="479.74866170624153" r="4" fill="#9467bd" />
<circle cx="1136.0" cy="463.94293836312454" r="4" fill="#9467bd" />
<circle cx="1232.0" cy="440.45898249156835" r="4" fill="#9467bd" />
<circle cx="1328.0" cy="407.5542164964661" r="4" fill="#9467bd" />
<circle cx="1424.0" cy="371.19152308607386" r="4" fill="#9467bd" />
<circle cx="1520.0" cy="347.625883889747" r="4" fill="#9467bd" />
<path d="M 80.0 897.2729762713183 L 176.0 757.6761742383111 L 272.0 701.083244059726 L 368.0 666.8987726432173 L 464.0 651.651218686033 L 560.0 617.9160055557627 L 656.0 581.1585094089791 L 752.0 547.8997823398707 L 848.0 520.4950268793243 L 944.0 495.60884059920556 L 1040.0 479.74866170624153 L 1136.0 463.94293836312454 L 1232.0 440.45898249156835 L 1328.0 407.5542164964661 L 1424.0 371.19152308607386 L 1520.0 347.625883889747" fill="none" stroke="#9467bd" stroke-width="2" />
<circle cx="80.0" cy="554.5297455337536" r="4" fill="#66ffbd" />
<circle cx="176.0" cy="594.6226441086712" r="4" fill="#66ffbd" />
<circle cx="272.0" cy="619.1684832022456" r="4" fill="#66ffbd" />
<circle cx="368.0" cy="637.5472312756375" r="4" fill="#66ffbd" />
<circle cx="464.0" cy="642.1895669001017" r="4" fill="#66ffbd" />
<circle cx="560.0" cy="654.2378573037696" r="4" fill="#66ffbd" />
<circle cx="656.0" cy="663.1277258163066" r="4" fill="#66ffbd" />
<circle cx="752.0" cy="674.7539857086596" r="4" fill="#66ffbd" />
<circle cx="848.0" cy="683.970587520279" r="4" fill="#66ffbd" />
<circle cx="944.0" cy="690.4780257270058" r="4" fill="#66ffbd" />
<circle cx="1040.0" cy="696.6587306346503" r="4" fill="#66ffbd" />
<circle cx="1136.0" cy="700.1847274872491" r="4" fill="#66ffbd" />
<circle cx="1232.0" cy="709.9867264597248" r="4" fill="#66ffbd" />
<circle cx="1328.0" cy="725.3976470664503" r="4" fill="#66ffbd" />
<circle cx="1424.0" cy="737.3914819202712" r="4" fill="#66ffbd" />
<circle cx="1520.0" cy="745.6142699471814" r="4" fill="#66ffbd" />
<path d="M 80.0 554.5297455337536 L 176.0 594.6226441086712 L 272.0 619.1684832022456 L 368.0 637.5472312756375 L 464.0 642.1895669001017 L 560.0 654.2378573037696 L 656.0 663.1277258163066 L 752.0 674.7539857086596 L 848.0 683.970587520279 L 944.0 690.4780257270058 L 1040.0 696.6587306346503 L 1136.0 700.1847274872491 L 1232.0 709.9867264597248 L 1328.0 725.3976470664503 L 1424.0 737.3914819202712 L 1520.0 745.6142699471814" fill="none" stroke="#66ffbd" stroke-width="2" />
<text x="80.0" y="940" text-anchor="middle">08-07</text>
<text x="176.0" y="940" text-anchor="middle">08-08</text>
<text x="272.0" y="940" text-anchor="middle">08-09</text>
<text x="368.0" y="940" text-anchor="middle">08-10</text>
<text x="464.0" y="940" text-anchor="middle">08-11</text>
<text x="560.0" y="940" text-anchor="middle">08-12</text>
<text x="656.0" y="940" text-anchor="middle">08-13</text>
<text x="752.0" y="940" text-anchor="middle">08-14</text>
<text x="848.0" y="940" text-anchor="middle">08-15</text>
<text x="944.0" y="940" text-anchor="middle">08-16</text>
<text x="1040.0" y="940" text-anchor="middle">08-17</text>
<text x="1136.0" y="940" text-anchor="middle">08-18</text>
<text x="1232.0" y="940" text-anchor="middle">08-19</text>
<text x="1328.0" y="940" text-anchor="middle">08-20</text>
<text x="1424.0" y="940" text-anchor="middle">08-21</text>
<text x="1520.0" y="940" text-anchor="middle">08-22</text>
<rect x="90" y="100" width="130" height="185" class="legend-box" />
<text x="100" y="120" class="legend-item">图例:</text>
<rect x="100" y="137" width="15" height="15" fill="#1f77b4" rx="3" />
<text x="120" y="145" class="legend-item">构件聚合数据</text>
<rect x="100" y="162" width="15" height="15" fill="#ff7f0e" rx="3" />
<text x="120" y="170" class="legend-item">构件基本信息</text>
<rect x="100" y="187" width="15" height="15" fill="#2ca02c" rx="3" />
<text x="120" y="195" class="legend-item">构件徽标</text>
<rect x="100" y="212" width="15" height="15" fill="#d62728" rx="3" />
<text x="120" y="220" class="legend-item">构件扩展元数据</text>
<rect x="100" y="237" width="15" height="15" fill="#9467bd" rx="3" />
<text x="120" y="245" class="legend-item">构件版本信息</text>
<rect x="100" y="262" width="15" height="15" fill="#66ffbd" rx="3" />
<text x="120" y="270" class="legend-item">数据量偏差</text>
<text x="1520" y="990" text-anchor="end" font-size="10" fill="#666">生成时间: 2025-08-22 01:51:21</text>
</svg>