<svg xmlns="http://www.w3.org/2000/svg" width="1600" height="1000" viewBox="0 0 1600 1000">
<style>
  text {
    font-family: Arial, sans-serif;
    font-size: 12px;
    fill: #333;
  }
  .axis-label { font-size: 14px; }
  .title { font-size: 18px; font-weight: bold; }
  .legend-item { font-size: 11px; }
  .legend-box { fill: white; fill-opacity: 0.85; stroke: #cccccc; stroke-width: 1; rx: 5; }
</style>
<text x="800.0" y="30" text-anchor="middle" class="title">Daily Data Growth Trend</text>
<text x="800.0" y="980" text-anchor="middle" class="axis-label">Date</text>
<g transform="rotate(-90)">
<text x="-500.0" y="20" text-anchor="middle" class="axis-label">Count</text>
</g>
<rect x="0" y="0" width="1600" height="1000" fill="#f8f8f8" />
<line x1="80" y1="920.0" x2="1520" y2="920.0" stroke="#e0e0e0" stroke-width="1" />
<text x="70" y="925.0" text-anchor="end">0</text>
<line x1="80" y1="752.0" x2="1520" y2="752.0" stroke="#e0e0e0" stroke-width="1" />
<text x="70" y="757.0" text-anchor="end">22.9k</text>
<line x1="80" y1="584.0" x2="1520" y2="584.0" stroke="#e0e0e0" stroke-width="1" />
<text x="70" y="589.0" text-anchor="end">45.9k</text>
<line x1="80" y1="416.0" x2="1520" y2="416.0" stroke="#e0e0e0" stroke-width="1" />
<text x="70" y="421.0" text-anchor="end">68.8k</text>
<line x1="80" y1="248.0" x2="1520" y2="248.0" stroke="#e0e0e0" stroke-width="1" />
<text x="70" y="253.0" text-anchor="end">91.8k</text>
<line x1="80" y1="80.0" x2="1520" y2="80.0" stroke="#e0e0e0" stroke-width="1" />
<text x="70" y="85.0" text-anchor="end">114.7k</text>
<line x1="80" y1="80" x2="80" y2="920" stroke="#333333" stroke-width="2" />
<line x1="80" y1="920" x2="1520" y2="920" stroke="#333333" stroke-width="2" />
<circle cx="80.0" cy="920.0" r="4" fill="#1f77b4" />
<circle cx="104.0" cy="884.2157087035698" r="4" fill="#1f77b4" />
<circle cx="128.0" cy="808.3790733640199" r="4" fill="#1f77b4" />
<circle cx="152.0" cy="777.873111450717" r="4" fill="#1f77b4" />
<circle cx="176.0" cy="759.5124317102409" r="4" fill="#1f77b4" />
<circle cx="200.0" cy="750.295487614045" r="4" fill="#1f77b4" />
<circle cx="224.0" cy="731.9348078735691" r="4" fill="#1f77b4" />
<circle cx="248.0" cy="712.1172799399691" r="4" fill="#1f77b4" />
<circle cx="272.0" cy="693.8517711869836" r="4" fill="#1f77b4" />
<circle cx="296.0" cy="678.9611720673151" r="4" fill="#1f77b4" />
<circle cx="320.0" cy="665.3810042369391" r="4" fill="#1f77b4" />
<circle cx="344.0" cy="656.84489874356" r="4" fill="#1f77b4" />
<circle cx="368.0" cy="648.3966433924797" r="4" fill="#1f77b4" />
<circle cx="392.0" cy="635.6949769850929" r="4" fill="#1f77b4" />
<circle cx="416.0" cy="617.6564144330464" r="4" fill="#1f77b4" />
<circle cx="440.0" cy="598.1463619974927" r="4" fill="#1f77b4" />
<circle cx="464.0" cy="585.1957868535923" r="4" fill="#1f77b4" />
<circle cx="488.0" cy="567.4720206447835" r="4" fill="#1f77b4" />
<circle cx="512.0" cy="560.1511754532061" r="4" fill="#1f77b4" />
<circle cx="536.0" cy="553.4086770317633" r="4" fill="#1f77b4" />
<circle cx="560.0" cy="538.9060827072485" r="4" fill="#1f77b4" />
<circle cx="584.0" cy="524.6450762740558" r="4" fill="#1f77b4" />
<circle cx="608.0" cy="512.016618318585" r="4" fill="#1f77b4" />
<circle cx="632.0" cy="494.5856859174392" r="4" fill="#1f77b4" />
<circle cx="656.0" cy="482.5868206484439" r="4" fill="#1f77b4" />
<circle cx="680.0" cy="475.1927670049507" r="4" fill="#1f77b4" />
<circle cx="704.0" cy="466.8543243317441" r="4" fill="#1f77b4" />
<circle cx="728.0" cy="456.14392781646643" r="4" fill="#1f77b4" />
<circle cx="752.0" cy="446.84645442316315" r="4" fill="#1f77b4" />
<circle cx="776.0" cy="438.9472624614512" r="4" fill="#1f77b4" />
<circle cx="800.0" cy="425.5354740704815" r="4" fill="#1f77b4" />
<circle cx="824.0" cy="414.5908105090733" r="4" fill="#1f77b4" />
<circle cx="848.0" cy="397.8992834722769" r="4" fill="#1f77b4" />
<circle cx="872.0" cy="393.0089588843032" r="4" fill="#1f77b4" />
<circle cx="896.0" cy="387.4597582290876" r="4" fill="#1f77b4" />
<circle cx="920.0" cy="380.10230881155235" r="4" fill="#1f77b4" />
<circle cx="944.0" cy="374.18706589675776" r="4" fill="#1f77b4" />
<circle cx="968.0" cy="365.3947308216734" r="4" fill="#1f77b4" />
<circle cx="992.0" cy="355.5335523486186" r="4" fill="#1f77b4" />
<circle cx="1016.0" cy="351.05319509137337" r="4" fill="#1f77b4" />
<circle cx="1040.0" cy="346.1921538841659" r="4" fill="#1f77b4" />
<circle cx="1064.0" cy="338.1465450186224" r="4" fill="#1f77b4" />
<circle cx="1088.0" cy="331.39672575198813" r="4" fill="#1f77b4" />
<circle cx="1112.0" cy="309.0754687628687" r="4" fill="#1f77b4" />
<circle cx="1136.0" cy="300.45151312719054" r="4" fill="#1f77b4" />
<circle cx="1160.0" cy="291.30045663771887" r="4" fill="#1f77b4" />
<circle cx="1184.0" cy="284.7995461075982" r="4" fill="#1f77b4" />
<circle cx="1208.0" cy="278.16686036402905" r="4" fill="#1f77b4" />
<circle cx="1232.0" cy="273.98665775963843" r="4" fill="#1f77b4" />
<circle cx="1256.0" cy="265.9996156556275" r="4" fill="#1f77b4" />
<circle cx="1280.0" cy="265.54572325374966" r="4" fill="#1f77b4" />
<circle cx="1304.0" cy="265.51643987298337" r="4" fill="#1f77b4" />
<circle cx="1328.0" cy="264.68186352114355" r="4" fill="#1f77b4" />
<circle cx="1352.0" cy="264.484200700971" r="4" fill="#1f77b4" />
<circle cx="1376.0" cy="264.484200700971" r="4" fill="#1f77b4" />
<circle cx="1400.0" cy="264.47687985577943" r="4" fill="#1f77b4" />
<circle cx="1424.0" cy="264.46223816539623" r="4" fill="#1f77b4" />
<circle cx="1448.0" cy="264.4549173202047" r="4" fill="#1f77b4" />
<circle cx="1472.0" cy="256.5996504296421" r="4" fill="#1f77b4" />
<circle cx="1496.0" cy="185.1774847406133" r="4" fill="#1f77b4" />
<circle cx="1520.0" cy="178.68389505568416" r="4" fill="#1f77b4" />
<path d="M 80.0 920.0 L 104.0 884.2157087035698 L 128.0 808.3790733640199 L 152.0 777.873111450717 L 176.0 759.5124317102409 L 200.0 750.295487614045 L 224.0 731.9348078735691 L 248.0 712.1172799399691 L 272.0 693.8517711869836 L 296.0 678.9611720673151 L 320.0 665.3810042369391 L 344.0 656.84489874356 L 368.0 648.3966433924797 L 392.0 635.6949769850929 L 416.0 617.6564144330464 L 440.0 598.1463619974927 L 464.0 585.1957868535923 L 488.0 567.4720206447835 L 512.0 560.1511754532061 L 536.0 553.4086770317633 L 560.0 538.9060827072485 L 584.0 524.6450762740558 L 608.0 512.016618318585 L 632.0 494.5856859174392 L 656.0 482.5868206484439 L 680.0 475.1927670049507 L 704.0 466.8543243317441 L 728.0 456.14392781646643 L 752.0 446.84645442316315 L 776.0 438.9472624614512 L 800.0 425.5354740704815 L 824.0 414.5908105090733 L 848.0 397.8992834722769 L 872.0 393.0089588843032 L 896.0 387.4597582290876 L 920.0 380.10230881155235 L 944.0 374.18706589675776 L 968.0 365.3947308216734 L 992.0 355.5335523486186 L 1016.0 351.05319509137337 L 1040.0 346.1921538841659 L 1064.0 338.1465450186224 L 1088.0 331.39672575198813 L 1112.0 309.0754687628687 L 1136.0 300.45151312719054 L 1160.0 291.30045663771887 L 1184.0 284.7995461075982 L 1208.0 278.16686036402905 L 1232.0 273.98665775963843 L 1256.0 265.9996156556275 L 1280.0 265.54572325374966 L 1304.0 265.51643987298337 L 1328.0 264.68186352114355 L 1352.0 264.484200700971 L 1376.0 264.484200700971 L 1400.0 264.47687985577943 L 1424.0 264.46223816539623 L 1448.0 264.4549173202047 L 1472.0 256.5996504296421 L 1496.0 185.1774847406133 L 1520.0 178.68389505568416" fill="none" stroke="#1f77b4" stroke-width="2" />
<circle cx="80.0" cy="920.0" r="4" fill="#ff7f0e" />
<circle cx="104.0" cy="658.8215269452858" r="4" fill="#ff7f0e" />
<circle cx="128.0" cy="604.3324761843755" r="4" fill="#ff7f0e" />
<circle cx="152.0" cy="586.8576187120804" r="4" fill="#ff7f0e" />
<circle cx="176.0" cy="578.2483047667854" r="4" fill="#ff7f0e" />
<circle cx="200.0" cy="571.5131271905342" r="4" fill="#ff7f0e" />
<circle cx="224.0" cy="559.5069410763473" r="4" fill="#ff7f0e" />
<circle cx="248.0" cy="544.2722622326748" r="4" fill="#ff7f0e" />
<circle cx="272.0" cy="532.1196592146564" r="4" fill="#ff7f0e" />
<circle cx="296.0" cy="522.1047429925785" r="4" fill="#ff7f0e" />
<circle cx="320.0" cy="511.9726932474354" r="4" fill="#ff7f0e" />
<circle cx="344.0" cy="506.67972217392503" r="4" fill="#ff7f0e" />
<circle cx="368.0" cy="500.12756572746326" r="4" fill="#ff7f0e" />
<circle cx="392.0" cy="492.6749453224375" r="4" fill="#ff7f0e" />
<circle cx="416.0" cy="482.7039541715091" r="4" fill="#ff7f0e" />
<circle cx="440.0" cy="469.35805338726357" r="4" fill="#ff7f0e" />
<circle cx="464.0" cy="460.79266451311804" r="4" fill="#ff7f0e" />
<circle cx="488.0" cy="450.09690968822355" r="4" fill="#ff7f0e" />
<circle cx="512.0" cy="443.58867831291127" r="4" fill="#ff7f0e" />
<circle cx="536.0" cy="438.3981990720829" r="4" fill="#ff7f0e" />
<circle cx="560.0" cy="426.60431746845177" r="4" fill="#ff7f0e" />
<circle cx="584.0" cy="417.00668942229385" r="4" fill="#ff7f0e" />
<circle cx="608.0" cy="405.6447376849658" r="4" fill="#ff7f0e" />
<circle cx="632.0" cy="390.73949687491427" r="4" fill="#ff7f0e" />
<circle cx="656.0" cy="381.42738179122784" r="4" fill="#ff7f0e" />
<circle cx="680.0" cy="370.31433879041333" r="4" fill="#ff7f0e" />
<circle cx="704.0" cy="367.55438015318873" r="4" fill="#ff7f0e" />
<circle cx="728.0" cy="358.15441492720333" r="4" fill="#ff7f0e" />
<circle cx="752.0" cy="351.86580890763844" r="4" fill="#ff7f0e" />
<circle cx="776.0" cy="345.8480741601618" r="4" fill="#ff7f0e" />
<circle cx="800.0" cy="334.6618227074316" r="4" fill="#ff7f0e" />
<circle cx="824.0" cy="324.61762310458744" r="4" fill="#ff7f0e" />
<circle cx="848.0" cy="313.5485051749225" r="4" fill="#ff7f0e" />
<circle cx="872.0" cy="309.5073986291718" r="4" fill="#ff7f0e" />
<circle cx="896.0" cy="305.363800250739" r="4" fill="#ff7f0e" />
<circle cx="920.0" cy="299.7779953695655" r="4" fill="#ff7f0e" />
<circle cx="944.0" cy="294.9315958527412" r="4" fill="#ff7f0e" />
<circle cx="968.0" cy="287.41308784099124" r="4" fill="#ff7f0e" />
<circle cx="992.0" cy="279.484612498513" r="4" fill="#ff7f0e" />
<circle cx="1016.0" cy="274.1403955086615" r="4" fill="#ff7f0e" />
<circle cx="1040.0" cy="270.94118615994216" r="4" fill="#ff7f0e" />
<circle cx="1064.0" cy="264.27921703560685" r="4" fill="#ff7f0e" />
<circle cx="1088.0" cy="259.77689724278673" r="4" fill="#ff7f0e" />
<circle cx="1112.0" cy="238.11451632090927" r="4" fill="#ff7f0e" />
<circle cx="1136.0" cy="229.72482773136164" r="4" fill="#ff7f0e" />
<circle cx="1160.0" cy="222.1038278869296" r="4" fill="#ff7f0e" />
<circle cx="1184.0" cy="214.39497790019857" r="4" fill="#ff7f0e" />
<circle cx="1208.0" cy="209.9292623333364" r="4" fill="#ff7f0e" />
<circle cx="1232.0" cy="206.63488199712663" r="4" fill="#ff7f0e" />
<circle cx="1256.0" cy="200.8514142957805" r="4" fill="#ff7f0e" />
<circle cx="1280.0" cy="193.84536544744094" r="4" fill="#ff7f0e" />
<circle cx="1304.0" cy="187.88619746149698" r="4" fill="#ff7f0e" />
<circle cx="1328.0" cy="182.6664348399023" r="4" fill="#ff7f0e" />
<circle cx="1352.0" cy="171.7364129688773" r="4" fill="#ff7f0e" />
<circle cx="1376.0" cy="168.15651967019596" r="4" fill="#ff7f0e" />
<circle cx="1400.0" cy="162.27056013616777" r="4" fill="#ff7f0e" />
<circle cx="1424.0" cy="153.36109153801806" r="4" fill="#ff7f0e" />
<circle cx="1448.0" cy="147.6801156693541" r="4" fill="#ff7f0e" />
<circle cx="1472.0" cy="139.89073638551577" r="4" fill="#ff7f0e" />
<circle cx="1496.0" cy="130.73235905085244" r="4" fill="#ff7f0e" />
<circle cx="1520.0" cy="121.72771946521232" r="4" fill="#ff7f0e" />
<path d="M 80.0 920.0 L 104.0 658.8215269452858 L 128.0 604.3324761843755 L 152.0 586.8576187120804 L 176.0 578.2483047667854 L 200.0 571.5131271905342 L 224.0 559.5069410763473 L 248.0 544.2722622326748 L 272.0 532.1196592146564 L 296.0 522.1047429925785 L 320.0 511.9726932474354 L 344.0 506.67972217392503 L 368.0 500.12756572746326 L 392.0 492.6749453224375 L 416.0 482.7039541715091 L 440.0 469.35805338726357 L 464.0 460.79266451311804 L 488.0 450.09690968822355 L 512.0 443.58867831291127 L 536.0 438.3981990720829 L 560.0 426.60431746845177 L 584.0 417.00668942229385 L 608.0 405.6447376849658 L 632.0 390.73949687491427 L 656.0 381.42738179122784 L 680.0 370.31433879041333 L 704.0 367.55438015318873 L 728.0 358.15441492720333 L 752.0 351.86580890763844 L 776.0 345.8480741601618 L 800.0 334.6618227074316 L 824.0 324.61762310458744 L 848.0 313.5485051749225 L 872.0 309.5073986291718 L 896.0 305.363800250739 L 920.0 299.7779953695655 L 944.0 294.9315958527412 L 968.0 287.41308784099124 L 992.0 279.484612498513 L 1016.0 274.1403955086615 L 1040.0 270.94118615994216 L 1064.0 264.27921703560685 L 1088.0 259.77689724278673 L 1112.0 238.11451632090927 L 1136.0 229.72482773136164 L 1160.0 222.1038278869296 L 1184.0 214.39497790019857 L 1208.0 209.9292623333364 L 1232.0 206.63488199712663 L 1256.0 200.8514142957805 L 1280.0 193.84536544744094 L 1304.0 187.88619746149698 L 1328.0 182.6664348399023 L 1352.0 171.7364129688773 L 1376.0 168.15651967019596 L 1400.0 162.27056013616777 L 1424.0 153.36109153801806 L 1448.0 147.6801156693541 L 1472.0 139.89073638551577 L 1496.0 130.73235905085244 L 1520.0 121.72771946521232" fill="none" stroke="#ff7f0e" stroke-width="2" />
<circle cx="80.0" cy="920.0" r="4" fill="#2ca02c" />
<circle cx="104.0" cy="653.6896144659902" r="4" fill="#2ca02c" />
<circle cx="128.0" cy="599.4128682156355" r="4" fill="#2ca02c" />
<circle cx="152.0" cy="582.1063901827466" r="4" fill="#2ca02c" />
<circle cx="176.0" cy="573.6288514509" r="4" fill="#2ca02c" />
<circle cx="200.0" cy="566.908315565032" r="4" fill="#2ca02c" />
<circle cx="224.0" cy="555.0265838191019" r="4" fill="#2ca02c" />
<circle cx="248.0" cy="539.9895677956019" r="4" fill="#2ca02c" />
<circle cx="272.0" cy="527.9760608362235" r="4" fill="#2ca02c" />
<circle cx="296.0" cy="518.0416739112532" r="4" fill="#2ca02c" />
<circle cx="320.0" cy="507.96087008245104" r="4" fill="#2ca02c" />
<circle cx="344.0" cy="502.74842830604797" r="4" fill="#2ca02c" />
<circle cx="368.0" cy="496.1962718595862" r="4" fill="#2ca02c" />
<circle cx="392.0" cy="488.7656139901352" r="4" fill="#2ca02c" />
<circle cx="416.0" cy="479.0142481949541" r="4" fill="#2ca02c" />
<circle cx="440.0" cy="465.95386037318013" r="4" fill="#2ca02c" />
<circle cx="464.0" cy="457.4250757249925" r="4" fill="#2ca02c" />
<circle cx="488.0" cy="446.7366417452895" r="4" fill="#2ca02c" />
<circle cx="512.0" cy="440.22108952478567" r="4" fill="#2ca02c" />
<circle cx="536.0" cy="435.0452519743405" r="4" fill="#2ca02c" />
<circle cx="560.0" cy="423.3318996678167" r="4" fill="#2ca02c" />
<circle cx="584.0" cy="413.75623415723345" r="4" fill="#2ca02c" />
<circle cx="608.0" cy="402.4089241102886" r="4" fill="#2ca02c" />
<circle cx="632.0" cy="387.5256458358118" r="4" fill="#2ca02c" />
<circle cx="656.0" cy="378.2428141328917" r="4" fill="#2ca02c" />
<circle cx="680.0" cy="367.1370919772688" r="4" fill="#2ca02c" />
<circle cx="704.0" cy="364.38445418523577" r="4" fill="#2ca02c" />
<circle cx="728.0" cy="354.9918098044419" r="4" fill="#2ca02c" />
<circle cx="752.0" cy="348.72516632045176" r="4" fill="#2ca02c" />
<circle cx="776.0" cy="342.74403579893306" r="4" fill="#2ca02c" />
<circle cx="800.0" cy="331.81401392790804" r="4" fill="#2ca02c" />
<circle cx="824.0" cy="321.79909770583015" r="4" fill="#2ca02c" />
<circle cx="848.0" cy="311.0374552742114" r="4" fill="#2ca02c" />
<circle cx="872.0" cy="306.9963487284607" r="4" fill="#2ca02c" />
<circle cx="896.0" cy="302.90399626636895" r="4" fill="#2ca02c" />
<circle cx="920.0" cy="297.32551223038706" r="4" fill="#2ca02c" />
<circle cx="944.0" cy="292.50107524913756" r="4" fill="#2ca02c" />
<circle cx="968.0" cy="284.98256723738757" r="4" fill="#2ca02c" />
<circle cx="992.0" cy="277.09069612086716" r="4" fill="#2ca02c" />
<circle cx="1016.0" cy="271.75379997620723" r="4" fill="#2ca02c" />
<circle cx="1040.0" cy="268.554590627488" r="4" fill="#2ca02c" />
<circle cx="1064.0" cy="261.8999423483441" r="4" fill="#2ca02c" />
<circle cx="1088.0" cy="257.47083100743987" r="4" fill="#2ca02c" />
<circle cx="1112.0" cy="235.99879206054345" r="4" fill="#2ca02c" />
<circle cx="1136.0" cy="227.6237451613789" r="4" fill="#2ca02c" />
<circle cx="1160.0" cy="220.22969151788573" r="4" fill="#2ca02c" />
<circle cx="1184.0" cy="212.52816237634636" r="4" fill="#2ca02c" />
<circle cx="1208.0" cy="208.0624468094842" r="4" fill="#2ca02c" />
<circle cx="1232.0" cy="204.76806647327442" r="4" fill="#2ca02c" />
<circle cx="1256.0" cy="198.99924046231138" r="4" fill="#2ca02c" />
<circle cx="1280.0" cy="191.99319161397182" r="4" fill="#2ca02c" />
<circle cx="1304.0" cy="186.03402362802785" r="4" fill="#2ca02c" />
<circle cx="1328.0" cy="180.82890269681639" r="4" fill="#2ca02c" />
<circle cx="1352.0" cy="169.89888082579137" r="4" fill="#2ca02c" />
<circle cx="1376.0" cy="166.31898752711004" r="4" fill="#2ca02c" />
<circle cx="1400.0" cy="160.43302799308185" r="4" fill="#2ca02c" />
<circle cx="1424.0" cy="151.53820108531534" r="4" fill="#2ca02c" />
<circle cx="1448.0" cy="145.87918775222602" r="4" fill="#2ca02c" />
<circle cx="1472.0" cy="138.09712931357933" r="4" fill="#2ca02c" />
<circle cx="1496.0" cy="129.00463958564023" r="4" fill="#2ca02c" />
<circle cx="1520.0" cy="120.0" r="4" fill="#2ca02c" />
<path d="M 80.0 920.0 L 104.0 653.6896144659902 L 128.0 599.4128682156355 L 152.0 582.1063901827466 L 176.0 573.6288514509 L 200.0 566.908315565032 L 224.0 555.0265838191019 L 248.0 539.9895677956019 L 272.0 527.9760608362235 L 296.0 518.0416739112532 L 320.0 507.96087008245104 L 344.0 502.74842830604797 L 368.0 496.1962718595862 L 392.0 488.7656139901352 L 416.0 479.0142481949541 L 440.0 465.95386037318013 L 464.0 457.4250757249925 L 488.0 446.7366417452895 L 512.0 440.22108952478567 L 536.0 435.0452519743405 L 560.0 423.3318996678167 L 584.0 413.75623415723345 L 608.0 402.4089241102886 L 632.0 387.5256458358118 L 656.0 378.2428141328917 L 680.0 367.1370919772688 L 704.0 364.38445418523577 L 728.0 354.9918098044419 L 752.0 348.72516632045176 L 776.0 342.74403579893306 L 800.0 331.81401392790804 L 824.0 321.79909770583015 L 848.0 311.0374552742114 L 872.0 306.9963487284607 L 896.0 302.90399626636895 L 920.0 297.32551223038706 L 944.0 292.50107524913756 L 968.0 284.98256723738757 L 992.0 277.09069612086716 L 1016.0 271.75379997620723 L 1040.0 268.554590627488 L 1064.0 261.8999423483441 L 1088.0 257.47083100743987 L 1112.0 235.99879206054345 L 1136.0 227.6237451613789 L 1160.0 220.22969151788573 L 1184.0 212.52816237634636 L 1208.0 208.0624468094842 L 1232.0 204.76806647327442 L 1256.0 198.99924046231138 L 1280.0 191.99319161397182 L 1304.0 186.03402362802785 L 1328.0 180.82890269681639 L 1352.0 169.89888082579137 L 1376.0 166.31898752711004 L 1400.0 160.43302799308185 L 1424.0 151.53820108531534 L 1448.0 145.87918775222602 L 1472.0 138.09712931357933 L 1496.0 129.00463958564023 L 1520.0 120.0" fill="none" stroke="#2ca02c" stroke-width="2" />
<circle cx="80.0" cy="920.0" r="4" fill="#d62728" />
<circle cx="104.0" cy="868.3294746378469" r="4" fill="#d62728" />
<circle cx="128.0" cy="793.5470410058841" r="4" fill="#d62728" />
<circle cx="152.0" cy="767.6678532536581" r="4" fill="#d62728" />
<circle cx="176.0" cy="749.34377773914" r="4" fill="#d62728" />
<circle cx="200.0" cy="740.2073629400514" r="4" fill="#d62728" />
<circle cx="224.0" cy="722.2200463043458" r="4" fill="#d62728" />
<circle cx="248.0" cy="703.3249448648846" r="4" fill="#d62728" />
<circle cx="272.0" cy="685.9306166896969" r="4" fill="#d62728" />
<circle cx="296.0" cy="671.3548139132663" r="4" fill="#d62728" />
<circle cx="320.0" cy="657.8185711540398" r="4" fill="#d62728" />
<circle cx="344.0" cy="649.2971073510437" r="4" fill="#d62728" />
<circle cx="368.0" cy="640.856172845155" r="4" fill="#d62728" />
<circle cx="392.0" cy="628.7840991242439" r="4" fill="#d62728" />
<circle cx="416.0" cy="610.957841082753" r="4" fill="#d62728" />
<circle cx="440.0" cy="591.7772266808204" r="4" fill="#d62728" />
<circle cx="464.0" cy="579.4416025330124" r="4" fill="#d62728" />
<circle cx="488.0" cy="561.937461679951" r="4" fill="#d62728" />
<circle cx="512.0" cy="554.6166164883737" r="4" fill="#d62728" />
<circle cx="536.0" cy="547.9473265188467" r="4" fill="#d62728" />
<circle cx="560.0" cy="533.6204324789297" r="4" fill="#d62728" />
<circle cx="584.0" cy="520.2232857783431" r="4" fill="#d62728" />
<circle cx="608.0" cy="507.6460737392132" r="4" fill="#d62728" />
<circle cx="632.0" cy="490.22978302845064" r="4" fill="#d62728" />
<circle cx="656.0" cy="478.62624339980056" r="4" fill="#d62728" />
<circle cx="680.0" cy="471.2321897563074" r="4" fill="#d62728" />
<circle cx="704.0" cy="462.8864262379092" r="4" fill="#d62728" />
<circle cx="728.0" cy="452.1760297226315" r="4" fill="#d62728" />
<circle cx="752.0" cy="443.5008281706123" r="4" fill="#d62728" />
<circle cx="776.0" cy="435.6162778992835" r="4" fill="#d62728" />
<circle cx="800.0" cy="422.23377288908006" r="4" fill="#d62728" />
<circle cx="824.0" cy="411.2964301728635" r="4" fill="#d62728" />
<circle cx="848.0" cy="394.692753278366" r="4" fill="#d62728" />
<circle cx="872.0" cy="389.824391225967" r="4" fill="#d62728" />
<circle cx="896.0" cy="384.2751905707514" r="4" fill="#d62728" />
<circle cx="920.0" cy="376.9689870695572" r="4" fill="#d62728" />
<circle cx="944.0" cy="371.0464233095711" r="4" fill="#d62728" />
<circle cx="968.0" cy="362.2980133056361" r="4" fill="#d62728" />
<circle cx="992.0" cy="352.9858982219497" r="4" fill="#d62728" />
<circle cx="1016.0" cy="348.5275035002792" r="4" fill="#d62728" />
<circle cx="1040.0" cy="343.66646229307173" r="4" fill="#d62728" />
<circle cx="1064.0" cy="335.642815963103" r="4" fill="#d62728" />
<circle cx="1088.0" cy="328.9588843031928" r="4" fill="#d62728" />
<circle cx="1112.0" cy="306.7035149207976" r="4" fill="#d62728" />
<circle cx="1136.0" cy="298.1015218206942" r="4" fill="#d62728" />
<circle cx="1160.0" cy="288.9504653312225" r="4" fill="#d62728" />
<circle cx="1184.0" cy="282.4422339559103" r="4" fill="#d62728" />
<circle cx="1208.0" cy="275.80954821234116" r="4" fill="#d62728" />
<circle cx="1232.0" cy="271.6366664531421" r="4" fill="#d62728" />
<circle cx="1256.0" cy="263.98638322794375" r="4" fill="#d62728" />
<circle cx="1280.0" cy="263.53981167125744" r="4" fill="#d62728" />
<circle cx="1304.0" cy="263.53981167125744" r="4" fill="#d62728" />
<circle cx="1328.0" cy="263.53981167125744" r="4" fill="#d62728" />
<circle cx="1352.0" cy="263.53981167125744" r="4" fill="#d62728" />
<circle cx="1376.0" cy="263.53981167125744" r="4" fill="#d62728" />
<circle cx="1400.0" cy="263.53981167125744" r="4" fill="#d62728" />
<circle cx="1424.0" cy="263.53981167125744" r="4" fill="#d62728" />
<circle cx="1448.0" cy="263.53981167125744" r="4" fill="#d62728" />
<circle cx="1472.0" cy="255.68454478069498" r="4" fill="#d62728" />
<circle cx="1496.0" cy="184.24773740128296" r="4" fill="#d62728" />
<circle cx="1520.0" cy="177.75414771635394" r="4" fill="#d62728" />
<path d="M 80.0 920.0 L 104.0 868.3294746378469 L 128.0 793.5470410058841 L 152.0 767.6678532536581 L 176.0 749.34377773914 L 200.0 740.2073629400514 L 224.0 722.2200463043458 L 248.0 703.3249448648846 L 272.0 685.9306166896969 L 296.0 671.3548139132663 L 320.0 657.8185711540398 L 344.0 649.2971073510437 L 368.0 640.856172845155 L 392.0 628.7840991242439 L 416.0 610.957841082753 L 440.0 591.7772266808204 L 464.0 579.4416025330124 L 488.0 561.937461679951 L 512.0 554.6166164883737 L 536.0 547.9473265188467 L 560.0 533.6204324789297 L 584.0 520.2232857783431 L 608.0 507.6460737392132 L 632.0 490.22978302845064 L 656.0 478.62624339980056 L 680.0 471.2321897563074 L 704.0 462.8864262379092 L 728.0 452.1760297226315 L 752.0 443.5008281706123 L 776.0 435.6162778992835 L 800.0 422.23377288908006 L 824.0 411.2964301728635 L 848.0 394.692753278366 L 872.0 389.824391225967 L 896.0 384.2751905707514 L 920.0 376.9689870695572 L 944.0 371.0464233095711 L 968.0 362.2980133056361 L 992.0 352.9858982219497 L 1016.0 348.5275035002792 L 1040.0 343.66646229307173 L 1064.0 335.642815963103 L 1088.0 328.9588843031928 L 1112.0 306.7035149207976 L 1136.0 298.1015218206942 L 1160.0 288.9504653312225 L 1184.0 282.4422339559103 L 1208.0 275.80954821234116 L 1232.0 271.6366664531421 L 1256.0 263.98638322794375 L 1280.0 263.53981167125744 L 1304.0 263.53981167125744 L 1328.0 263.53981167125744 L 1352.0 263.53981167125744 L 1376.0 263.53981167125744 L 1400.0 263.53981167125744 L 1424.0 263.53981167125744 L 1448.0 263.53981167125744 L 1472.0 255.68454478069498 L 1496.0 184.24773740128296 L 1520.0 177.75414771635394" fill="none" stroke="#d62728" stroke-width="2" />
<circle cx="80.0" cy="920.0" r="4" fill="#9467bd" />
<circle cx="104.0" cy="873.783504305572" r="4" fill="#9467bd" />
<circle cx="128.0" cy="798.7155577111378" r="4" fill="#9467bd" />
<circle cx="152.0" cy="768.2828042497506" r="4" fill="#9467bd" />
<circle cx="176.0" cy="749.9001619736998" r="4" fill="#9467bd" />
<circle cx="200.0" cy="741.7008153591332" r="4" fill="#9467bd" />
<circle cx="224.0" cy="723.5597609744045" r="4" fill="#9467bd" />
<circle cx="248.0" cy="703.7934789571457" r="4" fill="#9467bd" />
<circle cx="272.0" cy="685.9086541541221" r="4" fill="#9467bd" />
<circle cx="296.0" cy="671.1717927834768" r="4" fill="#9467bd" />
<circle cx="320.0" cy="657.7892877732734" r="4" fill="#9467bd" />
<circle cx="344.0" cy="649.2605031250857" r="4" fill="#9467bd" />
<circle cx="368.0" cy="640.7610018576645" r="4" fill="#9467bd" />
<circle cx="392.0" cy="628.1325439021934" r="4" fill="#9467bd" />
<circle cx="416.0" cy="610.438061074151" r="4" fill="#9467bd" />
<circle cx="440.0" cy="590.8840835674479" r="4" fill="#9467bd" />
<circle cx="464.0" cy="578.2117005408275" r="4" fill="#9467bd" />
<circle cx="488.0" cy="562.9989842327298" r="4" fill="#9467bd" />
<circle cx="512.0" cy="555.6708181959607" r="4" fill="#9467bd" />
<circle cx="536.0" cy="548.9283197745181" r="4" fill="#9467bd" />
<circle cx="560.0" cy="534.3891212240453" r="4" fill="#9467bd" />
<circle cx="584.0" cy="520.5746863475388" r="4" fill="#9467bd" />
<circle cx="608.0" cy="508.01211599879207" r="4" fill="#9467bd" />
<circle cx="632.0" cy="490.52993768130534" r="4" fill="#9467bd" />
<circle cx="656.0" cy="478.7580186132489" r="4" fill="#9467bd" />
<circle cx="680.0" cy="471.3859275053305" r="4" fill="#9467bd" />
<circle cx="704.0" cy="463.0401639869323" r="4" fill="#9467bd" />
<circle cx="728.0" cy="452.3151257812715" r="4" fill="#9467bd" />
<circle cx="752.0" cy="443.3544112667808" r="4" fill="#9467bd" />
<circle cx="776.0" cy="435.46986099545194" r="4" fill="#9467bd" />
<circle cx="800.0" cy="422.27037711503795" r="4" fill="#9467bd" />
<circle cx="824.0" cy="411.581943135335" r="4" fill="#9467bd" />
<circle cx="848.0" cy="394.88309525334705" r="4" fill="#9467bd" />
<circle cx="872.0" cy="389.97080812979857" r="4" fill="#9467bd" />
<circle cx="896.0" cy="384.64855367552184" r="4" fill="#9467bd" />
<circle cx="920.0" cy="377.3203876387529" r="4" fill="#9467bd" />
<circle cx="944.0" cy="371.3758613431921" r="4" fill="#9467bd" />
<circle cx="968.0" cy="362.56156373253293" r="4" fill="#9467bd" />
<circle cx="992.0" cy="352.70038525947825" r="4" fill="#9467bd" />
<circle cx="1016.0" cy="348.2200280022329" r="4" fill="#9467bd" />
<circle cx="1040.0" cy="343.35898679502554" r="4" fill="#9467bd" />
<circle cx="1064.0" cy="335.32801961986513" r="4" fill="#9467bd" />
<circle cx="1088.0" cy="328.56355866284764" r="4" fill="#9467bd" />
<circle cx="1112.0" cy="306.3008684352609" r="4" fill="#9467bd" />
<circle cx="1136.0" cy="297.654950264008" r="4" fill="#9467bd" />
<circle cx="1160.0" cy="288.51121461972787" r="4" fill="#9467bd" />
<circle cx="1184.0" cy="282.00298324441565" r="4" fill="#9467bd" />
<circle cx="1208.0" cy="275.31173073931393" r="4" fill="#9467bd" />
<circle cx="1232.0" cy="271.15349067049794" r="4" fill="#9467bd" />
<circle cx="1256.0" cy="263.1444860309123" r="4" fill="#9467bd" />
<circle cx="1280.0" cy="254.4985678596595" r="4" fill="#9467bd" />
<circle cx="1304.0" cy="248.19532014971128" r="4" fill="#9467bd" />
<circle cx="1328.0" cy="241.32836736001173" r="4" fill="#9467bd" />
<circle cx="1352.0" cy="234.9738737337226" r="4" fill="#9467bd" />
<circle cx="1376.0" cy="225.96191330289082" r="4" fill="#9467bd" />
<circle cx="1400.0" cy="219.7611574256248" r="4" fill="#9467bd" />
<circle cx="1424.0" cy="209.1752152786039" r="4" fill="#9467bd" />
<circle cx="1448.0" cy="202.93785517538004" r="4" fill="#9467bd" />
<circle cx="1472.0" cy="195.5950474482279" r="4" fill="#9467bd" />
<circle cx="1496.0" cy="183.80848668978842" r="4" fill="#9467bd" />
<circle cx="1520.0" cy="177.33685954043403" r="4" fill="#9467bd" />
<path d="M 80.0 920.0 L 104.0 873.783504305572 L 128.0 798.7155577111378 L 152.0 768.2828042497506 L 176.0 749.9001619736998 L 200.0 741.7008153591332 L 224.0 723.5597609744045 L 248.0 703.7934789571457 L 272.0 685.9086541541221 L 296.0 671.1717927834768 L 320.0 657.7892877732734 L 344.0 649.2605031250857 L 368.0 640.7610018576645 L 392.0 628.1325439021934 L 416.0 610.438061074151 L 440.0 590.8840835674479 L 464.0 578.2117005408275 L 488.0 562.9989842327298 L 512.0 555.6708181959607 L 536.0 548.9283197745181 L 560.0 534.3891212240453 L 584.0 520.5746863475388 L 608.0 508.01211599879207 L 632.0 490.52993768130534 L 656.0 478.7580186132489 L 680.0 471.3859275053305 L 704.0 463.0401639869323 L 728.0 452.3151257812715 L 752.0 443.3544112667808 L 776.0 435.46986099545194 L 800.0 422.27037711503795 L 824.0 411.581943135335 L 848.0 394.88309525334705 L 872.0 389.97080812979857 L 896.0 384.64855367552184 L 920.0 377.3203876387529 L 944.0 371.3758613431921 L 968.0 362.56156373253293 L 992.0 352.70038525947825 L 1016.0 348.2200280022329 L 1040.0 343.35898679502554 L 1064.0 335.32801961986513 L 1088.0 328.56355866284764 L 1112.0 306.3008684352609 L 1136.0 297.654950264008 L 1160.0 288.51121461972787 L 1184.0 282.00298324441565 L 1208.0 275.31173073931393 L 1232.0 271.15349067049794 L 1256.0 263.1444860309123 L 1280.0 254.4985678596595 L 1304.0 248.19532014971128 L 1328.0 241.32836736001173 L 1352.0 234.9738737337226 L 1376.0 225.96191330289082 L 1400.0 219.7611574256248 L 1424.0 209.1752152786039 L 1448.0 202.93785517538004 L 1472.0 195.5950474482279 L 1496.0 183.80848668978842 L 1520.0 177.33685954043403" fill="none" stroke="#9467bd" stroke-width="2" />
<circle cx="80.0" cy="920.0" r="4" fill="#66ffbd" />
<circle cx="104.0" cy="689.4739057624203" r="4" fill="#66ffbd" />
<circle cx="128.0" cy="711.0337948516157" r="4" fill="#66ffbd" />
<circle cx="152.0" cy="724.2332787320296" r="4" fill="#66ffbd" />
<circle cx="176.0" cy="734.116419740659" r="4" fill="#66ffbd" />
<circle cx="200.0" cy="736.6128279509869" r="4" fill="#66ffbd" />
<circle cx="224.0" cy="743.091775945533" r="4" fill="#66ffbd" />
<circle cx="248.0" cy="747.872287855633" r="4" fill="#66ffbd" />
<circle cx="272.0" cy="754.12428964924" r="4" fill="#66ffbd" />
<circle cx="296.0" cy="759.0805018439379" r="4" fill="#66ffbd" />
<circle cx="320.0" cy="762.5798658455119" r="4" fill="#66ffbd" />
<circle cx="344.0" cy="765.903529562488" r="4" fill="#66ffbd" />
<circle cx="368.0" cy="767.7996284671066" r="4" fill="#66ffbd" />
<circle cx="392.0" cy="773.0706370050423" r="4" fill="#66ffbd" />
<circle cx="416.0" cy="781.3578337619078" r="4" fill="#66ffbd" />
<circle cx="440.0" cy="787.8074983756875" r="4" fill="#66ffbd" />
<circle cx="464.0" cy="792.2292888714002" r="4" fill="#66ffbd" />
<circle cx="488.0" cy="799.264621100506" r="4" fill="#66ffbd" />
<circle cx="512.0" cy="800.0699140715795" r="4" fill="#66ffbd" />
<circle cx="536.0" cy="801.6365749425771" r="4" fill="#66ffbd" />
<circle cx="560.0" cy="804.4258169605681" r="4" fill="#66ffbd" />
<circle cx="584.0" cy="809.1111578831776" r="4" fill="#66ffbd" />
<circle cx="608.0" cy="810.3923057917036" r="4" fill="#66ffbd" />
<circle cx="632.0" cy="812.9399599183726" r="4" fill="#66ffbd" />
<circle cx="656.0" cy="815.6559934844478" r="4" fill="#66ffbd" />
<circle cx="680.0" cy="811.9443249723181" r="4" fill="#66ffbd" />
<circle cx="704.0" cy="817.5301298534916" r="4" fill="#66ffbd" />
<circle cx="728.0" cy="818.8478819879755" r="4" fill="#66ffbd" />
<circle cx="752.0" cy="821.8787118972886" r="4" fill="#66ffbd" />
<circle cx="776.0" cy="823.7967733374818" r="4" fill="#66ffbd" />
<circle cx="800.0" cy="826.2785398574265" r="4" fill="#66ffbd" />
<circle cx="824.0" cy="827.2082871967568" r="4" fill="#66ffbd" />
<circle cx="848.0" cy="833.1381718019345" r="4" fill="#66ffbd" />
<circle cx="872.0" cy="833.9873898441575" r="4" fill="#66ffbd" />
<circle cx="896.0" cy="835.4442380372814" r="4" fill="#66ffbd" />
<circle cx="920.0" cy="837.2232034188347" r="4" fill="#66ffbd" />
<circle cx="944.0" cy="838.3140093523798" r="4" fill="#66ffbd" />
<circle cx="968.0" cy="839.5878364157142" r="4" fill="#66ffbd" />
<circle cx="992.0" cy="841.5571437722485" r="4" fill="#66ffbd" />
<circle cx="1016.0" cy="840.700604884834" r="4" fill="#66ffbd" />
<circle cx="1040.0" cy="842.3624367433221" r="4" fill="#66ffbd" />
<circle cx="1064.0" cy="843.7533973297217" r="4" fill="#66ffbd" />
<circle cx="1088.0" cy="846.0741052554517" r="4" fill="#66ffbd" />
<circle cx="1112.0" cy="846.9233232976748" r="4" fill="#66ffbd" />
<circle cx="1136.0" cy="847.1722320341884" r="4" fill="#66ffbd" />
<circle cx="1160.0" cy="848.9292348801669" r="4" fill="#66ffbd" />
<circle cx="1184.0" cy="847.7286162687483" r="4" fill="#66ffbd" />
<circle cx="1208.0" cy="849.8955864454551" r="4" fill="#66ffbd" />
<circle cx="1232.0" cy="850.781408713636" r="4" fill="#66ffbd" />
<circle cx="1256.0" cy="852.999624806684" r="4" fill="#66ffbd" />
<circle cx="1280.0" cy="846.4474683602222" r="4" fill="#66ffbd" />
<circle cx="1304.0" cy="840.5175837550445" r="4" fill="#66ffbd" />
<circle cx="1328.0" cy="836.1470391756728" r="4" fill="#66ffbd" />
<circle cx="1352.0" cy="825.4146801248204" r="4" fill="#66ffbd" />
<circle cx="1376.0" cy="821.8347868261391" r="4" fill="#66ffbd" />
<circle cx="1400.0" cy="815.9561481373024" r="4" fill="#66ffbd" />
<circle cx="1424.0" cy="807.0759629199191" r="4" fill="#66ffbd" />
<circle cx="1448.0" cy="801.4242704320213" r="4" fill="#66ffbd" />
<circle cx="1472.0" cy="801.4974788839372" r="4" fill="#66ffbd" />
<circle cx="1496.0" cy="863.8271548450268" r="4" fill="#66ffbd" />
<circle cx="1520.0" cy="861.3161049443158" r="4" fill="#66ffbd" />
<path d="M 80.0 920.0 L 104.0 689.4739057624203 L 128.0 711.0337948516157 L 152.0 724.2332787320296 L 176.0 734.116419740659 L 200.0 736.6128279509869 L 224.0 743.091775945533 L 248.0 747.872287855633 L 272.0 754.12428964924 L 296.0 759.0805018439379 L 320.0 762.5798658455119 L 344.0 765.903529562488 L 368.0 767.7996284671066 L 392.0 773.0706370050423 L 416.0 781.3578337619078 L 440.0 787.8074983756875 L 464.0 792.2292888714002 L 488.0 799.264621100506 L 512.0 800.0699140715795 L 536.0 801.6365749425771 L 560.0 804.4258169605681 L 584.0 809.1111578831776 L 608.0 810.3923057917036 L 632.0 812.9399599183726 L 656.0 815.6559934844478 L 680.0 811.9443249723181 L 704.0 817.5301298534916 L 728.0 818.8478819879755 L 752.0 821.8787118972886 L 776.0 823.7967733374818 L 800.0 826.2785398574265 L 824.0 827.2082871967568 L 848.0 833.1381718019345 L 872.0 833.9873898441575 L 896.0 835.4442380372814 L 920.0 837.2232034188347 L 944.0 838.3140093523798 L 968.0 839.5878364157142 L 992.0 841.5571437722485 L 1016.0 840.700604884834 L 1040.0 842.3624367433221 L 1064.0 843.7533973297217 L 1088.0 846.0741052554517 L 1112.0 846.9233232976748 L 1136.0 847.1722320341884 L 1160.0 848.9292348801669 L 1184.0 847.7286162687483 L 1208.0 849.8955864454551 L 1232.0 850.781408713636 L 1256.0 852.999624806684 L 1280.0 846.4474683602222 L 1304.0 840.5175837550445 L 1328.0 836.1470391756728 L 1352.0 825.4146801248204 L 1376.0 821.8347868261391 L 1400.0 815.9561481373024 L 1424.0 807.0759629199191 L 1448.0 801.4242704320213 L 1472.0 801.4974788839372 L 1496.0 863.8271548450268 L 1520.0 861.3161049443158" fill="none" stroke="#66ffbd" stroke-width="2" />
<text x="80.0" y="940" text-anchor="middle" font-size="12">08-06</text>
<text x="200.0" y="940" text-anchor="middle" font-size="12">08-11</text>
<text x="320.0" y="940" text-anchor="middle" font-size="12">08-16</text>
<text x="440.0" y="940" text-anchor="middle" font-size="12">08-21</text>
<text x="560.0" y="940" text-anchor="middle" font-size="12">08-26</text>
<text x="680.0" y="940" text-anchor="middle" font-size="12">08-31</text>
<text x="800.0" y="940" text-anchor="middle" font-size="12">09-05</text>
<text x="920.0" y="940" text-anchor="middle" font-size="12">09-10</text>
<text x="1040.0" y="940" text-anchor="middle" font-size="12">09-15</text>
<text x="1160.0" y="940" text-anchor="middle" font-size="12">09-20</text>
<text x="1280.0" y="940" text-anchor="middle" font-size="12">09-25</text>
<text x="1400.0" y="940" text-anchor="middle" font-size="12">09-30</text>
<text x="1520.0" y="940" text-anchor="middle" font-size="12">10-05</text>
<rect x="90" y="100" width="130" height="185" class="legend-box" />
<text x="100" y="120" class="legend-item">图例:</text>
<rect x="100" y="137" width="15" height="15" fill="#1f77b4" rx="3" />
<text x="120" y="145" class="legend-item">构件聚合数据</text>
<rect x="100" y="162" width="15" height="15" fill="#ff7f0e" rx="3" />
<text x="120" y="170" class="legend-item">构件基本信息</text>
<rect x="100" y="187" width="15" height="15" fill="#2ca02c" rx="3" />
<text x="120" y="195" class="legend-item">构件徽标</text>
<rect x="100" y="212" width="15" height="15" fill="#d62728" rx="3" />
<text x="120" y="220" class="legend-item">构件扩展元数据</text>
<rect x="100" y="237" width="15" height="15" fill="#9467bd" rx="3" />
<text x="120" y="245" class="legend-item">构件版本信息</text>
<rect x="100" y="262" width="15" height="15" fill="#66ffbd" rx="3" />
<text x="120" y="270" class="legend-item">数据量偏差</text>
<rect x="100" y="980" width="15" height="15" fill="#1f77b4" rx="3" />
<text x="125" y="990" class="legend-item">101261</text>
<rect x="300" y="980" width="15" height="15" fill="#ff7f0e" rx="3" />
<text x="325" y="990" class="legend-item">109041</text>
<rect x="500" y="980" width="15" height="15" fill="#2ca02c" rx="3" />
<text x="525" y="990" class="legend-item">109277</text>
<rect x="700" y="980" width="15" height="15" fill="#d62728" rx="3" />
<text x="725" y="990" class="legend-item">101388</text>
<rect x="900" y="980" width="15" height="15" fill="#9467bd" rx="3" />
<text x="925" y="990" class="legend-item">101445</text>
<rect x="1100" y="980" width="15" height="15" fill="#66ffbd" rx="3" />
<text x="1125" y="990" class="legend-item">8016</text>
<text x="1520" y="990" text-anchor="end" font-size="11" fill="#666">生成时间: 2025-10-05 02:39:56</text>
</svg>