<svg xmlns="http://www.w3.org/2000/svg" width="1600" height="1000" viewBox="0 0 1600 1000">
<style>
  text {
    font-family: Arial, sans-serif;
    font-size: 12px;
    fill: #333;
  }
  .axis-label { font-size: 14px; }
  .title { font-size: 18px; font-weight: bold; }
  .legend-item { font-size: 11px; }
  .legend-box { fill: white; fill-opacity: 0.85; stroke: #cccccc; stroke-width: 1; rx: 5; }
</style>
<text x="800.0" y="30" text-anchor="middle" class="title">Daily Data Growth Trend</text>
<text x="800.0" y="980" text-anchor="middle" class="axis-label">Date</text>
<g transform="rotate(-90)">
<text x="-500.0" y="20" text-anchor="middle" class="axis-label">Count</text>
</g>
<rect x="0" y="0" width="1600" height="1000" fill="#f8f8f8" />
<line x1="80" y1="920.0" x2="1520" y2="920.0" stroke="#e0e0e0" stroke-width="1" />
<text x="70" y="925.0" text-anchor="end">0</text>
<line x1="80" y1="752.0" x2="1520" y2="752.0" stroke="#e0e0e0" stroke-width="1" />
<text x="70" y="757.0" text-anchor="end">18.4k</text>
<line x1="80" y1="584.0" x2="1520" y2="584.0" stroke="#e0e0e0" stroke-width="1" />
<text x="70" y="589.0" text-anchor="end">36.9k</text>
<line x1="80" y1="416.0" x2="1520" y2="416.0" stroke="#e0e0e0" stroke-width="1" />
<text x="70" y="421.0" text-anchor="end">55.3k</text>
<line x1="80" y1="248.0" x2="1520" y2="248.0" stroke="#e0e0e0" stroke-width="1" />
<text x="70" y="253.0" text-anchor="end">73.8k</text>
<line x1="80" y1="80.0" x2="1520" y2="80.0" stroke="#e0e0e0" stroke-width="1" />
<text x="70" y="85.0" text-anchor="end">92.2k</text>
<line x1="80" y1="80" x2="80" y2="920" stroke="#333333" stroke-width="2" />
<line x1="80" y1="920" x2="1520" y2="920" stroke="#333333" stroke-width="2" />
<circle cx="80.0" cy="920.0" r="4" fill="#1f77b4" />
<circle cx="117.89473684210526" cy="875.4720504674387" r="4" fill="#1f77b4" />
<circle cx="155.78947368421052" cy="781.1052277980847" r="4" fill="#1f77b4" />
<circle cx="193.68421052631578" cy="743.1453330144957" r="4" fill="#1f77b4" />
<circle cx="231.57894736842104" cy="720.2983409057265" r="4" fill="#1f77b4" />
<circle cx="269.4736842105263" cy="708.82929662146" r="4" fill="#1f77b4" />
<circle cx="307.36842105263156" cy="685.9823045126909" r="4" fill="#1f77b4" />
<circle cx="345.2631578947368" cy="661.3224928546215" r="4" fill="#1f77b4" />
<circle cx="383.1578947368421" cy="638.5939261435452" r="4" fill="#1f77b4" />
<circle cx="421.05263157894734" cy="620.0649062275818" r="4" fill="#1f77b4" />
<circle cx="458.9473684210526" cy="603.1665129413908" r="4" fill="#1f77b4" />
<circle cx="496.84210526315786" cy="592.544665732928" r="4" fill="#1f77b4" />
<circle cx="534.7368421052631" cy="582.0321342761818" r="4" fill="#1f77b4" />
<circle cx="572.6315789473683" cy="566.2268985071568" r="4" fill="#1f77b4" />
<circle cx="610.5263157894736" cy="543.7807308213485" r="4" fill="#1f77b4" />
<circle cx="648.421052631579" cy="519.5035242942871" r="4" fill="#1f77b4" />
<circle cx="686.3157894736842" cy="503.38856056206515" r="4" fill="#1f77b4" />
<circle cx="724.2105263157894" cy="481.3341076532413" r="4" fill="#1f77b4" />
<circle cx="762.1052631578947" cy="472.2244616768581" r="4" fill="#1f77b4" />
<circle cx="800.0" cy="463.8344777326091" r="4" fill="#1f77b4" />
<circle cx="837.8947368421052" cy="445.7882690533939" r="4" fill="#1f77b4" />
<circle cx="875.7894736842104" cy="428.0426786913993" r="4" fill="#1f77b4" />
<circle cx="913.6842105263157" cy="412.3285393821383" r="4" fill="#1f77b4" />
<circle cx="951.578947368421" cy="390.6384723123698" r="4" fill="#1f77b4" />
<circle cx="989.4736842105262" cy="375.70776255707756" r="4" fill="#1f77b4" />
<circle cx="1027.3684210526314" cy="366.5070201209305" r="4" fill="#1f77b4" />
<circle cx="1065.2631578947367" cy="356.13113335383" r="4" fill="#1f77b4" />
<circle cx="1103.157894736842" cy="342.8037212903813" r="4" fill="#1f77b4" />
<circle cx="1141.0526315789473" cy="331.2344709003746" r="4" fill="#1f77b4" />
<circle cx="1178.9473684210525" cy="321.4051628918571" r="4" fill="#1f77b4" />
<circle cx="1216.842105263158" cy="304.71629146312296" r="4" fill="#1f77b4" />
<circle cx="1254.7368421052631" cy="291.09737072843006" r="4" fill="#1f77b4" />
<circle cx="1292.6315789473683" cy="270.3273779022762" r="4" fill="#1f77b4" />
<circle cx="1330.5263157894735" cy="264.24213439005223" r="4" fill="#1f77b4" />
<circle cx="1368.4210526315787" cy="257.3370227399538" r="4" fill="#1f77b4" />
<circle cx="1406.3157894736842" cy="248.18182853368864" r="4" fill="#1f77b4" />
<circle cx="1444.2105263157894" cy="240.82123458477088" r="4" fill="#1f77b4" />
<circle cx="1482.1052631578946" cy="229.88054976713465" r="4" fill="#1f77b4" />
<circle cx="1520.0" cy="217.60985663694646" r="4" fill="#1f77b4" />
<path d="M 80.0 920.0 L 117.89473684210526 875.4720504674387 L 155.78947368421052 781.1052277980847 L 193.68421052631578 743.1453330144957 L 231.57894736842104 720.2983409057265 L 269.4736842105263 708.82929662146 L 307.36842105263156 685.9823045126909 L 345.2631578947368 661.3224928546215 L 383.1578947368421 638.5939261435452 L 421.05263157894734 620.0649062275818 L 458.9473684210526 603.1665129413908 L 496.84210526315786 592.544665732928 L 534.7368421052631 582.0321342761818 L 572.6315789473683 566.2268985071568 L 610.5263157894736 543.7807308213485 L 648.421052631579 519.5035242942871 L 686.3157894736842 503.38856056206515 L 724.2105263157894 481.3341076532413 L 762.1052631578947 472.2244616768581 L 800.0 463.8344777326091 L 837.8947368421052 445.7882690533939 L 875.7894736842104 428.0426786913993 L 913.6842105263157 412.3285393821383 L 951.578947368421 390.6384723123698 L 989.4736842105262 375.70776255707756 L 1027.3684210526314 366.5070201209305 L 1065.2631578947367 356.13113335383 L 1103.157894736842 342.8037212903813 L 1141.0526315789473 331.2344709003746 L 1178.9473684210525 321.4051628918571 L 1216.842105263158 304.71629146312296 L 1254.7368421052631 291.09737072843006 L 1292.6315789473683 270.3273779022762 L 1330.5263157894735 264.24213439005223 L 1368.4210526315787 257.3370227399538 L 1406.3157894736842 248.18182853368864 L 1444.2105263157894 240.82123458477088 L 1482.1052631578946 229.88054976713465 L 1520.0 217.60985663694646" fill="none" stroke="#1f77b4" stroke-width="2" />
<circle cx="80.0" cy="920.0" r="4" fill="#ff7f0e" />
<circle cx="117.89473684210526" cy="595.0042701465513" r="4" fill="#ff7f0e" />
<circle cx="155.78947368421052" cy="527.2011751443309" r="4" fill="#ff7f0e" />
<circle cx="193.68421052631578" cy="505.45645019870415" r="4" fill="#ff7f0e" />
<circle cx="231.57894736842104" cy="494.7435065304774" r="4" fill="#ff7f0e" />
<circle cx="269.4736842105263" cy="486.3626322322049" r="4" fill="#ff7f0e" />
<circle cx="307.36842105263156" cy="471.4228128309363" r="4" fill="#ff7f0e" />
<circle cx="345.2631578947368" cy="452.4656395540828" r="4" fill="#ff7f0e" />
<circle cx="383.1578947368421" cy="437.3436272332866" r="4" fill="#ff7f0e" />
<circle cx="421.05263157894734" cy="424.88163153759433" r="4" fill="#ff7f0e" />
<circle cx="458.9473684210526" cy="412.27388150627996" r="4" fill="#ff7f0e" />
<circle cx="496.84210526315786" cy="405.68760746535486" r="4" fill="#ff7f0e" />
<circle cx="534.7368421052631" cy="397.5344743164918" r="4" fill="#ff7f0e" />
<circle cx="572.6315789473683" cy="388.2608547125337" r="4" fill="#ff7f0e" />
<circle cx="610.5263157894736" cy="375.85351689269976" r="4" fill="#ff7f0e" />
<circle cx="648.421052631579" cy="359.24663227775306" r="4" fill="#ff7f0e" />
<circle cx="686.3157894736842" cy="348.5883464853847" r="4" fill="#ff7f0e" />
<circle cx="724.2105263157894" cy="335.27915371388883" r="4" fill="#ff7f0e" />
<circle cx="762.1052631578947" cy="327.1806784408841" r="4" fill="#ff7f0e" />
<circle cx="800.0" cy="320.72193944362834" r="4" fill="#ff7f0e" />
<circle cx="837.8947368421052" cy="306.0462997756749" r="4" fill="#ff7f0e" />
<circle cx="875.7894736842104" cy="294.1035539006365" r="4" fill="#ff7f0e" />
<circle cx="913.6842105263157" cy="279.96538334528975" r="4" fill="#ff7f0e" />
<circle cx="951.578947368421" cy="261.4181441373735" r="4" fill="#ff7f0e" />
<circle cx="989.4736842105262" cy="249.83067445541394" r="4" fill="#ff7f0e" />
<circle cx="1027.3684210526314" cy="236.00223186326423" r="4" fill="#ff7f0e" />
<circle cx="1065.2631578947367" cy="232.56789533016774" r="4" fill="#ff7f0e" />
<circle cx="1103.157894736842" cy="220.8711098964916" r="4" fill="#ff7f0e" />
<circle cx="1141.0526315789473" cy="213.0459240027784" r="4" fill="#ff7f0e" />
<circle cx="1178.9473684210525" cy="205.5577950101914" r="4" fill="#ff7f0e" />
<circle cx="1216.842105263158" cy="191.6382559582778" r="4" fill="#ff7f0e" />
<circle cx="1254.7368421052631" cy="179.13982167867994" r="4" fill="#ff7f0e" />
<circle cx="1292.6315789473683" cy="165.36603696238853" r="4" fill="#ff7f0e" />
<circle cx="1330.5263157894735" cy="160.33751238342495" r="4" fill="#ff7f0e" />
<circle cx="1368.4210526315787" cy="155.181452760792" r="4" fill="#ff7f0e" />
<circle cx="1406.3157894736842" cy="148.2307928808117" r="4" fill="#ff7f0e" />
<circle cx="1444.2105263157894" cy="142.2002072444459" r="4" fill="#ff7f0e" />
<circle cx="1482.1052631578946" cy="132.84460082670034" r="4" fill="#ff7f0e" />
<circle cx="1520.0" cy="122.97885423427726" r="4" fill="#ff7f0e" />
<path d="M 80.0 920.0 L 117.89473684210526 595.0042701465513 L 155.78947368421052 527.2011751443309 L 193.68421052631578 505.45645019870415 L 231.57894736842104 494.7435065304774 L 269.4736842105263 486.3626322322049 L 307.36842105263156 471.4228128309363 L 345.2631578947368 452.4656395540828 L 383.1578947368421 437.3436272332866 L 421.05263157894734 424.88163153759433 L 458.9473684210526 412.27388150627996 L 496.84210526315786 405.68760746535486 L 534.7368421052631 397.5344743164918 L 572.6315789473683 388.2608547125337 L 610.5263157894736 375.85351689269976 L 648.421052631579 359.24663227775306 L 686.3157894736842 348.5883464853847 L 724.2105263157894 335.27915371388883 L 762.1052631578947 327.1806784408841 L 800.0 320.72193944362834 L 837.8947368421052 306.0462997756749 L 875.7894736842104 294.1035539006365 L 913.6842105263157 279.96538334528975 L 951.578947368421 261.4181441373735 L 989.4736842105262 249.83067445541394 L 1027.3684210526314 236.00223186326423 L 1065.2631578947367 232.56789533016774 L 1103.157894736842 220.8711098964916 L 1141.0526315789473 213.0459240027784 L 1178.9473684210525 205.5577950101914 L 1216.842105263158 191.6382559582778 L 1254.7368421052631 179.13982167867994 L 1292.6315789473683 165.36603696238853 L 1330.5263157894735 160.33751238342495 L 1368.4210526315787 155.181452760792 L 1406.3157894736842 148.2307928808117 L 1444.2105263157894 142.2002072444459 L 1482.1052631578946 132.84460082670034 L 1520.0 122.97885423427726" fill="none" stroke="#ff7f0e" stroke-width="2" />
<circle cx="80.0" cy="920.0" r="4" fill="#2ca02c" />
<circle cx="117.89473684210526" cy="588.6184083171067" r="4" fill="#2ca02c" />
<circle cx="155.78947368421052" cy="521.0794930482014" r="4" fill="#2ca02c" />
<circle cx="193.68421052631578" cy="499.5442899600314" r="4" fill="#2ca02c" />
<circle cx="231.57894736842104" cy="488.9953199193796" r="4" fill="#2ca02c" />
<circle cx="269.4736842105263" cy="480.6326649130598" r="4" fill="#2ca02c" />
<circle cx="307.36842105263156" cy="465.8477094933898" r="4" fill="#2ca02c" />
<circle cx="345.2631578947368" cy="447.1364966578986" r="4" fill="#2ca02c" />
<circle cx="383.1578947368421" cy="432.18756761065373" r="4" fill="#2ca02c" />
<circle cx="421.05263157894734" cy="419.82577802070165" r="4" fill="#2ca02c" />
<circle cx="458.9473684210526" cy="407.28179551122196" r="4" fill="#2ca02c" />
<circle cx="496.84210526315786" cy="400.79572757603705" r="4" fill="#2ca02c" />
<circle cx="534.7368421052631" cy="392.642594427174" r="4" fill="#2ca02c" />
<circle cx="572.6315789473683" cy="383.3963037611451" r="4" fill="#2ca02c" />
<circle cx="610.5263157894736" cy="371.26225532060255" r="4" fill="#2ca02c" />
<circle cx="648.421052631579" cy="355.0106468987349" r="4" fill="#2ca02c" />
<circle cx="686.3157894736842" cy="344.3979093362484" r="4" fill="#2ca02c" />
<circle cx="724.2105263157894" cy="331.09782621072884" r="4" fill="#2ca02c" />
<circle cx="762.1052631578947" cy="322.9902412917478" r="4" fill="#2ca02c" />
<circle cx="800.0" cy="316.5497215864448" r="4" fill="#2ca02c" />
<circle cx="837.8947368421052" cy="301.97428802423167" r="4" fill="#2ca02c" />
<circle cx="875.7894736842104" cy="290.0588710871224" r="4" fill="#2ca02c" />
<circle cx="913.6842105263157" cy="275.9389198237284" r="4" fill="#2ca02c" />
<circle cx="951.578947368421" cy="257.41900955374115" r="4" fill="#2ca02c" />
<circle cx="989.4736842105262" cy="245.8679784556872" r="4" fill="#2ca02c" />
<circle cx="1027.3684210526314" cy="232.0486455095139" r="4" fill="#2ca02c" />
<circle cx="1065.2631578947367" cy="228.62341862239373" r="4" fill="#2ca02c" />
<circle cx="1103.157894736842" cy="216.9357428346941" r="4" fill="#2ca02c" />
<circle cx="1141.0526315789473" cy="209.13788587890997" r="4" fill="#2ca02c" />
<circle cx="1178.9473684210525" cy="201.69530511620485" r="4" fill="#2ca02c" />
<circle cx="1216.842105263158" cy="188.0946036734647" r="4" fill="#2ca02c" />
<circle cx="1254.7368421052631" cy="175.6326079777724" r="4" fill="#2ca02c" />
<circle cx="1292.6315789473683" cy="162.24142839248907" r="4" fill="#2ca02c" />
<circle cx="1330.5263157894735" cy="157.2129038135255" r="4" fill="#2ca02c" />
<circle cx="1368.4210526315787" cy="152.12061171272728" r="4" fill="#2ca02c" />
<circle cx="1406.3157894736842" cy="145.17906147872327" r="4" fill="#2ca02c" />
<circle cx="1444.2105263157894" cy="139.17580478028674" r="4" fill="#2ca02c" />
<circle cx="1482.1052631578946" cy="129.82019836254108" r="4" fill="#2ca02c" />
<circle cx="1520.0" cy="120.0" r="4" fill="#2ca02c" />
<path d="M 80.0 920.0 L 117.89473684210526 588.6184083171067 L 155.78947368421052 521.0794930482014 L 193.68421052631578 499.5442899600314 L 231.57894736842104 488.9953199193796 L 269.4736842105263 480.6326649130598 L 307.36842105263156 465.8477094933898 L 345.2631578947368 447.1364966578986 L 383.1578947368421 432.18756761065373 L 421.05263157894734 419.82577802070165 L 458.9473684210526 407.28179551122196 L 496.84210526315786 400.79572757603705 L 534.7368421052631 392.642594427174 L 572.6315789473683 383.3963037611451 L 610.5263157894736 371.26225532060255 L 648.421052631579 355.0106468987349 L 686.3157894736842 344.3979093362484 L 724.2105263157894 331.09782621072884 L 762.1052631578947 322.9902412917478 L 800.0 316.5497215864448 L 837.8947368421052 301.97428802423167 L 875.7894736842104 290.0588710871224 L 913.6842105263157 275.9389198237284 L 951.578947368421 257.41900955374115 L 989.4736842105262 245.8679784556872 L 1027.3684210526314 232.0486455095139 L 1065.2631578947367 228.62341862239373 L 1103.157894736842 216.9357428346941 L 1141.0526315789473 209.13788587890997 L 1178.9473684210525 201.69530511620485 L 1216.842105263158 188.0946036734647 L 1254.7368421052631 175.6326079777724 L 1292.6315789473683 162.24142839248907 L 1330.5263157894735 157.2129038135255 L 1368.4210526315787 152.12061171272728 L 1406.3157894736842 145.17906147872327 L 1444.2105263157894 139.17580478028674 L 1482.1052631578946 129.82019836254108 L 1520.0 120.0" fill="none" stroke="#2ca02c" stroke-width="2" />
<circle cx="80.0" cy="920.0" r="4" fill="#d62728" />
<circle cx="117.89473684210526" cy="855.7041186986871" r="4" fill="#d62728" />
<circle cx="155.78947368421052" cy="762.6490850499322" r="4" fill="#d62728" />
<circle cx="193.68421052631578" cy="730.4464865234174" r="4" fill="#d62728" />
<circle cx="231.57894736842104" cy="707.6450426445302" r="4" fill="#d62728" />
<circle cx="269.4736842105263" cy="696.276204466004" r="4" fill="#d62728" />
<circle cx="307.36842105263156" cy="673.8938043020303" r="4" fill="#d62728" />
<circle cx="345.2631578947368" cy="650.3818080369851" r="4" fill="#d62728" />
<circle cx="383.1578947368421" cy="628.7372891970986" r="4" fill="#d62728" />
<circle cx="421.05263157894734" cy="610.5999840581196" r="4" fill="#d62728" />
<circle cx="458.9473684210526" cy="593.7562486477868" r="4" fill="#d62728" />
<circle cx="496.84210526315786" cy="583.1526207312768" r="4" fill="#d62728" />
<circle cx="534.7368421052631" cy="572.6491989205069" r="4" fill="#d62728" />
<circle cx="572.6315789473683" cy="557.627392705451" r="4" fill="#d62728" />
<circle cx="610.5263157894736" cy="535.4454047529578" r="4" fill="#d62728" />
<circle cx="648.421052631579" cy="511.57813229483367" r="4" fill="#d62728" />
<circle cx="686.3157894736842" cy="496.2283788246279" r="4" fill="#d62728" />
<circle cx="724.2105263157894" cy="474.4472152950956" r="4" fill="#d62728" />
<circle cx="762.1052631578947" cy="465.3375693187123" r="4" fill="#d62728" />
<circle cx="800.0" cy="457.0386818342272" r="4" fill="#d62728" />
<circle cx="837.8947368421052" cy="439.2111046584452" r="4" fill="#d62728" />
<circle cx="875.7894736842104" cy="422.54045252166384" r="4" fill="#d62728" />
<circle cx="913.6842105263157" cy="406.8900807342375" r="4" fill="#d62728" />
<circle cx="951.578947368421" cy="385.21823295642173" r="4" fill="#d62728" />
<circle cx="989.4736842105262" cy="370.7794440838543" r="4" fill="#d62728" />
<circle cx="1027.3684210526314" cy="361.57870164770725" r="4" fill="#d62728" />
<circle cx="1065.2631578947367" cy="351.19370523463033" r="4" fill="#d62728" />
<circle cx="1103.157894736842" cy="337.8662931711816" r="4" fill="#d62728" />
<circle cx="1141.0526315789473" cy="327.0713626891675" r="4" fill="#d62728" />
<circle cx="1178.9473684210525" cy="317.2602739726027" r="4" fill="#d62728" />
<circle cx="1216.842105263158" cy="300.6078411277741" r="4" fill="#d62728" />
<circle cx="1254.7368421052631" cy="286.99803003905754" r="4" fill="#d62728" />
<circle cx="1292.6315789473683" cy="266.33735296462044" r="4" fill="#d62728" />
<circle cx="1330.5263157894735" cy="260.2794383903255" r="4" fill="#d62728" />
<circle cx="1368.4210526315787" cy="253.37432674022705" r="4" fill="#d62728" />
<circle cx="1406.3157894736842" cy="244.28290005579652" r="4" fill="#d62728" />
<circle cx="1444.2105263157894" cy="236.91319646090255" r="4" fill="#d62728" />
<circle cx="1482.1052631578946" cy="226.02716951912453" r="4" fill="#d62728" />
<circle cx="1520.0" cy="214.4396998371651" r="4" fill="#d62728" />
<path d="M 80.0 920.0 L 117.89473684210526 855.7041186986871 L 155.78947368421052 762.6490850499322 L 193.68421052631578 730.4464865234174 L 231.57894736842104 707.6450426445302 L 269.4736842105263 696.276204466004 L 307.36842105263156 673.8938043020303 L 345.2631578947368 650.3818080369851 L 383.1578947368421 628.7372891970986 L 421.05263157894734 610.5999840581196 L 458.9473684210526 593.7562486477868 L 496.84210526315786 583.1526207312768 L 534.7368421052631 572.6491989205069 L 572.6315789473683 557.627392705451 L 610.5263157894736 535.4454047529578 L 648.421052631579 511.57813229483367 L 686.3157894736842 496.2283788246279 L 724.2105263157894 474.4472152950956 L 762.1052631578947 465.3375693187123 L 800.0 457.0386818342272 L 837.8947368421052 439.2111046584452 L 875.7894736842104 422.54045252166384 L 913.6842105263157 406.8900807342375 L 951.578947368421 385.21823295642173 L 989.4736842105262 370.7794440838543 L 1027.3684210526314 361.57870164770725 L 1065.2631578947367 351.19370523463033 L 1103.157894736842 337.8662931711816 L 1141.0526315789473 327.0713626891675 L 1178.9473684210525 317.2602739726027 L 1216.842105263158 300.6078411277741 L 1254.7368421052631 286.99803003905754 L 1292.6315789473683 266.33735296462044 L 1330.5263157894735 260.2794383903255 L 1368.4210526315787 253.37432674022705 L 1406.3157894736842 244.28290005579652 L 1444.2105263157894 236.91319646090255 L 1482.1052631578946 226.02716951912453 L 1520.0 214.4396998371651" fill="none" stroke="#d62728" stroke-width="2" />
<circle cx="80.0" cy="920.0" r="4" fill="#9467bd" />
<circle cx="117.89473684210526" cy="862.4908049510926" r="4" fill="#9467bd" />
<circle cx="155.78947368421052" cy="769.0804951092588" r="4" fill="#9467bd" />
<circle cx="193.68421052631578" cy="731.2116967854337" r="4" fill="#9467bd" />
<circle cx="231.57894736842104" cy="708.3373757387353" r="4" fill="#9467bd" />
<circle cx="269.4736842105263" cy="698.1345722451861" r="4" fill="#9467bd" />
<circle cx="307.36842105263156" cy="675.5608695157084" r="4" fill="#9467bd" />
<circle cx="345.2631578947368" cy="650.9648253794737" r="4" fill="#9467bd" />
<circle cx="383.1578947368421" cy="628.7099602591694" r="4" fill="#9467bd" />
<circle cx="421.05263157894734" cy="610.37224290871" r="4" fill="#9467bd" />
<circle cx="458.9473684210526" cy="593.7198100638814" r="4" fill="#9467bd" />
<circle cx="496.84210526315786" cy="583.1070725013949" r="4" fill="#9467bd" />
<circle cx="534.7368421052631" cy="572.5307735228139" r="4" fill="#9467bd" />
<circle cx="572.6315789473683" cy="556.8166342135528" r="4" fill="#9467bd" />
<circle cx="610.5263157894736" cy="534.7986198886346" r="4" fill="#9467bd" />
<circle cx="648.421052631579" cy="510.46675548571494" r="4" fill="#9467bd" />
<circle cx="686.3157894736842" cy="494.69795830059553" r="4" fill="#9467bd" />
<circle cx="724.2105263157894" cy="475.76811396167113" r="4" fill="#9467bd" />
<circle cx="762.1052631578947" cy="466.6493583393115" r="4" fill="#9467bd" />
<circle cx="800.0" cy="458.25937439506254" r="4" fill="#9467bd" />
<circle cx="837.8947368421052" cy="440.1676174859654" r="4" fill="#9467bd" />
<circle cx="875.7894736842104" cy="422.97771552853027" r="4" fill="#9467bd" />
<circle cx="913.6842105263157" cy="407.3455630330566" r="4" fill="#9467bd" />
<circle cx="951.578947368421" cy="385.5917284414535" r="4" fill="#9467bd" />
<circle cx="989.4736842105262" cy="370.9434177114292" r="4" fill="#9467bd" />
<circle cx="1027.3684210526314" cy="361.7700042132112" r="4" fill="#9467bd" />
<circle cx="1065.2631578947367" cy="351.3850078001343" r="4" fill="#9467bd" />
<circle cx="1103.157894736842" cy="338.03937644473285" r="4" fill="#9467bd" />
<circle cx="1141.0526315789473" cy="326.8891697696398" r="4" fill="#9467bd" />
<circle cx="1178.9473684210525" cy="317.07808105307504" r="4" fill="#9467bd" />
<circle cx="1216.842105263158" cy="300.6533893576561" r="4" fill="#9467bd" />
<circle cx="1254.7368421052631" cy="287.35330623213656" r="4" fill="#9467bd" />
<circle cx="1292.6315789473683" cy="266.5742037600064" r="4" fill="#9467bd" />
<circle cx="1330.5263157894735" cy="260.46163130985315" r="4" fill="#9467bd" />
<circle cx="1368.4210526315787" cy="253.83891868502258" r="4" fill="#9467bd" />
<circle cx="1406.3157894736842" cy="244.720163062663" r="4" fill="#9467bd" />
<circle cx="1444.2105263157894" cy="237.32313052983977" r="4" fill="#9467bd" />
<circle cx="1482.1052631578946" cy="226.3551167742744" r="4" fill="#9467bd" />
<circle cx="1520.0" cy="214.0844236440861" r="4" fill="#9467bd" />
<path d="M 80.0 920.0 L 117.89473684210526 862.4908049510926 L 155.78947368421052 769.0804951092588 L 193.68421052631578 731.2116967854337 L 231.57894736842104 708.3373757387353 L 269.4736842105263 698.1345722451861 L 307.36842105263156 675.5608695157084 L 345.2631578947368 650.9648253794737 L 383.1578947368421 628.7099602591694 L 421.05263157894734 610.37224290871 L 458.9473684210526 593.7198100638814 L 496.84210526315786 583.1070725013949 L 534.7368421052631 572.5307735228139 L 572.6315789473683 556.8166342135528 L 610.5263157894736 534.7986198886346 L 648.421052631579 510.46675548571494 L 686.3157894736842 494.69795830059553 L 724.2105263157894 475.76811396167113 L 762.1052631578947 466.6493583393115 L 800.0 458.25937439506254 L 837.8947368421052 440.1676174859654 L 875.7894736842104 422.97771552853027 L 913.6842105263157 407.3455630330566 L 951.578947368421 385.5917284414535 L 989.4736842105262 370.9434177114292 L 1027.3684210526314 361.7700042132112 L 1065.2631578947367 351.3850078001343 L 1103.157894736842 338.03937644473285 L 1141.0526315789473 326.8891697696398 L 1178.9473684210525 317.07808105307504 L 1216.842105263158 300.6533893576561 L 1254.7368421052631 287.35330623213656 L 1292.6315789473683 266.5742037600064 L 1330.5263157894735 260.46163130985315 L 1368.4210526315787 253.83891868502258 L 1406.3157894736842 244.720163062663 L 1444.2105263157894 237.32313052983977 L 1482.1052631578946 226.3551167742744 L 1520.0 214.0844236440861" fill="none" stroke="#9467bd" stroke-width="2" />
<circle cx="80.0" cy="920.0" r="4" fill="#66ffbd" />
<circle cx="117.89473684210526" cy="633.146357849668" r="4" fill="#66ffbd" />
<circle cx="155.78947368421052" cy="659.9742652501168" r="4" fill="#66ffbd" />
<circle cx="193.68421052631578" cy="676.3989569455357" r="4" fill="#66ffbd" />
<circle cx="231.57894736842104" cy="688.696979013653" r="4" fill="#66ffbd" />
<circle cx="269.4736842105263" cy="691.8033682915998" r="4" fill="#66ffbd" />
<circle cx="307.36842105263156" cy="699.8654049806989" r="4" fill="#66ffbd" />
<circle cx="345.2631578947368" cy="705.8140038032772" r="4" fill="#66ffbd" />
<circle cx="383.1578947368421" cy="713.5936414671085" r="4" fill="#66ffbd" />
<circle cx="421.05263157894734" cy="719.7608717931199" r="4" fill="#66ffbd" />
<circle cx="458.9473684210526" cy="724.1152825698312" r="4" fill="#66ffbd" />
<circle cx="496.84210526315786" cy="728.2510618431091" r="4" fill="#66ffbd" />
<circle cx="534.7368421052631" cy="730.6104601509924" r="4" fill="#66ffbd" />
<circle cx="572.6315789473683" cy="737.1694052539883" r="4" fill="#66ffbd" />
<circle cx="610.5263157894736" cy="747.4815244992542" r="4" fill="#66ffbd" />
<circle cx="648.421052631579" cy="755.5071226044478" r="4" fill="#66ffbd" />
<circle cx="686.3157894736842" cy="761.0093487741833" r="4" fill="#66ffbd" />
<circle cx="724.2105263157894" cy="769.7637185574876" r="4" fill="#66ffbd" />
<circle cx="762.1052631578947" cy="770.7657796148897" r="4" fill="#66ffbd" />
<circle cx="800.0" cy="772.7152438538358" r="4" fill="#66ffbd" />
<circle cx="837.8947368421052" cy="776.1860189708377" r="4" fill="#66ffbd" />
<circle cx="875.7894736842104" cy="782.016192395723" r="4" fill="#66ffbd" />
<circle cx="913.6842105263157" cy="783.6103804415901" r="4" fill="#66ffbd" />
<circle cx="951.578947368421" cy="786.7805372413715" r="4" fill="#66ffbd" />
<circle cx="989.4736842105262" cy="790.1602158986096" r="4" fill="#66ffbd" />
<circle cx="1027.3684210526314" cy="785.5416253885833" r="4" fill="#66ffbd" />
<circle cx="1065.2631578947367" cy="792.4922852685637" r="4" fill="#66ffbd" />
<circle cx="1103.157894736842" cy="794.1320215443127" r="4" fill="#66ffbd" />
<circle cx="1141.0526315789473" cy="797.9034149785354" r="4" fill="#66ffbd" />
<circle cx="1178.9473684210525" cy="800.2901422243478" r="4" fill="#66ffbd" />
<circle cx="1216.842105263158" cy="803.3783122103417" r="4" fill="#66ffbd" />
<circle cx="1254.7368421052631" cy="804.5352372493423" r="4" fill="#66ffbd" />
<circle cx="1292.6315789473683" cy="811.9140504902128" r="4" fill="#66ffbd" />
<circle cx="1330.5263157894735" cy="812.9707694234733" r="4" fill="#66ffbd" />
<circle cx="1368.4210526315787" cy="814.7835889727735" r="4" fill="#66ffbd" />
<circle cx="1406.3157894736842" cy="816.9972329450346" r="4" fill="#66ffbd" />
<circle cx="1444.2105263157894" cy="818.3545701955157" r="4" fill="#66ffbd" />
<circle cx="1482.1052631578946" cy="819.9396485954064" r="4" fill="#66ffbd" />
<circle cx="1520.0" cy="822.3901433630535" r="4" fill="#66ffbd" />
<path d="M 80.0 920.0 L 117.89473684210526 633.146357849668 L 155.78947368421052 659.9742652501168 L 193.68421052631578 676.3989569455357 L 231.57894736842104 688.696979013653 L 269.4736842105263 691.8033682915998 L 307.36842105263156 699.8654049806989 L 345.2631578947368 705.8140038032772 L 383.1578947368421 713.5936414671085 L 421.05263157894734 719.7608717931199 L 458.9473684210526 724.1152825698312 L 496.84210526315786 728.2510618431091 L 534.7368421052631 730.6104601509924 L 572.6315789473683 737.1694052539883 L 610.5263157894736 747.4815244992542 L 648.421052631579 755.5071226044478 L 686.3157894736842 761.0093487741833 L 724.2105263157894 769.7637185574876 L 762.1052631578947 770.7657796148897 L 800.0 772.7152438538358 L 837.8947368421052 776.1860189708377 L 875.7894736842104 782.016192395723 L 913.6842105263157 783.6103804415901 L 951.578947368421 786.7805372413715 L 989.4736842105262 790.1602158986096 L 1027.3684210526314 785.5416253885833 L 1065.2631578947367 792.4922852685637 L 1103.157894736842 794.1320215443127 L 1141.0526315789473 797.9034149785354 L 1178.9473684210525 800.2901422243478 L 1216.842105263158 803.3783122103417 L 1254.7368421052631 804.5352372493423 L 1292.6315789473683 811.9140504902128 L 1330.5263157894735 812.9707694234733 L 1368.4210526315787 814.7835889727735 L 1406.3157894736842 816.9972329450346 L 1444.2105263157894 818.3545701955157 L 1482.1052631578946 819.9396485954064 L 1520.0 822.3901433630535" fill="none" stroke="#66ffbd" stroke-width="2" />
<text x="80.0" y="940" text-anchor="middle">08-06</text>
<text x="117.89473684210526" y="940" text-anchor="middle">08-07</text>
<text x="155.78947368421052" y="940" text-anchor="middle">08-08</text>
<text x="193.68421052631578" y="940" text-anchor="middle">08-09</text>
<text x="231.57894736842104" y="940" text-anchor="middle">08-10</text>
<text x="269.4736842105263" y="940" text-anchor="middle">08-11</text>
<text x="307.36842105263156" y="940" text-anchor="middle">08-12</text>
<text x="345.2631578947368" y="940" text-anchor="middle">08-13</text>
<text x="383.1578947368421" y="940" text-anchor="middle">08-14</text>
<text x="421.05263157894734" y="940" text-anchor="middle">08-15</text>
<text x="458.9473684210526" y="940" text-anchor="middle">08-16</text>
<text x="496.84210526315786" y="940" text-anchor="middle">08-17</text>
<text x="534.7368421052631" y="940" text-anchor="middle">08-18</text>
<text x="572.6315789473683" y="940" text-anchor="middle">08-19</text>
<text x="610.5263157894736" y="940" text-anchor="middle">08-20</text>
<text x="648.421052631579" y="940" text-anchor="middle">08-21</text>
<text x="686.3157894736842" y="940" text-anchor="middle">08-22</text>
<text x="724.2105263157894" y="940" text-anchor="middle">08-23</text>
<text x="762.1052631578947" y="940" text-anchor="middle">08-24</text>
<text x="800.0" y="940" text-anchor="middle">08-25</text>
<text x="837.8947368421052" y="940" text-anchor="middle">08-26</text>
<text x="875.7894736842104" y="940" text-anchor="middle">08-27</text>
<text x="913.6842105263157" y="940" text-anchor="middle">08-28</text>
<text x="951.578947368421" y="940" text-anchor="middle">08-29</text>
<text x="989.4736842105262" y="940" text-anchor="middle">08-30</text>
<text x="1027.3684210526314" y="940" text-anchor="middle">08-31</text>
<text x="1065.2631578947367" y="940" text-anchor="middle">09-01</text>
<text x="1103.157894736842" y="940" text-anchor="middle">09-02</text>
<text x="1141.0526315789473" y="940" text-anchor="middle">09-03</text>
<text x="1178.9473684210525" y="940" text-anchor="middle">09-04</text>
<text x="1216.842105263158" y="940" text-anchor="middle">09-05</text>
<text x="1254.7368421052631" y="940" text-anchor="middle">09-06</text>
<text x="1292.6315789473683" y="940" text-anchor="middle">09-07</text>
<text x="1330.5263157894735" y="940" text-anchor="middle">09-08</text>
<text x="1368.4210526315787" y="940" text-anchor="middle">09-09</text>
<text x="1406.3157894736842" y="940" text-anchor="middle">09-10</text>
<text x="1444.2105263157894" y="940" text-anchor="middle">09-11</text>
<text x="1482.1052631578946" y="940" text-anchor="middle">09-12</text>
<text x="1520.0" y="940" text-anchor="middle">09-13</text>
<rect x="90" y="100" width="130" height="185" class="legend-box" />
<text x="100" y="120" class="legend-item">图例:</text>
<rect x="100" y="137" width="15" height="15" fill="#1f77b4" rx="3" />
<text x="120" y="145" class="legend-item">构件聚合数据</text>
<rect x="100" y="162" width="15" height="15" fill="#ff7f0e" rx="3" />
<text x="120" y="170" class="legend-item">构件基本信息</text>
<rect x="100" y="187" width="15" height="15" fill="#2ca02c" rx="3" />
<text x="120" y="195" class="legend-item">构件徽标</text>
<rect x="100" y="212" width="15" height="15" fill="#d62728" rx="3" />
<text x="120" y="220" class="legend-item">构件扩展元数据</text>
<rect x="100" y="237" width="15" height="15" fill="#9467bd" rx="3" />
<text x="120" y="245" class="legend-item">构件版本信息</text>
<rect x="100" y="262" width="15" height="15" fill="#66ffbd" rx="3" />
<text x="120" y="270" class="legend-item">数据量偏差</text>
<text x="1520" y="990" text-anchor="end" font-size="10" fill="#666">生成时间: 2025-09-13 06:26:04</text>
</svg>