<svg xmlns="http://www.w3.org/2000/svg" width="1600" height="1000" viewBox="0 0 1600 1000">
<style>
  text {
    font-family: Arial, sans-serif;
    font-size: 12px;
    fill: #333;
  }
  .axis-label { font-size: 14px; }
  .title { font-size: 18px; font-weight: bold; }
  .legend-item { font-size: 11px; }
  .legend-box { fill: white; fill-opacity: 0.85; stroke: #cccccc; stroke-width: 1; rx: 5; }
</style>
<text x="800.0" y="30" text-anchor="middle" class="title">Daily Data Growth Trend</text>
<text x="800.0" y="980" text-anchor="middle" class="axis-label">Date</text>
<g transform="rotate(-90)">
<text x="-500.0" y="20" text-anchor="middle" class="axis-label">Count</text>
</g>
<rect x="0" y="0" width="1600" height="1000" fill="#f8f8f8" />
<line x1="80" y1="920.0" x2="1520" y2="920.0" stroke="#e0e0e0" stroke-width="1" />
<text x="70" y="925.0" text-anchor="end">0</text>
<line x1="80" y1="752.0" x2="1520" y2="752.0" stroke="#e0e0e0" stroke-width="1" />
<text x="70" y="757.0" text-anchor="end">14.8k</text>
<line x1="80" y1="584.0" x2="1520" y2="584.0" stroke="#e0e0e0" stroke-width="1" />
<text x="70" y="589.0" text-anchor="end">29.7k</text>
<line x1="80" y1="416.0" x2="1520" y2="416.0" stroke="#e0e0e0" stroke-width="1" />
<text x="70" y="421.0" text-anchor="end">44.5k</text>
<line x1="80" y1="248.0" x2="1520" y2="248.0" stroke="#e0e0e0" stroke-width="1" />
<text x="70" y="253.0" text-anchor="end">59.4k</text>
<line x1="80" y1="80.0" x2="1520" y2="80.0" stroke="#e0e0e0" stroke-width="1" />
<text x="70" y="85.0" text-anchor="end">74.2k</text>
<line x1="80" y1="80" x2="80" y2="920" stroke="#333333" stroke-width="2" />
<line x1="80" y1="920" x2="1520" y2="920" stroke="#333333" stroke-width="2" />
<circle cx="80.0" cy="920.0" r="4" fill="#1f77b4" />
<circle cx="145.45454545454544" cy="864.6910227578111" r="4" fill="#1f77b4" />
<circle cx="210.9090909090909" cy="747.4762733200379" r="4" fill="#1f77b4" />
<circle cx="276.3636363636364" cy="700.325596526216" r="4" fill="#1f77b4" />
<circle cx="341.8181818181818" cy="671.9469314436853" r="4" fill="#1f77b4" />
<circle cx="407.27272727272725" cy="657.7010226163704" r="4" fill="#1f77b4" />
<circle cx="472.72727272727275" cy="629.3223575338397" r="4" fill="#1f77b4" />
<circle cx="538.1818181818182" cy="598.691956266531" r="4" fill="#1f77b4" />
<circle cx="603.6363636363636" cy="570.4603895277295" r="4" fill="#1f77b4" />
<circle cx="669.0909090909091" cy="547.4451563627106" r="4" fill="#1f77b4" />
<circle cx="734.5454545454545" cy="526.4553542382711" r="4" fill="#1f77b4" />
<circle cx="800.0" cy="513.2617643314804" r="4" fill="#1f77b4" />
<circle cx="865.4545454545455" cy="500.2039575112092" r="4" fill="#1f77b4" />
<circle cx="930.9090909090909" cy="480.5719862519625" r="4" fill="#1f77b4" />
<circle cx="996.3636363636364" cy="452.69119248666925" r="4" fill="#1f77b4" />
<circle cx="1061.8181818181818" cy="422.53603202217795" r="4" fill="#1f77b4" />
<circle cx="1127.2727272727273" cy="402.5193420177933" r="4" fill="#1f77b4" />
<circle cx="1192.7272727272727" cy="375.12510431252747" r="4" fill="#1f77b4" />
<circle cx="1258.1818181818182" cy="363.809847102587" r="4" fill="#1f77b4" />
<circle cx="1323.6363636363635" cy="353.38849521223176" r="4" fill="#1f77b4" />
<circle cx="1389.090909090909" cy="330.9729706793398" r="4" fill="#1f77b4" />
<circle cx="1454.5454545454545" cy="308.9308496343758" r="4" fill="#1f77b4" />
<circle cx="1520.0" cy="289.41203094722846" r="4" fill="#1f77b4" />
<path d="M 80.0 920.0 L 145.45454545454544 864.6910227578111 L 210.9090909090909 747.4762733200379 L 276.3636363636364 700.325596526216 L 341.8181818181818 671.9469314436853 L 407.27272727272725 657.7010226163704 L 472.72727272727275 629.3223575338397 L 538.1818181818182 598.691956266531 L 603.6363636363636 570.4603895277295 L 669.0909090909091 547.4451563627106 L 734.5454545454545 526.4553542382711 L 800.0 513.2617643314804 L 865.4545454545455 500.2039575112092 L 930.9090909090909 480.5719862519625 L 996.3636363636364 452.69119248666925 L 1061.8181818181818 422.53603202217795 L 1127.2727272727273 402.5193420177933 L 1192.7272727272727 375.12510431252747 L 1258.1818181818182 363.809847102587 L 1323.6363636363635 353.38849521223176 L 1389.090909090909 330.9729706793398 L 1454.5454545454545 308.9308496343758 L 1520.0 289.41203094722846" fill="none" stroke="#1f77b4" stroke-width="2" />
<circle cx="80.0" cy="920.0" r="4" fill="#ff7f0e" />
<circle cx="145.45454545454544" cy="516.3168837781644" r="4" fill="#ff7f0e" />
<circle cx="210.9090909090909" cy="432.0974243645776" r="4" fill="#ff7f0e" />
<circle cx="276.3636363636364" cy="405.08790540444977" r="4" fill="#ff7f0e" />
<circle cx="341.8181818181818" cy="391.7811629255598" r="4" fill="#ff7f0e" />
<circle cx="407.27272727272725" cy="381.3711262924146" r="4" fill="#ff7f0e" />
<circle cx="472.72727272727275" cy="362.8141044681122" r="4" fill="#ff7f0e" />
<circle cx="538.1818181818182" cy="339.26705421422616" r="4" fill="#ff7f0e" />
<circle cx="603.6363636363636" cy="320.48372724572494" r="4" fill="#ff7f0e" />
<circle cx="669.0909090909091" cy="305.00445538252643" r="4" fill="#ff7f0e" />
<circle cx="734.5454545454545" cy="289.3441394039688" r="4" fill="#ff7f0e" />
<circle cx="800.0" cy="281.16320844118195" r="4" fill="#ff7f0e" />
<circle cx="865.4545454545455" cy="271.03605323828515" r="4" fill="#ff7f0e" />
<circle cx="930.9090909090909" cy="259.5171213985658" r="4" fill="#ff7f0e" />
<circle cx="996.3636363636364" cy="244.10574107862692" r="4" fill="#ff7f0e" />
<circle cx="1061.8181818181818" cy="223.4780271849055" r="4" fill="#ff7f0e" />
<circle cx="1127.2727272727273" cy="210.23917624927515" r="4" fill="#ff7f0e" />
<circle cx="1192.7272727272727" cy="193.70758546555214" r="4" fill="#ff7f0e" />
<circle cx="1258.1818181818182" cy="183.6483218059151" r="4" fill="#ff7f0e" />
<circle cx="1323.6363636363635" cy="175.62580444406728" r="4" fill="#ff7f0e" />
<circle cx="1389.090909090909" cy="157.3969250788532" r="4" fill="#ff7f0e" />
<circle cx="1454.5454545454545" cy="142.56262287662128" r="4" fill="#ff7f0e" />
<circle cx="1520.0" cy="125.00134368679369" r="4" fill="#ff7f0e" />
<path d="M 80.0 920.0 L 145.45454545454544 516.3168837781644 L 210.9090909090909 432.0974243645776 L 276.3636363636364 405.08790540444977 L 341.8181818181818 391.7811629255598 L 407.27272727272725 381.3711262924146 L 472.72727272727275 362.8141044681122 L 538.1818181818182 339.26705421422616 L 603.6363636363636 320.48372724572494 L 669.0909090909091 305.00445538252643 L 734.5454545454545 289.3441394039688 L 800.0 281.16320844118195 L 865.4545454545455 271.03605323828515 L 930.9090909090909 259.5171213985658 L 996.3636363636364 244.10574107862692 L 1061.8181818181818 223.4780271849055 L 1127.2727272727273 210.23917624927515 L 1192.7272727272727 193.70758546555214 L 1258.1818181818182 183.6483218059151 L 1323.6363636363635 175.62580444406728 L 1389.090909090909 157.3969250788532 L 1454.5454545454545 142.56262287662128 L 1520.0 125.00134368679369" fill="none" stroke="#ff7f0e" stroke-width="2" />
<circle cx="80.0" cy="920.0" r="4" fill="#2ca02c" />
<circle cx="145.45454545454544" cy="508.3848884739961" r="4" fill="#2ca02c" />
<circle cx="210.9090909090909" cy="424.4935715194976" r="4" fill="#2ca02c" />
<circle cx="276.3636363636364" cy="397.7443034751984" r="4" fill="#2ca02c" />
<circle cx="341.8181818181818" cy="384.64123562608734" r="4" fill="#2ca02c" />
<circle cx="407.27272727272725" cy="374.25382950736196" r="4" fill="#2ca02c" />
<circle cx="472.72727272727275" cy="355.8891670556286" r="4" fill="#2ca02c" />
<circle cx="538.1818181818182" cy="332.647628746411" r="4" fill="#2ca02c" />
<circle cx="603.6363636363636" cy="314.07929166489873" r="4" fill="#2ca02c" />
<circle cx="669.0909090909091" cy="298.72448763100954" r="4" fill="#2ca02c" />
<circle cx="734.5454545454545" cy="283.1433784529215" r="4" fill="#2ca02c" />
<circle cx="800.0" cy="275.08691531944385" r="4" fill="#2ca02c" />
<circle cx="865.4545454545455" cy="264.95976011654716" r="4" fill="#2ca02c" />
<circle cx="930.9090909090909" cy="253.47477404845756" r="4" fill="#2ca02c" />
<circle cx="996.3636363636364" cy="238.40285144481697" r="4" fill="#2ca02c" />
<circle cx="1061.8181818181818" cy="218.21643258228312" r="4" fill="#2ca02c" />
<circle cx="1127.2727272727273" cy="205.03415793270256" r="4" fill="#2ca02c" />
<circle cx="1192.7272727272727" cy="188.5138824061895" r="4" fill="#2ca02c" />
<circle cx="1258.1818181818182" cy="178.4433034893425" r="4" fill="#2ca02c" />
<circle cx="1323.6363636363635" cy="170.4434166419146" r="4" fill="#2ca02c" />
<circle cx="1389.090909090909" cy="152.33900510600984" r="4" fill="#2ca02c" />
<circle cx="1454.5454545454545" cy="137.53864867540779" r="4" fill="#2ca02c" />
<circle cx="1520.0" cy="120.0" r="4" fill="#2ca02c" />
<path d="M 80.0 920.0 L 145.45454545454544 508.3848884739961 L 210.9090909090909 424.4935715194976 L 276.3636363636364 397.7443034751984 L 341.8181818181818 384.64123562608734 L 407.27272727272725 374.25382950736196 L 472.72727272727275 355.8891670556286 L 538.1818181818182 332.647628746411 L 603.6363636363636 314.07929166489873 L 669.0909090909091 298.72448763100954 L 734.5454545454545 283.1433784529215 L 800.0 275.08691531944385 L 865.4545454545455 264.95976011654716 L 930.9090909090909 253.47477404845756 L 996.3636363636364 238.40285144481697 L 1061.8181818181818 218.21643258228312 L 1127.2727272727273 205.03415793270256 L 1192.7272727272727 188.5138824061895 L 1258.1818181818182 178.4433034893425 L 1323.6363636363635 170.4434166419146 L 1389.090909090909 152.33900510600984 L 1454.5454545454545 137.53864867540779 L 1520.0 120.0" fill="none" stroke="#2ca02c" stroke-width="2" />
<circle cx="80.0" cy="920.0" r="4" fill="#d62728" />
<circle cx="145.45454545454544" cy="840.1369146122403" r="4" fill="#d62728" />
<circle cx="210.9090909090909" cy="724.5515622126985" r="4" fill="#d62728" />
<circle cx="276.3636363636364" cy="684.5521279755591" r="4" fill="#d62728" />
<circle cx="341.8181818181818" cy="656.2300391790782" r="4" fill="#d62728" />
<circle cx="407.27272727272725" cy="642.1085981810725" r="4" fill="#d62728" />
<circle cx="472.72727272727275" cy="614.3070112162487" r="4" fill="#d62728" />
<circle cx="538.1818181818182" cy="585.1023323573925" r="4" fill="#d62728" />
<circle cx="603.6363636363636" cy="558.217281226574" r="4" fill="#d62728" />
<circle cx="669.0909090909091" cy="535.6886041215824" r="4" fill="#d62728" />
<circle cx="734.5454545454545" cy="514.7666935404026" r="4" fill="#d62728" />
<circle cx="800.0" cy="501.59573414803185" r="4" fill="#d62728" />
<circle cx="865.4545454545455" cy="488.5492425849705" r="4" fill="#d62728" />
<circle cx="930.9090909090909" cy="469.8903834457787" r="4" fill="#d62728" />
<circle cx="996.3636363636364" cy="442.3377321395737" r="4" fill="#d62728" />
<circle cx="1061.8181818181818" cy="412.69175824952976" r="4" fill="#d62728" />
<circle cx="1127.2727272727273" cy="393.6255498507801" r="4" fill="#d62728" />
<circle cx="1192.7272727272727" cy="366.57076986181244" r="4" fill="#d62728" />
<circle cx="1258.1818181818182" cy="355.255512651872" r="4" fill="#d62728" />
<circle cx="1323.6363636363635" cy="344.9473133336162" r="4" fill="#d62728" />
<circle cx="1389.090909090909" cy="322.8033549737628" r="4" fill="#d62728" />
<circle cx="1454.5454545454545" cy="302.0964342795718" r="4" fill="#d62728" />
<circle cx="1520.0" cy="282.656822392894" r="4" fill="#d62728" />
<path d="M 80.0 920.0 L 145.45454545454544 840.1369146122403 L 210.9090909090909 724.5515622126985 L 276.3636363636364 684.5521279755591 L 341.8181818181818 656.2300391790782 L 407.27272727272725 642.1085981810725 L 472.72727272727275 614.3070112162487 L 538.1818181818182 585.1023323573925 L 603.6363636363636 558.217281226574 L 669.0909090909091 535.6886041215824 L 734.5454545454545 514.7666935404026 L 800.0 501.59573414803185 L 865.4545454545455 488.5492425849705 L 930.9090909090909 469.8903834457787 L 996.3636363636364 442.3377321395737 L 1061.8181818181818 412.69175824952976 L 1127.2727272727273 393.6255498507801 L 1192.7272727272727 366.57076986181244 L 1258.1818181818182 355.255512651872 L 1323.6363636363635 344.9473133336162 L 1389.090909090909 322.8033549737628 L 1454.5454545454545 302.0964342795718 L 1520.0 282.656822392894" fill="none" stroke="#d62728" stroke-width="2" />
<circle cx="80.0" cy="920.0" r="4" fill="#9467bd" />
<circle cx="145.45454545454544" cy="848.5667812336459" r="4" fill="#9467bd" />
<circle cx="210.9090909090909" cy="732.5401338029166" r="4" fill="#9467bd" />
<circle cx="276.3636363636364" cy="685.5026095811941" r="4" fill="#9467bd" />
<circle cx="341.8181818181818" cy="657.0899987270336" r="4" fill="#9467bd" />
<circle cx="407.27272727272725" cy="644.4169106519003" r="4" fill="#9467bd" />
<circle cx="472.72727272727275" cy="616.3777032856678" r="4" fill="#9467bd" />
<circle cx="538.1818181818182" cy="585.8265088188286" r="4" fill="#9467bd" />
<circle cx="603.6363636363636" cy="558.1833354549441" r="4" fill="#9467bd" />
<circle cx="669.0909090909091" cy="535.405722691334" r="4" fill="#9467bd" />
<circle cx="734.5454545454545" cy="514.7214325115629" r="4" fill="#9467bd" />
<circle cx="800.0" cy="501.5391578619822" r="4" fill="#9467bd" />
<circle cx="865.4545454545455" cy="488.4021442412413" r="4" fill="#9467bd" />
<circle cx="930.9090909090909" cy="468.88332555409403" r="4" fill="#9467bd" />
<circle cx="996.3636363636364" cy="441.5343488776679" r="4" fill="#9467bd" />
<circle cx="1061.8181818181818" cy="411.311296869917" r="4" fill="#9467bd" />
<circle cx="1127.2727272727273" cy="391.7245866395101" r="4" fill="#9467bd" />
<circle cx="1192.7272727272727" cy="368.21148215725384" r="4" fill="#9467bd" />
<circle cx="1258.1818181818182" cy="356.8849096901034" r="4" fill="#9467bd" />
<circle cx="1323.6363636363635" cy="346.4635577997483" r="4" fill="#9467bd" />
<circle cx="1389.090909090909" cy="323.99145698080656" r="4" fill="#9467bd" />
<circle cx="1454.5454545454545" cy="302.63956662564885" r="4" fill="#9467bd" />
<circle cx="1520.0" cy="283.2225852533911" r="4" fill="#9467bd" />
<path d="M 80.0 920.0 L 145.45454545454544 848.5667812336459 L 210.9090909090909 732.5401338029166 L 276.3636363636364 685.5026095811941 L 341.8181818181818 657.0899987270336 L 407.27272727272725 644.4169106519003 L 472.72727272727275 616.3777032856678 L 538.1818181818182 585.8265088188286 L 603.6363636363636 558.1833354549441 L 669.0909090909091 535.405722691334 L 734.5454545454545 514.7214325115629 L 800.0 501.5391578619822 L 865.4545454545455 488.4021442412413 L 930.9090909090909 468.88332555409403 L 996.3636363636364 441.5343488776679 L 1061.8181818181818 411.311296869917 L 1127.2727272727273 391.7245866395101 L 1192.7272727272727 368.21148215725384 L 1258.1818181818182 356.8849096901034 L 1323.6363636363635 346.4635577997483 L 1389.090909090909 323.99145698080656 L 1454.5454545454545 302.63956662564885 L 1520.0 283.2225852533911" fill="none" stroke="#9467bd" stroke-width="2" />
<circle cx="80.0" cy="920.0" r="4" fill="#66ffbd" />
<circle cx="145.45454545454544" cy="563.6938657161851" r="4" fill="#66ffbd" />
<circle cx="210.9090909090909" cy="597.0172981994597" r="4" fill="#66ffbd" />
<circle cx="276.3636363636364" cy="617.4187069489824" r="4" fill="#66ffbd" />
<circle cx="341.8181818181818" cy="632.694304182402" r="4" fill="#66ffbd" />
<circle cx="407.27272727272725" cy="636.5528068909916" r="4" fill="#66ffbd" />
<circle cx="472.72727272727275" cy="646.566809521789" r="4" fill="#66ffbd" />
<circle cx="538.1818181818182" cy="653.9556724798801" r="4" fill="#66ffbd" />
<circle cx="603.6363636363636" cy="663.6189021371692" r="4" fill="#66ffbd" />
<circle cx="669.0909090909091" cy="671.2793312682988" r="4" fill="#66ffbd" />
<circle cx="734.5454545454545" cy="676.6880242146505" r="4" fill="#66ffbd" />
<circle cx="800.0" cy="681.8251509879634" r="4" fill="#66ffbd" />
<circle cx="865.4545454545455" cy="684.755802605338" r="4" fill="#66ffbd" />
<circle cx="930.9090909090909" cy="692.9027877964951" r="4" fill="#66ffbd" />
<circle cx="996.3636363636364" cy="705.7116589581477" r="4" fill="#66ffbd" />
<circle cx="1061.8181818181818" cy="715.6804005601052" r="4" fill="#66ffbd" />
<circle cx="1127.2727272727273" cy="722.5148159149093" r="4" fill="#66ffbd" />
<circle cx="1192.7272727272727" cy="733.388778093662" r="4" fill="#66ffbd" />
<circle cx="1258.1818181818182" cy="734.6334563867555" r="4" fill="#66ffbd" />
<circle cx="1323.6363636363635" cy="737.0549214296827" r="4" fill="#66ffbd" />
<circle cx="1389.090909090909" cy="741.36603442667" r="4" fill="#66ffbd" />
<circle cx="1454.5454545454545" cy="748.607799041032" r="4" fill="#66ffbd" />
<circle cx="1520.0" cy="750.5879690527715" r="4" fill="#66ffbd" />
<path d="M 80.0 920.0 L 145.45454545454544 563.6938657161851 L 210.9090909090909 597.0172981994597 L 276.3636363636364 617.4187069489824 L 341.8181818181818 632.694304182402 L 407.27272727272725 636.5528068909916 L 472.72727272727275 646.566809521789 L 538.1818181818182 653.9556724798801 L 603.6363636363636 663.6189021371692 L 669.0909090909091 671.2793312682988 L 734.5454545454545 676.6880242146505 L 800.0 681.8251509879634 L 865.4545454545455 684.755802605338 L 930.9090909090909 692.9027877964951 L 996.3636363636364 705.7116589581477 L 1061.8181818181818 715.6804005601052 L 1127.2727272727273 722.5148159149093 L 1192.7272727272727 733.388778093662 L 1258.1818181818182 734.6334563867555 L 1323.6363636363635 737.0549214296827 L 1389.090909090909 741.36603442667 L 1454.5454545454545 748.607799041032 L 1520.0 750.5879690527715" fill="none" stroke="#66ffbd" stroke-width="2" />
<text x="80.0" y="940" text-anchor="middle">08-06</text>
<text x="145.45454545454544" y="940" text-anchor="middle">08-07</text>
<text x="210.9090909090909" y="940" text-anchor="middle">08-08</text>
<text x="276.3636363636364" y="940" text-anchor="middle">08-09</text>
<text x="341.8181818181818" y="940" text-anchor="middle">08-10</text>
<text x="407.27272727272725" y="940" text-anchor="middle">08-11</text>
<text x="472.72727272727275" y="940" text-anchor="middle">08-12</text>
<text x="538.1818181818182" y="940" text-anchor="middle">08-13</text>
<text x="603.6363636363636" y="940" text-anchor="middle">08-14</text>
<text x="669.0909090909091" y="940" text-anchor="middle">08-15</text>
<text x="734.5454545454545" y="940" text-anchor="middle">08-16</text>
<text x="800.0" y="940" text-anchor="middle">08-17</text>
<text x="865.4545454545455" y="940" text-anchor="middle">08-18</text>
<text x="930.9090909090909" y="940" text-anchor="middle">08-19</text>
<text x="996.3636363636364" y="940" text-anchor="middle">08-20</text>
<text x="1061.8181818181818" y="940" text-anchor="middle">08-21</text>
<text x="1127.2727272727273" y="940" text-anchor="middle">08-22</text>
<text x="1192.7272727272727" y="940" text-anchor="middle">08-23</text>
<text x="1258.1818181818182" y="940" text-anchor="middle">08-24</text>
<text x="1323.6363636363635" y="940" text-anchor="middle">08-25</text>
<text x="1389.090909090909" y="940" text-anchor="middle">08-26</text>
<text x="1454.5454545454545" y="940" text-anchor="middle">08-27</text>
<text x="1520.0" y="940" text-anchor="middle">08-28</text>
<rect x="90" y="100" width="130" height="185" class="legend-box" />
<text x="100" y="120" class="legend-item">图例:</text>
<rect x="100" y="137" width="15" height="15" fill="#1f77b4" rx="3" />
<text x="120" y="145" class="legend-item">构件聚合数据</text>
<rect x="100" y="162" width="15" height="15" fill="#ff7f0e" rx="3" />
<text x="120" y="170" class="legend-item">构件基本信息</text>
<rect x="100" y="187" width="15" height="15" fill="#2ca02c" rx="3" />
<text x="120" y="195" class="legend-item">构件徽标</text>
<rect x="100" y="212" width="15" height="15" fill="#d62728" rx="3" />
<text x="120" y="220" class="legend-item">构件扩展元数据</text>
<rect x="100" y="237" width="15" height="15" fill="#9467bd" rx="3" />
<text x="120" y="245" class="legend-item">构件版本信息</text>
<rect x="100" y="262" width="15" height="15" fill="#66ffbd" rx="3" />
<text x="120" y="270" class="legend-item">数据量偏差</text>
<text x="1520" y="990" text-anchor="end" font-size="10" fill="#666">生成时间: 2025-08-28 07:29:14</text>
</svg>