<svg xmlns="http://www.w3.org/2000/svg" width="1600" height="1000" viewBox="0 0 1600 1000">
<style>
  text {
    font-family: Arial, sans-serif;
    font-size: 12px;
    fill: #333;
  }
  .axis-label { font-size: 14px; }
  .title { font-size: 18px; font-weight: bold; }
  .legend-item { font-size: 11px; }
  .legend-box { fill: white; fill-opacity: 0.85; stroke: #cccccc; stroke-width: 1; rx: 5; }
</style>
<text x="800.0" y="30" text-anchor="middle" class="title">Daily Data Growth Trend</text>
<text x="800.0" y="980" text-anchor="middle" class="axis-label">Date</text>
<g transform="rotate(-90)">
<text x="-500.0" y="20" text-anchor="middle" class="axis-label">Count</text>
</g>
<rect x="0" y="0" width="1600" height="1000" fill="#f8f8f8" />
<line x1="80" y1="920.0" x2="1520" y2="920.0" stroke="#e0e0e0" stroke-width="1" />
<text x="70" y="925.0" text-anchor="end">0</text>
<line x1="80" y1="752.0" x2="1520" y2="752.0" stroke="#e0e0e0" stroke-width="1" />
<text x="70" y="757.0" text-anchor="end">17.9k</text>
<line x1="80" y1="584.0" x2="1520" y2="584.0" stroke="#e0e0e0" stroke-width="1" />
<text x="70" y="589.0" text-anchor="end">35.7k</text>
<line x1="80" y1="416.0" x2="1520" y2="416.0" stroke="#e0e0e0" stroke-width="1" />
<text x="70" y="421.0" text-anchor="end">53.6k</text>
<line x1="80" y1="248.0" x2="1520" y2="248.0" stroke="#e0e0e0" stroke-width="1" />
<text x="70" y="253.0" text-anchor="end">71.4k</text>
<line x1="80" y1="80.0" x2="1520" y2="80.0" stroke="#e0e0e0" stroke-width="1" />
<text x="70" y="85.0" text-anchor="end">89.3k</text>
<line x1="80" y1="80" x2="80" y2="920" stroke="#333333" stroke-width="2" />
<line x1="80" y1="920" x2="1520" y2="920" stroke="#333333" stroke-width="2" />
<circle cx="80.0" cy="920.0" r="4" fill="#1f77b4" />
<circle cx="121.14285714285714" cy="874.0250426194815" r="4" fill="#1f77b4" />
<circle cx="162.28571428571428" cy="776.5916171888778" r="4" fill="#1f77b4" />
<circle cx="203.42857142857144" cy="737.3981541355594" r="4" fill="#1f77b4" />
<circle cx="244.57142857142858" cy="713.808712009876" r="4" fill="#1f77b4" />
<circle cx="285.7142857142857" cy="701.9669625536418" r="4" fill="#1f77b4" />
<circle cx="326.8571428571429" cy="678.3775204279584" r="4" fill="#1f77b4" />
<circle cx="368.0" cy="652.9163482452531" r="4" fill="#1f77b4" />
<circle cx="409.14285714285717" cy="629.4491799423902" r="4" fill="#1f77b4" />
<circle cx="450.28571428571433" cy="610.3180295103168" r="4" fill="#1f77b4" />
<circle cx="491.42857142857144" cy="592.8704955616954" r="4" fill="#1f77b4" />
<circle cx="532.5714285714287" cy="581.903474222562" r="4" fill="#1f77b4" />
<circle cx="573.7142857142858" cy="571.0493210275704" r="4" fill="#1f77b4" />
<circle cx="614.8571428571429" cy="554.7304685203692" r="4" fill="#1f77b4" />
<circle cx="656.0" cy="531.55487625654" r="4" fill="#1f77b4" />
<circle cx="697.1428571428572" cy="506.48874257833165" r="4" fill="#1f77b4" />
<circle cx="738.2857142857143" cy="489.8500969960614" r="4" fill="#1f77b4" />
<circle cx="779.4285714285714" cy="467.0789489154077" r="4" fill="#1f77b4" />
<circle cx="820.5714285714287" cy="457.6732702369055" r="4" fill="#1f77b4" />
<circle cx="861.7142857142858" cy="449.01064017400506" r="4" fill="#1f77b4" />
<circle cx="902.8571428571429" cy="430.3779907118923" r="4" fill="#1f77b4" />
<circle cx="944.0000000000001" cy="412.0557286461701" r="4" fill="#1f77b4" />
<circle cx="985.1428571428572" cy="395.8309329257539" r="4" fill="#1f77b4" />
<circle cx="1026.2857142857142" cy="373.4360119922403" r="4" fill="#1f77b4" />
<circle cx="1067.4285714285716" cy="358.0201046381753" r="4" fill="#1f77b4" />
<circle cx="1108.5714285714287" cy="348.5203691728881" r="4" fill="#1f77b4" />
<circle cx="1149.7142857142858" cy="337.8073011580742" r="4" fill="#1f77b4" />
<circle cx="1190.857142857143" cy="324.0467932514256" r="4" fill="#1f77b4" />
<circle cx="1232.0" cy="312.1015813297279" r="4" fill="#1f77b4" />
<circle cx="1273.1428571428573" cy="301.952854035624" r="4" fill="#1f77b4" />
<circle cx="1314.2857142857144" cy="284.7216506966081" r="4" fill="#1f77b4" />
<circle cx="1355.4285714285716" cy="270.6601610722473" r="4" fill="#1f77b4" />
<circle cx="1396.5714285714287" cy="249.21521368526248" r="4" fill="#1f77b4" />
<circle cx="1437.7142857142858" cy="242.93222032802305" r="4" fill="#1f77b4" />
<circle cx="1478.857142857143" cy="235.80271588971846" r="4" fill="#1f77b4" />
<circle cx="1520.0" cy="226.35000881782378" r="4" fill="#1f77b4" />
<path d="M 80.0 920.0 L 121.14285714285714 874.0250426194815 L 162.28571428571428 776.5916171888778 L 203.42857142857144 737.3981541355594 L 244.57142857142858 713.808712009876 L 285.7142857142857 701.9669625536418 L 326.8571428571429 678.3775204279584 L 368.0 652.9163482452531 L 409.14285714285717 629.4491799423902 L 450.28571428571433 610.3180295103168 L 491.42857142857144 592.8704955616954 L 532.5714285714287 581.903474222562 L 573.7142857142858 571.0493210275704 L 614.8571428571429 554.7304685203692 L 656.0 531.55487625654 L 697.1428571428572 506.48874257833165 L 738.2857142857143 489.8500969960614 L 779.4285714285714 467.0789489154077 L 820.5714285714287 457.6732702369055 L 861.7142857142858 449.01064017400506 L 902.8571428571429 430.3779907118923 L 944.0000000000001 412.0557286461701 L 985.1428571428572 395.8309329257539 L 1026.2857142857142 373.4360119922403 L 1067.4285714285716 358.0201046381753 L 1108.5714285714287 348.5203691728881 L 1149.7142857142858 337.8073011580742 L 1190.857142857143 324.0467932514256 L 1232.0 312.1015813297279 L 1273.1428571428573 301.952854035624 L 1314.2857142857144 284.7216506966081 L 1355.4285714285716 270.6601610722473 L 1396.5714285714287 249.21521368526248 L 1437.7142857142858 242.93222032802305 L 1478.857142857143 235.80271588971846 L 1520.0 226.35000881782378" fill="none" stroke="#1f77b4" stroke-width="2" />
<circle cx="80.0" cy="920.0" r="4" fill="#ff7f0e" />
<circle cx="121.14285714285714" cy="584.4430074657574" r="4" fill="#ff7f0e" />
<circle cx="162.28571428571428" cy="514.436541061666" r="4" fill="#ff7f0e" />
<circle cx="203.42857142857144" cy="491.9851860560814" r="4" fill="#ff7f0e" />
<circle cx="244.57142857142858" cy="480.92410793016285" r="4" fill="#ff7f0e" />
<circle cx="285.7142857142857" cy="472.2708835459409" r="4" fill="#ff7f0e" />
<circle cx="326.8571428571429" cy="456.84557051319734" r="4" fill="#ff7f0e" />
<circle cx="368.0" cy="437.2723531832344" r="4" fill="#ff7f0e" />
<circle cx="409.14285714285717" cy="421.6589265769208" r="4" fill="#ff7f0e" />
<circle cx="450.28571428571433" cy="408.7919581447299" r="4" fill="#ff7f0e" />
<circle cx="491.42857142857144" cy="395.77449885368287" r="4" fill="#ff7f0e" />
<circle cx="532.5714285714287" cy="388.9741931691259" r="4" fill="#ff7f0e" />
<circle cx="573.7142857142858" cy="380.5561107518664" r="4" fill="#ff7f0e" />
<circle cx="614.8571428571429" cy="370.98112985715125" r="4" fill="#ff7f0e" />
<circle cx="656.0" cy="358.1705954970313" r="4" fill="#ff7f0e" />
<circle cx="697.1428571428572" cy="341.0240432661219" r="4" fill="#ff7f0e" />
<circle cx="738.2857142857143" cy="330.0193992122744" r="4" fill="#ff7f0e" />
<circle cx="779.4285714285714" cy="316.27770266298273" r="4" fill="#ff7f0e" />
<circle cx="820.5714285714287" cy="307.9160543177944" r="4" fill="#ff7f0e" />
<circle cx="861.7142857142858" cy="301.2474281347363" r="4" fill="#ff7f0e" />
<circle cx="902.8571428571429" cy="286.0948797836694" r="4" fill="#ff7f0e" />
<circle cx="944.0000000000001" cy="273.76403503615313" r="4" fill="#ff7f0e" />
<circle cx="985.1428571428572" cy="259.1664217271177" r="4" fill="#ff7f0e" />
<circle cx="1026.2857142857142" cy="240.0164599376874" r="4" fill="#ff7f0e" />
<circle cx="1067.4285714285716" cy="228.0524366586327" r="4" fill="#ff7f0e" />
<circle cx="1108.5714285714287" cy="213.77461642466642" r="4" fill="#ff7f0e" />
<circle cx="1149.7142857142858" cy="210.2286755628711" r="4" fill="#ff7f0e" />
<circle cx="1190.857142857143" cy="198.1517841396743" r="4" fill="#ff7f0e" />
<circle cx="1232.0" cy="190.07230615484093" r="4" fill="#ff7f0e" />
<circle cx="1273.1428571428573" cy="182.34083828111227" r="4" fill="#ff7f0e" />
<circle cx="1314.2857142857144" cy="167.96896126036097" r="4" fill="#ff7f0e" />
<circle cx="1355.4285714285716" cy="155.064370113456" r="4" fill="#ff7f0e" />
<circle cx="1396.5714285714287" cy="140.84298395156077" r="4" fill="#ff7f0e" />
<circle cx="1437.7142857142858" cy="135.65104932102759" r="4" fill="#ff7f0e" />
<circle cx="1478.857142857143" cy="130.3274351889953" r="4" fill="#ff7f0e" />
<circle cx="1520.0" cy="123.15090235729826" r="4" fill="#ff7f0e" />
<path d="M 80.0 920.0 L 121.14285714285714 584.4430074657574 L 162.28571428571428 514.436541061666 L 203.42857142857144 491.9851860560814 L 244.57142857142858 480.92410793016285 L 285.7142857142857 472.2708835459409 L 326.8571428571429 456.84557051319734 L 368.0 437.2723531832344 L 409.14285714285717 421.6589265769208 L 450.28571428571433 408.7919581447299 L 491.42857142857144 395.77449885368287 L 532.5714285714287 388.9741931691259 L 573.7142857142858 380.5561107518664 L 614.8571428571429 370.98112985715125 L 656.0 358.1705954970313 L 697.1428571428572 341.0240432661219 L 738.2857142857143 330.0193992122744 L 779.4285714285714 316.27770266298273 L 820.5714285714287 307.9160543177944 L 861.7142857142858 301.2474281347363 L 902.8571428571429 286.0948797836694 L 944.0000000000001 273.76403503615313 L 985.1428571428572 259.1664217271177 L 1026.2857142857142 240.0164599376874 L 1067.4285714285716 228.0524366586327 L 1108.5714285714287 213.77461642466642 L 1149.7142857142858 210.2286755628711 L 1190.857142857143 198.1517841396743 L 1232.0 190.07230615484093 L 1273.1428571428573 182.34083828111227 L 1314.2857142857144 167.96896126036097 L 1355.4285714285716 155.064370113456 L 1396.5714285714287 140.84298395156077 L 1437.7142857142858 135.65104932102759 L 1478.857142857143 130.3274351889953 L 1520.0 123.15090235729826" fill="none" stroke="#ff7f0e" stroke-width="2" />
<circle cx="80.0" cy="920.0" r="4" fill="#2ca02c" />
<circle cx="121.14285714285714" cy="577.8496267121275" r="4" fill="#2ca02c" />
<circle cx="162.28571428571428" cy="508.11592498971254" r="4" fill="#2ca02c" />
<circle cx="203.42857142857144" cy="485.8809005937335" r="4" fill="#2ca02c" />
<circle cx="244.57142857142858" cy="474.98912468402796" r="4" fill="#2ca02c" />
<circle cx="285.7142857142857" cy="466.354711657163" r="4" fill="#2ca02c" />
<circle cx="326.8571428571429" cy="451.08929516195406" r="4" fill="#2ca02c" />
<circle cx="368.0" cy="431.7700311563106" r="4" fill="#2ca02c" />
<circle cx="409.14285714285717" cy="416.3353124448886" r="4" fill="#2ca02c" />
<circle cx="450.28571428571433" cy="403.5718064781612" r="4" fill="#2ca02c" />
<circle cx="491.42857142857144" cy="390.62018693786376" r="4" fill="#2ca02c" />
<circle cx="532.5714285714287" cy="383.9233437187702" r="4" fill="#2ca02c" />
<circle cx="573.7142857142858" cy="375.5052613015108" r="4" fill="#2ca02c" />
<circle cx="614.8571428571429" cy="365.9584974428311" r="4" fill="#2ca02c" />
<circle cx="656.0" cy="353.4301334430662" r="4" fill="#2ca02c" />
<circle cx="697.1428571428572" cy="336.6504026806184" r="4" fill="#2ca02c" />
<circle cx="738.2857142857143" cy="325.69278702016345" r="4" fill="#2ca02c" />
<circle cx="779.4285714285714" cy="311.9604961495503" r="4" fill="#2ca02c" />
<circle cx="820.5714285714287" cy="303.5894421256834" r="4" fill="#2ca02c" />
<circle cx="861.7142857142858" cy="296.93962729998236" r="4" fill="#2ca02c" />
<circle cx="902.8571428571429" cy="281.89054141437896" r="4" fill="#2ca02c" />
<circle cx="944.0000000000001" cy="269.58791370289816" r="4" fill="#2ca02c" />
<circle cx="985.1428571428572" cy="255.00911175121985" r="4" fill="#2ca02c" />
<circle cx="1026.2857142857142" cy="235.88736699782498" r="4" fill="#2ca02c" />
<circle cx="1067.4285714285716" cy="223.96096643348426" r="4" fill="#2ca02c" />
<circle cx="1108.5714285714287" cy="209.69255187819647" r="4" fill="#2ca02c" />
<circle cx="1149.7142857142858" cy="206.15601669507964" r="4" fill="#2ca02c" />
<circle cx="1190.857142857143" cy="194.08853095056145" r="4" fill="#2ca02c" />
<circle cx="1232.0" cy="186.03727000176355" r="4" fill="#2ca02c" />
<circle cx="1273.1428571428573" cy="178.35283052142734" r="4" fill="#2ca02c" />
<circle cx="1314.2857142857144" cy="164.31015225442366" r="4" fill="#2ca02c" />
<circle cx="1355.4285714285716" cy="151.44318382223264" r="4" fill="#2ca02c" />
<circle cx="1396.5714285714287" cy="137.61683616483447" r="4" fill="#2ca02c" />
<circle cx="1437.7142857142858" cy="132.42490153430128" r="4" fill="#2ca02c" />
<circle cx="1478.857142857143" cy="127.16712715301867" r="4" fill="#2ca02c" />
<circle cx="1520.0" cy="120.0" r="4" fill="#2ca02c" />
<path d="M 80.0 920.0 L 121.14285714285714 577.8496267121275 L 162.28571428571428 508.11592498971254 L 203.42857142857144 485.8809005937335 L 244.57142857142858 474.98912468402796 L 285.7142857142857 466.354711657163 L 326.8571428571429 451.08929516195406 L 368.0 431.7700311563106 L 409.14285714285717 416.3353124448886 L 450.28571428571433 403.5718064781612 L 491.42857142857144 390.62018693786376 L 532.5714285714287 383.9233437187702 L 573.7142857142858 375.5052613015108 L 614.8571428571429 365.9584974428311 L 656.0 353.4301334430662 L 697.1428571428572 336.6504026806184 L 738.2857142857143 325.69278702016345 L 779.4285714285714 311.9604961495503 L 820.5714285714287 303.5894421256834 L 861.7142857142858 296.93962729998236 L 902.8571428571429 281.89054141437896 L 944.0000000000001 269.58791370289816 L 985.1428571428572 255.00911175121985 L 1026.2857142857142 235.88736699782498 L 1067.4285714285716 223.96096643348426 L 1108.5714285714287 209.69255187819647 L 1149.7142857142858 206.15601669507964 L 1190.857142857143 194.08853095056145 L 1232.0 186.03727000176355 L 1273.1428571428573 178.35283052142734 L 1314.2857142857144 164.31015225442366 L 1355.4285714285716 151.44318382223264 L 1396.5714285714287 137.61683616483447 L 1437.7142857142858 132.42490153430128 L 1478.857142857143 127.16712715301867 L 1520.0 120.0" fill="none" stroke="#2ca02c" stroke-width="2" />
<circle cx="80.0" cy="920.0" r="4" fill="#d62728" />
<circle cx="121.14285714285714" cy="853.6147198871319" r="4" fill="#d62728" />
<circle cx="162.28571428571428" cy="757.5357121862324" r="4" fill="#d62728" />
<circle cx="203.42857142857144" cy="724.2866380577274" r="4" fill="#d62728" />
<circle cx="244.57142857142858" cy="700.7442243254364" r="4" fill="#d62728" />
<circle cx="285.7142857142857" cy="689.0059373346658" r="4" fill="#d62728" />
<circle cx="326.8571428571429" cy="665.8961848215861" r="4" fill="#d62728" />
<circle cx="368.0" cy="641.620128152372" r="4" fill="#d62728" />
<circle cx="409.14285714285717" cy="619.2722356122508" r="4" fill="#d62728" />
<circle cx="450.28571428571433" cy="600.5455293633531" r="4" fill="#d62728" />
<circle cx="491.42857142857144" cy="583.1544294868027" r="4" fill="#d62728" />
<circle cx="532.5714285714287" cy="572.2062195050262" r="4" fill="#d62728" />
<circle cx="573.7142857142858" cy="561.3614719887132" r="4" fill="#d62728" />
<circle cx="614.8571428571429" cy="545.8515078478631" r="4" fill="#d62728" />
<circle cx="656.0" cy="522.9486802657104" r="4" fill="#d62728" />
<circle cx="697.1428571428572" cy="498.3058021280348" r="4" fill="#d62728" />
<circle cx="738.2857142857143" cy="482.45723355475866" r="4" fill="#d62728" />
<circle cx="779.4285714285714" cy="459.9682558344601" r="4" fill="#d62728" />
<circle cx="820.5714285714287" cy="450.5625771559579" r="4" fill="#d62728" />
<circle cx="861.7142857142858" cy="441.99400387984247" r="4" fill="#d62728" />
<circle cx="902.8571428571429" cy="423.5870907060138" r="4" fill="#d62728" />
<circle cx="944.0000000000001" cy="406.37469872435486" r="4" fill="#d62728" />
<circle cx="985.1428571428572" cy="390.2157427546881" r="4" fill="#d62728" />
<circle cx="1026.2857142857142" cy="367.8396331785316" r="4" fill="#d62728" />
<circle cx="1067.4285714285716" cy="352.93163247310565" r="4" fill="#d62728" />
<circle cx="1108.5714285714287" cy="343.4318970078185" r="4" fill="#d62728" />
<circle cx="1149.7142857142858" cy="332.70942331432605" r="4" fill="#d62728" />
<circle cx="1190.857142857143" cy="318.9489154076774" r="4" fill="#d62728" />
<circle cx="1232.0" cy="307.8031861736523" r="4" fill="#d62728" />
<circle cx="1273.1428571428573" cy="297.6732702369055" r="4" fill="#d62728" />
<circle cx="1314.2857142857144" cy="280.4796896126036" r="4" fill="#d62728" />
<circle cx="1355.4285714285716" cy="266.4276056669214" r="4" fill="#d62728" />
<circle cx="1396.5714285714287" cy="245.09552642407857" r="4" fill="#d62728" />
<circle cx="1437.7142857142858" cy="238.8407501028746" r="4" fill="#d62728" />
<circle cx="1478.857142857143" cy="231.71124566457001" r="4" fill="#d62728" />
<circle cx="1520.0" cy="222.32437834342488" r="4" fill="#d62728" />
<path d="M 80.0 920.0 L 121.14285714285714 853.6147198871319 L 162.28571428571428 757.5357121862324 L 203.42857142857144 724.2866380577274 L 244.57142857142858 700.7442243254364 L 285.7142857142857 689.0059373346658 L 326.8571428571429 665.8961848215861 L 368.0 641.620128152372 L 409.14285714285717 619.2722356122508 L 450.28571428571433 600.5455293633531 L 491.42857142857144 583.1544294868027 L 532.5714285714287 572.2062195050262 L 573.7142857142858 561.3614719887132 L 614.8571428571429 545.8515078478631 L 656.0 522.9486802657104 L 697.1428571428572 498.3058021280348 L 738.2857142857143 482.45723355475866 L 779.4285714285714 459.9682558344601 L 820.5714285714287 450.5625771559579 L 861.7142857142858 441.99400387984247 L 902.8571428571429 423.5870907060138 L 944.0000000000001 406.37469872435486 L 985.1428571428572 390.2157427546881 L 1026.2857142857142 367.8396331785316 L 1067.4285714285716 352.93163247310565 L 1108.5714285714287 343.4318970078185 L 1149.7142857142858 332.70942331432605 L 1190.857142857143 318.9489154076774 L 1232.0 307.8031861736523 L 1273.1428571428573 297.6732702369055 L 1314.2857142857144 280.4796896126036 L 1355.4285714285716 266.4276056669214 L 1396.5714285714287 245.09552642407857 L 1437.7142857142858 238.8407501028746 L 1478.857142857143 231.71124566457001 L 1520.0 222.32437834342488" fill="none" stroke="#d62728" stroke-width="2" />
<circle cx="80.0" cy="920.0" r="4" fill="#9467bd" />
<circle cx="121.14285714285714" cy="860.621950502616" r="4" fill="#9467bd" />
<circle cx="162.28571428571428" cy="764.176121333255" r="4" fill="#9467bd" />
<circle cx="203.42857142857144" cy="725.0767150667216" r="4" fill="#9467bd" />
<circle cx="244.57142857142858" cy="701.4590559050026" r="4" fill="#9467bd" />
<circle cx="285.7142857142857" cy="690.9246957850803" r="4" fill="#9467bd" />
<circle cx="326.8571428571429" cy="667.617424019752" r="4" fill="#9467bd" />
<circle cx="368.0" cy="642.2220915877961" r="4" fill="#9467bd" />
<circle cx="409.14285714285717" cy="619.2440185762155" r="4" fill="#9467bd" />
<circle cx="450.28571428571433" cy="600.3103873963905" r="4" fill="#9467bd" />
<circle cx="491.42857142857144" cy="583.1168067720887" r="4" fill="#9467bd" />
<circle cx="532.5714285714287" cy="572.1591911116336" r="4" fill="#9467bd" />
<circle cx="573.7142857142858" cy="561.2391981658927" r="4" fill="#9467bd" />
<circle cx="614.8571428571429" cy="545.0144024454764" r="4" fill="#9467bd" />
<circle cx="656.0" cy="522.2808770795368" r="4" fill="#9467bd" />
<circle cx="697.1428571428572" cy="497.1583093292575" r="4" fill="#9467bd" />
<circle cx="738.2857142857143" cy="480.87707953677034" r="4" fill="#9467bd" />
<circle cx="779.4285714285714" cy="461.3320792428429" r="4" fill="#9467bd" />
<circle cx="820.5714285714287" cy="451.91699488566223" r="4" fill="#9467bd" />
<circle cx="861.7142857142858" cy="443.2543648227617" r="4" fill="#9467bd" />
<circle cx="902.8571428571429" cy="424.57468696725647" r="4" fill="#9467bd" />
<circle cx="944.0000000000001" cy="406.82617130092297" r="4" fill="#9467bd" />
<circle cx="985.1428571428572" cy="390.6860266886132" r="4" fill="#9467bd" />
<circle cx="1026.2857142857142" cy="368.22526600435015" r="4" fill="#9467bd" />
<circle cx="1067.4285714285716" cy="353.1009346893187" r="4" fill="#9467bd" />
<circle cx="1108.5714285714287" cy="343.62941626006705" r="4" fill="#9467bd" />
<circle cx="1149.7142857142858" cy="332.90694256657457" r="4" fill="#9467bd" />
<circle cx="1190.857142857143" cy="319.12762330256896" r="4" fill="#9467bd" />
<circle cx="1232.0" cy="307.61507260008227" r="4" fill="#9467bd" />
<circle cx="1273.1428571428573" cy="297.4851566633355" r="4" fill="#9467bd" />
<circle cx="1314.2857142857144" cy="280.52671800599614" r="4" fill="#9467bd" />
<circle cx="1355.4285714285716" cy="266.794427135383" r="4" fill="#9467bd" />
<circle cx="1396.5714285714287" cy="245.34007406971955" r="4" fill="#9467bd" />
<circle cx="1437.7142857142858" cy="239.02886367644464" r="4" fill="#9467bd" />
<circle cx="1478.857142857143" cy="232.1909352771736" r="4" fill="#9467bd" />
<circle cx="1520.0" cy="222.775850919993" r="4" fill="#9467bd" />
<path d="M 80.0 920.0 L 121.14285714285714 860.621950502616 L 162.28571428571428 764.176121333255 L 203.42857142857144 725.0767150667216 L 244.57142857142858 701.4590559050026 L 285.7142857142857 690.9246957850803 L 326.8571428571429 667.617424019752 L 368.0 642.2220915877961 L 409.14285714285717 619.2440185762155 L 450.28571428571433 600.3103873963905 L 491.42857142857144 583.1168067720887 L 532.5714285714287 572.1591911116336 L 573.7142857142858 561.2391981658927 L 614.8571428571429 545.0144024454764 L 656.0 522.2808770795368 L 697.1428571428572 497.1583093292575 L 738.2857142857143 480.87707953677034 L 779.4285714285714 461.3320792428429 L 820.5714285714287 451.91699488566223 L 861.7142857142858 443.2543648227617 L 902.8571428571429 424.57468696725647 L 944.0000000000001 406.82617130092297 L 985.1428571428572 390.6860266886132 L 1026.2857142857142 368.22526600435015 L 1067.4285714285716 353.1009346893187 L 1108.5714285714287 343.62941626006705 L 1149.7142857142858 332.90694256657457 L 1190.857142857143 319.12762330256896 L 1232.0 307.61507260008227 L 1273.1428571428573 297.4851566633355 L 1314.2857142857144 280.52671800599614 L 1355.4285714285716 266.794427135383 L 1396.5714285714287 245.34007406971955 L 1437.7142857142858 239.02886367644464 L 1478.857142857143 232.1909352771736 L 1520.0 222.775850919993" fill="none" stroke="#9467bd" stroke-width="2" />
<circle cx="80.0" cy="920.0" r="4" fill="#66ffbd" />
<circle cx="121.14285714285714" cy="623.8245840926459" r="4" fill="#66ffbd" />
<circle cx="162.28571428571428" cy="651.5243078008348" r="4" fill="#66ffbd" />
<circle cx="203.42857142857144" cy="668.4827464581741" r="4" fill="#66ffbd" />
<circle cx="244.57142857142858" cy="681.180412674152" r="4" fill="#66ffbd" />
<circle cx="285.7142857142857" cy="684.3877491035213" r="4" fill="#66ffbd" />
<circle cx="326.8571428571429" cy="692.7117747339956" r="4" fill="#66ffbd" />
<circle cx="368.0" cy="698.8536829110576" r="4" fill="#66ffbd" />
<circle cx="409.14285714285717" cy="706.8861325024984" r="4" fill="#66ffbd" />
<circle cx="450.28571428571433" cy="713.2537769678444" r="4" fill="#66ffbd" />
<circle cx="491.42857142857144" cy="717.7496913761684" r="4" fill="#66ffbd" />
<circle cx="532.5714285714287" cy="722.0198694962083" r="4" fill="#66ffbd" />
<circle cx="573.7142857142858" cy="724.4559402739404" r="4" fill="#66ffbd" />
<circle cx="614.8571428571429" cy="731.2280289224619" r="4" fill="#66ffbd" />
<circle cx="656.0" cy="741.8752571865264" r="4" fill="#66ffbd" />
<circle cx="697.1428571428572" cy="750.1616601022868" r="4" fill="#66ffbd" />
<circle cx="738.2857142857143" cy="755.842690024102" r="4" fill="#66ffbd" />
<circle cx="779.4285714285714" cy="764.8815472341425" r="4" fill="#66ffbd" />
<circle cx="820.5714285714287" cy="765.9161718887779" r="4" fill="#66ffbd" />
<circle cx="861.7142857142858" cy="767.9289871259773" r="4" fill="#66ffbd" />
<circle cx="902.8571428571429" cy="771.5125507024866" r="4" fill="#66ffbd" />
<circle cx="944.0000000000001" cy="777.5321850567279" r="4" fill="#66ffbd" />
<circle cx="985.1428571428572" cy="779.1781788254659" r="4" fill="#66ffbd" />
<circle cx="1026.2857142857142" cy="782.4513550055847" r="4" fill="#66ffbd" />
<circle cx="1067.4285714285716" cy="785.9408617953089" r="4" fill="#66ffbd" />
<circle cx="1108.5714285714287" cy="781.1721827053084" r="4" fill="#66ffbd" />
<circle cx="1149.7142857142858" cy="788.3487155370054" r="4" fill="#66ffbd" />
<circle cx="1190.857142857143" cy="790.0417376991359" r="4" fill="#66ffbd" />
<circle cx="1232.0" cy="793.9356886720358" r="4" fill="#66ffbd" />
<circle cx="1273.1428571428573" cy="796.3999764858033" r="4" fill="#66ffbd" />
<circle cx="1314.2857142857144" cy="799.5885015578156" r="4" fill="#66ffbd" />
<circle cx="1355.4285714285716" cy="800.7830227499853" r="4" fill="#66ffbd" />
<circle cx="1396.5714285714287" cy="808.4016224795721" r="4" fill="#66ffbd" />
<circle cx="1437.7142857142858" cy="809.4926812062783" r="4" fill="#66ffbd" />
<circle cx="1478.857142857143" cy="811.3644112633002" r="4" fill="#66ffbd" />
<circle cx="1520.0" cy="813.6499911821762" r="4" fill="#66ffbd" />
<path d="M 80.0 920.0 L 121.14285714285714 623.8245840926459 L 162.28571428571428 651.5243078008348 L 203.42857142857144 668.4827464581741 L 244.57142857142858 681.180412674152 L 285.7142857142857 684.3877491035213 L 326.8571428571429 692.7117747339956 L 368.0 698.8536829110576 L 409.14285714285717 706.8861325024984 L 450.28571428571433 713.2537769678444 L 491.42857142857144 717.7496913761684 L 532.5714285714287 722.0198694962083 L 573.7142857142858 724.4559402739404 L 614.8571428571429 731.2280289224619 L 656.0 741.8752571865264 L 697.1428571428572 750.1616601022868 L 738.2857142857143 755.842690024102 L 779.4285714285714 764.8815472341425 L 820.5714285714287 765.9161718887779 L 861.7142857142858 767.9289871259773 L 902.8571428571429 771.5125507024866 L 944.0000000000001 777.5321850567279 L 985.1428571428572 779.1781788254659 L 1026.2857142857142 782.4513550055847 L 1067.4285714285716 785.9408617953089 L 1108.5714285714287 781.1721827053084 L 1149.7142857142858 788.3487155370054 L 1190.857142857143 790.0417376991359 L 1232.0 793.9356886720358 L 1273.1428571428573 796.3999764858033 L 1314.2857142857144 799.5885015578156 L 1355.4285714285716 800.7830227499853 L 1396.5714285714287 808.4016224795721 L 1437.7142857142858 809.4926812062783 L 1478.857142857143 811.3644112633002 L 1520.0 813.6499911821762" fill="none" stroke="#66ffbd" stroke-width="2" />
<text x="80.0" y="940" text-anchor="middle">08-06</text>
<text x="121.14285714285714" y="940" text-anchor="middle">08-07</text>
<text x="162.28571428571428" y="940" text-anchor="middle">08-08</text>
<text x="203.42857142857144" y="940" text-anchor="middle">08-09</text>
<text x="244.57142857142858" y="940" text-anchor="middle">08-10</text>
<text x="285.7142857142857" y="940" text-anchor="middle">08-11</text>
<text x="326.8571428571429" y="940" text-anchor="middle">08-12</text>
<text x="368.0" y="940" text-anchor="middle">08-13</text>
<text x="409.14285714285717" y="940" text-anchor="middle">08-14</text>
<text x="450.28571428571433" y="940" text-anchor="middle">08-15</text>
<text x="491.42857142857144" y="940" text-anchor="middle">08-16</text>
<text x="532.5714285714287" y="940" text-anchor="middle">08-17</text>
<text x="573.7142857142858" y="940" text-anchor="middle">08-18</text>
<text x="614.8571428571429" y="940" text-anchor="middle">08-19</text>
<text x="656.0" y="940" text-anchor="middle">08-20</text>
<text x="697.1428571428572" y="940" text-anchor="middle">08-21</text>
<text x="738.2857142857143" y="940" text-anchor="middle">08-22</text>
<text x="779.4285714285714" y="940" text-anchor="middle">08-23</text>
<text x="820.5714285714287" y="940" text-anchor="middle">08-24</text>
<text x="861.7142857142858" y="940" text-anchor="middle">08-25</text>
<text x="902.8571428571429" y="940" text-anchor="middle">08-26</text>
<text x="944.0000000000001" y="940" text-anchor="middle">08-27</text>
<text x="985.1428571428572" y="940" text-anchor="middle">08-28</text>
<text x="1026.2857142857142" y="940" text-anchor="middle">08-29</text>
<text x="1067.4285714285716" y="940" text-anchor="middle">08-30</text>
<text x="1108.5714285714287" y="940" text-anchor="middle">08-31</text>
<text x="1149.7142857142858" y="940" text-anchor="middle">09-01</text>
<text x="1190.857142857143" y="940" text-anchor="middle">09-02</text>
<text x="1232.0" y="940" text-anchor="middle">09-03</text>
<text x="1273.1428571428573" y="940" text-anchor="middle">09-04</text>
<text x="1314.2857142857144" y="940" text-anchor="middle">09-05</text>
<text x="1355.4285714285716" y="940" text-anchor="middle">09-06</text>
<text x="1396.5714285714287" y="940" text-anchor="middle">09-07</text>
<text x="1437.7142857142858" y="940" text-anchor="middle">09-08</text>
<text x="1478.857142857143" y="940" text-anchor="middle">09-09</text>
<text x="1520.0" y="940" text-anchor="middle">09-10</text>
<rect x="90" y="100" width="130" height="185" class="legend-box" />
<text x="100" y="120" class="legend-item">图例:</text>
<rect x="100" y="137" width="15" height="15" fill="#1f77b4" rx="3" />
<text x="120" y="145" class="legend-item">构件聚合数据</text>
<rect x="100" y="162" width="15" height="15" fill="#ff7f0e" rx="3" />
<text x="120" y="170" class="legend-item">构件基本信息</text>
<rect x="100" y="187" width="15" height="15" fill="#2ca02c" rx="3" />
<text x="120" y="195" class="legend-item">构件徽标</text>
<rect x="100" y="212" width="15" height="15" fill="#d62728" rx="3" />
<text x="120" y="220" class="legend-item">构件扩展元数据</text>
<rect x="100" y="237" width="15" height="15" fill="#9467bd" rx="3" />
<text x="120" y="245" class="legend-item">构件版本信息</text>
<rect x="100" y="262" width="15" height="15" fill="#66ffbd" rx="3" />
<text x="120" y="270" class="legend-item">数据量偏差</text>
<text x="1520" y="990" text-anchor="end" font-size="10" fill="#666">生成时间: 2025-09-10 12:34:37</text>
</svg>