<svg xmlns="http://www.w3.org/2000/svg" width="1600" height="1000" viewBox="0 0 1600 1000">
<style>
  text {
    font-family: Arial, sans-serif;
    font-size: 12px;
    fill: #333;
  }
  .axis-label { font-size: 14px; }
  .title { font-size: 18px; font-weight: bold; }
  .legend-item { font-size: 11px; }
  .legend-box { fill: white; fill-opacity: 0.85; stroke: #cccccc; stroke-width: 1; rx: 5; }
</style>
<text x="800.0" y="30" text-anchor="middle" class="title">Daily Data Growth Trend</text>
<text x="800.0" y="980" text-anchor="middle" class="axis-label">Date</text>
<g transform="rotate(-90)">
<text x="-500.0" y="20" text-anchor="middle" class="axis-label">Count</text>
</g>
<rect x="0" y="0" width="1600" height="1000" fill="#f8f8f8" />
<line x1="80" y1="920.0" x2="1520" y2="920.0" stroke="#e0e0e0" stroke-width="1" />
<text x="70" y="925.0" text-anchor="end">0</text>
<line x1="80" y1="752.0" x2="1520" y2="752.0" stroke="#e0e0e0" stroke-width="1" />
<text x="70" y="757.0" text-anchor="end">23.5k</text>
<line x1="80" y1="584.0" x2="1520" y2="584.0" stroke="#e0e0e0" stroke-width="1" />
<text x="70" y="589.0" text-anchor="end">47.0k</text>
<line x1="80" y1="416.0" x2="1520" y2="416.0" stroke="#e0e0e0" stroke-width="1" />
<text x="70" y="421.0" text-anchor="end">70.5k</text>
<line x1="80" y1="248.0" x2="1520" y2="248.0" stroke="#e0e0e0" stroke-width="1" />
<text x="70" y="253.0" text-anchor="end">94.0k</text>
<line x1="80" y1="80.0" x2="1520" y2="80.0" stroke="#e0e0e0" stroke-width="1" />
<text x="70" y="85.0" text-anchor="end">117.6k</text>
<line x1="80" y1="80" x2="80" y2="920" stroke="#333333" stroke-width="2" />
<line x1="80" y1="920" x2="1520" y2="920" stroke="#333333" stroke-width="2" />
<circle cx="80.0" cy="920.0" r="4" fill="#1f77b4" />
<circle cx="102.5" cy="885.0726165169082" r="4" fill="#1f77b4" />
<circle cx="125.0" cy="811.0520016434734" r="4" fill="#1f77b4" />
<circle cx="147.5" cy="781.276550134872" r="4" fill="#1f77b4" />
<circle cx="170.0" cy="763.355544043302" r="4" fill="#1f77b4" />
<circle cx="192.5" cy="754.3593133139213" r="4" fill="#1f77b4" />
<circle cx="215.0" cy="736.4383072223512" r="4" fill="#1f77b4" />
<circle cx="237.5" cy="717.095339323675" r="4" fill="#1f77b4" />
<circle cx="260.0" cy="699.2672252094535" r="4" fill="#1f77b4" />
<circle cx="282.5" cy="684.7332035227496" r="4" fill="#1f77b4" />
<circle cx="305.0" cy="671.4782329087693" r="4" fill="#1f77b4" />
<circle cx="327.5" cy="663.1465370942675" r="4" fill="#1f77b4" />
<circle cx="350.0" cy="654.9005877203952" r="4" fill="#1f77b4" />
<circle cx="372.5" cy="642.5030815127102" r="4" fill="#1f77b4" />
<circle cx="395.0" cy="624.8964790367817" r="4" fill="#1f77b4" />
<circle cx="417.5" cy="605.8536236803087" r="4" fill="#1f77b4" />
<circle cx="440.0" cy="593.2131692241734" r="4" fill="#1f77b4" />
<circle cx="462.5" cy="575.9138248271673" r="4" fill="#1f77b4" />
<circle cx="485.0" cy="568.7682881080406" r="4" fill="#1f77b4" />
<circle cx="507.5" cy="562.1872487897247" r="4" fill="#1f77b4" />
<circle cx="530.0" cy="548.0319405491346" r="4" fill="#1f77b4" />
<circle cx="552.5" cy="534.1124350202755" r="4" fill="#1f77b4" />
<circle cx="575.0" cy="521.7863841797817" r="4" fill="#1f77b4" />
<circle cx="597.5" cy="504.7728612515408" r="4" fill="#1f77b4" />
<circle cx="620.0" cy="493.06132656889196" r="4" fill="#1f77b4" />
<circle cx="642.5" cy="485.84433448257386" r="4" fill="#1f77b4" />
<circle cx="665.0" cy="477.7055681594884" r="4" fill="#1f77b4" />
<circle cx="687.5" cy="467.25164793940587" r="4" fill="#1f77b4" />
<circle cx="710.0" cy="458.1768163061148" r="4" fill="#1f77b4" />
<circle cx="732.5" cy="450.466782186177" r="4" fill="#1f77b4" />
<circle cx="755.0" cy="437.37615891673664" r="4" fill="#1f77b4" />
<circle cx="777.5" cy="426.6935815216421" r="4" fill="#1f77b4" />
<circle cx="800.0" cy="410.40175780203293" r="4" fill="#1f77b4" />
<circle cx="822.5" cy="405.6285392736562" r="4" fill="#1f77b4" />
<circle cx="845.0" cy="400.2122224405581" r="4" fill="#1f77b4" />
<circle cx="867.5" cy="393.0309580378356" r="4" fill="#1f77b4" />
<circle cx="890.0" cy="387.25736436878117" r="4" fill="#1f77b4" />
<circle cx="912.5" cy="378.67557476910986" r="4" fill="#1f77b4" />
<circle cx="935.0" cy="369.05053680844605" r="4" fill="#1f77b4" />
<circle cx="957.5" cy="364.67746833634044" r="4" fill="#1f77b4" />
<circle cx="980.0" cy="359.93283195484025" r="4" fill="#1f77b4" />
<circle cx="1002.5" cy="352.07988710051984" r="4" fill="#1f77b4" />
<circle cx="1025.0" cy="345.49170224548493" r="4" fill="#1f77b4" />
<circle cx="1047.5" cy="323.7049607888673" r="4" fill="#1f77b4" />
<circle cx="1070.0" cy="315.2875185337359" r="4" fill="#1f77b4" />
<circle cx="1092.5" cy="306.3555976348274" r="4" fill="#1f77b4" />
<circle cx="1115.0" cy="300.01036102824276" r="4" fill="#1f77b4" />
<circle cx="1137.5" cy="293.5365047607139" r="4" fill="#1f77b4" />
<circle cx="1160.0" cy="289.4564032940925" r="4" fill="#1f77b4" />
<circle cx="1182.5" cy="281.6606227335251" r="4" fill="#1f77b4" />
<circle cx="1205.0" cy="281.2175994569393" r="4" fill="#1f77b4" />
<circle cx="1227.5" cy="281.1890173100627" r="4" fill="#1f77b4" />
<circle cx="1250.0" cy="280.37442612408233" r="4" fill="#1f77b4" />
<circle cx="1272.5" cy="280.1814966326658" r="4" fill="#1f77b4" />
<circle cx="1295.0" cy="280.1814966326658" r="4" fill="#1f77b4" />
<circle cx="1317.5" cy="280.1743510959467" r="4" fill="#1f77b4" />
<circle cx="1340.0" cy="280.16006002250845" r="4" fill="#1f77b4" />
<circle cx="1362.5" cy="280.1529144857893" r="4" fill="#1f77b4" />
<circle cx="1385.0" cy="272.4857535861663" r="4" fill="#1f77b4" />
<circle cx="1407.5" cy="202.7738973543651" r="4" fill="#1f77b4" />
<circle cx="1430.0" cy="196.43580628449956" r="4" fill="#1f77b4" />
<circle cx="1452.5" cy="191.2552921631327" r="4" fill="#1f77b4" />
<circle cx="1475.0" cy="187.66108719341184" r="4" fill="#1f77b4" />
<circle cx="1497.5" cy="179.8581610961254" r="4" fill="#1f77b4" />
<circle cx="1520.0" cy="171.14775183550978" r="4" fill="#1f77b4" />
<path d="M 80.0 920.0 L 102.5 885.0726165169082 L 125.0 811.0520016434734 L 147.5 781.276550134872 L 170.0 763.355544043302 L 192.5 754.3593133139213 L 215.0 736.4383072223512 L 237.5 717.095339323675 L 260.0 699.2672252094535 L 282.5 684.7332035227496 L 305.0 671.4782329087693 L 327.5 663.1465370942675 L 350.0 654.9005877203952 L 372.5 642.5030815127102 L 395.0 624.8964790367817 L 417.5 605.8536236803087 L 440.0 593.2131692241734 L 462.5 575.9138248271673 L 485.0 568.7682881080406 L 507.5 562.1872487897247 L 530.0 548.0319405491346 L 552.5 534.1124350202755 L 575.0 521.7863841797817 L 597.5 504.7728612515408 L 620.0 493.06132656889196 L 642.5 485.84433448257386 L 665.0 477.7055681594884 L 687.5 467.25164793940587 L 710.0 458.1768163061148 L 732.5 450.466782186177 L 755.0 437.37615891673664 L 777.5 426.6935815216421 L 800.0 410.40175780203293 L 822.5 405.6285392736562 L 845.0 400.2122224405581 L 867.5 393.0309580378356 L 890.0 387.25736436878117 L 912.5 378.67557476910986 L 935.0 369.05053680844605 L 957.5 364.67746833634044 L 980.0 359.93283195484025 L 1002.5 352.07988710051984 L 1025.0 345.49170224548493 L 1047.5 323.7049607888673 L 1070.0 315.2875185337359 L 1092.5 306.3555976348274 L 1115.0 300.01036102824276 L 1137.5 293.5365047607139 L 1160.0 289.4564032940925 L 1182.5 281.6606227335251 L 1205.0 281.2175994569393 L 1227.5 281.1890173100627 L 1250.0 280.37442612408233 L 1272.5 280.1814966326658 L 1295.0 280.1814966326658 L 1317.5 280.1743510959467 L 1340.0 280.16006002250845 L 1362.5 280.1529144857893 L 1385.0 272.4857535861663 L 1407.5 202.7738973543651 L 1430.0 196.43580628449956 L 1452.5 191.2552921631327 L 1475.0 187.66108719341184 L 1497.5 179.8581610961254 L 1520.0 171.14775183550978" fill="none" stroke="#1f77b4" stroke-width="2" />
<circle cx="80.0" cy="920.0" r="4" fill="#ff7f0e" />
<circle cx="102.5" cy="665.0758320084317" r="4" fill="#ff7f0e" />
<circle cx="125.0" cy="611.8916022079709" r="4" fill="#ff7f0e" />
<circle cx="147.5" cy="594.8352060594152" r="4" fill="#ff7f0e" />
<circle cx="170.0" cy="586.4320548777221" r="4" fill="#ff7f0e" />
<circle cx="192.5" cy="579.8581610961253" r="4" fill="#ff7f0e" />
<circle cx="215.0" cy="568.1394808767574" r="4" fill="#ff7f0e" />
<circle cx="237.5" cy="553.2696189642545" r="4" fill="#ff7f0e" />
<circle cx="260.0" cy="541.408028010504" r="4" fill="#ff7f0e" />
<circle cx="282.5" cy="531.6329337787386" r="4" fill="#ff7f0e" />
<circle cx="305.0" cy="521.7435109594669" r="4" fill="#ff7f0e" />
<circle cx="327.5" cy="516.5772879115383" r="4" fill="#ff7f0e" />
<circle cx="350.0" cy="510.1820325479198" r="4" fill="#ff7f0e" />
<circle cx="372.5" cy="502.9078761678487" r="4" fill="#ff7f0e" />
<circle cx="395.0" cy="493.17565515639797" r="4" fill="#ff7f0e" />
<circle cx="417.5" cy="480.14934171742976" r="4" fill="#ff7f0e" />
<circle cx="440.0" cy="471.7890637560514" r="4" fill="#ff7f0e" />
<circle cx="462.5" cy="461.3494346094071" r="4" fill="#ff7f0e" />
<circle cx="485.0" cy="454.9970524661034" r="4" fill="#ff7f0e" />
<circle cx="507.5" cy="449.9308669322425" r="4" fill="#ff7f0e" />
<circle cx="530.0" cy="438.4194072777292" r="4" fill="#ff7f0e" />
<circle cx="552.5" cy="429.05160863895395" r="4" fill="#ff7f0e" />
<circle cx="575.0" cy="417.9617356508691" r="4" fill="#ff7f0e" />
<circle cx="597.5" cy="403.4134228907269" r="4" fill="#ff7f0e" />
<circle cx="620.0" cy="394.3243001839976" r="4" fill="#ff7f0e" />
<circle cx="642.5" cy="383.47737544436313" r="4" fill="#ff7f0e" />
<circle cx="665.0" cy="380.7835081012523" r="4" fill="#ff7f0e" />
<circle cx="687.5" cy="371.60863895389343" r="4" fill="#ff7f0e" />
<circle cx="710.0" cy="365.47062291216355" r="4" fill="#ff7f0e" />
<circle cx="732.5" cy="359.5969917290413" r="4" fill="#ff7f0e" />
<circle cx="755.0" cy="348.6786116222155" r="4" fill="#ff7f0e" />
<circle cx="777.5" cy="338.87493524357353" r="4" fill="#ff7f0e" />
<circle cx="800.0" cy="328.0708837242538" r="4" fill="#ff7f0e" />
<circle cx="822.5" cy="324.12654745529574" r="4" fill="#ff7f0e" />
<circle cx="845.0" cy="320.08217367226996" r="4" fill="#ff7f0e" />
<circle cx="867.5" cy="314.63012915557624" r="4" fill="#ff7f0e" />
<circle cx="890.0" cy="309.8997838475143" r="4" fill="#ff7f0e" />
<circle cx="912.5" cy="302.561317636971" r="4" fill="#ff7f0e" />
<circle cx="935.0" cy="294.82270137015666" r="4" fill="#ff7f0e" />
<circle cx="957.5" cy="289.6064595651941" r="4" fill="#ff7f0e" />
<circle cx="980.0" cy="286.48386001893573" r="4" fill="#ff7f0e" />
<circle cx="1002.5" cy="279.9814216045303" r="4" fill="#ff7f0e" />
<circle cx="1025.0" cy="275.5869165222673" r="4" fill="#ff7f0e" />
<circle cx="1047.5" cy="254.44327337037112" r="4" fill="#ff7f0e" />
<circle cx="1070.0" cy="246.25448829025174" r="4" fill="#ff7f0e" />
<circle cx="1092.5" cy="238.81598456564075" r="4" fill="#ff7f0e" />
<circle cx="1115.0" cy="231.29173440040017" r="4" fill="#ff7f0e" />
<circle cx="1137.5" cy="226.9329570017328" r="4" fill="#ff7f0e" />
<circle cx="1160.0" cy="223.71746547812575" r="4" fill="#ff7f0e" />
<circle cx="1182.5" cy="218.07249147001562" r="4" fill="#ff7f0e" />
<circle cx="1205.0" cy="211.2342128298112" r="4" fill="#ff7f0e" />
<circle cx="1227.5" cy="205.41774594044205" r="4" fill="#ff7f0e" />
<circle cx="1250.0" cy="200.32297825970454" r="4" fill="#ff7f0e" />
<circle cx="1272.5" cy="189.65469193804824" r="4" fill="#ff7f0e" />
<circle cx="1295.0" cy="186.1605244823952" r="4" fill="#ff7f0e" />
<circle cx="1317.5" cy="180.41551296021726" r="4" fill="#ff7f0e" />
<circle cx="1340.0" cy="171.71939477304" r="4" fill="#ff7f0e" />
<circle cx="1362.5" cy="166.17445827899758" r="4" fill="#ff7f0e" />
<circle cx="1385.0" cy="158.57160720984666" r="4" fill="#ff7f0e" />
<circle cx="1407.5" cy="149.6325407742189" r="4" fill="#ff7f0e" />
<circle cx="1430.0" cy="140.84353060969295" r="4" fill="#ff7f0e" />
<circle cx="1452.5" cy="138.40690258847076" r="4" fill="#ff7f0e" />
<circle cx="1475.0" cy="135.42006823987572" r="4" fill="#ff7f0e" />
<circle cx="1497.5" cy="127.93154575823087" r="4" fill="#ff7f0e" />
<circle cx="1520.0" cy="121.68634666571404" r="4" fill="#ff7f0e" />
<path d="M 80.0 920.0 L 102.5 665.0758320084317 L 125.0 611.8916022079709 L 147.5 594.8352060594152 L 170.0 586.4320548777221 L 192.5 579.8581610961253 L 215.0 568.1394808767574 L 237.5 553.2696189642545 L 260.0 541.408028010504 L 282.5 531.6329337787386 L 305.0 521.7435109594669 L 327.5 516.5772879115383 L 350.0 510.1820325479198 L 372.5 502.9078761678487 L 395.0 493.17565515639797 L 417.5 480.14934171742976 L 440.0 471.7890637560514 L 462.5 461.3494346094071 L 485.0 454.9970524661034 L 507.5 449.9308669322425 L 530.0 438.4194072777292 L 552.5 429.05160863895395 L 575.0 417.9617356508691 L 597.5 403.4134228907269 L 620.0 394.3243001839976 L 642.5 383.47737544436313 L 665.0 380.7835081012523 L 687.5 371.60863895389343 L 710.0 365.47062291216355 L 732.5 359.5969917290413 L 755.0 348.6786116222155 L 777.5 338.87493524357353 L 800.0 328.0708837242538 L 822.5 324.12654745529574 L 845.0 320.08217367226996 L 867.5 314.63012915557624 L 890.0 309.8997838475143 L 912.5 302.561317636971 L 935.0 294.82270137015666 L 957.5 289.6064595651941 L 980.0 286.48386001893573 L 1002.5 279.9814216045303 L 1025.0 275.5869165222673 L 1047.5 254.44327337037112 L 1070.0 246.25448829025174 L 1092.5 238.81598456564075 L 1115.0 231.29173440040017 L 1137.5 226.9329570017328 L 1160.0 223.71746547812575 L 1182.5 218.07249147001562 L 1205.0 211.2342128298112 L 1227.5 205.41774594044205 L 1250.0 200.32297825970454 L 1272.5 189.65469193804824 L 1295.0 186.1605244823952 L 1317.5 180.41551296021726 L 1340.0 171.71939477304 L 1362.5 166.17445827899758 L 1385.0 158.57160720984666 L 1407.5 149.6325407742189 L 1430.0 140.84353060969295 L 1452.5 138.40690258847076 L 1475.0 135.42006823987572 L 1497.5 127.93154575823087 L 1520.0 121.68634666571404" fill="none" stroke="#ff7f0e" stroke-width="2" />
<circle cx="80.0" cy="920.0" r="4" fill="#2ca02c" />
<circle cx="102.5" cy="660.0668107683239" r="4" fill="#2ca02c" />
<circle cx="125.0" cy="607.0898015327177" r="4" fill="#2ca02c" />
<circle cx="147.5" cy="590.1977527287019" r="4" fill="#2ca02c" />
<circle cx="170.0" cy="581.923221207953" r="4" fill="#2ca02c" />
<circle cx="192.5" cy="575.3636184997946" r="4" fill="#2ca02c" />
<circle cx="215.0" cy="563.7664124046518" r="4" fill="#2ca02c" />
<circle cx="237.5" cy="549.0894799835653" r="4" fill="#2ca02c" />
<circle cx="260.0" cy="537.3636542274783" r="4" fill="#2ca02c" />
<circle cx="282.5" cy="527.6671608996231" r="4" fill="#2ca02c" />
<circle cx="305.0" cy="517.8277568373856" r="4" fill="#2ca02c" />
<circle cx="327.5" cy="512.7401346933672" r="4" fill="#2ca02c" />
<circle cx="350.0" cy="506.34487932974866" r="4" fill="#2ca02c" />
<circle cx="372.5" cy="499.09215955983495" r="4" fill="#2ca02c" />
<circle cx="395.0" cy="489.57430464995804" r="4" fill="#2ca02c" />
<circle cx="417.5" cy="476.8266671430358" r="4" fill="#2ca02c" />
<circle cx="440.0" cy="468.5021168652531" r="4" fill="#2ca02c" />
<circle cx="462.5" cy="458.0696332553279" r="4" fill="#2ca02c" />
<circle cx="485.0" cy="451.7101055753051" r="4" fill="#2ca02c" />
<circle cx="507.5" cy="446.6582111148824" r="4" fill="#2ca02c" />
<circle cx="530.0" cy="435.2253523642795" r="4" fill="#2ca02c" />
<circle cx="552.5" cy="425.8789903356616" r="4" fill="#2ca02c" />
<circle cx="575.0" cy="414.80340842101504" r="4" fill="#2ca02c" />
<circle cx="597.5" cy="400.2765322710302" r="4" fill="#2ca02c" />
<circle cx="620.0" cy="391.2159917111775" r="4" fill="#2ca02c" />
<circle cx="642.5" cy="380.37621250826203" r="4" fill="#2ca02c" />
<circle cx="665.0" cy="377.68949070187034" r="4" fill="#2ca02c" />
<circle cx="687.5" cy="368.5217670912307" r="4" fill="#2ca02c" />
<circle cx="710.0" cy="362.40518765965817" r="4" fill="#2ca02c" />
<circle cx="732.5" cy="356.5672841601315" r="4" fill="#2ca02c" />
<circle cx="755.0" cy="345.8989978384752" r="4" fill="#2ca02c" />
<circle cx="777.5" cy="336.12390360670975" r="4" fill="#2ca02c" />
<circle cx="800.0" cy="325.61996462959326" r="4" fill="#2ca02c" />
<circle cx="822.5" cy="321.6756283606353" r="4" fill="#2ca02c" />
<circle cx="845.0" cy="317.6812733346434" r="4" fill="#2ca02c" />
<circle cx="867.5" cy="312.2363743546688" r="4" fill="#2ca02c" />
<circle cx="890.0" cy="307.5274656567642" r="4" fill="#2ca02c" />
<circle cx="912.5" cy="300.1889994462209" r="4" fill="#2ca02c" />
<circle cx="935.0" cy="292.4861108630023" r="4" fill="#2ca02c" />
<circle cx="957.5" cy="287.27701459475884" r="4" fill="#2ca02c" />
<circle cx="980.0" cy="284.15441504850037" r="4" fill="#2ca02c" />
<circle cx="1002.5" cy="277.65912217081416" r="4" fill="#2ca02c" />
<circle cx="1025.0" cy="273.3360724557424" r="4" fill="#2ca02c" />
<circle cx="1047.5" cy="252.37821325854338" r="4" fill="#2ca02c" />
<circle cx="1070.0" cy="244.20371925186237" r="4" fill="#2ca02c" />
<circle cx="1092.5" cy="236.98672716554427" r="4" fill="#2ca02c" />
<circle cx="1115.0" cy="229.46962253702281" r="4" fill="#2ca02c" />
<circle cx="1137.5" cy="225.11084513835556" r="4" fill="#2ca02c" />
<circle cx="1160.0" cy="221.8953536147484" r="4" fill="#2ca02c" />
<circle cx="1182.5" cy="216.2646706800765" r="4" fill="#2ca02c" />
<circle cx="1205.0" cy="209.4263920398721" r="4" fill="#2ca02c" />
<circle cx="1227.5" cy="203.60992515050293" r="4" fill="#2ca02c" />
<circle cx="1250.0" cy="198.52944854320378" r="4" fill="#2ca02c" />
<circle cx="1272.5" cy="187.86116222154737" r="4" fill="#2ca02c" />
<circle cx="1295.0" cy="184.36699476589445" r="4" fill="#2ca02c" />
<circle cx="1317.5" cy="178.6219832437165" r="4" fill="#2ca02c" />
<circle cx="1340.0" cy="169.94015612997737" r="4" fill="#2ca02c" />
<circle cx="1362.5" cy="164.41665624609232" r="4" fill="#2ca02c" />
<circle cx="1385.0" cy="156.82095071366052" r="4" fill="#2ca02c" />
<circle cx="1407.5" cy="147.94619410850498" r="4" fill="#2ca02c" />
<circle cx="1430.0" cy="139.15718394397902" r="4" fill="#2ca02c" />
<circle cx="1452.5" cy="136.72055592275683" r="4" fill="#2ca02c" />
<circle cx="1475.0" cy="133.7337215741618" r="4" fill="#2ca02c" />
<circle cx="1497.5" cy="126.23805355579782" r="4" fill="#2ca02c" />
<circle cx="1520.0" cy="120.00000000000011" r="4" fill="#2ca02c" />
<path d="M 80.0 920.0 L 102.5 660.0668107683239 L 125.0 607.0898015327177 L 147.5 590.1977527287019 L 170.0 581.923221207953 L 192.5 575.3636184997946 L 215.0 563.7664124046518 L 237.5 549.0894799835653 L 260.0 537.3636542274783 L 282.5 527.6671608996231 L 305.0 517.8277568373856 L 327.5 512.7401346933672 L 350.0 506.34487932974866 L 372.5 499.09215955983495 L 395.0 489.57430464995804 L 417.5 476.8266671430358 L 440.0 468.5021168652531 L 462.5 458.0696332553279 L 485.0 451.7101055753051 L 507.5 446.6582111148824 L 530.0 435.2253523642795 L 552.5 425.8789903356616 L 575.0 414.80340842101504 L 597.5 400.2765322710302 L 620.0 391.2159917111775 L 642.5 380.37621250826203 L 665.0 377.68949070187034 L 687.5 368.5217670912307 L 710.0 362.40518765965817 L 732.5 356.5672841601315 L 755.0 345.8989978384752 L 777.5 336.12390360670975 L 800.0 325.61996462959326 L 822.5 321.6756283606353 L 845.0 317.6812733346434 L 867.5 312.2363743546688 L 890.0 307.5274656567642 L 912.5 300.1889994462209 L 935.0 292.4861108630023 L 957.5 287.27701459475884 L 980.0 284.15441504850037 L 1002.5 277.65912217081416 L 1025.0 273.3360724557424 L 1047.5 252.37821325854338 L 1070.0 244.20371925186237 L 1092.5 236.98672716554427 L 1115.0 229.46962253702281 L 1137.5 225.11084513835556 L 1160.0 221.8953536147484 L 1182.5 216.2646706800765 L 1205.0 209.4263920398721 L 1227.5 203.60992515050293 L 1250.0 198.52944854320378 L 1272.5 187.86116222154737 L 1295.0 184.36699476589445 L 1317.5 178.6219832437165 L 1340.0 169.94015612997737 L 1362.5 164.41665624609232 L 1385.0 156.82095071366052 L 1407.5 147.94619410850498 L 1430.0 139.15718394397902 L 1452.5 136.72055592275683 L 1475.0 133.7337215741618 L 1497.5 126.23805355579782 L 1520.0 120.00000000000011" fill="none" stroke="#2ca02c" stroke-width="2" />
<circle cx="80.0" cy="920.0" r="4" fill="#d62728" />
<circle cx="102.5" cy="869.566801836403" r="4" fill="#d62728" />
<circle cx="125.0" cy="796.5751442505225" r="4" fill="#d62728" />
<circle cx="147.5" cy="771.3156719484092" r="4" fill="#d62728" />
<circle cx="170.0" cy="753.4303935404348" r="4" fill="#d62728" />
<circle cx="192.5" cy="744.5127637149645" r="4" fill="#d62728" />
<circle cx="215.0" cy="726.95617999607" r="4" fill="#d62728" />
<circle cx="237.5" cy="708.5135497240037" r="4" fill="#d62728" />
<circle cx="260.0" cy="691.5357544793584" r="4" fill="#d62728" />
<circle cx="282.5" cy="677.3089908715768" r="4" fill="#d62728" />
<circle cx="305.0" cy="664.0968934779114" r="4" fill="#d62728" />
<circle cx="327.5" cy="655.7794887368477" r="4" fill="#d62728" />
<circle cx="350.0" cy="647.5406848996945" r="4" fill="#d62728" />
<circle cx="372.5" cy="635.7576948498545" r="4" fill="#d62728" />
<circle cx="395.0" cy="618.3583129387806" r="4" fill="#d62728" />
<circle cx="417.5" cy="599.6370067346684" r="4" fill="#d62728" />
<circle cx="440.0" cy="587.5967773629397" r="4" fill="#d62728" />
<circle cx="462.5" cy="570.5117990675075" r="4" fill="#d62728" />
<circle cx="485.0" cy="563.3662623483806" r="4" fill="#d62728" />
<circle cx="507.5" cy="556.8566783972561" r="4" fill="#d62728" />
<circle cx="530.0" cy="542.872863037925" r="4" fill="#d62728" />
<circle cx="552.5" cy="529.796530841923" r="4" fill="#d62728" />
<circle cx="575.0" cy="517.520498758463" r="4" fill="#d62728" />
<circle cx="597.5" cy="500.5212669036603" r="4" fill="#d62728" />
<circle cx="620.0" cy="489.19559120384434" r="4" fill="#d62728" />
<circle cx="642.5" cy="481.97859911752624" r="4" fill="#d62728" />
<circle cx="665.0" cy="473.83268725772166" r="4" fill="#d62728" />
<circle cx="687.5" cy="463.37876703763914" r="4" fill="#d62728" />
<circle cx="710.0" cy="454.9113060254739" r="4" fill="#d62728" />
<circle cx="732.5" cy="447.2155629789743" r="4" fill="#d62728" />
<circle cx="755.0" cy="434.15352185641046" r="4" fill="#d62728" />
<circle cx="777.5" cy="423.478089998035" r="4" fill="#d62728" />
<circle cx="800.0" cy="407.2720127190554" r="4" fill="#d62728" />
<circle cx="822.5" cy="402.5202308008361" r="4" fill="#d62728" />
<circle cx="845.0" cy="397.103913967738" r="4" fill="#d62728" />
<circle cx="867.5" cy="389.97266832204934" r="4" fill="#d62728" />
<circle cx="890.0" cy="384.1919291162758" r="4" fill="#d62728" />
<circle cx="912.5" cy="375.6530127369192" r="4" fill="#d62728" />
<circle cx="935.0" cy="366.5638900301899" r="4" fill="#d62728" />
<circle cx="957.5" cy="362.21225816824165" r="4" fill="#d62728" />
<circle cx="980.0" cy="357.46762178674146" r="4" fill="#d62728" />
<circle cx="1002.5" cy="349.6361135425785" r="4" fill="#d62728" />
<circle cx="1025.0" cy="343.1122385180157" r="4" fill="#d62728" />
<circle cx="1047.5" cy="321.3898068918702" r="4" fill="#d62728" />
<circle cx="1070.0" cy="312.99380124689617" r="4" fill="#d62728" />
<circle cx="1092.5" cy="304.06188034798765" r="4" fill="#d62728" />
<circle cx="1115.0" cy="297.709498204684" r="4" fill="#d62728" />
<circle cx="1137.5" cy="291.23564193715504" r="4" fill="#d62728" />
<circle cx="1160.0" cy="287.1626860072528" r="4" fill="#d62728" />
<circle cx="1182.5" cy="279.6956001357653" r="4" fill="#d62728" />
<circle cx="1205.0" cy="279.2597223958985" r="4" fill="#d62728" />
<circle cx="1227.5" cy="279.2597223958985" r="4" fill="#d62728" />
<circle cx="1250.0" cy="279.2597223958985" r="4" fill="#d62728" />
<circle cx="1272.5" cy="279.2597223958985" r="4" fill="#d62728" />
<circle cx="1295.0" cy="279.2597223958985" r="4" fill="#d62728" />
<circle cx="1317.5" cy="279.2597223958985" r="4" fill="#d62728" />
<circle cx="1340.0" cy="279.2597223958985" r="4" fill="#d62728" />
<circle cx="1362.5" cy="279.2597223958985" r="4" fill="#d62728" />
<circle cx="1385.0" cy="271.5925614962755" r="4" fill="#d62728" />
<circle cx="1407.5" cy="201.86641419103603" r="4" fill="#d62728" />
<circle cx="1430.0" cy="195.5283231211705" r="4" fill="#d62728" />
<circle cx="1452.5" cy="190.34780899980353" r="4" fill="#d62728" />
<circle cx="1475.0" cy="186.75360403008278" r="4" fill="#d62728" />
<circle cx="1497.5" cy="178.9721145429537" r="4" fill="#d62728" />
<circle cx="1520.0" cy="170.25455974561896" r="4" fill="#d62728" />
<path d="M 80.0 920.0 L 102.5 869.566801836403 L 125.0 796.5751442505225 L 147.5 771.3156719484092 L 170.0 753.4303935404348 L 192.5 744.5127637149645 L 215.0 726.95617999607 L 237.5 708.5135497240037 L 260.0 691.5357544793584 L 282.5 677.3089908715768 L 305.0 664.0968934779114 L 327.5 655.7794887368477 L 350.0 647.5406848996945 L 372.5 635.7576948498545 L 395.0 618.3583129387806 L 417.5 599.6370067346684 L 440.0 587.5967773629397 L 462.5 570.5117990675075 L 485.0 563.3662623483806 L 507.5 556.8566783972561 L 530.0 542.872863037925 L 552.5 529.796530841923 L 575.0 517.520498758463 L 597.5 500.5212669036603 L 620.0 489.19559120384434 L 642.5 481.97859911752624 L 665.0 473.83268725772166 L 687.5 463.37876703763914 L 710.0 454.9113060254739 L 732.5 447.2155629789743 L 755.0 434.15352185641046 L 777.5 423.478089998035 L 800.0 407.2720127190554 L 822.5 402.5202308008361 L 845.0 397.103913967738 L 867.5 389.97266832204934 L 890.0 384.1919291162758 L 912.5 375.6530127369192 L 935.0 366.5638900301899 L 957.5 362.21225816824165 L 980.0 357.46762178674146 L 1002.5 349.6361135425785 L 1025.0 343.1122385180157 L 1047.5 321.3898068918702 L 1070.0 312.99380124689617 L 1092.5 304.06188034798765 L 1115.0 297.709498204684 L 1137.5 291.23564193715504 L 1160.0 287.1626860072528 L 1182.5 279.6956001357653 L 1205.0 279.2597223958985 L 1227.5 279.2597223958985 L 1250.0 279.2597223958985 L 1272.5 279.2597223958985 L 1295.0 279.2597223958985 L 1317.5 279.2597223958985 L 1340.0 279.2597223958985 L 1362.5 279.2597223958985 L 1385.0 271.5925614962755 L 1407.5 201.86641419103603 L 1430.0 195.5283231211705 L 1452.5 190.34780899980353 L 1475.0 186.75360403008278 L 1497.5 178.9721145429537 L 1520.0 170.25455974561896" fill="none" stroke="#d62728" stroke-width="2" />
<circle cx="80.0" cy="920.0" r="4" fill="#9467bd" />
<circle cx="102.5" cy="874.8902266921524" r="4" fill="#9467bd" />
<circle cx="125.0" cy="801.619893174226" r="4" fill="#9467bd" />
<circle cx="147.5" cy="771.9158970328159" r="4" fill="#9467bd" />
<circle cx="170.0" cy="753.9734543310884" r="4" fill="#9467bd" />
<circle cx="192.5" cy="745.9704532056664" r="4" fill="#9467bd" />
<circle cx="215.0" cy="728.2638132156702" r="4" fill="#9467bd" />
<circle cx="237.5" cy="708.9708640740278" r="4" fill="#9467bd" />
<circle cx="260.0" cy="691.514317869201" r="4" fill="#9467bd" />
<circle cx="282.5" cy="677.1303524535987" r="4" fill="#9467bd" />
<circle cx="305.0" cy="664.0683113310349" r="4" fill="#9467bd" />
<circle cx="327.5" cy="655.7437610532521" r="4" fill="#9467bd" />
<circle cx="350.0" cy="647.4477929223459" r="4" fill="#9467bd" />
<circle cx="372.5" cy="635.1217420818521" r="4" fill="#9467bd" />
<circle cx="395.0" cy="617.8509798317226" r="4" fill="#9467bd" />
<circle cx="417.5" cy="598.7652512549349" r="4" fill="#9467bd" />
<circle cx="440.0" cy="586.3963271941263" r="4" fill="#9467bd" />
<circle cx="462.5" cy="571.5479018917808" r="4" fill="#9467bd" />
<circle cx="485.0" cy="564.395219635935" r="4" fill="#9467bd" />
<circle cx="507.5" cy="557.8141803176192" r="4" fill="#9467bd" />
<circle cx="530.0" cy="543.6231443934332" r="4" fill="#9467bd" />
<circle cx="552.5" cy="530.139516604441" r="4" fill="#9467bd" />
<circle cx="575.0" cy="517.8777755944193" r="4" fill="#9467bd" />
<circle cx="597.5" cy="500.81423390914455" r="4" fill="#9467bd" />
<circle cx="620.0" cy="489.3242108647886" r="4" fill="#9467bd" />
<circle cx="642.5" cy="482.1286553886279" r="4" fill="#9467bd" />
<circle cx="665.0" cy="473.98274352882333" r="4" fill="#9467bd" />
<circle cx="687.5" cy="463.51453223530257" r="4" fill="#9467bd" />
<circle cx="710.0" cy="454.76839529109134" r="4" fill="#9467bd" />
<circle cx="732.5" cy="447.0726522445918" r="4" fill="#9467bd" />
<circle cx="755.0" cy="434.18924954000613" r="4" fill="#9467bd" />
<circle cx="777.5" cy="423.756765930081" r="4" fill="#9467bd" />
<circle cx="800.0" cy="407.4577966737527" r="4" fill="#9467bd" />
<circle cx="822.5" cy="402.66314153521864" r="4" fill="#9467bd" />
<circle cx="845.0" cy="397.46833634041343" r="4" fill="#9467bd" />
<circle cx="867.5" cy="390.3156540845674" r="4" fill="#9467bd" />
<circle cx="890.0" cy="384.5134782686365" r="4" fill="#9467bd" />
<circle cx="912.5" cy="375.9102520588078" r="4" fill="#9467bd" />
<circle cx="935.0" cy="366.285214098144" r="4" fill="#9467bd" />
<circle cx="957.5" cy="361.9121456260384" r="4" fill="#9467bd" />
<circle cx="980.0" cy="357.1675092445382" r="4" fill="#9467bd" />
<circle cx="1002.5" cy="349.32885546365605" r="4" fill="#9467bd" />
<circle cx="1025.0" cy="342.7263795351829" r="4" fill="#9467bd" />
<circle cx="1047.5" cy="320.99680237231826" r="4" fill="#9467bd" />
<circle cx="1070.0" cy="312.5579235070295" r="4" fill="#9467bd" />
<circle cx="1092.5" cy="303.6331481448401" r="4" fill="#9467bd" />
<circle cx="1115.0" cy="297.28076600153634" r="4" fill="#9467bd" />
<circle cx="1137.5" cy="290.7497454402544" r="4" fill="#9467bd" />
<circle cx="1160.0" cy="286.6910805837904" r="4" fill="#9467bd" />
<circle cx="1182.5" cy="278.8738634130657" r="4" fill="#9467bd" />
<circle cx="1205.0" cy="270.43498454777693" r="4" fill="#9467bd" />
<circle cx="1227.5" cy="264.2826774326087" r="4" fill="#9467bd" />
<circle cx="1250.0" cy="257.5801639900677" r="4" fill="#9467bd" />
<circle cx="1272.5" cy="251.37783811786562" r="4" fill="#9467bd" />
<circle cx="1295.0" cy="242.58168241662054" r="4" fill="#9467bd" />
<circle cx="1317.5" cy="236.52941281552012" r="4" fill="#9467bd" />
<circle cx="1340.0" cy="226.19696671966278" r="4" fill="#9467bd" />
<circle cx="1362.5" cy="220.10896943496675" r="4" fill="#9467bd" />
<circle cx="1385.0" cy="212.9419961056825" r="4" fill="#9467bd" />
<circle cx="1407.5" cy="201.43768198788837" r="4" fill="#9467bd" />
<circle cx="1430.0" cy="195.12102752818032" r="4" fill="#9467bd" />
<circle cx="1452.5" cy="189.94051340681335" r="4" fill="#9467bd" />
<circle cx="1475.0" cy="186.3463084370925" r="4" fill="#9467bd" />
<circle cx="1497.5" cy="178.54338233980604" r="4" fill="#9467bd" />
<circle cx="1520.0" cy="169.83297307919042" r="4" fill="#9467bd" />
<path d="M 80.0 920.0 L 102.5 874.8902266921524 L 125.0 801.619893174226 L 147.5 771.9158970328159 L 170.0 753.9734543310884 L 192.5 745.9704532056664 L 215.0 728.2638132156702 L 237.5 708.9708640740278 L 260.0 691.514317869201 L 282.5 677.1303524535987 L 305.0 664.0683113310349 L 327.5 655.7437610532521 L 350.0 647.4477929223459 L 372.5 635.1217420818521 L 395.0 617.8509798317226 L 417.5 598.7652512549349 L 440.0 586.3963271941263 L 462.5 571.5479018917808 L 485.0 564.395219635935 L 507.5 557.8141803176192 L 530.0 543.6231443934332 L 552.5 530.139516604441 L 575.0 517.8777755944193 L 597.5 500.81423390914455 L 620.0 489.3242108647886 L 642.5 482.1286553886279 L 665.0 473.98274352882333 L 687.5 463.51453223530257 L 710.0 454.76839529109134 L 732.5 447.0726522445918 L 755.0 434.18924954000613 L 777.5 423.756765930081 L 800.0 407.4577966737527 L 822.5 402.66314153521864 L 845.0 397.46833634041343 L 867.5 390.3156540845674 L 890.0 384.5134782686365 L 912.5 375.9102520588078 L 935.0 366.285214098144 L 957.5 361.9121456260384 L 980.0 357.1675092445382 L 1002.5 349.32885546365605 L 1025.0 342.7263795351829 L 1047.5 320.99680237231826 L 1070.0 312.5579235070295 L 1092.5 303.6331481448401 L 1115.0 297.28076600153634 L 1137.5 290.7497454402544 L 1160.0 286.6910805837904 L 1182.5 278.8738634130657 L 1205.0 270.43498454777693 L 1227.5 264.2826774326087 L 1250.0 257.5801639900677 L 1272.5 251.37783811786562 L 1295.0 242.58168241662054 L 1317.5 236.52941281552012 L 1340.0 226.19696671966278 L 1362.5 220.10896943496675 L 1385.0 212.9419961056825 L 1407.5 201.43768198788837 L 1430.0 195.12102752818032 L 1452.5 189.94051340681335 L 1475.0 186.3463084370925 L 1497.5 178.54338233980604 L 1520.0 169.83297307919042" fill="none" stroke="#9467bd" stroke-width="2" />
<circle cx="80.0" cy="920.0" r="4" fill="#66ffbd" />
<circle cx="102.5" cy="694.9941942514157" r="4" fill="#66ffbd" />
<circle cx="125.0" cy="716.0377998892442" r="4" fill="#66ffbd" />
<circle cx="147.5" cy="728.9212025938298" r="4" fill="#66ffbd" />
<circle cx="170.0" cy="738.5676771646511" r="4" fill="#66ffbd" />
<circle cx="192.5" cy="741.0043051858732" r="4" fill="#66ffbd" />
<circle cx="215.0" cy="747.3281051823005" r="4" fill="#66ffbd" />
<circle cx="237.5" cy="751.9941406598903" r="4" fill="#66ffbd" />
<circle cx="260.0" cy="758.0964290180247" r="4" fill="#66ffbd" />
<circle cx="282.5" cy="762.9339573768734" r="4" fill="#66ffbd" />
<circle cx="305.0" cy="766.3495239286161" r="4" fill="#66ffbd" />
<circle cx="327.5" cy="769.5935975990997" r="4" fill="#66ffbd" />
<circle cx="350.0" cy="771.4442916093535" r="4" fill="#66ffbd" />
<circle cx="372.5" cy="776.5890780471248" r="4" fill="#66ffbd" />
<circle cx="395.0" cy="784.6778256131763" r="4" fill="#66ffbd" />
<circle cx="417.5" cy="790.9730434627271" r="4" fill="#66ffbd" />
<circle cx="440.0" cy="795.2889476410797" r="4" fill="#66ffbd" />
<circle cx="462.5" cy="802.1558084281605" r="4" fill="#66ffbd" />
<circle cx="485.0" cy="802.9418174672645" r="4" fill="#66ffbd" />
<circle cx="507.5" cy="804.4709623251576" r="4" fill="#66ffbd" />
<circle cx="530.0" cy="807.1934118151449" r="4" fill="#66ffbd" />
<circle cx="552.5" cy="811.7665553153861" r="4" fill="#66ffbd" />
<circle cx="575.0" cy="813.0170242412333" r="4" fill="#66ffbd" />
<circle cx="597.5" cy="815.5036710194895" r="4" fill="#66ffbd" />
<circle cx="620.0" cy="818.1546651422855" r="4" fill="#66ffbd" />
<circle cx="642.5" cy="814.5318780256882" r="4" fill="#66ffbd" />
<circle cx="665.0" cy="819.983922542382" r="4" fill="#66ffbd" />
<circle cx="687.5" cy="821.2701191518248" r="4" fill="#66ffbd" />
<circle cx="710.0" cy="824.2283713535433" r="4" fill="#66ffbd" />
<circle cx="732.5" cy="826.1005019739546" r="4" fill="#66ffbd" />
<circle cx="755.0" cy="828.5228389217385" r="4" fill="#66ffbd" />
<circle cx="777.5" cy="829.4303220850676" r="4" fill="#66ffbd" />
<circle cx="800.0" cy="835.2182068275604" r="4" fill="#66ffbd" />
<circle cx="822.5" cy="836.0470890869791" r="4" fill="#66ffbd" />
<circle cx="845.0" cy="837.4690508940853" r="4" fill="#66ffbd" />
<circle cx="867.5" cy="839.2054163168331" r="4" fill="#66ffbd" />
<circle cx="890.0" cy="840.270101287983" r="4" fill="#66ffbd" />
<circle cx="912.5" cy="841.5134246771111" r="4" fill="#66ffbd" />
<circle cx="935.0" cy="843.4355740545561" r="4" fill="#66ffbd" />
<circle cx="957.5" cy="842.5995462584183" r="4" fill="#66ffbd" />
<circle cx="980.0" cy="844.2215830936601" r="4" fill="#66ffbd" />
<circle cx="1002.5" cy="845.5792350702942" r="4" fill="#66ffbd" />
<circle cx="1025.0" cy="847.8443702102575" r="4" fill="#66ffbd" />
<circle cx="1047.5" cy="848.6732524696761" r="4" fill="#66ffbd" />
<circle cx="1070.0" cy="848.9162007181264" r="4" fill="#66ffbd" />
<circle cx="1092.5" cy="850.6311295307169" r="4" fill="#66ffbd" />
<circle cx="1115.0" cy="849.4592615087801" r="4" fill="#66ffbd" />
<circle cx="1137.5" cy="851.5743403776416" r="4" fill="#66ffbd" />
<circle cx="1160.0" cy="852.438950320656" r="4" fill="#66ffbd" />
<circle cx="1182.5" cy="854.6040479465514" r="4" fill="#66ffbd" />
<circle cx="1205.0" cy="848.2087925829329" r="4" fill="#66ffbd" />
<circle cx="1227.5" cy="842.4209078404401" r="4" fill="#66ffbd" />
<circle cx="1250.0" cy="838.1550224191215" r="4" fill="#66ffbd" />
<circle cx="1272.5" cy="827.6796655888816" r="4" fill="#66ffbd" />
<circle cx="1295.0" cy="824.1854981332285" r="4" fill="#66ffbd" />
<circle cx="1317.5" cy="818.4476321477697" r="4" fill="#66ffbd" />
<circle cx="1340.0" cy="809.7800961074689" r="4" fill="#66ffbd" />
<circle cx="1362.5" cy="804.263741760303" r="4" fill="#66ffbd" />
<circle cx="1385.0" cy="804.3351971274942" r="4" fill="#66ffbd" />
<circle cx="1407.5" cy="865.17229675414" r="4" fill="#66ffbd" />
<circle cx="1430.0" cy="862.7213776594795" r="4" fill="#66ffbd" />
<circle cx="1452.5" cy="865.4652637596241" r="4" fill="#66ffbd" />
<circle cx="1475.0" cy="866.07263438075" r="4" fill="#66ffbd" />
<circle cx="1497.5" cy="866.3798924596724" r="4" fill="#66ffbd" />
<circle cx="1520.0" cy="868.8522481644902" r="4" fill="#66ffbd" />
<path d="M 80.0 920.0 L 102.5 694.9941942514157 L 125.0 716.0377998892442 L 147.5 728.9212025938298 L 170.0 738.5676771646511 L 192.5 741.0043051858732 L 215.0 747.3281051823005 L 237.5 751.9941406598903 L 260.0 758.0964290180247 L 282.5 762.9339573768734 L 305.0 766.3495239286161 L 327.5 769.5935975990997 L 350.0 771.4442916093535 L 372.5 776.5890780471248 L 395.0 784.6778256131763 L 417.5 790.9730434627271 L 440.0 795.2889476410797 L 462.5 802.1558084281605 L 485.0 802.9418174672645 L 507.5 804.4709623251576 L 530.0 807.1934118151449 L 552.5 811.7665553153861 L 575.0 813.0170242412333 L 597.5 815.5036710194895 L 620.0 818.1546651422855 L 642.5 814.5318780256882 L 665.0 819.983922542382 L 687.5 821.2701191518248 L 710.0 824.2283713535433 L 732.5 826.1005019739546 L 755.0 828.5228389217385 L 777.5 829.4303220850676 L 800.0 835.2182068275604 L 822.5 836.0470890869791 L 845.0 837.4690508940853 L 867.5 839.2054163168331 L 890.0 840.270101287983 L 912.5 841.5134246771111 L 935.0 843.4355740545561 L 957.5 842.5995462584183 L 980.0 844.2215830936601 L 1002.5 845.5792350702942 L 1025.0 847.8443702102575 L 1047.5 848.6732524696761 L 1070.0 848.9162007181264 L 1092.5 850.6311295307169 L 1115.0 849.4592615087801 L 1137.5 851.5743403776416 L 1160.0 852.438950320656 L 1182.5 854.6040479465514 L 1205.0 848.2087925829329 L 1227.5 842.4209078404401 L 1250.0 838.1550224191215 L 1272.5 827.6796655888816 L 1295.0 824.1854981332285 L 1317.5 818.4476321477697 L 1340.0 809.7800961074689 L 1362.5 804.263741760303 L 1385.0 804.3351971274942 L 1407.5 865.17229675414 L 1430.0 862.7213776594795 L 1452.5 865.4652637596241 L 1475.0 866.07263438075 L 1497.5 866.3798924596724 L 1520.0 868.8522481644902" fill="none" stroke="#66ffbd" stroke-width="2" />
<text x="80.0" y="940" text-anchor="middle" font-size="12">08-06</text>
<text x="192.5" y="940" text-anchor="middle" font-size="12">08-11</text>
<text x="305.0" y="940" text-anchor="middle" font-size="12">08-16</text>
<text x="417.5" y="940" text-anchor="middle" font-size="12">08-21</text>
<text x="530.0" y="940" text-anchor="middle" font-size="12">08-26</text>
<text x="642.5" y="940" text-anchor="middle" font-size="12">08-31</text>
<text x="755.0" y="940" text-anchor="middle" font-size="12">09-05</text>
<text x="867.5" y="940" text-anchor="middle" font-size="12">09-10</text>
<text x="980.0" y="940" text-anchor="middle" font-size="12">09-15</text>
<text x="1092.5" y="940" text-anchor="middle" font-size="12">09-20</text>
<text x="1205.0" y="940" text-anchor="middle" font-size="12">09-25</text>
<text x="1317.5" y="940" text-anchor="middle" font-size="12">09-30</text>
<text x="1430.0" y="940" text-anchor="middle" font-size="12">10-05</text>
<text x="1520.0" y="940" text-anchor="middle" font-size="12">10-09</text>
<rect x="90" y="100" width="130" height="185" class="legend-box" />
<text x="100" y="120" class="legend-item">图例:</text>
<rect x="100" y="137" width="15" height="15" fill="#1f77b4" rx="3" />
<text x="120" y="145" class="legend-item">构件聚合数据</text>
<rect x="100" y="162" width="15" height="15" fill="#ff7f0e" rx="3" />
<text x="120" y="170" class="legend-item">构件基本信息</text>
<rect x="100" y="187" width="15" height="15" fill="#2ca02c" rx="3" />
<text x="120" y="195" class="legend-item">构件徽标</text>
<rect x="100" y="212" width="15" height="15" fill="#d62728" rx="3" />
<text x="120" y="220" class="legend-item">构件扩展元数据</text>
<rect x="100" y="237" width="15" height="15" fill="#9467bd" rx="3" />
<text x="120" y="245" class="legend-item">构件版本信息</text>
<rect x="100" y="262" width="15" height="15" fill="#66ffbd" rx="3" />
<text x="120" y="270" class="legend-item">数据量偏差</text>
<rect x="100" y="980" width="15" height="15" fill="#1f77b4" rx="3" />
<text x="125" y="990" class="legend-item">104800</text>
<rect x="300" y="980" width="15" height="15" fill="#ff7f0e" rx="3" />
<text x="325" y="990" class="legend-item">111722</text>
<rect x="500" y="980" width="15" height="15" fill="#2ca02c" rx="3" />
<text x="525" y="990" class="legend-item">111958</text>
<rect x="700" y="980" width="15" height="15" fill="#d62728" rx="3" />
<text x="725" y="990" class="legend-item">104925</text>
<rect x="900" y="980" width="15" height="15" fill="#9467bd" rx="3" />
<text x="925" y="990" class="legend-item">104984</text>
<rect x="1100" y="980" width="15" height="15" fill="#66ffbd" rx="3" />
<text x="1125" y="990" class="legend-item">7158</text>
<text x="1520" y="990" text-anchor="end" font-size="11" fill="#666">生成时间: 2025-10-09 10:39:57</text>
</svg>