<svg xmlns="http://www.w3.org/2000/svg" width="1600" height="1000" viewBox="0 0 1600 1000">
<style>
  text {
    font-family: Arial, sans-serif;
    font-size: 12px;
    fill: #333;
  }
  .axis-label { font-size: 14px; }
  .title { font-size: 18px; font-weight: bold; }
  .legend-item { font-size: 11px; }
  .legend-box { fill: white; fill-opacity: 0.85; stroke: #cccccc; stroke-width: 1; rx: 5; }
</style>
<text x="800.0" y="30" text-anchor="middle" class="title">Daily Data Growth Trend</text>
<text x="800.0" y="980" text-anchor="middle" class="axis-label">Date</text>
<g transform="rotate(-90)">
<text x="-500.0" y="20" text-anchor="middle" class="axis-label">Count</text>
</g>
<rect x="0" y="0" width="1600" height="1000" fill="#f8f8f8" />
<line x1="80" y1="920.0" x2="1520" y2="920.0" stroke="#e0e0e0" stroke-width="1" />
<text x="70" y="925.0" text-anchor="end">0</text>
<line x1="80" y1="752.0" x2="1520" y2="752.0" stroke="#e0e0e0" stroke-width="1" />
<text x="70" y="757.0" text-anchor="end">22.0k</text>
<line x1="80" y1="584.0" x2="1520" y2="584.0" stroke="#e0e0e0" stroke-width="1" />
<text x="70" y="589.0" text-anchor="end">44.1k</text>
<line x1="80" y1="416.0" x2="1520" y2="416.0" stroke="#e0e0e0" stroke-width="1" />
<text x="70" y="421.0" text-anchor="end">66.1k</text>
<line x1="80" y1="248.0" x2="1520" y2="248.0" stroke="#e0e0e0" stroke-width="1" />
<text x="70" y="253.0" text-anchor="end">88.2k</text>
<line x1="80" y1="80.0" x2="1520" y2="80.0" stroke="#e0e0e0" stroke-width="1" />
<text x="70" y="85.0" text-anchor="end">110.2k</text>
<line x1="80" y1="80" x2="80" y2="920" stroke="#333333" stroke-width="2" />
<line x1="80" y1="920" x2="1520" y2="920" stroke="#333333" stroke-width="2" />
<circle cx="80.0" cy="920.0" r="4" fill="#1f77b4" />
<circle cx="105.71428571428572" cy="882.7470967619012" r="4" fill="#1f77b4" />
<circle cx="131.42857142857144" cy="803.7980737170021" r="4" fill="#1f77b4" />
<circle cx="157.14285714285714" cy="772.0401261324772" r="4" fill="#1f77b4" />
<circle cx="182.85714285714286" cy="752.9259114595739" r="4" fill="#1f77b4" />
<circle cx="208.57142857142858" cy="743.3306976345398" r="4" fill="#1f77b4" />
<circle cx="234.28571428571428" cy="724.2164829616363" r="4" fill="#1f77b4" />
<circle cx="260.0" cy="703.5856300431556" r="4" fill="#1f77b4" />
<circle cx="285.7142857142857" cy="684.5704922405663" r="4" fill="#1f77b4" />
<circle cx="311.42857142857144" cy="669.068772685269" r="4" fill="#1f77b4" />
<circle cx="337.14285714285717" cy="654.9312654212197" r="4" fill="#1f77b4" />
<circle cx="362.8571428571429" cy="646.0448322838172" r="4" fill="#1f77b4" />
<circle cx="388.57142857142856" cy="637.2498547190123" r="4" fill="#1f77b4" />
<circle cx="414.2857142857143" cy="624.0269031809391" r="4" fill="#1f77b4" />
<circle cx="440.0" cy="605.2480256075603" r="4" fill="#1f77b4" />
<circle cx="465.7142857142857" cy="584.9372671931714" r="4" fill="#1f77b4" />
<circle cx="491.42857142857144" cy="571.4551915327384" r="4" fill="#1f77b4" />
<circle cx="517.1428571428571" cy="553.0040297611677" r="4" fill="#1f77b4" />
<circle cx="542.8571428571429" cy="545.382732044699" r="4" fill="#1f77b4" />
<circle cx="568.5714285714287" cy="538.3635168478313" r="4" fill="#1f77b4" />
<circle cx="594.2857142857143" cy="523.2657260715068" r="4" fill="#1f77b4" />
<circle cx="620.0" cy="508.4194381198259" r="4" fill="#1f77b4" />
<circle cx="645.7142857142858" cy="495.27269955891745" r="4" fill="#1f77b4" />
<circle cx="671.4285714285714" cy="477.12638969600556" r="4" fill="#1f77b4" />
<circle cx="697.1428571428571" cy="464.6350827387134" r="4" fill="#1f77b4" />
<circle cx="722.8571428571429" cy="456.93757204508" r="4" fill="#1f77b4" />
<circle cx="748.5714285714286" cy="448.2569139460222" r="4" fill="#1f77b4" />
<circle cx="774.2857142857143" cy="437.10695538682853" r="4" fill="#1f77b4" />
<circle cx="800.0" cy="427.42790728691335" r="4" fill="#1f77b4" />
<circle cx="825.7142857142858" cy="419.20452705084364" r="4" fill="#1f77b4" />
<circle cx="851.4285714285714" cy="405.24230963427306" r="4" fill="#1f77b4" />
<circle cx="877.1428571428572" cy="393.84846954815237" r="4" fill="#1f77b4" />
<circle cx="902.8571428571429" cy="376.47191075460375" r="4" fill="#1f77b4" />
<circle cx="928.5714285714286" cy="371.38088388000267" r="4" fill="#1f77b4" />
<circle cx="954.2857142857143" cy="365.6039402109195" r="4" fill="#1f77b4" />
<circle cx="980.0" cy="357.9445360058685" r="4" fill="#1f77b4" />
<circle cx="1005.7142857142858" cy="351.7865274509618" r="4" fill="#1f77b4" />
<circle cx="1031.4285714285716" cy="342.6333488934829" r="4" fill="#1f77b4" />
<circle cx="1057.1428571428573" cy="332.36746086939957" r="4" fill="#1f77b4" />
<circle cx="1082.857142857143" cy="327.7032266669207" r="4" fill="#1f77b4" />
<circle cx="1108.5714285714287" cy="322.64268498318563" r="4" fill="#1f77b4" />
<circle cx="1134.2857142857142" cy="314.26687879278654" r="4" fill="#1f77b4" />
<circle cx="1160.0" cy="307.2400422982024" r="4" fill="#1f77b4" />
<circle cx="1185.7142857142858" cy="284.0027055606894" r="4" fill="#1f77b4" />
<circle cx="1211.4285714285716" cy="275.02481685068926" r="4" fill="#1f77b4" />
<circle cx="1237.142857142857" cy="265.4981947051035" r="4" fill="#1f77b4" />
<circle cx="1262.857142857143" cy="258.7304823328793" r="4" fill="#1f77b4" />
<circle cx="1288.5714285714287" cy="251.8255866017587" r="4" fill="#1f77b4" />
<circle cx="1314.2857142857142" cy="247.47382560565507" r="4" fill="#1f77b4" />
<circle cx="1340.0" cy="239.15898979698773" r="4" fill="#1f77b4" />
<circle cx="1365.7142857142858" cy="238.68646933856667" r="4" fill="#1f77b4" />
<circle cx="1391.4285714285716" cy="238.6559841477008" r="4" fill="#1f77b4" />
<circle cx="1417.142857142857" cy="237.78715620802336" r="4" fill="#1f77b4" />
<circle cx="1442.857142857143" cy="237.5813811696787" r="4" fill="#1f77b4" />
<circle cx="1468.5714285714287" cy="237.5813811696787" r="4" fill="#1f77b4" />
<circle cx="1494.2857142857144" cy="237.57375987196224" r="4" fill="#1f77b4" />
<circle cx="1520.0" cy="237.5585172765293" r="4" fill="#1f77b4" />
<path d="M 80.0 920.0 L 105.71428571428572 882.7470967619012 L 131.42857142857144 803.7980737170021 L 157.14285714285714 772.0401261324772 L 182.85714285714286 752.9259114595739 L 208.57142857142858 743.3306976345398 L 234.28571428571428 724.2164829616363 L 260.0 703.5856300431556 L 285.7142857142857 684.5704922405663 L 311.42857142857144 669.068772685269 L 337.14285714285717 654.9312654212197 L 362.8571428571429 646.0448322838172 L 388.57142857142856 637.2498547190123 L 414.2857142857143 624.0269031809391 L 440.0 605.2480256075603 L 465.7142857142857 584.9372671931714 L 491.42857142857144 571.4551915327384 L 517.1428571428571 553.0040297611677 L 542.8571428571429 545.382732044699 L 568.5714285714287 538.3635168478313 L 594.2857142857143 523.2657260715068 L 620.0 508.4194381198259 L 645.7142857142858 495.27269955891745 L 671.4285714285714 477.12638969600556 L 697.1428571428571 464.6350827387134 L 722.8571428571429 456.93757204508 L 748.5714285714286 448.2569139460222 L 774.2857142857143 437.10695538682853 L 800.0 427.42790728691335 L 825.7142857142858 419.20452705084364 L 851.4285714285714 405.24230963427306 L 877.1428571428572 393.84846954815237 L 902.8571428571429 376.47191075460375 L 928.5714285714286 371.38088388000267 L 954.2857142857143 365.6039402109195 L 980.0 357.9445360058685 L 1005.7142857142858 351.7865274509618 L 1031.4285714285716 342.6333488934829 L 1057.1428571428573 332.36746086939957 L 1082.857142857143 327.7032266669207 L 1108.5714285714287 322.64268498318563 L 1134.2857142857142 314.26687879278654 L 1160.0 307.2400422982024 L 1185.7142857142858 284.0027055606894 L 1211.4285714285716 275.02481685068926 L 1237.142857142857 265.4981947051035 L 1262.857142857143 258.7304823328793 L 1288.5714285714287 251.8255866017587 L 1314.2857142857142 247.47382560565507 L 1340.0 239.15898979698773 L 1365.7142857142858 238.68646933856667 L 1391.4285714285716 238.6559841477008 L 1417.142857142857 237.78715620802336 L 1442.857142857143 237.5813811696787 L 1468.5714285714287 237.5813811696787 L 1494.2857142857144 237.57375987196224 L 1520.0 237.5585172765293" fill="none" stroke="#1f77b4" stroke-width="2" />
<circle cx="80.0" cy="920.0" r="4" fill="#ff7f0e" />
<circle cx="105.71428571428572" cy="648.1025826672637" r="4" fill="#ff7f0e" />
<circle cx="131.42857142857144" cy="591.3772637635874" r="4" fill="#ff7f0e" />
<circle cx="157.14285714285714" cy="573.1852261143767" r="4" fill="#ff7f0e" />
<circle cx="182.85714285714286" cy="564.2225799998096" r="4" fill="#ff7f0e" />
<circle cx="208.57142857142858" cy="557.2109861006584" r="4" fill="#ff7f0e" />
<circle cx="234.28571428571428" cy="544.7120578456497" r="4" fill="#ff7f0e" />
<circle cx="260.0" cy="528.8521372976784" r="4" fill="#ff7f0e" />
<circle cx="285.7142857142857" cy="516.2007830883404" r="4" fill="#ff7f0e" />
<circle cx="311.42857142857144" cy="505.77484781221125" r="4" fill="#ff7f0e" />
<circle cx="337.14285714285717" cy="495.22697177261864" r="4" fill="#ff7f0e" />
<circle cx="362.8571428571429" cy="489.7167735236118" r="4" fill="#ff7f0e" />
<circle cx="388.57142857142856" cy="482.8957120673723" r="4" fill="#ff7f0e" />
<circle cx="414.2857142857143" cy="475.13723099200723" r="4" fill="#ff7f0e" />
<circle cx="440.0" cy="464.7570235021769" r="4" fill="#ff7f0e" />
<circle cx="465.7142857142857" cy="450.8633977650545" r="4" fill="#ff7f0e" />
<circle cx="491.42857142857144" cy="441.94647943678615" r="4" fill="#ff7f0e" />
<circle cx="517.1428571428571" cy="430.8117634730254" r="4" fill="#ff7f0e" />
<circle cx="542.8571428571429" cy="424.0364298030848" r="4" fill="#ff7f0e" />
<circle cx="568.5714285714287" cy="418.6329297221085" r="4" fill="#ff7f0e" />
<circle cx="594.2857142857143" cy="406.3550191008775" r="4" fill="#ff7f0e" />
<circle cx="620.0" cy="396.36349779458703" r="4" fill="#ff7f0e" />
<circle cx="645.7142857142858" cy="384.5352437386276" r="4" fill="#ff7f0e" />
<circle cx="671.4285714285714" cy="369.0182815878975" r="4" fill="#ff7f0e" />
<circle cx="697.1428571428571" cy="359.3239908925493" r="4" fill="#ff7f0e" />
<circle cx="722.8571428571429" cy="347.75486095894985" r="4" fill="#ff7f0e" />
<circle cx="748.5714285714286" cy="344.88163171984115" r="4" fill="#ff7f0e" />
<circle cx="774.2857142857143" cy="335.09588545189536" r="4" fill="#ff7f0e" />
<circle cx="800.0" cy="328.54919071344875" r="4" fill="#ff7f0e" />
<circle cx="825.7142857142858" cy="322.2844839905116" r="4" fill="#ff7f0e" />
<circle cx="851.4285714285714" cy="310.63914107974745" r="4" fill="#ff7f0e" />
<circle cx="877.1428571428572" cy="300.1827206127524" r="4" fill="#ff7f0e" />
<circle cx="902.8571428571429" cy="288.65931846545175" r="4" fill="#ff7f0e" />
<circle cx="928.5714285714286" cy="284.45236212596103" r="4" fill="#ff7f0e" />
<circle cx="954.2857142857143" cy="280.13870761843975" r="4" fill="#ff7f0e" />
<circle cx="980.0" cy="274.32365746077426" r="4" fill="#ff7f0e" />
<circle cx="1005.7142857142858" cy="269.278358372472" r="4" fill="#ff7f0e" />
<circle cx="1031.4285714285716" cy="261.45128561765864" r="4" fill="#ff7f0e" />
<circle cx="1057.1428571428573" cy="253.19742019072305" r="4" fill="#ff7f0e" />
<circle cx="1082.857142857143" cy="247.6338728577009" r="4" fill="#ff7f0e" />
<circle cx="1108.5714285714287" cy="244.3033657556041" r="4" fill="#ff7f0e" />
<circle cx="1134.2857142857142" cy="237.36798483361758" r="4" fill="#ff7f0e" />
<circle cx="1160.0" cy="232.68088673798934" r="4" fill="#ff7f0e" />
<circle cx="1185.7142857142858" cy="210.1294667949586" r="4" fill="#ff7f0e" />
<circle cx="1211.4285714285716" cy="201.39545961188549" r="4" fill="#ff7f0e" />
<circle cx="1237.142857142857" cy="193.46168868904158" r="4" fill="#ff7f0e" />
<circle cx="1262.857142857143" cy="185.43646219360005" r="4" fill="#ff7f0e" />
<circle cx="1288.5714285714287" cy="180.78747058655415" r="4" fill="#ff7f0e" />
<circle cx="1314.2857142857142" cy="177.35788661414335" r="4" fill="#ff7f0e" />
<circle cx="1340.0" cy="171.3370614181331" r="4" fill="#ff7f0e" />
<circle cx="1365.7142857142858" cy="164.04347950347255" r="4" fill="#ff7f0e" />
<circle cx="1391.4285714285716" cy="157.83974316226704" r="4" fill="#ff7f0e" />
<circle cx="1417.142857142857" cy="152.40575789042487" r="4" fill="#ff7f0e" />
<circle cx="1442.857142857143" cy="141.0271603997371" r="4" fill="#ff7f0e" />
<circle cx="1468.5714285714287" cy="137.30034581638392" r="4" fill="#ff7f0e" />
<circle cx="1494.2857142857144" cy="131.1728224523432" r="4" fill="#ff7f0e" />
<circle cx="1520.0" cy="121.89770313140082" r="4" fill="#ff7f0e" />
<path d="M 80.0 920.0 L 105.71428571428572 648.1025826672637 L 131.42857142857144 591.3772637635874 L 157.14285714285714 573.1852261143767 L 182.85714285714286 564.2225799998096 L 208.57142857142858 557.2109861006584 L 234.28571428571428 544.7120578456497 L 260.0 528.8521372976784 L 285.7142857142857 516.2007830883404 L 311.42857142857144 505.77484781221125 L 337.14285714285717 495.22697177261864 L 362.8571428571429 489.7167735236118 L 388.57142857142856 482.8957120673723 L 414.2857142857143 475.13723099200723 L 440.0 464.7570235021769 L 465.7142857142857 450.8633977650545 L 491.42857142857144 441.94647943678615 L 517.1428571428571 430.8117634730254 L 542.8571428571429 424.0364298030848 L 568.5714285714287 418.6329297221085 L 594.2857142857143 406.3550191008775 L 620.0 396.36349779458703 L 645.7142857142858 384.5352437386276 L 671.4285714285714 369.0182815878975 L 697.1428571428571 359.3239908925493 L 722.8571428571429 347.75486095894985 L 748.5714285714286 344.88163171984115 L 774.2857142857143 335.09588545189536 L 800.0 328.54919071344875 L 825.7142857142858 322.2844839905116 L 851.4285714285714 310.63914107974745 L 877.1428571428572 300.1827206127524 L 902.8571428571429 288.65931846545175 L 928.5714285714286 284.45236212596103 L 954.2857142857143 280.13870761843975 L 980.0 274.32365746077426 L 1005.7142857142858 269.278358372472 L 1031.4285714285716 261.45128561765864 L 1057.1428571428573 253.19742019072305 L 1082.857142857143 247.6338728577009 L 1108.5714285714287 244.3033657556041 L 1134.2857142857142 237.36798483361758 L 1160.0 232.68088673798934 L 1185.7142857142858 210.1294667949586 L 1211.4285714285716 201.39545961188549 L 1237.142857142857 193.46168868904158 L 1262.857142857143 185.43646219360005 L 1288.5714285714287 180.78747058655415 L 1314.2857142857142 177.35788661414335 L 1340.0 171.3370614181331 L 1365.7142857142858 164.04347950347255 L 1391.4285714285716 157.83974316226704 L 1417.142857142857 152.40575789042487 L 1442.857142857143 141.0271603997371 L 1468.5714285714287 137.30034581638392 L 1494.2857142857144 131.1728224523432 L 1520.0 121.89770313140082" fill="none" stroke="#ff7f0e" stroke-width="2" />
<circle cx="80.0" cy="920.0" r="4" fill="#2ca02c" />
<circle cx="105.71428571428572" cy="642.7600529680192" r="4" fill="#2ca02c" />
<circle cx="131.42857142857144" cy="586.2557516981204" r="4" fill="#2ca02c" />
<circle cx="157.14285714285714" cy="568.2390038963886" r="4" fill="#2ca02c" />
<circle cx="182.85714285714286" cy="559.4135411407178" r="4" fill="#2ca02c" />
<circle cx="208.57142857142858" cy="552.4171898369996" r="4" fill="#2ca02c" />
<circle cx="234.28571428571428" cy="540.0478236431709" r="4" fill="#2ca02c" />
<circle cx="260.0" cy="524.3936781335442" r="4" fill="#2ca02c" />
<circle cx="285.7142857142857" cy="511.88712858081914" r="4" fill="#2ca02c" />
<circle cx="311.42857142857144" cy="501.5450275795712" r="4" fill="#2ca02c" />
<circle cx="337.14285714285717" cy="491.0505006239938" r="4" fill="#2ca02c" />
<circle cx="362.8571428571429" cy="485.6241366498681" r="4" fill="#2ca02c" />
<circle cx="388.57142857142856" cy="478.8030751936286" r="4" fill="#2ca02c" />
<circle cx="414.2857142857143" cy="471.06745801141295" r="4" fill="#2ca02c" />
<circle cx="440.0" cy="460.91588945307666" r="4" fill="#2ca02c" />
<circle cx="465.7142857142857" cy="447.3194943268966" r="4" fill="#2ca02c" />
<circle cx="491.42857142857144" cy="438.44068248721055" r="4" fill="#2ca02c" />
<circle cx="517.1428571428571" cy="427.3135878211663" r="4" fill="#2ca02c" />
<circle cx="542.8571428571429" cy="420.5306328535092" r="4" fill="#2ca02c" />
<circle cx="568.5714285714287" cy="415.1423753679658" r="4" fill="#2ca02c" />
<circle cx="594.2857142857143" cy="402.948299021616" r="4" fill="#2ca02c" />
<circle cx="620.0" cy="392.97964160847494" r="4" fill="#2ca02c" />
<circle cx="645.7142857142858" cy="381.16663014794847" r="4" fill="#2ca02c" />
<circle cx="671.4285714285714" cy="365.67253189036774" r="4" fill="#2ca02c" />
<circle cx="697.1428571428571" cy="356.00872638588544" r="4" fill="#2ca02c" />
<circle cx="722.8571428571429" cy="344.44721775000244" r="4" fill="#2ca02c" />
<circle cx="748.5714285714286" cy="341.5816098086102" r="4" fill="#2ca02c" />
<circle cx="774.2857142857143" cy="331.8034848383809" r="4" fill="#2ca02c" />
<circle cx="800.0" cy="325.2796539930837" r="4" fill="#2ca02c" />
<circle cx="825.7142857142858" cy="319.0530537587289" r="4" fill="#2ca02c" />
<circle cx="851.4285714285714" cy="307.6744562680411" r="4" fill="#2ca02c" />
<circle cx="877.1428571428572" cy="297.24852099191196" r="4" fill="#2ca02c" />
<circle cx="902.8571428571429" cy="286.045213348703" r="4" fill="#2ca02c" />
<circle cx="928.5714285714286" cy="281.83825700921227" r="4" fill="#2ca02c" />
<circle cx="954.2857142857143" cy="277.5779515857063" r="4" fill="#2ca02c" />
<circle cx="980.0" cy="271.77052272575725" r="4" fill="#2ca02c" />
<circle cx="1005.7142857142858" cy="266.7480875306044" r="4" fill="#2ca02c" />
<circle cx="1031.4285714285716" cy="258.92101477579104" r="4" fill="#2ca02c" />
<circle cx="1057.1428571428573" cy="250.7052558374378" r="4" fill="#2ca02c" />
<circle cx="1082.857142857143" cy="245.14932980213212" r="4" fill="#2ca02c" />
<circle cx="1108.5714285714287" cy="241.8188227000353" r="4" fill="#2ca02c" />
<circle cx="1134.2857142857142" cy="234.89106307576526" r="4" fill="#2ca02c" />
<circle cx="1160.0" cy="230.2801779573017" r="4" fill="#2ca02c" />
<circle cx="1185.7142857142858" cy="207.92691175489915" r="4" fill="#2ca02c" />
<circle cx="1211.4285714285716" cy="199.20814716725897" r="4" fill="#2ca02c" />
<circle cx="1237.142857142857" cy="191.5106364736256" r="4" fill="#2ca02c" />
<circle cx="1262.857142857143" cy="183.49303127590053" r="4" fill="#2ca02c" />
<circle cx="1288.5714285714287" cy="178.84403966885475" r="4" fill="#2ca02c" />
<circle cx="1314.2857142857142" cy="175.41445569644384" r="4" fill="#2ca02c" />
<circle cx="1340.0" cy="169.4088730958665" r="4" fill="#2ca02c" />
<circle cx="1365.7142857142858" cy="162.11529118120598" r="4" fill="#2ca02c" />
<circle cx="1391.4285714285716" cy="155.91155484000046" r="4" fill="#2ca02c" />
<circle cx="1417.142857142857" cy="150.49281216359122" r="4" fill="#2ca02c" />
<circle cx="1442.857142857143" cy="139.11421467290347" r="4" fill="#2ca02c" />
<circle cx="1468.5714285714287" cy="135.38740008955028" r="4" fill="#2ca02c" />
<circle cx="1494.2857142857144" cy="129.25987672550957" r="4" fill="#2ca02c" />
<circle cx="1520.0" cy="120.00000000000011" r="4" fill="#2ca02c" />
<path d="M 80.0 920.0 L 105.71428571428572 642.7600529680192 L 131.42857142857144 586.2557516981204 L 157.14285714285714 568.2390038963886 L 182.85714285714286 559.4135411407178 L 208.57142857142858 552.4171898369996 L 234.28571428571428 540.0478236431709 L 260.0 524.3936781335442 L 285.7142857142857 511.88712858081914 L 311.42857142857144 501.5450275795712 L 337.14285714285717 491.0505006239938 L 362.8571428571429 485.6241366498681 L 388.57142857142856 478.8030751936286 L 414.2857142857143 471.06745801141295 L 440.0 460.91588945307666 L 465.7142857142857 447.3194943268966 L 491.42857142857144 438.44068248721055 L 517.1428571428571 427.3135878211663 L 542.8571428571429 420.5306328535092 L 568.5714285714287 415.1423753679658 L 594.2857142857143 402.948299021616 L 620.0 392.97964160847494 L 645.7142857142858 381.16663014794847 L 671.4285714285714 365.67253189036774 L 697.1428571428571 356.00872638588544 L 722.8571428571429 344.44721775000244 L 748.5714285714286 341.5816098086102 L 774.2857142857143 331.8034848383809 L 800.0 325.2796539930837 L 825.7142857142858 319.0530537587289 L 851.4285714285714 307.6744562680411 L 877.1428571428572 297.24852099191196 L 902.8571428571429 286.045213348703 L 928.5714285714286 281.83825700921227 L 954.2857142857143 277.5779515857063 L 980.0 271.77052272575725 L 1005.7142857142858 266.7480875306044 L 1031.4285714285716 258.92101477579104 L 1057.1428571428573 250.7052558374378 L 1082.857142857143 245.14932980213212 L 1108.5714285714287 241.8188227000353 L 1134.2857142857142 234.89106307576526 L 1160.0 230.2801779573017 L 1185.7142857142858 207.92691175489915 L 1211.4285714285716 199.20814716725897 L 1237.142857142857 191.5106364736256 L 1262.857142857143 183.49303127590053 L 1288.5714285714287 178.84403966885475 L 1314.2857142857142 175.41445569644384 L 1340.0 169.4088730958665 L 1365.7142857142858 162.11529118120598 L 1391.4285714285716 155.91155484000046 L 1417.142857142857 150.49281216359122 L 1442.857142857143 139.11421467290347 L 1468.5714285714287 135.38740008955028 L 1494.2857142857144 129.25987672550957 L 1520.0 120.00000000000011" fill="none" stroke="#2ca02c" stroke-width="2" />
<circle cx="80.0" cy="920.0" r="4" fill="#d62728" />
<circle cx="105.71428571428572" cy="866.2088807171641" r="4" fill="#d62728" />
<circle cx="131.42857142857144" cy="788.3573245434367" r="4" fill="#d62728" />
<circle cx="157.14285714285714" cy="761.4160371157199" r="4" fill="#d62728" />
<circle cx="182.85714285714286" cy="742.3399289313988" r="4" fill="#d62728" />
<circle cx="208.57142857142858" cy="732.8285493812459" r="4" fill="#d62728" />
<circle cx="234.28571428571428" cy="714.1030208918824" r="4" fill="#d62728" />
<circle cx="260.0" cy="694.4324514856768" r="4" fill="#d62728" />
<circle cx="285.7142857142857" cy="676.3242481113472" r="4" fill="#d62728" />
<circle cx="311.42857142857144" cy="661.1502443578581" r="4" fill="#d62728" />
<circle cx="337.14285714285717" cy="647.0584648801075" r="4" fill="#d62728" />
<circle cx="362.8571428571429" cy="638.187274338138" r="4" fill="#d62728" />
<circle cx="388.57142857142856" cy="629.3999180710496" r="4" fill="#d62728" />
<circle cx="414.2857142857143" cy="616.8323981365927" r="4" fill="#d62728" />
<circle cx="440.0" cy="598.2745381969914" r="4" fill="#d62728" />
<circle cx="465.7142857142857" cy="578.3067381798436" r="4" fill="#d62728" />
<circle cx="491.42857142857144" cy="565.464851527594" r="4" fill="#d62728" />
<circle cx="517.1428571428571" cy="547.2423286875173" r="4" fill="#d62728" />
<circle cx="542.8571428571429" cy="539.6210309710486" r="4" fill="#d62728" />
<circle cx="568.5714285714287" cy="532.6780287513457" r="4" fill="#d62728" />
<circle cx="594.2857142857143" cy="517.7631491202164" r="4" fill="#d62728" />
<circle cx="620.0" cy="503.8161742990788" r="4" fill="#d62728" />
<circle cx="645.7142857142858" cy="490.72278482218564" r="4" fill="#d62728" />
<circle cx="671.4285714285714" cy="472.5917175547067" r="4" fill="#d62728" />
<circle cx="697.1428571428571" cy="460.5119606741038" r="4" fill="#d62728" />
<circle cx="722.8571428571429" cy="452.8144499804705" r="4" fill="#d62728" />
<circle cx="748.5714285714286" cy="444.1261705836962" r="4" fill="#d62728" />
<circle cx="774.2857142857143" cy="432.9762120245025" r="4" fill="#d62728" />
<circle cx="800.0" cy="423.94497423048716" r="4" fill="#d62728" />
<circle cx="825.7142857142858" cy="415.7368365898504" r="4" fill="#d62728" />
<circle cx="851.4285714285714" cy="401.8051043641457" r="4" fill="#d62728" />
<circle cx="877.1428571428572" cy="390.41888557574146" r="4" fill="#d62728" />
<circle cx="902.8571428571429" cy="373.13378235479047" r="4" fill="#d62728" />
<circle cx="928.5714285714286" cy="368.0656193733389" r="4" fill="#d62728" />
<circle cx="954.2857142857143" cy="362.28867570425564" r="4" fill="#d62728" />
<circle cx="980.0" cy="354.6826205832199" r="4" fill="#d62728" />
<circle cx="1005.7142857142858" cy="348.5169907305967" r="4" fill="#d62728" />
<circle cx="1031.4285714285716" cy="339.40953995941663" r="4" fill="#d62728" />
<circle cx="1057.1428571428573" cy="329.71524926406846" r="4" fill="#d62728" />
<circle cx="1082.857142857143" cy="325.07387895473903" r="4" fill="#d62728" />
<circle cx="1108.5714285714287" cy="320.01333727100393" r="4" fill="#d62728" />
<circle cx="1134.2857142857142" cy="311.66039497375425" r="4" fill="#d62728" />
<circle cx="1160.0" cy="304.70215015861834" r="4" fill="#d62728" />
<circle cx="1185.7142857142858" cy="281.5334051005535" r="4" fill="#d62728" />
<circle cx="1211.4285714285716" cy="272.5783802837029" r="4" fill="#d62728" />
<circle cx="1237.142857142857" cy="263.05175813811707" r="4" fill="#d62728" />
<circle cx="1262.857142857143" cy="256.2764244681764" r="4" fill="#d62728" />
<circle cx="1288.5714285714287" cy="249.37152873705577" r="4" fill="#d62728" />
<circle cx="1314.2857142857142" cy="245.02738903866862" r="4" fill="#d62728" />
<circle cx="1340.0" cy="237.06313292495884" r="4" fill="#d62728" />
<circle cx="1365.7142857142858" cy="236.59823376425425" r="4" fill="#d62728" />
<circle cx="1391.4285714285716" cy="236.59823376425425" r="4" fill="#d62728" />
<circle cx="1417.142857142857" cy="236.59823376425425" r="4" fill="#d62728" />
<circle cx="1442.857142857143" cy="236.59823376425425" r="4" fill="#d62728" />
<circle cx="1468.5714285714287" cy="236.59823376425425" r="4" fill="#d62728" />
<circle cx="1494.2857142857144" cy="236.59823376425425" r="4" fill="#d62728" />
<circle cx="1520.0" cy="236.59823376425425" r="4" fill="#d62728" />
<path d="M 80.0 920.0 L 105.71428571428572 866.2088807171641 L 131.42857142857144 788.3573245434367 L 157.14285714285714 761.4160371157199 L 182.85714285714286 742.3399289313988 L 208.57142857142858 732.8285493812459 L 234.28571428571428 714.1030208918824 L 260.0 694.4324514856768 L 285.7142857142857 676.3242481113472 L 311.42857142857144 661.1502443578581 L 337.14285714285717 647.0584648801075 L 362.8571428571429 638.187274338138 L 388.57142857142856 629.3999180710496 L 414.2857142857143 616.8323981365927 L 440.0 598.2745381969914 L 465.7142857142857 578.3067381798436 L 491.42857142857144 565.464851527594 L 517.1428571428571 547.2423286875173 L 542.8571428571429 539.6210309710486 L 568.5714285714287 532.6780287513457 L 594.2857142857143 517.7631491202164 L 620.0 503.8161742990788 L 645.7142857142858 490.72278482218564 L 671.4285714285714 472.5917175547067 L 697.1428571428571 460.5119606741038 L 722.8571428571429 452.8144499804705 L 748.5714285714286 444.1261705836962 L 774.2857142857143 432.9762120245025 L 800.0 423.94497423048716 L 825.7142857142858 415.7368365898504 L 851.4285714285714 401.8051043641457 L 877.1428571428572 390.41888557574146 L 902.8571428571429 373.13378235479047 L 928.5714285714286 368.0656193733389 L 954.2857142857143 362.28867570425564 L 980.0 354.6826205832199 L 1005.7142857142858 348.5169907305967 L 1031.4285714285716 339.40953995941663 L 1057.1428571428573 329.71524926406846 L 1082.857142857143 325.07387895473903 L 1108.5714285714287 320.01333727100393 L 1134.2857142857142 311.66039497375425 L 1160.0 304.70215015861834 L 1185.7142857142858 281.5334051005535 L 1211.4285714285716 272.5783802837029 L 1237.142857142857 263.05175813811707 L 1262.857142857143 256.2764244681764 L 1288.5714285714287 249.37152873705577 L 1314.2857142857142 245.02738903866862 L 1340.0 237.06313292495884 L 1365.7142857142858 236.59823376425425 L 1391.4285714285716 236.59823376425425 L 1417.142857142857 236.59823376425425 L 1442.857142857143 236.59823376425425 L 1468.5714285714287 236.59823376425425 L 1494.2857142857144 236.59823376425425 L 1520.0 236.59823376425425" fill="none" stroke="#d62728" stroke-width="2" />
<circle cx="80.0" cy="920.0" r="4" fill="#9467bd" />
<circle cx="105.71428571428572" cy="871.8867475159333" r="4" fill="#9467bd" />
<circle cx="131.42857142857144" cy="793.7379607312636" r="4" fill="#9467bd" />
<circle cx="157.14285714285714" cy="762.0562261239032" r="4" fill="#9467bd" />
<circle cx="182.85714285714286" cy="742.9191475578505" r="4" fill="#9467bd" />
<circle cx="208.57142857142858" cy="734.3832941154055" r="4" fill="#9467bd" />
<circle cx="234.28571428571428" cy="715.4977183739961" r="4" fill="#9467bd" />
<circle cx="260.0" cy="694.9202145395308" r="4" fill="#9467bd" />
<circle cx="285.7142857142857" cy="676.3013842181978" r="4" fill="#9467bd" />
<circle cx="311.42857142857144" cy="660.9597119149464" r="4" fill="#9467bd" />
<circle cx="337.14285714285717" cy="647.0279796892416" r="4" fill="#9467bd" />
<circle cx="362.8571428571429" cy="638.1491678495556" r="4" fill="#9467bd" />
<circle cx="388.57142857142856" cy="629.3008412007355" r="4" fill="#9467bd" />
<circle cx="414.2857142857143" cy="616.154102639827" r="4" fill="#9467bd" />
<circle cx="440.0" cy="597.7334260591222" r="4" fill="#9467bd" />
<circle cx="465.7142857142857" cy="577.3769398584344" r="4" fill="#9467bd" />
<circle cx="491.42857142857144" cy="564.1844735112272" r="4" fill="#9467bd" />
<circle cx="517.1428571428571" cy="548.3474168564053" r="4" fill="#9467bd" />
<circle cx="542.8571428571429" cy="540.7184978422201" r="4" fill="#9467bd" />
<circle cx="568.5714285714287" cy="533.6992826453525" r="4" fill="#9467bd" />
<circle cx="594.2857142857143" cy="518.5633853804457" r="4" fill="#9467bd" />
<circle cx="620.0" cy="504.1819965894693" r="4" fill="#9467bd" />
<circle cx="645.7142857142858" cy="491.1038497080091" r="4" fill="#9467bd" />
<circle cx="671.4285714285714" cy="472.9041907610819" r="4" fill="#9467bd" />
<circle cx="697.1428571428571" cy="460.64914403300025" r="4" fill="#9467bd" />
<circle cx="722.8571428571429" cy="452.97449723251634" r="4" fill="#9467bd" />
<circle cx="748.5714285714286" cy="444.28621783574204" r="4" fill="#9467bd" />
<circle cx="774.2857142857143" cy="433.1210166811154" r="4" fill="#9467bd" />
<circle cx="800.0" cy="423.7925482761578" r="4" fill="#9467bd" />
<circle cx="825.7142857142858" cy="415.584410635521" r="4" fill="#9467bd" />
<circle cx="851.4285714285714" cy="401.843210852728" r="4" fill="#9467bd" />
<circle cx="877.1428571428572" cy="390.71611618668373" r="4" fill="#9467bd" />
<circle cx="902.8571428571429" cy="373.33193609541865" r="4" fill="#9467bd" />
<circle cx="928.5714285714286" cy="368.2180453276683" r="4" fill="#9467bd" />
<circle cx="954.2857142857143" cy="362.67736188779554" r="4" fill="#9467bd" />
<circle cx="980.0" cy="355.0484428736104" r="4" fill="#9467bd" />
<circle cx="1005.7142857142858" cy="348.8599491278378" r="4" fill="#9467bd" />
<circle cx="1031.4285714285716" cy="339.6839066772095" r="4" fill="#9467bd" />
<circle cx="1057.1428571428573" cy="329.4180186531262" r="4" fill="#9467bd" />
<circle cx="1082.857142857143" cy="324.75378445064734" r="4" fill="#9467bd" />
<circle cx="1108.5714285714287" cy="319.69324276691225" r="4" fill="#9467bd" />
<circle cx="1134.2857142857142" cy="311.3326791719461" r="4" fill="#9467bd" />
<circle cx="1160.0" cy="304.290600081929" r="4" fill="#9467bd" />
<circle cx="1185.7142857142858" cy="281.11423372614775" r="4" fill="#9467bd" />
<circle cx="1211.4285714285716" cy="272.11348112299834" r="4" fill="#9467bd" />
<circle cx="1237.142857142857" cy="262.59448027512894" r="4" fill="#9467bd" />
<circle cx="1262.857142857143" cy="255.81914660518828" r="4" fill="#9467bd" />
<circle cx="1288.5714285714287" cy="248.8532804923359" r="4" fill="#9467bd" />
<circle cx="1314.2857142857142" cy="244.52438338938168" r="4" fill="#9467bd" />
<circle cx="1340.0" cy="236.18668368756494" r="4" fill="#9467bd" />
<circle cx="1365.7142857142858" cy="227.18593108441542" r="4" fill="#9467bd" />
<circle cx="1391.4285714285716" cy="220.623993750536" r="4" fill="#9467bd" />
<circle cx="1417.142857142857" cy="213.47521649248836" r="4" fill="#9467bd" />
<circle cx="1442.857142857143" cy="206.85993007459354" r="4" fill="#9467bd" />
<circle cx="1468.5714285714287" cy="197.47811258562058" r="4" fill="#9467bd" />
<circle cx="1494.2857142857144" cy="191.0228734197716" r="4" fill="#9467bd" />
<circle cx="1520.0" cy="180.00247692175788" r="4" fill="#9467bd" />
<path d="M 80.0 920.0 L 105.71428571428572 871.8867475159333 L 131.42857142857144 793.7379607312636 L 157.14285714285714 762.0562261239032 L 182.85714285714286 742.9191475578505 L 208.57142857142858 734.3832941154055 L 234.28571428571428 715.4977183739961 L 260.0 694.9202145395308 L 285.7142857142857 676.3013842181978 L 311.42857142857144 660.9597119149464 L 337.14285714285717 647.0279796892416 L 362.8571428571429 638.1491678495556 L 388.57142857142856 629.3008412007355 L 414.2857142857143 616.154102639827 L 440.0 597.7334260591222 L 465.7142857142857 577.3769398584344 L 491.42857142857144 564.1844735112272 L 517.1428571428571 548.3474168564053 L 542.8571428571429 540.7184978422201 L 568.5714285714287 533.6992826453525 L 594.2857142857143 518.5633853804457 L 620.0 504.1819965894693 L 645.7142857142858 491.1038497080091 L 671.4285714285714 472.9041907610819 L 697.1428571428571 460.64914403300025 L 722.8571428571429 452.97449723251634 L 748.5714285714286 444.28621783574204 L 774.2857142857143 433.1210166811154 L 800.0 423.7925482761578 L 825.7142857142858 415.584410635521 L 851.4285714285714 401.843210852728 L 877.1428571428572 390.71611618668373 L 902.8571428571429 373.33193609541865 L 928.5714285714286 368.2180453276683 L 954.2857142857143 362.67736188779554 L 980.0 355.0484428736104 L 1005.7142857142858 348.8599491278378 L 1031.4285714285716 339.6839066772095 L 1057.1428571428573 329.4180186531262 L 1082.857142857143 324.75378445064734 L 1108.5714285714287 319.69324276691225 L 1134.2857142857142 311.3326791719461 L 1160.0 304.290600081929 L 1185.7142857142858 281.11423372614775 L 1211.4285714285716 272.11348112299834 L 1237.142857142857 262.59448027512894 L 1262.857142857143 255.81914660518828 L 1288.5714285714287 248.8532804923359 L 1314.2857142857142 244.52438338938168 L 1340.0 236.18668368756494 L 1365.7142857142858 227.18593108441542 L 1391.4285714285716 220.623993750536 L 1417.142857142857 213.47521649248836 L 1442.857142857143 206.85993007459354 L 1468.5714285714287 197.47811258562058 L 1494.2857142857144 191.0228734197716 L 1520.0 180.00247692175788" fill="none" stroke="#9467bd" stroke-width="2" />
<circle cx="80.0" cy="920.0" r="4" fill="#66ffbd" />
<circle cx="105.71428571428572" cy="680.012956206118" r="4" fill="#66ffbd" />
<circle cx="131.42857142857144" cy="702.4576779811182" r="4" fill="#66ffbd" />
<circle cx="157.14285714285714" cy="716.1988777639112" r="4" fill="#66ffbd" />
<circle cx="182.85714285714286" cy="726.487629681144" r="4" fill="#66ffbd" />
<circle cx="208.57142857142858" cy="729.0864922024598" r="4" fill="#66ffbd" />
<circle cx="234.28571428571428" cy="735.8313406815346" r="4" fill="#66ffbd" />
<circle cx="260.0" cy="740.8080480903886" r="4" fill="#66ffbd" />
<circle cx="285.7142857142857" cy="747.3166363402529" r="4" fill="#66ffbd" />
<circle cx="311.42857142857144" cy="752.4762548943022" r="4" fill="#66ffbd" />
<circle cx="337.14285714285717" cy="756.1192352027742" r="4" fill="#66ffbd" />
<circle cx="362.8571428571429" cy="759.5793043660509" r="4" fill="#66ffbd" />
<circle cx="388.57142857142856" cy="761.5532204746163" r="4" fill="#66ffbd" />
<circle cx="414.2857142857143" cy="767.0405548304738" r="4" fill="#66ffbd" />
<circle cx="440.0" cy="775.6678638455163" r="4" fill="#66ffbd" />
<circle cx="465.7142857142857" cy="782.3822271337252" r="4" fill="#66ffbd" />
<circle cx="491.42857142857144" cy="786.9854909544723" r="4" fill="#66ffbd" />
<circle cx="517.1428571428571" cy="794.3095580599987" r="4" fill="#66ffbd" />
<circle cx="542.8571428571429" cy="795.1479008088103" r="4" fill="#66ffbd" />
<circle cx="568.5714285714287" cy="796.7788585201346" r="4" fill="#66ffbd" />
<circle cx="594.2857142857143" cy="799.682572950109" r="4" fill="#66ffbd" />
<circle cx="620.0" cy="804.560203488649" r="4" fill="#66ffbd" />
<circle cx="645.7142857142858" cy="805.893930589031" r="4" fill="#66ffbd" />
<circle cx="671.4285714285714" cy="808.5461421943621" r="4" fill="#66ffbd" />
<circle cx="697.1428571428571" cy="811.373643647172" r="4" fill="#66ffbd" />
<circle cx="722.8571428571429" cy="807.5096457049224" r="4" fill="#66ffbd" />
<circle cx="748.5714285714286" cy="813.324695862588" r="4" fill="#66ffbd" />
<circle cx="774.2857142857143" cy="814.6965294515524" r="4" fill="#66ffbd" />
<circle cx="800.0" cy="817.8517467061704" r="4" fill="#66ffbd" />
<circle cx="825.7142857142858" cy="819.8485267078852" r="4" fill="#66ffbd" />
<circle cx="851.4285714285714" cy="822.4321466337681" r="4" fill="#66ffbd" />
<circle cx="877.1428571428572" cy="823.4000514437596" r="4" fill="#66ffbd" />
<circle cx="902.8571428571429" cy="829.5733025940992" r="4" fill="#66ffbd" />
<circle cx="928.5714285714286" cy="830.4573731292096" r="4" fill="#66ffbd" />
<circle cx="954.2857142857143" cy="831.9740113747869" r="4" fill="#66ffbd" />
<circle cx="980.0" cy="833.8259867198888" r="4" fill="#66ffbd" />
<circle cx="1005.7142857142858" cy="834.9615600796426" r="4" fill="#66ffbd" />
<circle cx="1031.4285714285716" cy="836.2876658823081" r="4" fill="#66ffbd" />
<circle cx="1057.1428571428573" cy="838.3377949680382" r="4" fill="#66ffbd" />
<circle cx="1082.857142857143" cy="837.4461031352114" r="4" fill="#66ffbd" />
<circle cx="1108.5714285714287" cy="839.1761377168498" r="4" fill="#66ffbd" />
<circle cx="1134.2857142857142" cy="840.6241842829788" r="4" fill="#66ffbd" />
<circle cx="1160.0" cy="843.0401356590994" r="4" fill="#66ffbd" />
<circle cx="1185.7142857142858" cy="843.9242061942098" r="4" fill="#66ffbd" />
<circle cx="1211.4285714285716" cy="844.1833303165697" r="4" fill="#66ffbd" />
<circle cx="1237.142857142857" cy="846.0124417685222" r="4" fill="#66ffbd" />
<circle cx="1262.857142857143" cy="844.7625489430213" r="4" fill="#66ffbd" />
<circle cx="1288.5714285714287" cy="847.0184530670961" r="4" fill="#66ffbd" />
<circle cx="1314.2857142857142" cy="847.9406300907888" r="4" fill="#66ffbd" />
<circle cx="1340.0" cy="850.2498832988788" r="4" fill="#66ffbd" />
<circle cx="1365.7142857142858" cy="843.4288218426393" r="4" fill="#66ffbd" />
<circle cx="1391.4285714285716" cy="837.2555706922997" r="4" fill="#66ffbd" />
<circle cx="1417.142857142857" cy="832.7056559555679" r="4" fill="#66ffbd" />
<circle cx="1442.857142857143" cy="821.5328335032248" r="4" fill="#66ffbd" />
<circle cx="1468.5714285714287" cy="817.8060189198716" r="4" fill="#66ffbd" />
<circle cx="1494.2857142857144" cy="811.6861168535472" r="4" fill="#66ffbd" />
<circle cx="1520.0" cy="802.4414827234707" r="4" fill="#66ffbd" />
<path d="M 80.0 920.0 L 105.71428571428572 680.012956206118 L 131.42857142857144 702.4576779811182 L 157.14285714285714 716.1988777639112 L 182.85714285714286 726.487629681144 L 208.57142857142858 729.0864922024598 L 234.28571428571428 735.8313406815346 L 260.0 740.8080480903886 L 285.7142857142857 747.3166363402529 L 311.42857142857144 752.4762548943022 L 337.14285714285717 756.1192352027742 L 362.8571428571429 759.5793043660509 L 388.57142857142856 761.5532204746163 L 414.2857142857143 767.0405548304738 L 440.0 775.6678638455163 L 465.7142857142857 782.3822271337252 L 491.42857142857144 786.9854909544723 L 517.1428571428571 794.3095580599987 L 542.8571428571429 795.1479008088103 L 568.5714285714287 796.7788585201346 L 594.2857142857143 799.682572950109 L 620.0 804.560203488649 L 645.7142857142858 805.893930589031 L 671.4285714285714 808.5461421943621 L 697.1428571428571 811.373643647172 L 722.8571428571429 807.5096457049224 L 748.5714285714286 813.324695862588 L 774.2857142857143 814.6965294515524 L 800.0 817.8517467061704 L 825.7142857142858 819.8485267078852 L 851.4285714285714 822.4321466337681 L 877.1428571428572 823.4000514437596 L 902.8571428571429 829.5733025940992 L 928.5714285714286 830.4573731292096 L 954.2857142857143 831.9740113747869 L 980.0 833.8259867198888 L 1005.7142857142858 834.9615600796426 L 1031.4285714285716 836.2876658823081 L 1057.1428571428573 838.3377949680382 L 1082.857142857143 837.4461031352114 L 1108.5714285714287 839.1761377168498 L 1134.2857142857142 840.6241842829788 L 1160.0 843.0401356590994 L 1185.7142857142858 843.9242061942098 L 1211.4285714285716 844.1833303165697 L 1237.142857142857 846.0124417685222 L 1262.857142857143 844.7625489430213 L 1288.5714285714287 847.0184530670961 L 1314.2857142857142 847.9406300907888 L 1340.0 850.2498832988788 L 1365.7142857142858 843.4288218426393 L 1391.4285714285716 837.2555706922997 L 1417.142857142857 832.7056559555679 L 1442.857142857143 821.5328335032248 L 1468.5714285714287 817.8060189198716 L 1494.2857142857144 811.6861168535472 L 1520.0 802.4414827234707" fill="none" stroke="#66ffbd" stroke-width="2" />
<text x="80.0" y="940" text-anchor="middle">08-06</text>
<text x="105.71428571428572" y="940" text-anchor="middle">08-07</text>
<text x="131.42857142857144" y="940" text-anchor="middle">08-08</text>
<text x="157.14285714285714" y="940" text-anchor="middle">08-09</text>
<text x="182.85714285714286" y="940" text-anchor="middle">08-10</text>
<text x="208.57142857142858" y="940" text-anchor="middle">08-11</text>
<text x="234.28571428571428" y="940" text-anchor="middle">08-12</text>
<text x="260.0" y="940" text-anchor="middle">08-13</text>
<text x="285.7142857142857" y="940" text-anchor="middle">08-14</text>
<text x="311.42857142857144" y="940" text-anchor="middle">08-15</text>
<text x="337.14285714285717" y="940" text-anchor="middle">08-16</text>
<text x="362.8571428571429" y="940" text-anchor="middle">08-17</text>
<text x="388.57142857142856" y="940" text-anchor="middle">08-18</text>
<text x="414.2857142857143" y="940" text-anchor="middle">08-19</text>
<text x="440.0" y="940" text-anchor="middle">08-20</text>
<text x="465.7142857142857" y="940" text-anchor="middle">08-21</text>
<text x="491.42857142857144" y="940" text-anchor="middle">08-22</text>
<text x="517.1428571428571" y="940" text-anchor="middle">08-23</text>
<text x="542.8571428571429" y="940" text-anchor="middle">08-24</text>
<text x="568.5714285714287" y="940" text-anchor="middle">08-25</text>
<text x="594.2857142857143" y="940" text-anchor="middle">08-26</text>
<text x="620.0" y="940" text-anchor="middle">08-27</text>
<text x="645.7142857142858" y="940" text-anchor="middle">08-28</text>
<text x="671.4285714285714" y="940" text-anchor="middle">08-29</text>
<text x="697.1428571428571" y="940" text-anchor="middle">08-30</text>
<text x="722.8571428571429" y="940" text-anchor="middle">08-31</text>
<text x="748.5714285714286" y="940" text-anchor="middle">09-01</text>
<text x="774.2857142857143" y="940" text-anchor="middle">09-02</text>
<text x="800.0" y="940" text-anchor="middle">09-03</text>
<text x="825.7142857142858" y="940" text-anchor="middle">09-04</text>
<text x="851.4285714285714" y="940" text-anchor="middle">09-05</text>
<text x="877.1428571428572" y="940" text-anchor="middle">09-06</text>
<text x="902.8571428571429" y="940" text-anchor="middle">09-07</text>
<text x="928.5714285714286" y="940" text-anchor="middle">09-08</text>
<text x="954.2857142857143" y="940" text-anchor="middle">09-09</text>
<text x="980.0" y="940" text-anchor="middle">09-10</text>
<text x="1005.7142857142858" y="940" text-anchor="middle">09-11</text>
<text x="1031.4285714285716" y="940" text-anchor="middle">09-12</text>
<text x="1057.1428571428573" y="940" text-anchor="middle">09-13</text>
<text x="1082.857142857143" y="940" text-anchor="middle">09-14</text>
<text x="1108.5714285714287" y="940" text-anchor="middle">09-15</text>
<text x="1134.2857142857142" y="940" text-anchor="middle">09-16</text>
<text x="1160.0" y="940" text-anchor="middle">09-17</text>
<text x="1185.7142857142858" y="940" text-anchor="middle">09-18</text>
<text x="1211.4285714285716" y="940" text-anchor="middle">09-19</text>
<text x="1237.142857142857" y="940" text-anchor="middle">09-20</text>
<text x="1262.857142857143" y="940" text-anchor="middle">09-21</text>
<text x="1288.5714285714287" y="940" text-anchor="middle">09-22</text>
<text x="1314.2857142857142" y="940" text-anchor="middle">09-23</text>
<text x="1340.0" y="940" text-anchor="middle">09-24</text>
<text x="1365.7142857142858" y="940" text-anchor="middle">09-25</text>
<text x="1391.4285714285716" y="940" text-anchor="middle">09-26</text>
<text x="1417.142857142857" y="940" text-anchor="middle">09-27</text>
<text x="1442.857142857143" y="940" text-anchor="middle">09-28</text>
<text x="1468.5714285714287" y="940" text-anchor="middle">09-29</text>
<text x="1494.2857142857144" y="940" text-anchor="middle">09-30</text>
<text x="1520.0" y="940" text-anchor="middle">10-01</text>
<rect x="90" y="100" width="130" height="185" class="legend-box" />
<text x="100" y="120" class="legend-item">图例:</text>
<rect x="100" y="137" width="15" height="15" fill="#1f77b4" rx="3" />
<text x="120" y="145" class="legend-item">构件聚合数据</text>
<rect x="100" y="162" width="15" height="15" fill="#ff7f0e" rx="3" />
<text x="120" y="170" class="legend-item">构件基本信息</text>
<rect x="100" y="187" width="15" height="15" fill="#2ca02c" rx="3" />
<text x="120" y="195" class="legend-item">构件徽标</text>
<rect x="100" y="212" width="15" height="15" fill="#d62728" rx="3" />
<text x="120" y="220" class="legend-item">构件扩展元数据</text>
<rect x="100" y="237" width="15" height="15" fill="#9467bd" rx="3" />
<text x="120" y="245" class="legend-item">构件版本信息</text>
<rect x="100" y="262" width="15" height="15" fill="#66ffbd" rx="3" />
<text x="120" y="270" class="legend-item">数据量偏差</text>
<text x="1520" y="990" text-anchor="end" font-size="10" fill="#666">生成时间: 2025-10-01 11:40:20</text>
</svg>