<svg xmlns="http://www.w3.org/2000/svg" width="1600" height="1000" viewBox="0 0 1600 1000">
<style>
  text {
    font-family: Arial, sans-serif;
    font-size: 12px;
    fill: #333;
  }
  .axis-label { font-size: 14px; }
  .title { font-size: 18px; font-weight: bold; }
  .legend-item { font-size: 11px; }
  .legend-box { fill: white; fill-opacity: 0.85; stroke: #cccccc; stroke-width: 1; rx: 5; }
</style>
<text x="800.0" y="30" text-anchor="middle" class="title">Daily Data Growth Trend</text>
<text x="800.0" y="980" text-anchor="middle" class="axis-label">Date</text>
<g transform="rotate(-90)">
<text x="-500.0" y="20" text-anchor="middle" class="axis-label">Count</text>
</g>
<rect x="0" y="0" width="1600" height="1000" fill="#f8f8f8" />
<line x1="80" y1="920.0" x2="1520" y2="920.0" stroke="#e0e0e0" stroke-width="1" />
<text x="70" y="925.0" text-anchor="end">0</text>
<line x1="80" y1="752.0" x2="1520" y2="752.0" stroke="#e0e0e0" stroke-width="1" />
<text x="70" y="757.0" text-anchor="end">21.5k</text>
<line x1="80" y1="584.0" x2="1520" y2="584.0" stroke="#e0e0e0" stroke-width="1" />
<text x="70" y="589.0" text-anchor="end">43.0k</text>
<line x1="80" y1="416.0" x2="1520" y2="416.0" stroke="#e0e0e0" stroke-width="1" />
<text x="70" y="421.0" text-anchor="end">64.6k</text>
<line x1="80" y1="248.0" x2="1520" y2="248.0" stroke="#e0e0e0" stroke-width="1" />
<text x="70" y="253.0" text-anchor="end">86.1k</text>
<line x1="80" y1="80.0" x2="1520" y2="80.0" stroke="#e0e0e0" stroke-width="1" />
<text x="70" y="85.0" text-anchor="end">107.6k</text>
<line x1="80" y1="80" x2="80" y2="920" stroke="#333333" stroke-width="2" />
<line x1="80" y1="920" x2="1520" y2="920" stroke="#333333" stroke-width="2" />
<circle cx="80.0" cy="920.0" r="4" fill="#1f77b4" />
<circle cx="107.16981132075472" cy="881.8352348698529" r="4" fill="#1f77b4" />
<circle cx="134.33962264150944" cy="800.9537287358116" r="4" fill="#1f77b4" />
<circle cx="161.50943396226415" cy="768.4184226193381" r="4" fill="#1f77b4" />
<circle cx="188.67924528301887" cy="748.8363377285016" r="4" fill="#1f77b4" />
<circle cx="215.8490566037736" cy="739.0062560388831" r="4" fill="#1f77b4" />
<circle cx="243.0188679245283" cy="719.4241711480465" r="4" fill="#1f77b4" />
<circle cx="270.188679245283" cy="698.2883243380409" r="4" fill="#1f77b4" />
<circle cx="297.35849056603774" cy="678.8077414821249" r="4" fill="#1f77b4" />
<circle cx="324.52830188679246" cy="662.9265769414704" r="4" fill="#1f77b4" />
<circle cx="351.6981132075472" cy="648.4430173431842" r="4" fill="#1f77b4" />
<circle cx="378.8679245283019" cy="639.33906559569" r="4" fill="#1f77b4" />
<circle cx="406.0377358490566" cy="630.3288080342764" r="4" fill="#1f77b4" />
<circle cx="433.20754716981133" cy="616.7821902967959" r="4" fill="#1f77b4" />
<circle cx="460.37735849056605" cy="597.5436507549214" r="4" fill="#1f77b4" />
<circle cx="487.54716981132077" cy="576.7357335961976" r="4" fill="#1f77b4" />
<circle cx="514.7169811320755" cy="562.9236489981554" r="4" fill="#1f77b4" />
<circle cx="541.8867924528302" cy="544.0208469564029" r="4" fill="#1f77b4" />
<circle cx="569.0566037735849" cy="536.2129981163564" r="4" fill="#1f77b4" />
<circle cx="596.2264150943397" cy="529.0219693346737" r="4" fill="#1f77b4" />
<circle cx="623.3962264150944" cy="513.5546207825416" r="4" fill="#1f77b4" />
<circle cx="650.566037735849" cy="498.34493124213117" r="4" fill="#1f77b4" />
<circle cx="677.7358490566038" cy="484.876391993051" r="4" fill="#1f77b4" />
<circle cx="704.9056603773586" cy="466.2859039049004" r="4" fill="#1f77b4" />
<circle cx="732.0754716981132" cy="453.4888396560643" r="4" fill="#1f77b4" />
<circle cx="759.2452830188679" cy="445.60291232761733" r="4" fill="#1f77b4" />
<circle cx="786.4150943396227" cy="436.70977249880445" r="4" fill="#1f77b4" />
<circle cx="813.5849056603774" cy="425.2868896458165" r="4" fill="#1f77b4" />
<circle cx="840.7547169811321" cy="415.3709216189575" r="4" fill="#1f77b4" />
<circle cx="867.9245283018868" cy="406.94625272054736" r="4" fill="#1f77b4" />
<circle cx="895.0943396226415" cy="392.64227364558224" r="4" fill="#1f77b4" />
<circle cx="922.2641509433963" cy="380.9695396297128" r="4" fill="#1f77b4" />
<circle cx="949.433962264151" cy="363.1676442744068" r="4" fill="#1f77b4" />
<circle cx="976.6037735849056" cy="357.9520012492559" r="4" fill="#1f77b4" />
<circle cx="1003.7735849056604" cy="352.03365182850064" r="4" fill="#1f77b4" />
<circle cx="1030.9433962264152" cy="344.1867637442539" r="4" fill="#1f77b4" />
<circle cx="1058.1132075471698" cy="337.87802188149635" r="4" fill="#1f77b4" />
<circle cx="1085.2830188679245" cy="328.5007954246006" r="4" fill="#1f77b4" />
<circle cx="1112.4528301886794" cy="317.983623037058" r="4" fill="#1f77b4" />
<circle cx="1139.622641509434" cy="313.2052195469496" r="4" fill="#1f77b4" />
<circle cx="1166.7924528301887" cy="308.0208079171588" r="4" fill="#1f77b4" />
<circle cx="1193.9622641509434" cy="299.4399820419477" r="4" fill="#1f77b4" />
<circle cx="1221.132075471698" cy="292.2411454114249" r="4" fill="#1f77b4" />
<circle cx="1248.301886792453" cy="268.4350142981232" r="4" fill="#1f77b4" />
<circle cx="1275.4716981132076" cy="259.2373683645485" r="4" fill="#1f77b4" />
<circle cx="1302.6415094339623" cy="249.47755731449035" r="4" fill="#1f77b4" />
<circle cx="1329.8113207547171" cy="242.5441875445291" r="4" fill="#1f77b4" />
<circle cx="1356.9811320754718" cy="235.47027649544702" r="4" fill="#1f77b4" />
<circle cx="1384.1509433962265" cy="231.01199480778052" r="4" fill="#1f77b4" />
<circle cx="1411.3207547169811" cy="222.4936317232898" r="4" fill="#1f77b4" />
<circle cx="1438.4905660377358" cy="222.00954509520693" r="4" fill="#1f77b4" />
<circle cx="1465.6603773584907" cy="221.9783136998468" r="4" fill="#1f77b4" />
<circle cx="1492.8301886792453" cy="221.08821893208153" r="4" fill="#1f77b4" />
<circle cx="1520.0" cy="220.87740701340022" r="4" fill="#1f77b4" />
<path d="M 80.0 920.0 L 107.16981132075472 881.8352348698529 L 134.33962264150944 800.9537287358116 L 161.50943396226415 768.4184226193381 L 188.67924528301887 748.8363377285016 L 215.8490566037736 739.0062560388831 L 243.0188679245283 719.4241711480465 L 270.188679245283 698.2883243380409 L 297.35849056603774 678.8077414821249 L 324.52830188679246 662.9265769414704 L 351.6981132075472 648.4430173431842 L 378.8679245283019 639.33906559569 L 406.0377358490566 630.3288080342764 L 433.20754716981133 616.7821902967959 L 460.37735849056605 597.5436507549214 L 487.54716981132077 576.7357335961976 L 514.7169811320755 562.9236489981554 L 541.8867924528302 544.0208469564029 L 569.0566037735849 536.2129981163564 L 596.2264150943397 529.0219693346737 L 623.3962264150944 513.5546207825416 L 650.566037735849 498.34493124213117 L 677.7358490566038 484.876391993051 L 704.9056603773586 466.2859039049004 L 732.0754716981132 453.4888396560643 L 759.2452830188679 445.60291232761733 L 786.4150943396227 436.70977249880445 L 813.5849056603774 425.2868896458165 L 840.7547169811321 415.3709216189575 L 867.9245283018868 406.94625272054736 L 895.0943396226415 392.64227364558224 L 922.2641509433963 380.9695396297128 L 949.433962264151 363.1676442744068 L 976.6037735849056 357.9520012492559 L 1003.7735849056604 352.03365182850064 L 1030.9433962264152 344.1867637442539 L 1058.1132075471698 337.87802188149635 L 1085.2830188679245 328.5007954246006 L 1112.4528301886794 317.983623037058 L 1139.622641509434 313.2052195469496 L 1166.7924528301887 308.0208079171588 L 1193.9622641509434 299.4399820419477 L 1221.132075471698 292.2411454114249 L 1248.301886792453 268.4350142981232 L 1275.4716981132076 259.2373683645485 L 1302.6415094339623 249.47755731449035 L 1329.8113207547171 242.5441875445291 L 1356.9811320754718 235.47027649544702 L 1384.1509433962265 231.01199480778052 L 1411.3207547169811 222.4936317232898 L 1438.4905660377358 222.00954509520693 L 1465.6603773584907 221.9783136998468 L 1492.8301886792453 221.08821893208153 L 1520.0 220.87740701340022" fill="none" stroke="#1f77b4" stroke-width="2" />
<circle cx="80.0" cy="920.0" r="4" fill="#ff7f0e" />
<circle cx="107.16981132075472" cy="641.4471847825026" r="4" fill="#ff7f0e" />
<circle cx="134.33962264150944" cy="583.3333658660368" r="4" fill="#ff7f0e" />
<circle cx="161.50943396226415" cy="564.6960306848459" r="4" fill="#ff7f0e" />
<circle cx="188.67924528301887" cy="555.5140004489513" r="4" fill="#ff7f0e" />
<circle cx="215.8490566037736" cy="548.3307795161086" r="4" fill="#ff7f0e" />
<circle cx="243.0188679245283" cy="535.5259074184323" r="4" fill="#ff7f0e" />
<circle cx="270.188679245283" cy="519.2777739822957" r="4" fill="#ff7f0e" />
<circle cx="297.35849056603774" cy="506.3167449078186" r="4" fill="#ff7f0e" />
<circle cx="324.52830188679246" cy="495.63560769463504" r="4" fill="#ff7f0e" />
<circle cx="351.6981132075472" cy="484.8295449000108" r="4" fill="#ff7f0e" />
<circle cx="378.8679245283019" cy="479.18447018865714" r="4" fill="#ff7f0e" />
<circle cx="406.0377358490566" cy="472.1964454768156" r="4" fill="#ff7f0e" />
<circle cx="433.20754716981133" cy="464.2480553576483" r="4" fill="#ff7f0e" />
<circle cx="460.37735849056605" cy="453.613765237505" r="4" fill="#ff7f0e" />
<circle cx="487.54716981132077" cy="439.38005680210034" r="4" fill="#ff7f0e" />
<circle cx="514.7169811320755" cy="430.24487365924597" r="4" fill="#ff7f0e" />
<circle cx="541.8867924528302" cy="418.8376065039381" r="4" fill="#ff7f0e" />
<circle cx="569.0566037735849" cy="411.8964288851368" r="4" fill="#ff7f0e" />
<circle cx="596.2264150943397" cy="406.3606640575439" r="4" fill="#ff7f0e" />
<circle cx="623.3962264150944" cy="393.78221957622907" r="4" fill="#ff7f0e" />
<circle cx="650.566037735849" cy="383.54612974692816" r="4" fill="#ff7f0e" />
<circle cx="677.7358490566038" cy="371.428348347176" r="4" fill="#ff7f0e" />
<circle cx="704.9056603773586" cy="355.5315681088414" r="4" fill="#ff7f0e" />
<circle cx="732.0754716981132" cy="345.5999843843024" r="4" fill="#ff7f0e" />
<circle cx="759.2452830188679" cy="333.7476698451118" r="4" fill="#ff7f0e" />
<circle cx="786.4150943396227" cy="330.80411083241427" r="4" fill="#ff7f0e" />
<circle cx="813.5849056603774" cy="320.7788329217947" r="4" fill="#ff7f0e" />
<circle cx="840.7547169811321" cy="314.07189076819475" r="4" fill="#ff7f0e" />
<circle cx="867.9245283018868" cy="307.6538390216765" r="4" fill="#ff7f0e" />
<circle cx="895.0943396226415" cy="295.7234459940855" r="4" fill="#ff7f0e" />
<circle cx="922.2641509433963" cy="285.01107738554185" r="4" fill="#ff7f0e" />
<circle cx="949.433962264151" cy="273.2056099393916" r="4" fill="#ff7f0e" />
<circle cx="976.6037735849056" cy="268.89567737968594" r="4" fill="#ff7f0e" />
<circle cx="1003.7735849056604" cy="264.4764349362197" r="4" fill="#ff7f0e" />
<circle cx="1030.9433962264152" cy="258.5190462712642" r="4" fill="#ff7f0e" />
<circle cx="1058.1132075471698" cy="253.3502503391535" r="4" fill="#ff7f0e" />
<circle cx="1085.2830188679245" cy="245.33158958042577" r="4" fill="#ff7f0e" />
<circle cx="1112.4528301886794" cy="236.87568928665542" r="4" fill="#ff7f0e" />
<circle cx="1139.622641509434" cy="231.17595963342148" r="4" fill="#ff7f0e" />
<circle cx="1166.7924528301887" cy="227.76392969032122" r="4" fill="#ff7f0e" />
<circle cx="1193.9622641509434" cy="220.6587872458789" r="4" fill="#ff7f0e" />
<circle cx="1221.132075471698" cy="215.85696020925036" r="4" fill="#ff7f0e" />
<circle cx="1248.301886792453" cy="192.75353549155295" r="4" fill="#ff7f0e" />
<circle cx="1275.4716981132076" cy="183.80574072085972" r="4" fill="#ff7f0e" />
<circle cx="1302.6415094339623" cy="175.67777007837128" r="4" fill="#ff7f0e" />
<circle cx="1329.8113207547171" cy="167.45610524980236" r="4" fill="#ff7f0e" />
<circle cx="1356.9811320754718" cy="162.69331745737406" r="4" fill="#ff7f0e" />
<circle cx="1384.1509433962265" cy="159.1797854793531" r="4" fill="#ff7f0e" />
<circle cx="1411.3207547169811" cy="153.0115848957164" r="4" fill="#ff7f0e" />
<circle cx="1438.4905660377358" cy="145.53947355579203" r="4" fill="#ff7f0e" />
<circle cx="1465.6603773584907" cy="139.18388459999414" r="4" fill="#ff7f0e" />
<circle cx="1492.8301886792453" cy="133.61688837704105" r="4" fill="#ff7f0e" />
<circle cx="1520.0" cy="121.95977005885163" r="4" fill="#ff7f0e" />
<path d="M 80.0 920.0 L 107.16981132075472 641.4471847825026 L 134.33962264150944 583.3333658660368 L 161.50943396226415 564.6960306848459 L 188.67924528301887 555.5140004489513 L 215.8490566037736 548.3307795161086 L 243.0188679245283 535.5259074184323 L 270.188679245283 519.2777739822957 L 297.35849056603774 506.3167449078186 L 324.52830188679246 495.63560769463504 L 351.6981132075472 484.8295449000108 L 378.8679245283019 479.18447018865714 L 406.0377358490566 472.1964454768156 L 433.20754716981133 464.2480553576483 L 460.37735849056605 453.613765237505 L 487.54716981132077 439.38005680210034 L 514.7169811320755 430.24487365924597 L 541.8867924528302 418.8376065039381 L 569.0566037735849 411.8964288851368 L 596.2264150943397 406.3606640575439 L 623.3962264150944 393.78221957622907 L 650.566037735849 383.54612974692816 L 677.7358490566038 371.428348347176 L 704.9056603773586 355.5315681088414 L 732.0754716981132 345.5999843843024 L 759.2452830188679 333.7476698451118 L 786.4150943396227 330.80411083241427 L 813.5849056603774 320.7788329217947 L 840.7547169811321 314.07189076819475 L 867.9245283018868 307.6538390216765 L 895.0943396226415 295.7234459940855 L 922.2641509433963 285.01107738554185 L 949.433962264151 273.2056099393916 L 976.6037735849056 268.89567737968594 L 1003.7735849056604 264.4764349362197 L 1030.9433962264152 258.5190462712642 L 1058.1132075471698 253.3502503391535 L 1085.2830188679245 245.33158958042577 L 1112.4528301886794 236.87568928665542 L 1139.622641509434 231.17595963342148 L 1166.7924528301887 227.76392969032122 L 1193.9622641509434 220.6587872458789 L 1221.132075471698 215.85696020925036 L 1248.301886792453 192.75353549155295 L 1275.4716981132076 183.80574072085972 L 1302.6415094339623 175.67777007837128 L 1329.8113207547171 167.45610524980236 L 1356.9811320754718 162.69331745737406 L 1384.1509433962265 159.1797854793531 L 1411.3207547169811 153.0115848957164 L 1438.4905660377358 145.53947355579203 L 1465.6603773584907 139.18388459999414 L 1492.8301886792453 133.61688837704105 L 1520.0 121.95977005885163" fill="none" stroke="#ff7f0e" stroke-width="2" />
<circle cx="80.0" cy="920.0" r="4" fill="#2ca02c" />
<circle cx="107.16981132075472" cy="635.9738827456301" r="4" fill="#2ca02c" />
<circle cx="134.33962264150944" cy="578.0864914455256" r="4" fill="#2ca02c" />
<circle cx="161.50943396226415" cy="559.6287367876557" r="4" fill="#2ca02c" />
<circle cx="188.67924528301887" cy="550.587247830882" r="4" fill="#2ca02c" />
<circle cx="215.8490566037736" cy="543.4196425957193" r="4" fill="#2ca02c" />
<circle cx="243.0188679245283" cy="530.747503928324" r="4" fill="#2ca02c" />
<circle cx="270.188679245283" cy="514.7101824108686" r="4" fill="#2ca02c" />
<circle cx="297.35849056603774" cy="501.8975024643523" r="4" fill="#2ca02c" />
<circle cx="324.52830188679246" cy="491.30225158840926" r="4" fill="#2ca02c" />
<circle cx="351.6981132075472" cy="480.5508437356653" r="4" fill="#2ca02c" />
<circle cx="378.8679245283019" cy="474.9916553615522" r="4" fill="#2ca02c" />
<circle cx="406.0377358490566" cy="468.00363064971066" r="4" fill="#2ca02c" />
<circle cx="433.20754716981133" cy="460.0786640770635" r="4" fill="#2ca02c" />
<circle cx="460.37735849056605" cy="449.6786094221216" r="4" fill="#2ca02c" />
<circle cx="487.54716981132077" cy="435.7494070914787" r="4" fill="#2ca02c" />
<circle cx="514.7169811320755" cy="426.6532631928246" r="4" fill="#2ca02c" />
<circle cx="541.8867924528302" cy="415.25380388635676" r="4" fill="#2ca02c" />
<circle cx="569.0566037735849" cy="408.3048184187154" r="4" fill="#2ca02c" />
<circle cx="596.2264150943397" cy="402.78466928880255" r="4" fill="#2ca02c" />
<circle cx="623.3962264150944" cy="390.2921111447282" r="4" fill="#2ca02c" />
<circle cx="650.566037735849" cy="380.07944486194754" r="4" fill="#2ca02c" />
<circle cx="677.7358490566038" cy="367.9772791598755" r="4" fill="#2ca02c" />
<circle cx="704.9056603773586" cy="352.103922468061" r="4" fill="#2ca02c" />
<circle cx="732.0754716981132" cy="342.2035701388821" r="4" fill="#2ca02c" />
<circle cx="759.2452830188679" cy="330.35906344853163" r="4" fill="#2ca02c" />
<circle cx="786.4150943396227" cy="327.42331228467424" r="4" fill="#2ca02c" />
<circle cx="813.5849056603774" cy="317.40584222289453" r="4" fill="#2ca02c" />
<circle cx="840.7547169811321" cy="310.72232361581484" r="4" fill="#2ca02c" />
<circle cx="867.9245283018868" cy="304.34331111349684" r="4" fill="#2ca02c" />
<circle cx="895.0943396226415" cy="292.68619279530753" r="4" fill="#2ca02c" />
<circle cx="922.2641509433963" cy="282.005055582124" r="4" fill="#2ca02c" />
<circle cx="949.433962264151" cy="270.52751778725565" r="4" fill="#2ca02c" />
<circle cx="976.6037735849056" cy="266.21758522755" r="4" fill="#2ca02c" />
<circle cx="1003.7735849056604" cy="261.8529977259641" r="4" fill="#2ca02c" />
<circle cx="1030.9433962264152" cy="255.9034169098486" r="4" fill="#2ca02c" />
<circle cx="1058.1132075471698" cy="250.75804452425803" r="4" fill="#2ca02c" />
<circle cx="1085.2830188679245" cy="242.7393837655303" r="4" fill="#2ca02c" />
<circle cx="1112.4528301886794" cy="234.3225227159602" r="4" fill="#2ca02c" />
<circle cx="1139.622641509434" cy="228.63060091156638" r="4" fill="#2ca02c" />
<circle cx="1166.7924528301887" cy="225.2185709684661" r="4" fill="#2ca02c" />
<circle cx="1193.9622641509434" cy="218.1212363728638" r="4" fill="#2ca02c" />
<circle cx="1221.132075471698" cy="213.39748782463573" r="4" fill="#2ca02c" />
<circle cx="1248.301886792453" cy="190.49706717677952" r="4" fill="#2ca02c" />
<circle cx="1275.4716981132076" cy="181.5648881037663" r="4" fill="#2ca02c" />
<circle cx="1302.6415094339623" cy="173.6789607753194" r="4" fill="#2ca02c" />
<circle cx="1329.8113207547171" cy="165.4651037955905" r="4" fill="#2ca02c" />
<circle cx="1356.9811320754718" cy="160.7023160031622" r="4" fill="#2ca02c" />
<circle cx="1384.1509433962265" cy="157.18878402514133" r="4" fill="#2ca02c" />
<circle cx="1411.3207547169811" cy="151.03619913918465" r="4" fill="#2ca02c" />
<circle cx="1438.4905660377358" cy="143.56408779926028" r="4" fill="#2ca02c" />
<circle cx="1465.6603773584907" cy="137.2084988434624" r="4" fill="#2ca02c" />
<circle cx="1492.8301886792453" cy="131.65711831818942" r="4" fill="#2ca02c" />
<circle cx="1520.0" cy="120.0" r="4" fill="#2ca02c" />
<path d="M 80.0 920.0 L 107.16981132075472 635.9738827456301 L 134.33962264150944 578.0864914455256 L 161.50943396226415 559.6287367876557 L 188.67924528301887 550.587247830882 L 215.8490566037736 543.4196425957193 L 243.0188679245283 530.747503928324 L 270.188679245283 514.7101824108686 L 297.35849056603774 501.8975024643523 L 324.52830188679246 491.30225158840926 L 351.6981132075472 480.5508437356653 L 378.8679245283019 474.9916553615522 L 406.0377358490566 468.00363064971066 L 433.20754716981133 460.0786640770635 L 460.37735849056605 449.6786094221216 L 487.54716981132077 435.7494070914787 L 514.7169811320755 426.6532631928246 L 541.8867924528302 415.25380388635676 L 569.0566037735849 408.3048184187154 L 596.2264150943397 402.78466928880255 L 623.3962264150944 390.2921111447282 L 650.566037735849 380.07944486194754 L 677.7358490566038 367.9772791598755 L 704.9056603773586 352.103922468061 L 732.0754716981132 342.2035701388821 L 759.2452830188679 330.35906344853163 L 786.4150943396227 327.42331228467424 L 813.5849056603774 317.40584222289453 L 840.7547169811321 310.72232361581484 L 867.9245283018868 304.34331111349684 L 895.0943396226415 292.68619279530753 L 922.2641509433963 282.005055582124 L 949.433962264151 270.52751778725565 L 976.6037735849056 266.21758522755 L 1003.7735849056604 261.8529977259641 L 1030.9433962264152 255.9034169098486 L 1058.1132075471698 250.75804452425803 L 1085.2830188679245 242.7393837655303 L 1112.4528301886794 234.3225227159602 L 1139.622641509434 228.63060091156638 L 1166.7924528301887 225.2185709684661 L 1193.9622641509434 218.1212363728638 L 1221.132075471698 213.39748782463573 L 1248.301886792453 190.49706717677952 L 1275.4716981132076 181.5648881037663 L 1302.6415094339623 173.6789607753194 L 1329.8113207547171 165.4651037955905 L 1356.9811320754718 160.7023160031622 L 1384.1509433962265 157.18878402514133 L 1411.3207547169811 151.03619913918465 L 1438.4905660377358 143.56408779926028 L 1465.6603773584907 137.2084988434624 L 1492.8301886792453 131.65711831818942 L 1520.0 120.0" fill="none" stroke="#2ca02c" stroke-width="2" />
<circle cx="80.0" cy="920.0" r="4" fill="#d62728" />
<circle cx="107.16981132075472" cy="864.8922028869521" r="4" fill="#d62728" />
<circle cx="134.33962264150944" cy="785.1350269858775" r="4" fill="#d62728" />
<circle cx="161.50943396226415" cy="757.5342813363134" r="4" fill="#d62728" />
<circle cx="188.67924528301887" cy="737.9912356896771" r="4" fill="#d62728" />
<circle cx="215.8490566037736" cy="728.247040337299" r="4" fill="#d62728" />
<circle cx="243.0188679245283" cy="709.0631557373049" r="4" fill="#d62728" />
<circle cx="270.188679245283" cy="688.911097881145" r="4" fill="#d62728" />
<circle cx="297.35849056603774" cy="670.3596490371947" r="4" fill="#d62728" />
<circle cx="324.52830188679246" cy="654.8142219966621" r="4" fill="#d62728" />
<circle cx="351.6981132075472" cy="640.3775094914163" r="4" fill="#d62728" />
<circle cx="378.8679245283019" cy="631.2891734416022" r="4" fill="#d62728" />
<circle cx="406.0377358490566" cy="622.2867237290286" r="4" fill="#d62728" />
<circle cx="433.20754716981133" cy="609.411580991792" r="4" fill="#d62728" />
<circle cx="460.37735849056605" cy="590.3994690662789" r="4" fill="#d62728" />
<circle cx="487.54716981132077" cy="569.9429051053571" r="4" fill="#d62728" />
<circle cx="514.7169811320755" cy="556.7866798098789" r="4" fill="#d62728" />
<circle cx="541.8867924528302" cy="538.1181132333278" r="4" fill="#d62728" />
<circle cx="569.0566037735849" cy="530.3102643932814" r="4" fill="#d62728" />
<circle cx="596.2264150943397" cy="523.1973140999991" r="4" fill="#d62728" />
<circle cx="623.3962264150944" cy="507.9173539200281" r="4" fill="#d62728" />
<circle cx="650.566037735849" cy="493.6289905427431" r="4" fill="#d62728" />
<circle cx="677.7358490566038" cy="480.2151062355433" r="4" fill="#d62728" />
<circle cx="704.9056603773586" cy="461.64023384507277" r="4" fill="#d62728" />
<circle cx="732.0754716981132" cy="449.26479343359915" r="4" fill="#d62728" />
<circle cx="759.2452830188679" cy="441.3788661051522" r="4" fill="#d62728" />
<circle cx="786.4150943396227" cy="432.4779184274993" r="4" fill="#d62728" />
<circle cx="813.5849056603774" cy="421.0550355745113" r="4" fill="#d62728" />
<circle cx="840.7547169811321" cy="411.80273469905626" r="4" fill="#d62728" />
<circle cx="867.9245283018868" cy="403.39368149832626" r="4" fill="#d62728" />
<circle cx="895.0943396226415" cy="389.12093381872126" r="4" fill="#d62728" />
<circle cx="922.2641509433963" cy="377.45600765169183" r="4" fill="#d62728" />
<circle cx="949.433962264151" cy="359.74780648246656" r="4" fill="#d62728" />
<circle cx="976.6037735849056" cy="354.5555870038356" r="4" fill="#d62728" />
<circle cx="1003.7735849056604" cy="348.6372375830804" r="4" fill="#d62728" />
<circle cx="1030.9433962264152" cy="340.8450044407141" r="4" fill="#d62728" />
<circle cx="1058.1132075471698" cy="334.52845472911645" r="4" fill="#d62728" />
<circle cx="1085.2830188679245" cy="325.19807536526093" r="4" fill="#d62728" />
<circle cx="1112.4528301886794" cy="315.2664916407218" r="4" fill="#d62728" />
<circle cx="1139.622641509434" cy="310.5115116971335" r="4" fill="#d62728" />
<circle cx="1166.7924528301887" cy="305.3271000673427" r="4" fill="#d62728" />
<circle cx="1193.9622641509434" cy="296.76969773865176" r="4" fill="#d62728" />
<circle cx="1221.132075471698" cy="289.6411317476894" r="4" fill="#d62728" />
<circle cx="1248.301886792453" cy="265.9052712739482" r="4" fill="#d62728" />
<circle cx="1275.4716981132076" cy="256.7310488868935" r="4" fill="#d62728" />
<circle cx="1302.6415094339623" cy="246.97123783683548" r="4" fill="#d62728" />
<circle cx="1329.8113207547171" cy="240.03006021803424" r="4" fill="#d62728" />
<circle cx="1356.9811320754718" cy="232.95614916895215" r="4" fill="#d62728" />
<circle cx="1384.1509433962265" cy="228.50567533012565" r="4" fill="#d62728" />
<circle cx="1411.3207547169811" cy="220.3464732922771" r="4" fill="#d62728" />
<circle cx="1438.4905660377358" cy="219.87019451303422" r="4" fill="#d62728" />
<circle cx="1465.6603773584907" cy="219.87019451303422" r="4" fill="#d62728" />
<circle cx="1492.8301886792453" cy="219.87019451303422" r="4" fill="#d62728" />
<circle cx="1520.0" cy="219.87019451303422" r="4" fill="#d62728" />
<path d="M 80.0 920.0 L 107.16981132075472 864.8922028869521 L 134.33962264150944 785.1350269858775 L 161.50943396226415 757.5342813363134 L 188.67924528301887 737.9912356896771 L 215.8490566037736 728.247040337299 L 243.0188679245283 709.0631557373049 L 270.188679245283 688.911097881145 L 297.35849056603774 670.3596490371947 L 324.52830188679246 654.8142219966621 L 351.6981132075472 640.3775094914163 L 378.8679245283019 631.2891734416022 L 406.0377358490566 622.2867237290286 L 433.20754716981133 609.411580991792 L 460.37735849056605 590.3994690662789 L 487.54716981132077 569.9429051053571 L 514.7169811320755 556.7866798098789 L 541.8867924528302 538.1181132333278 L 569.0566037735849 530.3102643932814 L 596.2264150943397 523.1973140999991 L 623.3962264150944 507.9173539200281 L 650.566037735849 493.6289905427431 L 677.7358490566038 480.2151062355433 L 704.9056603773586 461.64023384507277 L 732.0754716981132 449.26479343359915 L 759.2452830188679 441.3788661051522 L 786.4150943396227 432.4779184274993 L 813.5849056603774 421.0550355745113 L 840.7547169811321 411.80273469905626 L 867.9245283018868 403.39368149832626 L 895.0943396226415 389.12093381872126 L 922.2641509433963 377.45600765169183 L 949.433962264151 359.74780648246656 L 976.6037735849056 354.5555870038356 L 1003.7735849056604 348.6372375830804 L 1030.9433962264152 340.8450044407141 L 1058.1132075471698 334.52845472911645 L 1085.2830188679245 325.19807536526093 L 1112.4528301886794 315.2664916407218 L 1139.622641509434 310.5115116971335 L 1166.7924528301887 305.3271000673427 L 1193.9622641509434 296.76969773865176 L 1221.132075471698 289.6411317476894 L 1248.301886792453 265.9052712739482 L 1275.4716981132076 256.7310488868935 L 1302.6415094339623 246.97123783683548 L 1329.8113207547171 240.03006021803424 L 1356.9811320754718 232.95614916895215 L 1384.1509433962265 228.50567533012565 L 1411.3207547169811 220.3464732922771 L 1438.4905660377358 219.87019451303422 L 1465.6603773584907 219.87019451303422 L 1492.8301886792453 219.87019451303422 L 1520.0 219.87019451303422" fill="none" stroke="#d62728" stroke-width="2" />
<circle cx="80.0" cy="920.0" r="4" fill="#9467bd" />
<circle cx="107.16981132075472" cy="870.7090502727867" r="4" fill="#9467bd" />
<circle cx="134.33962264150944" cy="790.6473682669504" r="4" fill="#9467bd" />
<circle cx="161.50943396226415" cy="758.1901406388772" r="4" fill="#9467bd" />
<circle cx="188.67924528301887" cy="738.5846322015205" r="4" fill="#9467bd" />
<circle cx="215.8490566037736" cy="729.8398415006685" r="4" fill="#9467bd" />
<circle cx="243.0188679245283" cy="710.4919920750334" r="4" fill="#9467bd" />
<circle cx="270.188679245283" cy="689.410800206908" r="4" fill="#9467bd" />
<circle cx="297.35849056603774" cy="670.3362254906745" r="4" fill="#9467bd" />
<circle cx="324.52830188679246" cy="654.6190257756609" r="4" fill="#9467bd" />
<circle cx="351.6981132075472" cy="640.346278096056" r="4" fill="#9467bd" />
<circle cx="378.8679245283019" cy="631.250134197402" r="4" fill="#9467bd" />
<circle cx="406.0377358490566" cy="622.185221694108" r="4" fill="#9467bd" />
<circle cx="433.20754716981133" cy="608.7166824450278" r="4" fill="#9467bd" />
<circle cx="460.37735849056605" cy="589.8451117986356" r="4" fill="#9467bd" />
<circle cx="487.54716981132077" cy="568.9903475468715" r="4" fill="#9467bd" />
<circle cx="514.7169811320755" cy="555.474961204751" r="4" fill="#9467bd" />
<circle cx="541.8867924528302" cy="539.2502513151346" r="4" fill="#9467bd" />
<circle cx="569.0566037735849" cy="531.4345946262481" r="4" fill="#9467bd" />
<circle cx="596.2264150943397" cy="524.2435658445652" r="4" fill="#9467bd" />
<circle cx="623.3962264150944" cy="508.737178048233" r="4" fill="#9467bd" />
<circle cx="650.566037735849" cy="494.00376728706533" r="4" fill="#9467bd" />
<circle cx="677.7358490566038" cy="480.6054986775456" r="4" fill="#9467bd" />
<circle cx="704.9056603773586" cy="461.9603556475147" r="4" fill="#9467bd" />
<circle cx="732.0754716981132" cy="449.40533471272" r="4" fill="#9467bd" />
<circle cx="759.2452830188679" cy="441.5428309307932" r="4" fill="#9467bd" />
<circle cx="786.4150943396227" cy="432.64188325314024" r="4" fill="#9467bd" />
<circle cx="813.5849056603774" cy="421.2033847024722" r="4" fill="#9467bd" />
<circle cx="840.7547169811321" cy="411.6465777222553" r="4" fill="#9467bd" />
<circle cx="867.9245283018868" cy="403.2375245215253" r="4" fill="#9467bd" />
<circle cx="895.0943396226415" cy="389.1599730629215" r="4" fill="#9467bd" />
<circle cx="922.2641509433963" cy="377.76051375645363" r="4" fill="#9467bd" />
<circle cx="949.433962264151" cy="359.95081055230776" r="4" fill="#9467bd" />
<circle cx="976.6037735849056" cy="354.7117439806366" r="4" fill="#9467bd" />
<circle cx="1003.7735849056604" cy="349.0354378739228" r="4" fill="#9467bd" />
<circle cx="1030.9433962264152" cy="341.21978118503625" r="4" fill="#9467bd" />
<circle cx="1058.1132075471698" cy="334.8798079269186" r="4" fill="#9467bd" />
<circle cx="1085.2830188679245" cy="325.4791579235026" r="4" fill="#9467bd" />
<circle cx="1112.4528301886794" cy="314.96198553596" r="4" fill="#9467bd" />
<circle cx="1139.622641509434" cy="310.1835820458516" r="4" fill="#9467bd" />
<circle cx="1166.7924528301887" cy="304.9991704160608" r="4" fill="#9467bd" />
<circle cx="1193.9622641509434" cy="296.43396023852983" r="4" fill="#9467bd" />
<circle cx="1221.132075471698" cy="289.2195079103269" r="4" fill="#9467bd" />
<circle cx="1248.301886792453" cy="265.47583958774555" r="4" fill="#9467bd" />
<circle cx="1275.4716981132076" cy="256.25477010765076" r="4" fill="#9467bd" />
<circle cx="1302.6415094339623" cy="246.50276690643273" r="4" fill="#9467bd" />
<circle cx="1329.8113207547171" cy="239.56158928763136" r="4" fill="#9467bd" />
<circle cx="1356.9811320754718" cy="232.42521544782892" r="4" fill="#9467bd" />
<circle cx="1384.1509433962265" cy="227.99035730668254" r="4" fill="#9467bd" />
<circle cx="1411.3207547169811" cy="219.4485706756717" r="4" fill="#9467bd" />
<circle cx="1438.4905660377358" cy="210.2275011955769" r="4" fill="#9467bd" />
<circle cx="1465.6603773584907" cy="203.50494334429686" r="4" fill="#9467bd" />
<circle cx="1492.8301886792453" cy="196.18118113233334" r="4" fill="#9467bd" />
<circle cx="1520.0" cy="189.40396833917293" r="4" fill="#9467bd" />
<path d="M 80.0 920.0 L 107.16981132075472 870.7090502727867 L 134.33962264150944 790.6473682669504 L 161.50943396226415 758.1901406388772 L 188.67924528301887 738.5846322015205 L 215.8490566037736 729.8398415006685 L 243.0188679245283 710.4919920750334 L 270.188679245283 689.410800206908 L 297.35849056603774 670.3362254906745 L 324.52830188679246 654.6190257756609 L 351.6981132075472 640.346278096056 L 378.8679245283019 631.250134197402 L 406.0377358490566 622.185221694108 L 433.20754716981133 608.7166824450278 L 460.37735849056605 589.8451117986356 L 487.54716981132077 568.9903475468715 L 514.7169811320755 555.474961204751 L 541.8867924528302 539.2502513151346 L 569.0566037735849 531.4345946262481 L 596.2264150943397 524.2435658445652 L 623.3962264150944 508.737178048233 L 650.566037735849 494.00376728706533 L 677.7358490566038 480.6054986775456 L 704.9056603773586 461.9603556475147 L 732.0754716981132 449.40533471272 L 759.2452830188679 441.5428309307932 L 786.4150943396227 432.64188325314024 L 813.5849056603774 421.2033847024722 L 840.7547169811321 411.6465777222553 L 867.9245283018868 403.2375245215253 L 895.0943396226415 389.1599730629215 L 922.2641509433963 377.76051375645363 L 949.433962264151 359.95081055230776 L 976.6037735849056 354.7117439806366 L 1003.7735849056604 349.0354378739228 L 1030.9433962264152 341.21978118503625 L 1058.1132075471698 334.8798079269186 L 1085.2830188679245 325.4791579235026 L 1112.4528301886794 314.96198553596 L 1139.622641509434 310.1835820458516 L 1166.7924528301887 304.9991704160608 L 1193.9622641509434 296.43396023852983 L 1221.132075471698 289.2195079103269 L 1248.301886792453 265.47583958774555 L 1275.4716981132076 256.25477010765076 L 1302.6415094339623 246.50276690643273 L 1329.8113207547171 239.56158928763136 L 1356.9811320754718 232.42521544782892 L 1384.1509433962265 227.99035730668254 L 1411.3207547169811 219.4485706756717 L 1438.4905660377358 210.2275011955769 L 1465.6603773584907 203.50494334429686 L 1492.8301886792453 196.18118113233334 L 1520.0 189.40396833917293" fill="none" stroke="#9467bd" stroke-width="2" />
<circle cx="80.0" cy="920.0" r="4" fill="#66ffbd" />
<circle cx="107.16981132075472" cy="674.1386478757771" r="4" fill="#66ffbd" />
<circle cx="134.33962264150944" cy="697.1327627097139" r="4" fill="#66ffbd" />
<circle cx="161.50943396226415" cy="711.2103141683177" r="4" fill="#66ffbd" />
<circle cx="188.67924528301887" cy="721.7509101023804" r="4" fill="#66ffbd" />
<circle cx="215.8490566037736" cy="724.4133865568363" r="4" fill="#66ffbd" />
<circle cx="243.0188679245283" cy="731.3233327802774" r="4" fill="#66ffbd" />
<circle cx="270.188679245283" cy="736.4218580728277" r="4" fill="#66ffbd" />
<circle cx="297.35849056603774" cy="743.0897609822274" r="4" fill="#66ffbd" />
<circle cx="324.52830188679246" cy="748.3756746469388" r="4" fill="#66ffbd" />
<circle cx="351.6981132075472" cy="752.107826392481" r="4" fill="#66ffbd" />
<circle cx="378.8679245283019" cy="755.6525897658621" r="4" fill="#66ffbd" />
<circle cx="406.0377358490566" cy="757.6748226154342" r="4" fill="#66ffbd" />
<circle cx="433.20754716981133" cy="763.2964737802677" r="4" fill="#66ffbd" />
<circle cx="460.37735849056605" cy="772.1349586672002" r="4" fill="#66ffbd" />
<circle cx="487.54716981132077" cy="779.0136734952812" r="4" fill="#66ffbd" />
<circle cx="514.7169811320755" cy="783.7296141946692" r="4" fill="#66ffbd" />
<circle cx="541.8867924528302" cy="791.2329569299538" r="4" fill="#66ffbd" />
<circle cx="569.0566037735849" cy="792.091820302359" r="4" fill="#66ffbd" />
<circle cx="596.2264150943397" cy="793.762699954129" r="4" fill="#66ffbd" />
<circle cx="623.3962264150944" cy="796.7374903621866" r="4" fill="#66ffbd" />
<circle cx="650.566037735849" cy="801.7345136198163" r="4" fill="#66ffbd" />
<circle cx="677.7358490566038" cy="803.1008871668245" r="4" fill="#66ffbd" />
<circle cx="704.9056603773586" cy="805.8180185631606" r="4" fill="#66ffbd" />
<circle cx="732.0754716981132" cy="808.7147304828179" r="4" fill="#66ffbd" />
<circle cx="759.2452830188679" cy="804.7561511209143" r="4" fill="#66ffbd" />
<circle cx="786.4150943396227" cy="810.7135397858698" r="4" fill="#66ffbd" />
<circle cx="813.5849056603774" cy="812.1189525770781" r="4" fill="#66ffbd" />
<circle cx="840.7547169811321" cy="815.3514019968574" r="4" fill="#66ffbd" />
<circle cx="867.9245283018868" cy="817.3970583929495" r="4" fill="#66ffbd" />
<circle cx="895.0943396226415" cy="820.0439191497253" r="4" fill="#66ffbd" />
<circle cx="922.2641509433963" cy="821.0355159524112" r="4" fill="#66ffbd" />
<circle cx="949.433962264151" cy="827.3598735128488" r="4" fill="#66ffbd" />
<circle cx="976.6037735849056" cy="828.2655839782942" r="4" fill="#66ffbd" />
<circle cx="1003.7735849056604" cy="829.8193458974634" r="4" fill="#66ffbd" />
<circle cx="1030.9433962264152" cy="831.7166531655947" r="4" fill="#66ffbd" />
<circle cx="1058.1132075471698" cy="832.8800226427617" r="4" fill="#66ffbd" />
<circle cx="1085.2830188679245" cy="834.2385883409297" r="4" fill="#66ffbd" />
<circle cx="1112.4528301886794" cy="836.3388996789022" r="4" fill="#66ffbd" />
<circle cx="1139.622641509434" cy="835.4253813646168" r="4" fill="#66ffbd" />
<circle cx="1166.7924528301887" cy="837.1977630513073" r="4" fill="#66ffbd" />
<circle cx="1193.9622641509434" cy="838.6812543309162" r="4" fill="#66ffbd" />
<circle cx="1221.132075471698" cy="841.1563424132108" r="4" fill="#66ffbd" />
<circle cx="1248.301886792453" cy="842.0620528786562" r="4" fill="#66ffbd" />
<circle cx="1275.4716981132076" cy="842.3275197392179" r="4" fill="#66ffbd" />
<circle cx="1302.6415094339623" cy="844.2014034608289" r="4" fill="#66ffbd" />
<circle cx="1329.8113207547171" cy="842.9209162510614" r="4" fill="#66ffbd" />
<circle cx="1356.9811320754718" cy="845.2320395077152" r="4" fill="#66ffbd" />
<circle cx="1384.1509433962265" cy="846.1767892173607" r="4" fill="#66ffbd" />
<circle cx="1411.3207547169811" cy="848.5425674158948" r="4" fill="#66ffbd" />
<circle cx="1438.4905660377358" cy="841.5545427040532" r="4" fill="#66ffbd" />
<circle cx="1465.6603773584907" cy="835.2301851436156" r="4" fill="#66ffbd" />
<circle cx="1492.8301886792453" cy="830.5688993861079" r="4" fill="#66ffbd" />
<circle cx="1520.0" cy="819.1225929865998" r="4" fill="#66ffbd" />
<path d="M 80.0 920.0 L 107.16981132075472 674.1386478757771 L 134.33962264150944 697.1327627097139 L 161.50943396226415 711.2103141683177 L 188.67924528301887 721.7509101023804 L 215.8490566037736 724.4133865568363 L 243.0188679245283 731.3233327802774 L 270.188679245283 736.4218580728277 L 297.35849056603774 743.0897609822274 L 324.52830188679246 748.3756746469388 L 351.6981132075472 752.107826392481 L 378.8679245283019 755.6525897658621 L 406.0377358490566 757.6748226154342 L 433.20754716981133 763.2964737802677 L 460.37735849056605 772.1349586672002 L 487.54716981132077 779.0136734952812 L 514.7169811320755 783.7296141946692 L 541.8867924528302 791.2329569299538 L 569.0566037735849 792.091820302359 L 596.2264150943397 793.762699954129 L 623.3962264150944 796.7374903621866 L 650.566037735849 801.7345136198163 L 677.7358490566038 803.1008871668245 L 704.9056603773586 805.8180185631606 L 732.0754716981132 808.7147304828179 L 759.2452830188679 804.7561511209143 L 786.4150943396227 810.7135397858698 L 813.5849056603774 812.1189525770781 L 840.7547169811321 815.3514019968574 L 867.9245283018868 817.3970583929495 L 895.0943396226415 820.0439191497253 L 922.2641509433963 821.0355159524112 L 949.433962264151 827.3598735128488 L 976.6037735849056 828.2655839782942 L 1003.7735849056604 829.8193458974634 L 1030.9433962264152 831.7166531655947 L 1058.1132075471698 832.8800226427617 L 1085.2830188679245 834.2385883409297 L 1112.4528301886794 836.3388996789022 L 1139.622641509434 835.4253813646168 L 1166.7924528301887 837.1977630513073 L 1193.9622641509434 838.6812543309162 L 1221.132075471698 841.1563424132108 L 1248.301886792453 842.0620528786562 L 1275.4716981132076 842.3275197392179 L 1302.6415094339623 844.2014034608289 L 1329.8113207547171 842.9209162510614 L 1356.9811320754718 845.2320395077152 L 1384.1509433962265 846.1767892173607 L 1411.3207547169811 848.5425674158948 L 1438.4905660377358 841.5545427040532 L 1465.6603773584907 835.2301851436156 L 1492.8301886792453 830.5688993861079 L 1520.0 819.1225929865998" fill="none" stroke="#66ffbd" stroke-width="2" />
<text x="80.0" y="940" text-anchor="middle">08-06</text>
<text x="107.16981132075472" y="940" text-anchor="middle">08-07</text>
<text x="134.33962264150944" y="940" text-anchor="middle">08-08</text>
<text x="161.50943396226415" y="940" text-anchor="middle">08-09</text>
<text x="188.67924528301887" y="940" text-anchor="middle">08-10</text>
<text x="215.8490566037736" y="940" text-anchor="middle">08-11</text>
<text x="243.0188679245283" y="940" text-anchor="middle">08-12</text>
<text x="270.188679245283" y="940" text-anchor="middle">08-13</text>
<text x="297.35849056603774" y="940" text-anchor="middle">08-14</text>
<text x="324.52830188679246" y="940" text-anchor="middle">08-15</text>
<text x="351.6981132075472" y="940" text-anchor="middle">08-16</text>
<text x="378.8679245283019" y="940" text-anchor="middle">08-17</text>
<text x="406.0377358490566" y="940" text-anchor="middle">08-18</text>
<text x="433.20754716981133" y="940" text-anchor="middle">08-19</text>
<text x="460.37735849056605" y="940" text-anchor="middle">08-20</text>
<text x="487.54716981132077" y="940" text-anchor="middle">08-21</text>
<text x="514.7169811320755" y="940" text-anchor="middle">08-22</text>
<text x="541.8867924528302" y="940" text-anchor="middle">08-23</text>
<text x="569.0566037735849" y="940" text-anchor="middle">08-24</text>
<text x="596.2264150943397" y="940" text-anchor="middle">08-25</text>
<text x="623.3962264150944" y="940" text-anchor="middle">08-26</text>
<text x="650.566037735849" y="940" text-anchor="middle">08-27</text>
<text x="677.7358490566038" y="940" text-anchor="middle">08-28</text>
<text x="704.9056603773586" y="940" text-anchor="middle">08-29</text>
<text x="732.0754716981132" y="940" text-anchor="middle">08-30</text>
<text x="759.2452830188679" y="940" text-anchor="middle">08-31</text>
<text x="786.4150943396227" y="940" text-anchor="middle">09-01</text>
<text x="813.5849056603774" y="940" text-anchor="middle">09-02</text>
<text x="840.7547169811321" y="940" text-anchor="middle">09-03</text>
<text x="867.9245283018868" y="940" text-anchor="middle">09-04</text>
<text x="895.0943396226415" y="940" text-anchor="middle">09-05</text>
<text x="922.2641509433963" y="940" text-anchor="middle">09-06</text>
<text x="949.433962264151" y="940" text-anchor="middle">09-07</text>
<text x="976.6037735849056" y="940" text-anchor="middle">09-08</text>
<text x="1003.7735849056604" y="940" text-anchor="middle">09-09</text>
<text x="1030.9433962264152" y="940" text-anchor="middle">09-10</text>
<text x="1058.1132075471698" y="940" text-anchor="middle">09-11</text>
<text x="1085.2830188679245" y="940" text-anchor="middle">09-12</text>
<text x="1112.4528301886794" y="940" text-anchor="middle">09-13</text>
<text x="1139.622641509434" y="940" text-anchor="middle">09-14</text>
<text x="1166.7924528301887" y="940" text-anchor="middle">09-15</text>
<text x="1193.9622641509434" y="940" text-anchor="middle">09-16</text>
<text x="1221.132075471698" y="940" text-anchor="middle">09-17</text>
<text x="1248.301886792453" y="940" text-anchor="middle">09-18</text>
<text x="1275.4716981132076" y="940" text-anchor="middle">09-19</text>
<text x="1302.6415094339623" y="940" text-anchor="middle">09-20</text>
<text x="1329.8113207547171" y="940" text-anchor="middle">09-21</text>
<text x="1356.9811320754718" y="940" text-anchor="middle">09-22</text>
<text x="1384.1509433962265" y="940" text-anchor="middle">09-23</text>
<text x="1411.3207547169811" y="940" text-anchor="middle">09-24</text>
<text x="1438.4905660377358" y="940" text-anchor="middle">09-25</text>
<text x="1465.6603773584907" y="940" text-anchor="middle">09-26</text>
<text x="1492.8301886792453" y="940" text-anchor="middle">09-27</text>
<text x="1520.0" y="940" text-anchor="middle">09-28</text>
<rect x="90" y="100" width="130" height="185" class="legend-box" />
<text x="100" y="120" class="legend-item">图例:</text>
<rect x="100" y="137" width="15" height="15" fill="#1f77b4" rx="3" />
<text x="120" y="145" class="legend-item">构件聚合数据</text>
<rect x="100" y="162" width="15" height="15" fill="#ff7f0e" rx="3" />
<text x="120" y="170" class="legend-item">构件基本信息</text>
<rect x="100" y="187" width="15" height="15" fill="#2ca02c" rx="3" />
<text x="120" y="195" class="legend-item">构件徽标</text>
<rect x="100" y="212" width="15" height="15" fill="#d62728" rx="3" />
<text x="120" y="220" class="legend-item">构件扩展元数据</text>
<rect x="100" y="237" width="15" height="15" fill="#9467bd" rx="3" />
<text x="120" y="245" class="legend-item">构件版本信息</text>
<rect x="100" y="262" width="15" height="15" fill="#66ffbd" rx="3" />
<text x="120" y="270" class="legend-item">数据量偏差</text>
<text x="1520" y="990" text-anchor="end" font-size="10" fill="#666">生成时间: 2025-09-28 05:26:10</text>
</svg>