<svg xmlns="http://www.w3.org/2000/svg" width="1600" height="1000" viewBox="0 0 1600 1000">
<style>
  text {
    font-family: Arial, sans-serif;
    font-size: 12px;
    fill: #333;
  }
  .axis-label { font-size: 14px; }
  .title { font-size: 18px; font-weight: bold; }
  .legend-item { font-size: 11px; }
  .legend-box { fill: white; fill-opacity: 0.85; stroke: #cccccc; stroke-width: 1; rx: 5; }
</style>
<text x="800.0" y="30" text-anchor="middle" class="title">Daily Data Growth Trend</text>
<text x="800.0" y="980" text-anchor="middle" class="axis-label">Date</text>
<g transform="rotate(-90)">
<text x="-500.0" y="20" text-anchor="middle" class="axis-label">Count</text>
</g>
<rect x="0" y="0" width="1600" height="1000" fill="#f8f8f8" />
<line x1="80" y1="920.0" x2="1520" y2="920.0" stroke="#e0e0e0" stroke-width="1" />
<text x="70" y="925.0" text-anchor="end">4.6k</text>
<line x1="80" y1="752.0" x2="1520" y2="752.0" stroke="#e0e0e0" stroke-width="1" />
<text x="70" y="757.0" text-anchor="end">16.7k</text>
<line x1="80" y1="584.0" x2="1520" y2="584.0" stroke="#e0e0e0" stroke-width="1" />
<text x="70" y="589.0" text-anchor="end">28.8k</text>
<line x1="80" y1="416.0" x2="1520" y2="416.0" stroke="#e0e0e0" stroke-width="1" />
<text x="70" y="421.0" text-anchor="end">40.9k</text>
<line x1="80" y1="248.0" x2="1520" y2="248.0" stroke="#e0e0e0" stroke-width="1" />
<text x="70" y="253.0" text-anchor="end">53.0k</text>
<line x1="80" y1="80.0" x2="1520" y2="80.0" stroke="#e0e0e0" stroke-width="1" />
<text x="70" y="85.0" text-anchor="end">65.1k</text>
<line x1="80" y1="80" x2="80" y2="920" stroke="#333333" stroke-width="2" />
<line x1="80" y1="920" x2="1520" y2="920" stroke="#333333" stroke-width="2" />
<circle cx="80.0" cy="916.6054685594621" r="4" fill="#1f77b4" />
<circle cx="182.85714285714286" cy="772.726781192309" r="4" fill="#1f77b4" />
<circle cx="285.7142857142857" cy="714.8502979160346" r="4" fill="#1f77b4" />
<circle cx="388.57142857142856" cy="680.0160718404654" r="4" fill="#1f77b4" />
<circle cx="491.42857142857144" cy="662.5295125784473" r="4" fill="#1f77b4" />
<circle cx="594.2857142857143" cy="627.6952865028784" r="4" fill="#1f77b4" />
<circle cx="697.1428571428571" cy="590.0971007028123" r="4" fill="#1f77b4" />
<circle cx="800.0" cy="555.4434348102507" r="4" fill="#1f77b4" />
<circle cx="902.8571428571429" cy="527.192710792026" r="4" fill="#1f77b4" />
<circle cx="1005.7142857142858" cy="501.4281616013638" r="4" fill="#1f77b4" />
<circle cx="1108.5714285714287" cy="485.2333021100905" r="4" fill="#1f77b4" />
<circle cx="1211.4285714285716" cy="469.2051135569778" r="4" fill="#1f77b4" />
<circle cx="1314.2857142857142" cy="445.1072737479218" r="4" fill="#1f77b4" />
<circle cx="1417.142857142857" cy="410.8841744456083" r="4" fill="#1f77b4" />
<circle cx="1520.0" cy="373.8693369291045" r="4" fill="#1f77b4" />
<path d="M 80.0 916.6054685594621 L 182.85714285714286 772.726781192309 L 285.7142857142857 714.8502979160346 L 388.57142857142856 680.0160718404654 L 491.42857142857144 662.5295125784473 L 594.2857142857143 627.6952865028784 L 697.1428571428571 590.0971007028123 L 800.0 555.4434348102507 L 902.8571428571429 527.192710792026 L 1005.7142857142858 501.4281616013638 L 1108.5714285714287 485.2333021100905 L 1211.4285714285716 469.2051135569778 L 1314.2857142857142 445.1072737479218 L 1417.142857142857 410.8841744456083 L 1520.0 373.8693369291045" fill="none" stroke="#1f77b4" stroke-width="2" />
<circle cx="80.0" cy="488.9833982187044" r="4" fill="#ff7f0e" />
<circle cx="182.85714285714286" cy="385.6057488245814" r="4" fill="#ff7f0e" />
<circle cx="285.7142857142857" cy="352.45212137546514" r="4" fill="#ff7f0e" />
<circle cx="388.57142857142856" cy="336.1183694357246" r="4" fill="#ff7f0e" />
<circle cx="491.42857142857144" cy="323.340264176744" r="4" fill="#ff7f0e" />
<circle cx="594.2857142857143" cy="300.5619026281263" r="4" fill="#ff7f0e" />
<circle cx="697.1428571428571" cy="271.65838410210586" r="4" fill="#ff7f0e" />
<circle cx="800.0" cy="248.6022376565537" r="4" fill="#ff7f0e" />
<circle cx="902.8571428571429" cy="229.60175070624337" r="4" fill="#ff7f0e" />
<circle cx="1005.7142857142858" cy="210.37903583838545" r="4" fill="#ff7f0e" />
<circle cx="1108.5714285714287" cy="200.33711181420824" r="4" fill="#ff7f0e" />
<circle cx="1211.4285714285716" cy="187.90623767639556" r="4" fill="#ff7f0e" />
<circle cx="1314.2857142857142" cy="173.7669864224365" r="4" fill="#ff7f0e" />
<circle cx="1417.142857142857" cy="154.84983494120638" r="4" fill="#ff7f0e" />
<circle cx="1520.0" cy="129.52974158563927" r="4" fill="#ff7f0e" />
<path d="M 80.0 488.9833982187044 L 182.85714285714286 385.6057488245814 L 285.7142857142857 352.45212137546514 L 388.57142857142856 336.1183694357246 L 491.42857142857144 323.340264176744 L 594.2857142857143 300.5619026281263 L 697.1428571428571 271.65838410210586 L 800.0 248.6022376565537 L 902.8571428571429 229.60175070624337 L 1005.7142857142858 210.37903583838545 L 1108.5714285714287 200.33711181420824 L 1211.4285714285716 187.90623767639556 L 1314.2857142857142 173.7669864224365 L 1417.142857142857 154.84983494120638 L 1520.0 129.52974158563927" fill="none" stroke="#ff7f0e" stroke-width="2" />
<circle cx="80.0" cy="479.247037581155" r="4" fill="#2ca02c" />
<circle cx="182.85714285714286" cy="376.27217628758683" r="4" fill="#2ca02c" />
<circle cx="285.7142857142857" cy="343.4380014699451" r="4" fill="#2ca02c" />
<circle cx="388.57142857142856" cy="327.3542559374455" r="4" fill="#2ca02c" />
<circle cx="491.42857142857144" cy="314.6039291681583" r="4" fill="#2ca02c" />
<circle cx="594.2857142857143" cy="292.0616847819348" r="4" fill="#2ca02c" />
<circle cx="697.1428571428571" cy="263.53317586677576" r="4" fill="#2ca02c" />
<circle cx="800.0" cy="240.74092507331125" r="4" fill="#2ca02c" />
<circle cx="902.8571428571429" cy="221.89321981631474" r="4" fill="#2ca02c" />
<circle cx="1005.7142857142858" cy="202.76772966238389" r="4" fill="#2ca02c" />
<circle cx="1108.5714285714287" cy="192.87858733152063" r="4" fill="#2ca02c" />
<circle cx="1211.4285714285716" cy="180.44771319370784" r="4" fill="#2ca02c" />
<circle cx="1314.2857142857142" cy="166.35012967428895" r="4" fill="#2ca02c" />
<circle cx="1417.142857142857" cy="147.8496555384604" r="4" fill="#2ca02c" />
<circle cx="1520.0" cy="123.07124273191528" r="4" fill="#2ca02c" />
<path d="M 80.0 479.247037581155 L 182.85714285714286 376.27217628758683 L 285.7142857142857 343.4380014699451 L 388.57142857142856 327.3542559374455 L 491.42857142857144 314.6039291681583 L 594.2857142857143 292.0616847819348 L 697.1428571428571 263.53317586677576 L 800.0 240.74092507331125 L 902.8571428571429 221.89321981631474 L 1005.7142857142858 202.76772966238389 L 1108.5714285714287 192.87858733152063 L 1211.4285714285716 180.44771319370784 L 1314.2857142857142 166.35012967428895 L 1417.142857142857 147.8496555384604 L 1520.0 123.07124273191528" fill="none" stroke="#2ca02c" stroke-width="2" />
<circle cx="80.0" cy="886.4658072420838" r="4" fill="#d62728" />
<circle cx="182.85714285714286" cy="744.5871711328581" r="4" fill="#d62728" />
<circle cx="285.7142857142857" cy="695.4886905997095" r="4" fill="#d62728" />
<circle cx="388.57142857142856" cy="660.723910748374" r="4" fill="#d62728" />
<circle cx="491.42857142857144" cy="643.3901331796698" r="4" fill="#d62728" />
<circle cx="594.2857142857143" cy="609.2642585912834" r="4" fill="#d62728" />
<circle cx="697.1428571428571" cy="573.4161176419038" r="4" fill="#d62728" />
<circle cx="800.0" cy="540.4152718861017" r="4" fill="#d62728" />
<circle cx="902.8571428571429" cy="512.7617853962859" r="4" fill="#d62728" />
<circle cx="1005.7142857142858" cy="487.080571674704" r="4" fill="#d62728" />
<circle cx="1108.5714285714287" cy="470.9134906731241" r="4" fill="#d62728" />
<circle cx="1211.4285714285716" cy="454.8991913648581" r="4" fill="#d62728" />
<circle cx="1314.2857142857142" cy="431.9958266126199" r="4" fill="#d62728" />
<circle cx="1417.142857142857" cy="398.1755154108613" r="4" fill="#d62728" />
<circle cx="1520.0" cy="361.7856939124598" r="4" fill="#d62728" />
<path d="M 80.0 886.4658072420838 L 182.85714285714286 744.5871711328581 L 285.7142857142857 695.4886905997095 L 388.57142857142856 660.723910748374 L 491.42857142857144 643.3901331796698 L 594.2857142857143 609.2642585912834 L 697.1428571428571 573.4161176419038 L 800.0 540.4152718861017 L 902.8571428571429 512.7617853962859 L 1005.7142857142858 487.080571674704 L 1108.5714285714287 470.9134906731241 L 1211.4285714285716 454.8991913648581 L 1314.2857142857142 431.9958266126199 L 1417.142857142857 398.1755154108613 L 1520.0 361.7856939124598" fill="none" stroke="#d62728" stroke-width="2" />
<circle cx="80.0" cy="896.8132946528888" r="4" fill="#9467bd" />
<circle cx="182.85714285714286" cy="754.3929779946411" r="4" fill="#9467bd" />
<circle cx="285.7142857142857" cy="696.6553871668339" r="4" fill="#9467bd" />
<circle cx="388.57142857142856" cy="661.7794933567245" r="4" fill="#9467bd" />
<circle cx="491.42857142857144" cy="646.2235391284003" r="4" fill="#9467bd" />
<circle cx="594.2857142857143" cy="611.8059903982328" r="4" fill="#9467bd" />
<circle cx="697.1428571428571" cy="574.3050293120939" r="4" fill="#9467bd" />
<circle cx="800.0" cy="540.3736041515615" r="4" fill="#9467bd" />
<circle cx="902.8571428571429" cy="512.4145542751178" r="4" fill="#9467bd" />
<circle cx="1005.7142857142858" cy="487.0250146953171" r="4" fill="#9467bd" />
<circle cx="1108.5714285714287" cy="470.8440444488905" r="4" fill="#9467bd" />
<circle cx="1211.4285714285716" cy="454.71863118185075" r="4" fill="#9467bd" />
<circle cx="1314.2857142857142" cy="430.759683821262" r="4" fill="#9467bd" />
<circle cx="1417.142857142857" cy="397.1893790267443" r="4" fill="#9467bd" />
<circle cx="1520.0" cy="360.09120604116015" r="4" fill="#9467bd" />
<path d="M 80.0 896.8132946528888 L 182.85714285714286 754.3929779946411 L 285.7142857142857 696.6553871668339 L 388.57142857142856 661.7794933567245 L 491.42857142857144 646.2235391284003 L 594.2857142857143 611.8059903982328 L 697.1428571428571 574.3050293120939 L 800.0 540.3736041515615 L 902.8571428571429 512.4145542751178 L 1005.7142857142858 487.0250146953171 L 1108.5714285714287 470.8440444488905 L 1211.4285714285716 454.71863118185075 L 1314.2857142857142 430.759683821262 L 1417.142857142857 397.1893790267443 L 1520.0 360.09120604116015" fill="none" stroke="#9467bd" stroke-width="2" />
<circle cx="80.0" cy="547.1376663919132" r="4" fill="#66ffbd" />
<circle cx="182.85714285714286" cy="588.0414924654981" r="4" fill="#66ffbd" />
<circle cx="285.7142857142857" cy="613.0838009241309" r="4" fill="#66ffbd" />
<circle cx="388.57142857142856" cy="631.8342814672003" r="4" fill="#66ffbd" />
<circle cx="491.42857142857144" cy="636.5705139599312" r="4" fill="#66ffbd" />
<circle cx="594.2857142857143" cy="648.8624956492768" r="4" fill="#66ffbd" />
<circle cx="697.1428571428571" cy="657.9321725341837" r="4" fill="#66ffbd" />
<circle cx="800.0" cy="669.7935876332809" r="4" fill="#66ffbd" />
<circle cx="902.8571428571429" cy="679.1966063945091" r="4" fill="#66ffbd" />
<circle cx="1005.7142857142858" cy="685.8356654312404" r="4" fill="#66ffbd" />
<circle cx="1108.5714285714287" cy="692.1413825916504" r="4" fill="#66ffbd" />
<circle cx="1211.4285714285716" cy="695.7386970069504" r="4" fill="#66ffbd" />
<circle cx="1314.2857142857142" cy="705.7389532965874" r="4" fill="#66ffbd" />
<circle cx="1417.142857142857" cy="721.4615784630723" r="4" fill="#66ffbd" />
<circle cx="1520.0" cy="733.698003173031" r="4" fill="#66ffbd" />
<path d="M 80.0 547.1376663919132 L 182.85714285714286 588.0414924654981 L 285.7142857142857 613.0838009241309 L 388.57142857142856 631.8342814672003 L 491.42857142857144 636.5705139599312 L 594.2857142857143 648.8624956492768 L 697.1428571428571 657.9321725341837 L 800.0 669.7935876332809 L 902.8571428571429 679.1966063945091 L 1005.7142857142858 685.8356654312404 L 1108.5714285714287 692.1413825916504 L 1211.4285714285716 695.7386970069504 L 1314.2857142857142 705.7389532965874 L 1417.142857142857 721.4615784630723 L 1520.0 733.698003173031" fill="none" stroke="#66ffbd" stroke-width="2" />
<text x="80.0" y="940" text-anchor="middle">08-07</text>
<text x="182.85714285714286" y="940" text-anchor="middle">08-08</text>
<text x="285.7142857142857" y="940" text-anchor="middle">08-09</text>
<text x="388.57142857142856" y="940" text-anchor="middle">08-10</text>
<text x="491.42857142857144" y="940" text-anchor="middle">08-11</text>
<text x="594.2857142857143" y="940" text-anchor="middle">08-12</text>
<text x="697.1428571428571" y="940" text-anchor="middle">08-13</text>
<text x="800.0" y="940" text-anchor="middle">08-14</text>
<text x="902.8571428571429" y="940" text-anchor="middle">08-15</text>
<text x="1005.7142857142858" y="940" text-anchor="middle">08-16</text>
<text x="1108.5714285714287" y="940" text-anchor="middle">08-17</text>
<text x="1211.4285714285716" y="940" text-anchor="middle">08-18</text>
<text x="1314.2857142857142" y="940" text-anchor="middle">08-19</text>
<text x="1417.142857142857" y="940" text-anchor="middle">08-20</text>
<text x="1520.0" y="940" text-anchor="middle">08-21</text>
<rect x="90" y="100" width="130" height="185" class="legend-box" />
<text x="100" y="120" class="legend-item">图例:</text>
<rect x="100" y="137" width="15" height="15" fill="#1f77b4" rx="3" />
<text x="120" y="145" class="legend-item">构件聚合数据</text>
<rect x="100" y="162" width="15" height="15" fill="#ff7f0e" rx="3" />
<text x="120" y="170" class="legend-item">构件基本信息</text>
<rect x="100" y="187" width="15" height="15" fill="#2ca02c" rx="3" />
<text x="120" y="195" class="legend-item">构件徽标</text>
<rect x="100" y="212" width="15" height="15" fill="#d62728" rx="3" />
<text x="120" y="220" class="legend-item">构件扩展元数据</text>
<rect x="100" y="237" width="15" height="15" fill="#9467bd" rx="3" />
<text x="120" y="245" class="legend-item">构件版本信息</text>
<rect x="100" y="262" width="15" height="15" fill="#66ffbd" rx="3" />
<text x="120" y="270" class="legend-item">数据量偏差</text>
<text x="1520" y="990" text-anchor="end" font-size="10" fill="#666">生成时间: 2025-08-21 00:42:30</text>
</svg>