<svg xmlns="http://www.w3.org/2000/svg" width="1600" height="1000" viewBox="0 0 1600 1000">
<style>
  text {
    font-family: Arial, sans-serif;
    font-size: 12px;
    fill: #333;
  }
  .axis-label { font-size: 14px; }
  .title { font-size: 18px; font-weight: bold; }
  .legend-item { font-size: 11px; }
  .legend-box { fill: white; fill-opacity: 0.85; stroke: #cccccc; stroke-width: 1; rx: 5; }
</style>
<text x="800.0" y="30" text-anchor="middle" class="title">Daily Data Growth Trend</text>
<text x="800.0" y="980" text-anchor="middle" class="axis-label">Date</text>
<g transform="rotate(-90)">
<text x="-500.0" y="20" text-anchor="middle" class="axis-label">Count</text>
</g>
<rect x="0" y="0" width="1600" height="1000" fill="#f8f8f8" />
<line x1="80" y1="920.0" x2="1520" y2="920.0" stroke="#e0e0e0" stroke-width="1" />
<text x="70" y="925.0" text-anchor="end">0</text>
<line x1="80" y1="752.0" x2="1520" y2="752.0" stroke="#e0e0e0" stroke-width="1" />
<text x="70" y="757.0" text-anchor="end">22.7k</text>
<line x1="80" y1="584.0" x2="1520" y2="584.0" stroke="#e0e0e0" stroke-width="1" />
<text x="70" y="589.0" text-anchor="end">45.4k</text>
<line x1="80" y1="416.0" x2="1520" y2="416.0" stroke="#e0e0e0" stroke-width="1" />
<text x="70" y="421.0" text-anchor="end">68.1k</text>
<line x1="80" y1="248.0" x2="1520" y2="248.0" stroke="#e0e0e0" stroke-width="1" />
<text x="70" y="253.0" text-anchor="end">90.8k</text>
<line x1="80" y1="80.0" x2="1520" y2="80.0" stroke="#e0e0e0" stroke-width="1" />
<text x="70" y="85.0" text-anchor="end">113.4k</text>
<line x1="80" y1="80" x2="80" y2="920" stroke="#333333" stroke-width="2" />
<line x1="80" y1="920" x2="1520" y2="920" stroke="#333333" stroke-width="2" />
<circle cx="80.0" cy="920.0" r="4" fill="#1f77b4" />
<circle cx="104.40677966101694" cy="883.8083426656917" r="4" fill="#1f77b4" />
<circle cx="128.81355932203388" cy="807.1083880163262" r="4" fill="#1f77b4" />
<circle cx="153.22033898305085" cy="776.2551482225329" r="4" fill="#1f77b4" />
<circle cx="177.6271186440678" cy="757.6854517015743" r="4" fill="#1f77b4" />
<circle cx="202.03389830508473" cy="748.3635825150166" r="4" fill="#1f77b4" />
<circle cx="226.4406779661017" cy="729.7938859940582" r="4" fill="#1f77b4" />
<circle cx="250.84745762711864" cy="709.7507566151767" r="4" fill="#1f77b4" />
<circle cx="275.2542372881356" cy="691.2773145020223" r="4" fill="#1f77b4" />
<circle cx="299.66101694915255" cy="676.2172017733023" r="4" fill="#1f77b4" />
<circle cx="324.06779661016947" cy="662.4824381981915" r="4" fill="#1f77b4" />
<circle cx="348.47457627118644" cy="653.8491582366933" r="4" fill="#1f77b4" />
<circle cx="372.8813559322034" cy="645.3047284977833" r="4" fill="#1f77b4" />
<circle cx="397.2881355932203" cy="632.4584671485557" r="4" fill="#1f77b4" />
<circle cx="421.6949152542373" cy="614.2145547770878" r="4" fill="#1f77b4" />
<circle cx="446.1016949152542" cy="594.4824011772655" r="4" fill="#1f77b4" />
<circle cx="470.50847457627117" cy="581.3843975307043" r="4" fill="#1f77b4" />
<circle cx="494.91525423728814" cy="563.458865123511" r="4" fill="#1f77b4" />
<circle cx="519.3220338983051" cy="556.0546799078179" r="4" fill="#1f77b4" />
<circle cx="543.728813559322" cy="549.2354253241645" r="4" fill="#1f77b4" />
<circle cx="568.1355932203389" cy="534.5677344118764" r="4" fill="#1f77b4" />
<circle cx="592.542372881356" cy="520.144381611706" r="4" fill="#1f77b4" />
<circle cx="616.9491525423729" cy="507.37216211463533" r="4" fill="#1f77b4" />
<circle cx="641.3559322033898" cy="489.7427971160699" r="4" fill="#1f77b4" />
<circle cx="665.7627118644068" cy="477.60733754754875" r="4" fill="#1f77b4" />
<circle cx="690.1694915254237" cy="470.1291104796987" r="4" fill="#1f77b4" />
<circle cx="714.5762711864406" cy="461.6957435190242" r="4" fill="#1f77b4" />
<circle cx="738.9830508474575" cy="450.86342054846506" r="4" fill="#1f77b4" />
<circle cx="763.3898305084746" cy="441.4601053245347" r="4" fill="#1f77b4" />
<circle cx="787.7966101694915" cy="433.4709894768018" r="4" fill="#1f77b4" />
<circle cx="812.2033898305084" cy="419.9065221616519" r="4" fill="#1f77b4" />
<circle cx="836.6101694915254" cy="408.8372652641906" r="4" fill="#1f77b4" />
<circle cx="861.0169491525423" cy="391.9557229724102" r="4" fill="#1f77b4" />
<circle cx="885.4237288135593" cy="387.0097272483272" r="4" fill="#1f77b4" />
<circle cx="909.8305084745763" cy="381.39735485483175" r="4" fill="#1f77b4" />
<circle cx="934.2372881355932" cy="373.9561487130601" r="4" fill="#1f77b4" />
<circle cx="958.6440677966101" cy="367.97356705877996" r="4" fill="#1f77b4" />
<circle cx="983.0508474576271" cy="359.0811406147325" r="4" fill="#1f77b4" />
<circle cx="1007.457627118644" cy="349.10770312919385" r="4" fill="#1f77b4" />
<circle cx="1031.8644067796608" cy="344.57634177718955" r="4" fill="#1f77b4" />
<circle cx="1056.2711864406779" cy="339.65996279396927" r="4" fill="#1f77b4" />
<circle cx="1080.677966101695" cy="331.5227632419226" r="4" fill="#1f77b4" />
<circle cx="1105.084745762712" cy="324.6961044730534" r="4" fill="#1f77b4" />
<circle cx="1129.4915254237287" cy="302.1207437504049" r="4" fill="#1f77b4" />
<circle cx="1153.8983050847457" cy="293.39861356631843" r="4" fill="#1f77b4" />
<circle cx="1178.3050847457628" cy="284.14338204670196" r="4" fill="#1f77b4" />
<circle cx="1202.7118644067796" cy="277.56846557516644" r="4" fill="#1f77b4" />
<circle cx="1227.1186440677966" cy="270.86027376974835" r="4" fill="#1f77b4" />
<circle cx="1251.5254237288136" cy="266.6324840115876" r="4" fill="#1f77b4" />
<circle cx="1275.9322033898304" cy="258.55451794126634" r="4" fill="#1f77b4" />
<circle cx="1300.3389830508474" cy="258.0954584578934" r="4" fill="#1f77b4" />
<circle cx="1324.7457627118642" cy="258.0658417170306" r="4" fill="#1f77b4" />
<circle cx="1349.1525423728813" cy="257.22176460244157" r="4" fill="#1f77b4" />
<circle cx="1373.5593220338983" cy="257.02185160161787" r="4" fill="#1f77b4" />
<circle cx="1397.966101694915" cy="257.02185160161787" r="4" fill="#1f77b4" />
<circle cx="1422.3728813559321" cy="257.01444741640216" r="4" fill="#1f77b4" />
<circle cx="1446.7796610169491" cy="256.99963904597075" r="4" fill="#1f77b4" />
<circle cx="1471.186440677966" cy="256.99223486075505" r="4" fill="#1f77b4" />
<circle cx="1495.593220338983" cy="249.04754412431635" r="4" fill="#1f77b4" />
<circle cx="1520.0" cy="176.8123131600138" r="4" fill="#1f77b4" />
<path d="M 80.0 920.0 L 104.40677966101694 883.8083426656917 L 128.81355932203388 807.1083880163262 L 153.22033898305085 776.2551482225329 L 177.6271186440678 757.6854517015743 L 202.03389830508473 748.3635825150166 L 226.4406779661017 729.7938859940582 L 250.84745762711864 709.7507566151767 L 275.2542372881356 691.2773145020223 L 299.66101694915255 676.2172017733023 L 324.06779661016947 662.4824381981915 L 348.47457627118644 653.8491582366933 L 372.8813559322034 645.3047284977833 L 397.2881355932203 632.4584671485557 L 421.6949152542373 614.2145547770878 L 446.1016949152542 594.4824011772655 L 470.50847457627117 581.3843975307043 L 494.91525423728814 563.458865123511 L 519.3220338983051 556.0546799078179 L 543.728813559322 549.2354253241645 L 568.1355932203389 534.5677344118764 L 592.542372881356 520.144381611706 L 616.9491525423729 507.37216211463533 L 641.3559322033898 489.7427971160699 L 665.7627118644068 477.60733754754875 L 690.1694915254237 470.1291104796987 L 714.5762711864406 461.6957435190242 L 738.9830508474575 450.86342054846506 L 763.3898305084746 441.4601053245347 L 787.7966101694915 433.4709894768018 L 812.2033898305084 419.9065221616519 L 836.6101694915254 408.8372652641906 L 861.0169491525423 391.9557229724102 L 885.4237288135593 387.0097272483272 L 909.8305084745763 381.39735485483175 L 934.2372881355932 373.9561487130601 L 958.6440677966101 367.97356705877996 L 983.0508474576271 359.0811406147325 L 1007.457627118644 349.10770312919385 L 1031.8644067796608 344.57634177718955 L 1056.2711864406779 339.65996279396927 L 1080.677966101695 331.5227632419226 L 1105.084745762712 324.6961044730534 L 1129.4915254237287 302.1207437504049 L 1153.8983050847457 293.39861356631843 L 1178.3050847457628 284.14338204670196 L 1202.7118644067796 277.56846557516644 L 1227.1186440677966 270.86027376974835 L 1251.5254237288136 266.6324840115876 L 1275.9322033898304 258.55451794126634 L 1300.3389830508474 258.0954584578934 L 1324.7457627118642 258.0658417170306 L 1349.1525423728813 257.22176460244157 L 1373.5593220338983 257.02185160161787 L 1397.966101694915 257.02185160161787 L 1422.3728813559321 257.01444741640216 L 1446.7796610169491 256.99963904597075 L 1471.186440677966 256.99223486075505 L 1495.593220338983 249.04754412431635 L 1520.0 176.8123131600138" fill="none" stroke="#1f77b4" stroke-width="2" />
<circle cx="80.0" cy="920.0" r="4" fill="#ff7f0e" />
<circle cx="104.40677966101694" cy="655.8482882449305" r="4" fill="#ff7f0e" />
<circle cx="128.81355932203388" cy="600.7389376845263" r="4" fill="#ff7f0e" />
<circle cx="153.22033898305085" cy="583.0651475746665" r="4" fill="#ff7f0e" />
<circle cx="177.6271186440678" cy="574.3578257610114" r="4" fill="#ff7f0e" />
<circle cx="202.03389830508473" cy="567.5459753625737" r="4" fill="#ff7f0e" />
<circle cx="226.4406779661017" cy="555.403111608837" r="4" fill="#ff7f0e" />
<circle cx="250.84745762711864" cy="539.9950021749794" r="4" fill="#ff7f0e" />
<circle cx="275.2542372881356" cy="527.7040547169288" r="4" fill="#ff7f0e" />
<circle cx="299.66101694915255" cy="517.5751293418605" r="4" fill="#ff7f0e" />
<circle cx="324.06779661016947" cy="507.32773700334116" r="4" fill="#ff7f0e" />
<circle cx="348.47457627118644" cy="501.974511092395" r="4" fill="#ff7f0e" />
<circle cx="372.8813559322034" cy="495.3477653243496" r="4" fill="#ff7f0e" />
<circle cx="397.2881355932203" cy="487.81030477477395" r="4" fill="#ff7f0e" />
<circle cx="421.6949152542373" cy="477.72580451099986" r="4" fill="#ff7f0e" />
<circle cx="446.1016949152542" cy="464.2279748627912" r="4" fill="#ff7f0e" />
<circle cx="470.50847457627117" cy="455.56507816043023" r="4" fill="#ff7f0e" />
<circle cx="494.91525423728814" cy="444.74756356030247" r="4" fill="#ff7f0e" />
<circle cx="519.3220338983051" cy="438.16524290355125" r="4" fill="#ff7f0e" />
<circle cx="543.728813559322" cy="432.9156755856248" r="4" fill="#ff7f0e" />
<circle cx="568.1355932203389" cy="420.98753320314313" r="4" fill="#ff7f0e" />
<circle cx="592.542372881356" cy="411.2806463853694" r="4" fill="#ff7f0e" />
<circle cx="616.9491525423729" cy="399.7893509306135" r="4" fill="#ff7f0e" />
<circle cx="641.3559322033898" cy="384.7144298314622" r="4" fill="#ff7f0e" />
<circle cx="665.7627118644068" cy="375.29630623710057" r="4" fill="#ff7f0e" />
<circle cx="690.1694915254237" cy="364.0567530796783" r="4" fill="#ff7f0e" />
<circle cx="714.5762711864406" cy="361.265375253362" r="4" fill="#ff7f0e" />
<circle cx="738.9830508474575" cy="351.758401436412" r="4" fill="#ff7f0e" />
<circle cx="763.3898305084746" cy="345.3982063361316" r="4" fill="#ff7f0e" />
<circle cx="787.7966101694915" cy="339.3119660888317" r="4" fill="#ff7f0e" />
<circle cx="812.2033898305084" cy="327.9983710792526" r="4" fill="#ff7f0e" />
<circle cx="836.6101694915254" cy="317.83982896332157" r="4" fill="#ff7f0e" />
<circle cx="861.0169491525423" cy="306.6447009171935" r="4" fill="#ff7f0e" />
<circle cx="885.4237288135593" cy="302.55759067813085" r="4" fill="#ff7f0e" />
<circle cx="909.8305084745763" cy="298.36682184604854" r="4" fill="#ff7f0e" />
<circle cx="934.2372881355932" cy="292.7174285264746" r="4" fill="#ff7f0e" />
<circle cx="958.6440677966101" cy="287.8158579136857" r="4" fill="#ff7f0e" />
<circle cx="983.0508474576271" cy="280.2117596971689" r="4" fill="#ff7f0e" />
<circle cx="1007.457627118644" cy="272.1930271085731" r="4" fill="#ff7f0e" />
<circle cx="1031.8644067796608" cy="266.7879719011171" r="4" fill="#ff7f0e" />
<circle cx="1056.2711864406779" cy="263.55234296185927" r="4" fill="#ff7f0e" />
<circle cx="1080.677966101695" cy="256.81453441557846" r="4" fill="#ff7f0e" />
<circle cx="1105.084745762712" cy="252.26096050792717" r="4" fill="#ff7f0e" />
<circle cx="1129.4915254237287" cy="230.351976454691" r="4" fill="#ff7f0e" />
<circle cx="1153.8983050847457" cy="221.86678019750673" r="4" fill="#ff7f0e" />
<circle cx="1178.3050847457628" cy="214.15902338797014" r="4" fill="#ff7f0e" />
<circle cx="1202.7118644067796" cy="206.3624163558452" r="4" fill="#ff7f0e" />
<circle cx="1227.1186440677966" cy="201.8458633742723" r="4" fill="#ff7f0e" />
<circle cx="1251.5254237288136" cy="198.51398002721044" r="4" fill="#ff7f0e" />
<circle cx="1275.9322033898304" cy="192.66467370681278" r="4" fill="#ff7f0e" />
<circle cx="1300.3389830508474" cy="185.5788684553944" r="4" fill="#ff7f0e" />
<circle cx="1324.7457627118642" cy="179.55186168982016" r="4" fill="#ff7f0e" />
<circle cx="1349.1525423728813" cy="174.272677631031" r="4" fill="#ff7f0e" />
<circle cx="1373.5593220338983" cy="163.21822910400113" r="4" fill="#ff7f0e" />
<circle cx="1397.966101694915" cy="159.5975825335271" r="4" fill="#ff7f0e" />
<circle cx="1422.3728813559321" cy="153.64461762010978" r="4" fill="#ff7f0e" />
<circle cx="1446.7796610169491" cy="144.63372421261124" r="4" fill="#ff7f0e" />
<circle cx="1471.186440677966" cy="138.88807648523334" r="4" fill="#ff7f0e" />
<circle cx="1495.593220338983" cy="131.01002341573576" r="4" fill="#ff7f0e" />
<circle cx="1520.0" cy="121.74738771090358" r="4" fill="#ff7f0e" />
<path d="M 80.0 920.0 L 104.40677966101694 655.8482882449305 L 128.81355932203388 600.7389376845263 L 153.22033898305085 583.0651475746665 L 177.6271186440678 574.3578257610114 L 202.03389830508473 567.5459753625737 L 226.4406779661017 555.403111608837 L 250.84745762711864 539.9950021749794 L 275.2542372881356 527.7040547169288 L 299.66101694915255 517.5751293418605 L 324.06779661016947 507.32773700334116 L 348.47457627118644 501.974511092395 L 372.8813559322034 495.3477653243496 L 397.2881355932203 487.81030477477395 L 421.6949152542373 477.72580451099986 L 446.1016949152542 464.2279748627912 L 470.50847457627117 455.56507816043023 L 494.91525423728814 444.74756356030247 L 519.3220338983051 438.16524290355125 L 543.728813559322 432.9156755856248 L 568.1355932203389 420.98753320314313 L 592.542372881356 411.2806463853694 L 616.9491525423729 399.7893509306135 L 641.3559322033898 384.7144298314622 L 665.7627118644068 375.29630623710057 L 690.1694915254237 364.0567530796783 L 714.5762711864406 361.265375253362 L 738.9830508474575 351.758401436412 L 763.3898305084746 345.3982063361316 L 787.7966101694915 339.3119660888317 L 812.2033898305084 327.9983710792526 L 836.6101694915254 317.83982896332157 L 861.0169491525423 306.6447009171935 L 885.4237288135593 302.55759067813085 L 909.8305084745763 298.36682184604854 L 934.2372881355932 292.7174285264746 L 958.6440677966101 287.8158579136857 L 983.0508474576271 280.2117596971689 L 1007.457627118644 272.1930271085731 L 1031.8644067796608 266.7879719011171 L 1056.2711864406779 263.55234296185927 L 1080.677966101695 256.81453441557846 L 1105.084745762712 252.26096050792717 L 1129.4915254237287 230.351976454691 L 1153.8983050847457 221.86678019750673 L 1178.3050847457628 214.15902338797014 L 1202.7118644067796 206.3624163558452 L 1227.1186440677966 201.8458633742723 L 1251.5254237288136 198.51398002721044 L 1275.9322033898304 192.66467370681278 L 1300.3389830508474 185.5788684553944 L 1324.7457627118642 179.55186168982016 L 1349.1525423728813 174.272677631031 L 1373.5593220338983 163.21822910400113 L 1397.966101694915 159.5975825335271 L 1422.3728813559321 153.64461762010978 L 1446.7796610169491 144.63372421261124 L 1471.186440677966 138.88807648523334 L 1495.593220338983 131.01002341573576 L 1520.0 121.74738771090358" fill="none" stroke="#ff7f0e" stroke-width="2" />
<circle cx="80.0" cy="920.0" r="4" fill="#2ca02c" />
<circle cx="104.40677966101694" cy="650.6579544087296" r="4" fill="#2ca02c" />
<circle cx="128.81355932203388" cy="595.7633252195803" r="4" fill="#2ca02c" />
<circle cx="153.22033898305085" cy="578.2598313696817" r="4" fill="#2ca02c" />
<circle cx="177.6271186440678" cy="569.685784889909" r="4" fill="#2ca02c" />
<circle cx="202.03389830508473" cy="562.8887428619028" r="4" fill="#2ca02c" />
<circle cx="226.4406779661017" cy="550.8717502568327" r="4" fill="#2ca02c" />
<circle cx="250.84745762711864" cy="535.6635538237989" r="4" fill="#2ca02c" />
<circle cx="275.2542372881356" cy="523.5132858848465" r="4" fill="#2ca02c" />
<circle cx="299.66101694915255" cy="513.4658065471508" r="4" fill="#2ca02c" />
<circle cx="324.06779661016947" cy="503.2702435051413" r="4" fill="#2ca02c" />
<circle cx="348.47457627118644" cy="497.99846363156774" r="4" fill="#2ca02c" />
<circle cx="372.8813559322034" cy="491.3717178635224" r="4" fill="#2ca02c" />
<circle cx="397.2881355932203" cy="483.8564698695938" r="4" fill="#2ca02c" />
<circle cx="421.6949152542373" cy="473.99409516229053" r="4" fill="#2ca02c" />
<circle cx="446.1016949152542" cy="460.7850287374939" r="4" fill="#2ca02c" />
<circle cx="470.50847457627117" cy="452.15915296121136" r="4" fill="#2ca02c" />
<circle cx="494.91525423728814" cy="441.3490425462993" r="4" fill="#2ca02c" />
<circle cx="519.3220338983051" cy="434.7593177043324" r="4" fill="#2ca02c" />
<circle cx="543.728813559322" cy="429.52455875683734" r="4" fill="#2ca02c" />
<circle cx="568.1355932203389" cy="417.67786241172826" r="4" fill="#2ca02c" />
<circle cx="592.542372881356" cy="407.99318814960156" r="4" fill="#2ca02c" />
<circle cx="616.9491525423729" cy="396.5167010652772" r="4" fill="#2ca02c" />
<circle cx="641.3559322033898" cy="381.463992521773" r="4" fill="#2ca02c" />
<circle cx="665.7627118644068" cy="372.07548566827404" r="4" fill="#2ca02c" />
<circle cx="690.1694915254237" cy="360.84333669606747" r="4" fill="#2ca02c" />
<circle cx="714.5762711864406" cy="358.05936305496687" r="4" fill="#2ca02c" />
<circle cx="738.9830508474575" cy="348.55979342323246" r="4" fill="#2ca02c" />
<circle cx="763.3898305084746" cy="342.2218108785992" r="4" fill="#2ca02c" />
<circle cx="787.7966101694915" cy="336.1725915573778" r="4" fill="#2ca02c" />
<circle cx="812.2033898305084" cy="325.11814303034794" r="4" fill="#2ca02c" />
<circle cx="836.6101694915254" cy="314.98921765527973" r="4" fill="#2ca02c" />
<circle cx="861.0169491525423" cy="304.10506538821073" r="4" fill="#2ca02c" />
<circle cx="885.4237288135593" cy="300.01795514914807" r="4" fill="#2ca02c" />
<circle cx="909.8305084745763" cy="295.8790156135756" r="4" fill="#2ca02c" />
<circle cx="934.2372881355932" cy="290.23702647921743" r="4" fill="#2ca02c" />
<circle cx="958.6440677966101" cy="285.35766842207556" r="4" fill="#2ca02c" />
<circle cx="983.0508474576271" cy="277.75357020555873" r="4" fill="#2ca02c" />
<circle cx="1007.457627118644" cy="269.7718585430415" r="4" fill="#2ca02c" />
<circle cx="1031.8644067796608" cy="264.3742075208012" r="4" fill="#2ca02c" />
<circle cx="1056.2711864406779" cy="261.13857858154324" r="4" fill="#2ca02c" />
<circle cx="1080.677966101695" cy="254.40817422047814" r="4" fill="#2ca02c" />
<circle cx="1105.084745762712" cy="249.92864216498378" r="4" fill="#2ca02c" />
<circle cx="1129.4915254237287" cy="228.21216692735572" r="4" fill="#2ca02c" />
<circle cx="1153.8983050847457" cy="219.74177904060275" r="4" fill="#2ca02c" />
<circle cx="1178.3050847457628" cy="212.26355197275268" r="4" fill="#2ca02c" />
<circle cx="1202.7118644067796" cy="204.47434912584345" r="4" fill="#2ca02c" />
<circle cx="1227.1186440677966" cy="199.95779614427056" r="4" fill="#2ca02c" />
<circle cx="1251.5254237288136" cy="196.62591279720868" r="4" fill="#2ca02c" />
<circle cx="1275.9322033898304" cy="190.79141484724244" r="4" fill="#2ca02c" />
<circle cx="1300.3389830508474" cy="183.70560959582406" r="4" fill="#2ca02c" />
<circle cx="1324.7457627118642" cy="177.67860283024982" r="4" fill="#2ca02c" />
<circle cx="1349.1525423728813" cy="172.41422714189196" r="4" fill="#2ca02c" />
<circle cx="1373.5593220338983" cy="161.35977861486208" r="4" fill="#2ca02c" />
<circle cx="1397.966101694915" cy="157.73913204438816" r="4" fill="#2ca02c" />
<circle cx="1422.3728813559321" cy="151.78616713097085" r="4" fill="#2ca02c" />
<circle cx="1446.7796610169491" cy="142.7900820939036" r="4" fill="#2ca02c" />
<circle cx="1471.186440677966" cy="137.06664692217282" r="4" fill="#2ca02c" />
<circle cx="1495.593220338983" cy="129.19599803789094" r="4" fill="#2ca02c" />
<circle cx="1520.0" cy="120.0" r="4" fill="#2ca02c" />
<path d="M 80.0 920.0 L 104.40677966101694 650.6579544087296 L 128.81355932203388 595.7633252195803 L 153.22033898305085 578.2598313696817 L 177.6271186440678 569.685784889909 L 202.03389830508473 562.8887428619028 L 226.4406779661017 550.8717502568327 L 250.84745762711864 535.6635538237989 L 275.2542372881356 523.5132858848465 L 299.66101694915255 513.4658065471508 L 324.06779661016947 503.2702435051413 L 348.47457627118644 497.99846363156774 L 372.8813559322034 491.3717178635224 L 397.2881355932203 483.8564698695938 L 421.6949152542373 473.99409516229053 L 446.1016949152542 460.7850287374939 L 470.50847457627117 452.15915296121136 L 494.91525423728814 441.3490425462993 L 519.3220338983051 434.7593177043324 L 543.728813559322 429.52455875683734 L 568.1355932203389 417.67786241172826 L 592.542372881356 407.99318814960156 L 616.9491525423729 396.5167010652772 L 641.3559322033898 381.463992521773 L 665.7627118644068 372.07548566827404 L 690.1694915254237 360.84333669606747 L 714.5762711864406 358.05936305496687 L 738.9830508474575 348.55979342323246 L 763.3898305084746 342.2218108785992 L 787.7966101694915 336.1725915573778 L 812.2033898305084 325.11814303034794 L 836.6101694915254 314.98921765527973 L 861.0169491525423 304.10506538821073 L 885.4237288135593 300.01795514914807 L 909.8305084745763 295.8790156135756 L 934.2372881355932 290.23702647921743 L 958.6440677966101 285.35766842207556 L 983.0508474576271 277.75357020555873 L 1007.457627118644 269.7718585430415 L 1031.8644067796608 264.3742075208012 L 1056.2711864406779 261.13857858154324 L 1080.677966101695 254.40817422047814 L 1105.084745762712 249.92864216498378 L 1129.4915254237287 228.21216692735572 L 1153.8983050847457 219.74177904060275 L 1178.3050847457628 212.26355197275268 L 1202.7118644067796 204.47434912584345 L 1227.1186440677966 199.95779614427056 L 1251.5254237288136 196.62591279720868 L 1275.9322033898304 190.79141484724244 L 1300.3389830508474 183.70560959582406 L 1324.7457627118642 177.67860283024982 L 1349.1525423728813 172.41422714189196 L 1373.5593220338983 161.35977861486208 L 1397.966101694915 157.73913204438816 L 1422.3728813559321 151.78616713097085 L 1446.7796610169491 142.7900820939036 L 1471.186440677966 137.06664692217282 L 1495.593220338983 129.19599803789094 L 1520.0 120.0" fill="none" stroke="#2ca02c" stroke-width="2" />
<circle cx="80.0" cy="920.0" r="4" fill="#d62728" />
<circle cx="104.40677966101694" cy="867.7412607476376" r="4" fill="#d62728" />
<circle cx="128.81355932203388" cy="792.1075087693318" r="4" fill="#d62728" />
<circle cx="153.22033898305085" cy="765.9337140318565" r="4" fill="#d62728" />
<circle cx="177.6271186440678" cy="747.4010384369765" r="4" fill="#d62728" />
<circle cx="202.03389830508473" cy="738.1606152877914" r="4" fill="#d62728" />
<circle cx="226.4406779661017" cy="719.9685322128333" r="4" fill="#d62728" />
<circle cx="250.84745762711864" cy="700.8583301711292" r="4" fill="#d62728" />
<circle cx="275.2542372881356" cy="683.2659860986423" r="4" fill="#d62728" />
<circle cx="299.66101694915255" cy="668.5242533341972" r="4" fill="#d62728" />
<circle cx="324.06779661016947" cy="654.8339148703806" r="4" fill="#d62728" />
<circle cx="348.47457627118644" cy="646.2154432793136" r="4" fill="#d62728" />
<circle cx="372.8813559322034" cy="637.6784177256194" r="4" fill="#d62728" />
<circle cx="397.2881355932203" cy="625.4689163049413" r="4" fill="#d62728" />
<circle cx="421.6949152542373" cy="607.4397253047285" r="4" fill="#d62728" />
<circle cx="446.1016949152542" cy="588.0407600396125" r="4" fill="#d62728" />
<circle cx="470.50847457627117" cy="575.5647079511693" r="4" fill="#d62728" />
<circle cx="494.91525423728814" cy="557.861301100447" r="4" fill="#d62728" />
<circle cx="519.3220338983051" cy="550.4571158847539" r="4" fill="#d62728" />
<circle cx="543.728813559322" cy="543.7119031532575" r="4" fill="#d62728" />
<circle cx="568.1355932203389" cy="529.2219126861459" r="4" fill="#d62728" />
<circle cx="592.542372881356" cy="515.6722537414273" r="4" fill="#d62728" />
<circle cx="616.9491525423729" cy="502.9518635408665" r="4" fill="#d62728" />
<circle cx="641.3559322033898" cy="485.33730691273246" r="4" fill="#d62728" />
<circle cx="665.7627118644068" cy="473.6016733458588" r="4" fill="#d62728" />
<circle cx="690.1694915254237" cy="466.12344627800866" r="4" fill="#d62728" />
<circle cx="714.5762711864406" cy="457.68267513211845" r="4" fill="#d62728" />
<circle cx="738.9830508474575" cy="446.85035216155933" r="4" fill="#d62728" />
<circle cx="763.3898305084746" cy="438.07639268096295" r="4" fill="#d62728" />
<circle cx="787.7966101694915" cy="430.1020852036614" r="4" fill="#d62728" />
<circle cx="812.2033898305084" cy="416.5672346293743" r="4" fill="#d62728" />
<circle cx="836.6101694915254" cy="405.5053819171287" r="4" fill="#d62728" />
<circle cx="861.0169491525423" cy="388.71268984793653" r="4" fill="#d62728" />
<circle cx="885.4237288135593" cy="383.78890667950066" r="4" fill="#d62728" />
<circle cx="909.8305084745763" cy="378.1765342860052" r="4" fill="#d62728" />
<circle cx="934.2372881355932" cy="370.7871574407434" r="4" fill="#d62728" />
<circle cx="958.6440677966101" cy="364.79717160124767" r="4" fill="#d62728" />
<circle cx="983.0508474576271" cy="355.9491702684943" r="4" fill="#d62728" />
<circle cx="1007.457627118644" cy="346.53104667413254" r="4" fill="#d62728" />
<circle cx="1031.8644067796608" cy="342.0218978777755" r="4" fill="#d62728" />
<circle cx="1056.2711864406779" cy="337.1055188945552" r="4" fill="#d62728" />
<circle cx="1080.677966101695" cy="328.9905318981555" r="4" fill="#d62728" />
<circle cx="1105.084745762712" cy="322.2305107962276" r="4" fill="#d62728" />
<circle cx="1129.4915254237287" cy="299.7217877405203" r="4" fill="#d62728" />
<circle cx="1153.8983050847457" cy="291.02187011208093" r="4" fill="#d62728" />
<circle cx="1178.3050847457628" cy="281.76663859246446" r="4" fill="#d62728" />
<circle cx="1202.7118644067796" cy="275.18431793571324" r="4" fill="#d62728" />
<circle cx="1227.1186440677966" cy="268.47612613029514" r="4" fill="#d62728" />
<circle cx="1251.5254237288136" cy="264.2557405573501" r="4" fill="#d62728" />
<circle cx="1275.9322033898304" cy="256.5183670069507" r="4" fill="#d62728" />
<circle cx="1300.3389830508474" cy="256.0667117087934" r="4" fill="#d62728" />
<circle cx="1324.7457627118642" cy="256.0667117087934" r="4" fill="#d62728" />
<circle cx="1349.1525423728813" cy="256.0667117087934" r="4" fill="#d62728" />
<circle cx="1373.5593220338983" cy="256.0667117087934" r="4" fill="#d62728" />
<circle cx="1397.966101694915" cy="256.0667117087934" r="4" fill="#d62728" />
<circle cx="1422.3728813559321" cy="256.0667117087934" r="4" fill="#d62728" />
<circle cx="1446.7796610169491" cy="256.0667117087934" r="4" fill="#d62728" />
<circle cx="1471.186440677966" cy="256.0667117087934" r="4" fill="#d62728" />
<circle cx="1495.593220338983" cy="248.12202097235468" r="4" fill="#d62728" />
<circle cx="1520.0" cy="175.8719816376207" r="4" fill="#d62728" />
<path d="M 80.0 920.0 L 104.40677966101694 867.7412607476376 L 128.81355932203388 792.1075087693318 L 153.22033898305085 765.9337140318565 L 177.6271186440678 747.4010384369765 L 202.03389830508473 738.1606152877914 L 226.4406779661017 719.9685322128333 L 250.84745762711864 700.8583301711292 L 275.2542372881356 683.2659860986423 L 299.66101694915255 668.5242533341972 L 324.06779661016947 654.8339148703806 L 348.47457627118644 646.2154432793136 L 372.8813559322034 637.6784177256194 L 397.2881355932203 625.4689163049413 L 421.6949152542373 607.4397253047285 L 446.1016949152542 588.0407600396125 L 470.50847457627117 575.5647079511693 L 494.91525423728814 557.861301100447 L 519.3220338983051 550.4571158847539 L 543.728813559322 543.7119031532575 L 568.1355932203389 529.2219126861459 L 592.542372881356 515.6722537414273 L 616.9491525423729 502.9518635408665 L 641.3559322033898 485.33730691273246 L 665.7627118644068 473.6016733458588 L 690.1694915254237 466.12344627800866 L 714.5762711864406 457.68267513211845 L 738.9830508474575 446.85035216155933 L 763.3898305084746 438.07639268096295 L 787.7966101694915 430.1020852036614 L 812.2033898305084 416.5672346293743 L 836.6101694915254 405.5053819171287 L 861.0169491525423 388.71268984793653 L 885.4237288135593 383.78890667950066 L 909.8305084745763 378.1765342860052 L 934.2372881355932 370.7871574407434 L 958.6440677966101 364.79717160124767 L 983.0508474576271 355.9491702684943 L 1007.457627118644 346.53104667413254 L 1031.8644067796608 342.0218978777755 L 1056.2711864406779 337.1055188945552 L 1080.677966101695 328.9905318981555 L 1105.084745762712 322.2305107962276 L 1129.4915254237287 299.7217877405203 L 1153.8983050847457 291.02187011208093 L 1178.3050847457628 281.76663859246446 L 1202.7118644067796 275.18431793571324 L 1227.1186440677966 268.47612613029514 L 1251.5254237288136 264.2557405573501 L 1275.9322033898304 256.5183670069507 L 1300.3389830508474 256.0667117087934 L 1324.7457627118642 256.0667117087934 L 1349.1525423728813 256.0667117087934 L 1373.5593220338983 256.0667117087934 L 1397.966101694915 256.0667117087934 L 1422.3728813559321 256.0667117087934 L 1446.7796610169491 256.0667117087934 L 1471.186440677966 256.0667117087934 L 1495.593220338983 248.12202097235468 L 1520.0 175.8719816376207" fill="none" stroke="#d62728" stroke-width="2" />
<circle cx="80.0" cy="920.0" r="4" fill="#9467bd" />
<circle cx="104.40677966101694" cy="873.257378733329" r="4" fill="#9467bd" />
<circle cx="128.81355932203388" cy="797.3348635316113" r="4" fill="#9467bd" />
<circle cx="153.22033898305085" cy="766.5556655899748" r="4" fill="#9467bd" />
<circle cx="177.6271186440678" cy="747.9637565133692" r="4" fill="#9467bd" />
<circle cx="202.03389830508473" cy="739.6710690717928" r="4" fill="#9467bd" />
<circle cx="226.4406779661017" cy="721.3234981073051" r="4" fill="#9467bd" />
<circle cx="250.84745762711864" cy="701.3321980249336" r="4" fill="#9467bd" />
<circle cx="275.2542372881356" cy="683.2437735429952" r="4" fill="#9467bd" />
<circle cx="299.66101694915255" cy="668.3391487038049" r="4" fill="#9467bd" />
<circle cx="324.06779661016947" cy="654.8042981295177" r="4" fill="#9467bd" />
<circle cx="348.47457627118644" cy="646.1784223532352" r="4" fill="#9467bd" />
<circle cx="372.8813559322034" cy="637.5821633178155" r="4" fill="#9467bd" />
<circle cx="397.2881355932203" cy="624.8099438207447" r="4" fill="#9467bd" />
<circle cx="421.6949152542373" cy="606.9140281544144" r="4" fill="#9467bd" />
<circle cx="446.1016949152542" cy="587.1374494432978" r="4" fill="#9467bd" />
<circle cx="470.50847457627117" cy="574.3208048349329" r="4" fill="#9467bd" />
<circle cx="494.91525423728814" cy="558.9349079567226" r="4" fill="#9467bd" />
<circle cx="519.3220338983051" cy="551.5233185558137" r="4" fill="#9467bd" />
<circle cx="543.728813559322" cy="544.7040639721603" r="4" fill="#9467bd" />
<circle cx="568.1355932203389" cy="529.9993521337936" r="4" fill="#9467bd" />
<circle cx="592.542372881356" cy="516.0276546317807" r="4" fill="#9467bd" />
<circle cx="616.9491525423729" cy="503.32207280165113" r="4" fill="#9467bd" />
<circle cx="641.3559322033898" cy="485.64087850657586" r="4" fill="#9467bd" />
<circle cx="665.7627118644068" cy="473.73494867974125" r="4" fill="#9467bd" />
<circle cx="690.1694915254237" cy="466.27893416753824" r="4" fill="#9467bd" />
<circle cx="714.5762711864406" cy="457.83816302164803" r="4" fill="#9467bd" />
<circle cx="738.9830508474575" cy="446.9910316806575" r="4" fill="#9467bd" />
<circle cx="763.3898305084746" cy="437.9283089766491" r="4" fill="#9467bd" />
<circle cx="787.7966101694915" cy="429.95400149934756" r="4" fill="#9467bd" />
<circle cx="812.2033898305084" cy="416.60425555545277" r="4" fill="#9467bd" />
<circle cx="836.6101694915254" cy="405.79414514054076" r="4" fill="#9467bd" />
<circle cx="861.0169491525423" cy="388.90519866354464" r="4" fill="#9467bd" />
<circle cx="885.4237288135593" cy="383.93699038381453" r="4" fill="#9467bd" />
<circle cx="909.8305084745763" cy="378.5541477320055" r="4" fill="#9467bd" />
<circle cx="934.2372881355932" cy="371.14255833109667" r="4" fill="#9467bd" />
<circle cx="958.6440677966101" cy="365.13035993595383" r="4" fill="#9467bd" />
<circle cx="983.0508474576271" cy="356.21572093625923" r="4" fill="#9467bd" />
<circle cx="1007.457627118644" cy="346.2422834507205" r="4" fill="#9467bd" />
<circle cx="1031.8644067796608" cy="341.7109220987163" r="4" fill="#9467bd" />
<circle cx="1056.2711864406779" cy="336.794543115496" r="4" fill="#9467bd" />
<circle cx="1080.677966101695" cy="328.6721519338806" r="4" fill="#9467bd" />
<circle cx="1105.084745762712" cy="321.8306847945802" r="4" fill="#9467bd" />
<circle cx="1129.4915254237287" cy="299.3145575536572" r="4" fill="#9467bd" />
<circle cx="1153.8983050847457" cy="290.5702148139236" r="4" fill="#9467bd" />
<circle cx="1178.3050847457628" cy="281.32238747952283" r="4" fill="#9467bd" />
<circle cx="1202.7118644067796" cy="274.7400668227716" r="4" fill="#9467bd" />
<circle cx="1227.1186440677966" cy="267.9726415356281" r="4" fill="#9467bd" />
<circle cx="1251.5254237288136" cy="263.7670643331144" r="4" fill="#9467bd" />
<circle cx="1275.9322033898304" cy="255.66688570714598" r="4" fill="#9467bd" />
<circle cx="1300.3389830508474" cy="246.92254296741237" r="4" fill="#9467bd" />
<circle cx="1324.7457627118642" cy="240.54753949670055" r="4" fill="#9467bd" />
<circle cx="1349.1525423728813" cy="233.60241376438034" r="4" fill="#9467bd" />
<circle cx="1373.5593220338983" cy="227.1755809971587" r="4" fill="#9467bd" />
<circle cx="1397.966101694915" cy="218.0610289966404" r="4" fill="#9467bd" />
<circle cx="1422.3728813559321" cy="211.78968411894823" r="4" fill="#9467bd" />
<circle cx="1446.7796610169491" cy="201.08323229705593" r="4" fill="#9467bd" />
<circle cx="1471.186440677966" cy="194.77486649328534" r="4" fill="#9467bd" />
<circle cx="1495.593220338983" cy="187.3484687219451" r="4" fill="#9467bd" />
<circle cx="1520.0" cy="175.42773052467908" r="4" fill="#9467bd" />
<path d="M 80.0 920.0 L 104.40677966101694 873.257378733329 L 128.81355932203388 797.3348635316113 L 153.22033898305085 766.5556655899748 L 177.6271186440678 747.9637565133692 L 202.03389830508473 739.6710690717928 L 226.4406779661017 721.3234981073051 L 250.84745762711864 701.3321980249336 L 275.2542372881356 683.2437735429952 L 299.66101694915255 668.3391487038049 L 324.06779661016947 654.8042981295177 L 348.47457627118644 646.1784223532352 L 372.8813559322034 637.5821633178155 L 397.2881355932203 624.8099438207447 L 421.6949152542373 606.9140281544144 L 446.1016949152542 587.1374494432978 L 470.50847457627117 574.3208048349329 L 494.91525423728814 558.9349079567226 L 519.3220338983051 551.5233185558137 L 543.728813559322 544.7040639721603 L 568.1355932203389 529.9993521337936 L 592.542372881356 516.0276546317807 L 616.9491525423729 503.32207280165113 L 641.3559322033898 485.64087850657586 L 665.7627118644068 473.73494867974125 L 690.1694915254237 466.27893416753824 L 714.5762711864406 457.83816302164803 L 738.9830508474575 446.9910316806575 L 763.3898305084746 437.9283089766491 L 787.7966101694915 429.95400149934756 L 812.2033898305084 416.60425555545277 L 836.6101694915254 405.79414514054076 L 861.0169491525423 388.90519866354464 L 885.4237288135593 383.93699038381453 L 909.8305084745763 378.5541477320055 L 934.2372881355932 371.14255833109667 L 958.6440677966101 365.13035993595383 L 983.0508474576271 356.21572093625923 L 1007.457627118644 346.2422834507205 L 1031.8644067796608 341.7109220987163 L 1056.2711864406779 336.794543115496 L 1080.677966101695 328.6721519338806 L 1105.084745762712 321.8306847945802 L 1129.4915254237287 299.3145575536572 L 1153.8983050847457 290.5702148139236 L 1178.3050847457628 281.32238747952283 L 1202.7118644067796 274.7400668227716 L 1227.1186440677966 267.9726415356281 L 1251.5254237288136 263.7670643331144 L 1275.9322033898304 255.66688570714598 L 1300.3389830508474 246.92254296741237 L 1324.7457627118642 240.54753949670055 L 1349.1525423728813 233.60241376438034 L 1373.5593220338983 227.1755809971587 L 1397.966101694915 218.0610289966404 L 1422.3728813559321 211.78968411894823 L 1446.7796610169491 201.08323229705593 L 1471.186440677966 194.77486649328534 L 1495.593220338983 187.3484687219451 L 1520.0 175.42773052467908" fill="none" stroke="#9467bd" stroke-width="2" />
<circle cx="80.0" cy="920.0" r="4" fill="#66ffbd" />
<circle cx="104.40677966101694" cy="686.8496117430377" r="4" fill="#66ffbd" />
<circle cx="128.81355932203388" cy="708.6549372032541" r="4" fill="#66ffbd" />
<circle cx="153.22033898305085" cy="722.004683147149" r="4" fill="#66ffbd" />
<circle cx="177.6271186440678" cy="732.0003331883347" r="4" fill="#66ffbd" />
<circle cx="202.03389830508473" cy="734.5251603468861" r="4" fill="#66ffbd" />
<circle cx="226.4406779661017" cy="741.0778642627745" r="4" fill="#66ffbd" />
<circle cx="250.84745762711864" cy="745.9127972086221" r="4" fill="#66ffbd" />
<circle cx="275.2542372881356" cy="752.2359713828241" r="4" fill="#66ffbd" />
<circle cx="299.66101694915255" cy="757.2486047738485" r="4" fill="#66ffbd" />
<circle cx="324.06779661016947" cy="760.7878053069497" r="4" fill="#66ffbd" />
<circle cx="348.47457627118644" cy="764.1493053948744" r="4" fill="#66ffbd" />
<circle cx="372.8813559322034" cy="766.066989365739" r="4" fill="#66ffbd" />
<circle cx="397.2881355932203" cy="771.3980027210381" r="4" fill="#66ffbd" />
<circle cx="421.6949152542373" cy="779.7795403852027" r="4" fill="#66ffbd" />
<circle cx="446.1016949152542" cy="786.3026275602284" r="4" fill="#66ffbd" />
<circle cx="470.50847457627117" cy="790.7747554305071" r="4" fill="#66ffbd" />
<circle cx="494.91525423728814" cy="797.8901774227883" r="4" fill="#66ffbd" />
<circle cx="519.3220338983051" cy="798.7046377965145" r="4" fill="#66ffbd" />
<circle cx="543.728813559322" cy="800.2891334326728" r="4" fill="#66ffbd" />
<circle cx="568.1355932203389" cy="803.1101279998519" r="4" fill="#66ffbd" />
<circle cx="592.542372881356" cy="807.8488065378956" r="4" fill="#66ffbd" />
<circle cx="616.9491525423729" cy="809.1445389506418" r="4" fill="#66ffbd" />
<circle cx="641.3559322033898" cy="811.721195405703" r="4" fill="#66ffbd" />
<circle cx="665.7627118644068" cy="814.4681481207252" r="4" fill="#66ffbd" />
<circle cx="690.1694915254237" cy="810.7142262163688" r="4" fill="#66ffbd" />
<circle cx="714.5762711864406" cy="816.3636195359427" r="4" fill="#66ffbd" />
<circle cx="738.9830508474575" cy="817.6963728747675" r="4" fill="#66ffbd" />
<circle cx="763.3898305084746" cy="820.7617055540644" r="4" fill="#66ffbd" />
<circle cx="787.7966101694915" cy="822.7016020805761" r="4" fill="#66ffbd" />
<circle cx="812.2033898305084" cy="825.2116208686961" r="4" fill="#66ffbd" />
<circle cx="836.6101694915254" cy="826.151952391089" r="4" fill="#66ffbd" />
<circle cx="861.0169491525423" cy="832.1493424158006" r="4" fill="#66ffbd" />
<circle cx="885.4237288135593" cy="833.0082279008209" r="4" fill="#66ffbd" />
<circle cx="909.8305084745763" cy="834.4816607587438" r="4" fill="#66ffbd" />
<circle cx="934.2372881355932" cy="836.2808777661573" r="4" fill="#66ffbd" />
<circle cx="958.6440677966101" cy="837.3841013632956" r="4" fill="#66ffbd" />
<circle cx="983.0508474576271" cy="838.6724295908263" r="4" fill="#66ffbd" />
<circle cx="1007.457627118644" cy="840.6641554138477" r="4" fill="#66ffbd" />
<circle cx="1031.8644067796608" cy="839.7978657436116" r="4" fill="#66ffbd" />
<circle cx="1056.2711864406779" cy="841.478615787574" r="4" fill="#66ffbd" />
<circle cx="1080.677966101695" cy="842.8854109785557" r="4" fill="#66ffbd" />
<circle cx="1105.084745762712" cy="845.2325376919304" r="4" fill="#66ffbd" />
<circle cx="1129.4915254237287" cy="846.0914231769508" r="4" fill="#66ffbd" />
<circle cx="1153.8983050847457" cy="846.3431654742843" r="4" fill="#66ffbd" />
<circle cx="1178.3050847457628" cy="848.1201699260507" r="4" fill="#66ffbd" />
<circle cx="1202.7118644067796" cy="846.905883550677" r="4" fill="#66ffbd" />
<circle cx="1227.1186440677966" cy="849.0975223745222" r="4" fill="#66ffbd" />
<circle cx="1251.5254237288136" cy="849.9934287856211" r="4" fill="#66ffbd" />
<circle cx="1275.9322033898304" cy="852.2368969059761" r="4" fill="#66ffbd" />
<circle cx="1300.3389830508474" cy="845.6101511379308" r="4" fill="#66ffbd" />
<circle cx="1324.7457627118642" cy="839.6127611132192" r="4" fill="#66ffbd" />
<circle cx="1349.1525423728813" cy="835.1924625394504" r="4" fill="#66ffbd" />
<circle cx="1373.5593220338983" cy="824.3379270132442" r="4" fill="#66ffbd" />
<circle cx="1397.966101694915" cy="820.7172804427703" r="4" fill="#66ffbd" />
<circle cx="1422.3728813559321" cy="814.7717197145687" r="4" fill="#66ffbd" />
<circle cx="1446.7796610169491" cy="805.7904430479329" r="4" fill="#66ffbd" />
<circle cx="1471.186440677966" cy="800.0744120614177" r="4" fill="#66ffbd" />
<circle cx="1495.593220338983" cy="800.1484539135747" r="4" fill="#66ffbd" />
<circle cx="1520.0" cy="863.1876868399863" r="4" fill="#66ffbd" />
<path d="M 80.0 920.0 L 104.40677966101694 686.8496117430377 L 128.81355932203388 708.6549372032541 L 153.22033898305085 722.004683147149 L 177.6271186440678 732.0003331883347 L 202.03389830508473 734.5251603468861 L 226.4406779661017 741.0778642627745 L 250.84745762711864 745.9127972086221 L 275.2542372881356 752.2359713828241 L 299.66101694915255 757.2486047738485 L 324.06779661016947 760.7878053069497 L 348.47457627118644 764.1493053948744 L 372.8813559322034 766.066989365739 L 397.2881355932203 771.3980027210381 L 421.6949152542373 779.7795403852027 L 446.1016949152542 786.3026275602284 L 470.50847457627117 790.7747554305071 L 494.91525423728814 797.8901774227883 L 519.3220338983051 798.7046377965145 L 543.728813559322 800.2891334326728 L 568.1355932203389 803.1101279998519 L 592.542372881356 807.8488065378956 L 616.9491525423729 809.1445389506418 L 641.3559322033898 811.721195405703 L 665.7627118644068 814.4681481207252 L 690.1694915254237 810.7142262163688 L 714.5762711864406 816.3636195359427 L 738.9830508474575 817.6963728747675 L 763.3898305084746 820.7617055540644 L 787.7966101694915 822.7016020805761 L 812.2033898305084 825.2116208686961 L 836.6101694915254 826.151952391089 L 861.0169491525423 832.1493424158006 L 885.4237288135593 833.0082279008209 L 909.8305084745763 834.4816607587438 L 934.2372881355932 836.2808777661573 L 958.6440677966101 837.3841013632956 L 983.0508474576271 838.6724295908263 L 1007.457627118644 840.6641554138477 L 1031.8644067796608 839.7978657436116 L 1056.2711864406779 841.478615787574 L 1080.677966101695 842.8854109785557 L 1105.084745762712 845.2325376919304 L 1129.4915254237287 846.0914231769508 L 1153.8983050847457 846.3431654742843 L 1178.3050847457628 848.1201699260507 L 1202.7118644067796 846.905883550677 L 1227.1186440677966 849.0975223745222 L 1251.5254237288136 849.9934287856211 L 1275.9322033898304 852.2368969059761 L 1300.3389830508474 845.6101511379308 L 1324.7457627118642 839.6127611132192 L 1349.1525423728813 835.1924625394504 L 1373.5593220338983 824.3379270132442 L 1397.966101694915 820.7172804427703 L 1422.3728813559321 814.7717197145687 L 1446.7796610169491 805.7904430479329 L 1471.186440677966 800.0744120614177 L 1495.593220338983 800.1484539135747 L 1520.0 863.1876868399863" fill="none" stroke="#66ffbd" stroke-width="2" />
<text x="80.0" y="940" text-anchor="middle" font-size="12">08-06</text>
<text x="202.03389830508473" y="940" text-anchor="middle" font-size="12">08-11</text>
<text x="324.06779661016947" y="940" text-anchor="middle" font-size="12">08-16</text>
<text x="446.1016949152542" y="940" text-anchor="middle" font-size="12">08-21</text>
<text x="568.1355932203389" y="940" text-anchor="middle" font-size="12">08-26</text>
<text x="690.1694915254237" y="940" text-anchor="middle" font-size="12">08-31</text>
<text x="812.2033898305084" y="940" text-anchor="middle" font-size="12">09-05</text>
<text x="934.2372881355932" y="940" text-anchor="middle" font-size="12">09-10</text>
<text x="1056.2711864406779" y="940" text-anchor="middle" font-size="12">09-15</text>
<text x="1178.3050847457628" y="940" text-anchor="middle" font-size="12">09-20</text>
<text x="1300.3389830508474" y="940" text-anchor="middle" font-size="12">09-25</text>
<text x="1422.3728813559321" y="940" text-anchor="middle" font-size="12">09-30</text>
<text x="1520.0" y="940" text-anchor="middle" font-size="12">10-04</text>
<rect x="90" y="100" width="130" height="185" class="legend-box" />
<text x="100" y="120" class="legend-item">图例:</text>
<rect x="100" y="137" width="15" height="15" fill="#1f77b4" rx="3" />
<text x="120" y="145" class="legend-item">构件聚合数据</text>
<rect x="100" y="162" width="15" height="15" fill="#ff7f0e" rx="3" />
<text x="120" y="170" class="legend-item">构件基本信息</text>
<rect x="100" y="187" width="15" height="15" fill="#2ca02c" rx="3" />
<text x="120" y="195" class="legend-item">构件徽标</text>
<rect x="100" y="212" width="15" height="15" fill="#d62728" rx="3" />
<text x="120" y="220" class="legend-item">构件扩展元数据</text>
<rect x="100" y="237" width="15" height="15" fill="#9467bd" rx="3" />
<text x="120" y="245" class="legend-item">构件版本信息</text>
<rect x="100" y="262" width="15" height="15" fill="#66ffbd" rx="3" />
<text x="120" y="270" class="legend-item">数据量偏差</text>
<rect x="100" y="980" width="15" height="15" fill="#1f77b4" rx="3" />
<text x="125" y="990" class="legend-item">100374</text>
<rect x="300" y="980" width="15" height="15" fill="#ff7f0e" rx="3" />
<text x="325" y="990" class="legend-item">107811</text>
<rect x="500" y="980" width="15" height="15" fill="#2ca02c" rx="3" />
<text x="525" y="990" class="legend-item">108047</text>
<rect x="700" y="980" width="15" height="15" fill="#d62728" rx="3" />
<text x="725" y="990" class="legend-item">100501</text>
<rect x="900" y="980" width="15" height="15" fill="#9467bd" rx="3" />
<text x="925" y="990" class="legend-item">100561</text>
<rect x="1100" y="980" width="15" height="15" fill="#66ffbd" rx="3" />
<text x="1125" y="990" class="legend-item">7673</text>
<text x="1520" y="990" text-anchor="end" font-size="11" fill="#666">生成时间: 2025-10-04 07:44:28</text>
</svg>