<svg xmlns="http://www.w3.org/2000/svg" width="1600" height="1000" viewBox="0 0 1600 1000">
<style>
  text {
    font-family: Arial, sans-serif;
    font-size: 12px;
    fill: #333;
  }
  .axis-label { font-size: 14px; }
  .title { font-size: 18px; font-weight: bold; }
  .legend-item { font-size: 11px; }
  .legend-box { fill: white; fill-opacity: 0.85; stroke: #cccccc; stroke-width: 1; rx: 5; }
</style>
<text x="800.0" y="30" text-anchor="middle" class="title">Daily Data Growth Trend</text>
<text x="800.0" y="980" text-anchor="middle" class="axis-label">Date</text>
<g transform="rotate(-90)">
<text x="-500.0" y="20" text-anchor="middle" class="axis-label">Count</text>
</g>
<rect x="0" y="0" width="1600" height="1000" fill="#f8f8f8" />
<line x1="80" y1="920.0" x2="1520" y2="920.0" stroke="#e0e0e0" stroke-width="1" />
<text x="70" y="925.0" text-anchor="end">0</text>
<line x1="80" y1="752.0" x2="1520" y2="752.0" stroke="#e0e0e0" stroke-width="1" />
<text x="70" y="757.0" text-anchor="end">18.9k</text>
<line x1="80" y1="584.0" x2="1520" y2="584.0" stroke="#e0e0e0" stroke-width="1" />
<text x="70" y="589.0" text-anchor="end">37.8k</text>
<line x1="80" y1="416.0" x2="1520" y2="416.0" stroke="#e0e0e0" stroke-width="1" />
<text x="70" y="421.0" text-anchor="end">56.6k</text>
<line x1="80" y1="248.0" x2="1520" y2="248.0" stroke="#e0e0e0" stroke-width="1" />
<text x="70" y="253.0" text-anchor="end">75.5k</text>
<line x1="80" y1="80.0" x2="1520" y2="80.0" stroke="#e0e0e0" stroke-width="1" />
<text x="70" y="85.0" text-anchor="end">94.4k</text>
<line x1="80" y1="80" x2="80" y2="920" stroke="#333333" stroke-width="2" />
<line x1="80" y1="920" x2="1520" y2="920" stroke="#333333" stroke-width="2" />
<circle cx="80.0" cy="920.0" r="4" fill="#1f77b4" />
<circle cx="115.1219512195122" cy="876.4998776336574" r="4" fill="#1f77b4" />
<circle cx="150.2439024390244" cy="784.3112999755267" r="4" fill="#1f77b4" />
<circle cx="185.3658536585366" cy="747.2276236456271" r="4" fill="#1f77b4" />
<circle cx="220.4878048780488" cy="724.9080027588047" r="4" fill="#1f77b4" />
<circle cx="255.609756097561" cy="713.703695463546" r="4" fill="#1f77b4" />
<circle cx="290.7317073170732" cy="691.3840745767237" r="4" fill="#1f77b4" />
<circle cx="325.8536585365854" cy="667.2934789863617" r="4" fill="#1f77b4" />
<circle cx="360.9756097560976" cy="645.0895499143435" r="4" fill="#1f77b4" />
<circle cx="396.0975609756098" cy="626.9882305826862" r="4" fill="#1f77b4" />
<circle cx="431.219512195122" cy="610.4798985471778" r="4" fill="#1f77b4" />
<circle cx="466.3414634146342" cy="600.1032326962868" r="4" fill="#1f77b4" />
<circle cx="501.4634146341464" cy="589.8333592898302" r="4" fill="#1f77b4" />
<circle cx="536.5853658536586" cy="574.3929516986673" r="4" fill="#1f77b4" />
<circle cx="571.7073170731708" cy="552.4649031081051" r="4" fill="#1f77b4" />
<circle cx="606.829268292683" cy="528.7480810732641" r="4" fill="#1f77b4" />
<circle cx="641.9512195121952" cy="513.0050948895366" r="4" fill="#1f77b4" />
<circle cx="677.0731707317074" cy="491.45971922486484" r="4" fill="#1f77b4" />
<circle cx="712.1951219512196" cy="482.56034885531847" r="4" fill="#1f77b4" />
<circle cx="747.3170731707318" cy="474.3640287449663" r="4" fill="#1f77b4" />
<circle cx="782.439024390244" cy="456.73437604289495" r="4" fill="#1f77b4" />
<circle cx="817.5609756097562" cy="439.39840256301864" r="4" fill="#1f77b4" />
<circle cx="852.6829268292684" cy="424.0469886755512" r="4" fill="#1f77b4" />
<circle cx="887.8048780487806" cy="402.8575878256613" r="4" fill="#1f77b4" />
<circle cx="922.9268292682927" cy="388.27151978997483" r="4" fill="#1f77b4" />
<circle cx="958.048780487805" cy="379.28315571673306" r="4" fill="#1f77b4" />
<circle cx="993.1707317073171" cy="369.1467728658197" r="4" fill="#1f77b4" />
<circle cx="1028.2926829268295" cy="356.1269940151734" r="4" fill="#1f77b4" />
<circle cx="1063.4146341463415" cy="344.8247936458496" r="4" fill="#1f77b4" />
<circle cx="1098.5365853658536" cy="335.222373017109" r="4" fill="#1f77b4" />
<circle cx="1133.658536585366" cy="318.9187265001001" r="4" fill="#1f77b4" />
<circle cx="1168.7804878048782" cy="305.6141677976283" r="4" fill="#1f77b4" />
<circle cx="1203.9024390243903" cy="285.3236033550626" r="4" fill="#1f77b4" />
<circle cx="1239.0243902439024" cy="279.37882394820565" r="4" fill="#1f77b4" />
<circle cx="1274.1463414634147" cy="272.63310120808956" r="4" fill="#1f77b4" />
<circle cx="1309.268292682927" cy="263.6892339866954" r="4" fill="#1f77b4" />
<circle cx="1344.3902439024391" cy="256.49854272810194" r="4" fill="#1f77b4" />
<circle cx="1379.5121951219512" cy="245.8103989142768" r="4" fill="#1f77b4" />
<circle cx="1414.6341463414635" cy="233.8229470264979" r="4" fill="#1f77b4" />
<circle cx="1449.7560975609758" cy="228.37653236033543" r="4" fill="#1f77b4" />
<circle cx="1484.878048780488" cy="222.46735043495676" r="4" fill="#1f77b4" />
<circle cx="1520.0" cy="212.6869423988253" r="4" fill="#1f77b4" />
<path d="M 80.0 920.0 L 115.1219512195122 876.4998776336574 L 150.2439024390244 784.3112999755267 L 185.3658536585366 747.2276236456271 L 220.4878048780488 724.9080027588047 L 255.609756097561 713.703695463546 L 290.7317073170732 691.3840745767237 L 325.8536585365854 667.2934789863617 L 360.9756097560976 645.0895499143435 L 396.0975609756098 626.9882305826862 L 431.219512195122 610.4798985471778 L 466.3414634146342 600.1032326962868 L 501.4634146341464 589.8333592898302 L 536.5853658536586 574.3929516986673 L 571.7073170731708 552.4649031081051 L 606.829268292683 528.7480810732641 L 641.9512195121952 513.0050948895366 L 677.0731707317074 491.45971922486484 L 712.1951219512196 482.56034885531847 L 747.3170731707318 474.3640287449663 L 782.439024390244 456.73437604289495 L 817.5609756097562 439.39840256301864 L 852.6829268292684 424.0469886755512 L 887.8048780487806 402.8575878256613 L 922.9268292682927 388.27151978997483 L 958.048780487805 379.28315571673306 L 993.1707317073171 369.1467728658197 L 1028.2926829268295 356.1269940151734 L 1063.4146341463415 344.8247936458496 L 1098.5365853658536 335.222373017109 L 1133.658536585366 318.9187265001001 L 1168.7804878048782 305.6141677976283 L 1203.9024390243903 285.3236033550626 L 1239.0243902439024 279.37882394820565 L 1274.1463414634147 272.63310120808956 L 1309.268292682927 263.6892339866954 L 1344.3902439024391 256.49854272810194 L 1379.5121951219512 245.8103989142768 L 1414.6341463414635 233.8229470264979 L 1449.7560975609758 228.37653236033543 L 1484.878048780488 222.46735043495676 L 1520.0 212.6869423988253" fill="none" stroke="#1f77b4" stroke-width="2" />
<circle cx="80.0" cy="920.0" r="4" fill="#ff7f0e" />
<circle cx="115.1219512195122" cy="602.5060626960642" r="4" fill="#ff7f0e" />
<circle cx="150.2439024390244" cy="536.2680490355308" r="4" fill="#ff7f0e" />
<circle cx="185.3658536585366" cy="515.0252519634236" r="4" fill="#ff7f0e" />
<circle cx="220.4878048780488" cy="504.55959240883703" r="4" fill="#ff7f0e" />
<circle cx="255.609756097561" cy="496.37217166885443" r="4" fill="#ff7f0e" />
<circle cx="290.7317073170732" cy="481.7772042627984" r="4" fill="#ff7f0e" />
<circle cx="325.8536585365854" cy="463.2576145237724" r="4" fill="#ff7f0e" />
<circle cx="360.9756097560976" cy="448.4846597103255" r="4" fill="#ff7f0e" />
<circle cx="396.0975609756098" cy="436.31032104478606" r="4" fill="#ff7f0e" />
<circle cx="431.219512195122" cy="423.9935924533339" r="4" fill="#ff7f0e" />
<circle cx="466.3414634146342" cy="417.5593476761519" r="4" fill="#ff7f0e" />
<circle cx="501.4634146341464" cy="409.59441119540793" r="4" fill="#ff7f0e" />
<circle cx="536.5853658536586" cy="400.53485215920966" r="4" fill="#ff7f0e" />
<circle cx="571.7073170731708" cy="388.4139097158876" r="4" fill="#ff7f0e" />
<circle cx="606.829268292683" cy="372.19035753220453" r="4" fill="#ff7f0e" />
<circle cx="641.9512195121952" cy="361.7780941998353" r="4" fill="#ff7f0e" />
<circle cx="677.0731707317074" cy="348.7761140899281" r="4" fill="#ff7f0e" />
<circle cx="712.1951219512196" cy="340.86457383140146" r="4" fill="#ff7f0e" />
<circle cx="747.3170731707318" cy="334.554920239393" r="4" fill="#ff7f0e" />
<circle cx="782.439024390244" cy="320.21803457405383" r="4" fill="#ff7f0e" />
<circle cx="817.5609756097562" cy="308.5509600195786" r="4" fill="#ff7f0e" />
<circle cx="852.6829268292684" cy="294.73913720604264" r="4" fill="#ff7f0e" />
<circle cx="887.8048780487806" cy="276.6200191336462" r="4" fill="#ff7f0e" />
<circle cx="922.9268292682927" cy="265.30002002358333" r="4" fill="#ff7f0e" />
<circle cx="958.048780487805" cy="251.79077580261196" r="4" fill="#ff7f0e" />
<circle cx="993.1707317073171" cy="248.43571317329292" r="4" fill="#ff7f0e" />
<circle cx="1028.2926829268295" cy="237.0089216187954" r="4" fill="#ff7f0e" />
<circle cx="1063.4146341463415" cy="229.3643624713551" r="4" fill="#ff7f0e" />
<circle cx="1098.5365853658536" cy="222.04908002758805" r="4" fill="#ff7f0e" />
<circle cx="1133.658536585366" cy="208.45084210292123" r="4" fill="#ff7f0e" />
<circle cx="1168.7804878048782" cy="196.2409059559036" r="4" fill="#ff7f0e" />
<circle cx="1203.9024390243903" cy="182.78505795714955" r="4" fill="#ff7f0e" />
<circle cx="1239.0243902439024" cy="177.8726055131599" r="4" fill="#ff7f0e" />
<circle cx="1274.1463414634147" cy="172.83556188399666" r="4" fill="#ff7f0e" />
<circle cx="1309.268292682927" cy="166.04534229203284" r="4" fill="#ff7f0e" />
<circle cx="1344.3902439024391" cy="160.15395910739312" r="4" fill="#ff7f0e" />
<circle cx="1379.5121951219512" cy="151.014305737869" r="4" fill="#ff7f0e" />
<circle cx="1414.6341463414635" cy="141.3762876276503" r="4" fill="#ff7f0e" />
<circle cx="1449.7560975609758" cy="134.8797472578815" r="4" fill="#ff7f0e" />
<circle cx="1484.878048780488" cy="130.99072240638975" r="4" fill="#ff7f0e" />
<circle cx="1520.0" cy="122.89229537010249" r="4" fill="#ff7f0e" />
<path d="M 80.0 920.0 L 115.1219512195122 602.5060626960642 L 150.2439024390244 536.2680490355308 L 185.3658536585366 515.0252519634236 L 220.4878048780488 504.55959240883703 L 255.609756097561 496.37217166885443 L 290.7317073170732 481.7772042627984 L 325.8536585365854 463.2576145237724 L 360.9756097560976 448.4846597103255 L 396.0975609756098 436.31032104478606 L 431.219512195122 423.9935924533339 L 466.3414634146342 417.5593476761519 L 501.4634146341464 409.59441119540793 L 536.5853658536586 400.53485215920966 L 571.7073170731708 388.4139097158876 L 606.829268292683 372.19035753220453 L 641.9512195121952 361.7780941998353 L 677.0731707317074 348.7761140899281 L 712.1951219512196 340.86457383140146 L 747.3170731707318 334.554920239393 L 782.439024390244 320.21803457405383 L 817.5609756097562 308.5509600195786 L 852.6829268292684 294.73913720604264 L 887.8048780487806 276.6200191336462 L 922.9268292682927 265.30002002358333 L 958.048780487805 251.79077580261196 L 993.1707317073171 248.43571317329292 L 1028.2926829268295 237.0089216187954 L 1063.4146341463415 229.3643624713551 L 1098.5365853658536 222.04908002758805 L 1133.658536585366 208.45084210292123 L 1168.7804878048782 196.2409059559036 L 1203.9024390243903 182.78505795714955 L 1239.0243902439024 177.8726055131599 L 1274.1463414634147 172.83556188399666 L 1309.268292682927 166.04534229203284 L 1344.3902439024391 160.15395910739312 L 1379.5121951219512 151.014305737869 L 1414.6341463414635 141.3762876276503 L 1449.7560975609758 134.8797472578815 L 1484.878048780488 130.99072240638975 L 1520.0 122.89229537010249" fill="none" stroke="#ff7f0e" stroke-width="2" />
<circle cx="80.0" cy="920.0" r="4" fill="#2ca02c" />
<circle cx="115.1219512195122" cy="596.2676040670123" r="4" fill="#2ca02c" />
<circle cx="150.2439024390244" cy="530.2876721471955" r="4" fill="#2ca02c" />
<circle cx="185.3658536585366" cy="509.249560593588" r="4" fill="#2ca02c" />
<circle cx="220.4878048780488" cy="498.9440897056533" r="4" fill="#2ca02c" />
<circle cx="255.609756097561" cy="490.7744677064098" r="4" fill="#2ca02c" />
<circle cx="290.7317073170732" cy="476.330789596636" r="4" fill="#2ca02c" />
<circle cx="325.8536585365854" cy="458.0514828575878" r="4" fill="#2ca02c" />
<circle cx="360.9756097560976" cy="443.44761608116227" r="4" fill="#2ca02c" />
<circle cx="396.0975609756098" cy="431.3711704896878" r="4" fill="#2ca02c" />
<circle cx="431.219512195122" cy="419.1167374908225" r="4" fill="#2ca02c" />
<circle cx="466.3414634146342" cy="412.7803857877055" r="4" fill="#2ca02c" />
<circle cx="501.4634146341464" cy="404.81544930696157" r="4" fill="#2ca02c" />
<circle cx="536.5853658536586" cy="395.78258838187196" r="4" fill="#2ca02c" />
<circle cx="571.7073170731708" cy="383.92862704963625" r="4" fill="#2ca02c" />
<circle cx="606.829268292683" cy="368.0521503103655" r="4" fill="#2ca02c" />
<circle cx="641.9512195121952" cy="357.684383829844" r="4" fill="#2ca02c" />
<circle cx="677.0731707317074" cy="344.6913030903063" r="4" fill="#2ca02c" />
<circle cx="712.1951219512196" cy="336.77086346141004" r="4" fill="#2ca02c" />
<circle cx="747.3170731707318" cy="330.4790086101408" r="4" fill="#2ca02c" />
<circle cx="782.439024390244" cy="316.24001601886664" r="4" fill="#2ca02c" />
<circle cx="817.5609756097562" cy="304.59963957549996" r="4" fill="#2ca02c" />
<circle cx="852.6829268292684" cy="290.8056155027032" r="4" fill="#2ca02c" />
<circle cx="887.8048780487806" cy="272.7131955414154" r="4" fill="#2ca02c" />
<circle cx="922.9268292682927" cy="261.42879391283066" r="4" fill="#2ca02c" />
<circle cx="958.048780487805" cy="247.92844906222888" r="4" fill="#2ca02c" />
<circle cx="993.1707317073171" cy="244.58228580327943" r="4" fill="#2ca02c" />
<circle cx="1028.2926829268295" cy="233.16439361915138" r="4" fill="#2ca02c" />
<circle cx="1063.4146341463415" cy="225.54653258281974" r="4" fill="#2ca02c" />
<circle cx="1098.5365853658536" cy="218.27574699090042" r="4" fill="#2ca02c" />
<circle cx="1133.658536585366" cy="204.98898702916767" r="4" fill="#2ca02c" />
<circle cx="1168.7804878048782" cy="192.8146483636283" r="4" fill="#2ca02c" />
<circle cx="1203.9024390243903" cy="179.7325739203951" r="4" fill="#2ca02c" />
<circle cx="1239.0243902439024" cy="174.82012147640557" r="4" fill="#2ca02c" />
<circle cx="1274.1463414634147" cy="169.84537343982913" r="4" fill="#2ca02c" />
<circle cx="1309.268292682927" cy="163.0640532182348" r="4" fill="#2ca02c" />
<circle cx="1344.3902439024391" cy="157.19936814470373" r="4" fill="#2ca02c" />
<circle cx="1379.5121951219512" cy="148.0597147751796" r="4" fill="#2ca02c" />
<circle cx="1414.6341463414635" cy="138.46619351680863" r="4" fill="#2ca02c" />
<circle cx="1449.7560975609758" cy="131.9785525174094" r="4" fill="#2ca02c" />
<circle cx="1484.878048780488" cy="128.08952766591756" r="4" fill="#2ca02c" />
<circle cx="1520.0" cy="120.0" r="4" fill="#2ca02c" />
<path d="M 80.0 920.0 L 115.1219512195122 596.2676040670123 L 150.2439024390244 530.2876721471955 L 185.3658536585366 509.249560593588 L 220.4878048780488 498.9440897056533 L 255.609756097561 490.7744677064098 L 290.7317073170732 476.330789596636 L 325.8536585365854 458.0514828575878 L 360.9756097560976 443.44761608116227 L 396.0975609756098 431.3711704896878 L 431.219512195122 419.1167374908225 L 466.3414634146342 412.7803857877055 L 501.4634146341464 404.81544930696157 L 536.5853658536586 395.78258838187196 L 571.7073170731708 383.92862704963625 L 606.829268292683 368.0521503103655 L 641.9512195121952 357.684383829844 L 677.0731707317074 344.6913030903063 L 712.1951219512196 336.77086346141004 L 747.3170731707318 330.4790086101408 L 782.439024390244 316.24001601886664 L 817.5609756097562 304.59963957549996 L 852.6829268292684 290.8056155027032 L 887.8048780487806 272.7131955414154 L 922.9268292682927 261.42879391283066 L 958.048780487805 247.92844906222888 L 993.1707317073171 244.58228580327943 L 1028.2926829268295 233.16439361915138 L 1063.4146341463415 225.54653258281974 L 1098.5365853658536 218.27574699090042 L 1133.658536585366 204.98898702916767 L 1168.7804878048782 192.8146483636283 L 1203.9024390243903 179.7325739203951 L 1239.0243902439024 174.82012147640557 L 1274.1463414634147 169.84537343982913 L 1309.268292682927 163.0640532182348 L 1344.3902439024391 157.19936814470373 L 1379.5121951219512 148.0597147751796 L 1414.6341463414635 138.46619351680863 L 1449.7560975609758 131.9785525174094 L 1484.878048780488 128.08952766591756 L 1520.0 120.0" fill="none" stroke="#2ca02c" stroke-width="2" />
<circle cx="80.0" cy="920.0" r="4" fill="#d62728" />
<circle cx="115.1219512195122" cy="857.1882439317418" r="4" fill="#d62728" />
<circle cx="150.2439024390244" cy="766.2811756068259" r="4" fill="#d62728" />
<circle cx="185.3658536585366" cy="734.8219013504795" r="4" fill="#d62728" />
<circle cx="220.4878048780488" cy="712.5467773155049" r="4" fill="#d62728" />
<circle cx="255.609756097561" cy="701.4403630943111" r="4" fill="#d62728" />
<circle cx="290.7317073170732" cy="679.5746100963356" r="4" fill="#d62728" />
<circle cx="325.8536585365854" cy="656.6053351725366" r="4" fill="#d62728" />
<circle cx="360.9756097560976" cy="635.4604311744944" r="4" fill="#d62728" />
<circle cx="396.0975609756098" cy="617.7417847687276" r="4" fill="#d62728" />
<circle cx="431.219512195122" cy="601.2868489554364" r="4" fill="#d62728" />
<circle cx="466.3414634146342" cy="590.9279818452844" r="4" fill="#d62728" />
<circle cx="501.4634146341464" cy="580.6670078091975" r="4" fill="#d62728" />
<circle cx="536.5853658536586" cy="565.9919460698155" r="4" fill="#d62728" />
<circle cx="571.7073170731708" cy="544.3219792199702" r="4" fill="#d62728" />
<circle cx="606.829268292683" cy="521.0056288517587" r="4" fill="#d62728" />
<circle cx="641.9512195121952" cy="506.01018977907313" r="4" fill="#d62728" />
<circle cx="677.0731707317074" cy="484.73179522548776" r="4" fill="#d62728" />
<circle cx="712.1951219512196" cy="475.83242485594144" r="4" fill="#d62728" />
<circle cx="747.3170731707318" cy="467.7250984492847" r="4" fill="#d62728" />
<circle cx="782.439024390244" cy="450.30903063608247" r="4" fill="#d62728" />
<circle cx="817.5609756097562" cy="434.02318285981266" r="4" fill="#d62728" />
<circle cx="852.6829268292684" cy="418.734064564932" r="4" fill="#d62728" />
<circle cx="887.8048780487806" cy="397.5624624557812" r="4" fill="#d62728" />
<circle cx="922.9268292682927" cy="383.4569604200502" r="4" fill="#d62728" />
<circle cx="958.048780487805" cy="374.46859634680845" r="4" fill="#d62728" />
<circle cx="993.1707317073171" cy="364.3233141255256" r="4" fill="#d62728" />
<circle cx="1028.2926829268295" cy="351.3035352748793" r="4" fill="#d62728" />
<circle cx="1063.4146341463415" cy="340.7577813869668" r="4" fill="#d62728" />
<circle cx="1098.5365853658536" cy="331.17315949896545" r="4" fill="#d62728" />
<circle cx="1133.658536585366" cy="314.90511046343465" r="4" fill="#d62728" />
<circle cx="1168.7804878048782" cy="301.60945113133243" r="4" fill="#d62728" />
<circle cx="1203.9024390243903" cy="281.42567913320136" r="4" fill="#d62728" />
<circle cx="1239.0243902439024" cy="275.507597837453" r="4" fill="#d62728" />
<circle cx="1274.1463414634147" cy="268.7618750973369" r="4" fill="#d62728" />
<circle cx="1309.268292682927" cy="259.88030346852963" r="4" fill="#d62728" />
<circle cx="1344.3902439024391" cy="252.68071283956658" r="4" fill="#d62728" />
<circle cx="1379.5121951219512" cy="242.04596524795863" r="4" fill="#d62728" />
<circle cx="1414.6341463414635" cy="230.72596613789574" r="4" fill="#d62728" />
<circle cx="1449.7560975609758" cy="225.30624958284204" r="4" fill="#d62728" />
<circle cx="1484.878048780488" cy="219.39706765746325" r="4" fill="#d62728" />
<circle cx="1520.0" cy="209.64335773244045" r="4" fill="#d62728" />
<path d="M 80.0 920.0 L 115.1219512195122 857.1882439317418 L 150.2439024390244 766.2811756068259 L 185.3658536585366 734.8219013504795 L 220.4878048780488 712.5467773155049 L 255.609756097561 701.4403630943111 L 290.7317073170732 679.5746100963356 L 325.8536585365854 656.6053351725366 L 360.9756097560976 635.4604311744944 L 396.0975609756098 617.7417847687276 L 431.219512195122 601.2868489554364 L 466.3414634146342 590.9279818452844 L 501.4634146341464 580.6670078091975 L 536.5853658536586 565.9919460698155 L 571.7073170731708 544.3219792199702 L 606.829268292683 521.0056288517587 L 641.9512195121952 506.01018977907313 L 677.0731707317074 484.73179522548776 L 712.1951219512196 475.83242485594144 L 747.3170731707318 467.7250984492847 L 782.439024390244 450.30903063608247 L 817.5609756097562 434.02318285981266 L 852.6829268292684 418.734064564932 L 887.8048780487806 397.5624624557812 L 922.9268292682927 383.4569604200502 L 958.048780487805 374.46859634680845 L 993.1707317073171 364.3233141255256 L 1028.2926829268295 351.3035352748793 L 1063.4146341463415 340.7577813869668 L 1098.5365853658536 331.17315949896545 L 1133.658536585366 314.90511046343465 L 1168.7804878048782 301.60945113133243 L 1203.9024390243903 281.42567913320136 L 1239.0243902439024 275.507597837453 L 1274.1463414634147 268.7618750973369 L 1309.268292682927 259.88030346852963 L 1344.3902439024391 252.68071283956658 L 1379.5121951219512 242.04596524795863 L 1414.6341463414635 230.72596613789574 L 1449.7560975609758 225.30624958284204 L 1484.878048780488 219.39706765746325 L 1520.0 209.64335773244045" fill="none" stroke="#d62728" stroke-width="2" />
<circle cx="80.0" cy="920.0" r="4" fill="#9467bd" />
<circle cx="115.1219512195122" cy="863.8182748570539" r="4" fill="#9467bd" />
<circle cx="150.2439024390244" cy="772.5641310877255" r="4" fill="#9467bd" />
<circle cx="185.3658536585366" cy="735.5694484615213" r="4" fill="#9467bd" />
<circle cx="220.4878048780488" cy="713.2231294635905" r="4" fill="#9467bd" />
<circle cx="255.609756097561" cy="703.2558346496985" r="4" fill="#9467bd" />
<circle cx="290.7317073170732" cy="681.2031948739627" r="4" fill="#9467bd" />
<circle cx="325.8536585365854" cy="657.1748948761875" r="4" fill="#9467bd" />
<circle cx="360.9756097560976" cy="635.4337330633857" r="4" fill="#9467bd" />
<circle cx="396.0975609756098" cy="617.519300509489" r="4" fill="#9467bd" />
<circle cx="431.219512195122" cy="601.2512514739583" r="4" fill="#9467bd" />
<circle cx="466.3414634146342" cy="590.8834849934367" r="4" fill="#9467bd" />
<circle cx="501.4634146341464" cy="580.5513159943935" r="4" fill="#9467bd" />
<circle cx="536.5853658536586" cy="565.199902106926" r="4" fill="#9467bd" />
<circle cx="571.7073170731708" cy="543.6901239237324" r="4" fill="#9467bd" />
<circle cx="606.829268292683" cy="519.9199056666741" r="4" fill="#9467bd" />
<circle cx="641.9512195121952" cy="504.5150955569893" r="4" fill="#9467bd" />
<circle cx="677.0731707317074" cy="486.022203929072" r="4" fill="#9467bd" />
<circle cx="712.1951219512196" cy="477.1139341891561" r="4" fill="#9467bd" />
<circle cx="747.3170731707318" cy="468.9176140788039" r="4" fill="#9467bd" />
<circle cx="782.439024390244" cy="451.24346452488487" r="4" fill="#9467bd" />
<circle cx="817.5609756097562" cy="434.45035263755085" r="4" fill="#9467bd" />
<circle cx="852.6829268292684" cy="419.1790330834093" r="4" fill="#9467bd" />
<circle cx="887.8048780487806" cy="397.9273366409326" r="4" fill="#9467bd" />
<circle cx="922.9268292682927" cy="383.61714908670206" r="4" fill="#9467bd" />
<circle cx="958.048780487805" cy="374.65548312456895" r="4" fill="#9467bd" />
<circle cx="993.1707317073171" cy="364.5102009032861" r="4" fill="#9467bd" />
<circle cx="1028.2926829268295" cy="351.47262331190063" r="4" fill="#9467bd" />
<circle cx="1063.4146341463415" cy="340.5797939795759" r="4" fill="#9467bd" />
<circle cx="1098.5365853658536" cy="330.99517209157455" r="4" fill="#9467bd" />
<circle cx="1133.658536585366" cy="314.9496073152824" r="4" fill="#9467bd" />
<circle cx="1168.7804878048782" cy="301.95652657574476" r="4" fill="#9467bd" />
<circle cx="1203.9024390243903" cy="281.65706276280946" r="4" fill="#9467bd" />
<circle cx="1239.0243902439024" cy="275.6855852448439" r="4" fill="#9467bd" />
<circle cx="1274.1463414634147" cy="269.2157429861837" r="4" fill="#9467bd" />
<circle cx="1309.268292682927" cy="260.3074732462678" r="4" fill="#9467bd" />
<circle cx="1344.3902439024391" cy="253.0811845061961" r="4" fill="#9467bd" />
<circle cx="1379.5121951219512" cy="242.3663425812623" r="4" fill="#9467bd" />
<circle cx="1414.6341463414635" cy="230.3788906934834" r="4" fill="#9467bd" />
<circle cx="1449.7560975609758" cy="224.93247602732106" r="4" fill="#9467bd" />
<circle cx="1484.878048780488" cy="219.02329410194227" r="4" fill="#9467bd" />
<circle cx="1520.0" cy="209.26068480654988" r="4" fill="#9467bd" />
<path d="M 80.0 920.0 L 115.1219512195122 863.8182748570539 L 150.2439024390244 772.5641310877255 L 185.3658536585366 735.5694484615213 L 220.4878048780488 713.2231294635905 L 255.609756097561 703.2558346496985 L 290.7317073170732 681.2031948739627 L 325.8536585365854 657.1748948761875 L 360.9756097560976 635.4337330633857 L 396.0975609756098 617.519300509489 L 431.219512195122 601.2512514739583 L 466.3414634146342 590.8834849934367 L 501.4634146341464 580.5513159943935 L 536.5853658536586 565.199902106926 L 571.7073170731708 543.6901239237324 L 606.829268292683 519.9199056666741 L 641.9512195121952 504.5150955569893 L 677.0731707317074 486.022203929072 L 712.1951219512196 477.1139341891561 L 747.3170731707318 468.9176140788039 L 782.439024390244 451.24346452488487 L 817.5609756097562 434.45035263755085 L 852.6829268292684 419.1790330834093 L 887.8048780487806 397.9273366409326 L 922.9268292682927 383.61714908670206 L 958.048780487805 374.65548312456895 L 993.1707317073171 364.5102009032861 L 1028.2926829268295 351.47262331190063 L 1063.4146341463415 340.5797939795759 L 1098.5365853658536 330.99517209157455 L 1133.658536585366 314.9496073152824 L 1168.7804878048782 301.95652657574476 L 1203.9024390243903 281.65706276280946 L 1239.0243902439024 275.6855852448439 L 1274.1463414634147 269.2157429861837 L 1309.268292682927 260.3074732462678 L 1344.3902439024391 253.0811845061961 L 1379.5121951219512 242.3663425812623 L 1414.6341463414635 230.3788906934834 L 1449.7560975609758 224.93247602732106 L 1484.878048780488 219.02329410194227 L 1520.0 209.26068480654988" fill="none" stroke="#9467bd" stroke-width="2" />
<circle cx="80.0" cy="920.0" r="4" fill="#66ffbd" />
<circle cx="115.1219512195122" cy="639.7677264333548" r="4" fill="#66ffbd" />
<circle cx="150.2439024390244" cy="665.9763721716688" r="4" fill="#66ffbd" />
<circle cx="185.3658536585366" cy="682.021936947961" r="4" fill="#66ffbd" />
<circle cx="220.4878048780488" cy="694.0360869468485" r="4" fill="#66ffbd" />
<circle cx="255.609756097561" cy="697.0707722428638" r="4" fill="#66ffbd" />
<circle cx="290.7317073170732" cy="704.9467150199123" r="4" fill="#66ffbd" />
<circle cx="325.8536585365854" cy="710.758003871226" r="4" fill="#66ffbd" />
<circle cx="360.9756097560976" cy="718.3580661668187" r="4" fill="#66ffbd" />
<circle cx="396.0975609756098" cy="724.3829399070016" r="4" fill="#66ffbd" />
<circle cx="431.219512195122" cy="728.6368389436448" r="4" fill="#66ffbd" />
<circle cx="466.3414634146342" cy="732.6771530914187" r="4" fill="#66ffbd" />
<circle cx="501.4634146341464" cy="734.9820900171312" r="4" fill="#66ffbd" />
<circle cx="536.5853658536586" cy="741.3896366832047" r="4" fill="#66ffbd" />
<circle cx="571.7073170731708" cy="751.4637239415312" r="4" fill="#66ffbd" />
<circle cx="606.829268292683" cy="759.3040692371014" r="4" fill="#66ffbd" />
<circle cx="641.9512195121952" cy="764.6792889403075" r="4" fill="#66ffbd" />
<circle cx="677.0731707317074" cy="773.2315838654415" r="4" fill="#66ffbd" />
<circle cx="712.1951219512196" cy="774.2105146060916" r="4" fill="#66ffbd" />
<circle cx="747.3170731707318" cy="776.1149798651745" r="4" fill="#66ffbd" />
<circle cx="782.439024390244" cy="779.5056399759717" r="4" fill="#66ffbd" />
<circle cx="817.5609756097562" cy="785.2012370124813" r="4" fill="#66ffbd" />
<circle cx="852.6829268292684" cy="786.7586268271519" r="4" fill="#66ffbd" />
<circle cx="887.8048780487806" cy="789.8556077157541" r="4" fill="#66ffbd" />
<circle cx="922.9268292682927" cy="793.1572741228558" r="4" fill="#66ffbd" />
<circle cx="958.048780487805" cy="788.6452933454958" r="4" fill="#66ffbd" />
<circle cx="993.1707317073171" cy="795.4355129374596" r="4" fill="#66ffbd" />
<circle cx="1028.2926829268295" cy="797.037399603978" r="4" fill="#66ffbd" />
<circle cx="1063.4146341463415" cy="800.7217389369703" r="4" fill="#66ffbd" />
<circle cx="1098.5365853658536" cy="803.0533739737914" r="4" fill="#66ffbd" />
<circle cx="1133.658536585366" cy="806.0702605290676" r="4" fill="#66ffbd" />
<circle cx="1168.7804878048782" cy="807.2004805659999" r="4" fill="#66ffbd" />
<circle cx="1203.9024390243903" cy="814.4089705653325" r="4" fill="#66ffbd" />
<circle cx="1239.0243902439024" cy="815.4412975281999" r="4" fill="#66ffbd" />
<circle cx="1274.1463414634147" cy="817.2122722317396" r="4" fill="#66ffbd" />
<circle cx="1309.268292682927" cy="819.3748192315394" r="4" fill="#66ffbd" />
<circle cx="1344.3902439024391" cy="820.7008254166018" r="4" fill="#66ffbd" />
<circle cx="1379.5121951219512" cy="822.2493158609028" r="4" fill="#66ffbd" />
<circle cx="1414.6341463414635" cy="824.6432464903108" r="4" fill="#66ffbd" />
<circle cx="1449.7560975609758" cy="823.6020201570739" r="4" fill="#66ffbd" />
<circle cx="1484.878048780488" cy="825.6221772309609" r="4" fill="#66ffbd" />
<circle cx="1520.0" cy="827.3130576011747" r="4" fill="#66ffbd" />
<path d="M 80.0 920.0 L 115.1219512195122 639.7677264333548 L 150.2439024390244 665.9763721716688 L 185.3658536585366 682.021936947961 L 220.4878048780488 694.0360869468485 L 255.609756097561 697.0707722428638 L 290.7317073170732 704.9467150199123 L 325.8536585365854 710.758003871226 L 360.9756097560976 718.3580661668187 L 396.0975609756098 724.3829399070016 L 431.219512195122 728.6368389436448 L 466.3414634146342 732.6771530914187 L 501.4634146341464 734.9820900171312 L 536.5853658536586 741.3896366832047 L 571.7073170731708 751.4637239415312 L 606.829268292683 759.3040692371014 L 641.9512195121952 764.6792889403075 L 677.0731707317074 773.2315838654415 L 712.1951219512196 774.2105146060916 L 747.3170731707318 776.1149798651745 L 782.439024390244 779.5056399759717 L 817.5609756097562 785.2012370124813 L 852.6829268292684 786.7586268271519 L 887.8048780487806 789.8556077157541 L 922.9268292682927 793.1572741228558 L 958.048780487805 788.6452933454958 L 993.1707317073171 795.4355129374596 L 1028.2926829268295 797.037399603978 L 1063.4146341463415 800.7217389369703 L 1098.5365853658536 803.0533739737914 L 1133.658536585366 806.0702605290676 L 1168.7804878048782 807.2004805659999 L 1203.9024390243903 814.4089705653325 L 1239.0243902439024 815.4412975281999 L 1274.1463414634147 817.2122722317396 L 1309.268292682927 819.3748192315394 L 1344.3902439024391 820.7008254166018 L 1379.5121951219512 822.2493158609028 L 1414.6341463414635 824.6432464903108 L 1449.7560975609758 823.6020201570739 L 1484.878048780488 825.6221772309609 L 1520.0 827.3130576011747" fill="none" stroke="#66ffbd" stroke-width="2" />
<text x="80.0" y="940" text-anchor="middle">08-06</text>
<text x="115.1219512195122" y="940" text-anchor="middle">08-07</text>
<text x="150.2439024390244" y="940" text-anchor="middle">08-08</text>
<text x="185.3658536585366" y="940" text-anchor="middle">08-09</text>
<text x="220.4878048780488" y="940" text-anchor="middle">08-10</text>
<text x="255.609756097561" y="940" text-anchor="middle">08-11</text>
<text x="290.7317073170732" y="940" text-anchor="middle">08-12</text>
<text x="325.8536585365854" y="940" text-anchor="middle">08-13</text>
<text x="360.9756097560976" y="940" text-anchor="middle">08-14</text>
<text x="396.0975609756098" y="940" text-anchor="middle">08-15</text>
<text x="431.219512195122" y="940" text-anchor="middle">08-16</text>
<text x="466.3414634146342" y="940" text-anchor="middle">08-17</text>
<text x="501.4634146341464" y="940" text-anchor="middle">08-18</text>
<text x="536.5853658536586" y="940" text-anchor="middle">08-19</text>
<text x="571.7073170731708" y="940" text-anchor="middle">08-20</text>
<text x="606.829268292683" y="940" text-anchor="middle">08-21</text>
<text x="641.9512195121952" y="940" text-anchor="middle">08-22</text>
<text x="677.0731707317074" y="940" text-anchor="middle">08-23</text>
<text x="712.1951219512196" y="940" text-anchor="middle">08-24</text>
<text x="747.3170731707318" y="940" text-anchor="middle">08-25</text>
<text x="782.439024390244" y="940" text-anchor="middle">08-26</text>
<text x="817.5609756097562" y="940" text-anchor="middle">08-27</text>
<text x="852.6829268292684" y="940" text-anchor="middle">08-28</text>
<text x="887.8048780487806" y="940" text-anchor="middle">08-29</text>
<text x="922.9268292682927" y="940" text-anchor="middle">08-30</text>
<text x="958.048780487805" y="940" text-anchor="middle">08-31</text>
<text x="993.1707317073171" y="940" text-anchor="middle">09-01</text>
<text x="1028.2926829268295" y="940" text-anchor="middle">09-02</text>
<text x="1063.4146341463415" y="940" text-anchor="middle">09-03</text>
<text x="1098.5365853658536" y="940" text-anchor="middle">09-04</text>
<text x="1133.658536585366" y="940" text-anchor="middle">09-05</text>
<text x="1168.7804878048782" y="940" text-anchor="middle">09-06</text>
<text x="1203.9024390243903" y="940" text-anchor="middle">09-07</text>
<text x="1239.0243902439024" y="940" text-anchor="middle">09-08</text>
<text x="1274.1463414634147" y="940" text-anchor="middle">09-09</text>
<text x="1309.268292682927" y="940" text-anchor="middle">09-10</text>
<text x="1344.3902439024391" y="940" text-anchor="middle">09-11</text>
<text x="1379.5121951219512" y="940" text-anchor="middle">09-12</text>
<text x="1414.6341463414635" y="940" text-anchor="middle">09-13</text>
<text x="1449.7560975609758" y="940" text-anchor="middle">09-14</text>
<text x="1484.878048780488" y="940" text-anchor="middle">09-15</text>
<text x="1520.0" y="940" text-anchor="middle">09-16</text>
<rect x="90" y="100" width="130" height="185" class="legend-box" />
<text x="100" y="120" class="legend-item">图例:</text>
<rect x="100" y="137" width="15" height="15" fill="#1f77b4" rx="3" />
<text x="120" y="145" class="legend-item">构件聚合数据</text>
<rect x="100" y="162" width="15" height="15" fill="#ff7f0e" rx="3" />
<text x="120" y="170" class="legend-item">构件基本信息</text>
<rect x="100" y="187" width="15" height="15" fill="#2ca02c" rx="3" />
<text x="120" y="195" class="legend-item">构件徽标</text>
<rect x="100" y="212" width="15" height="15" fill="#d62728" rx="3" />
<text x="120" y="220" class="legend-item">构件扩展元数据</text>
<rect x="100" y="237" width="15" height="15" fill="#9467bd" rx="3" />
<text x="120" y="245" class="legend-item">构件版本信息</text>
<rect x="100" y="262" width="15" height="15" fill="#66ffbd" rx="3" />
<text x="120" y="270" class="legend-item">数据量偏差</text>
<text x="1520" y="990" text-anchor="end" font-size="10" fill="#666">生成时间: 2025-09-16 00:56:03</text>
</svg>