<svg xmlns="http://www.w3.org/2000/svg" width="1600" height="1000" viewBox="0 0 1600 1000">
<style>
  text {
    font-family: Arial, sans-serif;
    font-size: 12px;
    fill: #333;
  }
  .axis-label { font-size: 14px; }
  .title { font-size: 18px; font-weight: bold; }
  .legend-item { font-size: 11px; }
  .legend-box { fill: white; fill-opacity: 0.85; stroke: #cccccc; stroke-width: 1; rx: 5; }
</style>
<text x="800.0" y="30" text-anchor="middle" class="title">Daily Data Growth Trend</text>
<text x="800.0" y="980" text-anchor="middle" class="axis-label">Date</text>
<g transform="rotate(-90)">
<text x="-500.0" y="20" text-anchor="middle" class="axis-label">Count</text>
</g>
<rect x="0" y="0" width="1600" height="1000" fill="#f8f8f8" />
<line x1="80" y1="920.0" x2="1520" y2="920.0" stroke="#e0e0e0" stroke-width="1" />
<text x="70" y="925.0" text-anchor="end">0</text>
<line x1="80" y1="752.0" x2="1520" y2="752.0" stroke="#e0e0e0" stroke-width="1" />
<text x="70" y="757.0" text-anchor="end">13.9k</text>
<line x1="80" y1="584.0" x2="1520" y2="584.0" stroke="#e0e0e0" stroke-width="1" />
<text x="70" y="589.0" text-anchor="end">27.8k</text>
<line x1="80" y1="416.0" x2="1520" y2="416.0" stroke="#e0e0e0" stroke-width="1" />
<text x="70" y="421.0" text-anchor="end">41.7k</text>
<line x1="80" y1="248.0" x2="1520" y2="248.0" stroke="#e0e0e0" stroke-width="1" />
<text x="70" y="253.0" text-anchor="end">55.6k</text>
<line x1="80" y1="80.0" x2="1520" y2="80.0" stroke="#e0e0e0" stroke-width="1" />
<text x="70" y="85.0" text-anchor="end">69.6k</text>
<line x1="80" y1="80" x2="80" y2="920" stroke="#333333" stroke-width="2" />
<line x1="80" y1="920" x2="1520" y2="920" stroke="#333333" stroke-width="2" />
<circle cx="80.0" cy="920.0" r="4" fill="#1f77b4" />
<circle cx="155.78947368421052" cy="860.9688570867866" r="4" fill="#1f77b4" />
<circle cx="231.57894736842104" cy="735.8658273326994" r="4" fill="#1f77b4" />
<circle cx="307.36842105263156" cy="685.5420195341395" r="4" fill="#1f77b4" />
<circle cx="383.1578947368421" cy="655.2535362226953" r="4" fill="#1f77b4" />
<circle cx="458.9473684210526" cy="640.048910828314" r="4" fill="#1f77b4" />
<circle cx="534.7368421052631" cy="609.7604275168698" r="4" fill="#1f77b4" />
<circle cx="610.5263157894736" cy="577.0686714067901" r="4" fill="#1f77b4" />
<circle cx="686.3157894736842" cy="546.9371858158598" r="4" fill="#1f77b4" />
<circle cx="762.1052631578947" cy="522.3730809293058" r="4" fill="#1f77b4" />
<circle cx="837.8947368421052" cy="499.97071388675033" r="4" fill="#1f77b4" />
<circle cx="913.6842105263157" cy="485.8892260314298" r="4" fill="#1f77b4" />
<circle cx="989.4736842105262" cy="471.95265914889126" r="4" fill="#1f77b4" />
<circle cx="1065.2631578947367" cy="450.99950183415615" r="4" fill="#1f77b4" />
<circle cx="1141.0526315789473" cy="421.2423954229127" r="4" fill="#1f77b4" />
<circle cx="1216.842105263158" cy="389.0578627175702" r="4" fill="#1f77b4" />
<circle cx="1292.6315789473683" cy="367.69409597995264" r="4" fill="#1f77b4" />
<circle cx="1368.4210526315787" cy="338.4562897211781" r="4" fill="#1f77b4" />
<circle cx="1444.2105263157894" cy="326.37954198934233" r="4" fill="#1f77b4" />
<circle cx="1520.0" cy="315.25685732832153" r="4" fill="#1f77b4" />
<path d="M 80.0 920.0 L 155.78947368421052 860.9688570867866 L 231.57894736842104 735.8658273326994 L 307.36842105263156 685.5420195341395 L 383.1578947368421 655.2535362226953 L 458.9473684210526 640.048910828314 L 534.7368421052631 609.7604275168698 L 610.5263157894736 577.0686714067901 L 686.3157894736842 546.9371858158598 L 762.1052631578947 522.3730809293058 L 837.8947368421052 499.97071388675033 L 913.6842105263157 485.8892260314298 L 989.4736842105262 471.95265914889126 L 1065.2631578947367 450.99950183415615 L 1141.0526315789473 421.2423954229127 L 1216.842105263158 389.0578627175702 L 1292.6315789473683 367.69409597995264 L 1368.4210526315787 338.4562897211781 L 1444.2105263157894 326.37954198934233 L 1520.0 315.25685732832153" fill="none" stroke="#1f77b4" stroke-width="2" />
<circle cx="80.0" cy="920.0" r="4" fill="#ff7f0e" />
<circle cx="155.78947368421052" cy="489.14994791902546" r="4" fill="#ff7f0e" />
<circle cx="231.57894736842104" cy="399.2627145509715" r="4" fill="#ff7f0e" />
<circle cx="307.36842105263156" cy="370.4355177150794" r="4" fill="#ff7f0e" />
<circle cx="383.1578947368421" cy="356.23326238244044" r="4" fill="#ff7f0e" />
<circle cx="458.9473684210526" cy="345.1226544691515" r="4" fill="#ff7f0e" />
<circle cx="534.7368421052631" cy="325.3167881889408" r="4" fill="#ff7f0e" />
<circle cx="610.5263157894736" cy="300.18507615899046" r="4" fill="#ff7f0e" />
<circle cx="686.3157894736842" cy="280.13767492414297" r="4" fill="#ff7f0e" />
<circle cx="762.1052631578947" cy="263.6166840269916" r="4" fill="#ff7f0e" />
<circle cx="837.8947368421052" cy="246.9024651661308" r="4" fill="#ff7f0e" />
<circle cx="913.6842105263157" cy="238.17097655601356" r="4" fill="#ff7f0e" />
<circle cx="989.4736842105262" cy="227.36228733602047" r="4" fill="#ff7f0e" />
<circle cx="1065.2631578947367" cy="215.0681581450117" r="4" fill="#ff7f0e" />
<circle cx="1141.0526315789473" cy="198.61962773425125" r="4" fill="#ff7f0e" />
<circle cx="1216.842105263158" cy="176.6037166191146" r="4" fill="#ff7f0e" />
<circle cx="1292.6315789473683" cy="162.47392177286667" r="4" fill="#ff7f0e" />
<circle cx="1368.4210526315787" cy="144.82979333665457" r="4" fill="#ff7f0e" />
<circle cx="1444.2105263157894" cy="134.09356460305253" r="4" fill="#ff7f0e" />
<circle cx="1520.0" cy="125.53115046118091" r="4" fill="#ff7f0e" />
<path d="M 80.0 920.0 L 155.78947368421052 489.14994791902546 L 231.57894736842104 399.2627145509715 L 307.36842105263156 370.4355177150794 L 383.1578947368421 356.23326238244044 L 458.9473684210526 345.1226544691515 L 534.7368421052631 325.3167881889408 L 610.5263157894736 300.18507615899046 L 686.3157894736842 280.13767492414297 L 762.1052631578947 263.6166840269916 L 837.8947368421052 246.9024651661308 L 913.6842105263157 238.17097655601356 L 989.4736842105262 227.36228733602047 L 1065.2631578947367 215.0681581450117 L 1141.0526315789473 198.61962773425125 L 1216.842105263158 176.6037166191146 L 1292.6315789473683 162.47392177286667 L 1368.4210526315787 144.82979333665457 L 1444.2105263157894 134.09356460305253 L 1520.0 125.53115046118091" fill="none" stroke="#ff7f0e" stroke-width="2" />
<circle cx="80.0" cy="920.0" r="4" fill="#2ca02c" />
<circle cx="155.78947368421052" cy="480.68414775900857" r="4" fill="#2ca02c" />
<circle cx="231.57894736842104" cy="391.14714007517784" r="4" fill="#2ca02c" />
<circle cx="307.36842105263156" cy="362.59770843711794" r="4" fill="#2ca02c" />
<circle cx="383.1578947368421" cy="348.6128345636521" r="4" fill="#2ca02c" />
<circle cx="458.9473684210526" cy="337.5263801458268" r="4" fill="#2ca02c" />
<circle cx="534.7368421052631" cy="317.92581857705727" r="4" fill="#2ca02c" />
<circle cx="610.5263157894736" cy="293.1201787358665" r="4" fill="#2ca02c" />
<circle cx="686.3157894736842" cy="273.30223570792396" r="4" fill="#2ca02c" />
<circle cx="762.1052631578947" cy="256.9140890358227" r="4" fill="#2ca02c" />
<circle cx="837.8947368421052" cy="240.2844074090848" r="4" fill="#2ca02c" />
<circle cx="913.6842105263157" cy="231.68576302401777" r="4" fill="#2ca02c" />
<circle cx="989.4736842105262" cy="220.8770738040247" r="4" fill="#2ca02c" />
<circle cx="1065.2631578947367" cy="208.61917485621132" r="4" fill="#2ca02c" />
<circle cx="1141.0526315789473" cy="192.53294687740606" r="4" fill="#2ca02c" />
<circle cx="1216.842105263158" cy="170.98802892381093" r="4" fill="#2ca02c" />
<circle cx="1292.6315789473683" cy="156.9186178162222" r="4" fill="#2ca02c" />
<circle cx="1368.4210526315787" cy="139.28656612774193" r="4" fill="#2ca02c" />
<circle cx="1444.2105263157894" cy="128.53826064640805" r="4" fill="#2ca02c" />
<circle cx="1520.0" cy="120.00000000000011" r="4" fill="#2ca02c" />
<path d="M 80.0 920.0 L 155.78947368421052 480.68414775900857 L 231.57894736842104 391.14714007517784 L 307.36842105263156 362.59770843711794 L 383.1578947368421 348.6128345636521 L 458.9473684210526 337.5263801458268 L 534.7368421052631 317.92581857705727 L 610.5263157894736 293.1201787358665 L 686.3157894736842 273.30223570792396 L 762.1052631578947 256.9140890358227 L 837.8947368421052 240.2844074090848 L 913.6842105263157 231.68576302401777 L 989.4736842105262 220.8770738040247 L 1065.2631578947367 208.61917485621132 L 1141.0526315789473 192.53294687740606 L 1216.842105263158 170.98802892381093 L 1292.6315789473683 156.9186178162222 L 1368.4210526315787 139.28656612774193 L 1444.2105263157894 128.53826064640805 L 1520.0 120.00000000000011" fill="none" stroke="#2ca02c" stroke-width="2" />
<circle cx="80.0" cy="920.0" r="4" fill="#d62728" />
<circle cx="155.78947368421052" cy="834.7623145087028" r="4" fill="#d62728" />
<circle cx="231.57894736842104" cy="711.398336428" r="4" fill="#d62728" />
<circle cx="307.36842105263156" cy="668.7070331959603" r="4" fill="#d62728" />
<circle cx="383.1578947368421" cy="638.4789336231753" r="4" fill="#d62728" />
<circle cx="458.9473684210526" cy="623.4071524538442" r="4" fill="#d62728" />
<circle cx="534.7368421052631" cy="593.7345832767237" r="4" fill="#d62728" />
<circle cx="610.5263157894736" cy="562.5644973808553" r="4" fill="#d62728" />
<circle cx="686.3157894736842" cy="533.8701447700134" r="4" fill="#d62728" />
<circle cx="762.1052631578947" cy="509.8253400359284" r="4" fill="#d62728" />
<circle cx="837.8947368421052" cy="487.49543347976396" r="4" fill="#d62728" />
<circle cx="913.6842105263157" cy="473.43809911990706" r="4" fill="#d62728" />
<circle cx="989.4736842105262" cy="459.51360898510035" r="4" fill="#d62728" />
<circle cx="1065.2631578947367" cy="439.5990519753031" r="4" fill="#d62728" />
<circle cx="1141.0526315789473" cy="410.1921712482829" r="4" fill="#d62728" />
<circle cx="1216.842105263158" cy="378.5510921908731" r="4" fill="#d62728" />
<circle cx="1292.6315789473683" cy="358.2017722627297" r="4" fill="#d62728" />
<circle cx="1368.4210526315787" cy="329.32626843591026" r="4" fill="#d62728" />
<circle cx="1444.2105263157894" cy="317.2495207040745" r="4" fill="#d62728" />
<circle cx="1520.0" cy="306.2476035203721" r="4" fill="#d62728" />
<path d="M 80.0 920.0 L 155.78947368421052 834.7623145087028 L 231.57894736842104 711.398336428 L 307.36842105263156 668.7070331959603 L 383.1578947368421 638.4789336231753 L 458.9473684210526 623.4071524538442 L 534.7368421052631 593.7345832767237 L 610.5263157894736 562.5644973808553 L 686.3157894736842 533.8701447700134 L 762.1052631578947 509.8253400359284 L 837.8947368421052 487.49543347976396 L 913.6842105263157 473.43809911990706 L 989.4736842105262 459.51360898510035 L 1065.2631578947367 439.5990519753031 L 1141.0526315789473 410.1921712482829 L 1216.842105263158 378.5510921908731 L 1292.6315789473683 358.2017722627297 L 1368.4210526315787 329.32626843591026 L 1444.2105263157894 317.2495207040745 L 1520.0 306.2476035203721" fill="none" stroke="#d62728" stroke-width="2" />
<circle cx="80.0" cy="920.0" r="4" fill="#9467bd" />
<circle cx="155.78947368421052" cy="843.7594915689205" r="4" fill="#9467bd" />
<circle cx="231.57894736842104" cy="719.9245203266761" r="4" fill="#9467bd" />
<circle cx="307.36842105263156" cy="669.7214800054346" r="4" fill="#9467bd" />
<circle cx="383.1578947368421" cy="639.3967664507948" r="4" fill="#9467bd" />
<circle cx="458.9473684210526" cy="625.8708089911388" r="4" fill="#9467bd" />
<circle cx="534.7368421052631" cy="595.9446281116495" r="4" fill="#9467bd" />
<circle cx="610.5263157894736" cy="563.3374092356928" r="4" fill="#9467bd" />
<circle cx="686.3157894736842" cy="533.833914526818" r="4" fill="#9467bd" />
<circle cx="762.1052631578947" cy="509.5234213426325" r="4" fill="#9467bd" />
<circle cx="837.8947368421052" cy="487.4471264888366" r="4" fill="#9467bd" />
<circle cx="913.6842105263157" cy="473.37771538124787" r="4" fill="#9467bd" />
<circle cx="989.4736842105262" cy="459.3566112645865" r="4" fill="#9467bd" />
<circle cx="1065.2631578947367" cy="438.5242214271697" r="4" fill="#9467bd" />
<circle cx="1141.0526315789473" cy="409.33472215932255" r="4" fill="#9467bd" />
<circle cx="1216.842105263158" cy="377.0777289675891" r="4" fill="#9467bd" />
<circle cx="1292.6315789473683" cy="356.17287864378125" r="4" fill="#9467bd" />
<circle cx="1368.4210526315787" cy="331.07739685702643" r="4" fill="#9467bd" />
<circle cx="1444.2105263157894" cy="318.9885723774588" r="4" fill="#9467bd" />
<circle cx="1520.0" cy="307.865887716438" r="4" fill="#9467bd" />
<path d="M 80.0 920.0 L 155.78947368421052 843.7594915689205 L 231.57894736842104 719.9245203266761 L 307.36842105263156 669.7214800054346 L 383.1578947368421 639.3967664507948 L 458.9473684210526 625.8708089911388 L 534.7368421052631 595.9446281116495 L 610.5263157894736 563.3374092356928 L 686.3157894736842 533.833914526818 L 762.1052631578947 509.5234213426325 L 837.8947368421052 487.4471264888366 L 913.6842105263157 473.37771538124787 L 989.4736842105262 459.3566112645865 L 1065.2631578947367 438.5242214271697 L 1141.0526315789473 409.33472215932255 L 1216.842105263158 377.0777289675891 L 1292.6315789473683 356.17287864378125 L 1368.4210526315787 331.07739685702643 L 1444.2105263157894 318.9885723774588 L 1520.0 307.865887716438" fill="none" stroke="#9467bd" stroke-width="2" />
<circle cx="80.0" cy="920.0" r="4" fill="#66ffbd" />
<circle cx="155.78947368421052" cy="539.715290672222" r="4" fill="#66ffbd" />
<circle cx="231.57894736842104" cy="575.2813127424786" r="4" fill="#66ffbd" />
<circle cx="307.36842105263156" cy="597.0556889029785" r="4" fill="#66ffbd" />
<circle cx="383.1578947368421" cy="613.3592983409568" r="4" fill="#66ffbd" />
<circle cx="458.9473684210526" cy="617.4774693175128" r="4" fill="#66ffbd" />
<circle cx="534.7368421052631" cy="628.1653910601875" r="4" fill="#66ffbd" />
<circle cx="610.5263157894736" cy="636.0515073290762" r="4" fill="#66ffbd" />
<circle cx="686.3157894736842" cy="646.3650498920641" r="4" fill="#66ffbd" />
<circle cx="762.1052631578947" cy="654.541008106517" r="4" fill="#66ffbd" />
<circle cx="837.8947368421052" cy="660.3136935223345" r="4" fill="#66ffbd" />
<circle cx="913.6842105263157" cy="665.7965369925879" r="4" fill="#66ffbd" />
<circle cx="989.4736842105262" cy="668.9244146551334" r="4" fill="#66ffbd" />
<circle cx="1065.2631578947367" cy="677.6196730220552" r="4" fill="#66ffbd" />
<circle cx="1141.0526315789473" cy="691.2905514544933" r="4" fill="#66ffbd" />
<circle cx="1216.842105263158" cy="701.9301662062408" r="4" fill="#66ffbd" />
<circle cx="1292.6315789473683" cy="709.2245218362696" r="4" fill="#66ffbd" />
<circle cx="1368.4210526315787" cy="720.8302764065637" r="4" fill="#66ffbd" />
<circle cx="1444.2105263157894" cy="722.1587186570657" r="4" fill="#66ffbd" />
<circle cx="1520.0" cy="724.7431426716786" r="4" fill="#66ffbd" />
<path d="M 80.0 920.0 L 155.78947368421052 539.715290672222 L 231.57894736842104 575.2813127424786 L 307.36842105263156 597.0556889029785 L 383.1578947368421 613.3592983409568 L 458.9473684210526 617.4774693175128 L 534.7368421052631 628.1653910601875 L 610.5263157894736 636.0515073290762 L 686.3157894736842 646.3650498920641 L 762.1052631578947 654.541008106517 L 837.8947368421052 660.3136935223345 L 913.6842105263157 665.7965369925879 L 989.4736842105262 668.9244146551334 L 1065.2631578947367 677.6196730220552 L 1141.0526315789473 691.2905514544933 L 1216.842105263158 701.9301662062408 L 1292.6315789473683 709.2245218362696 L 1368.4210526315787 720.8302764065637 L 1444.2105263157894 722.1587186570657 L 1520.0 724.7431426716786" fill="none" stroke="#66ffbd" stroke-width="2" />
<text x="80.0" y="940" text-anchor="middle">08-06</text>
<text x="155.78947368421052" y="940" text-anchor="middle">08-07</text>
<text x="231.57894736842104" y="940" text-anchor="middle">08-08</text>
<text x="307.36842105263156" y="940" text-anchor="middle">08-09</text>
<text x="383.1578947368421" y="940" text-anchor="middle">08-10</text>
<text x="458.9473684210526" y="940" text-anchor="middle">08-11</text>
<text x="534.7368421052631" y="940" text-anchor="middle">08-12</text>
<text x="610.5263157894736" y="940" text-anchor="middle">08-13</text>
<text x="686.3157894736842" y="940" text-anchor="middle">08-14</text>
<text x="762.1052631578947" y="940" text-anchor="middle">08-15</text>
<text x="837.8947368421052" y="940" text-anchor="middle">08-16</text>
<text x="913.6842105263157" y="940" text-anchor="middle">08-17</text>
<text x="989.4736842105262" y="940" text-anchor="middle">08-18</text>
<text x="1065.2631578947367" y="940" text-anchor="middle">08-19</text>
<text x="1141.0526315789473" y="940" text-anchor="middle">08-20</text>
<text x="1216.842105263158" y="940" text-anchor="middle">08-21</text>
<text x="1292.6315789473683" y="940" text-anchor="middle">08-22</text>
<text x="1368.4210526315787" y="940" text-anchor="middle">08-23</text>
<text x="1444.2105263157894" y="940" text-anchor="middle">08-24</text>
<text x="1520.0" y="940" text-anchor="middle">08-25</text>
<rect x="90" y="100" width="130" height="185" class="legend-box" />
<text x="100" y="120" class="legend-item">图例:</text>
<rect x="100" y="137" width="15" height="15" fill="#1f77b4" rx="3" />
<text x="120" y="145" class="legend-item">构件聚合数据</text>
<rect x="100" y="162" width="15" height="15" fill="#ff7f0e" rx="3" />
<text x="120" y="170" class="legend-item">构件基本信息</text>
<rect x="100" y="187" width="15" height="15" fill="#2ca02c" rx="3" />
<text x="120" y="195" class="legend-item">构件徽标</text>
<rect x="100" y="212" width="15" height="15" fill="#d62728" rx="3" />
<text x="120" y="220" class="legend-item">构件扩展元数据</text>
<rect x="100" y="237" width="15" height="15" fill="#9467bd" rx="3" />
<text x="120" y="245" class="legend-item">构件版本信息</text>
<rect x="100" y="262" width="15" height="15" fill="#66ffbd" rx="3" />
<text x="120" y="270" class="legend-item">数据量偏差</text>
<text x="1520" y="990" text-anchor="end" font-size="10" fill="#666">生成时间: 2025-08-25 12:48:56</text>
</svg>