<svg xmlns="http://www.w3.org/2000/svg" width="1600" height="1000" viewBox="0 0 1600 1000">
<style>
  text {
    font-family: Arial, sans-serif;
    font-size: 12px;
    fill: #333;
  }
  .axis-label { font-size: 14px; }
  .title { font-size: 18px; font-weight: bold; }
  .legend-item { font-size: 11px; }
  .legend-box { fill: white; fill-opacity: 0.85; stroke: #cccccc; stroke-width: 1; rx: 5; }
</style>
<text x="800.0" y="30" text-anchor="middle" class="title">Daily Data Growth Trend</text>
<text x="800.0" y="980" text-anchor="middle" class="axis-label">Date</text>
<g transform="rotate(-90)">
<text x="-500.0" y="20" text-anchor="middle" class="axis-label">Count</text>
</g>
<rect x="0" y="0" width="1600" height="1000" fill="#f8f8f8" />
<line x1="80" y1="920.0" x2="1520" y2="920.0" stroke="#e0e0e0" stroke-width="1" />
<text x="70" y="925.0" text-anchor="end">0</text>
<line x1="80" y1="752.0" x2="1520" y2="752.0" stroke="#e0e0e0" stroke-width="1" />
<text x="70" y="757.0" text-anchor="end">18.6k</text>
<line x1="80" y1="584.0" x2="1520" y2="584.0" stroke="#e0e0e0" stroke-width="1" />
<text x="70" y="589.0" text-anchor="end">37.2k</text>
<line x1="80" y1="416.0" x2="1520" y2="416.0" stroke="#e0e0e0" stroke-width="1" />
<text x="70" y="421.0" text-anchor="end">55.8k</text>
<line x1="80" y1="248.0" x2="1520" y2="248.0" stroke="#e0e0e0" stroke-width="1" />
<text x="70" y="253.0" text-anchor="end">74.4k</text>
<line x1="80" y1="80.0" x2="1520" y2="80.0" stroke="#e0e0e0" stroke-width="1" />
<text x="70" y="85.0" text-anchor="end">93.0k</text>
<line x1="80" y1="80" x2="80" y2="920" stroke="#333333" stroke-width="2" />
<line x1="80" y1="920" x2="1520" y2="920" stroke="#333333" stroke-width="2" />
<circle cx="80.0" cy="920.0" r="4" fill="#1f77b4" />
<circle cx="116.92307692307692" cy="875.8386411889596" r="4" fill="#1f77b4" />
<circle cx="153.84615384615384" cy="782.2487238559877" r="4" fill="#1f77b4" />
<circle cx="190.76923076923077" cy="744.6013461625333" r="4" fill="#1f77b4" />
<circle cx="227.69230769230768" cy="721.9424492930389" r="4" fill="#1f77b4" />
<circle cx="264.6153846153846" cy="710.5678276189186" r="4" fill="#1f77b4" />
<circle cx="301.53846153846155" cy="687.908930749424" r="4" fill="#1f77b4" />
<circle cx="338.46153846153845" cy="663.4521389528843" r="4" fill="#1f77b4" />
<circle cx="375.38461538461536" cy="640.9106925057597" r="4" fill="#1f77b4" />
<circle cx="412.30769230769226" cy="622.5342187288251" r="4" fill="#1f77b4" />
<circle cx="449.23076923076917" cy="605.7749469214438" r="4" fill="#1f77b4" />
<circle cx="486.15384615384613" cy="595.2405474996613" r="4" fill="#1f77b4" />
<circle cx="523.0769230769231" cy="584.8145638523739" r="4" fill="#1f77b4" />
<circle cx="560.0" cy="569.1394497899445" r="4" fill="#1f77b4" />
<circle cx="596.9230769230769" cy="546.8780774269324" r="4" fill="#1f77b4" />
<circle cx="633.8461538461538" cy="522.8007408411257" r="4" fill="#1f77b4" />
<circle cx="670.7692307692307" cy="506.81844875096" r="4" fill="#1f77b4" />
<circle cx="707.6923076923076" cy="484.9455662465556" r="4" fill="#1f77b4" />
<circle cx="744.6153846153845" cy="475.9109183719565" r="4" fill="#1f77b4" />
<circle cx="781.5384615384614" cy="467.59000767945076" r="4" fill="#1f77b4" />
<circle cx="818.4615384615383" cy="449.69237023986994" r="4" fill="#1f77b4" />
<circle cx="855.3846153846154" cy="432.09287618015094" r="4" fill="#1f77b4" />
<circle cx="892.3076923076923" cy="416.5081085964675" r="4" fill="#1f77b4" />
<circle cx="929.2307692307692" cy="394.996612007047" r="4" fill="#1f77b4" />
<circle cx="966.1538461538461" cy="380.1888241405792" r="4" fill="#1f77b4" />
<circle cx="1003.076923076923" cy="371.0638297872341" r="4" fill="#1f77b4" />
<circle cx="1040.0" cy="360.77336585806574" r="4" fill="#1f77b4" />
<circle cx="1076.9230769230767" cy="347.5556760175273" r="4" fill="#1f77b4" />
<circle cx="1113.8461538461538" cy="336.0816732167864" r="4" fill="#1f77b4" />
<circle cx="1150.7692307692307" cy="326.33328816009407" r="4" fill="#1f77b4" />
<circle cx="1187.6923076923076" cy="309.78181325382855" r="4" fill="#1f77b4" />
<circle cx="1224.6153846153845" cy="296.2750146813029" r="4" fill="#1f77b4" />
<circle cx="1261.5384615384614" cy="275.6760175272169" r="4" fill="#1f77b4" />
<circle cx="1298.4615384615383" cy="269.64087274698477" r="4" fill="#1f77b4" />
<circle cx="1335.3846153846152" cy="262.7926096580386" r="4" fill="#1f77b4" />
<circle cx="1372.3076923076922" cy="253.7127885440666" r="4" fill="#1f77b4" />
<circle cx="1409.230769230769" cy="246.41279306139052" r="4" fill="#1f77b4" />
<circle cx="1446.153846153846" cy="235.56218096399698" r="4" fill="#1f77b4" />
<circle cx="1483.0769230769229" cy="223.39251027691205" r="4" fill="#1f77b4" />
<circle cx="1519.9999999999998" cy="217.8633057776574" r="4" fill="#1f77b4" />
<path d="M 80.0 920.0 L 116.92307692307692 875.8386411889596 L 153.84615384615384 782.2487238559877 L 190.76923076923077 744.6013461625333 L 227.69230769230768 721.9424492930389 L 264.6153846153846 710.5678276189186 L 301.53846153846155 687.908930749424 L 338.46153846153845 663.4521389528843 L 375.38461538461536 640.9106925057597 L 412.30769230769226 622.5342187288251 L 449.23076923076917 605.7749469214438 L 486.15384615384613 595.2405474996613 L 523.0769230769231 584.8145638523739 L 560.0 569.1394497899445 L 596.9230769230769 546.8780774269324 L 633.8461538461538 522.8007408411257 L 670.7692307692307 506.81844875096 L 707.6923076923076 484.9455662465556 L 744.6153846153845 475.9109183719565 L 781.5384615384614 467.59000767945076 L 818.4615384615383 449.69237023986994 L 855.3846153846154 432.09287618015094 L 892.3076923076923 416.5081085964675 L 929.2307692307692 394.996612007047 L 966.1538461538461 380.1888241405792 L 1003.076923076923 371.0638297872341 L 1040.0 360.77336585806574 L 1076.9230769230767 347.5556760175273 L 1113.8461538461538 336.0816732167864 L 1150.7692307692307 326.33328816009407 L 1187.6923076923076 309.78181325382855 L 1224.6153846153845 296.2750146813029 L 1261.5384615384614 275.6760175272169 L 1298.4615384615383 269.64087274698477 L 1335.3846153846152 262.7926096580386 L 1372.3076923076922 253.7127885440666 L 1409.230769230769 246.41279306139052 L 1446.153846153846 235.56218096399698 L 1483.0769230769229 223.39251027691205 L 1519.9999999999998 217.8633057776574" fill="none" stroke="#1f77b4" stroke-width="2" />
<circle cx="80.0" cy="920.0" r="4" fill="#ff7f0e" />
<circle cx="116.92307692307692" cy="597.679902425803" r="4" fill="#ff7f0e" />
<circle cx="153.84615384615384" cy="530.435018295162" r="4" fill="#ff7f0e" />
<circle cx="190.76923076923077" cy="508.86931381849394" r="4" fill="#ff7f0e" />
<circle cx="227.69230769230768" cy="498.2445679179654" r="4" fill="#ff7f0e" />
<circle cx="264.6153846153846" cy="489.93269187333425" r="4" fill="#ff7f0e" />
<circle cx="301.53846153846155" cy="475.1158693589918" r="4" fill="#ff7f0e" />
<circle cx="338.46153846153845" cy="456.3147671319511" r="4" fill="#ff7f0e" />
<circle cx="375.38461538461536" cy="441.3172516601166" r="4" fill="#ff7f0e" />
<circle cx="412.30769230769226" cy="428.95785336766505" r="4" fill="#ff7f0e" />
<circle cx="449.23076923076917" cy="416.4539007092199" r="4" fill="#ff7f0e" />
<circle cx="486.15384615384613" cy="409.9218502958848" r="4" fill="#ff7f0e" />
<circle cx="523.0769230769231" cy="401.8358404481186" r="4" fill="#ff7f0e" />
<circle cx="560.0" cy="392.6385689117767" r="4" fill="#ff7f0e" />
<circle cx="596.9230769230769" cy="380.3333785065728" r="4" fill="#ff7f0e" />
<circle cx="633.8461538461538" cy="363.8632154311787" r="4" fill="#ff7f0e" />
<circle cx="670.7692307692307" cy="353.2926774178977" r="4" fill="#ff7f0e" />
<circle cx="707.6923076923076" cy="340.0930568731085" r="4" fill="#ff7f0e" />
<circle cx="744.6153846153845" cy="332.0612549125898" r="4" fill="#ff7f0e" />
<circle cx="781.5384615384614" cy="325.65568956949903" r="4" fill="#ff7f0e" />
<circle cx="818.4615384615383" cy="311.10087184351994" r="4" fill="#ff7f0e" />
<circle cx="855.3846153846154" cy="299.25644847992055" r="4" fill="#ff7f0e" />
<circle cx="892.3076923076923" cy="285.2346749785428" r="4" fill="#ff7f0e" />
<circle cx="929.2307692307692" cy="266.84013190585904" r="4" fill="#ff7f0e" />
<circle cx="966.1538461538461" cy="255.34805980936903" r="4" fill="#ff7f0e" />
<circle cx="1003.076923076923" cy="241.63346433572758" r="4" fill="#ff7f0e" />
<circle cx="1040.0" cy="238.22740208700372" r="4" fill="#ff7f0e" />
<circle cx="1076.9230769230767" cy="226.62691421601846" r="4" fill="#ff7f0e" />
<circle cx="1113.8461538461538" cy="218.86615169173785" r="4" fill="#ff7f0e" />
<circle cx="1150.7692307692307" cy="211.4396711388174" r="4" fill="#ff7f0e" />
<circle cx="1187.6923076923076" cy="197.63472918643004" r="4" fill="#ff7f0e" />
<circle cx="1224.6153846153845" cy="185.2391923024801" r="4" fill="#ff7f0e" />
<circle cx="1261.5384615384614" cy="171.5788047160862" r="4" fill="#ff7f0e" />
<circle cx="1298.4615384615383" cy="166.5916790893076" r="4" fill="#ff7f0e" />
<circle cx="1335.3846153846152" cy="161.4780683922845" r="4" fill="#ff7f0e" />
<circle cx="1372.3076923076922" cy="154.5846320639654" r="4" fill="#ff7f0e" />
<circle cx="1409.230769230769" cy="148.6036951709808" r="4" fill="#ff7f0e" />
<circle cx="1446.153846153846" cy="139.32511180376753" r="4" fill="#ff7f0e" />
<circle cx="1483.0769230769229" cy="129.54058815557676" r="4" fill="#ff7f0e" />
<circle cx="1519.9999999999998" cy="122.94529520711933" r="4" fill="#ff7f0e" />
<path d="M 80.0 920.0 L 116.92307692307692 597.679902425803 L 153.84615384615384 530.435018295162 L 190.76923076923077 508.86931381849394 L 227.69230769230768 498.2445679179654 L 264.6153846153846 489.93269187333425 L 301.53846153846155 475.1158693589918 L 338.46153846153845 456.3147671319511 L 375.38461538461536 441.3172516601166 L 412.30769230769226 428.95785336766505 L 449.23076923076917 416.4539007092199 L 486.15384615384613 409.9218502958848 L 523.0769230769231 401.8358404481186 L 560.0 392.6385689117767 L 596.9230769230769 380.3333785065728 L 633.8461538461538 363.8632154311787 L 670.7692307692307 353.2926774178977 L 707.6923076923076 340.0930568731085 L 744.6153846153845 332.0612549125898 L 781.5384615384614 325.65568956949903 L 818.4615384615383 311.10087184351994 L 855.3846153846154 299.25644847992055 L 892.3076923076923 285.2346749785428 L 929.2307692307692 266.84013190585904 L 966.1538461538461 255.34805980936903 L 1003.076923076923 241.63346433572758 L 1040.0 238.22740208700372 L 1076.9230769230767 226.62691421601846 L 1113.8461538461538 218.86615169173785 L 1150.7692307692307 211.4396711388174 L 1187.6923076923076 197.63472918643004 L 1224.6153846153845 185.2391923024801 L 1261.5384615384614 171.5788047160862 L 1298.4615384615383 166.5916790893076 L 1335.3846153846152 161.4780683922845 L 1372.3076923076922 154.5846320639654 L 1409.230769230769 148.6036951709808 L 1446.153846153846 139.32511180376753 L 1483.0769230769229 129.54058815557676 L 1519.9999999999998 122.94529520711933" fill="none" stroke="#ff7f0e" stroke-width="2" />
<circle cx="80.0" cy="920.0" r="4" fill="#2ca02c" />
<circle cx="116.92307692307692" cy="591.346614265709" r="4" fill="#2ca02c" />
<circle cx="153.84615384615384" cy="524.3637349234314" r="4" fill="#2ca02c" />
<circle cx="190.76923076923077" cy="503.0058273478792" r="4" fill="#2ca02c" />
<circle cx="227.69230769230768" cy="492.5437051090934" r="4" fill="#2ca02c" />
<circle cx="264.6153846153846" cy="484.24989836021143" r="4" fill="#2ca02c" />
<circle cx="301.53846153846155" cy="469.58666485973714" r="4" fill="#2ca02c" />
<circle cx="338.46153846153845" cy="451.0294981253106" r="4" fill="#2ca02c" />
<circle cx="375.38461538461536" cy="436.2036409630935" r="4" fill="#2ca02c" />
<circle cx="412.30769230769226" cy="423.94362379726255" r="4" fill="#2ca02c" />
<circle cx="449.23076923076917" cy="411.5029136739396" r="4" fill="#2ca02c" />
<circle cx="486.15384615384613" cy="405.0702443872251" r="4" fill="#2ca02c" />
<circle cx="523.0769230769231" cy="396.98423453945884" r="4" fill="#2ca02c" />
<circle cx="560.0" cy="387.8140669467408" r="4" fill="#2ca02c" />
<circle cx="596.9230769230769" cy="375.77991597777486" r="4" fill="#2ca02c" />
<circle cx="633.8461538461538" cy="359.66210416949" r="4" fill="#2ca02c" />
<circle cx="670.7692307692307" cy="349.13673939558214" r="4" fill="#2ca02c" />
<circle cx="707.6923076923076" cy="335.9461534986674" r="4" fill="#2ca02c" />
<circle cx="744.6153846153845" cy="327.9053168902742" r="4" fill="#2ca02c" />
<circle cx="781.5384615384614" cy="321.5178208429327" r="4" fill="#2ca02c" />
<circle cx="818.4615384615383" cy="307.0623842435741" r="4" fill="#2ca02c" />
<circle cx="855.3846153846154" cy="295.24506482359857" r="4" fill="#2ca02c" />
<circle cx="892.3076923076923" cy="281.24136061797003" r="4" fill="#2ca02c" />
<circle cx="929.2307692307692" cy="262.87392148891" r="4" fill="#2ca02c" />
<circle cx="966.1538461538461" cy="251.41798798391835" r="4" fill="#2ca02c" />
<circle cx="1003.076923076923" cy="237.71242715815163" r="4" fill="#2ca02c" />
<circle cx="1040.0" cy="234.31539955730227" r="4" fill="#2ca02c" />
<circle cx="1076.9230769230767" cy="222.72394633419174" r="4" fill="#2ca02c" />
<circle cx="1113.8461538461538" cy="214.99028775353486" r="4" fill="#2ca02c" />
<circle cx="1150.7692307692307" cy="207.60898043998736" r="4" fill="#2ca02c" />
<circle cx="1187.6923076923076" cy="194.12025116321104" r="4" fill="#2ca02c" />
<circle cx="1224.6153846153845" cy="181.76085287075944" r="4" fill="#2ca02c" />
<circle cx="1261.5384615384614" cy="168.47992049509878" r="4" fill="#2ca02c" />
<circle cx="1298.4615384615383" cy="163.49279486832006" r="4" fill="#2ca02c" />
<circle cx="1335.3846153846152" cy="158.44242670641916" r="4" fill="#2ca02c" />
<circle cx="1372.3076923076922" cy="151.55802502597464" r="4" fill="#2ca02c" />
<circle cx="1409.230769230769" cy="145.6041920766139" r="4" fill="#2ca02c" />
<circle cx="1446.153846153846" cy="136.32560870940063" r="4" fill="#2ca02c" />
<circle cx="1483.0769230769229" cy="126.58625830058281" r="4" fill="#2ca02c" />
<circle cx="1519.9999999999998" cy="120.00000000000011" r="4" fill="#2ca02c" />
<path d="M 80.0 920.0 L 116.92307692307692 591.346614265709 L 153.84615384615384 524.3637349234314 L 190.76923076923077 503.0058273478792 L 227.69230769230768 492.5437051090934 L 264.6153846153846 484.24989836021143 L 301.53846153846155 469.58666485973714 L 338.46153846153845 451.0294981253106 L 375.38461538461536 436.2036409630935 L 412.30769230769226 423.94362379726255 L 449.23076923076917 411.5029136739396 L 486.15384615384613 405.0702443872251 L 523.0769230769231 396.98423453945884 L 560.0 387.8140669467408 L 596.9230769230769 375.77991597777486 L 633.8461538461538 359.66210416949 L 670.7692307692307 349.13673939558214 L 707.6923076923076 335.9461534986674 L 744.6153846153845 327.9053168902742 L 781.5384615384614 321.5178208429327 L 818.4615384615383 307.0623842435741 L 855.3846153846154 295.24506482359857 L 892.3076923076923 281.24136061797003 L 929.2307692307692 262.87392148891 L 966.1538461538461 251.41798798391835 L 1003.076923076923 237.71242715815163 L 1040.0 234.31539955730227 L 1076.9230769230767 222.72394633419174 L 1113.8461538461538 214.99028775353486 L 1150.7692307692307 207.60898043998736 L 1187.6923076923076 194.12025116321104 L 1224.6153846153845 181.76085287075944 L 1261.5384615384614 168.47992049509878 L 1298.4615384615383 163.49279486832006 L 1335.3846153846152 158.44242670641916 L 1372.3076923076922 151.55802502597464 L 1409.230769230769 145.6041920766139 L 1446.153846153846 136.32560870940063 L 1483.0769230769229 126.58625830058281 L 1519.9999999999998 120.00000000000011" fill="none" stroke="#2ca02c" stroke-width="2" />
<circle cx="80.0" cy="920.0" r="4" fill="#d62728" />
<circle cx="116.92307692307692" cy="856.2334553010796" r="4" fill="#d62728" />
<circle cx="153.84615384615384" cy="763.94452726205" r="4" fill="#d62728" />
<circle cx="190.76923076923077" cy="732.0070470253422" r="4" fill="#d62728" />
<circle cx="227.69230769230768" cy="709.3933233952207" r="4" fill="#d62728" />
<circle cx="264.6153846153846" cy="698.1180828477211" r="4" fill="#d62728" />
<circle cx="301.53846153846155" cy="675.919953019831" r="4" fill="#d62728" />
<circle cx="338.46153846153845" cy="652.6015268554909" r="4" fill="#d62728" />
<circle cx="375.38461538461536" cy="631.1352035054434" r="4" fill="#d62728" />
<circle cx="412.30769230769226" cy="613.1472195871166" r="4" fill="#d62728" />
<circle cx="449.23076923076917" cy="596.4421556669829" r="4" fill="#d62728" />
<circle cx="486.15384615384613" cy="585.9258255409495" r="4" fill="#d62728" />
<circle cx="523.0769230769231" cy="575.5088765415369" r="4" fill="#d62728" />
<circle cx="560.0" cy="560.6107421963229" r="4" fill="#d62728" />
<circle cx="596.9230769230769" cy="538.6113746216741" r="4" fill="#d62728" />
<circle cx="633.8461538461538" cy="514.9405971902245" r="4" fill="#d62728" />
<circle cx="670.7692307692307" cy="499.7172155215251" r="4" fill="#d62728" />
<circle cx="707.6923076923076" cy="478.11537245335865" r="4" fill="#d62728" />
<circle cx="744.6153846153845" cy="469.0807245787596" r="4" fill="#d62728" />
<circle cx="781.5384615384614" cy="460.8501603649998" r="4" fill="#d62728" />
<circle cx="818.4615384615383" cy="443.16935447440943" r="4" fill="#d62728" />
<circle cx="855.3846153846154" cy="426.6359488638931" r="4" fill="#d62728" />
<circle cx="892.3076923076923" cy="411.11442381533186" r="4" fill="#d62728" />
<circle cx="929.2307692307692" cy="389.6209965216606" r="4" fill="#d62728" />
<circle cx="966.1538461538461" cy="375.3010796404211" r="4" fill="#d62728" />
<circle cx="1003.076923076923" cy="366.17608528707603" r="4" fill="#d62728" />
<circle cx="1040.0" cy="355.87658671003305" r="4" fill="#d62728" />
<circle cx="1076.9230769230767" cy="342.6588968694946" r="4" fill="#d62728" />
<circle cx="1113.8461538461538" cy="331.95283913809465" r="4" fill="#d62728" />
<circle cx="1150.7692307692307" cy="322.22252337715145" r="4" fill="#d62728" />
<circle cx="1187.6923076923076" cy="305.70718706238426" r="4" fill="#d62728" />
<circle cx="1224.6153846153845" cy="292.2094231377332" r="4" fill="#d62728" />
<circle cx="1261.5384615384614" cy="271.7188417581425" r="4" fill="#d62728" />
<circle cx="1298.4615384615383" cy="265.7108009215342" r="4" fill="#d62728" />
<circle cx="1335.3846153846152" cy="258.86253783258803" r="4" fill="#d62728" />
<circle cx="1372.3076923076922" cy="249.8459592537381" r="4" fill="#d62728" />
<circle cx="1409.230769230769" cy="242.53692912318752" r="4" fill="#d62728" />
<circle cx="1446.153846153846" cy="231.74052491304155" r="4" fill="#d62728" />
<circle cx="1483.0769230769229" cy="220.24845281655155" r="4" fill="#d62728" />
<circle cx="1519.9999999999998" cy="214.74635226092073" r="4" fill="#d62728" />
<path d="M 80.0 920.0 L 116.92307692307692 856.2334553010796 L 153.84615384615384 763.94452726205 L 190.76923076923077 732.0070470253422 L 227.69230769230768 709.3933233952207 L 264.6153846153846 698.1180828477211 L 301.53846153846155 675.919953019831 L 338.46153846153845 652.6015268554909 L 375.38461538461536 631.1352035054434 L 412.30769230769226 613.1472195871166 L 449.23076923076917 596.4421556669829 L 486.15384615384613 585.9258255409495 L 523.0769230769231 575.5088765415369 L 560.0 560.6107421963229 L 596.9230769230769 538.6113746216741 L 633.8461538461538 514.9405971902245 L 670.7692307692307 499.7172155215251 L 707.6923076923076 478.11537245335865 L 744.6153846153845 469.0807245787596 L 781.5384615384614 460.8501603649998 L 818.4615384615383 443.16935447440943 L 855.3846153846154 426.6359488638931 L 892.3076923076923 411.11442381533186 L 929.2307692307692 389.6209965216606 L 966.1538461538461 375.3010796404211 L 1003.076923076923 366.17608528707603 L 1040.0 355.87658671003305 L 1076.9230769230767 342.6588968694946 L 1113.8461538461538 331.95283913809465 L 1150.7692307692307 322.22252337715145 L 1187.6923076923076 305.70718706238426 L 1224.6153846153845 292.2094231377332 L 1261.5384615384614 271.7188417581425 L 1298.4615384615383 265.7108009215342 L 1335.3846153846152 258.86253783258803 L 1372.3076923076922 249.8459592537381 L 1409.230769230769 242.53692912318752 L 1446.153846153846 231.74052491304155 L 1483.0769230769229 220.24845281655155 L 1519.9999999999998 214.74635226092073" fill="none" stroke="#d62728" stroke-width="2" />
<circle cx="80.0" cy="920.0" r="4" fill="#9467bd" />
<circle cx="116.92307692307692" cy="862.9642679676559" r="4" fill="#9467bd" />
<circle cx="153.84615384615384" cy="770.322988661517" r="4" fill="#9467bd" />
<circle cx="190.76923076923077" cy="732.7659574468086" r="4" fill="#9467bd" />
<circle cx="227.69230769230768" cy="710.0799566336902" r="4" fill="#9467bd" />
<circle cx="264.6153846153846" cy="699.9611510141392" r="4" fill="#9467bd" />
<circle cx="301.53846153846155" cy="677.5732935808827" r="4" fill="#9467bd" />
<circle cx="338.46153846153845" cy="653.1797443194652" r="4" fill="#9467bd" />
<circle cx="375.38461538461536" cy="631.1080995618196" r="4" fill="#9467bd" />
<circle cx="412.30769230769226" cy="612.9213533902516" r="4" fill="#9467bd" />
<circle cx="449.23076923076917" cy="596.4060170754844" r="4" fill="#9467bd" />
<circle cx="486.15384615384613" cy="585.8806523015766" r="4" fill="#9467bd" />
<circle cx="523.0769230769231" cy="575.391426119167" r="4" fill="#9467bd" />
<circle cx="560.0" cy="559.8066585354836" r="4" fill="#9467bd" />
<circle cx="596.9230769230769" cy="537.9699146225776" r="4" fill="#9467bd" />
<circle cx="633.8461538461538" cy="513.8383701495235" r="4" fill="#9467bd" />
<circle cx="670.7692307692307" cy="498.19939467859245" r="4" fill="#9467bd" />
<circle cx="707.6923076923076" cy="479.42539639517554" r="4" fill="#9467bd" />
<circle cx="744.6153846153845" cy="470.3817138727019" r="4" fill="#9467bd" />
<circle cx="781.5384615384614" cy="462.0608031801961" r="4" fill="#9467bd" />
<circle cx="818.4615384615383" cy="444.1179925012423" r="4" fill="#9467bd" />
<circle cx="855.3846153846154" cy="427.0696119618738" r="4" fill="#9467bd" />
<circle cx="892.3076923076923" cy="411.5661562090618" r="4" fill="#9467bd" />
<circle cx="929.2307692307692" cy="389.9914170845192" r="4" fill="#9467bd" />
<circle cx="966.1538461538461" cy="375.4637033021638" r="4" fill="#9467bd" />
<circle cx="1003.076923076923" cy="366.3658128924426" r="4" fill="#9467bd" />
<circle cx="1040.0" cy="356.0663143153996" r="4" fill="#9467bd" />
<circle cx="1076.9230769230767" cy="342.8305551791119" r="4" fill="#9467bd" />
<circle cx="1113.8461538461538" cy="331.7721461806027" r="4" fill="#9467bd" />
<circle cx="1150.7692307692307" cy="322.0418304196595" r="4" fill="#9467bd" />
<circle cx="1187.6923076923076" cy="305.75236030175734" r="4" fill="#9467bd" />
<circle cx="1224.6153846153845" cy="292.5617744048426" r="4" fill="#9467bd" />
<circle cx="1261.5384615384614" cy="271.95374260288213" r="4" fill="#9467bd" />
<circle cx="1298.4615384615383" cy="265.89149387902614" r="4" fill="#9467bd" />
<circle cx="1335.3846153846152" cy="259.32330487419256" r="4" fill="#9467bd" />
<circle cx="1372.3076923076922" cy="250.2796223517189" r="4" fill="#9467bd" />
<circle cx="1409.230769230769" cy="242.94348827754447" r="4" fill="#9467bd" />
<circle cx="1446.153846153846" cy="232.0657722365271" r="4" fill="#9467bd" />
<circle cx="1483.0769230769229" cy="219.89610154944216" r="4" fill="#9467bd" />
<circle cx="1519.9999999999998" cy="214.3668970501875" r="4" fill="#9467bd" />
<path d="M 80.0 920.0 L 116.92307692307692 862.9642679676559 L 153.84615384615384 770.322988661517 L 190.76923076923077 732.7659574468086 L 227.69230769230768 710.0799566336902 L 264.6153846153846 699.9611510141392 L 301.53846153846155 677.5732935808827 L 338.46153846153845 653.1797443194652 L 375.38461538461536 631.1080995618196 L 412.30769230769226 612.9213533902516 L 449.23076923076917 596.4060170754844 L 486.15384615384613 585.8806523015766 L 523.0769230769231 575.391426119167 L 560.0 559.8066585354836 L 596.9230769230769 537.9699146225776 L 633.8461538461538 513.8383701495235 L 670.7692307692307 498.19939467859245 L 707.6923076923076 479.42539639517554 L 744.6153846153845 470.3817138727019 L 781.5384615384614 462.0608031801961 L 818.4615384615383 444.1179925012423 L 855.3846153846154 427.0696119618738 L 892.3076923076923 411.5661562090618 L 929.2307692307692 389.9914170845192 L 966.1538461538461 375.4637033021638 L 1003.076923076923 366.3658128924426 L 1040.0 356.0663143153996 L 1076.9230769230767 342.8305551791119 L 1113.8461538461538 331.7721461806027 L 1150.7692307692307 322.0418304196595 L 1187.6923076923076 305.75236030175734 L 1224.6153846153845 292.5617744048426 L 1261.5384615384614 271.95374260288213 L 1298.4615384615383 265.89149387902614 L 1335.3846153846152 259.32330487419256 L 1372.3076923076922 250.2796223517189 L 1409.230769230769 242.94348827754447 L 1446.153846153846 232.0657722365271 L 1483.0769230769229 219.89610154944216 L 1519.9999999999998 214.3668970501875" fill="none" stroke="#9467bd" stroke-width="2" />
<circle cx="80.0" cy="920.0" r="4" fill="#66ffbd" />
<circle cx="116.92307692307692" cy="635.5079730767493" r="4" fill="#66ffbd" />
<circle cx="153.84615384615384" cy="662.1150110674437" r="4" fill="#66ffbd" />
<circle cx="190.76923076923077" cy="678.4044811853458" r="4" fill="#66ffbd" />
<circle cx="227.69230769230768" cy="690.6012558160546" r="4" fill="#66ffbd" />
<circle cx="264.6153846153846" cy="693.6820707412928" r="4" fill="#66ffbd" />
<circle cx="301.53846153846155" cy="701.677734110313" r="4" fill="#66ffbd" />
<circle cx="338.46153846153845" cy="707.5773591724262" r="4" fill="#66ffbd" />
<circle cx="375.38461538461536" cy="715.2929484573339" r="4" fill="#66ffbd" />
<circle cx="412.30769230769226" cy="721.4094050684375" r="4" fill="#66ffbd" />
<circle cx="449.23076923076917" cy="725.7279667524958" r="4" fill="#66ffbd" />
<circle cx="486.15384615384613" cy="729.8296968875638" r="4" fill="#66ffbd" />
<circle cx="523.0769230769231" cy="732.169670687085" r="4" fill="#66ffbd" />
<circle cx="560.0" cy="738.6746171567963" r="4" fill="#66ffbd" />
<circle cx="596.9230769230769" cy="748.9018385508425" r="4" fill="#66ffbd" />
<circle cx="633.8461538461538" cy="756.8613633283643" r="4" fill="#66ffbd" />
<circle cx="670.7692307692307" cy="762.3182906446222" r="4" fill="#66ffbd" />
<circle cx="707.6923076923076" cy="771.0005872521119" r="4" fill="#66ffbd" />
<circle cx="744.6153846153845" cy="771.9943985183178" r="4" fill="#66ffbd" />
<circle cx="781.5384615384614" cy="773.9278131634819" r="4" fill="#66ffbd" />
<circle cx="818.4615384615383" cy="777.3700140037042" r="4" fill="#66ffbd" />
<circle cx="855.3846153846154" cy="783.1521886434476" r="4" fill="#66ffbd" />
<circle cx="892.3076923076923" cy="784.7332520215025" r="4" fill="#66ffbd" />
<circle cx="929.2307692307692" cy="787.877309481863" r="4" fill="#66ffbd" />
<circle cx="966.1538461538461" cy="791.2291638433392" r="4" fill="#66ffbd" />
<circle cx="1003.076923076923" cy="786.6485973709175" r="4" fill="#66ffbd" />
<circle cx="1040.0" cy="793.5420336992365" r="4" fill="#66ffbd" />
<circle cx="1076.9230769230767" cy="795.1682703166645" r="4" fill="#66ffbd" />
<circle cx="1113.8461538461538" cy="798.9086145367485" r="4" fill="#66ffbd" />
<circle cx="1150.7692307692307" cy="801.2756922798934" r="4" fill="#66ffbd" />
<circle cx="1187.6923076923076" cy="804.3384379093825" r="4" fill="#66ffbd" />
<circle cx="1224.6153846153845" cy="805.4858381894566" r="4" fill="#66ffbd" />
<circle cx="1261.5384615384614" cy="812.8039029678819" r="4" fill="#66ffbd" />
<circle cx="1298.4615384615383" cy="813.8519221213353" r="4" fill="#66ffbd" />
<circle cx="1335.3846153846152" cy="815.6498170483806" r="4" fill="#66ffbd" />
<circle cx="1372.3076923076922" cy="817.8452364819082" r="4" fill="#66ffbd" />
<circle cx="1409.230769230769" cy="819.1913990152234" r="4" fill="#66ffbd" />
<circle cx="1446.153846153846" cy="820.7634277454036" r="4" fill="#66ffbd" />
<circle cx="1483.0769230769229" cy="823.1937480236708" r="4" fill="#66ffbd" />
<circle cx="1519.9999999999998" cy="822.1366942223427" r="4" fill="#66ffbd" />
<path d="M 80.0 920.0 L 116.92307692307692 635.5079730767493 L 153.84615384615384 662.1150110674437 L 190.76923076923077 678.4044811853458 L 227.69230769230768 690.6012558160546 L 264.6153846153846 693.6820707412928 L 301.53846153846155 701.677734110313 L 338.46153846153845 707.5773591724262 L 375.38461538461536 715.2929484573339 L 412.30769230769226 721.4094050684375 L 449.23076923076917 725.7279667524958 L 486.15384615384613 729.8296968875638 L 523.0769230769231 732.169670687085 L 560.0 738.6746171567963 L 596.9230769230769 748.9018385508425 L 633.8461538461538 756.8613633283643 L 670.7692307692307 762.3182906446222 L 707.6923076923076 771.0005872521119 L 744.6153846153845 771.9943985183178 L 781.5384615384614 773.9278131634819 L 818.4615384615383 777.3700140037042 L 855.3846153846154 783.1521886434476 L 892.3076923076923 784.7332520215025 L 929.2307692307692 787.877309481863 L 966.1538461538461 791.2291638433392 L 1003.076923076923 786.6485973709175 L 1040.0 793.5420336992365 L 1076.9230769230767 795.1682703166645 L 1113.8461538461538 798.9086145367485 L 1150.7692307692307 801.2756922798934 L 1187.6923076923076 804.3384379093825 L 1224.6153846153845 805.4858381894566 L 1261.5384615384614 812.8039029678819 L 1298.4615384615383 813.8519221213353 L 1335.3846153846152 815.6498170483806 L 1372.3076923076922 817.8452364819082 L 1409.230769230769 819.1913990152234 L 1446.153846153846 820.7634277454036 L 1483.0769230769229 823.1937480236708 L 1519.9999999999998 822.1366942223427" fill="none" stroke="#66ffbd" stroke-width="2" />
<text x="80.0" y="940" text-anchor="middle">08-06</text>
<text x="116.92307692307692" y="940" text-anchor="middle">08-07</text>
<text x="153.84615384615384" y="940" text-anchor="middle">08-08</text>
<text x="190.76923076923077" y="940" text-anchor="middle">08-09</text>
<text x="227.69230769230768" y="940" text-anchor="middle">08-10</text>
<text x="264.6153846153846" y="940" text-anchor="middle">08-11</text>
<text x="301.53846153846155" y="940" text-anchor="middle">08-12</text>
<text x="338.46153846153845" y="940" text-anchor="middle">08-13</text>
<text x="375.38461538461536" y="940" text-anchor="middle">08-14</text>
<text x="412.30769230769226" y="940" text-anchor="middle">08-15</text>
<text x="449.23076923076917" y="940" text-anchor="middle">08-16</text>
<text x="486.15384615384613" y="940" text-anchor="middle">08-17</text>
<text x="523.0769230769231" y="940" text-anchor="middle">08-18</text>
<text x="560.0" y="940" text-anchor="middle">08-19</text>
<text x="596.9230769230769" y="940" text-anchor="middle">08-20</text>
<text x="633.8461538461538" y="940" text-anchor="middle">08-21</text>
<text x="670.7692307692307" y="940" text-anchor="middle">08-22</text>
<text x="707.6923076923076" y="940" text-anchor="middle">08-23</text>
<text x="744.6153846153845" y="940" text-anchor="middle">08-24</text>
<text x="781.5384615384614" y="940" text-anchor="middle">08-25</text>
<text x="818.4615384615383" y="940" text-anchor="middle">08-26</text>
<text x="855.3846153846154" y="940" text-anchor="middle">08-27</text>
<text x="892.3076923076923" y="940" text-anchor="middle">08-28</text>
<text x="929.2307692307692" y="940" text-anchor="middle">08-29</text>
<text x="966.1538461538461" y="940" text-anchor="middle">08-30</text>
<text x="1003.076923076923" y="940" text-anchor="middle">08-31</text>
<text x="1040.0" y="940" text-anchor="middle">09-01</text>
<text x="1076.9230769230767" y="940" text-anchor="middle">09-02</text>
<text x="1113.8461538461538" y="940" text-anchor="middle">09-03</text>
<text x="1150.7692307692307" y="940" text-anchor="middle">09-04</text>
<text x="1187.6923076923076" y="940" text-anchor="middle">09-05</text>
<text x="1224.6153846153845" y="940" text-anchor="middle">09-06</text>
<text x="1261.5384615384614" y="940" text-anchor="middle">09-07</text>
<text x="1298.4615384615383" y="940" text-anchor="middle">09-08</text>
<text x="1335.3846153846152" y="940" text-anchor="middle">09-09</text>
<text x="1372.3076923076922" y="940" text-anchor="middle">09-10</text>
<text x="1409.230769230769" y="940" text-anchor="middle">09-11</text>
<text x="1446.153846153846" y="940" text-anchor="middle">09-12</text>
<text x="1483.0769230769229" y="940" text-anchor="middle">09-13</text>
<text x="1519.9999999999998" y="940" text-anchor="middle">09-14</text>
<rect x="90" y="100" width="130" height="185" class="legend-box" />
<text x="100" y="120" class="legend-item">图例:</text>
<rect x="100" y="137" width="15" height="15" fill="#1f77b4" rx="3" />
<text x="120" y="145" class="legend-item">构件聚合数据</text>
<rect x="100" y="162" width="15" height="15" fill="#ff7f0e" rx="3" />
<text x="120" y="170" class="legend-item">构件基本信息</text>
<rect x="100" y="187" width="15" height="15" fill="#2ca02c" rx="3" />
<text x="120" y="195" class="legend-item">构件徽标</text>
<rect x="100" y="212" width="15" height="15" fill="#d62728" rx="3" />
<text x="120" y="220" class="legend-item">构件扩展元数据</text>
<rect x="100" y="237" width="15" height="15" fill="#9467bd" rx="3" />
<text x="120" y="245" class="legend-item">构件版本信息</text>
<rect x="100" y="262" width="15" height="15" fill="#66ffbd" rx="3" />
<text x="120" y="270" class="legend-item">数据量偏差</text>
<text x="1520" y="990" text-anchor="end" font-size="10" fill="#666">生成时间: 2025-09-14 02:26:02</text>
</svg>