<svg xmlns="http://www.w3.org/2000/svg" width="1600" height="1000" viewBox="0 0 1600 1000">
<style>
  text {
    font-family: Arial, sans-serif;
    font-size: 12px;
    fill: #333;
  }
  .axis-label { font-size: 14px; }
  .title { font-size: 18px; font-weight: bold; }
  .legend-item { font-size: 11px; }
  .legend-box { fill: white; fill-opacity: 0.85; stroke: #cccccc; stroke-width: 1; rx: 5; }
</style>
<text x="800.0" y="30" text-anchor="middle" class="title">Daily Data Growth Trend</text>
<text x="800.0" y="980" text-anchor="middle" class="axis-label">Date</text>
<g transform="rotate(-90)">
<text x="-500.0" y="20" text-anchor="middle" class="axis-label">Count</text>
</g>
<rect x="0" y="0" width="1600" height="1000" fill="#f8f8f8" />
<line x1="80" y1="920.0" x2="1520" y2="920.0" stroke="#e0e0e0" stroke-width="1" />
<text x="70" y="925.0" text-anchor="end">0</text>
<line x1="80" y1="752.0" x2="1520" y2="752.0" stroke="#e0e0e0" stroke-width="1" />
<text x="70" y="757.0" text-anchor="end">15.9k</text>
<line x1="80" y1="584.0" x2="1520" y2="584.0" stroke="#e0e0e0" stroke-width="1" />
<text x="70" y="589.0" text-anchor="end">31.7k</text>
<line x1="80" y1="416.0" x2="1520" y2="416.0" stroke="#e0e0e0" stroke-width="1" />
<text x="70" y="421.0" text-anchor="end">47.6k</text>
<line x1="80" y1="248.0" x2="1520" y2="248.0" stroke="#e0e0e0" stroke-width="1" />
<text x="70" y="253.0" text-anchor="end">63.4k</text>
<line x1="80" y1="80.0" x2="1520" y2="80.0" stroke="#e0e0e0" stroke-width="1" />
<text x="70" y="85.0" text-anchor="end">79.3k</text>
<line x1="80" y1="80" x2="80" y2="920" stroke="#333333" stroke-width="2" />
<line x1="80" y1="920" x2="1520" y2="920" stroke="#333333" stroke-width="2" />
<circle cx="80.0" cy="920.0" r="4" fill="#1f77b4" />
<circle cx="137.6" cy="868.219653332274" r="4" fill="#1f77b4" />
<circle cx="195.2" cy="758.4830307604709" r="4" fill="#1f77b4" />
<circle cx="252.8" cy="714.3404970934466" r="4" fill="#1f77b4" />
<circle cx="310.4" cy="687.7723486804646" r="4" fill="#1f77b4" />
<circle cx="368.0" cy="674.4353076709173" r="4" fill="#1f77b4" />
<circle cx="425.6" cy="647.8671592579351" r="4" fill="#1f77b4" />
<circle cx="483.2" cy="619.1909320833167" r="4" fill="#1f77b4" />
<circle cx="540.8" cy="592.7604973582806" r="4" fill="#1f77b4" />
<circle cx="598.4" cy="571.2136018750248" r="4" fill="#1f77b4" />
<circle cx="656.0" cy="551.5629179411803" r="4" fill="#1f77b4" />
<circle cx="713.6" cy="539.2110594684782" r="4" fill="#1f77b4" />
<circle cx="771.2" cy="526.9863213231107" r="4" fill="#1f77b4" />
<circle cx="828.8000000000001" cy="508.6068406626147" r="4" fill="#1f77b4" />
<circle cx="886.4" cy="482.50480011652695" r="4" fill="#1f77b4" />
<circle cx="944.0" cy="454.2734940875806" r="4" fill="#1f77b4" />
<circle cx="1001.6" cy="435.5338391663025" r="4" fill="#1f77b4" />
<circle cx="1059.2" cy="409.88731312649793" r="4" fill="#1f77b4" />
<circle cx="1116.8" cy="399.293952515261" r="4" fill="#1f77b4" />
<circle cx="1174.4" cy="389.5374673923119" r="4" fill="#1f77b4" />
<circle cx="1232.0" cy="368.55202002145154" r="4" fill="#1f77b4" />
<circle cx="1289.6000000000001" cy="347.91615355076203" r="4" fill="#1f77b4" />
<circle cx="1347.2" cy="329.64260649637833" r="4" fill="#1f77b4" />
<circle cx="1404.8" cy="304.4198148810233" r="4" fill="#1f77b4" />
<circle cx="1462.4" cy="287.05729683920606" r="4" fill="#1f77b4" />
<circle cx="1520.0" cy="276.3580026218567" r="4" fill="#1f77b4" />
<path d="M 80.0 920.0 L 137.6 868.219653332274 L 195.2 758.4830307604709 L 252.8 714.3404970934466 L 310.4 687.7723486804646 L 368.0 674.4353076709173 L 425.6 647.8671592579351 L 483.2 619.1909320833167 L 540.8 592.7604973582806 L 598.4 571.2136018750248 L 656.0 551.5629179411803 L 713.6 539.2110594684782 L 771.2 526.9863213231107 L 828.8000000000001 508.6068406626147 L 886.4 482.50480011652695 L 944.0 454.2734940875806 L 1001.6 435.5338391663025 L 1059.2 409.88731312649793 L 1116.8 399.293952515261 L 1174.4 389.5374673923119 L 1232.0 368.55202002145154 L 1289.6000000000001 347.91615355076203 L 1347.2 329.64260649637833 L 1404.8 304.4198148810233 L 1462.4 287.05729683920606 L 1520.0 276.3580026218567" fill="none" stroke="#1f77b4" stroke-width="2" />
<circle cx="80.0" cy="920.0" r="4" fill="#ff7f0e" />
<circle cx="137.6" cy="542.071266833512" r="4" fill="#ff7f0e" />
<circle cx="195.2" cy="463.2248838040758" r="4" fill="#ff7f0e" />
<circle cx="252.8" cy="437.9385320250533" r="4" fill="#ff7f0e" />
<circle cx="310.4" cy="425.48073994623866" r="4" fill="#ff7f0e" />
<circle cx="368.0" cy="415.73484818390074" r="4" fill="#ff7f0e" />
<circle cx="425.6" cy="398.36173678147225" r="4" fill="#ff7f0e" />
<circle cx="483.2" cy="376.31695334948824" r="4" fill="#ff7f0e" />
<circle cx="540.8" cy="358.7319747348349" r="4" fill="#ff7f0e" />
<circle cx="598.4" cy="344.24025741866285" r="4" fill="#ff7f0e" />
<circle cx="656.0" cy="329.57904633271096" r="4" fill="#ff7f0e" />
<circle cx="713.6" cy="321.9200466107867" r="4" fill="#ff7f0e" />
<circle cx="771.2" cy="312.4389888637296" r="4" fill="#ff7f0e" />
<circle cx="828.8000000000001" cy="301.65494776149046" r="4" fill="#ff7f0e" />
<circle cx="886.4" cy="287.22679060898577" r="4" fill="#ff7f0e" />
<circle cx="944.0" cy="267.91509421470096" r="4" fill="#ff7f0e" />
<circle cx="1001.6" cy="255.52086229955376" r="4" fill="#ff7f0e" />
<circle cx="1059.2" cy="240.04396244653663" r="4" fill="#ff7f0e" />
<circle cx="1116.8" cy="230.62646486314702" r="4" fill="#ff7f0e" />
<circle cx="1174.4" cy="223.11577218978005" r="4" fill="#ff7f0e" />
<circle cx="1232.0" cy="206.0498682450774" r="4" fill="#ff7f0e" />
<circle cx="1289.6000000000001" cy="192.16197248374579" r="4" fill="#ff7f0e" />
<circle cx="1347.2" cy="175.72107681510613" r="4" fill="#ff7f0e" />
<circle cx="1404.8" cy="154.15299461062773" r="4" fill="#ff7f0e" />
<circle cx="1462.4" cy="140.67823991313446" r="4" fill="#ff7f0e" />
<circle cx="1520.0" cy="124.59751850527675" r="4" fill="#ff7f0e" />
<path d="M 80.0 920.0 L 137.6 542.071266833512 L 195.2 463.2248838040758 L 252.8 437.9385320250533 L 310.4 425.48073994623866 L 368.0 415.73484818390074 L 425.6 398.36173678147225 L 483.2 376.31695334948824 L 540.8 358.7319747348349 L 598.4 344.24025741866285 L 656.0 329.57904633271096 L 713.6 321.9200466107867 L 771.2 312.4389888637296 L 828.8000000000001 301.65494776149046 L 886.4 287.22679060898577 L 944.0 267.91509421470096 L 1001.6 255.52086229955376 L 1059.2 240.04396244653663 L 1116.8 230.62646486314702 L 1174.4 223.11577218978005 L 1232.0 206.0498682450774 L 1289.6000000000001 192.16197248374579 L 1347.2 175.72107681510613 L 1404.8 154.15299461062773 L 1462.4 140.67823991313446 L 1520.0 124.59751850527675" fill="none" stroke="#ff7f0e" stroke-width="2" />
<circle cx="80.0" cy="920.0" r="4" fill="#2ca02c" />
<circle cx="137.6" cy="534.645321045035" r="4" fill="#2ca02c" />
<circle cx="195.2" cy="456.1061454733246" r="4" fill="#2ca02c" />
<circle cx="252.8" cy="431.0634409883605" r="4" fill="#2ca02c" />
<circle cx="310.4" cy="418.7963294005482" r="4" fill="#2ca02c" />
<circle cx="368.0" cy="409.0716243594327" r="4" fill="#2ca02c" />
<circle cx="425.6" cy="391.87860008739517" r="4" fill="#2ca02c" />
<circle cx="483.2" cy="370.11983739191464" r="4" fill="#2ca02c" />
<circle cx="540.8" cy="352.7361326288749" r="4" fill="#2ca02c" />
<circle cx="598.4" cy="338.36094227942635" r="4" fill="#2ca02c" />
<circle cx="656.0" cy="323.77388471775316" r="4" fill="#2ca02c" />
<circle cx="713.6" cy="316.23141196255244" r="4" fill="#2ca02c" />
<circle cx="771.2" cy="306.75035421549546" r="4" fill="#2ca02c" />
<circle cx="828.8000000000001" cy="295.99809319508995" r="4" fill="#2ca02c" />
<circle cx="886.4" cy="281.88773686092236" r="4" fill="#2ca02c" />
<circle cx="944.0" cy="262.9891815304758" r="4" fill="#2ca02c" />
<circle cx="1001.6" cy="250.64791641838474" r="4" fill="#2ca02c" />
<circle cx="1059.2" cy="235.18160992597882" r="4" fill="#2ca02c" />
<circle cx="1116.8" cy="225.753518981978" r="4" fill="#2ca02c" />
<circle cx="1174.4" cy="218.26401302983356" r="4" fill="#2ca02c" />
<circle cx="1232.0" cy="201.31463605185445" r="4" fill="#2ca02c" />
<circle cx="1289.6000000000001" cy="187.4585203723566" r="4" fill="#2ca02c" />
<circle cx="1347.2" cy="171.03881142493935" r="4" fill="#2ca02c" />
<circle cx="1404.8" cy="149.5025093022948" r="4" fill="#2ca02c" />
<circle cx="1462.4" cy="136.07012804724638" r="4" fill="#2ca02c" />
<circle cx="1520.0" cy="120.0" r="4" fill="#2ca02c" />
<path d="M 80.0 920.0 L 137.6 534.645321045035 L 195.2 456.1061454733246 L 252.8 431.0634409883605 L 310.4 418.7963294005482 L 368.0 409.0716243594327 L 425.6 391.87860008739517 L 483.2 370.11983739191464 L 540.8 352.7361326288749 L 598.4 338.36094227942635 L 656.0 323.77388471775316 L 713.6 316.23141196255244 L 771.2 306.75035421549546 L 828.8000000000001 295.99809319508995 L 886.4 281.88773686092236 L 944.0 262.9891815304758 L 1001.6 250.64791641838474 L 1059.2 235.18160992597882 L 1116.8 225.753518981978 L 1174.4 218.26401302983356 L 1232.0 201.31463605185445 L 1289.6000000000001 187.4585203723566 L 1347.2 171.03881142493935 L 1404.8 149.5025093022948 L 1462.4 136.07012804724638 L 1520.0 120.0" fill="none" stroke="#2ca02c" stroke-width="2" />
<circle cx="80.0" cy="920.0" r="4" fill="#d62728" />
<circle cx="137.6" cy="845.2320608058899" r="4" fill="#d62728" />
<circle cx="195.2" cy="737.020882162105" r="4" fill="#d62728" />
<circle cx="252.8" cy="699.5733524013824" r="4" fill="#d62728" />
<circle cx="310.4" cy="673.0581707914564" r="4" fill="#d62728" />
<circle cx="368.0" cy="659.8376567486328" r="4" fill="#d62728" />
<circle cx="425.6" cy="633.8097697268237" r="4" fill="#d62728" />
<circle cx="483.2" cy="606.4683059892212" r="4" fill="#d62728" />
<circle cx="540.8" cy="581.2984811769223" r="4" fill="#d62728" />
<circle cx="598.4" cy="560.2071001999497" r="4" fill="#d62728" />
<circle cx="656.0" cy="540.6199764297726" r="4" fill="#d62728" />
<circle cx="713.6" cy="528.2893046782929" r="4" fill="#d62728" />
<circle cx="771.2" cy="516.0751598935367" r="4" fill="#d62728" />
<circle cx="828.8000000000001" cy="498.606708245607" r="4" fill="#d62728" />
<circle cx="886.4" cy="472.8118751572452" r="4" fill="#d62728" />
<circle cx="944.0" cy="445.05727035580446" r="4" fill="#d62728" />
<circle cx="1001.6" cy="427.2074577258703" r="4" fill="#d62728" />
<circle cx="1059.2" cy="401.8787325044028" r="4" fill="#d62728" />
<circle cx="1116.8" cy="391.2853718931659" r="4" fill="#d62728" />
<circle cx="1174.4" cy="381.6348203763291" r="4" fill="#d62728" />
<circle cx="1232.0" cy="360.9036136601385" r="4" fill="#d62728" />
<circle cx="1289.6000000000001" cy="341.517763741575" r="4" fill="#d62728" />
<circle cx="1347.2" cy="323.31837021147" r="4" fill="#d62728" />
<circle cx="1404.8" cy="298.11676531733735" r="4" fill="#d62728" />
<circle cx="1462.4" cy="281.32628874852685" r="4" fill="#d62728" />
<circle cx="1520.0" cy="270.6269945311776" r="4" fill="#d62728" />
<path d="M 80.0 920.0 L 137.6 845.2320608058899 L 195.2 737.020882162105 L 252.8 699.5733524013824 L 310.4 673.0581707914564 L 368.0 659.8376567486328 L 425.6 633.8097697268237 L 483.2 606.4683059892212 L 540.8 581.2984811769223 L 598.4 560.2071001999497 L 656.0 540.6199764297726 L 713.6 528.2893046782929 L 771.2 516.0751598935367 L 828.8000000000001 498.606708245607 L 886.4 472.8118751572452 L 944.0 445.05727035580446 L 1001.6 427.2074577258703 L 1059.2 401.8787325044028 L 1116.8 391.2853718931659 L 1174.4 381.6348203763291 L 1232.0 360.9036136601385 L 1289.6000000000001 341.517763741575 L 1347.2 323.31837021147 L 1404.8 298.11676531733735 L 1462.4 281.32628874852685 L 1520.0 270.6269945311776" fill="none" stroke="#d62728" stroke-width="2" />
<circle cx="80.0" cy="920.0" r="4" fill="#9467bd" />
<circle cx="137.6" cy="853.1241144612613" r="4" fill="#9467bd" />
<circle cx="195.2" cy="744.4997947536382" r="4" fill="#9467bd" />
<circle cx="252.8" cy="700.4631946927263" r="4" fill="#9467bd" />
<circle cx="310.4" cy="673.8632661979104" r="4" fill="#9467bd" />
<circle cx="368.0" cy="661.9987023133251" r="4" fill="#9467bd" />
<circle cx="425.6" cy="635.74835471868" r="4" fill="#9467bd" />
<circle cx="483.2" cy="607.1462810683404" r="4" fill="#9467bd" />
<circle cx="540.8" cy="581.2667010950886" r="4" fill="#9467bd" />
<circle cx="598.4" cy="559.9422661846688" r="4" fill="#9467bd" />
<circle cx="656.0" cy="540.5776029873277" r="4" fill="#9467bd" />
<circle cx="713.6" cy="528.2363378752367" r="4" fill="#9467bd" />
<circle cx="771.2" cy="515.9374462055906" r="4" fill="#9467bd" />
<circle cx="828.8000000000001" cy="497.663899151207" r="4" fill="#9467bd" />
<circle cx="886.4" cy="472.05974655384733" r="4" fill="#9467bd" />
<circle cx="944.0" cy="443.76488036123357" r="4" fill="#9467bd" />
<circle cx="1001.6" cy="425.4277731431825" r="4" fill="#9467bd" />
<circle cx="1059.2" cy="403.4147697930322" r="4" fill="#9467bd" />
<circle cx="1116.8" cy="392.81081582118406" r="4" fill="#9467bd" />
<circle cx="1174.4" cy="383.0543306982348" r="4" fill="#9467bd" />
<circle cx="1232.0" cy="362.0159165243184" r="4" fill="#9467bd" />
<circle cx="1289.6000000000001" cy="342.0262450509143" r="4" fill="#9467bd" />
<circle cx="1347.2" cy="323.84803824203175" r="4" fill="#9467bd" />
<circle cx="1404.8" cy="298.551093102398" r="4" fill="#9467bd" />
<circle cx="1462.4" cy="281.5169692395291" r="4" fill="#9467bd" />
<circle cx="1520.0" cy="270.8494551040135" r="4" fill="#9467bd" />
<path d="M 80.0 920.0 L 137.6 853.1241144612613 L 195.2 744.4997947536382 L 252.8 700.4631946927263 L 310.4 673.8632661979104 L 368.0 661.9987023133251 L 425.6 635.74835471868 L 483.2 607.1462810683404 L 540.8 581.2667010950886 L 598.4 559.9422661846688 L 656.0 540.5776029873277 L 713.6 528.2363378752367 L 771.2 515.9374462055906 L 828.8000000000001 497.663899151207 L 886.4 472.05974655384733 L 944.0 443.76488036123357 L 1001.6 425.4277731431825 L 1059.2 403.4147697930322 L 1116.8 392.81081582118406 L 1174.4 383.0543306982348 L 1232.0 362.0159165243184 L 1289.6000000000001 342.0262450509143 L 1347.2 323.84803824203175 L 1404.8 298.551093102398 L 1462.4 281.5169692395291 L 1520.0 270.8494551040135" fill="none" stroke="#9467bd" stroke-width="2" />
<circle cx="80.0" cy="920.0" r="4" fill="#66ffbd" />
<circle cx="137.6" cy="586.425667712761" r="4" fill="#66ffbd" />
<circle cx="195.2" cy="617.6231147128537" r="4" fill="#66ffbd" />
<circle cx="252.8" cy="636.7229438949139" r="4" fill="#66ffbd" />
<circle cx="310.4" cy="651.0239807200837" r="4" fill="#66ffbd" />
<circle cx="368.0" cy="654.6363166885155" r="4" fill="#66ffbd" />
<circle cx="425.6" cy="664.0114408294601" r="4" fill="#66ffbd" />
<circle cx="483.2" cy="670.9289053085978" r="4" fill="#66ffbd" />
<circle cx="540.8" cy="679.9756352705941" r="4" fill="#66ffbd" />
<circle cx="598.4" cy="687.1473404044016" r="4" fill="#66ffbd" />
<circle cx="656.0" cy="692.2109667765728" r="4" fill="#66ffbd" />
<circle cx="713.6" cy="697.0203524940744" r="4" fill="#66ffbd" />
<circle cx="771.2" cy="699.7640328923846" r="4" fill="#66ffbd" />
<circle cx="828.8000000000001" cy="707.3912525324753" r="4" fill="#66ffbd" />
<circle cx="886.4" cy="719.3829367443955" r="4" fill="#66ffbd" />
<circle cx="944.0" cy="728.7156874428952" r="4" fill="#66ffbd" />
<circle cx="1001.6" cy="735.1140772520822" r="4" fill="#66ffbd" />
<circle cx="1059.2" cy="745.2942967994809" r="4" fill="#66ffbd" />
<circle cx="1116.8" cy="746.459566466717" r="4" fill="#66ffbd" />
<circle cx="1174.4" cy="748.7265456375217" r="4" fill="#66ffbd" />
<circle cx="1232.0" cy="752.7626160304029" r="4" fill="#66ffbd" />
<circle cx="1289.6000000000001" cy="759.5423668215946" r="4" fill="#66ffbd" />
<circle cx="1347.2" cy="761.396204928561" r="4" fill="#66ffbd" />
<circle cx="1404.8" cy="765.0826944212715" r="4" fill="#66ffbd" />
<circle cx="1462.4" cy="769.0128312080403" r="4" fill="#66ffbd" />
<circle cx="1520.0" cy="763.6419973781433" r="4" fill="#66ffbd" />
<path d="M 80.0 920.0 L 137.6 586.425667712761 L 195.2 617.6231147128537 L 252.8 636.7229438949139 L 310.4 651.0239807200837 L 368.0 654.6363166885155 L 425.6 664.0114408294601 L 483.2 670.9289053085978 L 540.8 679.9756352705941 L 598.4 687.1473404044016 L 656.0 692.2109667765728 L 713.6 697.0203524940744 L 771.2 699.7640328923846 L 828.8000000000001 707.3912525324753 L 886.4 719.3829367443955 L 944.0 728.7156874428952 L 1001.6 735.1140772520822 L 1059.2 745.2942967994809 L 1116.8 746.459566466717 L 1174.4 748.7265456375217 L 1232.0 752.7626160304029 L 1289.6000000000001 759.5423668215946 L 1347.2 761.396204928561 L 1404.8 765.0826944212715 L 1462.4 769.0128312080403 L 1520.0 763.6419973781433" fill="none" stroke="#66ffbd" stroke-width="2" />
<text x="80.0" y="940" text-anchor="middle">08-06</text>
<text x="137.6" y="940" text-anchor="middle">08-07</text>
<text x="195.2" y="940" text-anchor="middle">08-08</text>
<text x="252.8" y="940" text-anchor="middle">08-09</text>
<text x="310.4" y="940" text-anchor="middle">08-10</text>
<text x="368.0" y="940" text-anchor="middle">08-11</text>
<text x="425.6" y="940" text-anchor="middle">08-12</text>
<text x="483.2" y="940" text-anchor="middle">08-13</text>
<text x="540.8" y="940" text-anchor="middle">08-14</text>
<text x="598.4" y="940" text-anchor="middle">08-15</text>
<text x="656.0" y="940" text-anchor="middle">08-16</text>
<text x="713.6" y="940" text-anchor="middle">08-17</text>
<text x="771.2" y="940" text-anchor="middle">08-18</text>
<text x="828.8000000000001" y="940" text-anchor="middle">08-19</text>
<text x="886.4" y="940" text-anchor="middle">08-20</text>
<text x="944.0" y="940" text-anchor="middle">08-21</text>
<text x="1001.6" y="940" text-anchor="middle">08-22</text>
<text x="1059.2" y="940" text-anchor="middle">08-23</text>
<text x="1116.8" y="940" text-anchor="middle">08-24</text>
<text x="1174.4" y="940" text-anchor="middle">08-25</text>
<text x="1232.0" y="940" text-anchor="middle">08-26</text>
<text x="1289.6000000000001" y="940" text-anchor="middle">08-27</text>
<text x="1347.2" y="940" text-anchor="middle">08-28</text>
<text x="1404.8" y="940" text-anchor="middle">08-29</text>
<text x="1462.4" y="940" text-anchor="middle">08-30</text>
<text x="1520.0" y="940" text-anchor="middle">08-31</text>
<rect x="90" y="100" width="130" height="185" class="legend-box" />
<text x="100" y="120" class="legend-item">图例:</text>
<rect x="100" y="137" width="15" height="15" fill="#1f77b4" rx="3" />
<text x="120" y="145" class="legend-item">构件聚合数据</text>
<rect x="100" y="162" width="15" height="15" fill="#ff7f0e" rx="3" />
<text x="120" y="170" class="legend-item">构件基本信息</text>
<rect x="100" y="187" width="15" height="15" fill="#2ca02c" rx="3" />
<text x="120" y="195" class="legend-item">构件徽标</text>
<rect x="100" y="212" width="15" height="15" fill="#d62728" rx="3" />
<text x="120" y="220" class="legend-item">构件扩展元数据</text>
<rect x="100" y="237" width="15" height="15" fill="#9467bd" rx="3" />
<text x="120" y="245" class="legend-item">构件版本信息</text>
<rect x="100" y="262" width="15" height="15" fill="#66ffbd" rx="3" />
<text x="120" y="270" class="legend-item">数据量偏差</text>
<text x="1520" y="990" text-anchor="end" font-size="10" fill="#666">生成时间: 2025-08-31 07:55:56</text>
</svg>