<svg xmlns="http://www.w3.org/2000/svg" width="1600" height="1000" viewBox="0 0 1600 1000">
<style>
  text {
    font-family: Arial, sans-serif;
    font-size: 12px;
    fill: #333;
  }
  .axis-label { font-size: 14px; }
  .title { font-size: 18px; font-weight: bold; }
  .legend-item { font-size: 11px; }
  .legend-box { fill: white; fill-opacity: 0.85; stroke: #cccccc; stroke-width: 1; rx: 5; }
</style>
<text x="800.0" y="30" text-anchor="middle" class="title">Daily Data Growth Trend</text>
<text x="800.0" y="980" text-anchor="middle" class="axis-label">Date</text>
<g transform="rotate(-90)">
<text x="-500.0" y="20" text-anchor="middle" class="axis-label">Count</text>
</g>
<rect x="0" y="0" width="1600" height="1000" fill="#f8f8f8" />
<line x1="80" y1="920.0" x2="1520" y2="920.0" stroke="#e0e0e0" stroke-width="1" />
<text x="70" y="925.0" text-anchor="end">0</text>
<line x1="80" y1="752.0" x2="1520" y2="752.0" stroke="#e0e0e0" stroke-width="1" />
<text x="70" y="757.0" text-anchor="end">17.7k</text>
<line x1="80" y1="584.0" x2="1520" y2="584.0" stroke="#e0e0e0" stroke-width="1" />
<text x="70" y="589.0" text-anchor="end">35.4k</text>
<line x1="80" y1="416.0" x2="1520" y2="416.0" stroke="#e0e0e0" stroke-width="1" />
<text x="70" y="421.0" text-anchor="end">53.1k</text>
<line x1="80" y1="248.0" x2="1520" y2="248.0" stroke="#e0e0e0" stroke-width="1" />
<text x="70" y="253.0" text-anchor="end">70.8k</text>
<line x1="80" y1="80.0" x2="1520" y2="80.0" stroke="#e0e0e0" stroke-width="1" />
<text x="70" y="85.0" text-anchor="end">88.5k</text>
<line x1="80" y1="80" x2="80" y2="920" stroke="#333333" stroke-width="2" />
<line x1="80" y1="920" x2="1520" y2="920" stroke="#333333" stroke-width="2" />
<circle cx="80.0" cy="920.0" r="4" fill="#1f77b4" />
<circle cx="122.35294117647058" cy="873.6094337608105" r="4" fill="#1f77b4" />
<circle cx="164.70588235294116" cy="775.2952202436738" r="4" fill="#1f77b4" />
<circle cx="207.05882352941177" cy="735.7474523388656" r="4" fill="#1f77b4" />
<circle cx="249.41176470588235" cy="711.9447640966629" r="4" fill="#1f77b4" />
<circle cx="291.7647058823529" cy="699.9959664503577" r="4" fill="#1f77b4" />
<circle cx="334.11764705882354" cy="676.1932782081549" r="4" fill="#1f77b4" />
<circle cx="376.4705882352941" cy="650.5019396628427" r="4" fill="#1f77b4" />
<circle cx="418.8235294117647" cy="626.8226305861697" r="4" fill="#1f77b4" />
<circle cx="461.1764705882353" cy="607.5185365332827" r="4" fill="#1f77b4" />
<circle cx="503.52941176470586" cy="589.9132786826901" r="4" fill="#1f77b4" />
<circle cx="545.8823529411765" cy="578.8471166051748" r="4" fill="#1f77b4" />
<circle cx="588.2352941176471" cy="567.8948429881485" r="4" fill="#1f77b4" />
<circle cx="630.5882352941177" cy="551.428469742446" r="4" fill="#1f77b4" />
<circle cx="672.9411764705882" cy="528.0433725220363" r="4" fill="#1f77b4" />
<circle cx="715.2941176470588" cy="502.7506435884356" r="4" fill="#1f77b4" />
<circle cx="757.6470588235294" cy="485.9615863713476" r="4" fill="#1f77b4" />
<circle cx="800.0" cy="462.9845894676901" r="4" fill="#1f77b4" />
<circle cx="842.3529411764706" cy="453.4938844269394" r="4" fill="#1f77b4" />
<circle cx="884.7058823529411" cy="444.752945084408" r="4" fill="#1f77b4" />
<circle cx="927.0588235294117" cy="425.9518583986808" r="4" fill="#1f77b4" />
<circle cx="969.4117647058823" cy="407.46396497929845" r="4" fill="#1f77b4" />
<circle cx="1011.7647058823529" cy="391.0924987840035" r="4" fill="#1f77b4" />
<circle cx="1054.1176470588234" cy="368.4951300819761" r="4" fill="#1f77b4" />
<circle cx="1096.4705882352941" cy="352.93986452018555" r="4" fill="#1f77b4" />
<circle cx="1138.8235294117646" cy="343.3542524290274" r="4" fill="#1f77b4" />
<circle cx="1181.1764705882354" cy="332.54433938761235" r="4" fill="#1f77b4" />
<circle cx="1223.5294117647059" cy="318.659437912994" r="4" fill="#1f77b4" />
<circle cx="1265.8823529411764" cy="306.60624251124057" r="4" fill="#1f77b4" />
<circle cx="1308.235294117647" cy="296.3657717722706" r="4" fill="#1f77b4" />
<circle cx="1350.5882352941176" cy="278.9788001376153" r="4" fill="#1f77b4" />
<circle cx="1392.9411764705883" cy="264.7901961016929" r="4" fill="#1f77b4" />
<circle cx="1435.2941176470588" cy="243.1513886087813" r="4" fill="#1f77b4" />
<circle cx="1477.6470588235293" cy="236.81159764155984" r="4" fill="#1f77b4" />
<circle cx="1520.0" cy="229.61764322067086" r="4" fill="#1f77b4" />
<path d="M 80.0 920.0 L 122.35294117647058 873.6094337608105 L 164.70588235294116 775.2952202436738 L 207.05882352941177 735.7474523388656 L 249.41176470588235 711.9447640966629 L 291.7647058823529 699.9959664503577 L 334.11764705882354 676.1932782081549 L 376.4705882352941 650.5019396628427 L 418.8235294117647 626.8226305861697 L 461.1764705882353 607.5185365332827 L 503.52941176470586 589.9132786826901 L 545.8823529411765 578.8471166051748 L 588.2352941176471 567.8948429881485 L 630.5882352941177 551.428469742446 L 672.9411764705882 528.0433725220363 L 715.2941176470588 502.7506435884356 L 757.6470588235294 485.9615863713476 L 800.0 462.9845894676901 L 842.3529411764706 453.4938844269394 L 884.7058823529411 444.752945084408 L 927.0588235294117 425.9518583986808 L 969.4117647058823 407.46396497929845 L 1011.7647058823529 391.0924987840035 L 1054.1176470588234 368.4951300819761 L 1096.4705882352941 352.93986452018555 L 1138.8235294117646 343.3542524290274 L 1181.1764705882354 332.54433938761235 L 1223.5294117647059 318.659437912994 L 1265.8823529411764 306.60624251124057 L 1308.235294117647 296.3657717722706 L 1350.5882352941176 278.9788001376153 L 1392.9411764705883 264.7901961016929 L 1435.2941176470588 243.1513886087813 L 1477.6470588235293 236.81159764155984 L 1520.0 229.61764322067086" fill="none" stroke="#1f77b4" stroke-width="2" />
<circle cx="80.0" cy="920.0" r="4" fill="#ff7f0e" />
<circle cx="122.35294117647058" cy="581.4096069661775" r="4" fill="#ff7f0e" />
<circle cx="164.70588235294116" cy="510.77028934786995" r="4" fill="#ff7f0e" />
<circle cx="207.05882352941177" cy="488.115976415598" r="4" fill="#ff7f0e" />
<circle cx="249.41176470588235" cy="476.95490728767516" r="4" fill="#ff7f0e" />
<circle cx="291.7647058823529" cy="468.2234586501845" r="4" fill="#ff7f0e" />
<circle cx="334.11764705882354" cy="452.65870238335333" r="4" fill="#ff7f0e" />
<circle cx="376.4705882352941" cy="432.9085451935511" r="4" fill="#ff7f0e" />
<circle cx="418.8235294117647" cy="417.1539748259049" r="4" fill="#ff7f0e" />
<circle cx="461.1764705882353" cy="404.170690330158" r="4" fill="#ff7f0e" />
<circle cx="503.52941176470586" cy="391.03555455375897" r="4" fill="#ff7f0e" />
<circle cx="545.8823529411765" cy="384.1737748092962" r="4" fill="#ff7f0e" />
<circle cx="588.2352941176471" cy="375.6795937978243" r="4" fill="#ff7f0e" />
<circle cx="630.5882352941177" cy="366.01805606634014" r="4" fill="#ff7f0e" />
<circle cx="672.9411764705882" cy="353.0917158008376" r="4" fill="#ff7f0e" />
<circle cx="715.2941176470588" cy="335.79016051154906" r="4" fill="#ff7f0e" />
<circle cx="757.6470588235294" cy="324.6860356138707" r="4" fill="#ff7f0e" />
<circle cx="800.0" cy="310.8201155493339" r="4" fill="#ff7f0e" />
<circle cx="842.3529411764706" cy="302.3828787681066" r="4" fill="#ff7f0e" />
<circle cx="884.7058823529411" cy="295.65396889421424" r="4" fill="#ff7f0e" />
<circle cx="927.0588235294117" cy="280.36444307356487" r="4" fill="#ff7f0e" />
<circle cx="969.4117647058823" cy="267.92212876514066" r="4" fill="#ff7f0e" />
<circle cx="1011.7647058823529" cy="253.19255454189556" r="4" fill="#ff7f0e" />
<circle cx="1054.1176470588234" cy="233.86947907892716" r="4" fill="#ff7f0e" />
<circle cx="1096.4705882352941" cy="221.79730226709228" r="4" fill="#ff7f0e" />
<circle cx="1138.8235294117646" cy="207.39041201523264" r="4" fill="#ff7f0e" />
<circle cx="1181.1764705882354" cy="203.8124162148696" r="4" fill="#ff7f0e" />
<circle cx="1223.5294117647059" cy="191.62635094254574" r="4" fill="#ff7f0e" />
<circle cx="1265.8823529411764" cy="183.4738353125408" r="4" fill="#ff7f0e" />
<circle cx="1308.235294117647" cy="175.67247576904379" r="4" fill="#ff7f0e" />
<circle cx="1350.5882352941176" cy="161.17067846677662" r="4" fill="#ff7f0e" />
<circle cx="1392.9411764705883" cy="148.1494311508667" r="4" fill="#ff7f0e" />
<circle cx="1435.2941176470588" cy="133.7994851292516" r="4" fill="#ff7f0e" />
<circle cx="1477.6470588235293" cy="128.56061594675725" r="4" fill="#ff7f0e" />
<circle cx="1520.0" cy="123.18887689369228" r="4" fill="#ff7f0e" />
<path d="M 80.0 920.0 L 122.35294117647058 581.4096069661775 L 164.70588235294116 510.77028934786995 L 207.05882352941177 488.115976415598 L 249.41176470588235 476.95490728767516 L 291.7647058823529 468.2234586501845 L 334.11764705882354 452.65870238335333 L 376.4705882352941 432.9085451935511 L 418.8235294117647 417.1539748259049 L 461.1764705882353 404.170690330158 L 503.52941176470586 391.03555455375897 L 545.8823529411765 384.1737748092962 L 588.2352941176471 375.6795937978243 L 630.5882352941177 366.01805606634014 L 672.9411764705882 353.0917158008376 L 715.2941176470588 335.79016051154906 L 757.6470588235294 324.6860356138707 L 800.0 310.8201155493339 L 842.3529411764706 302.3828787681066 L 884.7058823529411 295.65396889421424 L 927.0588235294117 280.36444307356487 L 969.4117647058823 267.92212876514066 L 1011.7647058823529 253.19255454189556 L 1054.1176470588234 233.86947907892716 L 1096.4705882352941 221.79730226709228 L 1138.8235294117646 207.39041201523264 L 1181.1764705882354 203.8124162148696 L 1223.5294117647059 191.62635094254574 L 1265.8823529411764 183.4738353125408 L 1308.235294117647 175.67247576904379 L 1350.5882352941176 161.17067846677662 L 1392.9411764705883 148.1494311508667 L 1435.2941176470588 133.7994851292516 L 1477.6470588235293 128.56061594675725 L 1520.0 123.18887689369228" fill="none" stroke="#ff7f0e" stroke-width="2" />
<circle cx="80.0" cy="920.0" r="4" fill="#2ca02c" />
<circle cx="122.35294117647058" cy="574.7566227326113" r="4" fill="#2ca02c" />
<circle cx="164.70588235294116" cy="504.3925355604855" r="4" fill="#2ca02c" />
<circle cx="207.05882352941177" cy="481.9565088441508" r="4" fill="#2ca02c" />
<circle cx="249.41176470588235" cy="470.9662724069615" r="4" fill="#2ca02c" />
<circle cx="291.7647058823529" cy="462.25380517955233" r="4" fill="#2ca02c" />
<circle cx="334.11764705882354" cy="446.85039089841393" r="4" fill="#2ca02c" />
<circle cx="376.4705882352941" cy="427.35648274471197" r="4" fill="#2ca02c" />
<circle cx="418.8235294117647" cy="411.78223577284" r="4" fill="#2ca02c" />
<circle cx="461.1764705882353" cy="398.9033490325413" r="4" fill="#2ca02c" />
<circle cx="503.52941176470586" cy="385.8346481914276" r="4" fill="#2ca02c" />
<circle cx="545.8823529411765" cy="379.07726620241306" r="4" fill="#2ca02c" />
<circle cx="588.2352941176471" cy="370.5830851909411" r="4" fill="#2ca02c" />
<circle cx="630.5882352941177" cy="360.9500195745792" r="4" fill="#2ca02c" />
<circle cx="672.9411764705882" cy="348.30840046029925" r="4" fill="#2ca02c" />
<circle cx="715.2941176470588" cy="331.37698266760003" r="4" fill="#2ca02c" />
<circle cx="757.6470588235294" cy="320.3203112951254" r="4" fill="#2ca02c" />
<circle cx="800.0" cy="306.4638819356294" r="4" fill="#2ca02c" />
<circle cx="842.3529411764706" cy="298.0171544493612" r="4" fill="#2ca02c" />
<circle cx="884.7058823529411" cy="291.3072259855504" r="4" fill="#2ca02c" />
<circle cx="927.0588235294117" cy="276.12209792034935" r="4" fill="#2ca02c" />
<circle cx="969.4117647058823" cy="263.70825572704734" r="4" fill="#2ca02c" />
<circle cx="1011.7647058823529" cy="248.9976629138838" r="4" fill="#2ca02c" />
<circle cx="1054.1176470588234" cy="229.7030595660376" r="4" fill="#2ca02c" />
<circle cx="1096.4705882352941" cy="217.66884557436572" r="4" fill="#2ca02c" />
<circle cx="1138.8235294117646" cy="203.27144602754686" r="4" fill="#2ca02c" />
<circle cx="1181.1764705882354" cy="199.70294093222458" r="4" fill="#2ca02c" />
<circle cx="1223.5294117647059" cy="187.5263663649414" r="4" fill="#2ca02c" />
<circle cx="1265.8823529411764" cy="179.4023228500588" r="4" fill="#2ca02c" />
<circle cx="1308.235294117647" cy="171.64841683176542" r="4" fill="#2ca02c" />
<circle cx="1350.5882352941176" cy="157.4787942059246" r="4" fill="#2ca02c" />
<circle cx="1392.9411764705883" cy="144.49550971017766" r="4" fill="#2ca02c" />
<circle cx="1435.2941176470588" cy="130.5441733002741" r="4" fill="#2ca02c" />
<circle cx="1477.6470588235293" cy="125.30530411777977" r="4" fill="#2ca02c" />
<circle cx="1520.0" cy="120.00000000000011" r="4" fill="#2ca02c" />
<path d="M 80.0 920.0 L 122.35294117647058 574.7566227326113 L 164.70588235294116 504.3925355604855 L 207.05882352941177 481.9565088441508 L 249.41176470588235 470.9662724069615 L 291.7647058823529 462.25380517955233 L 334.11764705882354 446.85039089841393 L 376.4705882352941 427.35648274471197 L 418.8235294117647 411.78223577284 L 461.1764705882353 398.9033490325413 L 503.52941176470586 385.8346481914276 L 545.8823529411765 379.07726620241306 L 588.2352941176471 370.5830851909411 L 630.5882352941177 360.9500195745792 L 672.9411764705882 348.30840046029925 L 715.2941176470588 331.37698266760003 L 757.6470588235294 320.3203112951254 L 800.0 306.4638819356294 L 842.3529411764706 298.0171544493612 L 884.7058823529411 291.3072259855504 L 927.0588235294117 276.12209792034935 L 969.4117647058823 263.70825572704734 L 1011.7647058823529 248.9976629138838 L 1054.1176470588234 229.7030595660376 L 1096.4705882352941 217.66884557436572 L 1138.8235294117646 203.27144602754686 L 1181.1764705882354 199.70294093222458 L 1223.5294117647059 187.5263663649414 L 1265.8823529411764 179.4023228500588 L 1308.235294117647 171.64841683176542 L 1350.5882352941176 157.4787942059246 L 1392.9411764705883 144.49550971017766 L 1435.2941176470588 130.5441733002741 L 1477.6470588235293 125.30530411777977 L 1520.0 120.00000000000011" fill="none" stroke="#2ca02c" stroke-width="2" />
<circle cx="80.0" cy="920.0" r="4" fill="#d62728" />
<circle cx="122.35294117647058" cy="853.0146038223814" r="4" fill="#d62728" />
<circle cx="164.70588235294116" cy="756.0670518311128" r="4" fill="#d62728" />
<circle cx="207.05882352941177" cy="722.5174095120592" r="4" fill="#d62728" />
<circle cx="249.41176470588235" cy="698.7621747950601" r="4" fill="#d62728" />
<circle cx="291.7647058823529" cy="686.9177749042033" r="4" fill="#d62728" />
<circle cx="334.11764705882354" cy="663.5991126190787" r="4" fill="#d62728" />
<circle cx="376.4705882352941" cy="639.1036029089012" r="4" fill="#d62728" />
<circle cx="418.8235294117647" cy="616.5536877320774" r="4" fill="#d62728" />
<circle cx="461.1764705882353" cy="597.6576939959427" r="4" fill="#d62728" />
<circle cx="503.52941176470586" cy="580.1093803755947" r="4" fill="#d62728" />
<circle cx="545.8823529411765" cy="569.0621997081608" r="4" fill="#d62728" />
<circle cx="588.2352941176471" cy="558.1194167961753" r="4" fill="#d62728" />
<circle cx="630.5882352941177" cy="542.4692441839774" r="4" fill="#d62728" />
<circle cx="672.9411764705882" cy="519.3593774097494" r="4" fill="#d62728" />
<circle cx="715.2941176470588" cy="494.4937302029825" r="4" fill="#d62728" />
<circle cx="757.6470588235294" cy="478.50189220931753" r="4" fill="#d62728" />
<circle cx="800.0" cy="455.80961645688257" r="4" fill="#d62728" />
<circle cx="842.3529411764706" cy="446.31891141613187" r="4" fill="#d62728" />
<circle cx="884.7058823529411" cy="437.672879124008" r="4" fill="#d62728" />
<circle cx="927.0588235294117" cy="419.09956935925885" r="4" fill="#d62728" />
<circle cx="969.4117647058823" cy="401.73157913468503" r="4" fill="#d62728" />
<circle cx="1011.7647058823529" cy="385.4265478746753" r="4" fill="#d62728" />
<circle cx="1054.1176470588234" cy="362.8481605827293" r="4" fill="#d62728" />
<circle cx="1096.4705882352941" cy="347.8053930931395" r="4" fill="#d62728" />
<circle cx="1138.8235294117646" cy="338.21978100198123" r="4" fill="#d62728" />
<circle cx="1181.1764705882354" cy="327.4003772555254" r="4" fill="#d62728" />
<circle cx="1223.5294117647059" cy="313.5154757809071" r="4" fill="#d62728" />
<circle cx="1265.8823529411764" cy="302.2689903076175" r="4" fill="#d62728" />
<circle cx="1308.235294117647" cy="292.047500978729" r="4" fill="#d62728" />
<circle cx="1350.5882352941176" cy="274.69849216423677" r="4" fill="#d62728" />
<circle cx="1392.9411764705883" cy="260.5193788333552" r="4" fill="#d62728" />
<circle cx="1435.2941176470588" cy="238.99445980093253" r="4" fill="#d62728" />
<circle cx="1477.6470588235293" cy="232.68314094883328" r="4" fill="#d62728" />
<circle cx="1520.0" cy="225.4891865279443" r="4" fill="#d62728" />
<path d="M 80.0 920.0 L 122.35294117647058 853.0146038223814 L 164.70588235294116 756.0670518311128 L 207.05882352941177 722.5174095120592 L 249.41176470588235 698.7621747950601 L 291.7647058823529 686.9177749042033 L 334.11764705882354 663.5991126190787 L 376.4705882352941 639.1036029089012 L 418.8235294117647 616.5536877320774 L 461.1764705882353 597.6576939959427 L 503.52941176470586 580.1093803755947 L 545.8823529411765 569.0621997081608 L 588.2352941176471 558.1194167961753 L 630.5882352941177 542.4692441839774 L 672.9411764705882 519.3593774097494 L 715.2941176470588 494.4937302029825 L 757.6470588235294 478.50189220931753 L 800.0 455.80961645688257 L 842.3529411764706 446.31891141613187 L 884.7058823529411 437.672879124008 L 927.0588235294117 419.09956935925885 L 969.4117647058823 401.73157913468503 L 1011.7647058823529 385.4265478746753 L 1054.1176470588234 362.8481605827293 L 1096.4705882352941 347.8053930931395 L 1138.8235294117646 338.21978100198123 L 1181.1764705882354 327.4003772555254 L 1223.5294117647059 313.5154757809071 L 1265.8823529411764 302.2689903076175 L 1308.235294117647 292.047500978729 L 1350.5882352941176 274.69849216423677 L 1392.9411764705883 260.5193788333552 L 1435.2941176470588 238.99445980093253 L 1477.6470588235293 232.68314094883328 L 1520.0 225.4891865279443" fill="none" stroke="#d62728" stroke-width="2" />
<circle cx="80.0" cy="920.0" r="4" fill="#9467bd" />
<circle cx="122.35294117647058" cy="860.0851790777407" r="4" fill="#9467bd" />
<circle cx="164.70588235294116" cy="762.7674895898829" r="4" fill="#9467bd" />
<circle cx="207.05882352941177" cy="723.3146287354822" r="4" fill="#9467bd" />
<circle cx="249.41176470588235" cy="699.4834683781571" r="4" fill="#9467bd" />
<circle cx="291.7647058823529" cy="688.8538787325164" r="4" fill="#9467bd" />
<circle cx="334.11764705882354" cy="665.3359116415361" r="4" fill="#9467bd" />
<circle cx="376.4705882352941" cy="639.7110080315092" r="4" fill="#9467bd" />
<circle cx="418.8235294117647" cy="616.5252156169552" r="4" fill="#9467bd" />
<circle cx="461.1764705882353" cy="597.4204263699239" r="4" fill="#9467bd" />
<circle cx="503.52941176470586" cy="580.0714175554317" r="4" fill="#9467bd" />
<circle cx="545.8823529411765" cy="569.0147461829571" r="4" fill="#9467bd" />
<circle cx="588.2352941176471" cy="557.9960376306456" r="4" fill="#9467bd" />
<circle cx="630.5882352941177" cy="541.6245714353506" r="4" fill="#9467bd" />
<circle cx="672.9411764705882" cy="518.685537351856" r="4" fill="#9467bd" />
<circle cx="715.2941176470588" cy="493.33586418801093" r="4" fill="#9467bd" />
<circle cx="757.6470588235294" cy="476.90745376247145" r="4" fill="#9467bd" />
<circle cx="800.0" cy="457.18576868779144" r="4" fill="#9467bd" />
<circle cx="842.3529411764706" cy="447.68557294199996" r="4" fill="#9467bd" />
<circle cx="884.7058823529411" cy="438.94463359946855" r="4" fill="#9467bd" />
<circle cx="927.0588235294117" cy="420.09609338853767" r="4" fill="#9467bd" />
<circle cx="969.4117647058823" cy="402.187132976641" r="4" fill="#9467bd" />
<circle cx="1011.7647058823529" cy="385.9010831267128" r="4" fill="#9467bd" />
<circle cx="1054.1176470588234" cy="363.2372794894002" r="4" fill="#9467bd" />
<circle cx="1096.4705882352941" cy="347.976225783873" r="4" fill="#9467bd" />
<circle cx="1138.8235294117646" cy="338.41908580783706" r="4" fill="#9467bd" />
<circle cx="1181.1764705882354" cy="327.59968206138115" r="4" fill="#9467bd" />
<circle cx="1223.5294117647059" cy="313.69579917668136" r="4" fill="#9467bd" />
<circle cx="1265.8823529411764" cy="302.0791762068026" r="4" fill="#9467bd" />
<circle cx="1308.235294117647" cy="291.85768687791403" r="4" fill="#9467bd" />
<circle cx="1350.5882352941176" cy="274.7459456894404" r="4" fill="#9467bd" />
<circle cx="1392.9411764705883" cy="260.8895163299444" r="4" fill="#9467bd" />
<circle cx="1435.2941176470588" cy="239.241218131992" r="4" fill="#9467bd" />
<circle cx="1477.6470588235293" cy="232.87295504964834" r="4" fill="#9467bd" />
<circle cx="1520.0" cy="225.9732124850226" r="4" fill="#9467bd" />
<path d="M 80.0 920.0 L 122.35294117647058 860.0851790777407 L 164.70588235294116 762.7674895898829 L 207.05882352941177 723.3146287354822 L 249.41176470588235 699.4834683781571 L 291.7647058823529 688.8538787325164 L 334.11764705882354 665.3359116415361 L 376.4705882352941 639.7110080315092 L 418.8235294117647 616.5252156169552 L 461.1764705882353 597.4204263699239 L 503.52941176470586 580.0714175554317 L 545.8823529411765 569.0147461829571 L 588.2352941176471 557.9960376306456 L 630.5882352941177 541.6245714353506 L 672.9411764705882 518.685537351856 L 715.2941176470588 493.33586418801093 L 757.6470588235294 476.90745376247145 L 800.0 457.18576868779144 L 842.3529411764706 447.68557294199996 L 884.7058823529411 438.94463359946855 L 927.0588235294117 420.09609338853767 L 969.4117647058823 402.187132976641 L 1011.7647058823529 385.9010831267128 L 1054.1176470588234 363.2372794894002 L 1096.4705882352941 347.976225783873 L 1138.8235294117646 338.41908580783706 L 1181.1764705882354 327.59968206138115 L 1223.5294117647059 313.69579917668136 L 1265.8823529411764 302.0791762068026 L 1308.235294117647 291.85768687791403 L 1350.5882352941176 274.7459456894404 L 1392.9411764705883 260.8895163299444 L 1435.2941176470588 239.241218131992 L 1477.6470588235293 232.87295504964834 L 1520.0 225.9732124850226" fill="none" stroke="#9467bd" stroke-width="2" />
<circle cx="80.0" cy="920.0" r="4" fill="#66ffbd" />
<circle cx="122.35294117647058" cy="621.1471889718007" r="4" fill="#66ffbd" />
<circle cx="164.70588235294116" cy="649.0973153168115" r="4" fill="#66ffbd" />
<circle cx="207.05882352941177" cy="666.2090565052852" r="4" fill="#66ffbd" />
<circle cx="249.41176470588235" cy="679.0215083102986" r="4" fill="#66ffbd" />
<circle cx="291.7647058823529" cy="682.2578387291946" r="4" fill="#66ffbd" />
<circle cx="334.11764705882354" cy="690.657112690259" r="4" fill="#66ffbd" />
<circle cx="376.4705882352941" cy="696.8545430818692" r="4" fill="#66ffbd" />
<circle cx="418.8235294117647" cy="704.9596051866704" r="4" fill="#66ffbd" />
<circle cx="461.1764705882353" cy="711.3848124992586" r="4" fill="#66ffbd" />
<circle cx="503.52941176470586" cy="715.9213695087374" r="4" fill="#66ffbd" />
<circle cx="545.8823529411765" cy="720.2301495972382" r="4" fill="#66ffbd" />
<circle cx="588.2352941176471" cy="722.6882422027927" r="4" fill="#66ffbd" />
<circle cx="630.5882352941177" cy="729.5215498321331" r="4" fill="#66ffbd" />
<circle cx="672.9411764705882" cy="740.265027938263" r="4" fill="#66ffbd" />
<circle cx="715.2941176470588" cy="748.6263390791644" r="4" fill="#66ffbd" />
<circle cx="757.6470588235294" cy="754.3587249237778" r="4" fill="#66ffbd" />
<circle cx="800.0" cy="763.4792924679392" r="4" fill="#66ffbd" />
<circle cx="842.3529411764706" cy="764.5232700224218" r="4" fill="#66ffbd" />
<circle cx="884.7058823529411" cy="766.5542809011424" r="4" fill="#66ffbd" />
<circle cx="927.0588235294117" cy="770.1702395216685" r="4" fill="#66ffbd" />
<circle cx="969.4117647058823" cy="776.2442907477489" r="4" fill="#66ffbd" />
<circle cx="1011.7647058823529" cy="777.9051641298803" r="4" fill="#66ffbd" />
<circle cx="1054.1176470588234" cy="781.2079294840615" r="4" fill="#66ffbd" />
<circle cx="1096.4705882352941" cy="784.72898105418" r="4" fill="#66ffbd" />
<circle cx="1138.8235294117646" cy="779.9171935985195" r="4" fill="#66ffbd" />
<circle cx="1181.1764705882354" cy="787.1586015446122" r="4" fill="#66ffbd" />
<circle cx="1223.5294117647059" cy="788.8669284519474" r="4" fill="#66ffbd" />
<circle cx="1265.8823529411764" cy="792.7960803388182" r="4" fill="#66ffbd" />
<circle cx="1308.235294117647" cy="795.2826450594948" r="4" fill="#66ffbd" />
<circle cx="1350.5882352941176" cy="798.4999940683093" r="4" fill="#66ffbd" />
<circle cx="1392.9411764705883" cy="799.7053136084847" r="4" fill="#66ffbd" />
<circle cx="1435.2941176470588" cy="807.3927846914928" r="4" fill="#66ffbd" />
<circle cx="1477.6470588235293" cy="808.4937064762198" r="4" fill="#66ffbd" />
<circle cx="1520.0" cy="810.3823567793293" r="4" fill="#66ffbd" />
<path d="M 80.0 920.0 L 122.35294117647058 621.1471889718007 L 164.70588235294116 649.0973153168115 L 207.05882352941177 666.2090565052852 L 249.41176470588235 679.0215083102986 L 291.7647058823529 682.2578387291946 L 334.11764705882354 690.657112690259 L 376.4705882352941 696.8545430818692 L 418.8235294117647 704.9596051866704 L 461.1764705882353 711.3848124992586 L 503.52941176470586 715.9213695087374 L 545.8823529411765 720.2301495972382 L 588.2352941176471 722.6882422027927 L 630.5882352941177 729.5215498321331 L 672.9411764705882 740.265027938263 L 715.2941176470588 748.6263390791644 L 757.6470588235294 754.3587249237778 L 800.0 763.4792924679392 L 842.3529411764706 764.5232700224218 L 884.7058823529411 766.5542809011424 L 927.0588235294117 770.1702395216685 L 969.4117647058823 776.2442907477489 L 1011.7647058823529 777.9051641298803 L 1054.1176470588234 781.2079294840615 L 1096.4705882352941 784.72898105418 L 1138.8235294117646 779.9171935985195 L 1181.1764705882354 787.1586015446122 L 1223.5294117647059 788.8669284519474 L 1265.8823529411764 792.7960803388182 L 1308.235294117647 795.2826450594948 L 1350.5882352941176 798.4999940683093 L 1392.9411764705883 799.7053136084847 L 1435.2941176470588 807.3927846914928 L 1477.6470588235293 808.4937064762198 L 1520.0 810.3823567793293" fill="none" stroke="#66ffbd" stroke-width="2" />
<text x="80.0" y="940" text-anchor="middle">08-06</text>
<text x="122.35294117647058" y="940" text-anchor="middle">08-07</text>
<text x="164.70588235294116" y="940" text-anchor="middle">08-08</text>
<text x="207.05882352941177" y="940" text-anchor="middle">08-09</text>
<text x="249.41176470588235" y="940" text-anchor="middle">08-10</text>
<text x="291.7647058823529" y="940" text-anchor="middle">08-11</text>
<text x="334.11764705882354" y="940" text-anchor="middle">08-12</text>
<text x="376.4705882352941" y="940" text-anchor="middle">08-13</text>
<text x="418.8235294117647" y="940" text-anchor="middle">08-14</text>
<text x="461.1764705882353" y="940" text-anchor="middle">08-15</text>
<text x="503.52941176470586" y="940" text-anchor="middle">08-16</text>
<text x="545.8823529411765" y="940" text-anchor="middle">08-17</text>
<text x="588.2352941176471" y="940" text-anchor="middle">08-18</text>
<text x="630.5882352941177" y="940" text-anchor="middle">08-19</text>
<text x="672.9411764705882" y="940" text-anchor="middle">08-20</text>
<text x="715.2941176470588" y="940" text-anchor="middle">08-21</text>
<text x="757.6470588235294" y="940" text-anchor="middle">08-22</text>
<text x="800.0" y="940" text-anchor="middle">08-23</text>
<text x="842.3529411764706" y="940" text-anchor="middle">08-24</text>
<text x="884.7058823529411" y="940" text-anchor="middle">08-25</text>
<text x="927.0588235294117" y="940" text-anchor="middle">08-26</text>
<text x="969.4117647058823" y="940" text-anchor="middle">08-27</text>
<text x="1011.7647058823529" y="940" text-anchor="middle">08-28</text>
<text x="1054.1176470588234" y="940" text-anchor="middle">08-29</text>
<text x="1096.4705882352941" y="940" text-anchor="middle">08-30</text>
<text x="1138.8235294117646" y="940" text-anchor="middle">08-31</text>
<text x="1181.1764705882354" y="940" text-anchor="middle">09-01</text>
<text x="1223.5294117647059" y="940" text-anchor="middle">09-02</text>
<text x="1265.8823529411764" y="940" text-anchor="middle">09-03</text>
<text x="1308.235294117647" y="940" text-anchor="middle">09-04</text>
<text x="1350.5882352941176" y="940" text-anchor="middle">09-05</text>
<text x="1392.9411764705883" y="940" text-anchor="middle">09-06</text>
<text x="1435.2941176470588" y="940" text-anchor="middle">09-07</text>
<text x="1477.6470588235293" y="940" text-anchor="middle">09-08</text>
<text x="1520.0" y="940" text-anchor="middle">09-09</text>
<rect x="90" y="100" width="130" height="185" class="legend-box" />
<text x="100" y="120" class="legend-item">图例:</text>
<rect x="100" y="137" width="15" height="15" fill="#1f77b4" rx="3" />
<text x="120" y="145" class="legend-item">构件聚合数据</text>
<rect x="100" y="162" width="15" height="15" fill="#ff7f0e" rx="3" />
<text x="120" y="170" class="legend-item">构件基本信息</text>
<rect x="100" y="187" width="15" height="15" fill="#2ca02c" rx="3" />
<text x="120" y="195" class="legend-item">构件徽标</text>
<rect x="100" y="212" width="15" height="15" fill="#d62728" rx="3" />
<text x="120" y="220" class="legend-item">构件扩展元数据</text>
<rect x="100" y="237" width="15" height="15" fill="#9467bd" rx="3" />
<text x="120" y="245" class="legend-item">构件版本信息</text>
<rect x="100" y="262" width="15" height="15" fill="#66ffbd" rx="3" />
<text x="120" y="270" class="legend-item">数据量偏差</text>
<text x="1520" y="990" text-anchor="end" font-size="10" fill="#666">生成时间: 2025-09-09 07:55:58</text>
</svg>