<svg xmlns="http://www.w3.org/2000/svg" width="1600" height="1000" viewBox="0 0 1600 1000">
<style>
  text {
    font-family: Arial, sans-serif;
    font-size: 12px;
    fill: #333;
  }
  .axis-label { font-size: 14px; }
  .title { font-size: 18px; font-weight: bold; }
  .legend-item { font-size: 11px; }
  .legend-box { fill: white; fill-opacity: 0.85; stroke: #cccccc; stroke-width: 1; rx: 5; }
</style>
<text x="800.0" y="30" text-anchor="middle" class="title">Daily Data Growth Trend</text>
<text x="800.0" y="980" text-anchor="middle" class="axis-label">Date</text>
<g transform="rotate(-90)">
<text x="-500.0" y="20" text-anchor="middle" class="axis-label">Count</text>
</g>
<rect x="0" y="0" width="1600" height="1000" fill="#f8f8f8" />
<line x1="80" y1="920.0" x2="1520" y2="920.0" stroke="#e0e0e0" stroke-width="1" />
<text x="70" y="925.0" text-anchor="end">0</text>
<line x1="80" y1="752.0" x2="1520" y2="752.0" stroke="#e0e0e0" stroke-width="1" />
<text x="70" y="757.0" text-anchor="end">23.3k</text>
<line x1="80" y1="584.0" x2="1520" y2="584.0" stroke="#e0e0e0" stroke-width="1" />
<text x="70" y="589.0" text-anchor="end">46.7k</text>
<line x1="80" y1="416.0" x2="1520" y2="416.0" stroke="#e0e0e0" stroke-width="1" />
<text x="70" y="421.0" text-anchor="end">70.0k</text>
<line x1="80" y1="248.0" x2="1520" y2="248.0" stroke="#e0e0e0" stroke-width="1" />
<text x="70" y="253.0" text-anchor="end">93.3k</text>
<line x1="80" y1="80.0" x2="1520" y2="80.0" stroke="#e0e0e0" stroke-width="1" />
<text x="70" y="85.0" text-anchor="end">116.6k</text>
<line x1="80" y1="80" x2="80" y2="920" stroke="#333333" stroke-width="2" />
<line x1="80" y1="920" x2="1520" y2="920" stroke="#333333" stroke-width="2" />
<circle cx="80.0" cy="920.0" r="4" fill="#1f77b4" />
<circle cx="102.85714285714286" cy="884.7981275599766" r="4" fill="#1f77b4" />
<circle cx="125.71428571428572" cy="810.1957960120628" r="4" fill="#1f77b4" />
<circle cx="148.57142857142856" cy="780.1863437907908" r="4" fill="#1f77b4" />
<circle cx="171.42857142857144" cy="762.1244992573255" r="4" fill="#1f77b4" />
<circle cx="194.28571428571428" cy="753.0575685286042" r="4" fill="#1f77b4" />
<circle cx="217.14285714285714" cy="734.9957239951389" r="4" fill="#1f77b4" />
<circle cx="240.0" cy="715.5007426745285" r="4" fill="#1f77b4" />
<circle cx="262.8571428571429" cy="697.5325201422335" r="4" fill="#1f77b4" />
<circle cx="285.7142857142857" cy="682.8842778052842" r="4" fill="#1f77b4" />
<circle cx="308.57142857142856" cy="669.5251384075258" r="4" fill="#1f77b4" />
<circle cx="331.42857142857144" cy="661.1279650717919" r="4" fill="#1f77b4" />
<circle cx="354.2857142857143" cy="652.8172120448305" r="4" fill="#1f77b4" />
<circle cx="377.14285714285717" cy="640.3222757347977" r="4" fill="#1f77b4" />
<circle cx="400.0" cy="622.5773056668318" r="4" fill="#1f77b4" />
<circle cx="422.8571428571429" cy="603.3847954269254" r="4" fill="#1f77b4" />
<circle cx="445.7142857142857" cy="590.6450015753702" r="4" fill="#1f77b4" />
<circle cx="468.57142857142856" cy="573.209704280506" r="4" fill="#1f77b4" />
<circle cx="491.42857142857144" cy="566.0080118827925" r="4" fill="#1f77b4" />
<circle cx="514.2857142857142" cy="559.3752531844984" r="4" fill="#1f77b4" />
<circle cx="537.1428571428571" cy="545.1087005446279" r="4" fill="#1f77b4" />
<circle cx="560.0" cy="531.0798037538822" r="4" fill="#1f77b4" />
<circle cx="582.8571428571429" cy="518.6568843678265" r="4" fill="#1f77b4" />
<circle cx="605.7142857142858" cy="501.5096547688707" r="4" fill="#1f77b4" />
<circle cx="628.5714285714286" cy="489.7060809290183" r="4" fill="#1f77b4" />
<circle cx="651.4285714285714" cy="482.4323716073277" r="4" fill="#1f77b4" />
<circle cx="674.2857142857143" cy="474.2296439663321" r="4" fill="#1f77b4" />
<circle cx="697.1428571428571" cy="463.6935679884773" r="4" fill="#1f77b4" />
<circle cx="720.0" cy="454.5474186433812" r="4" fill="#1f77b4" />
<circle cx="742.8571428571429" cy="446.7767925462484" r="4" fill="#1f77b4" />
<circle cx="765.7142857142858" cy="433.5832920736373" r="4" fill="#1f77b4" />
<circle cx="788.5714285714286" cy="422.81676193905565" r="4" fill="#1f77b4" />
<circle cx="811.4285714285714" cy="406.396903272269" r="4" fill="#1f77b4" />
<circle cx="834.2857142857143" cy="401.58617275059635" r="4" fill="#1f77b4" />
<circle cx="857.1428571428571" cy="396.12728991312963" r="4" fill="#1f77b4" />
<circle cx="880.0" cy="388.8895890534276" r="4" fill="#1f77b4" />
<circle cx="902.8571428571429" cy="383.07062159607506" r="4" fill="#1f77b4" />
<circle cx="925.7142857142858" cy="374.42138902642125" r="4" fill="#1f77b4" />
<circle cx="948.5714285714286" cy="364.72070936670116" r="4" fill="#1f77b4" />
<circle cx="971.4285714285714" cy="360.3132736193005" r="4" fill="#1f77b4" />
<circle cx="994.2857142857143" cy="355.53134986721875" r="4" fill="#1f77b4" />
<circle cx="1017.1428571428571" cy="347.61668992213174" r="4" fill="#1f77b4" />
<circle cx="1040.0" cy="340.9767295314399" r="4" fill="#1f77b4" />
<circle cx="1062.857142857143" cy="319.0187694108115" r="4" fill="#1f77b4" />
<circle cx="1085.7142857142858" cy="310.5351757663051" r="4" fill="#1f77b4" />
<circle cx="1108.5714285714287" cy="301.53306026916323" r="4" fill="#1f77b4" />
<circle cx="1131.4285714285716" cy="295.13795741999365" r="4" fill="#1f77b4" />
<circle cx="1154.2857142857142" cy="288.61322410766525" r="4" fill="#1f77b4" />
<circle cx="1177.142857142857" cy="284.50105774857093" r="4" fill="#1f77b4" />
<circle cx="1200.0" cy="276.6440113426655" r="4" fill="#1f77b4" />
<circle cx="1222.857142857143" cy="276.1975064140073" r="4" fill="#1f77b4" />
<circle cx="1245.7142857142858" cy="276.1686996444164" r="4" fill="#1f77b4" />
<circle cx="1268.5714285714287" cy="275.3477067110771" r="4" fill="#1f77b4" />
<circle cx="1291.4285714285716" cy="275.1532610163389" r="4" fill="#1f77b4" />
<circle cx="1314.2857142857142" cy="275.1532610163389" r="4" fill="#1f77b4" />
<circle cx="1337.142857142857" cy="275.14605932394113" r="4" fill="#1f77b4" />
<circle cx="1360.0" cy="275.13165593914573" r="4" fill="#1f77b4" />
<circle cx="1382.857142857143" cy="275.124454246748" r="4" fill="#1f77b4" />
<circle cx="1405.7142857142858" cy="267.3970383040014" r="4" fill="#1f77b4" />
<circle cx="1428.5714285714287" cy="197.13732727190893" r="4" fill="#1f77b4" />
<circle cx="1451.4285714285716" cy="190.7494261151371" r="4" fill="#1f77b4" />
<circle cx="1474.2857142857142" cy="185.5281991267948" r="4" fill="#1f77b4" />
<circle cx="1497.142857142857" cy="181.9057478507449" r="4" fill="#1f77b4" />
<circle cx="1520.0" cy="174.04149975244184" r="4" fill="#1f77b4" />
<path d="M 80.0 920.0 L 102.85714285714286 884.7981275599766 L 125.71428571428572 810.1957960120628 L 148.57142857142856 780.1863437907908 L 171.42857142857144 762.1244992573255 L 194.28571428571428 753.0575685286042 L 217.14285714285714 734.9957239951389 L 240.0 715.5007426745285 L 262.8571428571429 697.5325201422335 L 285.7142857142857 682.8842778052842 L 308.57142857142856 669.5251384075258 L 331.42857142857144 661.1279650717919 L 354.2857142857143 652.8172120448305 L 377.14285714285717 640.3222757347977 L 400.0 622.5773056668318 L 422.8571428571429 603.3847954269254 L 445.7142857142857 590.6450015753702 L 468.57142857142856 573.209704280506 L 491.42857142857144 566.0080118827925 L 514.2857142857142 559.3752531844984 L 537.1428571428571 545.1087005446279 L 560.0 531.0798037538822 L 582.8571428571429 518.6568843678265 L 605.7142857142858 501.5096547688707 L 628.5714285714286 489.7060809290183 L 651.4285714285714 482.4323716073277 L 674.2857142857143 474.2296439663321 L 697.1428571428571 463.6935679884773 L 720.0 454.5474186433812 L 742.8571428571429 446.7767925462484 L 765.7142857142858 433.5832920736373 L 788.5714285714286 422.81676193905565 L 811.4285714285714 406.396903272269 L 834.2857142857143 401.58617275059635 L 857.1428571428571 396.12728991312963 L 880.0 388.8895890534276 L 902.8571428571429 383.07062159607506 L 925.7142857142858 374.42138902642125 L 948.5714285714286 364.72070936670116 L 971.4285714285714 360.3132736193005 L 994.2857142857143 355.53134986721875 L 1017.1428571428571 347.61668992213174 L 1040.0 340.9767295314399 L 1062.857142857143 319.0187694108115 L 1085.7142857142858 310.5351757663051 L 1108.5714285714287 301.53306026916323 L 1131.4285714285716 295.13795741999365 L 1154.2857142857142 288.61322410766525 L 1177.142857142857 284.50105774857093 L 1200.0 276.6440113426655 L 1222.857142857143 276.1975064140073 L 1245.7142857142858 276.1686996444164 L 1268.5714285714287 275.3477067110771 L 1291.4285714285716 275.1532610163389 L 1314.2857142857142 275.1532610163389 L 1337.142857142857 275.14605932394113 L 1360.0 275.13165593914573 L 1382.857142857143 275.124454246748 L 1405.7142857142858 267.3970383040014 L 1428.5714285714287 197.13732727190893 L 1451.4285714285716 190.7494261151371 L 1474.2857142857142 185.5281991267948 L 1497.142857142857 181.9057478507449 L 1520.0 174.04149975244184" fill="none" stroke="#1f77b4" stroke-width="2" />
<circle cx="80.0" cy="920.0" r="4" fill="#ff7f0e" />
<circle cx="102.85714285714286" cy="663.0724220191745" r="4" fill="#ff7f0e" />
<circle cx="125.71428571428572" cy="609.4702255029932" r="4" fill="#ff7f0e" />
<circle cx="148.57142857142856" cy="592.2797857496512" r="4" fill="#ff7f0e" />
<circle cx="171.42857142857144" cy="583.8105954899402" r="4" fill="#ff7f0e" />
<circle cx="194.28571428571428" cy="577.1850384840437" r="4" fill="#ff7f0e" />
<circle cx="217.14285714285714" cy="565.3742629517938" r="4" fill="#ff7f0e" />
<circle cx="240.0" cy="550.387541072152" r="4" fill="#ff7f0e" />
<circle cx="262.8571428571429" cy="538.4327316919475" r="4" fill="#ff7f0e" />
<circle cx="285.7142857142857" cy="528.5808164918756" r="4" fill="#ff7f0e" />
<circle cx="308.57142857142856" cy="518.6136742134402" r="4" fill="#ff7f0e" />
<circle cx="331.42857142857144" cy="513.4068506098934" r="4" fill="#ff7f0e" />
<circle cx="354.2857142857143" cy="506.96133591393976" r="4" fill="#ff7f0e" />
<circle cx="377.14285714285717" cy="499.63001305306744" r="4" fill="#ff7f0e" />
<circle cx="400.0" cy="489.82130800738173" r="4" fill="#ff7f0e" />
<circle cx="422.8571428571429" cy="476.6926227663501" r="4" fill="#ff7f0e" />
<circle cx="445.7142857142857" cy="468.26664266102534" r="4" fill="#ff7f0e" />
<circle cx="468.57142857142856" cy="457.744970067966" r="4" fill="#ff7f0e" />
<circle cx="491.42857142857144" cy="451.3426655263987" r="4" fill="#ff7f0e" />
<circle cx="514.2857142857142" cy="446.2366656164199" r="4" fill="#ff7f0e" />
<circle cx="537.1428571428571" cy="434.63473916370344" r="4" fill="#ff7f0e" />
<circle cx="560.0" cy="425.1933204303011" r="4" fill="#ff7f0e" />
<circle cx="582.8571428571429" cy="414.0162938290498" r="4" fill="#ff7f0e" />
<circle cx="605.7142857142858" cy="399.35364810730516" r="4" fill="#ff7f0e" />
<circle cx="628.5714285714286" cy="390.19309537741367" r="4" fill="#ff7f0e" />
<circle cx="651.4285714285714" cy="379.2609263176846" r="4" fill="#ff7f0e" />
<circle cx="674.2857142857143" cy="376.54588828374665" r="4" fill="#ff7f0e" />
<circle cx="697.1428571428571" cy="367.29891524508264" r="4" fill="#ff7f0e" />
<circle cx="720.0" cy="361.11266147544677" r="4" fill="#ff7f0e" />
<circle cx="742.8571428571429" cy="355.1928703245262" r="4" fill="#ff7f0e" />
<circle cx="765.7142857142858" cy="344.18868434082015" r="4" fill="#ff7f0e" />
<circle cx="788.5714285714286" cy="334.30796237115726" r="4" fill="#ff7f0e" />
<circle cx="811.4285714285714" cy="323.4190034658145" r="4" fill="#ff7f0e" />
<circle cx="834.2857142857143" cy="319.44366926227667" r="4" fill="#ff7f0e" />
<circle cx="857.1428571428571" cy="315.3675113651708" r="4" fill="#ff7f0e" />
<circle cx="880.0" cy="309.8726200657154" r="4" fill="#ff7f0e" />
<circle cx="902.8571428571429" cy="305.10509969842917" r="4" fill="#ff7f0e" />
<circle cx="925.7142857142858" cy="297.7089616059774" r="4" fill="#ff7f0e" />
<circle cx="948.5714285714286" cy="289.9095287392537" r="4" fill="#ff7f0e" />
<circle cx="971.4285714285714" cy="284.6522932889229" r="4" fill="#ff7f0e" />
<circle cx="994.2857142857143" cy="281.50515371112215" r="4" fill="#ff7f0e" />
<circle cx="1017.1428571428571" cy="274.9516136292028" r="4" fill="#ff7f0e" />
<circle cx="1040.0" cy="270.5225728046091" r="4" fill="#ff7f0e" />
<circle cx="1062.857142857143" cy="249.2127649997749" r="4" fill="#ff7f0e" />
<circle cx="1085.7142857142858" cy="240.95962551199534" r="4" fill="#ff7f0e" />
<circle cx="1108.5714285714287" cy="233.46266372597563" r="4" fill="#ff7f0e" />
<circle cx="1131.4285714285716" cy="225.8792816311833" r="4" fill="#ff7f0e" />
<circle cx="1154.2857142857142" cy="221.48624926857815" r="4" fill="#ff7f0e" />
<circle cx="1177.142857142857" cy="218.2454876896071" r="4" fill="#ff7f0e" />
<circle cx="1200.0" cy="212.5561506954134" r="4" fill="#ff7f0e" />
<circle cx="1222.857142857143" cy="205.66413107080166" r="4" fill="#ff7f0e" />
<circle cx="1245.7142857142858" cy="199.80195345906293" r="4" fill="#ff7f0e" />
<circle cx="1268.5714285714287" cy="194.66714677949324" r="4" fill="#ff7f0e" />
<circle cx="1291.4285714285716" cy="183.91502002970697" r="4" fill="#ff7f0e" />
<circle cx="1314.2857142857142" cy="180.3933924472251" r="4" fill="#ff7f0e" />
<circle cx="1337.142857142857" cy="174.60323175946348" r="4" fill="#ff7f0e" />
<circle cx="1360.0" cy="165.83877211144625" r="4" fill="#ff7f0e" />
<circle cx="1382.857142857143" cy="160.25025881082058" r="4" fill="#ff7f0e" />
<circle cx="1405.7142857142858" cy="152.58765809965337" r="4" fill="#ff7f0e" />
<circle cx="1428.5714285714287" cy="143.57834091011387" r="4" fill="#ff7f0e" />
<circle cx="1451.4285714285716" cy="134.72025926092635" r="4" fill="#ff7f0e" />
<circle cx="1474.2857142857142" cy="132.26448215330606" r="4" fill="#ff7f0e" />
<circle cx="1497.142857142857" cy="129.25417473106177" r="4" fill="#ff7f0e" />
<circle cx="1520.0" cy="121.7068010982581" r="4" fill="#ff7f0e" />
<path d="M 80.0 920.0 L 102.85714285714286 663.0724220191745 L 125.71428571428572 609.4702255029932 L 148.57142857142856 592.2797857496512 L 171.42857142857144 583.8105954899402 L 194.28571428571428 577.1850384840437 L 217.14285714285714 565.3742629517938 L 240.0 550.387541072152 L 262.8571428571429 538.4327316919475 L 285.7142857142857 528.5808164918756 L 308.57142857142856 518.6136742134402 L 331.42857142857144 513.4068506098934 L 354.2857142857143 506.96133591393976 L 377.14285714285717 499.63001305306744 L 400.0 489.82130800738173 L 422.8571428571429 476.6926227663501 L 445.7142857142857 468.26664266102534 L 468.57142857142856 457.744970067966 L 491.42857142857144 451.3426655263987 L 514.2857142857142 446.2366656164199 L 537.1428571428571 434.63473916370344 L 560.0 425.1933204303011 L 582.8571428571429 414.0162938290498 L 605.7142857142858 399.35364810730516 L 628.5714285714286 390.19309537741367 L 651.4285714285714 379.2609263176846 L 674.2857142857143 376.54588828374665 L 697.1428571428571 367.29891524508264 L 720.0 361.11266147544677 L 742.8571428571429 355.1928703245262 L 765.7142857142858 344.18868434082015 L 788.5714285714286 334.30796237115726 L 811.4285714285714 323.4190034658145 L 834.2857142857143 319.44366926227667 L 857.1428571428571 315.3675113651708 L 880.0 309.8726200657154 L 902.8571428571429 305.10509969842917 L 925.7142857142858 297.7089616059774 L 948.5714285714286 289.9095287392537 L 971.4285714285714 284.6522932889229 L 994.2857142857143 281.50515371112215 L 1017.1428571428571 274.9516136292028 L 1040.0 270.5225728046091 L 1062.857142857143 249.2127649997749 L 1085.7142857142858 240.95962551199534 L 1108.5714285714287 233.46266372597563 L 1131.4285714285716 225.8792816311833 L 1154.2857142857142 221.48624926857815 L 1177.142857142857 218.2454876896071 L 1200.0 212.5561506954134 L 1222.857142857143 205.66413107080166 L 1245.7142857142858 199.80195345906293 L 1268.5714285714287 194.66714677949324 L 1291.4285714285716 183.91502002970697 L 1314.2857142857142 180.3933924472251 L 1337.142857142857 174.60323175946348 L 1360.0 165.83877211144625 L 1382.857142857143 160.25025881082058 L 1405.7142857142858 152.58765809965337 L 1428.5714285714287 143.57834091011387 L 1451.4285714285716 134.72025926092635 L 1474.2857142857142 132.26448215330606 L 1497.142857142857 129.25417473106177 L 1520.0 121.7068010982581" fill="none" stroke="#ff7f0e" stroke-width="2" />
<circle cx="80.0" cy="920.0" r="4" fill="#2ca02c" />
<circle cx="102.85714285714286" cy="658.0240356483773" r="4" fill="#2ca02c" />
<circle cx="125.71428571428572" cy="604.6306882117298" r="4" fill="#2ca02c" />
<circle cx="148.57142857142856" cy="587.6058873835351" r="4" fill="#2ca02c" />
<circle cx="171.42857142857144" cy="579.2663275869829" r="4" fill="#2ca02c" />
<circle cx="194.28571428571428" cy="572.655173965882" r="4" fill="#2ca02c" />
<circle cx="217.14285714285714" cy="560.966827204393" r="4" fill="#2ca02c" />
<circle cx="240.0" cy="546.1745510194896" r="4" fill="#2ca02c" />
<circle cx="262.8571428571429" cy="534.3565737948418" r="4" fill="#2ca02c" />
<circle cx="285.7142857142857" cy="524.5838772111447" r="4" fill="#2ca02c" />
<circle cx="308.57142857142856" cy="514.6671467794931" r="4" fill="#2ca02c" />
<circle cx="331.42857142857144" cy="509.5395417923212" r="4" fill="#2ca02c" />
<circle cx="354.2857142857143" cy="503.09402709636765" r="4" fill="#2ca02c" />
<circle cx="377.14285714285717" cy="495.7843093126885" r="4" fill="#2ca02c" />
<circle cx="400.0" cy="486.19165503893413" r="4" fill="#2ca02c" />
<circle cx="422.8571428571429" cy="473.3438358014133" r="4" fill="#2ca02c" />
<circle cx="445.7142857142857" cy="464.9538641580771" r="4" fill="#2ca02c" />
<circle cx="468.57142857142856" cy="454.4393932574155" r="4" fill="#2ca02c" />
<circle cx="491.42857142857144" cy="448.0298870234505" r="4" fill="#2ca02c" />
<circle cx="514.2857142857142" cy="442.93829049826707" r="4" fill="#2ca02c" />
<circle cx="537.1428571428571" cy="431.41558266192555" r="4" fill="#2ca02c" />
<circle cx="560.0" cy="421.99576900571634" r="4" fill="#2ca02c" />
<circle cx="582.8571428571429" cy="410.83314578926047" r="4" fill="#2ca02c" />
<circle cx="605.7142857142858" cy="396.192105144709" r="4" fill="#2ca02c" />
<circle cx="628.5714285714286" cy="387.0603591844083" r="4" fill="#2ca02c" />
<circle cx="651.4285714285714" cy="376.135391817077" r="4" fill="#2ca02c" />
<circle cx="674.2857142857143" cy="373.4275554755368" r="4" fill="#2ca02c" />
<circle cx="697.1428571428571" cy="364.1877841292704" r="4" fill="#2ca02c" />
<circle cx="720.0" cy="358.0231354368276" r="4" fill="#2ca02c" />
<circle cx="742.8571428571429" cy="352.1393527478957" r="4" fill="#2ca02c" />
<circle cx="765.7142857142858" cy="341.38722599810956" r="4" fill="#2ca02c" />
<circle cx="788.5714285714286" cy="331.5353107980376" r="4" fill="#2ca02c" />
<circle cx="811.4285714285714" cy="320.9488229733987" r="4" fill="#2ca02c" />
<circle cx="834.2857142857143" cy="316.97348876986086" r="4" fill="#2ca02c" />
<circle cx="857.1428571428571" cy="312.94774271953906" r="4" fill="#2ca02c" />
<circle cx="880.0" cy="307.46005311248143" r="4" fill="#2ca02c" />
<circle cx="902.8571428571429" cy="302.71413782238824" r="4" fill="#2ca02c" />
<circle cx="925.7142857142858" cy="295.31799972993656" r="4" fill="#2ca02c" />
<circle cx="948.5714285714286" cy="287.5545753252014" r="4" fill="#2ca02c" />
<circle cx="971.4285714285714" cy="282.3045415672683" r="4" fill="#2ca02c" />
<circle cx="994.2857142857143" cy="279.15740198946753" r="4" fill="#2ca02c" />
<circle cx="1017.1428571428571" cy="272.61106359994596" r="4" fill="#2ca02c" />
<circle cx="1040.0" cy="268.2540396993294" r="4" fill="#2ca02c" />
<circle cx="1062.857142857143" cy="247.1314758968358" r="4" fill="#2ca02c" />
<circle cx="1085.7142857142858" cy="238.89273979385155" r="4" fill="#2ca02c" />
<circle cx="1108.5714285714287" cy="231.61903047216094" r="4" fill="#2ca02c" />
<circle cx="1131.4285714285716" cy="224.04285006976636" r="4" fill="#2ca02c" />
<circle cx="1154.2857142857142" cy="219.64981770716122" r="4" fill="#2ca02c" />
<circle cx="1177.142857142857" cy="216.40905612819017" r="4" fill="#2ca02c" />
<circle cx="1200.0" cy="210.73412251879188" r="4" fill="#2ca02c" />
<circle cx="1222.857142857143" cy="203.84210289418013" r="4" fill="#2ca02c" />
<circle cx="1245.7142857142858" cy="197.9799252824414" r="4" fill="#2ca02c" />
<circle cx="1268.5714285714287" cy="192.8595219876671" r="4" fill="#2ca02c" />
<circle cx="1291.4285714285716" cy="182.10739523788095" r="4" fill="#2ca02c" />
<circle cx="1314.2857142857142" cy="178.58576765539897" r="4" fill="#2ca02c" />
<circle cx="1337.142857142857" cy="172.79560696763735" r="4" fill="#2ca02c" />
<circle cx="1360.0" cy="164.04555070441552" r="4" fill="#2ca02c" />
<circle cx="1382.857142857143" cy="158.478642480983" r="4" fill="#2ca02c" />
<circle cx="1405.7142857142858" cy="150.82324346221367" r="4" fill="#2ca02c" />
<circle cx="1428.5714285714287" cy="141.87874150425353" r="4" fill="#2ca02c" />
<circle cx="1451.4285714285716" cy="133.0206598550659" r="4" fill="#2ca02c" />
<circle cx="1474.2857142857142" cy="130.5648827474456" r="4" fill="#2ca02c" />
<circle cx="1497.142857142857" cy="127.55457532520143" r="4" fill="#2ca02c" />
<circle cx="1520.0" cy="120.0" r="4" fill="#2ca02c" />
<path d="M 80.0 920.0 L 102.85714285714286 658.0240356483773 L 125.71428571428572 604.6306882117298 L 148.57142857142856 587.6058873835351 L 171.42857142857144 579.2663275869829 L 194.28571428571428 572.655173965882 L 217.14285714285714 560.966827204393 L 240.0 546.1745510194896 L 262.8571428571429 534.3565737948418 L 285.7142857142857 524.5838772111447 L 308.57142857142856 514.6671467794931 L 331.42857142857144 509.5395417923212 L 354.2857142857143 503.09402709636765 L 377.14285714285717 495.7843093126885 L 400.0 486.19165503893413 L 422.8571428571429 473.3438358014133 L 445.7142857142857 464.9538641580771 L 468.57142857142856 454.4393932574155 L 491.42857142857144 448.0298870234505 L 514.2857142857142 442.93829049826707 L 537.1428571428571 431.41558266192555 L 560.0 421.99576900571634 L 582.8571428571429 410.83314578926047 L 605.7142857142858 396.192105144709 L 628.5714285714286 387.0603591844083 L 651.4285714285714 376.135391817077 L 674.2857142857143 373.4275554755368 L 697.1428571428571 364.1877841292704 L 720.0 358.0231354368276 L 742.8571428571429 352.1393527478957 L 765.7142857142858 341.38722599810956 L 788.5714285714286 331.5353107980376 L 811.4285714285714 320.9488229733987 L 834.2857142857143 316.97348876986086 L 857.1428571428571 312.94774271953906 L 880.0 307.46005311248143 L 902.8571428571429 302.71413782238824 L 925.7142857142858 295.31799972993656 L 948.5714285714286 287.5545753252014 L 971.4285714285714 282.3045415672683 L 994.2857142857143 279.15740198946753 L 1017.1428571428571 272.61106359994596 L 1040.0 268.2540396993294 L 1062.857142857143 247.1314758968358 L 1085.7142857142858 238.89273979385155 L 1108.5714285714287 231.61903047216094 L 1131.4285714285716 224.04285006976636 L 1154.2857142857142 219.64981770716122 L 1177.142857142857 216.40905612819017 L 1200.0 210.73412251879188 L 1222.857142857143 203.84210289418013 L 1245.7142857142858 197.9799252824414 L 1268.5714285714287 192.8595219876671 L 1291.4285714285716 182.10739523788095 L 1314.2857142857142 178.58576765539897 L 1337.142857142857 172.79560696763735 L 1360.0 164.04555070441552 L 1382.857142857143 158.478642480983 L 1405.7142857142858 150.82324346221367 L 1428.5714285714287 141.87874150425353 L 1451.4285714285716 133.0206598550659 L 1474.2857142857142 130.5648827474456 L 1497.142857142857 127.55457532520143 L 1520.0 120.0" fill="none" stroke="#2ca02c" stroke-width="2" />
<circle cx="80.0" cy="920.0" r="4" fill="#d62728" />
<circle cx="102.85714285714286" cy="869.1704550569384" r="4" fill="#d62728" />
<circle cx="125.71428571428572" cy="795.6051672142953" r="4" fill="#d62728" />
<circle cx="148.57142857142856" cy="770.1471845883783" r="4" fill="#d62728" />
<circle cx="171.42857142857144" cy="752.1213485169014" r="4" fill="#d62728" />
<circle cx="194.28571428571428" cy="743.1336364045551" r="4" fill="#d62728" />
<circle cx="217.14285714285714" cy="725.4390781833731" r="4" fill="#d62728" />
<circle cx="240.0" cy="706.8515101048747" r="4" fill="#d62728" />
<circle cx="262.8571428571429" cy="689.7402889679074" r="4" fill="#d62728" />
<circle cx="285.7142857142857" cy="675.4017194040599" r="4" fill="#d62728" />
<circle cx="308.57142857142856" cy="662.0857901606878" r="4" fill="#d62728" />
<circle cx="331.42857142857144" cy="653.7030202097493" r="4" fill="#d62728" />
<circle cx="354.2857142857143" cy="645.3994688751857" r="4" fill="#d62728" />
<circle cx="377.14285714285717" cy="633.5238781113562" r="4" fill="#d62728" />
<circle cx="400.0" cy="615.9877571229239" r="4" fill="#d62728" />
<circle cx="422.8571428571429" cy="597.1193230409147" r="4" fill="#d62728" />
<circle cx="445.7142857142857" cy="584.9844713507674" r="4" fill="#d62728" />
<circle cx="468.57142857142856" cy="567.7652248278346" r="4" fill="#d62728" />
<circle cx="491.42857142857144" cy="560.5635324301211" r="4" fill="#d62728" />
<circle cx="514.2857142857142" cy="554.0027906558041" r="4" fill="#d62728" />
<circle cx="537.1428571428571" cy="539.9090786334789" r="4" fill="#d62728" />
<circle cx="560.0" cy="526.7299815456632" r="4" fill="#d62728" />
<circle cx="582.8571428571429" cy="514.3574740063915" r="4" fill="#d62728" />
<circle cx="605.7142857142858" cy="497.22464779223117" r="4" fill="#d62728" />
<circle cx="628.5714285714286" cy="485.80996534185533" r="4" fill="#d62728" />
<circle cx="651.4285714285714" cy="478.5362560201647" r="4" fill="#d62728" />
<circle cx="674.2857142857143" cy="470.3263266867714" r="4" fill="#d62728" />
<circle cx="697.1428571428571" cy="459.7902507089166" r="4" fill="#d62728" />
<circle cx="720.0" cy="451.25624521762614" r="4" fill="#d62728" />
<circle cx="742.8571428571429" cy="443.50002250528877" r="4" fill="#d62728" />
<circle cx="765.7142857142858" cy="430.3353288022685" r="4" fill="#d62728" />
<circle cx="788.5714285714286" cy="419.5760003600846" r="4" fill="#d62728" />
<circle cx="811.4285714285714" cy="403.2425620020705" r="4" fill="#d62728" />
<circle cx="834.2857142857143" cy="398.4534365575911" r="4" fill="#d62728" />
<circle cx="857.1428571428571" cy="392.99455372012426" r="4" fill="#d62728" />
<circle cx="880.0" cy="385.8072647072062" r="4" fill="#d62728" />
<circle cx="902.8571428571429" cy="379.981095557456" r="4" fill="#d62728" />
<circle cx="925.7142857142858" cy="371.3750731421884" r="4" fill="#d62728" />
<circle cx="948.5714285714286" cy="362.2145204122969" r="4" fill="#d62728" />
<circle cx="971.4285714285714" cy="357.8286897420894" r="4" fill="#d62728" />
<circle cx="994.2857142857143" cy="353.04676599000766" r="4" fill="#d62728" />
<circle cx="1017.1428571428571" cy="345.1537111221137" r="4" fill="#d62728" />
<circle cx="1040.0" cy="338.5785659630013" r="4" fill="#d62728" />
<circle cx="1062.857142857143" cy="316.6854210739524" r="4" fill="#d62728" />
<circle cx="1085.7142857142858" cy="308.223432506639" r="4" fill="#d62728" />
<circle cx="1108.5714285714287" cy="299.2213170094973" r="4" fill="#d62728" />
<circle cx="1131.4285714285716" cy="292.81901246792995" r="4" fill="#d62728" />
<circle cx="1154.2857142857142" cy="286.29427915560154" r="4" fill="#d62728" />
<circle cx="1177.142857142857" cy="282.18931448890487" r="4" fill="#d62728" />
<circle cx="1200.0" cy="274.66354593329436" r="4" fill="#d62728" />
<circle cx="1222.857142857143" cy="274.2242426970338" r="4" fill="#d62728" />
<circle cx="1245.7142857142858" cy="274.2242426970338" r="4" fill="#d62728" />
<circle cx="1268.5714285714287" cy="274.2242426970338" r="4" fill="#d62728" />
<circle cx="1291.4285714285716" cy="274.2242426970338" r="4" fill="#d62728" />
<circle cx="1314.2857142857142" cy="274.2242426970338" r="4" fill="#d62728" />
<circle cx="1337.142857142857" cy="274.2242426970338" r="4" fill="#d62728" />
<circle cx="1360.0" cy="274.2242426970338" r="4" fill="#d62728" />
<circle cx="1382.857142857143" cy="274.2242426970338" r="4" fill="#d62728" />
<circle cx="1405.7142857142858" cy="266.4968267542872" r="4" fill="#d62728" />
<circle cx="1428.5714285714287" cy="196.22271233739934" r="4" fill="#d62728" />
<circle cx="1451.4285714285716" cy="189.8348111806274" r="4" fill="#d62728" />
<circle cx="1474.2857142857142" cy="184.6135841922852" r="4" fill="#d62728" />
<circle cx="1497.142857142857" cy="180.9911329162353" r="4" fill="#d62728" />
<circle cx="1520.0" cy="173.1484898951254" r="4" fill="#d62728" />
<path d="M 80.0 920.0 L 102.85714285714286 869.1704550569384 L 125.71428571428572 795.6051672142953 L 148.57142857142856 770.1471845883783 L 171.42857142857144 752.1213485169014 L 194.28571428571428 743.1336364045551 L 217.14285714285714 725.4390781833731 L 240.0 706.8515101048747 L 262.8571428571429 689.7402889679074 L 285.7142857142857 675.4017194040599 L 308.57142857142856 662.0857901606878 L 331.42857142857144 653.7030202097493 L 354.2857142857143 645.3994688751857 L 377.14285714285717 633.5238781113562 L 400.0 615.9877571229239 L 422.8571428571429 597.1193230409147 L 445.7142857142857 584.9844713507674 L 468.57142857142856 567.7652248278346 L 491.42857142857144 560.5635324301211 L 514.2857142857142 554.0027906558041 L 537.1428571428571 539.9090786334789 L 560.0 526.7299815456632 L 582.8571428571429 514.3574740063915 L 605.7142857142858 497.22464779223117 L 628.5714285714286 485.80996534185533 L 651.4285714285714 478.5362560201647 L 674.2857142857143 470.3263266867714 L 697.1428571428571 459.7902507089166 L 720.0 451.25624521762614 L 742.8571428571429 443.50002250528877 L 765.7142857142858 430.3353288022685 L 788.5714285714286 419.5760003600846 L 811.4285714285714 403.2425620020705 L 834.2857142857143 398.4534365575911 L 857.1428571428571 392.99455372012426 L 880.0 385.8072647072062 L 902.8571428571429 379.981095557456 L 925.7142857142858 371.3750731421884 L 948.5714285714286 362.2145204122969 L 971.4285714285714 357.8286897420894 L 994.2857142857143 353.04676599000766 L 1017.1428571428571 345.1537111221137 L 1040.0 338.5785659630013 L 1062.857142857143 316.6854210739524 L 1085.7142857142858 308.223432506639 L 1108.5714285714287 299.2213170094973 L 1131.4285714285716 292.81901246792995 L 1154.2857142857142 286.29427915560154 L 1177.142857142857 282.18931448890487 L 1200.0 274.66354593329436 L 1222.857142857143 274.2242426970338 L 1245.7142857142858 274.2242426970338 L 1268.5714285714287 274.2242426970338 L 1291.4285714285716 274.2242426970338 L 1314.2857142857142 274.2242426970338 L 1337.142857142857 274.2242426970338 L 1360.0 274.2242426970338 L 1382.857142857143 274.2242426970338 L 1405.7142857142858 266.4968267542872 L 1428.5714285714287 196.22271233739934 L 1451.4285714285716 189.8348111806274 L 1474.2857142857142 184.6135841922852 L 1497.142857142857 180.9911329162353 L 1520.0 173.1484898951254" fill="none" stroke="#d62728" stroke-width="2" />
<circle cx="80.0" cy="920.0" r="4" fill="#9467bd" />
<circle cx="102.85714285714286" cy="874.535715893235" r="4" fill="#9467bd" />
<circle cx="125.71428571428572" cy="800.689562047081" r="4" fill="#9467bd" />
<circle cx="148.57142857142856" cy="770.7521267497862" r="4" fill="#9467bd" />
<circle cx="171.42857142857144" cy="752.6686771391277" r="4" fill="#9467bd" />
<circle cx="194.28571428571428" cy="744.6027816536887" r="4" fill="#9467bd" />
<circle cx="217.14285714285714" cy="726.7569878921547" r="4" fill="#9467bd" />
<circle cx="240.0" cy="707.3124184183283" r="4" fill="#9467bd" />
<circle cx="262.8571428571429" cy="689.7186838907144" r="4" fill="#9467bd" />
<circle cx="285.7142857142857" cy="675.2216770941171" r="4" fill="#9467bd" />
<circle cx="308.57142857142856" cy="662.056983391097" r="4" fill="#9467bd" />
<circle cx="331.42857142857144" cy="653.6670117477607" r="4" fill="#9467bd" />
<circle cx="354.2857142857143" cy="645.3058468740154" r="4" fill="#9467bd" />
<circle cx="377.14285714285717" cy="632.8829274879597" r="4" fill="#9467bd" />
<circle cx="400.0" cy="615.4764369626862" r="4" fill="#9467bd" />
<circle cx="422.8571428571429" cy="596.2407165683935" r="4" fill="#9467bd" />
<circle cx="445.7142857142857" cy="583.7745870279516" r="4" fill="#9467bd" />
<circle cx="468.57142857142856" cy="568.809470225503" r="4" fill="#9467bd" />
<circle cx="491.42857142857144" cy="561.6005761353917" r="4" fill="#9467bd" />
<circle cx="514.2857142857142" cy="554.9678174370977" r="4" fill="#9467bd" />
<circle cx="537.1428571428571" cy="540.6652563352388" r="4" fill="#9467bd" />
<circle cx="560.0" cy="527.0756627807534" r="4" fill="#9467bd" />
<circle cx="582.8571428571429" cy="514.7175586262772" r="4" fill="#9467bd" />
<circle cx="605.7142857142858" cy="497.51991718053745" r="4" fill="#9467bd" />
<circle cx="628.5714285714286" cy="485.93959580501416" r="4" fill="#9467bd" />
<circle cx="651.4285714285714" cy="478.6874915605167" r="4" fill="#9467bd" />
<circle cx="674.2857142857143" cy="470.47756222712337" r="4" fill="#9467bd" />
<circle cx="697.1428571428571" cy="459.92708286447316" r="4" fill="#9467bd" />
<circle cx="720.0" cy="451.11221136967185" r="4" fill="#9467bd" />
<circle cx="742.8571428571429" cy="443.3559886573345" r="4" fill="#9467bd" />
<circle cx="765.7142857142858" cy="430.3713372642571" r="4" fill="#9467bd" />
<circle cx="788.5714285714286" cy="419.85686636359543" r="4" fill="#9467bd" />
<circle cx="811.4285714285714" cy="403.42980600441103" r="4" fill="#9467bd" />
<circle cx="834.2857142857143" cy="398.5974704055453" r="4" fill="#9467bd" />
<circle cx="857.1428571428571" cy="393.3618400324076" r="4" fill="#9467bd" />
<circle cx="880.0" cy="386.15294594229647" r="4" fill="#9467bd" />
<circle cx="902.8571428571429" cy="380.30517171535314" r="4" fill="#9467bd" />
<circle cx="925.7142857142858" cy="371.63433406850606" r="4" fill="#9467bd" />
<circle cx="948.5714285714286" cy="361.9336544087861" r="4" fill="#9467bd" />
<circle cx="971.4285714285714" cy="357.5262186613854" r="4" fill="#9467bd" />
<circle cx="994.2857142857143" cy="352.7442949093037" r="4" fill="#9467bd" />
<circle cx="1017.1428571428571" cy="344.84403834901207" r="4" fill="#9467bd" />
<circle cx="1040.0" cy="338.1896745735248" r="4" fill="#9467bd" />
<circle cx="1062.857142857143" cy="316.28932799207814" r="4" fill="#9467bd" />
<circle cx="1085.7142857142858" cy="307.78412927037857" r="4" fill="#9467bd" />
<circle cx="1108.5714285714287" cy="298.78921546563447" r="4" fill="#9467bd" />
<circle cx="1131.4285714285716" cy="292.38691092406714" r="4" fill="#9467bd" />
<circle cx="1154.2857142857142" cy="285.804564072557" r="4" fill="#9467bd" />
<circle cx="1177.142857142857" cy="281.71400279065585" r="4" fill="#9467bd" />
<circle cx="1200.0" cy="273.8353513075573" r="4" fill="#9467bd" />
<circle cx="1222.857142857143" cy="265.3301525858577" r="4" fill="#9467bd" />
<circle cx="1245.7142857142858" cy="259.12949543142634" r="4" fill="#9467bd" />
<circle cx="1268.5714285714287" cy="252.37430796237118" r="4" fill="#9467bd" />
<circle cx="1291.4285714285716" cy="246.12323896115583" r="4" fill="#9467bd" />
<circle cx="1314.2857142857142" cy="237.25795561957057" r="4" fill="#9467bd" />
<circle cx="1337.142857142857" cy="231.15812215870733" r="4" fill="#9467bd" />
<circle cx="1360.0" cy="220.7444749516136" r="4" fill="#9467bd" />
<circle cx="1382.857142857143" cy="214.6086330287618" r="4" fill="#9467bd" />
<circle cx="1405.7142857142858" cy="207.38533555385516" r="4" fill="#9467bd" />
<circle cx="1428.5714285714287" cy="195.79061079353653" r="4" fill="#9467bd" />
<circle cx="1451.4285714285716" cy="189.42431471395776" r="4" fill="#9467bd" />
<circle cx="1474.2857142857142" cy="184.20308772561555" r="4" fill="#9467bd" />
<circle cx="1497.142857142857" cy="180.58063644956565" r="4" fill="#9467bd" />
<circle cx="1520.0" cy="172.7163883512626" r="4" fill="#9467bd" />
<path d="M 80.0 920.0 L 102.85714285714286 874.535715893235 L 125.71428571428572 800.689562047081 L 148.57142857142856 770.7521267497862 L 171.42857142857144 752.6686771391277 L 194.28571428571428 744.6027816536887 L 217.14285714285714 726.7569878921547 L 240.0 707.3124184183283 L 262.8571428571429 689.7186838907144 L 285.7142857142857 675.2216770941171 L 308.57142857142856 662.056983391097 L 331.42857142857144 653.6670117477607 L 354.2857142857143 645.3058468740154 L 377.14285714285717 632.8829274879597 L 400.0 615.4764369626862 L 422.8571428571429 596.2407165683935 L 445.7142857142857 583.7745870279516 L 468.57142857142856 568.809470225503 L 491.42857142857144 561.6005761353917 L 514.2857142857142 554.9678174370977 L 537.1428571428571 540.6652563352388 L 560.0 527.0756627807534 L 582.8571428571429 514.7175586262772 L 605.7142857142858 497.51991718053745 L 628.5714285714286 485.93959580501416 L 651.4285714285714 478.6874915605167 L 674.2857142857143 470.47756222712337 L 697.1428571428571 459.92708286447316 L 720.0 451.11221136967185 L 742.8571428571429 443.3559886573345 L 765.7142857142858 430.3713372642571 L 788.5714285714286 419.85686636359543 L 811.4285714285714 403.42980600441103 L 834.2857142857143 398.5974704055453 L 857.1428571428571 393.3618400324076 L 880.0 386.15294594229647 L 902.8571428571429 380.30517171535314 L 925.7142857142858 371.63433406850606 L 948.5714285714286 361.9336544087861 L 971.4285714285714 357.5262186613854 L 994.2857142857143 352.7442949093037 L 1017.1428571428571 344.84403834901207 L 1040.0 338.1896745735248 L 1062.857142857143 316.28932799207814 L 1085.7142857142858 307.78412927037857 L 1108.5714285714287 298.78921546563447 L 1131.4285714285716 292.38691092406714 L 1154.2857142857142 285.804564072557 L 1177.142857142857 281.71400279065585 L 1200.0 273.8353513075573 L 1222.857142857143 265.3301525858577 L 1245.7142857142858 259.12949543142634 L 1268.5714285714287 252.37430796237118 L 1291.4285714285716 246.12323896115583 L 1314.2857142857142 237.25795561957057 L 1337.142857142857 231.15812215870733 L 1360.0 220.7444749516136 L 1382.857142857143 214.6086330287618 L 1405.7142857142858 207.38533555385516 L 1428.5714285714287 195.79061079353653 L 1451.4285714285716 189.42431471395776 L 1474.2857142857142 184.20308772561555 L 1497.142857142857 180.58063644956565 L 1520.0 172.7163883512626" fill="none" stroke="#9467bd" stroke-width="2" />
<circle cx="80.0" cy="920.0" r="4" fill="#66ffbd" />
<circle cx="102.85714285714286" cy="693.2259080884007" r="4" fill="#66ffbd" />
<circle cx="125.71428571428572" cy="714.4348921996669" r="4" fill="#66ffbd" />
<circle cx="148.57142857142856" cy="727.4195435927443" r="4" fill="#66ffbd" />
<circle cx="171.42857142857144" cy="737.1418283296575" r="4" fill="#66ffbd" />
<circle cx="194.28571428571428" cy="739.5976054372777" r="4" fill="#66ffbd" />
<circle cx="217.14285714285714" cy="745.9711032092541" r="4" fill="#66ffbd" />
<circle cx="240.0" cy="750.6738083449611" r="4" fill="#66ffbd" />
<circle cx="262.8571428571429" cy="756.8240536526084" r="4" fill="#66ffbd" />
<circle cx="285.7142857142857" cy="761.6995994058603" r="4" fill="#66ffbd" />
<circle cx="308.57142857142856" cy="765.1420083719674" r="4" fill="#66ffbd" />
<circle cx="331.42857142857144" cy="768.4115767205293" r="4" fill="#66ffbd" />
<circle cx="354.2857142857143" cy="770.2768150515371" r="4" fill="#66ffbd" />
<circle cx="377.14285714285717" cy="775.4620335778908" r="4" fill="#66ffbd" />
<circle cx="400.0" cy="783.6143493721024" r="4" fill="#66ffbd" />
<circle cx="422.8571428571429" cy="789.959040374488" r="4" fill="#66ffbd" />
<circle cx="445.7142857142857" cy="794.308862582707" r="4" fill="#66ffbd" />
<circle cx="468.57142857142856" cy="801.2296889769095" r="4" fill="#66ffbd" />
<circle cx="491.42857142857144" cy="802.021875140658" r="4" fill="#66ffbd" />
<circle cx="514.2857142857142" cy="803.5630373137687" r="4" fill="#66ffbd" />
<circle cx="537.1428571428571" cy="806.3068821172976" r="4" fill="#66ffbd" />
<circle cx="560.0" cy="810.9159652518342" r="4" fill="#66ffbd" />
<circle cx="582.8571428571429" cy="812.176261421434" r="4" fill="#66ffbd" />
<circle cx="605.7142857142858" cy="814.6824503758384" r="4" fill="#66ffbd" />
<circle cx="628.5714285714286" cy="817.35427825539" r="4" fill="#66ffbd" />
<circle cx="651.4285714285714" cy="813.7030202097493" r="4" fill="#66ffbd" />
<circle cx="674.2857142857143" cy="819.1979115092047" r="4" fill="#66ffbd" />
<circle cx="697.1428571428571" cy="820.4942161407931" r="4" fill="#66ffbd" />
<circle cx="720.0" cy="823.4757167934465" r="4" fill="#66ffbd" />
<circle cx="742.8571428571429" cy="825.3625602016474" r="4" fill="#66ffbd" />
<circle cx="765.7142857142858" cy="827.8039339244723" r="4" fill="#66ffbd" />
<circle cx="788.5714285714286" cy="828.7185488589819" r="4" fill="#66ffbd" />
<circle cx="811.4285714285714" cy="834.5519197011298" r="4" fill="#66ffbd" />
<circle cx="834.2857142857143" cy="835.3873160192645" r="4" fill="#66ffbd" />
<circle cx="857.1428571428571" cy="836.8204528064095" r="4" fill="#66ffbd" />
<circle cx="880.0" cy="838.5704640590538" r="4" fill="#66ffbd" />
<circle cx="902.8571428571429" cy="839.6435162263132" r="4" fill="#66ffbd" />
<circle cx="925.7142857142858" cy="840.8966107035153" r="4" fill="#66ffbd" />
<circle cx="948.5714285714286" cy="842.8338659585003" r="4" fill="#66ffbd" />
<circle cx="971.4285714285714" cy="841.9912679479678" r="4" fill="#66ffbd" />
<circle cx="994.2857142857143" cy="843.6260521222487" r="4" fill="#66ffbd" />
<circle cx="1017.1428571428571" cy="844.9943736778143" r="4" fill="#66ffbd" />
<circle cx="1040.0" cy="847.2773101678895" r="4" fill="#66ffbd" />
<circle cx="1062.857142857143" cy="848.1127064860242" r="4" fill="#66ffbd" />
<circle cx="1085.7142857142858" cy="848.3575640275465" r="4" fill="#66ffbd" />
<circle cx="1108.5714285714287" cy="850.0859702029977" r="4" fill="#66ffbd" />
<circle cx="1131.4285714285716" cy="848.9048926497727" r="4" fill="#66ffbd" />
<circle cx="1154.2857142857142" cy="851.0365935994959" r="4" fill="#66ffbd" />
<circle cx="1177.142857142857" cy="851.9079983796192" r="4" fill="#66ffbd" />
<circle cx="1200.0" cy="854.0901111761264" r="4" fill="#66ffbd" />
<circle cx="1222.857142857143" cy="847.6445964801728" r="4" fill="#66ffbd" />
<circle cx="1245.7142857142858" cy="841.8112256380249" r="4" fill="#66ffbd" />
<circle cx="1268.5714285714287" cy="837.51181527659" r="4" fill="#66ffbd" />
<circle cx="1291.4285714285716" cy="826.9541342215421" r="4" fill="#66ffbd" />
<circle cx="1314.2857142857142" cy="823.4325066390602" r="4" fill="#66ffbd" />
<circle cx="1337.142857142857" cy="817.6495476436962" r="4" fill="#66ffbd" />
<circle cx="1360.0" cy="808.9138947652698" r="4" fill="#66ffbd" />
<circle cx="1382.857142857143" cy="803.354188234235" r="4" fill="#66ffbd" />
<circle cx="1405.7142857142858" cy="803.4262051582122" r="4" fill="#66ffbd" />
<circle cx="1428.5714285714287" cy="864.7414142323446" r="4" fill="#66ffbd" />
<circle cx="1451.4285714285716" cy="862.2712337399289" r="4" fill="#66ffbd" />
<circle cx="1474.2857142857142" cy="865.0366836206508" r="4" fill="#66ffbd" />
<circle cx="1497.142857142857" cy="865.6488274744565" r="4" fill="#66ffbd" />
<circle cx="1520.0" cy="865.9585002475582" r="4" fill="#66ffbd" />
<path d="M 80.0 920.0 L 102.85714285714286 693.2259080884007 L 125.71428571428572 714.4348921996669 L 148.57142857142856 727.4195435927443 L 171.42857142857144 737.1418283296575 L 194.28571428571428 739.5976054372777 L 217.14285714285714 745.9711032092541 L 240.0 750.6738083449611 L 262.8571428571429 756.8240536526084 L 285.7142857142857 761.6995994058603 L 308.57142857142856 765.1420083719674 L 331.42857142857144 768.4115767205293 L 354.2857142857143 770.2768150515371 L 377.14285714285717 775.4620335778908 L 400.0 783.6143493721024 L 422.8571428571429 789.959040374488 L 445.7142857142857 794.308862582707 L 468.57142857142856 801.2296889769095 L 491.42857142857144 802.021875140658 L 514.2857142857142 803.5630373137687 L 537.1428571428571 806.3068821172976 L 560.0 810.9159652518342 L 582.8571428571429 812.176261421434 L 605.7142857142858 814.6824503758384 L 628.5714285714286 817.35427825539 L 651.4285714285714 813.7030202097493 L 674.2857142857143 819.1979115092047 L 697.1428571428571 820.4942161407931 L 720.0 823.4757167934465 L 742.8571428571429 825.3625602016474 L 765.7142857142858 827.8039339244723 L 788.5714285714286 828.7185488589819 L 811.4285714285714 834.5519197011298 L 834.2857142857143 835.3873160192645 L 857.1428571428571 836.8204528064095 L 880.0 838.5704640590538 L 902.8571428571429 839.6435162263132 L 925.7142857142858 840.8966107035153 L 948.5714285714286 842.8338659585003 L 971.4285714285714 841.9912679479678 L 994.2857142857143 843.6260521222487 L 1017.1428571428571 844.9943736778143 L 1040.0 847.2773101678895 L 1062.857142857143 848.1127064860242 L 1085.7142857142858 848.3575640275465 L 1108.5714285714287 850.0859702029977 L 1131.4285714285716 848.9048926497727 L 1154.2857142857142 851.0365935994959 L 1177.142857142857 851.9079983796192 L 1200.0 854.0901111761264 L 1222.857142857143 847.6445964801728 L 1245.7142857142858 841.8112256380249 L 1268.5714285714287 837.51181527659 L 1291.4285714285716 826.9541342215421 L 1314.2857142857142 823.4325066390602 L 1337.142857142857 817.6495476436962 L 1360.0 808.9138947652698 L 1382.857142857143 803.354188234235 L 1405.7142857142858 803.4262051582122 L 1428.5714285714287 864.7414142323446 L 1451.4285714285716 862.2712337399289 L 1474.2857142857142 865.0366836206508 L 1497.142857142857 865.6488274744565 L 1520.0 865.9585002475582" fill="none" stroke="#66ffbd" stroke-width="2" />
<text x="80.0" y="940" text-anchor="middle" font-size="12">08-06</text>
<text x="194.28571428571428" y="940" text-anchor="middle" font-size="12">08-11</text>
<text x="308.57142857142856" y="940" text-anchor="middle" font-size="12">08-16</text>
<text x="422.8571428571429" y="940" text-anchor="middle" font-size="12">08-21</text>
<text x="537.1428571428571" y="940" text-anchor="middle" font-size="12">08-26</text>
<text x="651.4285714285714" y="940" text-anchor="middle" font-size="12">08-31</text>
<text x="765.7142857142858" y="940" text-anchor="middle" font-size="12">09-05</text>
<text x="880.0" y="940" text-anchor="middle" font-size="12">09-10</text>
<text x="994.2857142857143" y="940" text-anchor="middle" font-size="12">09-15</text>
<text x="1108.5714285714287" y="940" text-anchor="middle" font-size="12">09-20</text>
<text x="1222.857142857143" y="940" text-anchor="middle" font-size="12">09-25</text>
<text x="1337.142857142857" y="940" text-anchor="middle" font-size="12">09-30</text>
<text x="1451.4285714285716" y="940" text-anchor="middle" font-size="12">10-05</text>
<text x="1520.0" y="940" text-anchor="middle" font-size="12">10-08</text>
<rect x="90" y="100" width="130" height="185" class="legend-box" />
<text x="100" y="120" class="legend-item">图例:</text>
<rect x="100" y="137" width="15" height="15" fill="#1f77b4" rx="3" />
<text x="120" y="145" class="legend-item">构件聚合数据</text>
<rect x="100" y="162" width="15" height="15" fill="#ff7f0e" rx="3" />
<text x="120" y="170" class="legend-item">构件基本信息</text>
<rect x="100" y="187" width="15" height="15" fill="#2ca02c" rx="3" />
<text x="120" y="195" class="legend-item">构件徽标</text>
<rect x="100" y="212" width="15" height="15" fill="#d62728" rx="3" />
<text x="120" y="220" class="legend-item">构件扩展元数据</text>
<rect x="100" y="237" width="15" height="15" fill="#9467bd" rx="3" />
<text x="120" y="245" class="legend-item">构件版本信息</text>
<rect x="100" y="262" width="15" height="15" fill="#66ffbd" rx="3" />
<text x="120" y="270" class="legend-item">数据量偏差</text>
<rect x="100" y="980" width="15" height="15" fill="#1f77b4" rx="3" />
<text x="125" y="990" class="legend-item">103581</text>
<rect x="300" y="980" width="15" height="15" fill="#ff7f0e" rx="3" />
<text x="325" y="990" class="legend-item">110848</text>
<rect x="500" y="980" width="15" height="15" fill="#2ca02c" rx="3" />
<text x="525" y="990" class="legend-item">111085</text>
<rect x="700" y="980" width="15" height="15" fill="#d62728" rx="3" />
<text x="725" y="990" class="legend-item">103705</text>
<rect x="900" y="980" width="15" height="15" fill="#9467bd" rx="3" />
<text x="925" y="990" class="legend-item">103765</text>
<rect x="1100" y="980" width="15" height="15" fill="#66ffbd" rx="3" />
<text x="1125" y="990" class="legend-item">7504</text>
<text x="1520" y="990" text-anchor="end" font-size="11" fill="#666">生成时间: 2025-10-08 01:26:07</text>
</svg>