<svg xmlns="http://www.w3.org/2000/svg" width="1600" height="1000" viewBox="0 0 1600 1000">
<style>
  text {
    font-family: Arial, sans-serif;
    font-size: 12px;
    fill: #333;
  }
  .axis-label { font-size: 14px; }
  .title { font-size: 18px; font-weight: bold; }
  .legend-item { font-size: 11px; }
  .legend-box { fill: white; fill-opacity: 0.85; stroke: #cccccc; stroke-width: 1; rx: 5; }
</style>
<text x="800.0" y="30" text-anchor="middle" class="title">Daily Data Growth Trend</text>
<text x="800.0" y="980" text-anchor="middle" class="axis-label">Date</text>
<g transform="rotate(-90)">
<text x="-500.0" y="20" text-anchor="middle" class="axis-label">Count</text>
</g>
<rect x="0" y="0" width="1600" height="1000" fill="#f8f8f8" />
<line x1="80" y1="920.0" x2="1520" y2="920.0" stroke="#e0e0e0" stroke-width="1" />
<text x="70" y="925.0" text-anchor="end">0</text>
<line x1="80" y1="752.0" x2="1520" y2="752.0" stroke="#e0e0e0" stroke-width="1" />
<text x="70" y="757.0" text-anchor="end">22.4k</text>
<line x1="80" y1="584.0" x2="1520" y2="584.0" stroke="#e0e0e0" stroke-width="1" />
<text x="70" y="589.0" text-anchor="end">44.9k</text>
<line x1="80" y1="416.0" x2="1520" y2="416.0" stroke="#e0e0e0" stroke-width="1" />
<text x="70" y="421.0" text-anchor="end">67.3k</text>
<line x1="80" y1="248.0" x2="1520" y2="248.0" stroke="#e0e0e0" stroke-width="1" />
<text x="70" y="253.0" text-anchor="end">89.7k</text>
<line x1="80" y1="80.0" x2="1520" y2="80.0" stroke="#e0e0e0" stroke-width="1" />
<text x="70" y="85.0" text-anchor="end">112.1k</text>
<line x1="80" y1="80" x2="80" y2="920" stroke="#333333" stroke-width="2" />
<line x1="80" y1="920" x2="1520" y2="920" stroke="#333333" stroke-width="2" />
<circle cx="80.0" cy="920.0" r="4" fill="#1f77b4" />
<circle cx="104.82758620689656" cy="883.3874818594635" r="4" fill="#1f77b4" />
<circle cx="129.6551724137931" cy="805.7956088198118" r="4" fill="#1f77b4" />
<circle cx="154.48275862068965" cy="774.5835869107252" r="4" fill="#1f77b4" />
<circle cx="179.31034482758622" cy="755.7979495341979" r="4" fill="#1f77b4" />
<circle cx="204.13793103448276" cy="746.3676794157577" r="4" fill="#1f77b4" />
<circle cx="228.9655172413793" cy="727.5820420392304" r="4" fill="#1f77b4" />
<circle cx="253.79310344827587" cy="707.3058377416787" r="4" fill="#1f77b4" />
<circle cx="278.62068965517244" cy="688.6175740836103" r="4" fill="#1f77b4" />
<circle cx="303.44827586206895" cy="673.3823322878143" r="4" fill="#1f77b4" />
<circle cx="328.2758620689655" cy="659.4878516923366" r="4" fill="#1f77b4" />
<circle cx="353.1034482758621" cy="650.754178175179" r="4" fill="#1f77b4" />
<circle cx="377.9310344827586" cy="642.1103880904452" r="4" fill="#1f77b4" />
<circle cx="402.7586206896552" cy="629.1147418192032" r="4" fill="#1f77b4" />
<circle cx="427.58620689655174" cy="610.658677028229" r="4" fill="#1f77b4" />
<circle cx="452.41379310344826" cy="590.6970647441599" r="4" fill="#1f77b4" />
<circle cx="477.2413793103448" cy="577.4467487477177" r="4" fill="#1f77b4" />
<circle cx="502.0689655172414" cy="559.3127662562614" r="4" fill="#1f77b4" />
<circle cx="526.8965517241379" cy="551.8224802209634" r="4" fill="#1f77b4" />
<circle cx="551.7241379310344" cy="544.923926782454" r="4" fill="#1f77b4" />
<circle cx="576.551724137931" cy="530.0856701465287" r="4" fill="#1f77b4" />
<circle cx="601.3793103448276" cy="515.4945929497683" r="4" fill="#1f77b4" />
<circle cx="626.2068965517242" cy="502.57384953887924" r="4" fill="#1f77b4" />
<circle cx="651.0344827586207" cy="484.7394784888348" r="4" fill="#1f77b4" />
<circle cx="675.8620689655172" cy="472.4628996769814" r="4" fill="#1f77b4" />
<circle cx="700.6896551724138" cy="464.8977107813305" r="4" fill="#1f77b4" />
<circle cx="725.5172413793103" cy="456.3662749871261" r="4" fill="#1f77b4" />
<circle cx="750.3448275862069" cy="445.40798651748514" r="4" fill="#1f77b4" />
<circle cx="775.1724137931035" cy="435.89532325265674" r="4" fill="#1f77b4" />
<circle cx="800.0" cy="427.8133046205702" r="4" fill="#1f77b4" />
<circle cx="824.8275862068965" cy="414.0911006039043" r="4" fill="#1f77b4" />
<circle cx="849.6551724137931" cy="402.89312298113384" r="4" fill="#1f77b4" />
<circle cx="874.4827586206897" cy="385.8152708206545" r="4" fill="#1f77b4" />
<circle cx="899.3103448275862" cy="380.81175974907546" r="4" fill="#1f77b4" />
<circle cx="924.1379310344828" cy="375.1341229343195" r="4" fill="#1f77b4" />
<circle cx="948.9655172413793" cy="367.60638546884513" r="4" fill="#1f77b4" />
<circle cx="973.7931034482758" cy="361.55423435232433" r="4" fill="#1f77b4" />
<circle cx="998.6206896551724" cy="352.5584008239315" r="4" fill="#1f77b4" />
<circle cx="1023.448275862069" cy="342.46898553438507" r="4" fill="#1f77b4" />
<circle cx="1048.2758620689656" cy="337.8849304807827" r="4" fill="#1f77b4" />
<circle cx="1073.103448275862" cy="332.9113805533449" r="4" fill="#1f77b4" />
<circle cx="1097.9310344827586" cy="324.6795562005524" r="4" fill="#1f77b4" />
<circle cx="1122.7586206896551" cy="317.7735124760077" r="4" fill="#1f77b4" />
<circle cx="1147.5862068965516" cy="294.9356303543841" r="4" fill="#1f77b4" />
<circle cx="1172.4137931034484" cy="286.11207340480314" r="4" fill="#1f77b4" />
<circle cx="1197.2413793103449" cy="276.7492158606807" r="4" fill="#1f77b4" />
<circle cx="1222.0689655172414" cy="270.09784186133606" r="4" fill="#1f77b4" />
<circle cx="1246.896551724138" cy="263.31164271335615" r="4" fill="#1f77b4" />
<circle cx="1271.7241379310344" cy="259.03468938720096" r="4" fill="#1f77b4" />
<circle cx="1296.551724137931" cy="250.8627873226909" r="4" fill="#1f77b4" />
<circle cx="1321.3793103448277" cy="250.39838958850237" r="4" fill="#1f77b4" />
<circle cx="1346.2068965517242" cy="250.36842844436126" r="4" fill="#1f77b4" />
<circle cx="1371.0344827586207" cy="249.51453583633725" r="4" fill="#1f77b4" />
<circle cx="1395.8620689655172" cy="249.31229811338426" r="4" fill="#1f77b4" />
<circle cx="1420.6896551724137" cy="249.31229811338426" r="4" fill="#1f77b4" />
<circle cx="1445.5172413793102" cy="249.3048078273489" r="4" fill="#1f77b4" />
<circle cx="1470.344827586207" cy="249.28982725527828" r="4" fill="#1f77b4" />
<circle cx="1495.1724137931035" cy="249.28233696924303" r="4" fill="#1f77b4" />
<circle cx="1520.0" cy="241.24526005336827" r="4" fill="#1f77b4" />
<path d="M 80.0 920.0 L 104.82758620689656 883.3874818594635 L 129.6551724137931 805.7956088198118 L 154.48275862068965 774.5835869107252 L 179.31034482758622 755.7979495341979 L 204.13793103448276 746.3676794157577 L 228.9655172413793 727.5820420392304 L 253.79310344827587 707.3058377416787 L 278.62068965517244 688.6175740836103 L 303.44827586206895 673.3823322878143 L 328.2758620689655 659.4878516923366 L 353.1034482758621 650.754178175179 L 377.9310344827586 642.1103880904452 L 402.7586206896552 629.1147418192032 L 427.58620689655174 610.658677028229 L 452.41379310344826 590.6970647441599 L 477.2413793103448 577.4467487477177 L 502.0689655172414 559.3127662562614 L 526.8965517241379 551.8224802209634 L 551.7241379310344 544.923926782454 L 576.551724137931 530.0856701465287 L 601.3793103448276 515.4945929497683 L 626.2068965517242 502.57384953887924 L 651.0344827586207 484.7394784888348 L 675.8620689655172 472.4628996769814 L 700.6896551724138 464.8977107813305 L 725.5172413793103 456.3662749871261 L 750.3448275862069 445.40798651748514 L 775.1724137931035 435.89532325265674 L 800.0 427.8133046205702 L 824.8275862068965 414.0911006039043 L 849.6551724137931 402.89312298113384 L 874.4827586206897 385.8152708206545 L 899.3103448275862 380.81175974907546 L 924.1379310344828 375.1341229343195 L 948.9655172413793 367.60638546884513 L 973.7931034482758 361.55423435232433 L 998.6206896551724 352.5584008239315 L 1023.448275862069 342.46898553438507 L 1048.2758620689656 337.8849304807827 L 1073.103448275862 332.9113805533449 L 1097.9310344827586 324.6795562005524 L 1122.7586206896551 317.7735124760077 L 1147.5862068965516 294.9356303543841 L 1172.4137931034484 286.11207340480314 L 1197.2413793103449 276.7492158606807 L 1222.0689655172414 270.09784186133606 L 1246.896551724138 263.31164271335615 L 1271.7241379310344 259.03468938720096 L 1296.551724137931 250.8627873226909 L 1321.3793103448277 250.39838958850237 L 1346.2068965517242 250.36842844436126 L 1371.0344827586207 249.51453583633725 L 1395.8620689655172 249.31229811338426 L 1420.6896551724137 249.31229811338426 L 1445.5172413793102 249.3048078273489 L 1470.344827586207 249.28982725527828 L 1495.1724137931035 249.28233696924303 L 1520.0 241.24526005336827" fill="none" stroke="#1f77b4" stroke-width="2" />
<circle cx="80.0" cy="920.0" r="4" fill="#ff7f0e" />
<circle cx="104.82758620689656" cy="652.7765554047096" r="4" fill="#ff7f0e" />
<circle cx="129.6551724137931" cy="597.0263564439867" r="4" fill="#ff7f0e" />
<circle cx="154.48275862068965" cy="579.1470436777304" r="4" fill="#ff7f0e" />
<circle cx="179.31034482758622" cy="570.33846730022" r="4" fill="#ff7f0e" />
<circle cx="204.13793103448276" cy="563.4474041477458" r="4" fill="#ff7f0e" />
<circle cx="228.9655172413793" cy="551.1633350498572" r="4" fill="#ff7f0e" />
<circle cx="253.79310344827587" cy="535.5760498104021" r="4" fill="#ff7f0e" />
<circle cx="278.62068965517244" cy="523.1421749918075" r="4" fill="#ff7f0e" />
<circle cx="303.44827586206895" cy="512.8954636955199" r="4" fill="#ff7f0e" />
<circle cx="328.2758620689655" cy="502.52890782266746" r="4" fill="#ff7f0e" />
<circle cx="353.1034482758621" cy="497.1134310191471" r="4" fill="#ff7f0e" />
<circle cx="377.9310344827586" cy="490.40962501755536" r="4" fill="#ff7f0e" />
<circle cx="402.7586206896552" cy="482.78451383362204" r="4" fill="#ff7f0e" />
<circle cx="427.58620689655174" cy="472.5827442535462" r="4" fill="#ff7f0e" />
<circle cx="452.41379310344826" cy="458.927952811198" r="4" fill="#ff7f0e" />
<circle cx="477.2413793103448" cy="450.1643181498994" r="4" fill="#ff7f0e" />
<circle cx="502.0689655172414" cy="439.221010252329" r="4" fill="#ff7f0e" />
<circle cx="526.8965517241379" cy="432.5621459669491" r="4" fill="#ff7f0e" />
<circle cx="551.7241379310344" cy="427.25153316792284" r="4" fill="#ff7f0e" />
<circle cx="576.551724137931" cy="415.1846823650578" r="4" fill="#ff7f0e" />
<circle cx="601.3793103448276" cy="405.3649173727822" r="4" fill="#ff7f0e" />
<circle cx="626.2068965517242" cy="393.73999344599974" r="4" fill="#ff7f0e" />
<circle cx="651.0344827586207" cy="378.489771078133" r="4" fill="#ff7f0e" />
<circle cx="675.8620689655172" cy="368.96212724123404" r="4" fill="#ff7f0e" />
<circle cx="700.6896551724138" cy="357.59187303965166" r="4" fill="#ff7f0e" />
<circle cx="725.5172413793103" cy="354.7680352043444" r="4" fill="#ff7f0e" />
<circle cx="750.3448275862069" cy="345.1505079350218" r="4" fill="#ff7f0e" />
<circle cx="775.1724137931035" cy="338.71635223070086" r="4" fill="#ff7f0e" />
<circle cx="800.0" cy="332.5593371096859" r="4" fill="#ff7f0e" />
<circle cx="824.8275862068965" cy="321.11418004775055" r="4" fill="#ff7f0e" />
<circle cx="849.6551724137931" cy="310.83750760732175" r="4" fill="#ff7f0e" />
<circle cx="874.4827586206897" cy="299.5121951219512" r="4" fill="#ff7f0e" />
<circle cx="899.3103448275862" cy="295.3775572304668" r="4" fill="#ff7f0e" />
<circle cx="924.1379310344828" cy="291.13805533448806" r="4" fill="#ff7f0e" />
<circle cx="948.9655172413793" cy="285.42296708955575" r="4" fill="#ff7f0e" />
<circle cx="973.7931034482758" cy="280.4643977341884" r="4" fill="#ff7f0e" />
<circle cx="998.6206896551724" cy="272.7718739759374" r="4" fill="#ff7f0e" />
<circle cx="1023.448275862069" cy="264.6598941997097" r="4" fill="#ff7f0e" />
<circle cx="1048.2758620689656" cy="259.1919853939422" r="4" fill="#ff7f0e" />
<circle cx="1073.103448275862" cy="255.91873039651705" r="4" fill="#ff7f0e" />
<circle cx="1097.9310344827586" cy="249.1025701043959" r="4" fill="#ff7f0e" />
<circle cx="1122.7586206896551" cy="244.49604419268758" r="4" fill="#ff7f0e" />
<circle cx="1147.5862068965516" cy="222.33228781424089" r="4" fill="#ff7f0e" />
<circle cx="1172.4137931034484" cy="213.74842001778939" r="4" fill="#ff7f0e" />
<circle cx="1197.2413793103449" cy="205.9510322550442" r="4" fill="#ff7f0e" />
<circle cx="1222.0689655172414" cy="198.06376105987545" r="4" fill="#ff7f0e" />
<circle cx="1246.896551724138" cy="193.4946865783437" r="4" fill="#ff7f0e" />
<circle cx="1271.7241379310344" cy="190.1240578624596" r="4" fill="#ff7f0e" />
<circle cx="1296.551724137931" cy="184.2067318945742" r="4" fill="#ff7f0e" />
<circle cx="1321.3793103448277" cy="177.03852815879407" r="4" fill="#ff7f0e" />
<circle cx="1346.2068965517242" cy="170.94143532606154" r="4" fill="#ff7f0e" />
<circle cx="1371.0344827586207" cy="165.6008613828941" r="4" fill="#ff7f0e" />
<circle cx="1395.8620689655172" cy="154.4178643321942" r="4" fill="#ff7f0e" />
<circle cx="1420.6896551724137" cy="150.75511446093344" r="4" fill="#ff7f0e" />
<circle cx="1445.5172413793102" cy="144.73292448855386" r="4" fill="#ff7f0e" />
<circle cx="1470.344827586207" cy="135.61724638359624" r="4" fill="#ff7f0e" />
<circle cx="1495.1724137931035" cy="129.804784420205" r="4" fill="#ff7f0e" />
<circle cx="1520.0" cy="121.83512007864795" r="4" fill="#ff7f0e" />
<path d="M 80.0 920.0 L 104.82758620689656 652.7765554047096 L 129.6551724137931 597.0263564439867 L 154.48275862068965 579.1470436777304 L 179.31034482758622 570.33846730022 L 204.13793103448276 563.4474041477458 L 228.9655172413793 551.1633350498572 L 253.79310344827587 535.5760498104021 L 278.62068965517244 523.1421749918075 L 303.44827586206895 512.8954636955199 L 328.2758620689655 502.52890782266746 L 353.1034482758621 497.1134310191471 L 377.9310344827586 490.40962501755536 L 402.7586206896552 482.78451383362204 L 427.58620689655174 472.5827442535462 L 452.41379310344826 458.927952811198 L 477.2413793103448 450.1643181498994 L 502.0689655172414 439.221010252329 L 526.8965517241379 432.5621459669491 L 551.7241379310344 427.25153316792284 L 576.551724137931 415.1846823650578 L 601.3793103448276 405.3649173727822 L 626.2068965517242 393.73999344599974 L 651.0344827586207 378.489771078133 L 675.8620689655172 368.96212724123404 L 700.6896551724138 357.59187303965166 L 725.5172413793103 354.7680352043444 L 750.3448275862069 345.1505079350218 L 775.1724137931035 338.71635223070086 L 800.0 332.5593371096859 L 824.8275862068965 321.11418004775055 L 849.6551724137931 310.83750760732175 L 874.4827586206897 299.5121951219512 L 899.3103448275862 295.3775572304668 L 924.1379310344828 291.13805533448806 L 948.9655172413793 285.42296708955575 L 973.7931034482758 280.4643977341884 L 998.6206896551724 272.7718739759374 L 1023.448275862069 264.6598941997097 L 1048.2758620689656 259.1919853939422 L 1073.103448275862 255.91873039651705 L 1097.9310344827586 249.1025701043959 L 1122.7586206896551 244.49604419268758 L 1147.5862068965516 222.33228781424089 L 1172.4137931034484 213.74842001778939 L 1197.2413793103449 205.9510322550442 L 1222.0689655172414 198.06376105987545 L 1246.896551724138 193.4946865783437 L 1271.7241379310344 190.1240578624596 L 1296.551724137931 184.2067318945742 L 1321.3793103448277 177.03852815879407 L 1346.2068965517242 170.94143532606154 L 1371.0344827586207 165.6008613828941 L 1395.8620689655172 154.4178643321942 L 1420.6896551724137 150.75511446093344 L 1445.5172413793102 144.73292448855386 L 1470.344827586207 135.61724638359624 L 1495.1724137931035 129.804784420205 L 1520.0 121.83512007864795" fill="none" stroke="#ff7f0e" stroke-width="2" />
<circle cx="80.0" cy="920.0" r="4" fill="#2ca02c" />
<circle cx="104.82758620689656" cy="647.5258648939657" r="4" fill="#2ca02c" />
<circle cx="129.6551724137931" cy="591.9928842282665" r="4" fill="#2ca02c" />
<circle cx="154.48275862068965" cy="574.285848040822" r="4" fill="#2ca02c" />
<circle cx="179.31034482758622" cy="565.612096811947" r="4" fill="#2ca02c" />
<circle cx="204.13793103448276" cy="558.7360142315435" r="4" fill="#2ca02c" />
<circle cx="228.9655172413793" cy="546.5792799962549" r="4" fill="#2ca02c" />
<circle cx="253.79310344827587" cy="531.1942324797528" r="4" fill="#2ca02c" />
<circle cx="278.62068965517244" cy="518.9026730958288" r="4" fill="#2ca02c" />
<circle cx="303.44827586206895" cy="508.7383549459295" r="4" fill="#2ca02c" />
<circle cx="328.2758620689655" cy="498.4242310753242" r="4" fill="#2ca02c" />
<circle cx="353.1034482758621" cy="493.091147418192" r="4" fill="#2ca02c" />
<circle cx="377.9310344827586" cy="486.38734141660035" r="4" fill="#2ca02c" />
<circle cx="402.7586206896552" cy="478.7847010907729" r="4" fill="#2ca02c" />
<circle cx="427.58620689655174" cy="468.807640091756" r="4" fill="#2ca02c" />
<circle cx="452.41379310344826" cy="455.4449698047844" r="4" fill="#2ca02c" />
<circle cx="477.2413793103448" cy="446.71878657366227" r="4" fill="#2ca02c" />
<circle cx="502.0689655172414" cy="435.78296896212726" r="4" fill="#2ca02c" />
<circle cx="526.8965517241379" cy="429.1166143907121" r="4" fill="#2ca02c" />
<circle cx="551.7241379310344" cy="423.82098216375636" r="4" fill="#2ca02c" />
<circle cx="576.551724137931" cy="411.83652450727965" r="4" fill="#2ca02c" />
<circle cx="601.3793103448276" cy="402.03923037310983" r="4" fill="#2ca02c" />
<circle cx="626.2068965517242" cy="390.429287018398" r="4" fill="#2ca02c" />
<circle cx="651.0344827586207" cy="375.2015355086372" r="4" fill="#2ca02c" />
<circle cx="675.8620689655172" cy="365.7038528158794" r="4" fill="#2ca02c" />
<circle cx="700.6896551724138" cy="354.34108890033235" r="4" fill="#2ca02c" />
<circle cx="725.5172413793103" cy="351.52474135106036" r="4" fill="#2ca02c" />
<circle cx="750.3448275862069" cy="341.9147043677731" r="4" fill="#2ca02c" />
<circle cx="775.1724137931035" cy="335.50301952155803" r="4" fill="#2ca02c" />
<circle cx="800.0" cy="329.3834558307195" r="4" fill="#2ca02c" />
<circle cx="824.8275862068965" cy="318.20045878001963" r="4" fill="#2ca02c" />
<circle cx="849.6551724137931" cy="307.95374748373206" r="4" fill="#2ca02c" />
<circle cx="874.4827586206897" cy="296.94302701184404" r="4" fill="#2ca02c" />
<circle cx="899.3103448275862" cy="292.8083891203595" r="4" fill="#2ca02c" />
<circle cx="924.1379310344828" cy="288.621319226628" r="4" fill="#2ca02c" />
<circle cx="948.9655172413793" cy="282.9137212677309" r="4" fill="#2ca02c" />
<circle cx="973.7931034482758" cy="277.97762277046957" r="4" fill="#2ca02c" />
<circle cx="998.6206896551724" cy="270.28509901221855" r="4" fill="#2ca02c" />
<circle cx="1023.448275862069" cy="262.2105706661673" r="4" fill="#2ca02c" />
<circle cx="1048.2758620689656" cy="256.7501521464351" r="4" fill="#2ca02c" />
<circle cx="1073.103448275862" cy="253.47689714900991" r="4" fill="#2ca02c" />
<circle cx="1097.9310344827586" cy="246.66822714292402" r="4" fill="#2ca02c" />
<circle cx="1122.7586206896551" cy="242.13660409156876" r="4" fill="#2ca02c" />
<circle cx="1147.5862068965516" cy="220.1675951500398" r="4" fill="#2ca02c" />
<circle cx="1172.4137931034484" cy="211.5987079256589" r="4" fill="#2ca02c" />
<circle cx="1197.2413793103449" cy="204.03351903000794" r="4" fill="#2ca02c" />
<circle cx="1222.0689655172414" cy="196.15373812087444" r="4" fill="#2ca02c" />
<circle cx="1246.896551724138" cy="191.5846636393427" r="4" fill="#2ca02c" />
<circle cx="1271.7241379310344" cy="188.2140349234586" r="4" fill="#2ca02c" />
<circle cx="1296.551724137931" cy="182.3116895276438" r="4" fill="#2ca02c" />
<circle cx="1321.3793103448277" cy="175.14348579186367" r="4" fill="#2ca02c" />
<circle cx="1346.2068965517242" cy="169.04639295913114" r="4" fill="#2ca02c" />
<circle cx="1371.0344827586207" cy="163.7207995880343" r="4" fill="#2ca02c" />
<circle cx="1395.8620689655172" cy="152.53780253733441" r="4" fill="#2ca02c" />
<circle cx="1420.6896551724137" cy="148.87505266607366" r="4" fill="#2ca02c" />
<circle cx="1445.5172413793102" cy="142.85286269369408" r="4" fill="#2ca02c" />
<circle cx="1470.344827586207" cy="133.75216516080707" r="4" fill="#2ca02c" />
<circle cx="1495.1724137931035" cy="127.9621740555217" r="4" fill="#2ca02c" />
<circle cx="1520.0" cy="120.0" r="4" fill="#2ca02c" />
<path d="M 80.0 920.0 L 104.82758620689656 647.5258648939657 L 129.6551724137931 591.9928842282665 L 154.48275862068965 574.285848040822 L 179.31034482758622 565.612096811947 L 204.13793103448276 558.7360142315435 L 228.9655172413793 546.5792799962549 L 253.79310344827587 531.1942324797528 L 278.62068965517244 518.9026730958288 L 303.44827586206895 508.7383549459295 L 328.2758620689655 498.4242310753242 L 353.1034482758621 493.091147418192 L 377.9310344827586 486.38734141660035 L 402.7586206896552 478.7847010907729 L 427.58620689655174 468.807640091756 L 452.41379310344826 455.4449698047844 L 477.2413793103448 446.71878657366227 L 502.0689655172414 435.78296896212726 L 526.8965517241379 429.1166143907121 L 551.7241379310344 423.82098216375636 L 576.551724137931 411.83652450727965 L 601.3793103448276 402.03923037310983 L 626.2068965517242 390.429287018398 L 651.0344827586207 375.2015355086372 L 675.8620689655172 365.7038528158794 L 700.6896551724138 354.34108890033235 L 725.5172413793103 351.52474135106036 L 750.3448275862069 341.9147043677731 L 775.1724137931035 335.50301952155803 L 800.0 329.3834558307195 L 824.8275862068965 318.20045878001963 L 849.6551724137931 307.95374748373206 L 874.4827586206897 296.94302701184404 L 899.3103448275862 292.8083891203595 L 924.1379310344828 288.621319226628 L 948.9655172413793 282.9137212677309 L 973.7931034482758 277.97762277046957 L 998.6206896551724 270.28509901221855 L 1023.448275862069 262.2105706661673 L 1048.2758620689656 256.7501521464351 L 1073.103448275862 253.47689714900991 L 1097.9310344827586 246.66822714292402 L 1122.7586206896551 242.13660409156876 L 1147.5862068965516 220.1675951500398 L 1172.4137931034484 211.5987079256589 L 1197.2413793103449 204.03351903000794 L 1222.0689655172414 196.15373812087444 L 1246.896551724138 191.5846636393427 L 1271.7241379310344 188.2140349234586 L 1296.551724137931 182.3116895276438 L 1321.3793103448277 175.14348579186367 L 1346.2068965517242 169.04639295913114 L 1371.0344827586207 163.7207995880343 L 1395.8620689655172 152.53780253733441 L 1420.6896551724137 148.87505266607366 L 1445.5172413793102 142.85286269369408 L 1470.344827586207 133.75216516080707 L 1495.1724137931035 127.9621740555217 L 1520.0 120.0" fill="none" stroke="#2ca02c" stroke-width="2" />
<circle cx="80.0" cy="920.0" r="4" fill="#d62728" />
<circle cx="104.82758620689656" cy="867.133561162867" r="4" fill="#d62728" />
<circle cx="129.6551724137931" cy="790.6202893122982" r="4" fill="#d62728" />
<circle cx="154.48275862068965" cy="764.1421281775198" r="4" fill="#d62728" />
<circle cx="179.31034482758622" cy="745.3939422311689" r="4" fill="#d62728" />
<circle cx="204.13793103448276" cy="736.0460652591171" r="4" fill="#d62728" />
<circle cx="228.9655172413793" cy="717.64243247039" r="4" fill="#d62728" />
<circle cx="253.79310344827587" cy="698.3100042132859" r="4" fill="#d62728" />
<circle cx="278.62068965517244" cy="680.513084593418" r="4" fill="#d62728" />
<circle cx="303.44827586206895" cy="665.5999250971397" r="4" fill="#d62728" />
<circle cx="328.2758620689655" cy="651.7503862178737" r="4" fill="#d62728" />
<circle cx="353.1034482758621" cy="643.0316932727869" r="4" fill="#d62728" />
<circle cx="377.9310344827586" cy="634.3953934740882" r="4" fill="#d62728" />
<circle cx="402.7586206896552" cy="622.0439118018819" r="4" fill="#d62728" />
<circle cx="427.58620689655174" cy="603.8050653059313" r="4" fill="#d62728" />
<circle cx="452.41379310344826" cy="584.1805158934507" r="4" fill="#d62728" />
<circle cx="477.2413793103448" cy="571.5593839239737" r="4" fill="#d62728" />
<circle cx="502.0689655172414" cy="553.6501100135761" r="4" fill="#d62728" />
<circle cx="526.8965517241379" cy="546.1598239782782" r="4" fill="#d62728" />
<circle cx="551.7241379310344" cy="539.3361734001217" r="4" fill="#d62728" />
<circle cx="576.551724137931" cy="524.6776836290436" r="4" fill="#d62728" />
<circle cx="601.3793103448276" cy="510.9704601844483" r="4" fill="#d62728" />
<circle cx="626.2068965517242" cy="498.10214877580637" r="4" fill="#d62728" />
<circle cx="651.0344827586207" cy="480.2827582978325" r="4" fill="#d62728" />
<circle cx="675.8620689655172" cy="468.41065493188523" r="4" fill="#d62728" />
<circle cx="700.6896551724138" cy="460.84546603623426" r="4" fill="#d62728" />
<circle cx="725.5172413793103" cy="452.3065399559946" r="4" fill="#d62728" />
<circle cx="750.3448275862069" cy="441.34825148635366" r="4" fill="#d62728" />
<circle cx="775.1724137931035" cy="432.47226253452556" r="4" fill="#d62728" />
<circle cx="800.0" cy="424.4052244745096" r="4" fill="#d62728" />
<circle cx="824.8275862068965" cy="410.71298160198495" r="4" fill="#d62728" />
<circle cx="849.6551724137931" cy="399.52249426524975" r="4" fill="#d62728" />
<circle cx="874.4827586206897" cy="382.534525537194" r="4" fill="#d62728" />
<circle cx="899.3103448275862" cy="377.5534853237208" r="4" fill="#d62728" />
<circle cx="924.1379310344828" cy="371.87584850896496" r="4" fill="#d62728" />
<circle cx="948.9655172413793" cy="364.40054304573755" r="4" fill="#d62728" />
<circle cx="973.7931034482758" cy="358.3409016431815" r="4" fill="#d62728" />
<circle cx="998.6206896551724" cy="349.3900098310004" r="4" fill="#d62728" />
<circle cx="1023.448275862069" cy="339.8623659941014" r="4" fill="#d62728" />
<circle cx="1048.2758620689656" cy="335.30078179860493" r="4" fill="#d62728" />
<circle cx="1073.103448275862" cy="330.3272318711671" r="4" fill="#d62728" />
<circle cx="1097.9310344827586" cy="322.11787837648046" r="4" fill="#d62728" />
<circle cx="1122.7586206896551" cy="315.27924722625346" r="4" fill="#d62728" />
<circle cx="1147.5862068965516" cy="292.5087776789476" r="4" fill="#d62728" />
<circle cx="1172.4137931034484" cy="283.7076915874725" r="4" fill="#d62728" />
<circle cx="1197.2413793103449" cy="274.34483404335003" r="4" fill="#d62728" />
<circle cx="1222.0689655172414" cy="267.68596975797016" r="4" fill="#d62728" />
<circle cx="1246.896551724138" cy="260.8997706099901" r="4" fill="#d62728" />
<circle cx="1271.7241379310344" cy="256.6303075698703" r="4" fill="#d62728" />
<circle cx="1296.551724137931" cy="248.802958662984" r="4" fill="#d62728" />
<circle cx="1321.3793103448277" cy="248.34605121483082" r="4" fill="#d62728" />
<circle cx="1346.2068965517242" cy="248.34605121483082" r="4" fill="#d62728" />
<circle cx="1371.0344827586207" cy="248.34605121483082" r="4" fill="#d62728" />
<circle cx="1395.8620689655172" cy="248.34605121483082" r="4" fill="#d62728" />
<circle cx="1420.6896551724137" cy="248.34605121483082" r="4" fill="#d62728" />
<circle cx="1445.5172413793102" cy="248.34605121483082" r="4" fill="#d62728" />
<circle cx="1470.344827586207" cy="248.34605121483082" r="4" fill="#d62728" />
<circle cx="1495.1724137931035" cy="248.34605121483082" r="4" fill="#d62728" />
<circle cx="1520.0" cy="240.30897429895606" r="4" fill="#d62728" />
<path d="M 80.0 920.0 L 104.82758620689656 867.133561162867 L 129.6551724137931 790.6202893122982 L 154.48275862068965 764.1421281775198 L 179.31034482758622 745.3939422311689 L 204.13793103448276 736.0460652591171 L 228.9655172413793 717.64243247039 L 253.79310344827587 698.3100042132859 L 278.62068965517244 680.513084593418 L 303.44827586206895 665.5999250971397 L 328.2758620689655 651.7503862178737 L 353.1034482758621 643.0316932727869 L 377.9310344827586 634.3953934740882 L 402.7586206896552 622.0439118018819 L 427.58620689655174 603.8050653059313 L 452.41379310344826 584.1805158934507 L 477.2413793103448 571.5593839239737 L 502.0689655172414 553.6501100135761 L 526.8965517241379 546.1598239782782 L 551.7241379310344 539.3361734001217 L 576.551724137931 524.6776836290436 L 601.3793103448276 510.9704601844483 L 626.2068965517242 498.10214877580637 L 651.0344827586207 480.2827582978325 L 675.8620689655172 468.41065493188523 L 700.6896551724138 460.84546603623426 L 725.5172413793103 452.3065399559946 L 750.3448275862069 441.34825148635366 L 775.1724137931035 432.47226253452556 L 800.0 424.4052244745096 L 824.8275862068965 410.71298160198495 L 849.6551724137931 399.52249426524975 L 874.4827586206897 382.534525537194 L 899.3103448275862 377.5534853237208 L 924.1379310344828 371.87584850896496 L 948.9655172413793 364.40054304573755 L 973.7931034482758 358.3409016431815 L 998.6206896551724 349.3900098310004 L 1023.448275862069 339.8623659941014 L 1048.2758620689656 335.30078179860493 L 1073.103448275862 330.3272318711671 L 1097.9310344827586 322.11787837648046 L 1122.7586206896551 315.27924722625346 L 1147.5862068965516 292.5087776789476 L 1172.4137931034484 283.7076915874725 L 1197.2413793103449 274.34483404335003 L 1222.0689655172414 267.68596975797016 L 1246.896551724138 260.8997706099901 L 1271.7241379310344 256.6303075698703 L 1296.551724137931 248.802958662984 L 1321.3793103448277 248.34605121483082 L 1346.2068965517242 248.34605121483082 L 1371.0344827586207 248.34605121483082 L 1395.8620689655172 248.34605121483082 L 1420.6896551724137 248.34605121483082 L 1445.5172413793102 248.34605121483082 L 1470.344827586207 248.34605121483082 L 1495.1724137931035 248.34605121483082 L 1520.0 240.30897429895606" fill="none" stroke="#d62728" stroke-width="2" />
<circle cx="80.0" cy="920.0" r="4" fill="#9467bd" />
<circle cx="104.82758620689656" cy="872.7138242591639" r="4" fill="#9467bd" />
<circle cx="129.6551724137931" cy="795.9084312532185" r="4" fill="#9467bd" />
<circle cx="154.48275862068965" cy="764.7713122044848" r="4" fill="#9467bd" />
<circle cx="179.31034482758622" cy="745.9632039698516" r="4" fill="#9467bd" />
<circle cx="204.13793103448276" cy="737.5740836103179" r="4" fill="#9467bd" />
<circle cx="228.9655172413793" cy="719.0131548148495" r="4" fill="#9467bd" />
<circle cx="253.79310344827587" cy="698.7893825195449" r="4" fill="#9467bd" />
<circle cx="278.62068965517244" cy="680.4906137353121" r="4" fill="#9467bd" />
<circle cx="303.44827586206895" cy="665.4126679462572" r="4" fill="#9467bd" />
<circle cx="328.2758620689655" cy="651.7204250737325" r="4" fill="#9467bd" />
<circle cx="353.1034482758621" cy="642.9942418426103" r="4" fill="#9467bd" />
<circle cx="377.9310344827586" cy="634.2980197556294" r="4" fill="#9467bd" />
<circle cx="402.7586206896552" cy="621.3772763447405" r="4" fill="#9467bd" />
<circle cx="427.58620689655174" cy="603.2732549974253" r="4" fill="#9467bd" />
<circle cx="452.41379310344826" cy="583.2667009971443" r="4" fill="#9467bd" />
<circle cx="477.2413793103448" cy="570.3010158700436" r="4" fill="#9467bd" />
<circle cx="502.0689655172414" cy="554.7362014886944" r="4" fill="#9467bd" />
<circle cx="526.8965517241379" cy="547.2384251673611" r="4" fill="#9467bd" />
<circle cx="551.7241379310344" cy="540.3398717288517" r="4" fill="#9467bd" />
<circle cx="576.551724137931" cy="525.4641636627498" r="4" fill="#9467bd" />
<circle cx="601.3793103448276" cy="511.3299939141426" r="4" fill="#9467bd" />
<circle cx="626.2068965517242" cy="498.4766630775713" r="4" fill="#9467bd" />
<circle cx="651.0344827586207" cy="480.58986002527973" r="4" fill="#9467bd" />
<circle cx="675.8620689655172" cy="468.5454800805206" r="4" fill="#9467bd" />
<circle cx="700.6896551724138" cy="461.0027620429755" r="4" fill="#9467bd" />
<circle cx="725.5172413793103" cy="452.4638359627358" r="4" fill="#9467bd" />
<circle cx="750.3448275862069" cy="441.4905669210243" r="4" fill="#9467bd" />
<circle cx="775.1724137931035" cy="432.3224568138196" r="4" fill="#9467bd" />
<circle cx="800.0" cy="424.25541875380367" r="4" fill="#9467bd" />
<circle cx="824.8275862068965" cy="410.7504330321614" r="4" fill="#9467bd" />
<circle cx="849.6551724137931" cy="399.8146154206264" r="4" fill="#9467bd" />
<circle cx="874.4827586206897" cy="382.7292729741117" r="4" fill="#9467bd" />
<circle cx="899.3103448275862" cy="377.7032910444268" r="4" fill="#9467bd" />
<circle cx="924.1379310344828" cy="372.2578530967652" r="4" fill="#9467bd" />
<circle cx="948.9655172413793" cy="364.7600767754319" r="4" fill="#9467bd" />
<circle cx="973.7931034482758" cy="358.6779645147699" r="4" fill="#9467bd" />
<circle cx="998.6206896551724" cy="349.6596601282712" r="4" fill="#9467bd" />
<circle cx="1023.448275862069" cy="339.57024483872476" r="4" fill="#9467bd" />
<circle cx="1048.2758620689656" cy="334.9861897851224" r="4" fill="#9467bd" />
<circle cx="1073.103448275862" cy="330.0126398576846" r="4" fill="#9467bd" />
<circle cx="1097.9310344827586" cy="321.7957960769627" r="4" fill="#9467bd" />
<circle cx="1122.7586206896551" cy="314.8747717803474" r="4" fill="#9467bd" />
<circle cx="1147.5862068965516" cy="292.09681194700624" r="4" fill="#9467bd" />
<circle cx="1172.4137931034484" cy="283.2507841393193" r="4" fill="#9467bd" />
<circle cx="1197.2413793103449" cy="273.8954168812321" r="4" fill="#9467bd" />
<circle cx="1222.0689655172414" cy="267.23655259585223" r="4" fill="#9467bd" />
<circle cx="1246.896551724138" cy="260.39043115958987" r="4" fill="#9467bd" />
<circle cx="1271.7241379310344" cy="256.13594869154065" r="4" fill="#9467bd" />
<circle cx="1296.551724137931" cy="247.94157576892462" r="4" fill="#9467bd" />
<circle cx="1321.3793103448277" cy="239.0955479612378" r="4" fill="#9467bd" />
<circle cx="1346.2068965517242" cy="232.64641168484627" r="4" fill="#9467bd" />
<circle cx="1371.0344827586207" cy="225.62052338373667" r="4" fill="#9467bd" />
<circle cx="1395.8620689655172" cy="219.11895510509805" r="4" fill="#9467bd" />
<circle cx="1420.6896551724137" cy="209.89841299564625" r="4" fill="#9467bd" />
<circle cx="1445.5172413793102" cy="203.5541407237489" r="4" fill="#9467bd" />
<circle cx="1470.344827586207" cy="192.723187116708" r="4" fill="#9467bd" />
<circle cx="1495.1724137931035" cy="186.34146341463418" r="4" fill="#9467bd" />
<circle cx="1520.0" cy="178.8287065212303" r="4" fill="#9467bd" />
<path d="M 80.0 920.0 L 104.82758620689656 872.7138242591639 L 129.6551724137931 795.9084312532185 L 154.48275862068965 764.7713122044848 L 179.31034482758622 745.9632039698516 L 204.13793103448276 737.5740836103179 L 228.9655172413793 719.0131548148495 L 253.79310344827587 698.7893825195449 L 278.62068965517244 680.4906137353121 L 303.44827586206895 665.4126679462572 L 328.2758620689655 651.7204250737325 L 353.1034482758621 642.9942418426103 L 377.9310344827586 634.2980197556294 L 402.7586206896552 621.3772763447405 L 427.58620689655174 603.2732549974253 L 452.41379310344826 583.2667009971443 L 477.2413793103448 570.3010158700436 L 502.0689655172414 554.7362014886944 L 526.8965517241379 547.2384251673611 L 551.7241379310344 540.3398717288517 L 576.551724137931 525.4641636627498 L 601.3793103448276 511.3299939141426 L 626.2068965517242 498.4766630775713 L 651.0344827586207 480.58986002527973 L 675.8620689655172 468.5454800805206 L 700.6896551724138 461.0027620429755 L 725.5172413793103 452.4638359627358 L 750.3448275862069 441.4905669210243 L 775.1724137931035 432.3224568138196 L 800.0 424.25541875380367 L 824.8275862068965 410.7504330321614 L 849.6551724137931 399.8146154206264 L 874.4827586206897 382.7292729741117 L 899.3103448275862 377.7032910444268 L 924.1379310344828 372.2578530967652 L 948.9655172413793 364.7600767754319 L 973.7931034482758 358.6779645147699 L 998.6206896551724 349.6596601282712 L 1023.448275862069 339.57024483872476 L 1048.2758620689656 334.9861897851224 L 1073.103448275862 330.0126398576846 L 1097.9310344827586 321.7957960769627 L 1122.7586206896551 314.8747717803474 L 1147.5862068965516 292.09681194700624 L 1172.4137931034484 283.2507841393193 L 1197.2413793103449 273.8954168812321 L 1222.0689655172414 267.23655259585223 L 1246.896551724138 260.39043115958987 L 1271.7241379310344 256.13594869154065 L 1296.551724137931 247.94157576892462 L 1321.3793103448277 239.0955479612378 L 1346.2068965517242 232.64641168484627 L 1371.0344827586207 225.62052338373667 L 1395.8620689655172 219.11895510509805 L 1420.6896551724137 209.89841299564625 L 1445.5172413793102 203.5541407237489 L 1470.344827586207 192.723187116708 L 1495.1724137931035 186.34146341463418 L 1520.0 178.8287065212303" fill="none" stroke="#9467bd" stroke-width="2" />
<circle cx="80.0" cy="920.0" r="4" fill="#66ffbd" />
<circle cx="104.82758620689656" cy="684.1383830345021" r="4" fill="#66ffbd" />
<circle cx="129.6551724137931" cy="706.1972754084546" r="4" fill="#66ffbd" />
<circle cx="154.48275862068965" cy="719.7022611300969" r="4" fill="#66ffbd" />
<circle cx="179.31034482758622" cy="729.8141472777492" r="4" fill="#66ffbd" />
<circle cx="204.13793103448276" cy="732.3683348157858" r="4" fill="#66ffbd" />
<circle cx="228.9655172413793" cy="738.9972379570245" r="4" fill="#66ffbd" />
<circle cx="253.79310344827587" cy="743.8883947380741" r="4" fill="#66ffbd" />
<circle cx="278.62068965517244" cy="750.2850990122186" r="4" fill="#66ffbd" />
<circle cx="303.44827586206895" cy="755.3560226581153" r="4" fill="#66ffbd" />
<circle cx="328.2758620689655" cy="758.9363793829878" r="4" fill="#66ffbd" />
<circle cx="353.1034482758621" cy="762.336969243013" r="4" fill="#66ffbd" />
<circle cx="377.9310344827586" cy="764.2769533261551" r="4" fill="#66ffbd" />
<circle cx="402.7586206896552" cy="769.6699592715697" r="4" fill="#66ffbd" />
<circle cx="427.58620689655174" cy="778.1489630635269" r="4" fill="#66ffbd" />
<circle cx="452.41379310344826" cy="784.7479050606245" r="4" fill="#66ffbd" />
<circle cx="477.2413793103448" cy="789.2720378259445" r="4" fill="#66ffbd" />
<circle cx="502.0689655172414" cy="796.4702027058659" r="4" fill="#66ffbd" />
<circle cx="526.8965517241379" cy="797.2941341697486" r="4" fill="#66ffbd" />
<circle cx="551.7241379310344" cy="798.8970553813024" r="4" fill="#66ffbd" />
<circle cx="576.551724137931" cy="801.750854360751" r="4" fill="#66ffbd" />
<circle cx="601.3793103448276" cy="806.5446374233416" r="4" fill="#66ffbd" />
<circle cx="626.2068965517242" cy="807.8554374795187" r="4" fill="#66ffbd" />
<circle cx="651.0344827586207" cy="810.4620570198024" r="4" fill="#66ffbd" />
<circle cx="675.8620689655172" cy="813.240953138898" r="4" fill="#66ffbd" />
<circle cx="700.6896551724138" cy="809.4433781190019" r="4" fill="#66ffbd" />
<circle cx="725.5172413793103" cy="815.1584663639343" r="4" fill="#66ffbd" />
<circle cx="750.3448275862069" cy="816.5067178502879" r="4" fill="#66ffbd" />
<circle cx="775.1724137931035" cy="819.6076962689012" r="4" fill="#66ffbd" />
<circle cx="800.0" cy="821.5701512101493" r="4" fill="#66ffbd" />
<circle cx="824.8275862068965" cy="824.1093581761154" r="4" fill="#66ffbd" />
<circle cx="849.6551724137931" cy="825.0606245025982" r="4" fill="#66ffbd" />
<circle cx="874.4827586206897" cy="831.1277561911895" r="4" fill="#66ffbd" />
<circle cx="899.3103448275862" cy="831.9966293712841" r="4" fill="#66ffbd" />
<circle cx="924.1379310344828" cy="833.4871962923085" r="4" fill="#66ffbd" />
<circle cx="948.9655172413793" cy="835.3073357988858" r="4" fill="#66ffbd" />
<circle cx="973.7931034482758" cy="836.4233884181452" r="4" fill="#66ffbd" />
<circle cx="998.6206896551724" cy="837.7266981882871" r="4" fill="#66ffbd" />
<circle cx="1023.448275862069" cy="839.7415851317822" r="4" fill="#66ffbd" />
<circle cx="1048.2758620689656" cy="838.8652216656524" r="4" fill="#66ffbd" />
<circle cx="1073.103448275862" cy="840.565516595665" r="4" fill="#66ffbd" />
<circle cx="1097.9310344827586" cy="841.9886709423716" r="4" fill="#66ffbd" />
<circle cx="1122.7586206896551" cy="844.3630916155611" r="4" fill="#66ffbd" />
<circle cx="1147.5862068965516" cy="845.2319647956556" r="4" fill="#66ffbd" />
<circle cx="1172.4137931034484" cy="845.4866345208558" r="4" fill="#66ffbd" />
<circle cx="1197.2413793103449" cy="847.2843031693272" r="4" fill="#66ffbd" />
<circle cx="1222.0689655172414" cy="846.0558962595384" r="4" fill="#66ffbd" />
<circle cx="1246.896551724138" cy="848.2730209259867" r="4" fill="#66ffbd" />
<circle cx="1271.7241379310344" cy="849.1793455362576" r="4" fill="#66ffbd" />
<circle cx="1296.551724137931" cy="851.4489022049529" r="4" fill="#66ffbd" />
<circle cx="1321.3793103448277" cy="844.7450962033613" r="4" fill="#66ffbd" />
<circle cx="1346.2068965517242" cy="838.6779645147699" r="4" fill="#66ffbd" />
<circle cx="1371.0344827586207" cy="834.2062637516971" r="4" fill="#66ffbd" />
<circle cx="1395.8620689655172" cy="823.2255044239502" r="4" fill="#66ffbd" />
<circle cx="1420.6896551724137" cy="819.5627545526895" r="4" fill="#66ffbd" />
<circle cx="1445.5172413793102" cy="813.5480548663452" r="4" fill="#66ffbd" />
<circle cx="1470.344827586207" cy="804.4623379055288" r="4" fill="#66ffbd" />
<circle cx="1495.1724137931035" cy="798.6798370862788" r="4" fill="#66ffbd" />
<circle cx="1520.0" cy="798.7547399466317" r="4" fill="#66ffbd" />
<path d="M 80.0 920.0 L 104.82758620689656 684.1383830345021 L 129.6551724137931 706.1972754084546 L 154.48275862068965 719.7022611300969 L 179.31034482758622 729.8141472777492 L 204.13793103448276 732.3683348157858 L 228.9655172413793 738.9972379570245 L 253.79310344827587 743.8883947380741 L 278.62068965517244 750.2850990122186 L 303.44827586206895 755.3560226581153 L 328.2758620689655 758.9363793829878 L 353.1034482758621 762.336969243013 L 377.9310344827586 764.2769533261551 L 402.7586206896552 769.6699592715697 L 427.58620689655174 778.1489630635269 L 452.41379310344826 784.7479050606245 L 477.2413793103448 789.2720378259445 L 502.0689655172414 796.4702027058659 L 526.8965517241379 797.2941341697486 L 551.7241379310344 798.8970553813024 L 576.551724137931 801.750854360751 L 601.3793103448276 806.5446374233416 L 626.2068965517242 807.8554374795187 L 651.0344827586207 810.4620570198024 L 675.8620689655172 813.240953138898 L 700.6896551724138 809.4433781190019 L 725.5172413793103 815.1584663639343 L 750.3448275862069 816.5067178502879 L 775.1724137931035 819.6076962689012 L 800.0 821.5701512101493 L 824.8275862068965 824.1093581761154 L 849.6551724137931 825.0606245025982 L 874.4827586206897 831.1277561911895 L 899.3103448275862 831.9966293712841 L 924.1379310344828 833.4871962923085 L 948.9655172413793 835.3073357988858 L 973.7931034482758 836.4233884181452 L 998.6206896551724 837.7266981882871 L 1023.448275862069 839.7415851317822 L 1048.2758620689656 838.8652216656524 L 1073.103448275862 840.565516595665 L 1097.9310344827586 841.9886709423716 L 1122.7586206896551 844.3630916155611 L 1147.5862068965516 845.2319647956556 L 1172.4137931034484 845.4866345208558 L 1197.2413793103449 847.2843031693272 L 1222.0689655172414 846.0558962595384 L 1246.896551724138 848.2730209259867 L 1271.7241379310344 849.1793455362576 L 1296.551724137931 851.4489022049529 L 1321.3793103448277 844.7450962033613 L 1346.2068965517242 838.6779645147699 L 1371.0344827586207 834.2062637516971 L 1395.8620689655172 823.2255044239502 L 1420.6896551724137 819.5627545526895 L 1445.5172413793102 813.5480548663452 L 1470.344827586207 804.4623379055288 L 1495.1724137931035 798.6798370862788 L 1520.0 798.7547399466317" fill="none" stroke="#66ffbd" stroke-width="2" />
<text x="80.0" y="940" text-anchor="middle" font-size="12">08-06</text>
<text x="204.13793103448276" y="940" text-anchor="middle" font-size="12">08-11</text>
<text x="328.2758620689655" y="940" text-anchor="middle" font-size="12">08-16</text>
<text x="452.41379310344826" y="940" text-anchor="middle" font-size="12">08-21</text>
<text x="576.551724137931" y="940" text-anchor="middle" font-size="12">08-26</text>
<text x="700.6896551724138" y="940" text-anchor="middle" font-size="12">08-31</text>
<text x="824.8275862068965" y="940" text-anchor="middle" font-size="12">09-05</text>
<text x="948.9655172413793" y="940" text-anchor="middle" font-size="12">09-10</text>
<text x="1073.103448275862" y="940" text-anchor="middle" font-size="12">09-15</text>
<text x="1197.2413793103449" y="940" text-anchor="middle" font-size="12">09-20</text>
<text x="1321.3793103448277" y="940" text-anchor="middle" font-size="12">09-25</text>
<text x="1445.5172413793102" y="940" text-anchor="middle" font-size="12">09-30</text>
<text x="1520.0" y="940" text-anchor="middle" font-size="12">10-03</text>
<rect x="90" y="100" width="130" height="185" class="legend-box" />
<text x="100" y="120" class="legend-item">图例:</text>
<rect x="100" y="137" width="15" height="15" fill="#1f77b4" rx="3" />
<text x="120" y="145" class="legend-item">构件聚合数据</text>
<rect x="100" y="162" width="15" height="15" fill="#ff7f0e" rx="3" />
<text x="120" y="170" class="legend-item">构件基本信息</text>
<rect x="100" y="187" width="15" height="15" fill="#2ca02c" rx="3" />
<text x="120" y="195" class="legend-item">构件徽标</text>
<rect x="100" y="212" width="15" height="15" fill="#d62728" rx="3" />
<text x="120" y="220" class="legend-item">构件扩展元数据</text>
<rect x="100" y="237" width="15" height="15" fill="#9467bd" rx="3" />
<text x="120" y="245" class="legend-item">构件版本信息</text>
<rect x="100" y="262" width="15" height="15" fill="#66ffbd" rx="3" />
<text x="120" y="270" class="legend-item">数据量偏差</text>
<rect x="100" y="980" width="15" height="15" fill="#1f77b4" rx="3" />
<text x="125" y="990" class="legend-item">90618</text>
<rect x="300" y="980" width="15" height="15" fill="#ff7f0e" rx="3" />
<text x="325" y="990" class="legend-item">106560</text>
<rect x="500" y="980" width="15" height="15" fill="#2ca02c" rx="3" />
<text x="525" y="990" class="legend-item">106805</text>
<rect x="700" y="980" width="15" height="15" fill="#d62728" rx="3" />
<text x="725" y="990" class="legend-item">90743</text>
<rect x="900" y="980" width="15" height="15" fill="#9467bd" rx="3" />
<text x="925" y="990" class="legend-item">98951</text>
<rect x="1100" y="980" width="15" height="15" fill="#66ffbd" rx="3" />
<text x="1125" y="990" class="legend-item">16187</text>
<text x="1520" y="990" text-anchor="end" font-size="11" fill="#666">生成时间: 2025-10-03 06:44:27</text>
</svg>