<svg xmlns="http://www.w3.org/2000/svg" width="1600" height="1000" viewBox="0 0 1600 1000">
<style>
  text {
    font-family: Arial, sans-serif;
    font-size: 12px;
    fill: #333;
  }
  .axis-label { font-size: 14px; }
  .title { font-size: 18px; font-weight: bold; }
  .legend-item { font-size: 11px; }
  .legend-box { fill: white; fill-opacity: 0.85; stroke: #cccccc; stroke-width: 1; rx: 5; }
</style>
<text x="800.0" y="30" text-anchor="middle" class="title">Daily Data Growth Trend</text>
<text x="800.0" y="980" text-anchor="middle" class="axis-label">Date</text>
<g transform="rotate(-90)">
<text x="-500.0" y="20" text-anchor="middle" class="axis-label">Count</text>
</g>
<rect x="0" y="0" width="1600" height="1000" fill="#f8f8f8" />
<line x1="80" y1="920.0" x2="1520" y2="920.0" stroke="#e0e0e0" stroke-width="1" />
<text x="70" y="925.0" text-anchor="end">0</text>
<line x1="80" y1="752.0" x2="1520" y2="752.0" stroke="#e0e0e0" stroke-width="1" />
<text x="70" y="757.0" text-anchor="end">20.9k</text>
<line x1="80" y1="584.0" x2="1520" y2="584.0" stroke="#e0e0e0" stroke-width="1" />
<text x="70" y="589.0" text-anchor="end">41.8k</text>
<line x1="80" y1="416.0" x2="1520" y2="416.0" stroke="#e0e0e0" stroke-width="1" />
<text x="70" y="421.0" text-anchor="end">62.6k</text>
<line x1="80" y1="248.0" x2="1520" y2="248.0" stroke="#e0e0e0" stroke-width="1" />
<text x="70" y="253.0" text-anchor="end">83.5k</text>
<line x1="80" y1="80.0" x2="1520" y2="80.0" stroke="#e0e0e0" stroke-width="1" />
<text x="70" y="85.0" text-anchor="end">104.4k</text>
<line x1="80" y1="80" x2="80" y2="920" stroke="#333333" stroke-width="2" />
<line x1="80" y1="920" x2="1520" y2="920" stroke="#333333" stroke-width="2" />
<circle cx="80.0" cy="920.0" r="4" fill="#1f77b4" />
<circle cx="108.8" cy="880.6769707269491" r="4" fill="#1f77b4" />
<circle cx="137.6" cy="797.3407881902195" r="4" fill="#1f77b4" />
<circle cx="166.4" cy="763.8180666311355" r="4" fill="#1f77b4" />
<circle cx="195.2" cy="743.6416841808875" r="4" fill="#1f77b4" />
<circle cx="224.0" cy="733.5132689078166" r="4" fill="#1f77b4" />
<circle cx="252.8" cy="713.3368864575687" r="4" fill="#1f77b4" />
<circle cx="281.6" cy="691.5595868990276" r="4" fill="#1f77b4" />
<circle cx="310.4" cy="671.4877869734421" r="4" fill="#1f77b4" />
<circle cx="339.2" cy="655.124644268576" r="4" fill="#1f77b4" />
<circle cx="368.0" cy="640.2015224802149" r="4" fill="#1f77b4" />
<circle cx="396.8" cy="630.8212744989592" r="4" fill="#1f77b4" />
<circle cx="425.6" cy="621.5375642327766" r="4" fill="#1f77b4" />
<circle cx="454.40000000000003" cy="607.579819595145" r="4" fill="#1f77b4" />
<circle cx="483.2" cy="587.7574087668313" r="4" fill="#1f77b4" />
<circle cx="512.0" cy="566.3179912110456" r="4" fill="#1f77b4" />
<circle cx="540.8" cy="552.0867230473739" r="4" fill="#1f77b4" />
<circle cx="569.6" cy="532.610239031405" r="4" fill="#1f77b4" />
<circle cx="598.4" cy="524.5654294419919" r="4" fill="#1f77b4" />
<circle cx="627.2" cy="517.1561598101425" r="4" fill="#1f77b4" />
<circle cx="656.0" cy="501.2193920135153" r="4" fill="#1f77b4" />
<circle cx="684.8000000000001" cy="485.5481029333387" r="4" fill="#1f77b4" />
<circle cx="713.6" cy="471.6708063916013" r="4" fill="#1f77b4" />
<circle cx="742.4" cy="452.51611475920885" r="4" fill="#1f77b4" />
<circle cx="771.2" cy="439.3306718421609" r="4" fill="#1f77b4" />
<circle cx="800.0" cy="431.2054141568537" r="4" fill="#1f77b4" />
<circle cx="828.8000000000001" cy="422.0423760345123" r="4" fill="#1f77b4" />
<circle cx="857.6" cy="410.272819605201" r="4" fill="#1f77b4" />
<circle cx="886.4" cy="400.0559114266465" r="4" fill="#1f77b4" />
<circle cx="915.2" cy="391.3755618796698" r="4" fill="#1f77b4" />
<circle cx="944.0" cy="376.63747071186515" r="4" fill="#1f77b4" />
<circle cx="972.8000000000001" cy="364.61048037569265" r="4" fill="#1f77b4" />
<circle cx="1001.6" cy="346.2683145118309" r="4" fill="#1f77b4" />
<circle cx="1030.4" cy="340.894381706103" r="4" fill="#1f77b4" />
<circle cx="1059.2" cy="334.79641603732796" r="4" fill="#1f77b4" />
<circle cx="1088.0" cy="326.7113823999679" r="4" fill="#1f77b4" />
<circle cx="1116.8" cy="320.2111762517221" r="4" fill="#1f77b4" />
<circle cx="1145.6000000000001" cy="310.54935993483707" r="4" fill="#1f77b4" />
<circle cx="1174.4" cy="299.7130014178978" r="4" fill="#1f77b4" />
<circle cx="1203.2" cy="294.789577949177" r="4" fill="#1f77b4" />
<circle cx="1232.0" cy="289.44782438180675" r="4" fill="#1f77b4" />
<circle cx="1260.8" cy="280.60657864304176" r="4" fill="#1f77b4" />
<circle cx="1289.6000000000001" cy="273.189264201603" r="4" fill="#1f77b4" />
<circle cx="1318.4" cy="248.66063976348266" r="4" fill="#1f77b4" />
<circle cx="1347.2" cy="239.18385406715413" r="4" fill="#1f77b4" />
<circle cx="1376.0" cy="229.12784208038784" r="4" fill="#1f77b4" />
<circle cx="1404.8" cy="221.98405116498907" r="4" fill="#1f77b4" />
<circle cx="1433.6000000000001" cy="214.69545367698083" r="4" fill="#1f77b4" />
<circle cx="1462.4" cy="210.10186740142603" r="4" fill="#1f77b4" />
<circle cx="1491.2" cy="201.3249801393764" r="4" fill="#1f77b4" />
<circle cx="1520.0" cy="200.82620194483275" r="4" fill="#1f77b4" />
<path d="M 80.0 920.0 L 108.8 880.6769707269491 L 137.6 797.3407881902195 L 166.4 763.8180666311355 L 195.2 743.6416841808875 L 224.0 733.5132689078166 L 252.8 713.3368864575687 L 281.6 691.5595868990276 L 310.4 671.4877869734421 L 339.2 655.124644268576 L 368.0 640.2015224802149 L 396.8 630.8212744989592 L 425.6 621.5375642327766 L 454.40000000000003 607.579819595145 L 483.2 587.7574087668313 L 512.0 566.3179912110456 L 540.8 552.0867230473739 L 569.6 532.610239031405 L 598.4 524.5654294419919 L 627.2 517.1561598101425 L 656.0 501.2193920135153 L 684.8000000000001 485.5481029333387 L 713.6 471.6708063916013 L 742.4 452.51611475920885 L 771.2 439.3306718421609 L 800.0 431.2054141568537 L 828.8000000000001 422.0423760345123 L 857.6 410.272819605201 L 886.4 400.0559114266465 L 915.2 391.3755618796698 L 944.0 376.63747071186515 L 972.8000000000001 364.61048037569265 L 1001.6 346.2683145118309 L 1030.4 340.894381706103 L 1059.2 334.79641603732796 L 1088.0 326.7113823999679 L 1116.8 320.2111762517221 L 1145.6000000000001 310.54935993483707 L 1174.4 299.7130014178978 L 1203.2 294.789577949177 L 1232.0 289.44782438180675 L 1260.8 280.60657864304176 L 1289.6000000000001 273.189264201603 L 1318.4 248.66063976348266 L 1347.2 239.18385406715413 L 1376.0 229.12784208038784 L 1404.8 221.98405116498907 L 1433.6000000000001 214.69545367698083 L 1462.4 210.10186740142603 L 1491.2 201.3249801393764 L 1520.0 200.82620194483275" fill="none" stroke="#1f77b4" stroke-width="2" />
<circle cx="80.0" cy="920.0" r="4" fill="#ff7f0e" />
<circle cx="108.8" cy="632.9933730881007" r="4" fill="#ff7f0e" />
<circle cx="137.6" cy="573.1158553140996" r="4" fill="#ff7f0e" />
<circle cx="166.4" cy="553.9128948241707" r="4" fill="#ff7f0e" />
<circle cx="195.2" cy="544.4521987470209" r="4" fill="#ff7f0e" />
<circle cx="224.0" cy="537.0509739247609" r="4" fill="#ff7f0e" />
<circle cx="252.8" cy="523.8574861981235" r="4" fill="#ff7f0e" />
<circle cx="281.6" cy="507.1162374425551" r="4" fill="#ff7f0e" />
<circle cx="310.4" cy="493.76185352412944" r="4" fill="#ff7f0e" />
<circle cx="339.2" cy="482.7565540058124" r="4" fill="#ff7f0e" />
<circle cx="368.0" cy="471.6225375340648" r="4" fill="#ff7f0e" />
<circle cx="396.8" cy="465.8061402009192" r="4" fill="#ff7f0e" />
<circle cx="425.6" cy="458.6060356183945" r="4" fill="#ff7f0e" />
<circle cx="454.40000000000003" cy="450.416419456372" r="4" fill="#ff7f0e" />
<circle cx="483.2" cy="439.4593887955915" r="4" fill="#ff7f0e" />
<circle cx="512.0" cy="424.7937009140915" r="4" fill="#ff7f0e" />
<circle cx="540.8" cy="415.3812736944783" r="4" fill="#ff7f0e" />
<circle cx="569.6" cy="403.6278068843459" r="4" fill="#ff7f0e" />
<circle cx="598.4" cy="396.47597115935764" r="4" fill="#ff7f0e" />
<circle cx="627.2" cy="390.77220116046385" r="4" fill="#ff7f0e" />
<circle cx="656.0" cy="377.8120129119194" r="4" fill="#ff7f0e" />
<circle cx="684.8000000000001" cy="367.2652675401989" r="4" fill="#ff7f0e" />
<circle cx="713.6" cy="354.7797230574299" r="4" fill="#ff7f0e" />
<circle cx="742.4" cy="338.400490733385" r="4" fill="#ff7f0e" />
<circle cx="771.2" cy="328.1674929356516" r="4" fill="#ff7f0e" />
<circle cx="800.0" cy="315.9554719789227" r="4" fill="#ff7f0e" />
<circle cx="828.8000000000001" cy="312.9225787637139" r="4" fill="#ff7f0e" />
<circle cx="857.6" cy="302.5930432509076" r="4" fill="#ff7f0e" />
<circle cx="886.4" cy="295.6825518136018" r="4" fill="#ff7f0e" />
<circle cx="915.2" cy="289.06971833110435" r="4" fill="#ff7f0e" />
<circle cx="944.0" cy="276.77724927848124" r="4" fill="#ff7f0e" />
<circle cx="972.8000000000001" cy="265.73977052180646" r="4" fill="#ff7f0e" />
<circle cx="1001.6" cy="253.57601842261397" r="4" fill="#ff7f0e" />
<circle cx="1030.4" cy="249.135283529258" r="4" fill="#ff7f0e" />
<circle cx="1059.2" cy="244.58192130165025" r="4" fill="#ff7f0e" />
<circle cx="1088.0" cy="238.44373158492806" r="4" fill="#ff7f0e" />
<circle cx="1116.8" cy="233.11806763673667" r="4" fill="#ff7f0e" />
<circle cx="1145.6000000000001" cy="224.85604818840955" r="4" fill="#ff7f0e" />
<circle cx="1174.4" cy="216.14351940307517" r="4" fill="#ff7f0e" />
<circle cx="1203.2" cy="210.2708084028037" r="4" fill="#ff7f0e" />
<circle cx="1232.0" cy="206.75522661223022" r="4" fill="#ff7f0e" />
<circle cx="1260.8" cy="199.4344498858643" r="4" fill="#ff7f0e" />
<circle cx="1289.6000000000001" cy="194.4868919883753" r="4" fill="#ff7f0e" />
<circle cx="1318.4" cy="170.6823004133022" r="4" fill="#ff7f0e" />
<circle cx="1347.2" cy="161.4629486238348" r="4" fill="#ff7f0e" />
<circle cx="1376.0" cy="153.08830184125588" r="4" fill="#ff7f0e" />
<circle cx="1404.8" cy="144.61711734360392" r="4" fill="#ff7f0e" />
<circle cx="1433.6000000000001" cy="139.70978349406198" r="4" fill="#ff7f0e" />
<circle cx="1462.4" cy="136.08961917882618" r="4" fill="#ff7f0e" />
<circle cx="1491.2" cy="129.73421960318979" r="4" fill="#ff7f0e" />
<circle cx="1520.0" cy="122.03533682612158" r="4" fill="#ff7f0e" />
<path d="M 80.0 920.0 L 108.8 632.9933730881007 L 137.6 573.1158553140996 L 166.4 553.9128948241707 L 195.2 544.4521987470209 L 224.0 537.0509739247609 L 252.8 523.8574861981235 L 281.6 507.1162374425551 L 310.4 493.76185352412944 L 339.2 482.7565540058124 L 368.0 471.6225375340648 L 396.8 465.8061402009192 L 425.6 458.6060356183945 L 454.40000000000003 450.416419456372 L 483.2 439.4593887955915 L 512.0 424.7937009140915 L 540.8 415.3812736944783 L 569.6 403.6278068843459 L 598.4 396.47597115935764 L 627.2 390.77220116046385 L 656.0 377.8120129119194 L 684.8000000000001 367.2652675401989 L 713.6 354.7797230574299 L 742.4 338.400490733385 L 771.2 328.1674929356516 L 800.0 315.9554719789227 L 828.8000000000001 312.9225787637139 L 857.6 302.5930432509076 L 886.4 295.6825518136018 L 915.2 289.06971833110435 L 944.0 276.77724927848124 L 972.8000000000001 265.73977052180646 L 1001.6 253.57601842261397 L 1030.4 249.135283529258 L 1059.2 244.58192130165025 L 1088.0 238.44373158492806 L 1116.8 233.11806763673667 L 1145.6000000000001 224.85604818840955 L 1174.4 216.14351940307517 L 1203.2 210.2708084028037 L 1232.0 206.75522661223022 L 1260.8 199.4344498858643 L 1289.6000000000001 194.4868919883753 L 1318.4 170.6823004133022 L 1347.2 161.4629486238348 L 1376.0 153.08830184125588 L 1404.8 144.61711734360392 L 1433.6000000000001 139.70978349406198 L 1462.4 136.08961917882618 L 1491.2 129.73421960318979 L 1520.0 122.03533682612158" fill="none" stroke="#ff7f0e" stroke-width="2" />
<circle cx="80.0" cy="920.0" r="4" fill="#2ca02c" />
<circle cx="108.8" cy="627.3539615659222" r="4" fill="#2ca02c" />
<circle cx="137.6" cy="567.7097432700141" r="4" fill="#2ca02c" />
<circle cx="166.4" cy="548.6918134006416" r="4" fill="#2ca02c" />
<circle cx="195.2" cy="539.3759238961013" r="4" fill="#2ca02c" />
<circle cx="224.0" cy="531.9907886930201" r="4" fill="#2ca02c" />
<circle cx="252.8" cy="518.9340627294027" r="4" fill="#2ca02c" />
<circle cx="281.6" cy="502.41002383274844" r="4" fill="#2ca02c" />
<circle cx="310.4" cy="489.2084912965217" r="4" fill="#2ca02c" />
<circle cx="339.2" cy="478.2916846836882" r="4" fill="#2ca02c" />
<circle cx="368.0" cy="467.2139818790664" r="4" fill="#2ca02c" />
<circle cx="396.8" cy="461.48607745140436" r="4" fill="#2ca02c" />
<circle cx="425.6" cy="454.2859728688797" r="4" fill="#2ca02c" />
<circle cx="454.40000000000003" cy="446.12049113562546" r="4" fill="#2ca02c" />
<circle cx="483.2" cy="435.4048047625273" r="4" fill="#2ca02c" />
<circle cx="512.0" cy="421.05286445501446" r="4" fill="#2ca02c" />
<circle cx="540.8" cy="411.6806612833483" r="4" fill="#2ca02c" />
<circle cx="569.6" cy="399.93523928280524" r="4" fill="#2ca02c" />
<circle cx="598.4" cy="392.77535874822763" r="4" fill="#2ca02c" />
<circle cx="627.2" cy="387.0876783685127" r="4" fill="#2ca02c" />
<circle cx="656.0" cy="374.2159830254518" r="4" fill="#2ca02c" />
<circle cx="684.8000000000001" cy="363.69337208249954" r="4" fill="#2ca02c" />
<circle cx="713.6" cy="351.2239172189094" r="4" fill="#2ca02c" />
<circle cx="742.4" cy="334.8688193236327" r="4" fill="#2ca02c" />
<circle cx="771.2" cy="324.66800076425693" r="4" fill="#2ca02c" />
<circle cx="800.0" cy="312.4640246171174" r="4" fill="#2ca02c" />
<circle cx="828.8000000000001" cy="309.4391762114981" r="4" fill="#2ca02c" />
<circle cx="857.6" cy="299.11768550828117" r="4" fill="#2ca02c" />
<circle cx="886.4" cy="292.23132849974365" r="4" fill="#2ca02c" />
<circle cx="915.2" cy="285.65871906519317" r="4" fill="#2ca02c" />
<circle cx="944.0" cy="273.6478183481995" r="4" fill="#2ca02c" />
<circle cx="972.8000000000001" cy="262.64251882988253" r="4" fill="#2ca02c" />
<circle cx="1001.6" cy="250.8166487334454" r="4" fill="#2ca02c" />
<circle cx="1030.4" cy="246.3759138400893" r="4" fill="#2ca02c" />
<circle cx="1059.2" cy="241.87886527960745" r="4" fill="#2ca02c" />
<circle cx="1088.0" cy="235.74872037247474" r="4" fill="#2ca02c" />
<circle cx="1116.8" cy="230.44719085305155" r="4" fill="#2ca02c" />
<circle cx="1145.6000000000001" cy="222.18517140472443" r="4" fill="#2ca02c" />
<circle cx="1174.4" cy="213.5128666673371" r="4" fill="#2ca02c" />
<circle cx="1203.2" cy="207.648200476655" r="4" fill="#2ca02c" />
<circle cx="1232.0" cy="204.1326186860815" r="4" fill="#2ca02c" />
<circle cx="1260.8" cy="196.81988676930507" r="4" fill="#2ca02c" />
<circle cx="1289.6000000000001" cy="191.95277696771018" r="4" fill="#2ca02c" />
<circle cx="1318.4" cy="168.35735044196178" r="4" fill="#2ca02c" />
<circle cx="1347.2" cy="159.15408827167323" r="4" fill="#2ca02c" />
<circle cx="1376.0" cy="151.0288305863661" r="4" fill="#2ca02c" />
<circle cx="1404.8" cy="142.56569089830361" r="4" fill="#2ca02c" />
<circle cx="1433.6000000000001" cy="137.65835704876167" r="4" fill="#2ca02c" />
<circle cx="1462.4" cy="134.03819273352576" r="4" fill="#2ca02c" />
<circle cx="1491.2" cy="127.69888277706832" r="4" fill="#2ca02c" />
<circle cx="1520.0" cy="120.00000000000011" r="4" fill="#2ca02c" />
<path d="M 80.0 920.0 L 108.8 627.3539615659222 L 137.6 567.7097432700141 L 166.4 548.6918134006416 L 195.2 539.3759238961013 L 224.0 531.9907886930201 L 252.8 518.9340627294027 L 281.6 502.41002383274844 L 310.4 489.2084912965217 L 339.2 478.2916846836882 L 368.0 467.2139818790664 L 396.8 461.48607745140436 L 425.6 454.2859728688797 L 454.40000000000003 446.12049113562546 L 483.2 435.4048047625273 L 512.0 421.05286445501446 L 540.8 411.6806612833483 L 569.6 399.93523928280524 L 598.4 392.77535874822763 L 627.2 387.0876783685127 L 656.0 374.2159830254518 L 684.8000000000001 363.69337208249954 L 713.6 351.2239172189094 L 742.4 334.8688193236327 L 771.2 324.66800076425693 L 800.0 312.4640246171174 L 828.8000000000001 309.4391762114981 L 857.6 299.11768550828117 L 886.4 292.23132849974365 L 915.2 285.65871906519317 L 944.0 273.6478183481995 L 972.8000000000001 262.64251882988253 L 1001.6 250.8166487334454 L 1030.4 246.3759138400893 L 1059.2 241.87886527960745 L 1088.0 235.74872037247474 L 1116.8 230.44719085305155 L 1145.6000000000001 222.18517140472443 L 1174.4 213.5128666673371 L 1203.2 207.648200476655 L 1232.0 204.1326186860815 L 1260.8 196.81988676930507 L 1289.6000000000001 191.95277696771018 L 1318.4 168.35735044196178 L 1347.2 159.15408827167323 L 1376.0 151.0288305863661 L 1404.8 142.56569089830361 L 1433.6000000000001 137.65835704876167 L 1462.4 134.03819273352576 L 1491.2 127.69888277706832 L 1520.0 120.00000000000011" fill="none" stroke="#2ca02c" stroke-width="2" />
<circle cx="80.0" cy="920.0" r="4" fill="#d62728" />
<circle cx="108.8" cy="863.2197339179229" r="4" fill="#d62728" />
<circle cx="137.6" cy="781.0420039620687" r="4" fill="#d62728" />
<circle cx="166.4" cy="752.6036020634937" r="4" fill="#d62728" />
<circle cx="195.2" cy="732.4674436611929" r="4" fill="#d62728" />
<circle cx="224.0" cy="722.4275212936054" r="4" fill="#d62728" />
<circle cx="252.8" cy="702.6614241324176" r="4" fill="#d62728" />
<circle cx="281.6" cy="681.8977705821426" r="4" fill="#d62728" />
<circle cx="310.4" cy="662.7833029976972" r="4" fill="#d62728" />
<circle cx="339.2" cy="646.7660871051759" r="4" fill="#d62728" />
<circle cx="368.0" cy="631.8912341743512" r="4" fill="#d62728" />
<circle cx="396.8" cy="622.5270758122745" r="4" fill="#d62728" />
<circle cx="425.6" cy="613.2514103556812" r="4" fill="#d62728" />
<circle cx="454.40000000000003" cy="599.985519342739" r="4" fill="#d62728" />
<circle cx="483.2" cy="580.3964079925183" r="4" fill="#d62728" />
<circle cx="512.0" cy="559.3190068682562" r="4" fill="#d62728" />
<circle cx="540.8" cy="545.7635027100953" r="4" fill="#d62728" />
<circle cx="569.6" cy="526.5283629818086" r="4" fill="#d62728" />
<circle cx="598.4" cy="518.4835533923956" r="4" fill="#d62728" />
<circle cx="627.2" cy="511.15473185644043" r="4" fill="#d62728" />
<circle cx="656.0" cy="495.4110394899591" r="4" fill="#d62728" />
<circle cx="684.8000000000001" cy="480.68903794133325" r="4" fill="#d62728" />
<circle cx="713.6" cy="466.8680550667217" r="4" fill="#d62728" />
<circle cx="742.4" cy="447.72945305350805" r="4" fill="#d62728" />
<circle cx="771.2" cy="434.97842985428844" r="4" fill="#d62728" />
<circle cx="800.0" cy="426.85317216898125" r="4" fill="#d62728" />
<circle cx="828.8000000000001" cy="417.68208923705043" r="4" fill="#d62728" />
<circle cx="857.6" cy="405.9125328077391" r="4" fill="#d62728" />
<circle cx="886.4" cy="396.3794334442847" r="4" fill="#d62728" />
<circle cx="915.2" cy="387.71517351648686" r="4" fill="#d62728" />
<circle cx="944.0" cy="373.0092615870399" r="4" fill="#d62728" />
<circle cx="972.8000000000001" cy="360.99031606045673" r="4" fill="#d62728" />
<circle cx="1001.6" cy="342.74468791166805" r="4" fill="#d62728" />
<circle cx="1030.4" cy="337.39488953470834" r="4" fill="#d62728" />
<circle cx="1059.2" cy="331.2969238659333" r="4" fill="#d62728" />
<circle cx="1088.0" cy="323.2682038956991" r="4" fill="#d62728" />
<circle cx="1116.8" cy="316.759952937864" r="4" fill="#d62728" />
<circle cx="1145.6000000000001" cy="307.14640547851536" r="4" fill="#d62728" />
<circle cx="1174.4" cy="296.91340768078203" r="4" fill="#d62728" />
<circle cx="1203.2" cy="292.01411864082945" r="4" fill="#d62728" />
<circle cx="1232.0" cy="286.6723650734592" r="4" fill="#d62728" />
<circle cx="1260.8" cy="277.85525376346254" r="4" fill="#d62728" />
<circle cx="1289.6000000000001" cy="270.5103426083284" r="4" fill="#d62728" />
<circle cx="1318.4" cy="246.0541214565128" r="4" fill="#d62728" />
<circle cx="1347.2" cy="236.60147018895248" r="4" fill="#d62728" />
<circle cx="1376.0" cy="226.54545820218618" r="4" fill="#d62728" />
<circle cx="1404.8" cy="219.39362247719805" r="4" fill="#d62728" />
<circle cx="1433.6000000000001" cy="212.10502498918981" r="4" fill="#d62728" />
<circle cx="1462.4" cy="207.51948352322438" r="4" fill="#d62728" />
<circle cx="1491.2" cy="199.1126575022878" r="4" fill="#d62728" />
<circle cx="1520.0" cy="198.6219241173336" r="4" fill="#d62728" />
<path d="M 80.0 920.0 L 108.8 863.2197339179229 L 137.6 781.0420039620687 L 166.4 752.6036020634937 L 195.2 732.4674436611929 L 224.0 722.4275212936054 L 252.8 702.6614241324176 L 281.6 681.8977705821426 L 310.4 662.7833029976972 L 339.2 646.7660871051759 L 368.0 631.8912341743512 L 396.8 622.5270758122745 L 425.6 613.2514103556812 L 454.40000000000003 599.985519342739 L 483.2 580.3964079925183 L 512.0 559.3190068682562 L 540.8 545.7635027100953 L 569.6 526.5283629818086 L 598.4 518.4835533923956 L 627.2 511.15473185644043 L 656.0 495.4110394899591 L 684.8000000000001 480.68903794133325 L 713.6 466.8680550667217 L 742.4 447.72945305350805 L 771.2 434.97842985428844 L 800.0 426.85317216898125 L 828.8000000000001 417.68208923705043 L 857.6 405.9125328077391 L 886.4 396.3794334442847 L 915.2 387.71517351648686 L 944.0 373.0092615870399 L 972.8000000000001 360.99031606045673 L 1001.6 342.74468791166805 L 1030.4 337.39488953470834 L 1059.2 331.2969238659333 L 1088.0 323.2682038956991 L 1116.8 316.759952937864 L 1145.6000000000001 307.14640547851536 L 1174.4 296.91340768078203 L 1203.2 292.01411864082945 L 1232.0 286.6723650734592 L 1260.8 277.85525376346254 L 1289.6000000000001 270.5103426083284 L 1318.4 246.0541214565128 L 1347.2 236.60147018895248 L 1376.0 226.54545820218618 L 1404.8 219.39362247719805 L 1433.6000000000001 212.10502498918981 L 1462.4 207.51948352322438 L 1491.2 199.1126575022878 L 1520.0 198.6219241173336" fill="none" stroke="#d62728" stroke-width="2" />
<circle cx="80.0" cy="920.0" r="4" fill="#9467bd" />
<circle cx="108.8" cy="869.2131170620355" r="4" fill="#9467bd" />
<circle cx="137.6" cy="786.7216395321943" r="4" fill="#9467bd" />
<circle cx="166.4" cy="753.2793660690044" r="4" fill="#9467bd" />
<circle cx="195.2" cy="733.0788491899882" r="4" fill="#9467bd" />
<circle cx="224.0" cy="724.0686624498456" r="4" fill="#9467bd" />
<circle cx="252.8" cy="704.1336242872801" r="4" fill="#9467bd" />
<circle cx="281.6" cy="682.412638395865" r="4" fill="#9467bd" />
<circle cx="310.4" cy="662.759168568929" r="4" fill="#9467bd" />
<circle cx="339.2" cy="646.5649668654405" r="4" fill="#9467bd" />
<circle cx="368.0" cy="631.8590549359935" r="4" fill="#9467bd" />
<circle cx="396.8" cy="622.4868517643274" r="4" fill="#9467bd" />
<circle cx="425.6" cy="613.1468278310188" r="4" fill="#9467bd" />
<circle cx="454.40000000000003" cy="599.2695312892813" r="4" fill="#9467bd" />
<circle cx="483.2" cy="579.82522651167" r="4" fill="#9467bd" />
<circle cx="512.0" cy="558.3375400983477" r="4" fill="#9467bd" />
<circle cx="540.8" cy="544.4119746990739" r="4" fill="#9467bd" />
<circle cx="569.6" cy="527.6948603722735" r="4" fill="#9467bd" />
<circle cx="598.4" cy="519.6420059732711" r="4" fill="#9467bd" />
<circle cx="627.2" cy="512.2327363414217" r="4" fill="#9467bd" />
<circle cx="656.0" cy="496.25574449684746" r="4" fill="#9467bd" />
<circle cx="684.8000000000001" cy="481.0751888016251" r="4" fill="#9467bd" />
<circle cx="713.6" cy="467.2702955461923" r="4" fill="#9467bd" />
<circle cx="742.4" cy="448.05929024667404" r="4" fill="#9467bd" />
<circle cx="771.2" cy="435.12323642689785" r="4" fill="#9467bd" />
<circle cx="800.0" cy="427.0221131703589" r="4" fill="#9467bd" />
<circle cx="828.8000000000001" cy="417.8510302384281" r="4" fill="#9467bd" />
<circle cx="857.6" cy="406.06538418993796" r="4" fill="#9467bd" />
<circle cx="886.4" cy="396.2185372524965" r="4" fill="#9467bd" />
<circle cx="915.2" cy="387.55427732469866" r="4" fill="#9467bd" />
<circle cx="944.0" cy="373.0494856349869" r="4" fill="#9467bd" />
<circle cx="972.8000000000001" cy="361.3040636344439" r="4" fill="#9467bd" />
<circle cx="1001.6" cy="342.9538529609928" r="4" fill="#9467bd" />
<circle cx="1030.4" cy="337.55578572649665" r="4" fill="#9467bd" />
<circle cx="1059.2" cy="331.7072091549934" r="4" fill="#9467bd" />
<circle cx="1088.0" cy="323.6543547559909" r="4" fill="#9467bd" />
<circle cx="1116.8" cy="317.12196936938756" r="4" fill="#9467bd" />
<circle cx="1145.6000000000001" cy="307.4360186237343" r="4" fill="#9467bd" />
<circle cx="1174.4" cy="296.5996601067949" r="4" fill="#9467bd" />
<circle cx="1203.2" cy="291.6762366380741" r="4" fill="#9467bd" />
<circle cx="1232.0" cy="286.33448307070387" r="4" fill="#9467bd" />
<circle cx="1260.8" cy="277.5093269511178" r="4" fill="#9467bd" />
<circle cx="1289.6000000000001" cy="270.0759228905001" r="4" fill="#9467bd" />
<circle cx="1318.4" cy="245.61165692909515" r="4" fill="#9467bd" />
<circle cx="1347.2" cy="236.1107368039983" r="4" fill="#9467bd" />
<circle cx="1376.0" cy="226.06276962682148" r="4" fill="#9467bd" />
<circle cx="1404.8" cy="218.91093390183323" r="4" fill="#9467bd" />
<circle cx="1433.6000000000001" cy="211.55797793710974" r="4" fill="#9467bd" />
<circle cx="1462.4" cy="206.98852609032315" r="4" fill="#9467bd" />
<circle cx="1491.2" cy="198.18750439950531" r="4" fill="#9467bd" />
<circle cx="1520.0" cy="188.68658427440846" r="4" fill="#9467bd" />
<path d="M 80.0 920.0 L 108.8 869.2131170620355 L 137.6 786.7216395321943 L 166.4 753.2793660690044 L 195.2 733.0788491899882 L 224.0 724.0686624498456 L 252.8 704.1336242872801 L 281.6 682.412638395865 L 310.4 662.759168568929 L 339.2 646.5649668654405 L 368.0 631.8590549359935 L 396.8 622.4868517643274 L 425.6 613.1468278310188 L 454.40000000000003 599.2695312892813 L 483.2 579.82522651167 L 512.0 558.3375400983477 L 540.8 544.4119746990739 L 569.6 527.6948603722735 L 598.4 519.6420059732711 L 627.2 512.2327363414217 L 656.0 496.25574449684746 L 684.8000000000001 481.0751888016251 L 713.6 467.2702955461923 L 742.4 448.05929024667404 L 771.2 435.12323642689785 L 800.0 427.0221131703589 L 828.8000000000001 417.8510302384281 L 857.6 406.06538418993796 L 886.4 396.2185372524965 L 915.2 387.55427732469866 L 944.0 373.0494856349869 L 972.8000000000001 361.3040636344439 L 1001.6 342.9538529609928 L 1030.4 337.55578572649665 L 1059.2 331.7072091549934 L 1088.0 323.6543547559909 L 1116.8 317.12196936938756 L 1145.6000000000001 307.4360186237343 L 1174.4 296.5996601067949 L 1203.2 291.6762366380741 L 1232.0 286.33448307070387 L 1260.8 277.5093269511178 L 1289.6000000000001 270.0759228905001 L 1318.4 245.61165692909515 L 1347.2 236.1107368039983 L 1376.0 226.06276962682148 L 1404.8 218.91093390183323 L 1433.6000000000001 211.55797793710974 L 1462.4 206.98852609032315 L 1491.2 198.18750439950531 L 1520.0 188.68658427440846" fill="none" stroke="#9467bd" stroke-width="2" />
<circle cx="80.0" cy="920.0" r="4" fill="#66ffbd" />
<circle cx="108.8" cy="666.6769908389731" r="4" fill="#66ffbd" />
<circle cx="137.6" cy="690.3689550797944" r="4" fill="#66ffbd" />
<circle cx="166.4" cy="704.8737467695062" r="4" fill="#66ffbd" />
<circle cx="195.2" cy="715.7342397152138" r="4" fill="#66ffbd" />
<circle cx="224.0" cy="718.4775197852036" r="4" fill="#66ffbd" />
<circle cx="252.8" cy="725.5971762718341" r="4" fill="#66ffbd" />
<circle cx="281.6" cy="730.8504369337209" r="4" fill="#66ffbd" />
<circle cx="310.4" cy="737.7207043230795" r="4" fill="#66ffbd" />
<circle cx="339.2" cy="743.1670404151122" r="4" fill="#66ffbd" />
<circle cx="368.0" cy="747.0124593988517" r="4" fill="#66ffbd" />
<circle cx="396.8" cy="750.6648029524451" r="4" fill="#66ffbd" />
<circle cx="425.6" cy="752.7484086361031" r="4" fill="#66ffbd" />
<circle cx="454.40000000000003" cy="758.5406715404805" r="4" fill="#66ffbd" />
<circle cx="483.2" cy="767.647395995696" r="4" fill="#66ffbd" />
<circle cx="512.0" cy="774.7348732439689" r="4" fill="#66ffbd" />
<circle cx="540.8" cy="779.5939382359744" r="4" fill="#66ffbd" />
<circle cx="569.6" cy="787.3250002514003" r="4" fill="#66ffbd" />
<circle cx="598.4" cy="788.2099293062357" r="4" fill="#66ffbd" />
<circle cx="627.2" cy="789.9315185583702" r="4" fill="#66ffbd" />
<circle cx="656.0" cy="792.9965910119365" r="4" fill="#66ffbd" />
<circle cx="684.8000000000001" cy="798.1452691491609" r="4" fill="#66ffbd" />
<circle cx="713.6" cy="799.5531108273082" r="4" fill="#66ffbd" />
<circle cx="742.4" cy="802.3527045644239" r="4" fill="#66ffbd" />
<circle cx="771.2" cy="805.337328922096" r="4" fill="#66ffbd" />
<circle cx="800.0" cy="801.2586104602636" r="4" fill="#66ffbd" />
<circle cx="828.8000000000001" cy="807.3968001769858" r="4" fill="#66ffbd" />
<circle cx="857.6" cy="808.8448659030802" r="4" fill="#66ffbd" />
<circle cx="886.4" cy="812.1754170730972" r="4" fill="#66ffbd" />
<circle cx="915.2" cy="814.2831571855234" r="4" fill="#66ffbd" />
<circle cx="944.0" cy="817.0103476363344" r="4" fill="#66ffbd" />
<circle cx="972.8000000000001" cy="818.0320384541899" r="4" fill="#66ffbd" />
<circle cx="1001.6" cy="824.5483342216144" r="4" fill="#66ffbd" />
<circle cx="1030.4" cy="825.4815321339863" r="4" fill="#66ffbd" />
<circle cx="1059.2" cy="827.0824492422795" r="4" fill="#66ffbd" />
<circle cx="1088.0" cy="829.0373379725069" r="4" fill="#66ffbd" />
<circle cx="1116.8" cy="830.2360146013294" r="4" fill="#66ffbd" />
<circle cx="1145.6000000000001" cy="831.6358114698872" r="4" fill="#66ffbd" />
<circle cx="1174.4" cy="833.7998652494393" r="4" fill="#66ffbd" />
<circle cx="1203.2" cy="832.858622527478" r="4" fill="#66ffbd" />
<circle cx="1232.0" cy="834.6847943042749" r="4" fill="#66ffbd" />
<circle cx="1260.8" cy="836.2133081262633" r="4" fill="#66ffbd" />
<circle cx="1289.6000000000001" cy="838.7635127661072" r="4" fill="#66ffbd" />
<circle cx="1318.4" cy="839.6967106784791" r="4" fill="#66ffbd" />
<circle cx="1347.2" cy="839.9702342045192" r="4" fill="#66ffbd" />
<circle cx="1376.0" cy="841.9009885059783" r="4" fill="#66ffbd" />
<circle cx="1404.8" cy="840.5816397333145" r="4" fill="#66ffbd" />
<circle cx="1433.6000000000001" cy="842.9629033717808" r="4" fill="#66ffbd" />
<circle cx="1462.4" cy="843.9363253320998" r="4" fill="#66ffbd" />
<circle cx="1491.2" cy="846.3739026376919" r="4" fill="#66ffbd" />
<circle cx="1520.0" cy="839.1737980551673" r="4" fill="#66ffbd" />
<path d="M 80.0 920.0 L 108.8 666.6769908389731 L 137.6 690.3689550797944 L 166.4 704.8737467695062 L 195.2 715.7342397152138 L 224.0 718.4775197852036 L 252.8 725.5971762718341 L 281.6 730.8504369337209 L 310.4 737.7207043230795 L 339.2 743.1670404151122 L 368.0 747.0124593988517 L 396.8 750.6648029524451 L 425.6 752.7484086361031 L 454.40000000000003 758.5406715404805 L 483.2 767.647395995696 L 512.0 774.7348732439689 L 540.8 779.5939382359744 L 569.6 787.3250002514003 L 598.4 788.2099293062357 L 627.2 789.9315185583702 L 656.0 792.9965910119365 L 684.8000000000001 798.1452691491609 L 713.6 799.5531108273082 L 742.4 802.3527045644239 L 771.2 805.337328922096 L 800.0 801.2586104602636 L 828.8000000000001 807.3968001769858 L 857.6 808.8448659030802 L 886.4 812.1754170730972 L 915.2 814.2831571855234 L 944.0 817.0103476363344 L 972.8000000000001 818.0320384541899 L 1001.6 824.5483342216144 L 1030.4 825.4815321339863 L 1059.2 827.0824492422795 L 1088.0 829.0373379725069 L 1116.8 830.2360146013294 L 1145.6000000000001 831.6358114698872 L 1174.4 833.7998652494393 L 1203.2 832.858622527478 L 1232.0 834.6847943042749 L 1260.8 836.2133081262633 L 1289.6000000000001 838.7635127661072 L 1318.4 839.6967106784791 L 1347.2 839.9702342045192 L 1376.0 841.9009885059783 L 1404.8 840.5816397333145 L 1433.6000000000001 842.9629033717808 L 1462.4 843.9363253320998 L 1491.2 846.3739026376919 L 1520.0 839.1737980551673" fill="none" stroke="#66ffbd" stroke-width="2" />
<text x="80.0" y="940" text-anchor="middle">08-06</text>
<text x="108.8" y="940" text-anchor="middle">08-07</text>
<text x="137.6" y="940" text-anchor="middle">08-08</text>
<text x="166.4" y="940" text-anchor="middle">08-09</text>
<text x="195.2" y="940" text-anchor="middle">08-10</text>
<text x="224.0" y="940" text-anchor="middle">08-11</text>
<text x="252.8" y="940" text-anchor="middle">08-12</text>
<text x="281.6" y="940" text-anchor="middle">08-13</text>
<text x="310.4" y="940" text-anchor="middle">08-14</text>
<text x="339.2" y="940" text-anchor="middle">08-15</text>
<text x="368.0" y="940" text-anchor="middle">08-16</text>
<text x="396.8" y="940" text-anchor="middle">08-17</text>
<text x="425.6" y="940" text-anchor="middle">08-18</text>
<text x="454.40000000000003" y="940" text-anchor="middle">08-19</text>
<text x="483.2" y="940" text-anchor="middle">08-20</text>
<text x="512.0" y="940" text-anchor="middle">08-21</text>
<text x="540.8" y="940" text-anchor="middle">08-22</text>
<text x="569.6" y="940" text-anchor="middle">08-23</text>
<text x="598.4" y="940" text-anchor="middle">08-24</text>
<text x="627.2" y="940" text-anchor="middle">08-25</text>
<text x="656.0" y="940" text-anchor="middle">08-26</text>
<text x="684.8000000000001" y="940" text-anchor="middle">08-27</text>
<text x="713.6" y="940" text-anchor="middle">08-28</text>
<text x="742.4" y="940" text-anchor="middle">08-29</text>
<text x="771.2" y="940" text-anchor="middle">08-30</text>
<text x="800.0" y="940" text-anchor="middle">08-31</text>
<text x="828.8000000000001" y="940" text-anchor="middle">09-01</text>
<text x="857.6" y="940" text-anchor="middle">09-02</text>
<text x="886.4" y="940" text-anchor="middle">09-03</text>
<text x="915.2" y="940" text-anchor="middle">09-04</text>
<text x="944.0" y="940" text-anchor="middle">09-05</text>
<text x="972.8000000000001" y="940" text-anchor="middle">09-06</text>
<text x="1001.6" y="940" text-anchor="middle">09-07</text>
<text x="1030.4" y="940" text-anchor="middle">09-08</text>
<text x="1059.2" y="940" text-anchor="middle">09-09</text>
<text x="1088.0" y="940" text-anchor="middle">09-10</text>
<text x="1116.8" y="940" text-anchor="middle">09-11</text>
<text x="1145.6000000000001" y="940" text-anchor="middle">09-12</text>
<text x="1174.4" y="940" text-anchor="middle">09-13</text>
<text x="1203.2" y="940" text-anchor="middle">09-14</text>
<text x="1232.0" y="940" text-anchor="middle">09-15</text>
<text x="1260.8" y="940" text-anchor="middle">09-16</text>
<text x="1289.6000000000001" y="940" text-anchor="middle">09-17</text>
<text x="1318.4" y="940" text-anchor="middle">09-18</text>
<text x="1347.2" y="940" text-anchor="middle">09-19</text>
<text x="1376.0" y="940" text-anchor="middle">09-20</text>
<text x="1404.8" y="940" text-anchor="middle">09-21</text>
<text x="1433.6000000000001" y="940" text-anchor="middle">09-22</text>
<text x="1462.4" y="940" text-anchor="middle">09-23</text>
<text x="1491.2" y="940" text-anchor="middle">09-24</text>
<text x="1520.0" y="940" text-anchor="middle">09-25</text>
<rect x="90" y="100" width="130" height="185" class="legend-box" />
<text x="100" y="120" class="legend-item">图例:</text>
<rect x="100" y="137" width="15" height="15" fill="#1f77b4" rx="3" />
<text x="120" y="145" class="legend-item">构件聚合数据</text>
<rect x="100" y="162" width="15" height="15" fill="#ff7f0e" rx="3" />
<text x="120" y="170" class="legend-item">构件基本信息</text>
<rect x="100" y="187" width="15" height="15" fill="#2ca02c" rx="3" />
<text x="120" y="195" class="legend-item">构件徽标</text>
<rect x="100" y="212" width="15" height="15" fill="#d62728" rx="3" />
<text x="120" y="220" class="legend-item">构件扩展元数据</text>
<rect x="100" y="237" width="15" height="15" fill="#9467bd" rx="3" />
<text x="120" y="245" class="legend-item">构件版本信息</text>
<rect x="100" y="262" width="15" height="15" fill="#66ffbd" rx="3" />
<text x="120" y="270" class="legend-item">数据量偏差</text>
<text x="1520" y="990" text-anchor="end" font-size="10" fill="#666">生成时间: 2025-09-25 02:42:11</text>
</svg>