<svg xmlns="http://www.w3.org/2000/svg" width="1600" height="1000" viewBox="0 0 1600 1000">
<style>
  text {
    font-family: Arial, sans-serif;
    font-size: 12px;
    fill: #333;
  }
  .axis-label { font-size: 14px; }
  .title { font-size: 18px; font-weight: bold; }
  .legend-item { font-size: 11px; }
  .legend-box { fill: white; fill-opacity: 0.85; stroke: #cccccc; stroke-width: 1; rx: 5; }
</style>
<text x="800.0" y="30" text-anchor="middle" class="title">Daily Data Growth Trend</text>
<text x="800.0" y="980" text-anchor="middle" class="axis-label">Date</text>
<g transform="rotate(-90)">
<text x="-500.0" y="20" text-anchor="middle" class="axis-label">Count</text>
</g>
<rect x="0" y="0" width="1600" height="1000" fill="#f8f8f8" />
<line x1="80" y1="920.0" x2="1520" y2="920.0" stroke="#e0e0e0" stroke-width="1" />
<text x="70" y="925.0" text-anchor="end">0</text>
<line x1="80" y1="752.0" x2="1520" y2="752.0" stroke="#e0e0e0" stroke-width="1" />
<text x="70" y="757.0" text-anchor="end">19.6k</text>
<line x1="80" y1="584.0" x2="1520" y2="584.0" stroke="#e0e0e0" stroke-width="1" />
<text x="70" y="589.0" text-anchor="end">39.2k</text>
<line x1="80" y1="416.0" x2="1520" y2="416.0" stroke="#e0e0e0" stroke-width="1" />
<text x="70" y="421.0" text-anchor="end">58.9k</text>
<line x1="80" y1="248.0" x2="1520" y2="248.0" stroke="#e0e0e0" stroke-width="1" />
<text x="70" y="253.0" text-anchor="end">78.5k</text>
<line x1="80" y1="80.0" x2="1520" y2="80.0" stroke="#e0e0e0" stroke-width="1" />
<text x="70" y="85.0" text-anchor="end">98.1k</text>
<line x1="80" y1="80" x2="80" y2="920" stroke="#333333" stroke-width="2" />
<line x1="80" y1="920" x2="1520" y2="920" stroke="#333333" stroke-width="2" />
<circle cx="80.0" cy="920.0" r="4" fill="#1f77b4" />
<circle cx="113.48837209302326" cy="878.147101635414" r="4" fill="#1f77b4" />
<circle cx="146.97674418604652" cy="789.449439164312" r="4" fill="#1f77b4" />
<circle cx="180.46511627906978" cy="753.7700145560408" r="4" fill="#1f77b4" />
<circle cx="213.95348837209303" cy="732.2955732511346" r="4" fill="#1f77b4" />
<circle cx="247.4418604651163" cy="721.5155407141023" r="4" fill="#1f77b4" />
<circle cx="280.93023255813955" cy="700.041099409196" r="4" fill="#1f77b4" />
<circle cx="314.4186046511628" cy="676.8627450980392" r="4" fill="#1f77b4" />
<circle cx="347.90697674418607" cy="655.4996146930388" r="4" fill="#1f77b4" />
<circle cx="381.3953488372093" cy="638.0837400462369" r="4" fill="#1f77b4" />
<circle cx="414.8837209302326" cy="622.2005308673688" r="4" fill="#1f77b4" />
<circle cx="448.37209302325584" cy="612.2167993835089" r="4" fill="#1f77b4" />
<circle cx="481.8604651162791" cy="602.335816422639" r="4" fill="#1f77b4" />
<circle cx="515.3488372093024" cy="587.4800924736708" r="4" fill="#1f77b4" />
<circle cx="548.8372093023256" cy="566.382395753061" r="4" fill="#1f77b4" />
<circle cx="582.3255813953489" cy="543.5636612723692" r="4" fill="#1f77b4" />
<circle cx="615.8139534883721" cy="528.4168165082627" r="4" fill="#1f77b4" />
<circle cx="649.3023255813954" cy="507.68730199503386" r="4" fill="#1f77b4" />
<circle cx="682.7906976744187" cy="499.124925079202" r="4" fill="#1f77b4" />
<circle cx="716.2790697674419" cy="491.2389759397209" r="4" fill="#1f77b4" />
<circle cx="749.7674418604652" cy="474.27690726945804" r="4" fill="#1f77b4" />
<circle cx="783.2558139534884" cy="457.59739703741764" r="4" fill="#1f77b4" />
<circle cx="816.7441860465117" cy="442.8272968576077" r="4" fill="#1f77b4" />
<circle cx="850.232558139535" cy="422.4402774210121" r="4" fill="#1f77b4" />
<circle cx="883.7209302325582" cy="408.40654165596374" r="4" fill="#1f77b4" />
<circle cx="917.2093023255815" cy="399.7585409709736" r="4" fill="#1f77b4" />
<circle cx="950.6976744186047" cy="390.0059936638411" r="4" fill="#1f77b4" />
<circle cx="984.186046511628" cy="377.4792362359791" r="4" fill="#1f77b4" />
<circle cx="1017.6744186046512" cy="366.6050175528727" r="4" fill="#1f77b4" />
<circle cx="1051.1627906976746" cy="357.3662128606902" r="4" fill="#1f77b4" />
<circle cx="1084.6511627906978" cy="341.67993835088623" r="4" fill="#1f77b4" />
<circle cx="1118.139534883721" cy="328.8791848617177" r="4" fill="#1f77b4" />
<circle cx="1151.6279069767443" cy="309.35696549362103" r="4" fill="#1f77b4" />
<circle cx="1185.1162790697676" cy="303.63729771384544" r="4" fill="#1f77b4" />
<circle cx="1218.6046511627908" cy="297.14701601164484" r="4" fill="#1f77b4" />
<circle cx="1252.093023255814" cy="288.5418272112339" r="4" fill="#1f77b4" />
<circle cx="1285.5813953488373" cy="281.62342666324173" r="4" fill="#1f77b4" />
<circle cx="1319.0697674418607" cy="271.34001198732767" r="4" fill="#1f77b4" />
<circle cx="1352.5581395348838" cy="259.8064902817023" r="4" fill="#1f77b4" />
<circle cx="1386.046511627907" cy="254.56631560921312" r="4" fill="#1f77b4" />
<circle cx="1419.5348837209303" cy="248.8808973371008" r="4" fill="#1f77b4" />
<circle cx="1453.0232558139537" cy="239.4708451066016" r="4" fill="#1f77b4" />
<circle cx="1486.5116279069769" cy="231.57633359020463" r="4" fill="#1f77b4" />
<circle cx="1520.0" cy="205.46964637383337" r="4" fill="#1f77b4" />
<path d="M 80.0 920.0 L 113.48837209302326 878.147101635414 L 146.97674418604652 789.449439164312 L 180.46511627906978 753.7700145560408 L 213.95348837209303 732.2955732511346 L 247.4418604651163 721.5155407141023 L 280.93023255813955 700.041099409196 L 314.4186046511628 676.8627450980392 L 347.90697674418607 655.4996146930388 L 381.3953488372093 638.0837400462369 L 414.8837209302326 622.2005308673688 L 448.37209302325584 612.2167993835089 L 481.8604651162791 602.335816422639 L 515.3488372093024 587.4800924736708 L 548.8372093023256 566.382395753061 L 582.3255813953489 543.5636612723692 L 615.8139534883721 528.4168165082627 L 649.3023255813954 507.68730199503386 L 682.7906976744187 499.124925079202 L 716.2790697674419 491.2389759397209 L 749.7674418604652 474.27690726945804 L 783.2558139534884 457.59739703741764 L 816.7441860465117 442.8272968576077 L 850.232558139535 422.4402774210121 L 883.7209302325582 408.40654165596374 L 917.2093023255815 399.7585409709736 L 950.6976744186047 390.0059936638411 L 984.186046511628 377.4792362359791 L 1017.6744186046512 366.6050175528727 L 1051.1627906976746 357.3662128606902 L 1084.6511627906978 341.67993835088623 L 1118.139534883721 328.8791848617177 L 1151.6279069767443 309.35696549362103 L 1185.1162790697676 303.63729771384544 L 1218.6046511627908 297.14701601164484 L 1252.093023255814 288.5418272112339 L 1285.5813953488373 281.62342666324173 L 1319.0697674418607 271.34001198732767 L 1352.5581395348838 259.8064902817023 L 1386.046511627907 254.56631560921312 L 1419.5348837209303 248.8808973371008 L 1453.0232558139537 239.4708451066016 L 1486.5116279069769 231.57633359020463 L 1520.0 205.46964637383337" fill="none" stroke="#1f77b4" stroke-width="2" />
<circle cx="80.0" cy="920.0" r="4" fill="#ff7f0e" />
<circle cx="113.48837209302326" cy="614.5286411507834" r="4" fill="#ff7f0e" />
<circle cx="146.97674418604652" cy="550.7988697662472" r="4" fill="#ff7f0e" />
<circle cx="180.46511627906978" cy="530.3604760681565" r="4" fill="#ff7f0e" />
<circle cx="213.95348837209303" cy="520.2911208151384" r="4" fill="#ff7f0e" />
<circle cx="247.4418604651163" cy="512.4137340525731" r="4" fill="#ff7f0e" />
<circle cx="280.93023255813955" cy="498.3714359106088" r="4" fill="#ff7f0e" />
<circle cx="314.4186046511628" cy="480.55312954876274" r="4" fill="#ff7f0e" />
<circle cx="347.90697674418607" cy="466.3395838684819" r="4" fill="#ff7f0e" />
<circle cx="381.3953488372093" cy="454.626252247624" r="4" fill="#ff7f0e" />
<circle cx="414.8837209302326" cy="442.7759225961127" r="4" fill="#ff7f0e" />
<circle cx="448.37209302325584" cy="436.5853240859663" r="4" fill="#ff7f0e" />
<circle cx="481.8604651162791" cy="428.9219967462968" r="4" fill="#ff7f0e" />
<circle cx="515.3488372093024" cy="420.20549704598" r="4" fill="#ff7f0e" />
<circle cx="548.8372093023256" cy="408.543539686617" r="4" fill="#ff7f0e" />
<circle cx="582.3255813953489" cy="392.93432656905566" r="4" fill="#ff7f0e" />
<circle cx="615.8139534883721" cy="382.9163455775324" r="4" fill="#ff7f0e" />
<circle cx="649.3023255813954" cy="370.406712903502" r="4" fill="#ff7f0e" />
<circle cx="682.7906976744187" cy="362.79475982532756" r="4" fill="#ff7f0e" />
<circle cx="716.2790697674419" cy="356.7240345920028" r="4" fill="#ff7f0e" />
<circle cx="749.7674418604652" cy="342.9300453805977" r="4" fill="#ff7f0e" />
<circle cx="783.2558139534884" cy="331.7047692439421" r="4" fill="#ff7f0e" />
<circle cx="816.7441860465117" cy="318.4159602705712" r="4" fill="#ff7f0e" />
<circle cx="850.232558139535" cy="300.98296086993753" r="4" fill="#ff7f0e" />
<circle cx="883.7209302325582" cy="290.09161743299944" r="4" fill="#ff7f0e" />
<circle cx="917.2093023255815" cy="277.09392927476677" r="4" fill="#ff7f0e" />
<circle cx="950.6976744186047" cy="273.8659131774981" r="4" fill="#ff7f0e" />
<circle cx="984.186046511628" cy="262.8718212175701" r="4" fill="#ff7f0e" />
<circle cx="1017.6744186046512" cy="255.51673944687047" r="4" fill="#ff7f0e" />
<circle cx="1051.1627906976746" cy="248.47846562205677" r="4" fill="#ff7f0e" />
<circle cx="1084.6511627906978" cy="235.39515369466562" r="4" fill="#ff7f0e" />
<circle cx="1118.139534883721" cy="223.6475725661444" r="4" fill="#ff7f0e" />
<circle cx="1151.6279069767443" cy="210.70125866940668" r="4" fill="#ff7f0e" />
<circle cx="1185.1162790697676" cy="205.97482661186746" r="4" fill="#ff7f0e" />
<circle cx="1218.6046511627908" cy="201.1285212775067" r="4" fill="#ff7f0e" />
<circle cx="1252.093023255814" cy="194.59542769072698" r="4" fill="#ff7f0e" />
<circle cx="1285.5813953488373" cy="188.92713417244636" r="4" fill="#ff7f0e" />
<circle cx="1319.0697674418607" cy="180.13357307988701" r="4" fill="#ff7f0e" />
<circle cx="1352.5581395348838" cy="170.86051888004113" r="4" fill="#ff7f0e" />
<circle cx="1386.046511627907" cy="164.6099837314839" r="4" fill="#ff7f0e" />
<circle cx="1419.5348837209303" cy="160.86822501926542" r="4" fill="#ff7f0e" />
<circle cx="1453.0232558139537" cy="153.0764620258584" r="4" fill="#ff7f0e" />
<circle cx="1486.5116279069769" cy="147.81060022262182" r="4" fill="#ff7f0e" />
<circle cx="1520.0" cy="122.47452692867546" r="4" fill="#ff7f0e" />
<path d="M 80.0 920.0 L 113.48837209302326 614.5286411507834 L 146.97674418604652 550.7988697662472 L 180.46511627906978 530.3604760681565 L 213.95348837209303 520.2911208151384 L 247.4418604651163 512.4137340525731 L 280.93023255813955 498.3714359106088 L 314.4186046511628 480.55312954876274 L 347.90697674418607 466.3395838684819 L 381.3953488372093 454.626252247624 L 414.8837209302326 442.7759225961127 L 448.37209302325584 436.5853240859663 L 481.8604651162791 428.9219967462968 L 515.3488372093024 420.20549704598 L 548.8372093023256 408.543539686617 L 582.3255813953489 392.93432656905566 L 615.8139534883721 382.9163455775324 L 649.3023255813954 370.406712903502 L 682.7906976744187 362.79475982532756 L 716.2790697674419 356.7240345920028 L 749.7674418604652 342.9300453805977 L 783.2558139534884 331.7047692439421 L 816.7441860465117 318.4159602705712 L 850.232558139535 300.98296086993753 L 883.7209302325582 290.09161743299944 L 917.2093023255815 277.09392927476677 L 950.6976744186047 273.8659131774981 L 984.186046511628 262.8718212175701 L 1017.6744186046512 255.51673944687047 L 1051.1627906976746 248.47846562205677 L 1084.6511627906978 235.39515369466562 L 1118.139534883721 223.6475725661444 L 1151.6279069767443 210.70125866940668 L 1185.1162790697676 205.97482661186746 L 1218.6046511627908 201.1285212775067 L 1252.093023255814 194.59542769072698 L 1285.5813953488373 188.92713417244636 L 1319.0697674418607 180.13357307988701 L 1352.5581395348838 170.86051888004113 L 1386.046511627907 164.6099837314839 L 1419.5348837209303 160.86822501926542 L 1453.0232558139537 153.0764620258584 L 1486.5116279069769 147.81060022262182 L 1520.0 122.47452692867546" fill="none" stroke="#ff7f0e" stroke-width="2" />
<circle cx="80.0" cy="920.0" r="4" fill="#2ca02c" />
<circle cx="113.48837209302326" cy="608.5264149327854" r="4" fill="#2ca02c" />
<circle cx="146.97674418604652" cy="545.0449524788081" r="4" fill="#2ca02c" />
<circle cx="180.46511627906978" cy="524.8034934497816" r="4" fill="#2ca02c" />
<circle cx="213.95348837209303" cy="514.8882609812484" r="4" fill="#2ca02c" />
<circle cx="247.4418604651163" cy="507.0279989725148" r="4" fill="#2ca02c" />
<circle cx="280.93023255813955" cy="493.13126123811975" r="4" fill="#2ca02c" />
<circle cx="314.4186046511628" cy="475.5441390530011" r="4" fill="#2ca02c" />
<circle cx="347.90697674418607" cy="461.4932785341211" r="4" fill="#2ca02c" />
<circle cx="381.3953488372093" cy="449.8741330593373" r="4" fill="#2ca02c" />
<circle cx="414.8837209302326" cy="438.08374004623687" r="4" fill="#2ca02c" />
<circle cx="448.37209302325584" cy="431.9873276821646" r="4" fill="#2ca02c" />
<circle cx="481.8604651162791" cy="424.3240003424951" r="4" fill="#2ca02c" />
<circle cx="515.3488372093024" cy="415.6331877729258" r="4" fill="#2ca02c" />
<circle cx="548.8372093023256" cy="404.2281017210378" r="4" fill="#2ca02c" />
<circle cx="582.3255813953489" cy="388.9528213031938" r="4" fill="#2ca02c" />
<circle cx="615.8139534883721" cy="378.97765219624966" r="4" fill="#2ca02c" />
<circle cx="649.3023255813954" cy="366.4765818991352" r="4" fill="#2ca02c" />
<circle cx="682.7906976744187" cy="358.8560664440449" r="4" fill="#2ca02c" />
<circle cx="716.2790697674419" cy="352.80246596455174" r="4" fill="#2ca02c" />
<circle cx="749.7674418604652" cy="339.10266289922083" r="4" fill="#2ca02c" />
<circle cx="783.2558139534884" cy="327.9030738933128" r="4" fill="#2ca02c" />
<circle cx="816.7441860465117" cy="314.63138967377347" r="4" fill="#2ca02c" />
<circle cx="850.232558139535" cy="297.22407740388735" r="4" fill="#2ca02c" />
<circle cx="883.7209302325582" cy="286.36698347461254" r="4" fill="#2ca02c" />
<circle cx="917.2093023255815" cy="273.3778576932957" r="4" fill="#2ca02c" />
<circle cx="950.6976744186047" cy="270.1584039729429" r="4" fill="#2ca02c" />
<circle cx="984.186046511628" cy="259.1728743899307" r="4" fill="#2ca02c" />
<circle cx="1017.6744186046512" cy="251.84347974997866" r="4" fill="#2ca02c" />
<circle cx="1051.1627906976746" cy="244.84801780974408" r="4" fill="#2ca02c" />
<circle cx="1084.6511627906978" cy="232.06438907440713" r="4" fill="#2ca02c" />
<circle cx="1118.139534883721" cy="220.35105745354917" r="4" fill="#2ca02c" />
<circle cx="1151.6279069767443" cy="207.76436338727638" r="4" fill="#2ca02c" />
<circle cx="1185.1162790697676" cy="203.03793132973715" r="4" fill="#2ca02c" />
<circle cx="1218.6046511627908" cy="198.25156263378722" r="4" fill="#2ca02c" />
<circle cx="1252.093023255814" cy="191.72703142392334" r="4" fill="#2ca02c" />
<circle cx="1285.5813953488373" cy="186.08442503639014" r="4" fill="#2ca02c" />
<circle cx="1319.0697674418607" cy="177.2908639438308" r="4" fill="#2ca02c" />
<circle cx="1352.5581395348838" cy="168.06062162856415" r="4" fill="#2ca02c" />
<circle cx="1386.046511627907" cy="161.81864885692278" r="4" fill="#2ca02c" />
<circle cx="1419.5348837209303" cy="158.07689014470418" r="4" fill="#2ca02c" />
<circle cx="1453.0232558139537" cy="150.29368952821312" r="4" fill="#2ca02c" />
<circle cx="1486.5116279069769" cy="145.11345149413478" r="4" fill="#2ca02c" />
<circle cx="1520.0" cy="120.0" r="4" fill="#2ca02c" />
<path d="M 80.0 920.0 L 113.48837209302326 608.5264149327854 L 146.97674418604652 545.0449524788081 L 180.46511627906978 524.8034934497816 L 213.95348837209303 514.8882609812484 L 247.4418604651163 507.0279989725148 L 280.93023255813955 493.13126123811975 L 314.4186046511628 475.5441390530011 L 347.90697674418607 461.4932785341211 L 381.3953488372093 449.8741330593373 L 414.8837209302326 438.08374004623687 L 448.37209302325584 431.9873276821646 L 481.8604651162791 424.3240003424951 L 515.3488372093024 415.6331877729258 L 548.8372093023256 404.2281017210378 L 582.3255813953489 388.9528213031938 L 615.8139534883721 378.97765219624966 L 649.3023255813954 366.4765818991352 L 682.7906976744187 358.8560664440449 L 716.2790697674419 352.80246596455174 L 749.7674418604652 339.10266289922083 L 783.2558139534884 327.9030738933128 L 816.7441860465117 314.63138967377347 L 850.232558139535 297.22407740388735 L 883.7209302325582 286.36698347461254 L 917.2093023255815 273.3778576932957 L 950.6976744186047 270.1584039729429 L 984.186046511628 259.1728743899307 L 1017.6744186046512 251.84347974997866 L 1051.1627906976746 244.84801780974408 L 1084.6511627906978 232.06438907440713 L 1118.139534883721 220.35105745354917 L 1151.6279069767443 207.76436338727638 L 1185.1162790697676 203.03793132973715 L 1218.6046511627908 198.25156263378722 L 1252.093023255814 191.72703142392334 L 1285.5813953488373 186.08442503639014 L 1319.0697674418607 177.2908639438308 L 1352.5581395348838 168.06062162856415 L 1386.046511627907 161.81864885692278 L 1419.5348837209303 158.07689014470418 L 1453.0232558139537 150.29368952821312 L 1486.5116279069769 145.11345149413478 L 1520.0 120.0" fill="none" stroke="#2ca02c" stroke-width="2" />
<circle cx="80.0" cy="920.0" r="4" fill="#d62728" />
<circle cx="113.48837209302326" cy="859.5667437280589" r="4" fill="#d62728" />
<circle cx="146.97674418604652" cy="772.1020635328367" r="4" fill="#d62728" />
<circle cx="180.46511627906978" cy="741.8340611353713" r="4" fill="#d62728" />
<circle cx="213.95348837209303" cy="720.4024317150441" r="4" fill="#d62728" />
<circle cx="247.4418604651163" cy="709.7165853240859" r="4" fill="#d62728" />
<circle cx="280.93023255813955" cy="688.6788252418871" r="4" fill="#d62728" />
<circle cx="314.4186046511628" cy="666.5793304221252" r="4" fill="#d62728" />
<circle cx="347.90697674418607" cy="646.2351228701087" r="4" fill="#d62728" />
<circle cx="381.3953488372093" cy="629.1874304306875" r="4" fill="#d62728" />
<circle cx="414.8837209302326" cy="613.3555955133145" r="4" fill="#d62728" />
<circle cx="448.37209302325584" cy="603.3889887832863" r="4" fill="#d62728" />
<circle cx="481.8604651162791" cy="593.5165681993321" r="4" fill="#d62728" />
<circle cx="515.3488372093024" cy="579.3972086651254" r="4" fill="#d62728" />
<circle cx="548.8372093023256" cy="558.5478208750749" r="4" fill="#d62728" />
<circle cx="582.3255813953489" cy="536.1143933555956" r="4" fill="#d62728" />
<circle cx="615.8139534883721" cy="521.6867882524189" r="4" fill="#d62728" />
<circle cx="649.3023255813954" cy="501.21414504666495" r="4" fill="#d62728" />
<circle cx="682.7906976744187" cy="492.65176813083315" r="4" fill="#d62728" />
<circle cx="716.2790697674419" cy="484.85144276051034" r="4" fill="#d62728" />
<circle cx="749.7674418604652" cy="468.0948711362274" r="4" fill="#d62728" />
<circle cx="783.2558139534884" cy="452.4257213802552" r="4" fill="#d62728" />
<circle cx="816.7441860465117" cy="437.7155578388561" r="4" fill="#d62728" />
<circle cx="850.232558139535" cy="417.34566315609214" r="4" fill="#d62728" />
<circle cx="883.7209302325582" cy="403.77429574449866" r="4" fill="#d62728" />
<circle cx="917.2093023255815" cy="395.1262950595086" r="4" fill="#d62728" />
<circle cx="950.6976744186047" cy="385.3651853754602" r="4" fill="#d62728" />
<circle cx="984.186046511628" cy="372.83842794759823" r="4" fill="#d62728" />
<circle cx="1017.6744186046512" cy="362.6920113023375" r="4" fill="#d62728" />
<circle cx="1051.1627906976746" cy="353.4703313639867" r="4" fill="#d62728" />
<circle cx="1084.6511627906978" cy="337.8183063618461" r="4" fill="#d62728" />
<circle cx="1118.139534883721" cy="325.0261152495933" r="4" fill="#d62728" />
<circle cx="1151.6279069767443" cy="305.6066444044867" r="4" fill="#d62728" />
<circle cx="1185.1162790697676" cy="299.91266375545854" r="4" fill="#d62728" />
<circle cx="1218.6046511627908" cy="293.42238205325805" r="4" fill="#d62728" />
<circle cx="1252.093023255814" cy="284.8771298912578" r="4" fill="#d62728" />
<circle cx="1285.5813953488373" cy="277.9501669663499" r="4" fill="#d62728" />
<circle cx="1319.0697674418607" cy="267.7181265519308" r="4" fill="#d62728" />
<circle cx="1352.5581395348838" cy="256.82678311499274" r="4" fill="#d62728" />
<circle cx="1386.046511627907" cy="251.61229557325123" r="4" fill="#d62728" />
<circle cx="1419.5348837209303" cy="245.9268773011388" r="4" fill="#d62728" />
<circle cx="1453.0232558139537" cy="236.54251220138713" r="4" fill="#d62728" />
<circle cx="1486.5116279069769" cy="228.72506207723268" r="4" fill="#d62728" />
<circle cx="1520.0" cy="202.69543625310394" r="4" fill="#d62728" />
<path d="M 80.0 920.0 L 113.48837209302326 859.5667437280589 L 146.97674418604652 772.1020635328367 L 180.46511627906978 741.8340611353713 L 213.95348837209303 720.4024317150441 L 247.4418604651163 709.7165853240859 L 280.93023255813955 688.6788252418871 L 314.4186046511628 666.5793304221252 L 347.90697674418607 646.2351228701087 L 381.3953488372093 629.1874304306875 L 414.8837209302326 613.3555955133145 L 448.37209302325584 603.3889887832863 L 481.8604651162791 593.5165681993321 L 515.3488372093024 579.3972086651254 L 548.8372093023256 558.5478208750749 L 582.3255813953489 536.1143933555956 L 615.8139534883721 521.6867882524189 L 649.3023255813954 501.21414504666495 L 682.7906976744187 492.65176813083315 L 716.2790697674419 484.85144276051034 L 749.7674418604652 468.0948711362274 L 783.2558139534884 452.4257213802552 L 816.7441860465117 437.7155578388561 L 850.232558139535 417.34566315609214 L 883.7209302325582 403.77429574449866 L 917.2093023255815 395.1262950595086 L 950.6976744186047 385.3651853754602 L 984.186046511628 372.83842794759823 L 1017.6744186046512 362.6920113023375 L 1051.1627906976746 353.4703313639867 L 1084.6511627906978 337.8183063618461 L 1118.139534883721 325.0261152495933 L 1151.6279069767443 305.6066444044867 L 1185.1162790697676 299.91266375545854 L 1218.6046511627908 293.42238205325805 L 1252.093023255814 284.8771298912578 L 1285.5813953488373 277.9501669663499 L 1319.0697674418607 267.7181265519308 L 1352.5581395348838 256.82678311499274 L 1386.046511627907 251.61229557325123 L 1419.5348837209303 245.9268773011388 L 1453.0232558139537 236.54251220138713 L 1486.5116279069769 228.72506207723268 L 1520.0 202.69543625310394" fill="none" stroke="#d62728" stroke-width="2" />
<circle cx="80.0" cy="920.0" r="4" fill="#9467bd" />
<circle cx="113.48837209302326" cy="865.9457145303536" r="4" fill="#9467bd" />
<circle cx="146.97674418604652" cy="778.147101635414" r="4" fill="#9467bd" />
<circle cx="180.46511627906978" cy="742.5533007963011" r="4" fill="#9467bd" />
<circle cx="213.95348837209303" cy="721.0531723606473" r="4" fill="#9467bd" />
<circle cx="247.4418604651163" cy="711.4633102149157" r="4" fill="#9467bd" />
<circle cx="280.93023255813955" cy="690.2457402174844" r="4" fill="#9467bd" />
<circle cx="314.4186046511628" cy="667.1273225447385" r="4" fill="#9467bd" />
<circle cx="347.90697674418607" cy="646.2094357393612" r="4" fill="#9467bd" />
<circle cx="381.3953488372093" cy="628.9733710077918" r="4" fill="#9467bd" />
<circle cx="414.8837209302326" cy="613.3213460056512" r="4" fill="#9467bd" />
<circle cx="448.37209302325584" cy="603.3461768987071" r="4" fill="#9467bd" />
<circle cx="481.8604651162791" cy="593.4052572994264" r="4" fill="#9467bd" />
<circle cx="515.3488372093024" cy="578.6351571196165" r="4" fill="#9467bd" />
<circle cx="548.8372093023256" cy="557.939892114051" r="4" fill="#9467bd" />
<circle cx="582.3255813953489" cy="535.0697833718641" r="4" fill="#9467bd" />
<circle cx="615.8139534883721" cy="520.2483089305591" r="4" fill="#9467bd" />
<circle cx="649.3023255813954" cy="502.4556896994606" r="4" fill="#9467bd" />
<circle cx="682.7906976744187" cy="493.88475040671295" r="4" fill="#9467bd" />
<circle cx="716.2790697674419" cy="485.9988012672318" r="4" fill="#9467bd" />
<circle cx="749.7674418604652" cy="468.9939207123898" r="4" fill="#9467bd" />
<circle cx="783.2558139534884" cy="452.83671547221513" r="4" fill="#9467bd" />
<circle cx="816.7441860465117" cy="438.1436766846477" r="4" fill="#9467bd" />
<circle cx="850.232558139535" cy="417.69672060964126" r="4" fill="#9467bd" />
<circle cx="883.7209302325582" cy="403.9284185289837" r="4" fill="#9467bd" />
<circle cx="917.2093023255815" cy="395.30610497474106" r="4" fill="#9467bd" />
<circle cx="950.6976744186047" cy="385.5449952906928" r="4" fill="#9467bd" />
<circle cx="984.186046511628" cy="373.0011131089991" r="4" fill="#9467bd" />
<circle cx="1017.6744186046512" cy="362.5207637640209" r="4" fill="#9467bd" />
<circle cx="1051.1627906976746" cy="353.2990838256701" r="4" fill="#9467bd" />
<circle cx="1084.6511627906978" cy="337.86111824642524" r="4" fill="#9467bd" />
<circle cx="1118.139534883721" cy="325.3600479493108" r="4" fill="#9467bd" />
<circle cx="1151.6279069767443" cy="305.8292662042984" r="4" fill="#9467bd" />
<circle cx="1185.1162790697676" cy="300.08391129377515" r="4" fill="#9467bd" />
<circle cx="1218.6046511627908" cy="293.85906327596547" r="4" fill="#9467bd" />
<circle cx="1252.093023255814" cy="285.2881239832178" r="4" fill="#9467bd" />
<circle cx="1285.5813953488373" cy="278.33547392756236" r="4" fill="#9467bd" />
<circle cx="1319.0697674418607" cy="268.02637212090076" r="4" fill="#9467bd" />
<circle cx="1352.5581395348838" cy="256.49285041527537" r="4" fill="#9467bd" />
<circle cx="1386.046511627907" cy="251.2526757427862" r="4" fill="#9467bd" />
<circle cx="1419.5348837209303" cy="245.5672574706739" r="4" fill="#9467bd" />
<circle cx="1453.0232558139537" cy="236.17432999400637" r="4" fill="#9467bd" />
<circle cx="1486.5116279069769" cy="228.26269372377772" r="4" fill="#9467bd" />
<circle cx="1520.0" cy="202.22450552273312" r="4" fill="#9467bd" />
<path d="M 80.0 920.0 L 113.48837209302326 865.9457145303536 L 146.97674418604652 778.147101635414 L 180.46511627906978 742.5533007963011 L 213.95348837209303 721.0531723606473 L 247.4418604651163 711.4633102149157 L 280.93023255813955 690.2457402174844 L 314.4186046511628 667.1273225447385 L 347.90697674418607 646.2094357393612 L 381.3953488372093 628.9733710077918 L 414.8837209302326 613.3213460056512 L 448.37209302325584 603.3461768987071 L 481.8604651162791 593.4052572994264 L 515.3488372093024 578.6351571196165 L 548.8372093023256 557.939892114051 L 582.3255813953489 535.0697833718641 L 615.8139534883721 520.2483089305591 L 649.3023255813954 502.4556896994606 L 682.7906976744187 493.88475040671295 L 716.2790697674419 485.9988012672318 L 749.7674418604652 468.9939207123898 L 783.2558139534884 452.83671547221513 L 816.7441860465117 438.1436766846477 L 850.232558139535 417.69672060964126 L 883.7209302325582 403.9284185289837 L 917.2093023255815 395.30610497474106 L 950.6976744186047 385.5449952906928 L 984.186046511628 373.0011131089991 L 1017.6744186046512 362.5207637640209 L 1051.1627906976746 353.2990838256701 L 1084.6511627906978 337.86111824642524 L 1118.139534883721 325.3600479493108 L 1151.6279069767443 305.8292662042984 L 1185.1162790697676 300.08391129377515 L 1218.6046511627908 293.85906327596547 L 1252.093023255814 285.2881239832178 L 1285.5813953488373 278.33547392756236 L 1319.0697674418607 268.02637212090076 L 1352.5581395348838 256.49285041527537 L 1386.046511627907 251.2526757427862 L 1419.5348837209303 245.5672574706739 L 1453.0232558139537 236.17432999400637 L 1486.5116279069769 228.26269372377772 L 1520.0 202.22450552273312" fill="none" stroke="#9467bd" stroke-width="2" />
<circle cx="80.0" cy="920.0" r="4" fill="#66ffbd" />
<circle cx="113.48837209302326" cy="650.3793132973714" r="4" fill="#66ffbd" />
<circle cx="146.97674418604652" cy="675.5955133144961" r="4" fill="#66ffbd" />
<circle cx="180.46511627906978" cy="691.033478893741" r="4" fill="#66ffbd" />
<circle cx="213.95348837209303" cy="702.5926877301139" r="4" fill="#66ffbd" />
<circle cx="247.4418604651163" cy="705.5124582584126" r="4" fill="#66ffbd" />
<circle cx="280.93023255813955" cy="713.0901618289238" r="4" fill="#66ffbd" />
<circle cx="314.4186046511628" cy="718.6813939549619" r="4" fill="#66ffbd" />
<circle cx="347.90697674418607" cy="725.9936638410823" r="4" fill="#66ffbd" />
<circle cx="381.3953488372093" cy="731.7903930131005" r="4" fill="#66ffbd" />
<circle cx="414.8837209302326" cy="735.8832091788681" r="4" fill="#66ffbd" />
<circle cx="448.37209302325584" cy="739.7705282986557" r="4" fill="#66ffbd" />
<circle cx="481.8604651162791" cy="741.9881839198562" r="4" fill="#66ffbd" />
<circle cx="515.3488372093024" cy="748.153095299255" r="4" fill="#66ffbd" />
<circle cx="548.8372093023256" cy="757.8457059679768" r="4" fill="#66ffbd" />
<circle cx="582.3255813953489" cy="765.3891600308245" r="4" fill="#66ffbd" />
<circle cx="615.8139534883721" cy="770.560835687987" r="4" fill="#66ffbd" />
<circle cx="649.3023255813954" cy="778.7892799041014" r="4" fill="#66ffbd" />
<circle cx="682.7906976744187" cy="779.7311413648429" r="4" fill="#66ffbd" />
<circle cx="716.2790697674419" cy="781.5634900248309" r="4" fill="#66ffbd" />
<circle cx="749.7674418604652" cy="784.8257556297629" r="4" fill="#66ffbd" />
<circle cx="783.2558139534884" cy="790.3056768558952" r="4" fill="#66ffbd" />
<circle cx="816.7441860465117" cy="791.8040928161657" r="4" fill="#66ffbd" />
<circle cx="850.232558139535" cy="794.7837999828753" r="4" fill="#66ffbd" />
<circle cx="883.7209302325582" cy="797.9604418186489" r="4" fill="#66ffbd" />
<circle cx="917.2093023255815" cy="793.6193167223221" r="4" fill="#66ffbd" />
<circle cx="950.6976744186047" cy="800.1524103091018" r="4" fill="#66ffbd" />
<circle cx="984.186046511628" cy="801.6936381539515" r="4" fill="#66ffbd" />
<circle cx="1017.6744186046512" cy="805.238462197106" r="4" fill="#66ffbd" />
<circle cx="1051.1627906976746" cy="807.4818049490539" r="4" fill="#66ffbd" />
<circle cx="1084.6511627906978" cy="810.3844507235209" r="4" fill="#66ffbd" />
<circle cx="1118.139534883721" cy="811.4718725918315" r="4" fill="#66ffbd" />
<circle cx="1151.6279069767443" cy="818.4073978936553" r="4" fill="#66ffbd" />
<circle cx="1185.1162790697676" cy="819.4006336158918" r="4" fill="#66ffbd" />
<circle cx="1218.6046511627908" cy="821.1045466221423" r="4" fill="#66ffbd" />
<circle cx="1252.093023255814" cy="823.1852042126894" r="4" fill="#66ffbd" />
<circle cx="1285.5813953488373" cy="824.4609983731484" r="4" fill="#66ffbd" />
<circle cx="1319.0697674418607" cy="825.9508519565031" r="4" fill="#66ffbd" />
<circle cx="1352.5581395348838" cy="828.2541313468619" r="4" fill="#66ffbd" />
<circle cx="1386.046511627907" cy="827.2523332477095" r="4" fill="#66ffbd" />
<circle cx="1419.5348837209303" cy="829.1959928076034" r="4" fill="#66ffbd" />
<circle cx="1453.0232558139537" cy="830.8228444216114" r="4" fill="#66ffbd" />
<circle cx="1486.5116279069769" cy="833.5371179039302" r="4" fill="#66ffbd" />
<circle cx="1520.0" cy="834.5303536261666" r="4" fill="#66ffbd" />
<path d="M 80.0 920.0 L 113.48837209302326 650.3793132973714 L 146.97674418604652 675.5955133144961 L 180.46511627906978 691.033478893741 L 213.95348837209303 702.5926877301139 L 247.4418604651163 705.5124582584126 L 280.93023255813955 713.0901618289238 L 314.4186046511628 718.6813939549619 L 347.90697674418607 725.9936638410823 L 381.3953488372093 731.7903930131005 L 414.8837209302326 735.8832091788681 L 448.37209302325584 739.7705282986557 L 481.8604651162791 741.9881839198562 L 515.3488372093024 748.153095299255 L 548.8372093023256 757.8457059679768 L 582.3255813953489 765.3891600308245 L 615.8139534883721 770.560835687987 L 649.3023255813954 778.7892799041014 L 682.7906976744187 779.7311413648429 L 716.2790697674419 781.5634900248309 L 749.7674418604652 784.8257556297629 L 783.2558139534884 790.3056768558952 L 816.7441860465117 791.8040928161657 L 850.232558139535 794.7837999828753 L 883.7209302325582 797.9604418186489 L 917.2093023255815 793.6193167223221 L 950.6976744186047 800.1524103091018 L 984.186046511628 801.6936381539515 L 1017.6744186046512 805.238462197106 L 1051.1627906976746 807.4818049490539 L 1084.6511627906978 810.3844507235209 L 1118.139534883721 811.4718725918315 L 1151.6279069767443 818.4073978936553 L 1185.1162790697676 819.4006336158918 L 1218.6046511627908 821.1045466221423 L 1252.093023255814 823.1852042126894 L 1285.5813953488373 824.4609983731484 L 1319.0697674418607 825.9508519565031 L 1352.5581395348838 828.2541313468619 L 1386.046511627907 827.2523332477095 L 1419.5348837209303 829.1959928076034 L 1453.0232558139537 830.8228444216114 L 1486.5116279069769 833.5371179039302 L 1520.0 834.5303536261666" fill="none" stroke="#66ffbd" stroke-width="2" />
<text x="80.0" y="940" text-anchor="middle">08-06</text>
<text x="113.48837209302326" y="940" text-anchor="middle">08-07</text>
<text x="146.97674418604652" y="940" text-anchor="middle">08-08</text>
<text x="180.46511627906978" y="940" text-anchor="middle">08-09</text>
<text x="213.95348837209303" y="940" text-anchor="middle">08-10</text>
<text x="247.4418604651163" y="940" text-anchor="middle">08-11</text>
<text x="280.93023255813955" y="940" text-anchor="middle">08-12</text>
<text x="314.4186046511628" y="940" text-anchor="middle">08-13</text>
<text x="347.90697674418607" y="940" text-anchor="middle">08-14</text>
<text x="381.3953488372093" y="940" text-anchor="middle">08-15</text>
<text x="414.8837209302326" y="940" text-anchor="middle">08-16</text>
<text x="448.37209302325584" y="940" text-anchor="middle">08-17</text>
<text x="481.8604651162791" y="940" text-anchor="middle">08-18</text>
<text x="515.3488372093024" y="940" text-anchor="middle">08-19</text>
<text x="548.8372093023256" y="940" text-anchor="middle">08-20</text>
<text x="582.3255813953489" y="940" text-anchor="middle">08-21</text>
<text x="615.8139534883721" y="940" text-anchor="middle">08-22</text>
<text x="649.3023255813954" y="940" text-anchor="middle">08-23</text>
<text x="682.7906976744187" y="940" text-anchor="middle">08-24</text>
<text x="716.2790697674419" y="940" text-anchor="middle">08-25</text>
<text x="749.7674418604652" y="940" text-anchor="middle">08-26</text>
<text x="783.2558139534884" y="940" text-anchor="middle">08-27</text>
<text x="816.7441860465117" y="940" text-anchor="middle">08-28</text>
<text x="850.232558139535" y="940" text-anchor="middle">08-29</text>
<text x="883.7209302325582" y="940" text-anchor="middle">08-30</text>
<text x="917.2093023255815" y="940" text-anchor="middle">08-31</text>
<text x="950.6976744186047" y="940" text-anchor="middle">09-01</text>
<text x="984.186046511628" y="940" text-anchor="middle">09-02</text>
<text x="1017.6744186046512" y="940" text-anchor="middle">09-03</text>
<text x="1051.1627906976746" y="940" text-anchor="middle">09-04</text>
<text x="1084.6511627906978" y="940" text-anchor="middle">09-05</text>
<text x="1118.139534883721" y="940" text-anchor="middle">09-06</text>
<text x="1151.6279069767443" y="940" text-anchor="middle">09-07</text>
<text x="1185.1162790697676" y="940" text-anchor="middle">09-08</text>
<text x="1218.6046511627908" y="940" text-anchor="middle">09-09</text>
<text x="1252.093023255814" y="940" text-anchor="middle">09-10</text>
<text x="1285.5813953488373" y="940" text-anchor="middle">09-11</text>
<text x="1319.0697674418607" y="940" text-anchor="middle">09-12</text>
<text x="1352.5581395348838" y="940" text-anchor="middle">09-13</text>
<text x="1386.046511627907" y="940" text-anchor="middle">09-14</text>
<text x="1419.5348837209303" y="940" text-anchor="middle">09-15</text>
<text x="1453.0232558139537" y="940" text-anchor="middle">09-16</text>
<text x="1486.5116279069769" y="940" text-anchor="middle">09-17</text>
<text x="1520.0" y="940" text-anchor="middle">09-18</text>
<rect x="90" y="100" width="130" height="185" class="legend-box" />
<text x="100" y="120" class="legend-item">图例:</text>
<rect x="100" y="137" width="15" height="15" fill="#1f77b4" rx="3" />
<text x="120" y="145" class="legend-item">构件聚合数据</text>
<rect x="100" y="162" width="15" height="15" fill="#ff7f0e" rx="3" />
<text x="120" y="170" class="legend-item">构件基本信息</text>
<rect x="100" y="187" width="15" height="15" fill="#2ca02c" rx="3" />
<text x="120" y="195" class="legend-item">构件徽标</text>
<rect x="100" y="212" width="15" height="15" fill="#d62728" rx="3" />
<text x="120" y="220" class="legend-item">构件扩展元数据</text>
<rect x="100" y="237" width="15" height="15" fill="#9467bd" rx="3" />
<text x="120" y="245" class="legend-item">构件版本信息</text>
<rect x="100" y="262" width="15" height="15" fill="#66ffbd" rx="3" />
<text x="120" y="270" class="legend-item">数据量偏差</text>
<text x="1520" y="990" text-anchor="end" font-size="10" fill="#666">生成时间: 2025-09-18 05:44:14</text>
</svg>