<svg xmlns="http://www.w3.org/2000/svg" width="1600" height="1000" viewBox="0 0 1600 1000">
<style>
  text {
    font-family: Arial, sans-serif;
    font-size: 12px;
    fill: #333;
  }
  .axis-label { font-size: 14px; }
  .title { font-size: 18px; font-weight: bold; }
  .legend-item { font-size: 11px; }
  .legend-box { fill: white; fill-opacity: 0.85; stroke: #cccccc; stroke-width: 1; rx: 5; }
</style>
<text x="800.0" y="30" text-anchor="middle" class="title">Daily Data Growth Trend</text>
<text x="800.0" y="980" text-anchor="middle" class="axis-label">Date</text>
<g transform="rotate(-90)">
<text x="-500.0" y="20" text-anchor="middle" class="axis-label">Count</text>
</g>
<rect x="0" y="0" width="1600" height="1000" fill="#f8f8f8" />
<line x1="80" y1="920.0" x2="1520" y2="920.0" stroke="#e0e0e0" stroke-width="1" />
<text x="70" y="925.0" text-anchor="end">4.6k</text>
<line x1="80" y1="752.0" x2="1520" y2="752.0" stroke="#e0e0e0" stroke-width="1" />
<text x="70" y="757.0" text-anchor="end">17.6k</text>
<line x1="80" y1="584.0" x2="1520" y2="584.0" stroke="#e0e0e0" stroke-width="1" />
<text x="70" y="589.0" text-anchor="end">30.6k</text>
<line x1="80" y1="416.0" x2="1520" y2="416.0" stroke="#e0e0e0" stroke-width="1" />
<text x="70" y="421.0" text-anchor="end">43.6k</text>
<line x1="80" y1="248.0" x2="1520" y2="248.0" stroke="#e0e0e0" stroke-width="1" />
<text x="70" y="253.0" text-anchor="end">56.6k</text>
<line x1="80" y1="80.0" x2="1520" y2="80.0" stroke="#e0e0e0" stroke-width="1" />
<text x="70" y="85.0" text-anchor="end">69.6k</text>
<line x1="80" y1="80" x2="80" y2="920" stroke="#333333" stroke-width="2" />
<line x1="80" y1="920" x2="1520" y2="920" stroke="#333333" stroke-width="2" />
<circle cx="80.0" cy="916.8372962901055" r="4" fill="#1f77b4" />
<circle cx="160.0" cy="782.7847278334904" r="4" fill="#1f77b4" />
<circle cx="240.0" cy="728.860888393514" r="4" fill="#1f77b4" />
<circle cx="320.0" cy="696.4056473770847" r="4" fill="#1f77b4" />
<circle cx="400.0" cy="680.1133234378166" r="4" fill="#1f77b4" />
<circle cx="480.0" cy="647.6580824213872" r="4" fill="#1f77b4" />
<circle cx="560.0" cy="612.6276448490293" r="4" fill="#1f77b4" />
<circle cx="640.0" cy="580.340632753339" r="4" fill="#1f77b4" />
<circle cx="720.0" cy="554.0192770007803" r="4" fill="#1f77b4" />
<circle cx="800.0" cy="530.0143040799366" r="4" fill="#1f77b4" />
<circle cx="880.0" cy="514.9254639582632" r="4" fill="#1f77b4" />
<circle cx="960.0" cy="499.9919120711184" r="4" fill="#1f77b4" />
<circle cx="1040.0" cy="477.5398214955583" r="4" fill="#1f77b4" />
<circle cx="1120.0" cy="445.6539706723997" r="4" fill="#1f77b4" />
<circle cx="1200.0" cy="411.1670419208909" r="4" fill="#1f77b4" />
<circle cx="1280.0" cy="388.27496801416703" r="4" fill="#1f77b4" />
<circle cx="1360.0" cy="356.94556669806843" r="4" fill="#1f77b4" />
<circle cx="1440.0" cy="344.004880487371" r="4" fill="#1f77b4" />
<circle cx="1520.0" cy="332.0865084873186" r="4" fill="#1f77b4" />
<path d="M 80.0 916.8372962901055 L 160.0 782.7847278334904 L 240.0 728.860888393514 L 320.0 696.4056473770847 L 400.0 680.1133234378166 L 480.0 647.6580824213872 L 560.0 612.6276448490293 L 640.0 580.340632753339 L 720.0 554.0192770007803 L 800.0 530.0143040799366 L 880.0 514.9254639582632 L 960.0 499.9919120711184 L 1040.0 477.5398214955583 L 1120.0 445.6539706723997 L 1200.0 411.1670419208909 L 1280.0 388.27496801416703 L 1360.0 356.94556669806843 L 1440.0 344.004880487371 L 1520.0 332.0865084873186" fill="none" stroke="#1f77b4" stroke-width="2" />
<circle cx="80.0" cy="518.4194492351517" r="4" fill="#ff7f0e" />
<circle cx="160.0" cy="422.10192176893025" r="4" fill="#ff7f0e" />
<circle cx="240.0" cy="391.21250378399543" r="4" fill="#ff7f0e" />
<circle cx="320.0" cy="375.9942568002151" r="4" fill="#ff7f0e" />
<circle cx="400.0" cy="364.0888254863735" r="4" fill="#ff7f0e" />
<circle cx="480.0" cy="342.8661001008296" r="4" fill="#ff7f0e" />
<circle cx="560.0" cy="315.9365320963682" r="4" fill="#ff7f0e" />
<circle cx="640.0" cy="294.45499298661036" r="4" fill="#ff7f0e" />
<circle cx="720.0" cy="276.75213425037623" r="4" fill="#ff7f0e" />
<circle cx="800.0" cy="258.84222453477093" r="4" fill="#ff7f0e" />
<circle cx="880.0" cy="249.48610840443655" r="4" fill="#ff7f0e" />
<circle cx="960.0" cy="237.9041942458624" r="4" fill="#ff7f0e" />
<circle cx="1040.0" cy="224.7305756833723" r="4" fill="#ff7f0e" />
<circle cx="1120.0" cy="207.10536106440236" r="4" fill="#ff7f0e" />
<circle cx="1200.0" cy="183.5144901023009" r="4" fill="#ff7f0e" />
<circle cx="1280.0" cy="168.37388723578476" r="4" fill="#ff7f0e" />
<circle cx="1360.0" cy="149.46754468195581" r="4" fill="#ff7f0e" />
<circle cx="1440.0" cy="137.96327464064575" r="4" fill="#ff7f0e" />
<circle cx="1520.0" cy="128.78832811726124" r="4" fill="#ff7f0e" />
<path d="M 80.0 518.4194492351517 L 160.0 422.10192176893025 L 240.0 391.21250378399543 L 320.0 375.9942568002151 L 400.0 364.0888254863735 L 480.0 342.8661001008296 L 560.0 315.9365320963682 L 640.0 294.45499298661036 L 720.0 276.75213425037623 L 800.0 258.84222453477093 L 880.0 249.48610840443655 L 960.0 237.9041942458624 L 1040.0 224.7305756833723 L 1120.0 207.10536106440236 L 1200.0 183.5144901023009 L 1280.0 168.37388723578476 L 1360.0 149.46754468195581 L 1440.0 137.96327464064575 L 1520.0 128.78832811726124" fill="none" stroke="#ff7f0e" stroke-width="2" />
<circle cx="80.0" cy="509.3480282014527" r="4" fill="#2ca02c" />
<circle cx="160.0" cy="413.40578063534156" r="4" fill="#2ca02c" />
<circle cx="240.0" cy="382.81399843325266" r="4" fill="#2ca02c" />
<circle cx="320.0" cy="367.828683801265" r="4" fill="#2ca02c" />
<circle cx="400.0" cy="355.9491338598448" r="4" fill="#2ca02c" />
<circle cx="480.0" cy="334.9464001398827" r="4" fill="#2ca02c" />
<circle cx="560.0" cy="308.3662306631102" r="4" fill="#2ca02c" />
<circle cx="640.0" cy="287.13056459135555" r="4" fill="#2ca02c" />
<circle cx="720.0" cy="269.57005340343903" r="4" fill="#2ca02c" />
<circle cx="800.0" cy="251.75072849130868" r="4" fill="#2ca02c" />
<circle cx="880.0" cy="242.53695990929202" r="4" fill="#2ca02c" />
<circle cx="960.0" cy="230.95504575071777" r="4" fill="#2ca02c" />
<circle cx="1040.0" cy="217.82024924685993" r="4" fill="#2ca02c" />
<circle cx="1120.0" cy="200.5832552142108" r="4" fill="#2ca02c" />
<circle cx="1200.0" cy="177.49707101432648" r="4" fill="#2ca02c" />
<circle cx="1280.0" cy="162.421171578864" r="4" fill="#2ca02c" />
<circle cx="1360.0" cy="143.5277697112457" r="4" fill="#2ca02c" />
<circle cx="1440.0" cy="132.01055898372488" r="4" fill="#2ca02c" />
<circle cx="1520.0" cy="122.86149383276177" r="4" fill="#2ca02c" />
<path d="M 80.0 509.3480282014527 L 160.0 413.40578063534156 L 240.0 382.81399843325266 L 320.0 367.828683801265 L 400.0 355.9491338598448 L 480.0 334.9464001398827 L 560.0 308.3662306631102 L 640.0 287.13056459135555 L 720.0 269.57005340343903 L 800.0 251.75072849130868 L 880.0 242.53695990929202 L 960.0 230.95504575071777 L 1040.0 217.82024924685993 L 1120.0 200.5832552142108 L 1200.0 177.49707101432648 L 1280.0 162.421171578864 L 1360.0 143.5277697112457 L 1440.0 132.01055898372488 L 1520.0 122.86149383276177" fill="none" stroke="#2ca02c" stroke-width="2" />
<circle cx="80.0" cy="888.756007212892" r="4" fill="#d62728" />
<circle cx="160.0" cy="756.5668975706172" r="4" fill="#d62728" />
<circle cx="240.0" cy="710.8215718158017" r="4" fill="#d62728" />
<circle cx="320.0" cy="678.4310342304259" r="4" fill="#d62728" />
<circle cx="400.0" cy="662.2810578394754" r="4" fill="#d62728" />
<circle cx="480.0" cy="630.4857918197918" r="4" fill="#d62728" />
<circle cx="560.0" cy="597.0858807099816" r="4" fill="#d62728" />
<circle cx="640.0" cy="566.3388102733643" r="4" fill="#d62728" />
<circle cx="720.0" cy="540.5739040278656" r="4" fill="#d62728" />
<circle cx="800.0" cy="516.646575224286" r="4" fill="#d62728" />
<circle cx="880.0" cy="501.58361647503415" r="4" fill="#d62728" />
<circle cx="960.0" cy="486.6630052741" r="4" fill="#d62728" />
<circle cx="1040.0" cy="465.32381371265984" r="4" fill="#d62728" />
<circle cx="1120.0" cy="433.8132427896115" r="4" fill="#d62728" />
<circle cx="1200.0" cy="399.90864491758407" r="4" fill="#d62728" />
<circle cx="1280.0" cy="378.10358865255887" r="4" fill="#d62728" />
<circle cx="1360.0" cy="347.1624079227812" r="4" fill="#d62728" />
<circle cx="1440.0" cy="334.22172171208365" r="4" fill="#d62728" />
<circle cx="1520.0" cy="322.43275657413824" r="4" fill="#d62728" />
<path d="M 80.0 888.756007212892 L 160.0 756.5668975706172 L 240.0 710.8215718158017 L 320.0 678.4310342304259 L 400.0 662.2810578394754 L 480.0 630.4857918197918 L 560.0 597.0858807099816 L 640.0 566.3388102733643 L 720.0 540.5739040278656 L 800.0 516.646575224286 L 880.0 501.58361647503415 L 960.0 486.6630052741 L 1040.0 465.32381371265984 L 1120.0 433.8132427896115 L 1200.0 399.90864491758407 L 1280.0 378.10358865255887 L 1360.0 347.1624079227812 L 1440.0 334.22172171208365 L 1520.0 322.43275657413824" fill="none" stroke="#d62728" stroke-width="2" />
<circle cx="80.0" cy="898.3968184398616" r="4" fill="#9467bd" />
<circle cx="160.0" cy="765.7030220353697" r="4" fill="#9467bd" />
<circle cx="240.0" cy="711.9085894575003" r="4" fill="#9467bd" />
<circle cx="320.0" cy="679.4145263824389" r="4" fill="#9467bd" />
<circle cx="400.0" cy="664.9209578264577" r="4" fill="#9467bd" />
<circle cx="480.0" cy="632.8539373963495" r="4" fill="#9467bd" />
<circle cx="560.0" cy="597.9140846274662" r="4" fill="#9467bd" />
<circle cx="640.0" cy="566.2999882147323" r="4" fill="#9467bd" />
<circle cx="720.0" cy="540.2503868725983" r="4" fill="#9467bd" />
<circle cx="800.0" cy="516.5948124794432" r="4" fill="#9467bd" />
<circle cx="880.0" cy="501.51891304398066" r="4" fill="#9467bd" />
<circle cx="960.0" cy="486.4947763533609" r="4" fill="#9467bd" />
<circle cx="1040.0" cy="464.17209263990776" r="4" fill="#9467bd" />
<circle cx="1120.0" cy="432.89445406865195" r="4" fill="#9467bd" />
<circle cx="1200.0" cy="398.32988119987897" r="4" fill="#9467bd" />
<circle cx="1280.0" cy="375.9295533691617" r="4" fill="#9467bd" />
<circle cx="1360.0" cy="349.0388074233323" r="4" fill="#9467bd" />
<circle cx="1440.0" cy="336.0851805264241" r="4" fill="#9467bd" />
<circle cx="1520.0" cy="324.1668085263717" r="4" fill="#9467bd" />
<path d="M 80.0 898.3968184398616 L 160.0 765.7030220353697 L 240.0 711.9085894575003 L 320.0 679.4145263824389 L 400.0 664.9209578264577 L 480.0 632.8539373963495 L 560.0 597.9140846274662 L 640.0 566.2999882147323 L 720.0 540.2503868725983 L 800.0 516.5948124794432 L 880.0 501.51891304398066 L 960.0 486.4947763533609 L 1040.0 464.17209263990776 L 1120.0 432.89445406865195 L 1200.0 398.32988119987897 L 1280.0 375.9295533691617 L 1360.0 349.0388074233323 L 1440.0 336.0851805264241 L 1520.0 324.1668085263717" fill="none" stroke="#9467bd" stroke-width="2" />
<circle cx="80.0" cy="572.6021023993419" r="4" fill="#66ffbd" />
<circle cx="160.0" cy="610.712423289846" r="4" fill="#66ffbd" />
<circle cx="240.0" cy="634.0444805277335" r="4" fill="#66ffbd" />
<circle cx="320.0" cy="651.5144069121752" r="4" fill="#66ffbd" />
<circle cx="400.0" cy="655.927180910023" r="4" fill="#66ffbd" />
<circle cx="480.0" cy="667.3796882064902" r="4" fill="#66ffbd" />
<circle cx="560.0" cy="675.8299563020757" r="4" fill="#66ffbd" />
<circle cx="640.0" cy="686.8813023260113" r="4" fill="#66ffbd" />
<circle cx="720.0" cy="695.6421468906535" r="4" fill="#66ffbd" />
<circle cx="800.0" cy="701.827794899367" r="4" fill="#66ffbd" />
<circle cx="880.0" cy="707.7028664390236" r="4" fill="#66ffbd" />
<circle cx="960.0" cy="711.0545041675942" r="4" fill="#66ffbd" />
<circle cx="1040.0" cy="720.3717982392964" r="4" fill="#66ffbd" />
<circle cx="1120.0" cy="735.020655029806" r="4" fill="#66ffbd" />
<circle cx="1200.0" cy="746.4213995814305" r="4" fill="#66ffbd" />
<circle cx="1280.0" cy="754.2375740526917" r="4" fill="#66ffbd" />
<circle cx="1360.0" cy="766.673573501172" r="4" fill="#66ffbd" />
<circle cx="1440.0" cy="768.0970489843487" r="4" fill="#66ffbd" />
<circle cx="1520.0" cy="770.866355833438" r="4" fill="#66ffbd" />
<path d="M 80.0 572.6021023993419 L 160.0 610.712423289846 L 240.0 634.0444805277335 L 320.0 651.5144069121752 L 400.0 655.927180910023 L 480.0 667.3796882064902 L 560.0 675.8299563020757 L 640.0 686.8813023260113 L 720.0 695.6421468906535 L 800.0 701.827794899367 L 880.0 707.7028664390236 L 960.0 711.0545041675942 L 1040.0 720.3717982392964 L 1120.0 735.020655029806 L 1200.0 746.4213995814305 L 1280.0 754.2375740526917 L 1360.0 766.673573501172 L 1440.0 768.0970489843487 L 1520.0 770.866355833438" fill="none" stroke="#66ffbd" stroke-width="2" />
<text x="80.0" y="940" text-anchor="middle">08-07</text>
<text x="160.0" y="940" text-anchor="middle">08-08</text>
<text x="240.0" y="940" text-anchor="middle">08-09</text>
<text x="320.0" y="940" text-anchor="middle">08-10</text>
<text x="400.0" y="940" text-anchor="middle">08-11</text>
<text x="480.0" y="940" text-anchor="middle">08-12</text>
<text x="560.0" y="940" text-anchor="middle">08-13</text>
<text x="640.0" y="940" text-anchor="middle">08-14</text>
<text x="720.0" y="940" text-anchor="middle">08-15</text>
<text x="800.0" y="940" text-anchor="middle">08-16</text>
<text x="880.0" y="940" text-anchor="middle">08-17</text>
<text x="960.0" y="940" text-anchor="middle">08-18</text>
<text x="1040.0" y="940" text-anchor="middle">08-19</text>
<text x="1120.0" y="940" text-anchor="middle">08-20</text>
<text x="1200.0" y="940" text-anchor="middle">08-21</text>
<text x="1280.0" y="940" text-anchor="middle">08-22</text>
<text x="1360.0" y="940" text-anchor="middle">08-23</text>
<text x="1440.0" y="940" text-anchor="middle">08-24</text>
<text x="1520.0" y="940" text-anchor="middle">08-25</text>
<rect x="90" y="100" width="130" height="185" class="legend-box" />
<text x="100" y="120" class="legend-item">图例:</text>
<rect x="100" y="137" width="15" height="15" fill="#1f77b4" rx="3" />
<text x="120" y="145" class="legend-item">构件聚合数据</text>
<rect x="100" y="162" width="15" height="15" fill="#ff7f0e" rx="3" />
<text x="120" y="170" class="legend-item">构件基本信息</text>
<rect x="100" y="187" width="15" height="15" fill="#2ca02c" rx="3" />
<text x="120" y="195" class="legend-item">构件徽标</text>
<rect x="100" y="212" width="15" height="15" fill="#d62728" rx="3" />
<text x="120" y="220" class="legend-item">构件扩展元数据</text>
<rect x="100" y="237" width="15" height="15" fill="#9467bd" rx="3" />
<text x="120" y="245" class="legend-item">构件版本信息</text>
<rect x="100" y="262" width="15" height="15" fill="#66ffbd" rx="3" />
<text x="120" y="270" class="legend-item">数据量偏差</text>
<text x="1520" y="990" text-anchor="end" font-size="10" fill="#666">生成时间: 2025-08-25 00:25:45</text>
</svg>