<svg xmlns="http://www.w3.org/2000/svg" width="1600" height="1000" viewBox="0 0 1600 1000">
<style>
  text {
    font-family: Arial, sans-serif;
    font-size: 12px;
    fill: #333;
  }
  .axis-label { font-size: 14px; }
  .title { font-size: 18px; font-weight: bold; }
  .legend-item { font-size: 11px; }
  .legend-box { fill: white; fill-opacity: 0.85; stroke: #cccccc; stroke-width: 1; rx: 5; }
</style>
<text x="800.0" y="30" text-anchor="middle" class="title">Daily Data Growth Trend</text>
<text x="800.0" y="980" text-anchor="middle" class="axis-label">Date</text>
<g transform="rotate(-90)">
<text x="-500.0" y="20" text-anchor="middle" class="axis-label">Count</text>
</g>
<rect x="0" y="0" width="1600" height="1000" fill="#f8f8f8" />
<line x1="80" y1="80.0" x2="1520" y2="80.0" stroke="#e0e0e0" stroke-width="1" />
<text x="70" y="85.0" text-anchor="end">4.6k</text>
<line x1="80" y1="248.0" x2="1520" y2="248.0" stroke="#e0e0e0" stroke-width="1" />
<text x="70" y="253.0" text-anchor="end">15.0k</text>
<line x1="80" y1="416.0" x2="1520" y2="416.0" stroke="#e0e0e0" stroke-width="1" />
<text x="70" y="421.0" text-anchor="end">25.3k</text>
<line x1="80" y1="584.0" x2="1520" y2="584.0" stroke="#e0e0e0" stroke-width="1" />
<text x="70" y="589.0" text-anchor="end">35.6k</text>
<line x1="80" y1="752.0" x2="1520" y2="752.0" stroke="#e0e0e0" stroke-width="1" />
<text x="70" y="757.0" text-anchor="end">45.9k</text>
<line x1="80" y1="920.0" x2="1520" y2="920.0" stroke="#e0e0e0" stroke-width="1" />
<text x="70" y="925.0" text-anchor="end">56.2k</text>
<line x1="80" y1="80" x2="80" y2="920" stroke="#333333" stroke-width="2" />
<line x1="80" y1="920" x2="1520" y2="920" stroke="#333333" stroke-width="2" />
<circle cx="80.0" cy="916.020072562877" r="4" fill="#1f77b4" />
<circle cx="285.7142857142857" cy="747.329121985311" r="4" fill="#1f77b4" />
<circle cx="491.42857142857144" cy="679.4716848720069" r="4" fill="#1f77b4" />
<circle cx="697.1428571428571" cy="638.6302036432651" r="4" fill="#1f77b4" />
<circle cx="902.8571428571429" cy="618.1280406181512" r="4" fill="#1f77b4" />
<circle cx="1108.5714285714287" cy="577.2865593894095" r="4" fill="#1f77b4" />
<circle cx="1314.2857142857142" cy="533.2044662130922" r="4" fill="#1f77b4" />
<circle cx="1520.0" cy="492.57468325228257" r="4" fill="#1f77b4" />
<path d="M 80.0 916.020072562877 L 285.7142857142857 747.329121985311 L 491.42857142857144 679.4716848720069 L 697.1428571428571 638.6302036432651 L 902.8571428571429 618.1280406181512 L 1108.5714285714287 577.2865593894095 L 1314.2857142857142 533.2044662130922 L 1520.0 492.57468325228257" fill="none" stroke="#1f77b4" stroke-width="2" />
<circle cx="80.0" cy="414.6534361711306" r="4" fill="#ff7f0e" />
<circle cx="285.7142857142857" cy="293.4480355389437" r="4" fill="#ff7f0e" />
<circle cx="491.42857142857144" cy="254.5769766501852" r="4" fill="#ff7f0e" />
<circle cx="697.1428571428571" cy="235.4264256434068" r="4" fill="#ff7f0e" />
<circle cx="902.8571428571429" cy="220.4447020666753" r="4" fill="#ff7f0e" />
<circle cx="1108.5714285714287" cy="193.7381513429367" r="4" fill="#ff7f0e" />
<circle cx="1314.2857142857142" cy="159.85014399165618" r="4" fill="#ff7f0e" />
<circle cx="1520.0" cy="132.8179036249452" r="4" fill="#ff7f0e" />
<path d="M 80.0 414.6534361711306 L 285.7142857142857 293.4480355389437 L 491.42857142857144 254.5769766501852 L 697.1428571428571 235.4264256434068 L 902.8571428571429 220.4447020666753 L 1108.5714285714287 193.7381513429367 L 1314.2857142857142 159.85014399165618 L 1520.0 132.8179036249452" fill="none" stroke="#ff7f0e" stroke-width="2" />
<circle cx="80.0" cy="403.23801418494713" r="4" fill="#2ca02c" />
<circle cx="285.7142857142857" cy="282.5048635350704" r="4" fill="#2ca02c" />
<circle cx="491.42857142857144" cy="244.00834773573013" r="4" fill="#2ca02c" />
<circle cx="697.1428571428571" cy="225.15091740762682" r="4" fill="#2ca02c" />
<circle cx="902.8571428571429" cy="210.20176279519262" r="4" fill="#2ca02c" />
<circle cx="1108.5714285714287" cy="183.7720482679806" r="4" fill="#2ca02c" />
<circle cx="1314.2857142857142" cy="150.32372193471292" r="4" fill="#2ca02c" />
<circle cx="1520.0" cy="123.60088672882569" r="4" fill="#2ca02c" />
<path d="M 80.0 403.23801418494713 L 285.7142857142857 282.5048635350704 L 491.42857142857144 244.00834773573013 L 697.1428571428571 225.15091740762682 L 902.8571428571429 210.20176279519262 L 1108.5714285714287 183.7720482679806 L 1314.2857142857142 150.32372193471292 L 1520.0 123.60088672882569" fill="none" stroke="#2ca02c" stroke-width="2" />
<circle cx="80.0" cy="880.6827463003692" r="4" fill="#d62728" />
<circle cx="285.7142857142857" cy="714.3367611522046" r="4" fill="#d62728" />
<circle cx="491.42857142857144" cy="656.7711167568291" r="4" fill="#d62728" />
<circle cx="697.1428571428571" cy="616.0110579388304" r="4" fill="#d62728" />
<circle cx="902.8571428571429" cy="595.6880242173513" r="4" fill="#d62728" />
<circle cx="1108.5714285714287" cy="555.6770515781893" r="4" fill="#d62728" />
<circle cx="1314.2857142857142" cy="513.6468031525983" r="4" fill="#d62728" />
<circle cx="1520.0" cy="474.9548735674745" r="4" fill="#d62728" />
<path d="M 80.0 880.6827463003692 L 285.7142857142857 714.3367611522046 L 491.42857142857144 656.7711167568291 L 697.1428571428571 616.0110579388304 L 902.8571428571429 595.6880242173513 L 1108.5714285714287 555.6770515781893 L 1314.2857142857142 513.6468031525983 L 1520.0 474.9548735674745" fill="none" stroke="#d62728" stroke-width="2" />
<circle cx="80.0" cy="892.814685501092" r="4" fill="#9467bd" />
<circle cx="285.7142857142857" cy="725.8336055491311" r="4" fill="#9467bd" />
<circle cx="491.42857142857144" cy="658.1390132573133" r="4" fill="#9467bd" />
<circle cx="697.1428571428571" cy="617.2486785821256" r="4" fill="#9467bd" />
<circle cx="902.8571428571429" cy="599.01005857567" r="4" fill="#9467bd" />
<circle cx="1108.5714285714287" cy="558.657111811387" r="4" fill="#9467bd" />
<circle cx="1314.2857142857142" cy="514.68901001011" r="4" fill="#9467bd" />
<circle cx="1520.0" cy="474.90602012102863" r="4" fill="#9467bd" />
<path d="M 80.0 892.814685501092 L 285.7142857142857 725.8336055491311 L 491.42857142857144 658.1390132573133 L 697.1428571428571 617.2486785821256 L 902.8571428571429 599.01005857567 L 1108.5714285714287 558.657111811387 L 1314.2857142857142 514.68901001011 L 1520.0 474.90602012102863" fill="none" stroke="#9467bd" stroke-width="2" />
<text x="80.0" y="940" text-anchor="middle">08-07</text>
<text x="285.7142857142857" y="940" text-anchor="middle">08-08</text>
<text x="491.42857142857144" y="940" text-anchor="middle">08-09</text>
<text x="697.1428571428571" y="940" text-anchor="middle">08-10</text>
<text x="902.8571428571429" y="940" text-anchor="middle">08-11</text>
<text x="1108.5714285714287" y="940" text-anchor="middle">08-12</text>
<text x="1314.2857142857142" y="940" text-anchor="middle">08-13</text>
<text x="1520.0" y="940" text-anchor="middle">08-14</text>
<rect x="90" y="100" width="130" height="160" class="legend-box" />
<text x="100" y="120" class="legend-item">Legend:</text>
<rect x="100" y="137" width="15" height="15" fill="#1f77b4" rx="3" />
<text x="120" y="145" class="legend-item">构件聚合数据</text>
<rect x="100" y="162" width="15" height="15" fill="#ff7f0e" rx="3" />
<text x="120" y="170" class="legend-item">构件基本信息</text>
<rect x="100" y="187" width="15" height="15" fill="#2ca02c" rx="3" />
<text x="120" y="195" class="legend-item">构件徽标</text>
<rect x="100" y="212" width="15" height="15" fill="#d62728" rx="3" />
<text x="120" y="220" class="legend-item">构件扩展元数据</text>
<rect x="100" y="237" width="15" height="15" fill="#9467bd" rx="3" />
<text x="120" y="245" class="legend-item">构件版本信息</text>
<text x="1520" y="990" text-anchor="end" font-size="10" fill="#666">生成时间: 2025-08-14 05:06:32</text>
</svg>