<svg xmlns="http://www.w3.org/2000/svg" width="1600" height="1000" viewBox="0 0 1600 1000">
<style>
  text {
    font-family: Arial, sans-serif;
    font-size: 12px;
    fill: #333;
  }
  .axis-label { font-size: 14px; }
  .title { font-size: 18px; font-weight: bold; }
  .legend-item { font-size: 11px; }
  .legend-box { fill: white; fill-opacity: 0.85; stroke: #cccccc; stroke-width: 1; rx: 5; }
</style>
<text x="800.0" y="30" text-anchor="middle" class="title">Daily Data Growth Trend</text>
<text x="800.0" y="980" text-anchor="middle" class="axis-label">Date</text>
<g transform="rotate(-90)">
<text x="-500.0" y="20" text-anchor="middle" class="axis-label">Count</text>
</g>
<rect x="0" y="0" width="1600" height="1000" fill="#f8f8f8" />
<line x1="80" y1="920.0" x2="1520" y2="920.0" stroke="#e0e0e0" stroke-width="1" />
<text x="70" y="925.0" text-anchor="end">4.6k</text>
<line x1="80" y1="752.0" x2="1520" y2="752.0" stroke="#e0e0e0" stroke-width="1" />
<text x="70" y="757.0" text-anchor="end">16.4k</text>
<line x1="80" y1="584.0" x2="1520" y2="584.0" stroke="#e0e0e0" stroke-width="1" />
<text x="70" y="589.0" text-anchor="end">28.1k</text>
<line x1="80" y1="416.0" x2="1520" y2="416.0" stroke="#e0e0e0" stroke-width="1" />
<text x="70" y="421.0" text-anchor="end">39.8k</text>
<line x1="80" y1="248.0" x2="1520" y2="248.0" stroke="#e0e0e0" stroke-width="1" />
<text x="70" y="253.0" text-anchor="end">51.5k</text>
<line x1="80" y1="80.0" x2="1520" y2="80.0" stroke="#e0e0e0" stroke-width="1" />
<text x="70" y="85.0" text-anchor="end">63.2k</text>
<line x1="80" y1="80" x2="80" y2="920" stroke="#333333" stroke-width="2" />
<line x1="80" y1="920" x2="1520" y2="920" stroke="#333333" stroke-width="2" />
<circle cx="80.0" cy="916.4969691281924" r="4" fill="#1f77b4" />
<circle cx="190.76923076923077" cy="768.0194863088204" r="4" fill="#1f77b4" />
<circle cx="301.53846153846155" cy="708.293096608239" r="4" fill="#1f77b4" />
<circle cx="412.3076923076923" cy="672.3454639302793" r="4" fill="#1f77b4" />
<circle cx="523.0769230769231" cy="654.2999816569335" r="4" fill="#1f77b4" />
<circle cx="633.8461538461538" cy="618.3523489789737" r="4" fill="#1f77b4" />
<circle cx="744.6153846153846" cy="579.5524121132493" r="4" fill="#1f77b4" />
<circle cx="855.3846153846155" cy="543.791110864641" r="4" fill="#1f77b4" />
<circle cx="966.1538461538462" cy="514.6374087645731" r="4" fill="#1f77b4" />
<circle cx="1076.923076923077" cy="488.0493471148063" r="4" fill="#1f77b4" />
<circle cx="1187.6923076923076" cy="471.33685122066714" r="4" fill="#1f77b4" />
<circle cx="1298.4615384615386" cy="454.79635356900627" r="4" fill="#1f77b4" />
<circle cx="1409.2307692307693" cy="429.92827434402216" r="4" fill="#1f77b4" />
<circle cx="1520.0" cy="394.6113018884828" r="4" fill="#1f77b4" />
<path d="M 80.0 916.4969691281924 L 190.76923076923077 768.0194863088204 L 301.53846153846155 708.293096608239 L 412.3076923076923 672.3454639302793 L 523.0769230769231 654.2999816569335 L 633.8461538461538 618.3523489789737 L 744.6153846153846 579.5524121132493 L 855.3846153846155 543.791110864641 L 966.1538461538462 514.6374087645731 L 1076.923076923077 488.0493471148063 L 1187.6923076923076 471.33685122066714 L 1298.4615384615386 454.79635356900627 L 1409.2307692307693 429.92827434402216 L 1520.0 394.6113018884828" fill="none" stroke="#1f77b4" stroke-width="2" />
<circle cx="80.0" cy="475.20681167642834" r="4" fill="#ff7f0e" />
<circle cx="190.76923076923077" cy="368.52490177927757" r="4" fill="#ff7f0e" />
<circle cx="301.53846153846155" cy="334.31158471297374" r="4" fill="#ff7f0e" />
<circle cx="412.3076923076923" cy="317.4557569501027" r="4" fill="#ff7f0e" />
<circle cx="523.0769230769231" cy="304.26922502676814" r="4" fill="#ff7f0e" />
<circle cx="633.8461538461538" cy="280.76279855473706" r="4" fill="#ff7f0e" />
<circle cx="744.6153846153846" cy="250.9354366716293" r="4" fill="#ff7f0e" />
<circle cx="855.3846153846155" cy="227.14234646213447" r="4" fill="#ff7f0e" />
<circle cx="966.1538461538462" cy="207.5345468196109" r="4" fill="#ff7f0e" />
<circle cx="1076.923076923077" cy="187.69741618711646" r="4" fill="#ff7f0e" />
<circle cx="1187.6923076923076" cy="177.33452207780033" r="4" fill="#ff7f0e" />
<circle cx="1298.4615384615386" cy="164.50631982629557" r="4" fill="#ff7f0e" />
<circle cx="1409.2307692307693" cy="149.91513558938846" r="4" fill="#ff7f0e" />
<circle cx="1520.0" cy="130.39333506810408" r="4" fill="#ff7f0e" />
<path d="M 80.0 475.20681167642834 L 190.76923076923077 368.52490177927757 L 301.53846153846155 334.31158471297374 L 412.3076923076923 317.4557569501027 L 523.0769230769231 304.26922502676814 L 633.8461538461538 280.76279855473706 L 744.6153846153846 250.9354366716293 L 855.3846153846155 227.14234646213447 L 966.1538461538462 207.5345468196109 L 1076.923076923077 187.69741618711646 L 1187.6923076923076 177.33452207780033 L 1298.4615384615386 164.50631982629557 L 1409.2307692307693 149.91513558938846 L 1520.0 130.39333506810408" fill="none" stroke="#ff7f0e" stroke-width="2" />
<circle cx="80.0" cy="465.1592476783224" r="4" fill="#2ca02c" />
<circle cx="190.76923076923077" cy="358.89300020049404" r="4" fill="#2ca02c" />
<circle cx="301.53846153846155" cy="325.0093464322737" r="4" fill="#2ca02c" />
<circle cx="412.3076923076923" cy="308.41151603311994" r="4" fill="#2ca02c" />
<circle cx="523.0769230769231" cy="295.2536504835318" r="4" fill="#2ca02c" />
<circle cx="633.8461538461538" cy="271.990888188345" r="4" fill="#2ca02c" />
<circle cx="744.6153846153846" cy="242.55052235081337" r="4" fill="#2ca02c" />
<circle cx="855.3846153846155" cy="219.02976269190913" r="4" fill="#2ca02c" />
<circle cx="966.1538461538462" cy="199.57962810499066" r="4" fill="#2ca02c" />
<circle cx="1076.923076923077" cy="179.84282978060844" r="4" fill="#2ca02c" />
<circle cx="1187.6923076923076" cy="169.6376007268974" r="4" fill="#2ca02c" />
<circle cx="1298.4615384615386" cy="156.80939847539264" r="4" fill="#2ca02c" />
<circle cx="1409.2307692307693" cy="142.26121379910512" r="4" fill="#2ca02c" />
<circle cx="1520.0" cy="123.16940888401643" r="4" fill="#2ca02c" />
<path d="M 80.0 465.1592476783224 L 190.76923076923077 358.89300020049404 L 301.53846153846155 325.0093464322737 L 412.3076923076923 308.41151603311994 L 523.0769230769231 295.2536504835318 L 633.8461538461538 271.990888188345 L 744.6153846153846 242.55052235081337 L 855.3846153846155 219.02976269190913 L 966.1538461538462 199.57962810499066 L 1076.923076923077 179.84282978060844 L 1187.6923076923076 169.6376007268974 L 1298.4615384615386 156.80939847539264 L 1409.2307692307693 142.26121379910512 L 1520.0 123.16940888401643" fill="none" stroke="#2ca02c" stroke-width="2" />
<circle cx="80.0" cy="885.3939536133709" r="4" fill="#d62728" />
<circle cx="190.76923076923077" cy="738.9804497037381" r="4" fill="#d62728" />
<circle cx="301.53846153846155" cy="688.3126341070126" r="4" fill="#d62728" />
<circle cx="412.3076923076923" cy="652.4366673634188" r="4" fill="#d62728" />
<circle cx="523.0769230769231" cy="634.5488501456781" r="4" fill="#d62728" />
<circle cx="633.8461538461538" cy="599.3322099982511" r="4" fill="#d62728" />
<circle cx="744.6153846153846" cy="562.3382546785485" r="4" fill="#d62728" />
<circle cx="855.3846153846155" cy="528.2826026678497" r="4" fill="#d62728" />
<circle cx="966.1538461538462" cy="499.7452276033291" r="4" fill="#d62728" />
<circle cx="1076.923076923077" cy="473.24316507480137" r="4" fill="#d62728" />
<circle cx="1187.6923076923076" cy="456.55933555440856" r="4" fill="#d62728" />
<circle cx="1298.4615384615386" cy="440.03317108962085" r="4" fill="#d62728" />
<circle cx="1409.2307692307693" cy="416.39774593573105" r="4" fill="#d62728" />
<circle cx="1520.0" cy="381.49643589951415" r="4" fill="#d62728" />
<path d="M 80.0 885.3939536133709 L 190.76923076923077 738.9804497037381 L 301.53846153846155 688.3126341070126 L 412.3076923076923 652.4366673634188 L 523.0769230769231 634.5488501456781 L 633.8461538461538 599.3322099982511 L 744.6153846153846 562.3382546785485 L 855.3846153846155 528.2826026678497 L 966.1538461538462 499.7452276033291 L 1076.923076923077 473.24316507480137 L 1187.6923076923076 456.55933555440856 L 1298.4615384615386 440.03317108962085 L 1409.2307692307693 416.39774593573105 L 1520.0 381.49643589951415" fill="none" stroke="#d62728" stroke-width="2" />
<circle cx="80.0" cy="896.0721778338972" r="4" fill="#9467bd" />
<circle cx="190.76923076923077" cy="749.0996796362101" r="4" fill="#9467bd" />
<circle cx="301.53846153846155" cy="689.5166218043605" r="4" fill="#9467bd" />
<circle cx="412.3076923076923" cy="653.5259895657812" r="4" fill="#9467bd" />
<circle cx="523.0769230769231" cy="637.4728202678089" r="4" fill="#9467bd" />
<circle cx="633.8461538461538" cy="601.9551831960448" r="4" fill="#9467bd" />
<circle cx="744.6153846153846" cy="563.2555786384326" r="4" fill="#9467bd" />
<circle cx="855.3846153846155" cy="528.2396031072302" r="4" fill="#9467bd" />
<circle cx="966.1538461538462" cy="499.3868979314994" r="4" fill="#9467bd" />
<circle cx="1076.923076923077" cy="473.1858323273086" r="4" fill="#9467bd" />
<circle cx="1187.6923076923076" cy="456.48766962004265" r="4" fill="#9467bd" />
<circle cx="1298.4615384615386" cy="439.8468396602694" r="4" fill="#9467bd" />
<circle cx="1409.2307692307693" cy="415.1220923040172" r="4" fill="#9467bd" />
<circle cx="1520.0" cy="380.4787796315177" r="4" fill="#9467bd" />
<path d="M 80.0 896.0721778338972 L 190.76923076923077 749.0996796362101 L 301.53846153846155 689.5166218043605 L 412.3076923076923 653.5259895657812 L 523.0769230769231 637.4728202678089 L 633.8461538461538 601.9551831960448 L 744.6153846153846 563.2555786384326 L 855.3846153846155 528.2396031072302 L 966.1538461538462 499.3868979314994 L 1076.923076923077 473.1858323273086 L 1187.6923076923076 456.48766962004265 L 1298.4615384615386 439.8468396602694 L 1409.2307692307693 415.1220923040172 L 1520.0 380.4787796315177" fill="none" stroke="#9467bd" stroke-width="2" />
<circle cx="80.0" cy="535.2198651144736" r="4" fill="#66ffbd" />
<circle cx="190.76923076923077" cy="577.4311004560172" r="4" fill="#66ffbd" />
<circle cx="301.53846153846155" cy="603.2738363883782" r="4" fill="#66ffbd" />
<circle cx="412.3076923076923" cy="622.6236386671843" r="4" fill="#66ffbd" />
<circle cx="523.0769230769231" cy="627.511255390942" r="4" fill="#66ffbd" />
<circle cx="633.8461538461538" cy="640.1961257737148" r="4" fill="#66ffbd" />
<circle cx="744.6153846153846" cy="649.5556968019077" r="4" fill="#66ffbd" />
<circle cx="855.3846153846155" cy="661.7962383916117" r="4" fill="#66ffbd" />
<circle cx="966.1538461538462" cy="671.4998059047612" r="4" fill="#66ffbd" />
<circle cx="1076.923076923077" cy="678.3510692301458" r="4" fill="#66ffbd" />
<circle cx="1187.6923076923076" cy="684.8583360705738" r="4" fill="#66ffbd" />
<circle cx="1298.4615384615386" cy="688.57063147073" r="4" fill="#66ffbd" />
<circle cx="1409.2307692307693" cy="698.8905260194266" r="4" fill="#66ffbd" />
<circle cx="1520.0" cy="715.1156935598773" r="4" fill="#66ffbd" />
<path d="M 80.0 535.2198651144736 L 190.76923076923077 577.4311004560172 L 301.53846153846155 603.2738363883782 L 412.3076923076923 622.6236386671843 L 523.0769230769231 627.511255390942 L 633.8461538461538 640.1961257737148 L 744.6153846153846 649.5556968019077 L 855.3846153846155 661.7962383916117 L 966.1538461538462 671.4998059047612 L 1076.923076923077 678.3510692301458 L 1187.6923076923076 684.8583360705738 L 1298.4615384615386 688.57063147073 L 1409.2307692307693 698.8905260194266 L 1520.0 715.1156935598773" fill="none" stroke="#66ffbd" stroke-width="2" />
<text x="80.0" y="940" text-anchor="middle">08-07</text>
<text x="190.76923076923077" y="940" text-anchor="middle">08-08</text>
<text x="301.53846153846155" y="940" text-anchor="middle">08-09</text>
<text x="412.3076923076923" y="940" text-anchor="middle">08-10</text>
<text x="523.0769230769231" y="940" text-anchor="middle">08-11</text>
<text x="633.8461538461538" y="940" text-anchor="middle">08-12</text>
<text x="744.6153846153846" y="940" text-anchor="middle">08-13</text>
<text x="855.3846153846155" y="940" text-anchor="middle">08-14</text>
<text x="966.1538461538462" y="940" text-anchor="middle">08-15</text>
<text x="1076.923076923077" y="940" text-anchor="middle">08-16</text>
<text x="1187.6923076923076" y="940" text-anchor="middle">08-17</text>
<text x="1298.4615384615386" y="940" text-anchor="middle">08-18</text>
<text x="1409.2307692307693" y="940" text-anchor="middle">08-19</text>
<text x="1520.0" y="940" text-anchor="middle">08-20</text>
<rect x="90" y="100" width="130" height="185" class="legend-box" />
<text x="100" y="120" class="legend-item">图例:</text>
<rect x="100" y="137" width="15" height="15" fill="#1f77b4" rx="3" />
<text x="120" y="145" class="legend-item">构件聚合数据</text>
<rect x="100" y="162" width="15" height="15" fill="#ff7f0e" rx="3" />
<text x="120" y="170" class="legend-item">构件基本信息</text>
<rect x="100" y="187" width="15" height="15" fill="#2ca02c" rx="3" />
<text x="120" y="195" class="legend-item">构件徽标</text>
<rect x="100" y="212" width="15" height="15" fill="#d62728" rx="3" />
<text x="120" y="220" class="legend-item">构件扩展元数据</text>
<rect x="100" y="237" width="15" height="15" fill="#9467bd" rx="3" />
<text x="120" y="245" class="legend-item">构件版本信息</text>
<rect x="100" y="262" width="15" height="15" fill="#66ffbd" rx="3" />
<text x="120" y="270" class="legend-item">数据量偏差</text>
<text x="1520" y="990" text-anchor="end" font-size="10" fill="#666">生成时间: 2025-08-20 00:55:57</text>
</svg>