<svg xmlns="http://www.w3.org/2000/svg" width="1600" height="1000" viewBox="0 0 1600 1000">
<style>
  text {
    font-family: Arial, sans-serif;
    font-size: 12px;
    fill: #333;
  }
  .axis-label { font-size: 14px; }
  .title { font-size: 18px; font-weight: bold; }
  .legend-item { font-size: 11px; }
  .legend-box { fill: white; fill-opacity: 0.85; stroke: #cccccc; stroke-width: 1; rx: 5; }
</style>
<text x="800.0" y="30" text-anchor="middle" class="title">Daily Data Growth Trend</text>
<text x="800.0" y="980" text-anchor="middle" class="axis-label">Date</text>
<g transform="rotate(-90)">
<text x="-500.0" y="20" text-anchor="middle" class="axis-label">Count</text>
</g>
<rect x="0" y="0" width="1600" height="1000" fill="#f8f8f8" />
<line x1="80" y1="920.0" x2="1520" y2="920.0" stroke="#e0e0e0" stroke-width="1" />
<text x="70" y="925.0" text-anchor="end">0</text>
<line x1="80" y1="752.0" x2="1520" y2="752.0" stroke="#e0e0e0" stroke-width="1" />
<text x="70" y="757.0" text-anchor="end">20.4k</text>
<line x1="80" y1="584.0" x2="1520" y2="584.0" stroke="#e0e0e0" stroke-width="1" />
<text x="70" y="589.0" text-anchor="end">40.8k</text>
<line x1="80" y1="416.0" x2="1520" y2="416.0" stroke="#e0e0e0" stroke-width="1" />
<text x="70" y="421.0" text-anchor="end">61.3k</text>
<line x1="80" y1="248.0" x2="1520" y2="248.0" stroke="#e0e0e0" stroke-width="1" />
<text x="70" y="253.0" text-anchor="end">81.7k</text>
<line x1="80" y1="80.0" x2="1520" y2="80.0" stroke="#e0e0e0" stroke-width="1" />
<text x="70" y="85.0" text-anchor="end">102.1k</text>
<line x1="80" y1="80" x2="80" y2="920" stroke="#333333" stroke-width="2" />
<line x1="80" y1="920" x2="1520" y2="920" stroke="#333333" stroke-width="2" />
<circle cx="80.0" cy="920.0" r="4" fill="#1f77b4" />
<circle cx="110.63829787234043" cy="879.7894044093451" r="4" fill="#1f77b4" />
<circle cx="141.27659574468086" cy="794.5722277064824" r="4" fill="#1f77b4" />
<circle cx="171.91489361702128" cy="760.2928594932544" r="4" fill="#1f77b4" />
<circle cx="202.55319148936172" cy="739.6610727212899" r="4" fill="#1f77b4" />
<circle cx="233.19148936170214" cy="729.3040473840078" r="4" fill="#1f77b4" />
<circle cx="263.82978723404256" cy="708.6722606120435" r="4" fill="#1f77b4" />
<circle cx="294.468085106383" cy="686.4034221783481" r="4" fill="#1f77b4" />
<circle cx="325.10638297872345" cy="665.8785784797631" r="4" fill="#1f77b4" />
<circle cx="355.74468085106383" cy="649.1461006910167" r="4" fill="#1f77b4" />
<circle cx="386.3829787234043" cy="633.8861467588023" r="4" fill="#1f77b4" />
<circle cx="417.0212765957447" cy="624.2941757156959" r="4" fill="#1f77b4" />
<circle cx="447.6595744680851" cy="614.8009213557091" r="4" fill="#1f77b4" />
<circle cx="478.29787234042556" cy="600.5281342546891" r="4" fill="#1f77b4" />
<circle cx="508.936170212766" cy="580.2583086541626" r="4" fill="#1f77b4" />
<circle cx="539.5744680851064" cy="558.3349786113854" r="4" fill="#1f77b4" />
<circle cx="570.2127659574469" cy="543.7824942415268" r="4" fill="#1f77b4" />
<circle cx="600.8510638297872" cy="523.8664034221783" r="4" fill="#1f77b4" />
<circle cx="631.4893617021277" cy="515.6400131622245" r="4" fill="#1f77b4" />
<circle cx="662.1276595744681" cy="508.0635077328069" r="4" fill="#1f77b4" />
<circle cx="692.7659574468086" cy="491.76702862783816" r="4" fill="#1f77b4" />
<circle cx="723.404255319149" cy="475.74202040144786" r="4" fill="#1f77b4" />
<circle cx="754.0425531914894" cy="461.55149720302734" r="4" fill="#1f77b4" />
<circle cx="784.6808510638298" cy="441.96446199407706" r="4" fill="#1f77b4" />
<circle cx="815.3191489361702" cy="428.4814083580126" r="4" fill="#1f77b4" />
<circle cx="845.9574468085107" cy="420.17275419545905" r="4" fill="#1f77b4" />
<circle cx="876.5957446808511" cy="410.80289568937155" r="4" fill="#1f77b4" />
<circle cx="907.2340425531916" cy="398.76768673905895" r="4" fill="#1f77b4" />
<circle cx="937.872340425532" cy="388.3201711089174" r="4" fill="#1f77b4" />
<circle cx="968.5106382978723" cy="379.44389601842715" r="4" fill="#1f77b4" />
<circle cx="999.1489361702128" cy="364.3731490621916" r="4" fill="#1f77b4" />
<circle cx="1029.7872340425533" cy="352.0746956235604" r="4" fill="#1f77b4" />
<circle cx="1060.4255319148938" cy="333.3185258308655" r="4" fill="#1f77b4" />
<circle cx="1091.0638297872342" cy="327.8232971372163" r="4" fill="#1f77b4" />
<circle cx="1121.7021276595744" cy="321.5876933201712" r="4" fill="#1f77b4" />
<circle cx="1152.340425531915" cy="313.3201711089174" r="4" fill="#1f77b4" />
<circle cx="1182.9787234042553" cy="306.6732477788747" r="4" fill="#1f77b4" />
<circle cx="1213.6170212765958" cy="296.79335307667" r="4" fill="#1f77b4" />
<circle cx="1244.2553191489362" cy="285.71240539651205" r="4" fill="#1f77b4" />
<circle cx="1274.8936170212767" cy="280.67785455742023" r="4" fill="#1f77b4" />
<circle cx="1305.531914893617" cy="275.2155314248108" r="4" fill="#1f77b4" />
<circle cx="1336.1702127659576" cy="266.17472852912147" r="4" fill="#1f77b4" />
<circle cx="1366.808510638298" cy="258.589996709444" r="4" fill="#1f77b4" />
<circle cx="1397.4468085106384" cy="233.5077328068444" r="4" fill="#1f77b4" />
<circle cx="1428.085106382979" cy="223.81704508061864" r="4" fill="#1f77b4" />
<circle cx="1458.723404255319" cy="213.53405725567632" r="4" fill="#1f77b4" />
<circle cx="1489.3617021276596" cy="206.22902270483723" r="4" fill="#1f77b4" />
<circle cx="1520.0" cy="198.77591312931895" r="4" fill="#1f77b4" />
<path d="M 80.0 920.0 L 110.63829787234043 879.7894044093451 L 141.27659574468086 794.5722277064824 L 171.91489361702128 760.2928594932544 L 202.55319148936172 739.6610727212899 L 233.19148936170214 729.3040473840078 L 263.82978723404256 708.6722606120435 L 294.468085106383 686.4034221783481 L 325.10638297872345 665.8785784797631 L 355.74468085106383 649.1461006910167 L 386.3829787234043 633.8861467588023 L 417.0212765957447 624.2941757156959 L 447.6595744680851 614.8009213557091 L 478.29787234042556 600.5281342546891 L 508.936170212766 580.2583086541626 L 539.5744680851064 558.3349786113854 L 570.2127659574469 543.7824942415268 L 600.8510638297872 523.8664034221783 L 631.4893617021277 515.6400131622245 L 662.1276595744681 508.0635077328069 L 692.7659574468086 491.76702862783816 L 723.404255319149 475.74202040144786 L 754.0425531914894 461.55149720302734 L 784.6808510638298 441.96446199407706 L 815.3191489361702 428.4814083580126 L 845.9574468085107 420.17275419545905 L 876.5957446808511 410.80289568937155 L 907.2340425531916 398.76768673905895 L 937.872340425532 388.3201711089174 L 968.5106382978723 379.44389601842715 L 999.1489361702128 364.3731490621916 L 1029.7872340425533 352.0746956235604 L 1060.4255319148938 333.3185258308655 L 1091.0638297872342 327.8232971372163 L 1121.7021276595744 321.5876933201712 L 1152.340425531915 313.3201711089174 L 1182.9787234042553 306.6732477788747 L 1213.6170212765958 296.79335307667 L 1244.2553191489362 285.71240539651205 L 1274.8936170212767 280.67785455742023 L 1305.531914893617 275.2155314248108 L 1336.1702127659576 266.17472852912147 L 1366.808510638298 258.589996709444 L 1397.4468085106384 233.5077328068444 L 1428.085106382979 223.81704508061864 L 1458.723404255319 213.53405725567632 L 1489.3617021276596 206.22902270483723 L 1520.0 198.77591312931895" fill="none" stroke="#1f77b4" stroke-width="2" />
<circle cx="80.0" cy="920.0" r="4" fill="#ff7f0e" />
<circle cx="110.63829787234043" cy="626.5153010858835" r="4" fill="#ff7f0e" />
<circle cx="141.27659574468086" cy="565.2862783810465" r="4" fill="#ff7f0e" />
<circle cx="171.91489361702128" cy="545.6498848305364" r="4" fill="#ff7f0e" />
<circle cx="202.55319148936172" cy="535.9756498848305" r="4" fill="#ff7f0e" />
<circle cx="233.19148936170214" cy="528.407370845673" r="4" fill="#ff7f0e" />
<circle cx="263.82978723404256" cy="514.9160908193485" r="4" fill="#ff7f0e" />
<circle cx="294.468085106383" cy="497.79697268838436" r="4" fill="#ff7f0e" />
<circle cx="325.10638297872345" cy="484.1411648568608" r="4" fill="#ff7f0e" />
<circle cx="355.74468085106383" cy="472.88746298124386" r="4" fill="#ff7f0e" />
<circle cx="386.3829787234043" cy="461.50213886146764" r="4" fill="#ff7f0e" />
<circle cx="417.0212765957447" cy="455.55445870352094" r="4" fill="#ff7f0e" />
<circle cx="447.6595744680851" cy="448.19183942086215" r="4" fill="#ff7f0e" />
<circle cx="478.29787234042556" cy="439.8173741362291" r="4" fill="#ff7f0e" />
<circle cx="508.936170212766" cy="428.6130306021718" r="4" fill="#ff7f0e" />
<circle cx="539.5744680851064" cy="413.6163211582758" r="4" fill="#ff7f0e" />
<circle cx="570.2127659574469" cy="403.99144455412966" r="4" fill="#ff7f0e" />
<circle cx="600.8510638297872" cy="391.97268838433695" r="4" fill="#ff7f0e" />
<circle cx="631.4893617021277" cy="384.659427443238" r="4" fill="#ff7f0e" />
<circle cx="662.1276595744681" cy="378.82691674893067" r="4" fill="#ff7f0e" />
<circle cx="692.7659574468086" cy="365.5742020401449" r="4" fill="#ff7f0e" />
<circle cx="723.404255319149" cy="354.78940440934525" r="4" fill="#ff7f0e" />
<circle cx="754.0425531914894" cy="342.02204672589676" r="4" fill="#ff7f0e" />
<circle cx="784.6808510638298" cy="325.2731161566305" r="4" fill="#ff7f0e" />
<circle cx="815.3191489361702" cy="314.8091477459691" r="4" fill="#ff7f0e" />
<circle cx="845.9574468085107" cy="302.3214873313591" r="4" fill="#ff7f0e" />
<circle cx="876.5957446808511" cy="299.22013820335644" r="4" fill="#ff7f0e" />
<circle cx="907.2340425531916" cy="288.6574531095756" r="4" fill="#ff7f0e" />
<circle cx="937.872340425532" cy="281.5909838762751" r="4" fill="#ff7f0e" />
<circle cx="968.5106382978723" cy="274.82889108259303" r="4" fill="#ff7f0e" />
<circle cx="999.1489361702128" cy="262.25896676538343" r="4" fill="#ff7f0e" />
<circle cx="1029.7872340425533" cy="250.9723593287266" r="4" fill="#ff7f0e" />
<circle cx="1060.4255319148938" cy="238.53405725567632" r="4" fill="#ff7f0e" />
<circle cx="1091.0638297872342" cy="233.99308983218168" r="4" fill="#ff7f0e" />
<circle cx="1121.7021276595744" cy="229.33695294504776" r="4" fill="#ff7f0e" />
<circle cx="1152.340425531915" cy="223.06021717670296" r="4" fill="#ff7f0e" />
<circle cx="1182.9787234042553" cy="217.61434682461345" r="4" fill="#ff7f0e" />
<circle cx="1213.6170212765958" cy="209.1658440276408" r="4" fill="#ff7f0e" />
<circle cx="1244.2553191489362" cy="200.25666337611062" r="4" fill="#ff7f0e" />
<circle cx="1274.8936170212767" cy="194.25139848634421" r="4" fill="#ff7f0e" />
<circle cx="1305.531914893617" cy="190.65646594274438" r="4" fill="#ff7f0e" />
<circle cx="1336.1702127659576" cy="183.1704508061863" r="4" fill="#ff7f0e" />
<circle cx="1366.808510638298" cy="178.11122079631468" r="4" fill="#ff7f0e" />
<circle cx="1397.4468085106384" cy="153.76933201711097" r="4" fill="#ff7f0e" />
<circle cx="1428.085106382979" cy="144.3418887792037" r="4" fill="#ff7f0e" />
<circle cx="1458.723404255319" cy="135.77821651859176" r="4" fill="#ff7f0e" />
<circle cx="1489.3617021276596" cy="127.11582757486019" r="4" fill="#ff7f0e" />
<circle cx="1520.0" cy="122.09772951628827" r="4" fill="#ff7f0e" />
<path d="M 80.0 920.0 L 110.63829787234043 626.5153010858835 L 141.27659574468086 565.2862783810465 L 171.91489361702128 545.6498848305364 L 202.55319148936172 535.9756498848305 L 233.19148936170214 528.407370845673 L 263.82978723404256 514.9160908193485 L 294.468085106383 497.79697268838436 L 325.10638297872345 484.1411648568608 L 355.74468085106383 472.88746298124386 L 386.3829787234043 461.50213886146764 L 417.0212765957447 455.55445870352094 L 447.6595744680851 448.19183942086215 L 478.29787234042556 439.8173741362291 L 508.936170212766 428.6130306021718 L 539.5744680851064 413.6163211582758 L 570.2127659574469 403.99144455412966 L 600.8510638297872 391.97268838433695 L 631.4893617021277 384.659427443238 L 662.1276595744681 378.82691674893067 L 692.7659574468086 365.5742020401449 L 723.404255319149 354.78940440934525 L 754.0425531914894 342.02204672589676 L 784.6808510638298 325.2731161566305 L 815.3191489361702 314.8091477459691 L 845.9574468085107 302.3214873313591 L 876.5957446808511 299.22013820335644 L 907.2340425531916 288.6574531095756 L 937.872340425532 281.5909838762751 L 968.5106382978723 274.82889108259303 L 999.1489361702128 262.25896676538343 L 1029.7872340425533 250.9723593287266 L 1060.4255319148938 238.53405725567632 L 1091.0638297872342 233.99308983218168 L 1121.7021276595744 229.33695294504776 L 1152.340425531915 223.06021717670296 L 1182.9787234042553 217.61434682461345 L 1213.6170212765958 209.1658440276408 L 1244.2553191489362 200.25666337611062 L 1274.8936170212767 194.25139848634421 L 1305.531914893617 190.65646594274438 L 1336.1702127659576 183.1704508061863 L 1366.808510638298 178.11122079631468 L 1397.4468085106384 153.76933201711097 L 1428.085106382979 144.3418887792037 L 1458.723404255319 135.77821651859176 L 1489.3617021276596 127.11582757486019 L 1520.0 122.09772951628827" fill="none" stroke="#ff7f0e" stroke-width="2" />
<circle cx="80.0" cy="920.0" r="4" fill="#2ca02c" />
<circle cx="110.63829787234043" cy="620.7486015136558" r="4" fill="#2ca02c" />
<circle cx="141.27659574468086" cy="559.7581441263574" r="4" fill="#2ca02c" />
<circle cx="171.91489361702128" cy="540.3109575518263" r="4" fill="#2ca02c" />
<circle cx="202.55319148936172" cy="530.7847976307996" r="4" fill="#2ca02c" />
<circle cx="233.19148936170214" cy="523.232971372162" r="4" fill="#2ca02c" />
<circle cx="263.82978723404256" cy="509.8815399802567" r="4" fill="#2ca02c" />
<circle cx="294.468085106383" cy="492.98453438631134" r="4" fill="#2ca02c" />
<circle cx="325.10638297872345" cy="479.4850279697269" r="4" fill="#2ca02c" />
<circle cx="355.74468085106383" cy="468.32181638696943" r="4" fill="#2ca02c" />
<circle cx="386.3829787234043" cy="456.99407699901286" r="4" fill="#2ca02c" />
<circle cx="417.0212765957447" cy="451.13688713392565" r="4" fill="#2ca02c" />
<circle cx="447.6595744680851" cy="443.7742678512669" r="4" fill="#2ca02c" />
<circle cx="478.29787234042556" cy="435.42448173741366" r="4" fill="#2ca02c" />
<circle cx="508.936170212766" cy="424.46692991115503" r="4" fill="#2ca02c" />
<circle cx="539.5744680851064" cy="409.7910496873972" r="4" fill="#2ca02c" />
<circle cx="570.2127659574469" cy="400.2073050345509" r="4" fill="#2ca02c" />
<circle cx="600.8510638297872" cy="388.1967752550181" r="4" fill="#2ca02c" />
<circle cx="631.4893617021277" cy="380.87528792365913" r="4" fill="#2ca02c" />
<circle cx="662.1276595744681" cy="375.0592300098717" r="4" fill="#2ca02c" />
<circle cx="692.7659574468086" cy="361.89700559394544" r="4" fill="#2ca02c" />
<circle cx="723.404255319149" cy="351.1368871339257" r="4" fill="#2ca02c" />
<circle cx="754.0425531914894" cy="338.3859822309971" r="4" fill="#2ca02c" />
<circle cx="784.6808510638298" cy="321.6617308325108" r="4" fill="#2ca02c" />
<circle cx="815.3191489361702" cy="311.23066798288914" r="4" fill="#2ca02c" />
<circle cx="845.9574468085107" cy="298.75123395853905" r="4" fill="#2ca02c" />
<circle cx="876.5957446808511" cy="295.6581112207964" r="4" fill="#2ca02c" />
<circle cx="907.2340425531916" cy="285.10365251727546" r="4" fill="#2ca02c" />
<circle cx="937.872340425532" cy="278.0618624547549" r="4" fill="#2ca02c" />
<circle cx="968.5106382978723" cy="271.3409016123726" r="4" fill="#2ca02c" />
<circle cx="999.1489361702128" cy="259.0589009542613" r="4" fill="#2ca02c" />
<circle cx="1029.7872340425533" cy="247.80519907864436" r="4" fill="#2ca02c" />
<circle cx="1060.4255319148938" cy="235.71240539651205" r="4" fill="#2ca02c" />
<circle cx="1091.0638297872342" cy="231.17143797301753" r="4" fill="#2ca02c" />
<circle cx="1121.7021276595744" cy="226.5728858177032" r="4" fill="#2ca02c" />
<circle cx="1152.340425531915" cy="220.3043764396184" r="4" fill="#2ca02c" />
<circle cx="1182.9787234042553" cy="214.88318525830869" r="4" fill="#2ca02c" />
<circle cx="1213.6170212765958" cy="206.43468246133602" r="4" fill="#2ca02c" />
<circle cx="1244.2553191489362" cy="197.56663376110566" r="4" fill="#2ca02c" />
<circle cx="1274.8936170212767" cy="191.56959526159926" r="4" fill="#2ca02c" />
<circle cx="1305.531914893617" cy="187.97466271799942" r="4" fill="#2ca02c" />
<circle cx="1336.1702127659576" cy="180.49687397170123" r="4" fill="#2ca02c" />
<circle cx="1366.808510638298" cy="175.51990786442911" r="4" fill="#2ca02c" />
<circle cx="1397.4468085106384" cy="151.3919052319843" r="4" fill="#2ca02c" />
<circle cx="1428.085106382979" cy="141.98091477459695" r="4" fill="#2ca02c" />
<circle cx="1458.723404255319" cy="133.6722606120435" r="4" fill="#2ca02c" />
<circle cx="1489.3617021276596" cy="125.01809805857192" r="4" fill="#2ca02c" />
<circle cx="1520.0" cy="120.00000000000011" r="4" fill="#2ca02c" />
<path d="M 80.0 920.0 L 110.63829787234043 620.7486015136558 L 141.27659574468086 559.7581441263574 L 171.91489361702128 540.3109575518263 L 202.55319148936172 530.7847976307996 L 233.19148936170214 523.232971372162 L 263.82978723404256 509.8815399802567 L 294.468085106383 492.98453438631134 L 325.10638297872345 479.4850279697269 L 355.74468085106383 468.32181638696943 L 386.3829787234043 456.99407699901286 L 417.0212765957447 451.13688713392565 L 447.6595744680851 443.7742678512669 L 478.29787234042556 435.42448173741366 L 508.936170212766 424.46692991115503 L 539.5744680851064 409.7910496873972 L 570.2127659574469 400.2073050345509 L 600.8510638297872 388.1967752550181 L 631.4893617021277 380.87528792365913 L 662.1276595744681 375.0592300098717 L 692.7659574468086 361.89700559394544 L 723.404255319149 351.1368871339257 L 754.0425531914894 338.3859822309971 L 784.6808510638298 321.6617308325108 L 815.3191489361702 311.23066798288914 L 845.9574468085107 298.75123395853905 L 876.5957446808511 295.6581112207964 L 907.2340425531916 285.10365251727546 L 937.872340425532 278.0618624547549 L 968.5106382978723 271.3409016123726 L 999.1489361702128 259.0589009542613 L 1029.7872340425533 247.80519907864436 L 1060.4255319148938 235.71240539651205 L 1091.0638297872342 231.17143797301753 L 1121.7021276595744 226.5728858177032 L 1152.340425531915 220.3043764396184 L 1182.9787234042553 214.88318525830869 L 1213.6170212765958 206.43468246133602 L 1244.2553191489362 197.56663376110566 L 1274.8936170212767 191.56959526159926 L 1305.531914893617 187.97466271799942 L 1336.1702127659576 180.49687397170123 L 1366.808510638298 175.51990786442911 L 1397.4468085106384 151.3919052319843 L 1428.085106382979 141.98091477459695 L 1458.723404255319 133.6722606120435 L 1489.3617021276596 125.01809805857192 L 1520.0 120.00000000000011" fill="none" stroke="#2ca02c" stroke-width="2" />
<circle cx="80.0" cy="920.0" r="4" fill="#d62728" />
<circle cx="110.63829787234043" cy="861.9381375452451" r="4" fill="#d62728" />
<circle cx="141.27659574468086" cy="777.9055610398158" r="4" fill="#d62728" />
<circle cx="171.91489361702128" cy="748.8252714708785" r="4" fill="#d62728" />
<circle cx="202.55319148936172" cy="728.2346166502139" r="4" fill="#d62728" />
<circle cx="233.19148936170214" cy="717.9680816057914" r="4" fill="#d62728" />
<circle cx="263.82978723404256" cy="697.7558407370846" r="4" fill="#d62728" />
<circle cx="294.468085106383" cy="676.5235274761435" r="4" fill="#d62728" />
<circle cx="325.10638297872345" cy="656.977624218493" r="4" fill="#d62728" />
<circle cx="355.74468085106383" cy="640.5988812109247" r="4" fill="#d62728" />
<circle cx="386.3829787234043" cy="625.3882856202699" r="4" fill="#d62728" />
<circle cx="417.0212765957447" cy="615.8127673576835" r="4" fill="#d62728" />
<circle cx="447.6595744680851" cy="606.3277393879566" r="4" fill="#d62728" />
<circle cx="478.29787234042556" cy="592.7624218492925" r="4" fill="#d62728" />
<circle cx="508.936170212766" cy="572.7311615663048" r="4" fill="#d62728" />
<circle cx="539.5744680851064" cy="551.1780190852255" r="4" fill="#d62728" />
<circle cx="570.2127659574469" cy="537.3165514972031" r="4" fill="#d62728" />
<circle cx="600.8510638297872" cy="517.6472523856532" r="4" fill="#d62728" />
<circle cx="631.4893617021277" cy="509.4208621256993" r="4" fill="#d62728" />
<circle cx="662.1276595744681" cy="501.92662059888124" r="4" fill="#d62728" />
<circle cx="692.7659574468086" cy="485.8275748601514" r="4" fill="#d62728" />
<circle cx="723.404255319149" cy="470.7732806844357" r="4" fill="#d62728" />
<circle cx="754.0425531914894" cy="456.64034221783487" r="4" fill="#d62728" />
<circle cx="784.6808510638298" cy="437.06975978940443" r="4" fill="#d62728" />
<circle cx="815.3191489361702" cy="424.0309312273775" r="4" fill="#d62728" />
<circle cx="845.9574468085107" cy="415.72227706482397" r="4" fill="#d62728" />
<circle cx="876.5957446808511" cy="406.3441921684765" r="4" fill="#d62728" />
<circle cx="907.2340425531916" cy="394.3089832181639" r="4" fill="#d62728" />
<circle cx="937.872340425532" cy="384.56071076011847" r="4" fill="#d62728" />
<circle cx="968.5106382978723" cy="375.7008884501481" r="4" fill="#d62728" />
<circle cx="999.1489361702128" cy="360.66304705495236" r="4" fill="#d62728" />
<circle cx="1029.7872340425533" cy="348.37282000658115" r="4" fill="#d62728" />
<circle cx="1060.4255319148938" cy="329.71536689700565" r="4" fill="#d62728" />
<circle cx="1091.0638297872342" cy="324.24481737413623" r="4" fill="#d62728" />
<circle cx="1121.7021276595744" cy="318.00921355709124" r="4" fill="#d62728" />
<circle cx="1152.340425531915" cy="309.79927607765717" r="4" fill="#d62728" />
<circle cx="1182.9787234042553" cy="303.1441263573545" r="4" fill="#d62728" />
<circle cx="1213.6170212765958" cy="293.31358999670954" r="4" fill="#d62728" />
<circle cx="1244.2553191489362" cy="282.8496215860481" r="4" fill="#d62728" />
<circle cx="1274.8936170212767" cy="277.8397499177362" r="4" fill="#d62728" />
<circle cx="1305.531914893617" cy="272.3774267851268" r="4" fill="#d62728" />
<circle cx="1336.1702127659576" cy="263.3613030602172" r="4" fill="#d62728" />
<circle cx="1366.808510638298" cy="255.85060875287934" r="4" fill="#d62728" />
<circle cx="1397.4468085106384" cy="230.84238236261933" r="4" fill="#d62728" />
<circle cx="1428.085106382979" cy="221.1763738071735" r="4" fill="#d62728" />
<circle cx="1458.723404255319" cy="210.89338598223105" r="4" fill="#d62728" />
<circle cx="1489.3617021276596" cy="203.58012504113196" r="4" fill="#d62728" />
<circle cx="1520.0" cy="196.1270154656138" r="4" fill="#d62728" />
<path d="M 80.0 920.0 L 110.63829787234043 861.9381375452451 L 141.27659574468086 777.9055610398158 L 171.91489361702128 748.8252714708785 L 202.55319148936172 728.2346166502139 L 233.19148936170214 717.9680816057914 L 263.82978723404256 697.7558407370846 L 294.468085106383 676.5235274761435 L 325.10638297872345 656.977624218493 L 355.74468085106383 640.5988812109247 L 386.3829787234043 625.3882856202699 L 417.0212765957447 615.8127673576835 L 447.6595744680851 606.3277393879566 L 478.29787234042556 592.7624218492925 L 508.936170212766 572.7311615663048 L 539.5744680851064 551.1780190852255 L 570.2127659574469 537.3165514972031 L 600.8510638297872 517.6472523856532 L 631.4893617021277 509.4208621256993 L 662.1276595744681 501.92662059888124 L 692.7659574468086 485.8275748601514 L 723.404255319149 470.7732806844357 L 754.0425531914894 456.64034221783487 L 784.6808510638298 437.06975978940443 L 815.3191489361702 424.0309312273775 L 845.9574468085107 415.72227706482397 L 876.5957446808511 406.3441921684765 L 907.2340425531916 394.3089832181639 L 937.872340425532 384.56071076011847 L 968.5106382978723 375.7008884501481 L 999.1489361702128 360.66304705495236 L 1029.7872340425533 348.37282000658115 L 1060.4255319148938 329.71536689700565 L 1091.0638297872342 324.24481737413623 L 1121.7021276595744 318.00921355709124 L 1152.340425531915 309.79927607765717 L 1182.9787234042553 303.1441263573545 L 1213.6170212765958 293.31358999670954 L 1244.2553191489362 282.8496215860481 L 1274.8936170212767 277.8397499177362 L 1305.531914893617 272.3774267851268 L 1336.1702127659576 263.3613030602172 L 1366.808510638298 255.85060875287934 L 1397.4468085106384 230.84238236261933 L 1428.085106382979 221.1763738071735 L 1458.723404255319 210.89338598223105 L 1489.3617021276596 203.58012504113196 L 1520.0 196.1270154656138" fill="none" stroke="#d62728" stroke-width="2" />
<circle cx="80.0" cy="920.0" r="4" fill="#9467bd" />
<circle cx="110.63829787234043" cy="868.0667982889108" r="4" fill="#9467bd" />
<circle cx="141.27659574468086" cy="783.7133925633432" r="4" fill="#9467bd" />
<circle cx="171.91489361702128" cy="749.5162882527147" r="4" fill="#9467bd" />
<circle cx="202.55319148936172" cy="728.8598223099705" r="4" fill="#9467bd" />
<circle cx="233.19148936170214" cy="719.646265218822" r="4" fill="#9467bd" />
<circle cx="263.82978723404256" cy="699.2612701546561" r="4" fill="#9467bd" />
<circle cx="294.468085106383" cy="677.0500164527805" r="4" fill="#9467bd" />
<circle cx="325.10638297872345" cy="656.952945047713" r="4" fill="#9467bd" />
<circle cx="355.74468085106383" cy="640.3932214544259" r="4" fill="#9467bd" />
<circle cx="386.3829787234043" cy="625.35538005923" r="4" fill="#9467bd" />
<circle cx="417.0212765957447" cy="615.7716354063837" r="4" fill="#9467bd" />
<circle cx="447.6595744680851" cy="606.2207963145772" r="4" fill="#9467bd" />
<circle cx="478.29787234042556" cy="592.0302731161566" r="4" fill="#9467bd" />
<circle cx="508.936170212766" cy="572.147087857848" r="4" fill="#9467bd" />
<circle cx="539.5744680851064" cy="550.1743994735111" r="4" fill="#9467bd" />
<circle cx="570.2127659574469" cy="535.9345179335307" r="4" fill="#9467bd" />
<circle cx="600.8510638297872" cy="518.8400789733465" r="4" fill="#9467bd" />
<circle cx="631.4893617021277" cy="510.60546232313266" r="4" fill="#9467bd" />
<circle cx="662.1276595744681" cy="503.0289568937151" r="4" fill="#9467bd" />
<circle cx="692.7659574468086" cy="486.6913458374466" r="4" fill="#9467bd" />
<circle cx="723.404255319149" cy="471.1681474169135" r="4" fill="#9467bd" />
<circle cx="754.0425531914894" cy="457.05166173083256" r="4" fill="#9467bd" />
<circle cx="784.6808510638298" cy="437.4070417900626" r="4" fill="#9467bd" />
<circle cx="815.3191489361702" cy="424.17900625205664" r="4" fill="#9467bd" />
<circle cx="845.9574468085107" cy="415.895031260283" r="4" fill="#9467bd" />
<circle cx="876.5957446808511" cy="406.5169463639355" r="4" fill="#9467bd" />
<circle cx="907.2340425531916" cy="394.465284633103" r="4" fill="#9467bd" />
<circle cx="937.872340425532" cy="384.3961829549195" r="4" fill="#9467bd" />
<circle cx="968.5106382978723" cy="375.536360644949" r="4" fill="#9467bd" />
<circle cx="999.1489361702128" cy="360.70417900625205" r="4" fill="#9467bd" />
<circle cx="1029.7872340425533" cy="348.69364922671934" r="4" fill="#9467bd" />
<circle cx="1060.4255319148938" cy="329.92925304376445" r="4" fill="#9467bd" />
<circle cx="1091.0638297872342" cy="324.40934517933533" r="4" fill="#9467bd" />
<circle cx="1121.7021276595744" cy="318.42875946034883" r="4" fill="#9467bd" />
<circle cx="1152.340425531915" cy="310.19414281013496" r="4" fill="#9467bd" />
<circle cx="1182.9787234042553" cy="303.51431391905237" r="4" fill="#9467bd" />
<circle cx="1213.6170212765958" cy="293.6097400460678" r="4" fill="#9467bd" />
<circle cx="1244.2553191489362" cy="282.5287923659099" r="4" fill="#9467bd" />
<circle cx="1274.8936170212767" cy="277.4942415268181" r="4" fill="#9467bd" />
<circle cx="1305.531914893617" cy="272.0319183942087" r="4" fill="#9467bd" />
<circle cx="1336.1702127659576" cy="263.0075682790392" r="4" fill="#9467bd" />
<circle cx="1366.808510638298" cy="255.40638367884173" r="4" fill="#9467bd" />
<circle cx="1397.4468085106384" cy="230.38993089832184" r="4" fill="#9467bd" />
<circle cx="1428.085106382979" cy="220.6745640013163" r="4" fill="#9467bd" />
<circle cx="1458.723404255319" cy="210.39980256663387" r="4" fill="#9467bd" />
<circle cx="1489.3617021276596" cy="203.08654162553478" r="4" fill="#9467bd" />
<circle cx="1520.0" cy="195.5676209279369" r="4" fill="#9467bd" />
<path d="M 80.0 920.0 L 110.63829787234043 868.0667982889108 L 141.27659574468086 783.7133925633432 L 171.91489361702128 749.5162882527147 L 202.55319148936172 728.8598223099705 L 233.19148936170214 719.646265218822 L 263.82978723404256 699.2612701546561 L 294.468085106383 677.0500164527805 L 325.10638297872345 656.952945047713 L 355.74468085106383 640.3932214544259 L 386.3829787234043 625.35538005923 L 417.0212765957447 615.7716354063837 L 447.6595744680851 606.2207963145772 L 478.29787234042556 592.0302731161566 L 508.936170212766 572.147087857848 L 539.5744680851064 550.1743994735111 L 570.2127659574469 535.9345179335307 L 600.8510638297872 518.8400789733465 L 631.4893617021277 510.60546232313266 L 662.1276595744681 503.0289568937151 L 692.7659574468086 486.6913458374466 L 723.404255319149 471.1681474169135 L 754.0425531914894 457.05166173083256 L 784.6808510638298 437.4070417900626 L 815.3191489361702 424.17900625205664 L 845.9574468085107 415.895031260283 L 876.5957446808511 406.5169463639355 L 907.2340425531916 394.465284633103 L 937.872340425532 384.3961829549195 L 968.5106382978723 375.536360644949 L 999.1489361702128 360.70417900625205 L 1029.7872340425533 348.69364922671934 L 1060.4255319148938 329.92925304376445 L 1091.0638297872342 324.40934517933533 L 1121.7021276595744 318.42875946034883 L 1152.340425531915 310.19414281013496 L 1182.9787234042553 303.51431391905237 L 1213.6170212765958 293.6097400460678 L 1244.2553191489362 282.5287923659099 L 1274.8936170212767 277.4942415268181 L 1305.531914893617 272.0319183942087 L 1336.1702127659576 263.0075682790392 L 1366.808510638298 255.40638367884173 L 1397.4468085106384 230.38993089832184 L 1428.085106382979 220.6745640013163 L 1458.723404255319 210.39980256663387 L 1489.3617021276596 203.08654162553478 L 1520.0 195.5676209279369" fill="none" stroke="#9467bd" stroke-width="2" />
<circle cx="80.0" cy="920.0" r="4" fill="#66ffbd" />
<circle cx="110.63829787234043" cy="660.9591971043106" r="4" fill="#66ffbd" />
<circle cx="141.27659574468086" cy="685.185916419875" r="4" fill="#66ffbd" />
<circle cx="171.91489361702128" cy="700.0180980585719" r="4" fill="#66ffbd" />
<circle cx="202.55319148936172" cy="711.1237249095097" r="4" fill="#66ffbd" />
<circle cx="233.19148936170214" cy="713.928923988154" r="4" fill="#66ffbd" />
<circle cx="263.82978723404256" cy="721.2092793682132" r="4" fill="#66ffbd" />
<circle cx="294.468085106383" cy="726.5811122079632" r="4" fill="#66ffbd" />
<circle cx="325.10638297872345" cy="733.6064494899638" r="4" fill="#66ffbd" />
<circle cx="355.74468085106383" cy="739.1757156959526" r="4" fill="#66ffbd" />
<circle cx="386.3829787234043" cy="743.1079302402106" r="4" fill="#66ffbd" />
<circle cx="417.0212765957447" cy="746.8427114182297" r="4" fill="#66ffbd" />
<circle cx="447.6595744680851" cy="748.9733464955577" r="4" fill="#66ffbd" />
<circle cx="478.29787234042556" cy="754.8963474827247" r="4" fill="#66ffbd" />
<circle cx="508.936170212766" cy="764.2086212569925" r="4" fill="#66ffbd" />
<circle cx="539.5744680851064" cy="771.4560710760119" r="4" fill="#66ffbd" />
<circle cx="570.2127659574469" cy="776.424810793024" r="4" fill="#66ffbd" />
<circle cx="600.8510638297872" cy="784.3303718328398" r="4" fill="#66ffbd" />
<circle cx="631.4893617021277" cy="785.2352747614347" r="4" fill="#66ffbd" />
<circle cx="662.1276595744681" cy="786.9957222770648" r="4" fill="#66ffbd" />
<circle cx="692.7659574468086" cy="790.1299769661073" r="4" fill="#66ffbd" />
<circle cx="723.404255319149" cy="795.3948667324778" r="4" fill="#66ffbd" />
<circle cx="754.0425531914894" cy="796.8344850279698" r="4" fill="#66ffbd" />
<circle cx="784.6808510638298" cy="799.6972688384337" r="4" fill="#66ffbd" />
<circle cx="815.3191489361702" cy="802.7492596248766" r="4" fill="#66ffbd" />
<circle cx="845.9574468085107" cy="798.5784797630799" r="4" fill="#66ffbd" />
<circle cx="876.5957446808511" cy="804.8552155314248" r="4" fill="#66ffbd" />
<circle cx="907.2340425531916" cy="806.3359657782165" r="4" fill="#66ffbd" />
<circle cx="937.872340425532" cy="809.7416913458375" r="4" fill="#66ffbd" />
<circle cx="968.5106382978723" cy="811.8970055939453" r="4" fill="#66ffbd" />
<circle cx="999.1489361702128" cy="814.6857518920698" r="4" fill="#66ffbd" />
<circle cx="1029.7872340425533" cy="815.7305034550839" r="4" fill="#66ffbd" />
<circle cx="1060.4255319148938" cy="822.3938795656466" r="4" fill="#66ffbd" />
<circle cx="1091.0638297872342" cy="823.3481408358012" r="4" fill="#66ffbd" />
<circle cx="1121.7021276595744" cy="824.9851924975321" r="4" fill="#66ffbd" />
<circle cx="1152.340425531915" cy="826.9842053307009" r="4" fill="#66ffbd" />
<circle cx="1182.9787234042553" cy="828.2099374794341" r="4" fill="#66ffbd" />
<circle cx="1213.6170212765958" cy="829.641329384666" r="4" fill="#66ffbd" />
<circle cx="1244.2553191489362" cy="831.8542283645936" r="4" fill="#66ffbd" />
<circle cx="1274.8936170212767" cy="830.891740704179" r="4" fill="#66ffbd" />
<circle cx="1305.531914893617" cy="832.7591312931886" r="4" fill="#66ffbd" />
<circle cx="1336.1702127659576" cy="834.3221454425798" r="4" fill="#66ffbd" />
<circle cx="1366.808510638298" cy="836.9299111549852" r="4" fill="#66ffbd" />
<circle cx="1397.4468085106384" cy="837.8841724251398" r="4" fill="#66ffbd" />
<circle cx="1428.085106382979" cy="838.1638696939783" r="4" fill="#66ffbd" />
<circle cx="1458.723404255319" cy="840.1382033563673" r="4" fill="#66ffbd" />
<circle cx="1489.3617021276596" cy="838.7890753537348" r="4" fill="#66ffbd" />
<circle cx="1520.0" cy="841.2240868706812" r="4" fill="#66ffbd" />
<path d="M 80.0 920.0 L 110.63829787234043 660.9591971043106 L 141.27659574468086 685.185916419875 L 171.91489361702128 700.0180980585719 L 202.55319148936172 711.1237249095097 L 233.19148936170214 713.928923988154 L 263.82978723404256 721.2092793682132 L 294.468085106383 726.5811122079632 L 325.10638297872345 733.6064494899638 L 355.74468085106383 739.1757156959526 L 386.3829787234043 743.1079302402106 L 417.0212765957447 746.8427114182297 L 447.6595744680851 748.9733464955577 L 478.29787234042556 754.8963474827247 L 508.936170212766 764.2086212569925 L 539.5744680851064 771.4560710760119 L 570.2127659574469 776.424810793024 L 600.8510638297872 784.3303718328398 L 631.4893617021277 785.2352747614347 L 662.1276595744681 786.9957222770648 L 692.7659574468086 790.1299769661073 L 723.404255319149 795.3948667324778 L 754.0425531914894 796.8344850279698 L 784.6808510638298 799.6972688384337 L 815.3191489361702 802.7492596248766 L 845.9574468085107 798.5784797630799 L 876.5957446808511 804.8552155314248 L 907.2340425531916 806.3359657782165 L 937.872340425532 809.7416913458375 L 968.5106382978723 811.8970055939453 L 999.1489361702128 814.6857518920698 L 1029.7872340425533 815.7305034550839 L 1060.4255319148938 822.3938795656466 L 1091.0638297872342 823.3481408358012 L 1121.7021276595744 824.9851924975321 L 1152.340425531915 826.9842053307009 L 1182.9787234042553 828.2099374794341 L 1213.6170212765958 829.641329384666 L 1244.2553191489362 831.8542283645936 L 1274.8936170212767 830.891740704179 L 1305.531914893617 832.7591312931886 L 1336.1702127659576 834.3221454425798 L 1366.808510638298 836.9299111549852 L 1397.4468085106384 837.8841724251398 L 1428.085106382979 838.1638696939783 L 1458.723404255319 840.1382033563673 L 1489.3617021276596 838.7890753537348 L 1520.0 841.2240868706812" fill="none" stroke="#66ffbd" stroke-width="2" />
<text x="80.0" y="940" text-anchor="middle">08-06</text>
<text x="110.63829787234043" y="940" text-anchor="middle">08-07</text>
<text x="141.27659574468086" y="940" text-anchor="middle">08-08</text>
<text x="171.91489361702128" y="940" text-anchor="middle">08-09</text>
<text x="202.55319148936172" y="940" text-anchor="middle">08-10</text>
<text x="233.19148936170214" y="940" text-anchor="middle">08-11</text>
<text x="263.82978723404256" y="940" text-anchor="middle">08-12</text>
<text x="294.468085106383" y="940" text-anchor="middle">08-13</text>
<text x="325.10638297872345" y="940" text-anchor="middle">08-14</text>
<text x="355.74468085106383" y="940" text-anchor="middle">08-15</text>
<text x="386.3829787234043" y="940" text-anchor="middle">08-16</text>
<text x="417.0212765957447" y="940" text-anchor="middle">08-17</text>
<text x="447.6595744680851" y="940" text-anchor="middle">08-18</text>
<text x="478.29787234042556" y="940" text-anchor="middle">08-19</text>
<text x="508.936170212766" y="940" text-anchor="middle">08-20</text>
<text x="539.5744680851064" y="940" text-anchor="middle">08-21</text>
<text x="570.2127659574469" y="940" text-anchor="middle">08-22</text>
<text x="600.8510638297872" y="940" text-anchor="middle">08-23</text>
<text x="631.4893617021277" y="940" text-anchor="middle">08-24</text>
<text x="662.1276595744681" y="940" text-anchor="middle">08-25</text>
<text x="692.7659574468086" y="940" text-anchor="middle">08-26</text>
<text x="723.404255319149" y="940" text-anchor="middle">08-27</text>
<text x="754.0425531914894" y="940" text-anchor="middle">08-28</text>
<text x="784.6808510638298" y="940" text-anchor="middle">08-29</text>
<text x="815.3191489361702" y="940" text-anchor="middle">08-30</text>
<text x="845.9574468085107" y="940" text-anchor="middle">08-31</text>
<text x="876.5957446808511" y="940" text-anchor="middle">09-01</text>
<text x="907.2340425531916" y="940" text-anchor="middle">09-02</text>
<text x="937.872340425532" y="940" text-anchor="middle">09-03</text>
<text x="968.5106382978723" y="940" text-anchor="middle">09-04</text>
<text x="999.1489361702128" y="940" text-anchor="middle">09-05</text>
<text x="1029.7872340425533" y="940" text-anchor="middle">09-06</text>
<text x="1060.4255319148938" y="940" text-anchor="middle">09-07</text>
<text x="1091.0638297872342" y="940" text-anchor="middle">09-08</text>
<text x="1121.7021276595744" y="940" text-anchor="middle">09-09</text>
<text x="1152.340425531915" y="940" text-anchor="middle">09-10</text>
<text x="1182.9787234042553" y="940" text-anchor="middle">09-11</text>
<text x="1213.6170212765958" y="940" text-anchor="middle">09-12</text>
<text x="1244.2553191489362" y="940" text-anchor="middle">09-13</text>
<text x="1274.8936170212767" y="940" text-anchor="middle">09-14</text>
<text x="1305.531914893617" y="940" text-anchor="middle">09-15</text>
<text x="1336.1702127659576" y="940" text-anchor="middle">09-16</text>
<text x="1366.808510638298" y="940" text-anchor="middle">09-17</text>
<text x="1397.4468085106384" y="940" text-anchor="middle">09-18</text>
<text x="1428.085106382979" y="940" text-anchor="middle">09-19</text>
<text x="1458.723404255319" y="940" text-anchor="middle">09-20</text>
<text x="1489.3617021276596" y="940" text-anchor="middle">09-21</text>
<text x="1520.0" y="940" text-anchor="middle">09-22</text>
<rect x="90" y="100" width="130" height="185" class="legend-box" />
<text x="100" y="120" class="legend-item">图例:</text>
<rect x="100" y="137" width="15" height="15" fill="#1f77b4" rx="3" />
<text x="120" y="145" class="legend-item">构件聚合数据</text>
<rect x="100" y="162" width="15" height="15" fill="#ff7f0e" rx="3" />
<text x="120" y="170" class="legend-item">构件基本信息</text>
<rect x="100" y="187" width="15" height="15" fill="#2ca02c" rx="3" />
<text x="120" y="195" class="legend-item">构件徽标</text>
<rect x="100" y="212" width="15" height="15" fill="#d62728" rx="3" />
<text x="120" y="220" class="legend-item">构件扩展元数据</text>
<rect x="100" y="237" width="15" height="15" fill="#9467bd" rx="3" />
<text x="120" y="245" class="legend-item">构件版本信息</text>
<rect x="100" y="262" width="15" height="15" fill="#66ffbd" rx="3" />
<text x="120" y="270" class="legend-item">数据量偏差</text>
<text x="1520" y="990" text-anchor="end" font-size="10" fill="#666">生成时间: 2025-09-22 10:56:11</text>
</svg>