<svg xmlns="http://www.w3.org/2000/svg" width="1600" height="1000" viewBox="0 0 1600 1000">
<style>
  text {
    font-family: Arial, sans-serif;
    font-size: 12px;
    fill: #333;
  }
  .axis-label { font-size: 14px; }
  .title { font-size: 18px; font-weight: bold; }
  .legend-item { font-size: 11px; }
  .legend-box { fill: white; fill-opacity: 0.85; stroke: #cccccc; stroke-width: 1; rx: 5; }
</style>
<text x="800.0" y="30" text-anchor="middle" class="title">Daily Data Growth Trend</text>
<text x="800.0" y="980" text-anchor="middle" class="axis-label">Date</text>
<g transform="rotate(-90)">
<text x="-500.0" y="20" text-anchor="middle" class="axis-label">Count</text>
</g>
<rect x="0" y="0" width="1600" height="1000" fill="#f8f8f8" />
<line x1="80" y1="920.0" x2="1520" y2="920.0" stroke="#e0e0e0" stroke-width="1" />
<text x="70" y="925.0" text-anchor="end">4.6k</text>
<line x1="80" y1="752.0" x2="1520" y2="752.0" stroke="#e0e0e0" stroke-width="1" />
<text x="70" y="757.0" text-anchor="end">17.3k</text>
<line x1="80" y1="584.0" x2="1520" y2="584.0" stroke="#e0e0e0" stroke-width="1" />
<text x="70" y="589.0" text-anchor="end">29.9k</text>
<line x1="80" y1="416.0" x2="1520" y2="416.0" stroke="#e0e0e0" stroke-width="1" />
<text x="70" y="421.0" text-anchor="end">42.6k</text>
<line x1="80" y1="248.0" x2="1520" y2="248.0" stroke="#e0e0e0" stroke-width="1" />
<text x="70" y="253.0" text-anchor="end">55.2k</text>
<line x1="80" y1="80.0" x2="1520" y2="80.0" stroke="#e0e0e0" stroke-width="1" />
<text x="70" y="85.0" text-anchor="end">67.9k</text>
<line x1="80" y1="80" x2="80" y2="920" stroke="#333333" stroke-width="2" />
<line x1="80" y1="920" x2="1520" y2="920" stroke="#333333" stroke-width="2" />
<circle cx="80.0" cy="916.7534281019756" r="4" fill="#1f77b4" />
<circle cx="170.0" cy="779.1460701165657" r="4" fill="#1f77b4" />
<circle cx="260.0" cy="723.7922849321653" r="4" fill="#1f77b4" />
<circle cx="350.0" cy="690.4763998247797" r="4" fill="#1f77b4" />
<circle cx="440.0" cy="673.7520380424039" r="4" fill="#1f77b4" />
<circle cx="530.0" cy="640.4361529350183" r="4" fill="#1f77b4" />
<circle cx="620.0" cy="604.4767825260499" r="4" fill="#1f77b4" />
<circle cx="710.0" cy="571.3335874132399" r="4" fill="#1f77b4" />
<circle cx="800.0" cy="544.3142451850013" r="4" fill="#1f77b4" />
<circle cx="890.0" cy="519.6727113436136" r="4" fill="#1f77b4" />
<circle cx="980.0" cy="504.1837472147413" r="4" fill="#1f77b4" />
<circle cx="1070.0" cy="488.8541892347082" r="4" fill="#1f77b4" />
<circle cx="1160.0" cy="465.80671688171213" r="4" fill="#1f77b4" />
<circle cx="1250.0" cy="433.07532098673676" r="4" fill="#1f77b4" />
<circle cx="1340.0" cy="397.6738720987054" r="4" fill="#1f77b4" />
<circle cx="1430.0" cy="374.17474899066497" r="4" fill="#1f77b4" />
<circle cx="1520.0" cy="342.0145584623633" r="4" fill="#1f77b4" />
<path d="M 80.0 916.7534281019756 L 170.0 779.1460701165657 L 260.0 723.7922849321653 L 350.0 690.4763998247797 L 440.0 673.7520380424039 L 530.0 640.4361529350183 L 620.0 604.4767825260499 L 710.0 571.3335874132399 L 800.0 544.3142451850013 L 890.0 519.6727113436136 L 980.0 504.1837472147413 L 1070.0 488.8541892347082 L 1160.0 465.80671688171213 L 1250.0 433.07532098673676 L 1340.0 397.6738720987054 L 1430.0 374.17474899066497 L 1520.0 342.0145584623633" fill="none" stroke="#1f77b4" stroke-width="2" />
<circle cx="80.0" cy="507.77038556362254" r="4" fill="#ff7f0e" />
<circle cx="170.0" cy="408.8987217461299" r="4" fill="#ff7f0e" />
<circle cx="260.0" cy="377.19018197287255" r="4" fill="#ff7f0e" />
<circle cx="350.0" cy="361.5683793866343" r="4" fill="#ff7f0e" />
<circle cx="440.0" cy="349.34724130896484" r="4" fill="#ff7f0e" />
<circle cx="530.0" cy="327.56173430094555" r="4" fill="#ff7f0e" />
<circle cx="620.0" cy="299.91805132308684" r="4" fill="#ff7f0e" />
<circle cx="710.0" cy="277.86686740033565" r="4" fill="#ff7f0e" />
<circle cx="800.0" cy="259.69456643267074" r="4" fill="#ff7f0e" />
<circle cx="890.0" cy="241.3097239332203" r="4" fill="#ff7f0e" />
<circle cx="980.0" cy="231.7055034656605" r="4" fill="#ff7f0e" />
<circle cx="1070.0" cy="219.81646153140605" r="4" fill="#ff7f0e" />
<circle cx="1160.0" cy="206.2935065715502" r="4" fill="#ff7f0e" />
<circle cx="1250.0" cy="188.2009086783048" r="4" fill="#ff7f0e" />
<circle cx="1340.0" cy="163.98445790048822" r="4" fill="#ff7f0e" />
<circle cx="1430.0" cy="148.44235838866962" r="4" fill="#ff7f0e" />
<circle cx="1520.0" cy="129.03465976750113" r="4" fill="#ff7f0e" />
<path d="M 80.0 507.77038556362254 L 170.0 408.8987217461299 L 260.0 377.19018197287255 L 350.0 361.5683793866343 L 440.0 349.34724130896484 L 530.0 327.56173430094555 L 620.0 299.91805132308684 L 710.0 277.86686740033565 L 800.0 259.69456643267074 L 890.0 241.3097239332203 L 980.0 231.7055034656605 L 1070.0 219.81646153140605 L 1160.0 206.2935065715502 L 1250.0 188.2009086783048 L 1340.0 163.98445790048822 L 1430.0 148.44235838866962 L 1520.0 129.03465976750113" fill="none" stroke="#ff7f0e" stroke-width="2" />
<circle cx="80.0" cy="498.45840970226794" r="4" fill="#2ca02c" />
<circle cx="170.0" cy="399.97197741113666" r="4" fill="#2ca02c" />
<circle cx="260.0" cy="368.56896608982095" r="4" fill="#2ca02c" />
<circle cx="350.0" cy="353.1862727268415" r="4" fill="#2ca02c" />
<circle cx="440.0" cy="340.99170234064525" r="4" fill="#2ca02c" />
<circle cx="530.0" cy="319.4320207101481" r="4" fill="#2ca02c" />
<circle cx="620.0" cy="292.14700156717754" r="4" fill="#2ca02c" />
<circle cx="710.0" cy="270.3482107134216" r="4" fill="#2ca02c" />
<circle cx="800.0" cy="252.32203204885934" r="4" fill="#2ca02c" />
<circle cx="890.0" cy="234.03017646956505" r="4" fill="#2ca02c" />
<circle cx="980.0" cy="224.57207830510788" r="4" fill="#2ca02c" />
<circle cx="1070.0" cy="212.68303637085342" r="4" fill="#2ca02c" />
<circle cx="1160.0" cy="199.19993294820733" r="4" fill="#2ca02c" />
<circle cx="1250.0" cy="181.50585042705984" r="4" fill="#2ca02c" />
<circle cx="1340.0" cy="157.80746963297054" r="4" fill="#2ca02c" />
<circle cx="1430.0" cy="142.33178934983482" r="4" fill="#2ca02c" />
<circle cx="1520.0" cy="122.93737457440307" r="4" fill="#2ca02c" />
<path d="M 80.0 498.45840970226794 L 170.0 399.97197741113666 L 260.0 368.56896608982095 L 350.0 353.1862727268415 L 440.0 340.99170234064525 L 530.0 319.4320207101481 L 620.0 292.14700156717754 L 710.0 270.3482107134216 L 800.0 252.32203204885934 L 890.0 234.03017646956505 L 980.0 224.57207830510788 L 1070.0 212.68303637085342 L 1160.0 199.19993294820733 L 1250.0 181.50585042705984 L 1340.0 157.80746963297054 L 1430.0 142.33178934983482 L 1520.0 122.93737457440307" fill="none" stroke="#2ca02c" stroke-width="2" />
<circle cx="80.0" cy="887.9274828535598" r="4" fill="#d62728" />
<circle cx="170.0" cy="752.23299865422" r="4" fill="#d62728" />
<circle cx="260.0" cy="705.274603975349" r="4" fill="#d62728" />
<circle cx="350.0" cy="672.0251380966463" r="4" fill="#d62728" />
<circle cx="440.0" cy="655.4468986173731" r="4" fill="#d62728" />
<circle cx="530.0" cy="622.8084896425539" r="4" fill="#d62728" />
<circle cx="620.0" cy="588.5228837963966" r="4" fill="#d62728" />
<circle cx="710.0" cy="556.9604663262418" r="4" fill="#d62728" />
<circle cx="800.0" cy="530.5123294646769" r="4" fill="#d62728" />
<circle cx="890.0" cy="505.9504986977087" r="4" fill="#d62728" />
<circle cx="980.0" cy="490.48810226030963" r="4" fill="#d62728" />
<circle cx="1070.0" cy="475.1718281260131" r="4" fill="#d62728" />
<circle cx="1160.0" cy="453.26676650636443" r="4" fill="#d62728" />
<circle cx="1250.0" cy="420.92060213775034" r="4" fill="#d62728" />
<circle cx="1340.0" cy="386.1169263078658" r="4" fill="#d62728" />
<circle cx="1430.0" cy="363.7336462416996" r="4" fill="#d62728" />
<circle cx="1520.0" cy="331.97197108549585" r="4" fill="#d62728" />
<path d="M 80.0 887.9274828535598 L 170.0 752.23299865422 L 260.0 705.274603975349 L 350.0 672.0251380966463 L 440.0 655.4468986173731 L 530.0 622.8084896425539 L 620.0 588.5228837963966 L 710.0 556.9604663262418 L 800.0 530.5123294646769 L 890.0 505.9504986977087 L 980.0 490.48810226030963 L 1070.0 475.1718281260131 L 1160.0 453.26676650636443 L 1250.0 420.92060213775034 L 1340.0 386.1169263078658 L 1430.0 363.7336462416996 L 1520.0 331.97197108549585" fill="none" stroke="#d62728" stroke-width="2" />
<circle cx="80.0" cy="897.8239479273248" r="4" fill="#9467bd" />
<circle cx="170.0" cy="761.6113937442575" r="4" fill="#9467bd" />
<circle cx="260.0" cy="706.3904470172231" r="4" fill="#9467bd" />
<circle cx="350.0" cy="673.0347103726276" r="4" fill="#9467bd" />
<circle cx="440.0" cy="658.1568031476388" r="4" fill="#9467bd" />
<circle cx="530.0" cy="625.2394334123512" r="4" fill="#9467bd" />
<circle cx="620.0" cy="589.3730499235388" r="4" fill="#9467bd" />
<circle cx="710.0" cy="556.920614789032" r="4" fill="#9467bd" />
<circle cx="800.0" cy="530.180233321262" r="4" fill="#9467bd" />
<circle cx="890.0" cy="505.89736331476234" r="4" fill="#9467bd" />
<circle cx="980.0" cy="490.4216830316266" r="4" fill="#9467bd" />
<circle cx="1070.0" cy="474.99913813143735" r="4" fill="#9467bd" />
<circle cx="1160.0" cy="452.0845042358073" r="4" fill="#9467bd" />
<circle cx="1250.0" cy="419.97744909045196" r="4" fill="#9467bd" />
<circle cx="1340.0" cy="384.49629712800095" r="4" fill="#9467bd" />
<circle cx="1430.0" cy="361.5019601579513" r="4" fill="#9467bd" />
<circle cx="1520.0" cy="333.89812871730237" r="4" fill="#9467bd" />
<path d="M 80.0 897.8239479273248 L 170.0 761.6113937442575 L 260.0 706.3904470172231 L 350.0 673.0347103726276 L 440.0 658.1568031476388 L 530.0 625.2394334123512 L 620.0 589.3730499235388 L 710.0 556.920614789032 L 800.0 530.180233321262 L 890.0 505.89736331476234 L 980.0 490.4216830316266 L 1070.0 474.99913813143735 L 1160.0 452.0845042358073 L 1250.0 419.97744909045196 L 1340.0 384.49629712800095 L 1430.0 361.5019601579513 L 1520.0 333.89812871730237" fill="none" stroke="#9467bd" stroke-width="2" />
<circle cx="80.0" cy="563.3898476627548" r="4" fill="#66ffbd" />
<circle cx="170.0" cy="602.5107733570335" r="4" fill="#66ffbd" />
<circle cx="260.0" cy="626.4615472201181" r="4" fill="#66ffbd" />
<circle cx="350.0" cy="644.3947389645243" r="4" fill="#66ffbd" />
<circle cx="440.0" cy="648.9245303607039" r="4" fill="#66ffbd" />
<circle cx="530.0" cy="660.6807338375922" r="4" fill="#66ffbd" />
<circle cx="620.0" cy="669.3550851035902" r="4" fill="#66ffbd" />
<circle cx="710.0" cy="680.6994893626443" r="4" fill="#66ffbd" />
<circle cx="800.0" cy="689.6926529263205" r="4" fill="#66ffbd" />
<circle cx="890.0" cy="696.042331188414" r="4" fill="#66ffbd" />
<circle cx="980.0" cy="702.073197152829" r="4" fill="#66ffbd" />
<circle cx="1070.0" cy="705.5137131986078" r="4" fill="#66ffbd" />
<circle cx="1160.0" cy="715.0780821289577" r="4" fill="#66ffbd" />
<circle cx="1250.0" cy="730.1153955027856" r="4" fill="#66ffbd" />
<circle cx="1340.0" cy="741.8184635967277" r="4" fill="#66ffbd" />
<circle cx="1430.0" cy="749.8419064216324" r="4" fill="#66ffbd" />
<circle cx="1520.0" cy="762.6076821745023" r="4" fill="#66ffbd" />
<path d="M 80.0 563.3898476627548 L 170.0 602.5107733570335 L 260.0 626.4615472201181 L 350.0 644.3947389645243 L 440.0 648.9245303607039 L 530.0 660.6807338375922 L 620.0 669.3550851035902 L 710.0 680.6994893626443 L 800.0 689.6926529263205 L 890.0 696.042331188414 L 980.0 702.073197152829 L 1070.0 705.5137131986078 L 1160.0 715.0780821289577 L 1250.0 730.1153955027856 L 1340.0 741.8184635967277 L 1430.0 749.8419064216324 L 1520.0 762.6076821745023" fill="none" stroke="#66ffbd" stroke-width="2" />
<text x="80.0" y="940" text-anchor="middle">08-07</text>
<text x="170.0" y="940" text-anchor="middle">08-08</text>
<text x="260.0" y="940" text-anchor="middle">08-09</text>
<text x="350.0" y="940" text-anchor="middle">08-10</text>
<text x="440.0" y="940" text-anchor="middle">08-11</text>
<text x="530.0" y="940" text-anchor="middle">08-12</text>
<text x="620.0" y="940" text-anchor="middle">08-13</text>
<text x="710.0" y="940" text-anchor="middle">08-14</text>
<text x="800.0" y="940" text-anchor="middle">08-15</text>
<text x="890.0" y="940" text-anchor="middle">08-16</text>
<text x="980.0" y="940" text-anchor="middle">08-17</text>
<text x="1070.0" y="940" text-anchor="middle">08-18</text>
<text x="1160.0" y="940" text-anchor="middle">08-19</text>
<text x="1250.0" y="940" text-anchor="middle">08-20</text>
<text x="1340.0" y="940" text-anchor="middle">08-21</text>
<text x="1430.0" y="940" text-anchor="middle">08-22</text>
<text x="1520.0" y="940" text-anchor="middle">08-23</text>
<rect x="90" y="100" width="130" height="185" class="legend-box" />
<text x="100" y="120" class="legend-item">图例:</text>
<rect x="100" y="137" width="15" height="15" fill="#1f77b4" rx="3" />
<text x="120" y="145" class="legend-item">构件聚合数据</text>
<rect x="100" y="162" width="15" height="15" fill="#ff7f0e" rx="3" />
<text x="120" y="170" class="legend-item">构件基本信息</text>
<rect x="100" y="187" width="15" height="15" fill="#2ca02c" rx="3" />
<text x="120" y="195" class="legend-item">构件徽标</text>
<rect x="100" y="212" width="15" height="15" fill="#d62728" rx="3" />
<text x="120" y="220" class="legend-item">构件扩展元数据</text>
<rect x="100" y="237" width="15" height="15" fill="#9467bd" rx="3" />
<text x="120" y="245" class="legend-item">构件版本信息</text>
<rect x="100" y="262" width="15" height="15" fill="#66ffbd" rx="3" />
<text x="120" y="270" class="legend-item">数据量偏差</text>
<text x="1520" y="990" text-anchor="end" font-size="10" fill="#666">生成时间: 2025-08-23 00:25:48</text>
</svg>