<svg xmlns="http://www.w3.org/2000/svg" width="1600" height="1000" viewBox="0 0 1600 1000">
<style>
  text {
    font-family: Arial, sans-serif;
    font-size: 12px;
    fill: #333;
  }
  .axis-label { font-size: 14px; }
  .title { font-size: 18px; font-weight: bold; }
  .legend-item { font-size: 11px; }
  .legend-box { fill: white; fill-opacity: 0.85; stroke: #cccccc; stroke-width: 1; rx: 5; }
</style>
<text x="800.0" y="30" text-anchor="middle" class="title">Daily Data Growth Trend</text>
<text x="800.0" y="980" text-anchor="middle" class="axis-label">Date</text>
<g transform="rotate(-90)">
<text x="-500.0" y="20" text-anchor="middle" class="axis-label">Count</text>
</g>
<rect x="0" y="0" width="1600" height="1000" fill="#f8f8f8" />
<line x1="80" y1="920.0" x2="1520" y2="920.0" stroke="#e0e0e0" stroke-width="1" />
<text x="70" y="925.0" text-anchor="end">0</text>
<line x1="80" y1="752.0" x2="1520" y2="752.0" stroke="#e0e0e0" stroke-width="1" />
<text x="70" y="757.0" text-anchor="end">16.4k</text>
<line x1="80" y1="584.0" x2="1520" y2="584.0" stroke="#e0e0e0" stroke-width="1" />
<text x="70" y="589.0" text-anchor="end">32.8k</text>
<line x1="80" y1="416.0" x2="1520" y2="416.0" stroke="#e0e0e0" stroke-width="1" />
<text x="70" y="421.0" text-anchor="end">49.2k</text>
<line x1="80" y1="248.0" x2="1520" y2="248.0" stroke="#e0e0e0" stroke-width="1" />
<text x="70" y="253.0" text-anchor="end">65.5k</text>
<line x1="80" y1="80.0" x2="1520" y2="80.0" stroke="#e0e0e0" stroke-width="1" />
<text x="70" y="85.0" text-anchor="end">81.9k</text>
<line x1="80" y1="80" x2="80" y2="920" stroke="#333333" stroke-width="2" />
<line x1="80" y1="920" x2="1520" y2="920" stroke="#333333" stroke-width="2" />
<circle cx="80.0" cy="920.0" r="4" fill="#1f77b4" />
<circle cx="131.42857142857144" cy="869.8885101366071" r="4" fill="#1f77b4" />
<circle cx="182.85714285714286" cy="763.6886485378168" r="4" fill="#1f77b4" />
<circle cx="234.28571428571428" cy="720.9688084681036" r="4" fill="#1f77b4" />
<circle cx="285.7142857142857" cy="695.2569392828767" r="4" fill="#1f77b4" />
<circle cx="337.14285714285717" cy="682.3497449829562" r="4" fill="#1f77b4" />
<circle cx="388.57142857142856" cy="656.6378757977292" r="4" fill="#1f77b4" />
<circle cx="440.0" cy="628.8858702616808" r="4" fill="#1f77b4" />
<circle cx="491.42857142857144" cy="603.3072763154522" r="4" fill="#1f77b4" />
<circle cx="542.8571428571429" cy="582.4548273829356" r="4" fill="#1f77b4" />
<circle cx="594.2857142857143" cy="563.4374759720122" r="4" fill="#1f77b4" />
<circle cx="645.7142857142858" cy="551.4837122280032" r="4" fill="#1f77b4" />
<circle cx="697.1428571428571" cy="539.652971781531" r="4" fill="#1f77b4" />
<circle cx="748.5714285714286" cy="521.8658533459774" r="4" fill="#1f77b4" />
<circle cx="800.0" cy="496.60506958505266" r="4" fill="#1f77b4" />
<circle cx="851.4285714285714" cy="469.2836455903837" r="4" fill="#1f77b4" />
<circle cx="902.8571428571429" cy="451.14796114514184" r="4" fill="#1f77b4" />
<circle cx="954.2857142857143" cy="426.3280108670579" r="4" fill="#1f77b4" />
<circle cx="1005.7142857142858" cy="416.0760694056437" r="4" fill="#1f77b4" />
<circle cx="1057.1428571428573" cy="406.6340313196812" r="4" fill="#1f77b4" />
<circle cx="1108.5714285714287" cy="386.3249352846195" r="4" fill="#1f77b4" />
<circle cx="1160.0" cy="366.3541533177845" r="4" fill="#1f77b4" />
<circle cx="1211.4285714285716" cy="348.6695542968449" r="4" fill="#1f77b4" />
<circle cx="1262.857142857143" cy="324.2596816772176" r="4" fill="#1f77b4" />
<circle cx="1314.2857142857142" cy="307.4567496219596" r="4" fill="#1f77b4" />
<circle cx="1365.7142857142858" cy="297.1022887459312" r="4" fill="#1f77b4" />
<circle cx="1417.142857142857" cy="285.4253274213804" r="4" fill="#1f77b4" />
<circle cx="1468.5714285714287" cy="270.4267370633313" r="4" fill="#1f77b4" />
<circle cx="1520.0" cy="257.4067714073352" r="4" fill="#1f77b4" />
<path d="M 80.0 920.0 L 131.42857142857144 869.8885101366071 L 182.85714285714286 763.6886485378168 L 234.28571428571428 720.9688084681036 L 285.7142857142857 695.2569392828767 L 337.14285714285717 682.3497449829562 L 388.57142857142856 656.6378757977292 L 440.0 628.8858702616808 L 491.42857142857144 603.3072763154522 L 542.8571428571429 582.4548273829356 L 594.2857142857143 563.4374759720122 L 645.7142857142858 551.4837122280032 L 697.1428571428571 539.652971781531 L 748.5714285714286 521.8658533459774 L 800.0 496.60506958505266 L 851.4285714285714 469.2836455903837 L 902.8571428571429 451.14796114514184 L 954.2857142857143 426.3280108670579 L 1005.7142857142858 416.0760694056437 L 1057.1428571428573 406.6340313196812 L 1108.5714285714287 386.3249352846195 L 1160.0 366.3541533177845 L 1211.4285714285716 348.6695542968449 L 1262.857142857143 324.2596816772176 L 1314.2857142857142 307.4567496219596 L 1365.7142857142858 297.1022887459312 L 1417.142857142857 285.4253274213804 L 1468.5714285714287 270.4267370633313 L 1520.0 257.4067714073352" fill="none" stroke="#1f77b4" stroke-width="2" />
<circle cx="80.0" cy="920.0" r="4" fill="#ff7f0e" />
<circle cx="131.42857142857144" cy="554.251736422585" r="4" fill="#ff7f0e" />
<circle cx="182.85714285714286" cy="477.9465361252787" r="4" fill="#ff7f0e" />
<circle cx="234.28571428571428" cy="453.47515185688286" r="4" fill="#ff7f0e" />
<circle cx="285.7142857142857" cy="441.4188686982597" r="4" fill="#ff7f0e" />
<circle cx="337.14285714285717" cy="431.9870825537586" r="4" fill="#ff7f0e" />
<circle cx="388.57142857142856" cy="415.1738985570392" r="4" fill="#ff7f0e" />
<circle cx="440.0" cy="393.8396083758362" r="4" fill="#ff7f0e" />
<circle cx="491.42857142857144" cy="376.82138554988853" r="4" fill="#ff7f0e" />
<circle cx="542.8571428571429" cy="362.7967296306738" r="4" fill="#ff7f0e" />
<circle cx="594.2857142857143" cy="348.60804264807643" r="4" fill="#ff7f0e" />
<circle cx="645.7142857142858" cy="341.195888971474" r="4" fill="#ff7f0e" />
<circle cx="697.1428571428571" cy="332.0204013635082" r="4" fill="#ff7f0e" />
<circle cx="748.5714285714286" cy="321.58392495578846" r="4" fill="#ff7f0e" />
<circle cx="800.0" cy="307.6207806853423" r="4" fill="#ff7f0e" />
<circle cx="851.4285714285714" cy="288.9314914011841" r="4" fill="#ff7f0e" />
<circle cx="902.8571428571429" cy="276.9367198913294" r="4" fill="#ff7f0e" />
<circle cx="954.2857142857143" cy="261.95863341620316" r="4" fill="#ff7f0e" />
<circle cx="1005.7142857142858" cy="252.84465745700595" r="4" fill="#ff7f0e" />
<circle cx="1057.1428571428573" cy="245.57603096086314" r="4" fill="#ff7f0e" />
<circle cx="1108.5714285714287" cy="229.06015326652482" r="4" fill="#ff7f0e" />
<circle cx="1160.0" cy="215.61985801061076" r="4" fill="#ff7f0e" />
<circle cx="1211.4285714285716" cy="199.70884486249577" r="4" fill="#ff7f0e" />
<circle cx="1262.857142857143" cy="178.8358920470564" r="4" fill="#ff7f0e" />
<circle cx="1314.2857142857142" cy="165.79542250813745" r="4" fill="#ff7f0e" />
<circle cx="1365.7142857142858" cy="150.23297536971063" r="4" fill="#ff7f0e" />
<circle cx="1417.142857142857" cy="146.36799343875748" r="4" fill="#ff7f0e" />
<circle cx="1468.5714285714287" cy="133.20450060230155" r="4" fill="#ff7f0e" />
<circle cx="1520.0" cy="124.39808288694667" r="4" fill="#ff7f0e" />
<path d="M 80.0 920.0 L 131.42857142857144 554.251736422585 L 182.85714285714286 477.9465361252787 L 234.28571428571428 453.47515185688286 L 285.7142857142857 441.4188686982597 L 337.14285714285717 431.9870825537586 L 388.57142857142856 415.1738985570392 L 440.0 393.8396083758362 L 491.42857142857144 376.82138554988853 L 542.8571428571429 362.7967296306738 L 594.2857142857143 348.60804264807643 L 645.7142857142858 341.195888971474 L 697.1428571428571 332.0204013635082 L 748.5714285714286 321.58392495578846 L 800.0 307.6207806853423 L 851.4285714285714 288.9314914011841 L 902.8571428571429 276.9367198913294 L 954.2857142857143 261.95863341620316 L 1005.7142857142858 252.84465745700595 L 1057.1428571428573 245.57603096086314 L 1108.5714285714287 229.06015326652482 L 1160.0 215.61985801061076 L 1211.4285714285716 199.70884486249577 L 1262.857142857143 178.8358920470564 L 1314.2857142857142 165.79542250813745 L 1365.7142857142858 150.23297536971063 L 1417.142857142857 146.36799343875748 L 1468.5714285714287 133.20450060230155 L 1520.0 124.39808288694667" fill="none" stroke="#ff7f0e" stroke-width="2" />
<circle cx="80.0" cy="920.0" r="4" fill="#2ca02c" />
<circle cx="131.42857142857144" cy="547.0651254581336" r="4" fill="#2ca02c" />
<circle cx="182.85714285714286" cy="471.0572314632083" r="4" fill="#2ca02c" />
<circle cx="234.28571428571428" cy="446.82164184842503" r="4" fill="#2ca02c" />
<circle cx="285.7142857142857" cy="434.94989363610733" r="4" fill="#2ca02c" />
<circle cx="337.14285714285717" cy="425.538611374529" r="4" fill="#2ca02c" />
<circle cx="388.57142857142856" cy="408.8997103826537" r="4" fill="#2ca02c" />
<circle cx="440.0" cy="387.84222262090884" r="4" fill="#2ca02c" />
<circle cx="491.42857142857144" cy="371.018786682728" r="4" fill="#2ca02c" />
<circle cx="542.8571428571429" cy="357.1069021195889" r="4" fill="#2ca02c" />
<circle cx="594.2857142857143" cy="342.98997872722146" r="4" fill="#2ca02c" />
<circle cx="645.7142857142858" cy="335.69059640669445" r="4" fill="#2ca02c" />
<circle cx="697.1428571428571" cy="326.51510879872876" r="4" fill="#2ca02c" />
<circle cx="748.5714285714286" cy="316.1093882153933" r="4" fill="#2ca02c" />
<circle cx="800.0" cy="302.4538021887895" r="4" fill="#2ca02c" />
<circle cx="851.4285714285714" cy="284.1643386216265" r="4" fill="#2ca02c" />
<circle cx="902.8571428571429" cy="272.22082681907887" r="4" fill="#2ca02c" />
<circle cx="954.2857142857143" cy="257.25299228541405" r="4" fill="#2ca02c" />
<circle cx="1005.7142857142858" cy="248.1287643847553" r="4" fill="#2ca02c" />
<circle cx="1057.1428571428573" cy="240.88064177153547" r="4" fill="#2ca02c" />
<circle cx="1108.5714285714287" cy="224.4775354332727" r="4" fill="#2ca02c" />
<circle cx="1160.0" cy="211.0679960017428" r="4" fill="#2ca02c" />
<circle cx="1211.4285714285716" cy="195.1774867365507" r="4" fill="#2ca02c" />
<circle cx="1262.857142857143" cy="174.33528974549552" r="4" fill="#2ca02c" />
<circle cx="1314.2857142857142" cy="161.3358279724223" r="4" fill="#2ca02c" />
<circle cx="1365.7142857142858" cy="145.7836327754568" r="4" fill="#2ca02c" />
<circle cx="1417.142857142857" cy="141.92890278596508" r="4" fill="#2ca02c" />
<circle cx="1468.5714285714287" cy="128.77566189097058" r="4" fill="#2ca02c" />
<circle cx="1520.0" cy="120.0" r="4" fill="#2ca02c" />
<path d="M 80.0 920.0 L 131.42857142857144 547.0651254581336 L 182.85714285714286 471.0572314632083 L 234.28571428571428 446.82164184842503 L 285.7142857142857 434.94989363610733 L 337.14285714285717 425.538611374529 L 388.57142857142856 408.8997103826537 L 440.0 387.84222262090884 L 491.42857142857144 371.018786682728 L 542.8571428571429 357.1069021195889 L 594.2857142857143 342.98997872722146 L 645.7142857142858 335.69059640669445 L 697.1428571428571 326.51510879872876 L 748.5714285714286 316.1093882153933 L 800.0 302.4538021887895 L 851.4285714285714 284.1643386216265 L 902.8571428571429 272.22082681907887 L 954.2857142857143 257.25299228541405 L 1005.7142857142858 248.1287643847553 L 1057.1428571428573 240.88064177153547 L 1108.5714285714287 224.4775354332727 L 1160.0 211.0679960017428 L 1211.4285714285716 195.1774867365507 L 1262.857142857143 174.33528974549552 L 1314.2857142857142 161.3358279724223 L 1365.7142857142858 145.7836327754568 L 1417.142857142857 141.92890278596508 L 1468.5714285714287 128.77566189097058 L 1520.0 120.0" fill="none" stroke="#2ca02c" stroke-width="2" />
<circle cx="80.0" cy="920.0" r="4" fill="#d62728" />
<circle cx="131.42857142857144" cy="847.6417971653382" r="4" fill="#d62728" />
<circle cx="182.85714285714286" cy="742.9182151369915" r="4" fill="#d62728" />
<circle cx="234.28571428571428" cy="706.6776020708921" r="4" fill="#d62728" />
<circle cx="285.7142857142857" cy="681.0169925929723" r="4" fill="#d62728" />
<circle cx="337.14285714285717" cy="668.2225696491273" r="4" fill="#d62728" />
<circle cx="388.57142857142856" cy="643.0335494784324" r="4" fill="#d62728" />
<circle cx="440.0" cy="616.5732885665223" r="4" fill="#d62728" />
<circle cx="491.42857142857144" cy="592.214675654202" r="4" fill="#d62728" />
<circle cx="542.8571428571429" cy="571.8030602045262" r="4" fill="#d62728" />
<circle cx="594.2857142857143" cy="552.8472204423713" r="4" fill="#d62728" />
<circle cx="645.7142857142858" cy="540.913960581285" r="4" fill="#d62728" />
<circle cx="697.1428571428571" cy="529.0934720762745" r="4" fill="#d62728" />
<circle cx="748.5714285714286" cy="512.1880206064023" r="4" fill="#d62728" />
<circle cx="800.0" cy="487.2245431478586" r="4" fill="#d62728" />
<circle cx="851.4285714285714" cy="460.36445651895326" r="4" fill="#d62728" />
<circle cx="902.8571428571429" cy="443.08993515647023" r="4" fill="#d62728" />
<circle cx="954.2857142857143" cy="418.57754312222875" r="4" fill="#d62728" />
<circle cx="1005.7142857142858" cy="408.32560166081447" r="4" fill="#d62728" />
<circle cx="1057.1428571428573" cy="398.9860829894661" r="4" fill="#d62728" />
<circle cx="1108.5714285714287" cy="378.9230335494784" r="4" fill="#d62728" />
<circle cx="1160.0" cy="360.1619806750904" r="4" fill="#d62728" />
<circle cx="1211.4285714285716" cy="342.5491452443806" r="4" fill="#d62728" />
<circle cx="1262.857142857143" cy="318.15977650767616" r="4" fill="#d62728" />
<circle cx="1314.2857142857142" cy="301.91044929133454" r="4" fill="#d62728" />
<circle cx="1365.7142857142858" cy="291.55598841530616" r="4" fill="#d62728" />
<circle cx="1417.142857142857" cy="279.8687751492939" r="4" fill="#d62728" />
<circle cx="1468.5714285714287" cy="264.8701847912448" r="4" fill="#d62728" />
<circle cx="1520.0" cy="252.72163415946898" r="4" fill="#d62728" />
<path d="M 80.0 920.0 L 131.42857142857144 847.6417971653382 L 182.85714285714286 742.9182151369915 L 234.28571428571428 706.6776020708921 L 285.7142857142857 681.0169925929723 L 337.14285714285717 668.2225696491273 L 388.57142857142856 643.0335494784324 L 440.0 616.5732885665223 L 491.42857142857144 592.214675654202 L 542.8571428571429 571.8030602045262 L 594.2857142857143 552.8472204423713 L 645.7142857142858 540.913960581285 L 697.1428571428571 529.0934720762745 L 748.5714285714286 512.1880206064023 L 800.0 487.2245431478586 L 851.4285714285714 460.36445651895326 L 902.8571428571429 443.08993515647023 L 954.2857142857143 418.57754312222875 L 1005.7142857142858 408.32560166081447 L 1057.1428571428573 398.9860829894661 L 1108.5714285714287 378.9230335494784 L 1160.0 360.1619806750904 L 1211.4285714285716 342.5491452443806 L 1262.857142857143 318.15977650767616 L 1314.2857142857142 301.91044929133454 L 1365.7142857142858 291.55598841530616 L 1417.142857142857 279.8687751492939 L 1468.5714285714287 264.8701847912448 L 1520.0 252.72163415946898" fill="none" stroke="#d62728" stroke-width="2" />
<circle cx="80.0" cy="920.0" r="4" fill="#9467bd" />
<circle cx="131.42857142857144" cy="855.2794935540918" r="4" fill="#9467bd" />
<circle cx="182.85714285714286" cy="750.15608580875" r="4" fill="#9467bd" />
<circle cx="234.28571428571428" cy="707.538765153651" r="4" fill="#9467bd" />
<circle cx="285.7142857142857" cy="681.7961401440398" r="4" fill="#9467bd" />
<circle cx="337.14285714285717" cy="670.3139657072558" r="4" fill="#9467bd" />
<circle cx="388.57142857142856" cy="644.9096547658712" r="4" fill="#9467bd" />
<circle cx="440.0" cy="617.2294128200529" r="4" fill="#9467bd" />
<circle cx="491.42857142857144" cy="592.1839198298178" r="4" fill="#9467bd" />
<circle cx="542.8571428571429" cy="571.5467616679908" r="4" fill="#9467bd" />
<circle cx="594.2857142857143" cy="552.8062126765255" r="4" fill="#9467bd" />
<circle cx="645.7142857142858" cy="540.8627008739779" r="4" fill="#9467bd" />
<circle cx="697.1428571428571" cy="528.960196837276" r="4" fill="#9467bd" />
<circle cx="748.5714285714286" cy="511.2755978163365" r="4" fill="#9467bd" />
<circle cx="800.0" cy="486.4966553040982" r="4" fill="#9467bd" />
<circle cx="851.4285714285714" cy="459.1137196606607" r="4" fill="#9467bd" />
<circle cx="902.8571428571429" cy="441.36760899095265" r="4" fill="#9467bd" />
<circle cx="954.2857142857143" cy="420.0640746341338" r="4" fill="#9467bd" />
<circle cx="1005.7142857142858" cy="409.80188123125816" r="4" fill="#9467bd" />
<circle cx="1057.1428571428573" cy="400.3598431452956" r="4" fill="#9467bd" />
<circle cx="1108.5714285714287" cy="379.9994874029269" r="4" fill="#9467bd" />
<circle cx="1160.0" cy="360.65407386523816" r="4" fill="#9467bd" />
<circle cx="1211.4285714285716" cy="343.0617423174514" r="4" fill="#9467bd" />
<circle cx="1262.857142857143" cy="318.58010610759413" r="4" fill="#9467bd" />
<circle cx="1314.2857142857142" cy="302.09498423764" r="4" fill="#9467bd" />
<circle cx="1365.7142857142858" cy="291.7712791859958" r="4" fill="#9467bd" />
<circle cx="1417.142857142857" cy="280.0840659199836" r="4" fill="#9467bd" />
<circle cx="1468.5714285714287" cy="265.0649716790117" r="4" fill="#9467bd" />
<circle cx="1520.0" cy="252.51659533024065" r="4" fill="#9467bd" />
<path d="M 80.0 920.0 L 131.42857142857144 855.2794935540918 L 182.85714285714286 750.15608580875 L 234.28571428571428 707.538765153651 L 285.7142857142857 681.7961401440398 L 337.14285714285717 670.3139657072558 L 388.57142857142856 644.9096547658712 L 440.0 617.2294128200529 L 491.42857142857144 592.1839198298178 L 542.8571428571429 571.5467616679908 L 594.2857142857143 552.8062126765255 L 645.7142857142858 540.8627008739779 L 697.1428571428571 528.960196837276 L 748.5714285714286 511.2755978163365 L 800.0 486.4966553040982 L 851.4285714285714 459.1137196606607 L 902.8571428571429 441.36760899095265 L 954.2857142857143 420.0640746341338 L 1005.7142857142858 409.80188123125816 L 1057.1428571428573 400.3598431452956 L 1108.5714285714287 379.9994874029269 L 1160.0 360.65407386523816 L 1211.4285714285716 343.0617423174514 L 1262.857142857143 318.58010610759413 L 1314.2857142857142 302.09498423764 L 1365.7142857142858 291.7712791859958 L 1417.142857142857 280.0840659199836 L 1468.5714285714287 265.0649716790117 L 1520.0 252.51659533024065" fill="none" stroke="#9467bd" stroke-width="2" />
<circle cx="80.0" cy="920.0" r="4" fill="#66ffbd" />
<circle cx="131.42857142857144" cy="597.1766153215265" r="4" fill="#66ffbd" />
<circle cx="182.85714285714286" cy="627.3685829253915" r="4" fill="#66ffbd" />
<circle cx="234.28571428571428" cy="645.8528333803214" r="4" fill="#66ffbd" />
<circle cx="285.7142857142857" cy="659.6929543532306" r="4" fill="#66ffbd" />
<circle cx="337.14285714285717" cy="663.1888663915729" r="4" fill="#66ffbd" />
<circle cx="388.57142857142856" cy="672.2618345849245" r="4" fill="#66ffbd" />
<circle cx="440.0" cy="678.956352359228" r="4" fill="#66ffbd" />
<circle cx="491.42857142857144" cy="687.7115103672758" r="4" fill="#66ffbd" />
<circle cx="542.8571428571429" cy="694.6520747366533" r="4" fill="#66ffbd" />
<circle cx="594.2857142857143" cy="699.5525027552093" r="4" fill="#66ffbd" />
<circle cx="645.7142857142858" cy="704.2068841786913" r="4" fill="#66ffbd" />
<circle cx="697.1428571428571" cy="706.8621370171976" r="4" fill="#66ffbd" />
<circle cx="748.5714285714286" cy="714.243534869416" r="4" fill="#66ffbd" />
<circle cx="800.0" cy="725.8487326037368" r="4" fill="#66ffbd" />
<circle cx="851.4285714285714" cy="734.8806930312428" r="4" fill="#66ffbd" />
<circle cx="902.8571428571429" cy="741.072865673937" r="4" fill="#66ffbd" />
<circle cx="954.2857142857143" cy="750.9249814183561" r="4" fill="#66ffbd" />
<circle cx="1005.7142857142858" cy="752.0526949791117" r="4" fill="#66ffbd" />
<circle cx="1057.1428571428573" cy="754.2466104518543" r="4" fill="#66ffbd" />
<circle cx="1108.5714285714287" cy="758.1526001486532" r="4" fill="#66ffbd" />
<circle cx="1160.0" cy="764.7138426839583" r="4" fill="#66ffbd" />
<circle cx="1211.4285714285716" cy="766.5079324397058" r="4" fill="#66ffbd" />
<circle cx="1262.857142857143" cy="770.0756080682779" r="4" fill="#66ffbd" />
<circle cx="1314.2857142857142" cy="773.8790783504626" r="4" fill="#66ffbd" />
<circle cx="1365.7142857142858" cy="768.6813440295256" r="4" fill="#66ffbd" />
<circle cx="1417.142857142857" cy="776.5035753645847" r="4" fill="#66ffbd" />
<circle cx="1468.5714285714287" cy="778.3489248276392" r="4" fill="#66ffbd" />
<circle cx="1520.0" cy="782.5932285926647" r="4" fill="#66ffbd" />
<path d="M 80.0 920.0 L 131.42857142857144 597.1766153215265 L 182.85714285714286 627.3685829253915 L 234.28571428571428 645.8528333803214 L 285.7142857142857 659.6929543532306 L 337.14285714285717 663.1888663915729 L 388.57142857142856 672.2618345849245 L 440.0 678.956352359228 L 491.42857142857144 687.7115103672758 L 542.8571428571429 694.6520747366533 L 594.2857142857143 699.5525027552093 L 645.7142857142858 704.2068841786913 L 697.1428571428571 706.8621370171976 L 748.5714285714286 714.243534869416 L 800.0 725.8487326037368 L 851.4285714285714 734.8806930312428 L 902.8571428571429 741.072865673937 L 954.2857142857143 750.9249814183561 L 1005.7142857142858 752.0526949791117 L 1057.1428571428573 754.2466104518543 L 1108.5714285714287 758.1526001486532 L 1160.0 764.7138426839583 L 1211.4285714285716 766.5079324397058 L 1262.857142857143 770.0756080682779 L 1314.2857142857142 773.8790783504626 L 1365.7142857142858 768.6813440295256 L 1417.142857142857 776.5035753645847 L 1468.5714285714287 778.3489248276392 L 1520.0 782.5932285926647" fill="none" stroke="#66ffbd" stroke-width="2" />
<text x="80.0" y="940" text-anchor="middle">08-06</text>
<text x="131.42857142857144" y="940" text-anchor="middle">08-07</text>
<text x="182.85714285714286" y="940" text-anchor="middle">08-08</text>
<text x="234.28571428571428" y="940" text-anchor="middle">08-09</text>
<text x="285.7142857142857" y="940" text-anchor="middle">08-10</text>
<text x="337.14285714285717" y="940" text-anchor="middle">08-11</text>
<text x="388.57142857142856" y="940" text-anchor="middle">08-12</text>
<text x="440.0" y="940" text-anchor="middle">08-13</text>
<text x="491.42857142857144" y="940" text-anchor="middle">08-14</text>
<text x="542.8571428571429" y="940" text-anchor="middle">08-15</text>
<text x="594.2857142857143" y="940" text-anchor="middle">08-16</text>
<text x="645.7142857142858" y="940" text-anchor="middle">08-17</text>
<text x="697.1428571428571" y="940" text-anchor="middle">08-18</text>
<text x="748.5714285714286" y="940" text-anchor="middle">08-19</text>
<text x="800.0" y="940" text-anchor="middle">08-20</text>
<text x="851.4285714285714" y="940" text-anchor="middle">08-21</text>
<text x="902.8571428571429" y="940" text-anchor="middle">08-22</text>
<text x="954.2857142857143" y="940" text-anchor="middle">08-23</text>
<text x="1005.7142857142858" y="940" text-anchor="middle">08-24</text>
<text x="1057.1428571428573" y="940" text-anchor="middle">08-25</text>
<text x="1108.5714285714287" y="940" text-anchor="middle">08-26</text>
<text x="1160.0" y="940" text-anchor="middle">08-27</text>
<text x="1211.4285714285716" y="940" text-anchor="middle">08-28</text>
<text x="1262.857142857143" y="940" text-anchor="middle">08-29</text>
<text x="1314.2857142857142" y="940" text-anchor="middle">08-30</text>
<text x="1365.7142857142858" y="940" text-anchor="middle">08-31</text>
<text x="1417.142857142857" y="940" text-anchor="middle">09-01</text>
<text x="1468.5714285714287" y="940" text-anchor="middle">09-02</text>
<text x="1520.0" y="940" text-anchor="middle">09-03</text>
<rect x="90" y="100" width="130" height="185" class="legend-box" />
<text x="100" y="120" class="legend-item">图例:</text>
<rect x="100" y="137" width="15" height="15" fill="#1f77b4" rx="3" />
<text x="120" y="145" class="legend-item">构件聚合数据</text>
<rect x="100" y="162" width="15" height="15" fill="#ff7f0e" rx="3" />
<text x="120" y="170" class="legend-item">构件基本信息</text>
<rect x="100" y="187" width="15" height="15" fill="#2ca02c" rx="3" />
<text x="120" y="195" class="legend-item">构件徽标</text>
<rect x="100" y="212" width="15" height="15" fill="#d62728" rx="3" />
<text x="120" y="220" class="legend-item">构件扩展元数据</text>
<rect x="100" y="237" width="15" height="15" fill="#9467bd" rx="3" />
<text x="120" y="245" class="legend-item">构件版本信息</text>
<rect x="100" y="262" width="15" height="15" fill="#66ffbd" rx="3" />
<text x="120" y="270" class="legend-item">数据量偏差</text>
<text x="1520" y="990" text-anchor="end" font-size="10" fill="#666">生成时间: 2025-09-03 12:25:58</text>
</svg>