<svg xmlns="http://www.w3.org/2000/svg" width="1600" height="1000" viewBox="0 0 1600 1000">
<style>
  text {
    font-family: Arial, sans-serif;
    font-size: 12px;
    fill: #333;
  }
  .axis-label { font-size: 14px; }
  .title { font-size: 18px; font-weight: bold; }
  .legend-item { font-size: 11px; }
  .legend-box { fill: white; fill-opacity: 0.85; stroke: #cccccc; stroke-width: 1; rx: 5; }
</style>
<text x="800.0" y="30" text-anchor="middle" class="title">Daily Data Growth Trend</text>
<text x="800.0" y="980" text-anchor="middle" class="axis-label">Date</text>
<g transform="rotate(-90)">
<text x="-500.0" y="20" text-anchor="middle" class="axis-label">Count</text>
</g>
<rect x="0" y="0" width="1600" height="1000" fill="#f8f8f8" />
<line x1="80" y1="920.0" x2="1520" y2="920.0" stroke="#e0e0e0" stroke-width="1" />
<text x="70" y="925.0" text-anchor="end">0</text>
<line x1="80" y1="752.0" x2="1520" y2="752.0" stroke="#e0e0e0" stroke-width="1" />
<text x="70" y="757.0" text-anchor="end">15.5k</text>
<line x1="80" y1="584.0" x2="1520" y2="584.0" stroke="#e0e0e0" stroke-width="1" />
<text x="70" y="589.0" text-anchor="end">31.1k</text>
<line x1="80" y1="416.0" x2="1520" y2="416.0" stroke="#e0e0e0" stroke-width="1" />
<text x="70" y="421.0" text-anchor="end">46.6k</text>
<line x1="80" y1="248.0" x2="1520" y2="248.0" stroke="#e0e0e0" stroke-width="1" />
<text x="70" y="253.0" text-anchor="end">62.2k</text>
<line x1="80" y1="80.0" x2="1520" y2="80.0" stroke="#e0e0e0" stroke-width="1" />
<text x="70" y="85.0" text-anchor="end">77.7k</text>
<line x1="80" y1="80" x2="80" y2="920" stroke="#333333" stroke-width="2" />
<line x1="80" y1="920" x2="1520" y2="920" stroke="#333333" stroke-width="2" />
<circle cx="80.0" cy="920.0" r="4" fill="#1f77b4" />
<circle cx="140.0" cy="867.1581849139212" r="4" fill="#1f77b4" />
<circle cx="200.0" cy="755.1720223777736" r="4" fill="#1f77b4" />
<circle cx="260.0" cy="710.1245912272641" r="4" fill="#1f77b4" />
<circle cx="320.0" cy="683.0118104916083" r="4" fill="#1f77b4" />
<circle cx="380.0" cy="669.4013675306073" r="4" fill="#1f77b4" />
<circle cx="440.0" cy="642.2885867949515" r="4" fill="#1f77b4" />
<circle cx="500.0" cy="613.024512851004" r="4" fill="#1f77b4" />
<circle cx="560.0" cy="586.0522688575984" r="4" fill="#1f77b4" />
<circle cx="620.0" cy="564.0636739547581" r="4" fill="#1f77b4" />
<circle cx="680.0" cy="544.0101618875166" r="4" fill="#1f77b4" />
<circle cx="740.0" cy="531.4050971595362" r="4" fill="#1f77b4" />
<circle cx="800.0" cy="518.9297586551716" r="4" fill="#1f77b4" />
<circle cx="860.0" cy="500.17350882408584" r="4" fill="#1f77b4" />
<circle cx="920.0" cy="473.53639090835384" r="4" fill="#1f77b4" />
<circle cx="980.0" cy="444.72635874706094" r="4" fill="#1f77b4" />
<circle cx="1040.0" cy="425.6025512823978" r="4" fill="#1f77b4" />
<circle cx="1100.0" cy="399.430285667955" r="4" fill="#1f77b4" />
<circle cx="1160.0" cy="388.61976703332346" r="4" fill="#1f77b4" />
<circle cx="1220.0" cy="378.6632793708278" r="4" fill="#1f77b4" />
<circle cx="1280.0" cy="357.24764195562284" r="4" fill="#1f77b4" />
<circle cx="1340.0" cy="336.18875165536076" r="4" fill="#1f77b4" />
<circle cx="1400.0" cy="317.54060701062133" r="4" fill="#1f77b4" />
<circle cx="1460.0" cy="291.80076214156384" r="4" fill="#1f77b4" />
<circle cx="1520.0" cy="274.08232209940275" r="4" fill="#1f77b4" />
<path d="M 80.0 920.0 L 140.0 867.1581849139212 L 200.0 755.1720223777736 L 260.0 710.1245912272641 L 320.0 683.0118104916083 L 380.0 669.4013675306073 L 440.0 642.2885867949515 L 500.0 613.024512851004 L 560.0 586.0522688575984 L 620.0 564.0636739547581 L 680.0 544.0101618875166 L 740.0 531.4050971595362 L 800.0 518.9297586551716 L 860.0 500.17350882408584 L 920.0 473.53639090835384 L 980.0 444.72635874706094 L 1040.0 425.6025512823978 L 1100.0 399.430285667955 L 1160.0 388.61976703332346 L 1220.0 378.6632793708278 L 1280.0 357.24764195562284 L 1340.0 336.18875165536076 L 1400.0 317.54060701062133 L 1460.0 291.80076214156384 L 1520.0 274.08232209940275" fill="none" stroke="#1f77b4" stroke-width="2" />
<circle cx="80.0" cy="920.0" r="4" fill="#ff7f0e" />
<circle cx="140.0" cy="534.3239371908867" r="4" fill="#ff7f0e" />
<circle cx="200.0" cy="453.8612469933245" r="4" fill="#ff7f0e" />
<circle cx="260.0" cy="428.05653901245915" r="4" fill="#ff7f0e" />
<circle cx="320.0" cy="415.34336909813254" r="4" fill="#ff7f0e" />
<circle cx="380.0" cy="405.3976919542715" r="4" fill="#ff7f0e" />
<circle cx="440.0" cy="387.66844139347586" r="4" fill="#ff7f0e" />
<circle cx="500.0" cy="365.17175211480776" r="4" fill="#ff7f0e" />
<circle cx="560.0" cy="347.2262911813194" r="4" fill="#ff7f0e" />
<circle cx="620.0" cy="332.4375016891436" r="4" fill="#ff7f0e" />
<circle cx="680.0" cy="317.47574389881356" r="4" fill="#ff7f0e" />
<circle cx="740.0" cy="309.65973892597503" r="4" fill="#ff7f0e" />
<circle cx="800.0" cy="299.9843247479798" r="4" fill="#ff7f0e" />
<circle cx="860.0" cy="288.979216777925" r="4" fill="#ff7f0e" />
<circle cx="920.0" cy="274.2552903975569" r="4" fill="#ff7f0e" />
<circle cx="980.0" cy="254.5477149266236" r="4" fill="#ff7f0e" />
<circle cx="1040.0" cy="241.89940812410475" r="4" fill="#ff7f0e" />
<circle cx="1100.0" cy="226.10524039890822" r="4" fill="#ff7f0e" />
<circle cx="1160.0" cy="216.49468933272078" r="4" fill="#ff7f0e" />
<circle cx="1220.0" cy="208.83003162076704" r="4" fill="#ff7f0e" />
<circle cx="1280.0" cy="191.41428610037576" r="4" fill="#ff7f0e" />
<circle cx="1340.0" cy="177.24169617037387" r="4" fill="#ff7f0e" />
<circle cx="1400.0" cy="160.4637712494258" r="4" fill="#ff7f0e" />
<circle cx="1460.0" cy="138.45355530931602" r="4" fill="#ff7f0e" />
<circle cx="1520.0" cy="124.70257560606478" r="4" fill="#ff7f0e" />
<path d="M 80.0 920.0 L 140.0 534.3239371908867 L 200.0 453.8612469933245 L 260.0 428.05653901245915 L 320.0 415.34336909813254 L 380.0 405.3976919542715 L 440.0 387.66844139347586 L 500.0 365.17175211480776 L 560.0 347.2262911813194 L 620.0 332.4375016891436 L 680.0 317.47574389881356 L 740.0 309.65973892597503 L 800.0 299.9843247479798 L 860.0 288.979216777925 L 920.0 274.2552903975569 L 980.0 254.5477149266236 L 1040.0 241.89940812410475 L 1100.0 226.10524039890822 L 1160.0 216.49468933272078 L 1220.0 208.83003162076704 L 1280.0 191.41428610037576 L 1340.0 177.24169617037387 L 1400.0 160.4637712494258 L 1460.0 138.45355530931602 L 1520.0 124.70257560606478" fill="none" stroke="#ff7f0e" stroke-width="2" />
<circle cx="80.0" cy="920.0" r="4" fill="#2ca02c" />
<circle cx="140.0" cy="526.7457636280101" r="4" fill="#2ca02c" />
<circle cx="200.0" cy="446.5965784708522" r="4" fill="#2ca02c" />
<circle cx="260.0" cy="421.0405124185833" r="4" fill="#2ca02c" />
<circle cx="320.0" cy="408.52193183968006" r="4" fill="#2ca02c" />
<circle cx="380.0" cy="398.59787573308836" r="4" fill="#2ca02c" />
<circle cx="440.0" cy="381.0524039890814" r="4" fill="#2ca02c" />
<circle cx="500.0" cy="358.84759871354834" r="4" fill="#2ca02c" />
<circle cx="560.0" cy="341.107537634118" r="4" fill="#2ca02c" />
<circle cx="620.0" cy="326.4376638469231" r="4" fill="#2ca02c" />
<circle cx="680.0" cy="311.55157968703554" r="4" fill="#2ca02c" />
<circle cx="740.0" cy="303.85449041917786" r="4" fill="#2ca02c" />
<circle cx="800.0" cy="294.17907624118277" r="4" fill="#2ca02c" />
<circle cx="860.0" cy="283.20639982703176" r="4" fill="#2ca02c" />
<circle cx="920.0" cy="268.8067890057026" r="4" fill="#2ca02c" />
<circle cx="980.0" cy="249.52082376151998" r="4" fill="#2ca02c" />
<circle cx="1040.0" cy="236.92656955217433" r="4" fill="#2ca02c" />
<circle cx="1100.0" cy="221.14321234561237" r="4" fill="#2ca02c" />
<circle cx="1160.0" cy="211.52185076079036" r="4" fill="#2ca02c" />
<circle cx="1220.0" cy="203.87881408610588" r="4" fill="#2ca02c" />
<circle cx="1280.0" cy="186.58198427069544" r="4" fill="#2ca02c" />
<circle cx="1340.0" cy="172.4418258965975" r="4" fill="#2ca02c" />
<circle cx="1400.0" cy="155.68552201291868" r="4" fill="#2ca02c" />
<circle cx="1460.0" cy="133.70773762871283" r="4" fill="#2ca02c" />
<circle cx="1520.0" cy="120.00000000000011" r="4" fill="#2ca02c" />
<path d="M 80.0 920.0 L 140.0 526.7457636280101 L 200.0 446.5965784708522 L 260.0 421.0405124185833 L 320.0 408.52193183968006 L 380.0 398.59787573308836 L 440.0 381.0524039890814 L 500.0 358.84759871354834 L 560.0 341.107537634118 L 620.0 326.4376638469231 L 680.0 311.55157968703554 L 740.0 303.85449041917786 L 800.0 294.17907624118277 L 860.0 283.20639982703176 L 920.0 268.8067890057026 L 980.0 249.52082376151998 L 1040.0 236.92656955217433 L 1100.0 221.14321234561237 L 1160.0 211.52185076079036 L 1220.0 203.87881408610588 L 1280.0 186.58198427069544 L 1340.0 172.4418258965975 L 1400.0 155.68552201291868 L 1460.0 133.70773762871283 L 1520.0 120.00000000000011" fill="none" stroke="#2ca02c" stroke-width="2" />
<circle cx="80.0" cy="920.0" r="4" fill="#d62728" />
<circle cx="140.0" cy="843.699359476771" r="4" fill="#d62728" />
<circle cx="200.0" cy="733.2699116240102" r="4" fill="#d62728" />
<circle cx="260.0" cy="695.0547282505878" r="4" fill="#d62728" />
<circle cx="320.0" cy="667.9960001081051" r="4" fill="#d62728" />
<circle cx="380.0" cy="654.5044728520851" r="4" fill="#d62728" />
<circle cx="440.0" cy="627.9430285667955" r="4" fill="#d62728" />
<circle cx="500.0" cy="600.0410799708116" r="4" fill="#d62728" />
<circle cx="560.0" cy="574.3552876949273" r="4" fill="#d62728" />
<circle cx="620.0" cy="552.8315450933759" r="4" fill="#d62728" />
<circle cx="680.0" cy="532.8428961379423" r="4" fill="#d62728" />
<circle cx="740.0" cy="520.2594524472312" r="4" fill="#d62728" />
<circle cx="800.0" cy="507.79492446150107" r="4" fill="#d62728" />
<circle cx="860.0" cy="489.96837923299375" r="4" fill="#d62728" />
<circle cx="920.0" cy="463.6447663576661" r="4" fill="#d62728" />
<circle cx="980.0" cy="435.32120753493155" r="4" fill="#d62728" />
<circle cx="1040.0" cy="417.10548363557746" r="4" fill="#d62728" />
<circle cx="1100.0" cy="391.2575335801736" r="4" fill="#d62728" />
<circle cx="1160.0" cy="380.44701494554204" r="4" fill="#d62728" />
<circle cx="1220.0" cy="370.5986324693928" r="4" fill="#d62728" />
<circle cx="1280.0" cy="349.4424475014189" r="4" fill="#d62728" />
<circle cx="1340.0" cy="329.65919840004324" r="4" fill="#d62728" />
<circle cx="1400.0" cy="311.08672738574637" r="4" fill="#d62728" />
<circle cx="1460.0" cy="285.368503553958" r="4" fill="#d62728" />
<circle cx="1520.0" cy="268.2338315180672" r="4" fill="#d62728" />
<path d="M 80.0 920.0 L 140.0 843.699359476771 L 200.0 733.2699116240102 L 260.0 695.0547282505878 L 320.0 667.9960001081051 L 380.0 654.5044728520851 L 440.0 627.9430285667955 L 500.0 600.0410799708116 L 560.0 574.3552876949273 L 620.0 552.8315450933759 L 680.0 532.8428961379423 L 740.0 520.2594524472312 L 800.0 507.79492446150107 L 860.0 489.96837923299375 L 920.0 463.6447663576661 L 980.0 435.32120753493155 L 1040.0 417.10548363557746 L 1100.0 391.2575335801736 L 1160.0 380.44701494554204 L 1220.0 370.5986324693928 L 1280.0 349.4424475014189 L 1340.0 329.65919840004324 L 1400.0 311.08672738574637 L 1460.0 285.368503553958 L 1520.0 268.2338315180672" fill="none" stroke="#d62728" stroke-width="2" />
<circle cx="80.0" cy="920.0" r="4" fill="#9467bd" />
<circle cx="140.0" cy="851.7531958595714" r="4" fill="#9467bd" />
<circle cx="200.0" cy="740.90213778006" r="4" fill="#9467bd" />
<circle cx="260.0" cy="695.9628118158969" r="4" fill="#9467bd" />
<circle cx="320.0" cy="668.8175995243372" r="4" fill="#9467bd" />
<circle cx="380.0" cy="656.70981865355" r="4" fill="#9467bd" />
<circle cx="440.0" cy="629.9213534769331" r="4" fill="#9467bd" />
<circle cx="500.0" cy="600.732953163428" r="4" fill="#9467bd" />
<circle cx="560.0" cy="574.3228561390233" r="4" fill="#9467bd" />
<circle cx="620.0" cy="552.5612821275101" r="4" fill="#9467bd" />
<circle cx="680.0" cy="532.7996540634038" r="4" fill="#9467bd" />
<circle cx="740.0" cy="520.205399854058" r="4" fill="#9467bd" />
<circle cx="800.0" cy="507.65438771925085" r="4" fill="#9467bd" />
<circle cx="860.0" cy="489.00624307451153" r="4" fill="#9467bd" />
<circle cx="920.0" cy="462.8772195346072" r="4" fill="#9467bd" />
<circle cx="980.0" cy="434.0023242615065" r="4" fill="#9467bd" />
<circle cx="1040.0" cy="415.28931650495934" r="4" fill="#9467bd" />
<circle cx="1100.0" cy="392.82505878219513" r="4" fill="#9467bd" />
<circle cx="1160.0" cy="382.003729628929" r="4" fill="#9467bd" />
<circle cx="1220.0" cy="372.0472419664334" r="4" fill="#9467bd" />
<circle cx="1280.0" cy="350.5775519580552" r="4" fill="#9467bd" />
<circle cx="1340.0" cy="330.1781032945056" r="4" fill="#9467bd" />
<circle cx="1400.0" cy="311.627253317478" r="4" fill="#9467bd" />
<circle cx="1460.0" cy="285.81173481797794" r="4" fill="#9467bd" />
<circle cx="1520.0" cy="268.4284208534905" r="4" fill="#9467bd" />
<path d="M 80.0 920.0 L 140.0 851.7531958595714 L 200.0 740.90213778006 L 260.0 695.9628118158969 L 320.0 668.8175995243372 L 380.0 656.70981865355 L 440.0 629.9213534769331 L 500.0 600.732953163428 L 560.0 574.3228561390233 L 620.0 552.5612821275101 L 680.0 532.7996540634038 L 740.0 520.205399854058 L 800.0 507.65438771925085 L 860.0 489.00624307451153 L 920.0 462.8772195346072 L 980.0 434.0023242615065 L 1040.0 415.28931650495934 L 1100.0 392.82505878219513 L 1160.0 382.003729628929 L 1220.0 372.0472419664334 L 1280.0 350.5775519580552 L 1340.0 330.1781032945056 L 1400.0 311.627253317478 L 1460.0 285.81173481797794 L 1520.0 268.4284208534905" fill="none" stroke="#9467bd" stroke-width="2" />
<circle cx="80.0" cy="920.0" r="4" fill="#66ffbd" />
<circle cx="140.0" cy="579.5875787140887" r="4" fill="#66ffbd" />
<circle cx="200.0" cy="611.4245560930785" r="4" fill="#66ffbd" />
<circle cx="260.0" cy="630.9159211913192" r="4" fill="#66ffbd" />
<circle cx="320.0" cy="645.5101213480717" r="4" fill="#66ffbd" />
<circle cx="380.0" cy="649.196508202481" r="4" fill="#66ffbd" />
<circle cx="440.0" cy="658.7638171941298" r="4" fill="#66ffbd" />
<circle cx="500.0" cy="665.8230858625443" r="4" fill="#66ffbd" />
<circle cx="560.0" cy="675.0552687765196" r="4" fill="#66ffbd" />
<circle cx="620.0" cy="682.3739898921651" r="4" fill="#66ffbd" />
<circle cx="680.0" cy="687.541417799519" r="4" fill="#66ffbd" />
<circle cx="740.0" cy="692.4493932596416" r="4" fill="#66ffbd" />
<circle cx="800.0" cy="695.2493175860112" r="4" fill="#66ffbd" />
<circle cx="860.0" cy="703.0328910029459" r="4" fill="#66ffbd" />
<circle cx="920.0" cy="715.2703980973488" r="4" fill="#66ffbd" />
<circle cx="980.0" cy="724.7944650144591" r="4" fill="#66ffbd" />
<circle cx="1040.0" cy="731.3240182697765" r="4" fill="#66ffbd" />
<circle cx="1100.0" cy="741.7129266776574" r="4" fill="#66ffbd" />
<circle cx="1160.0" cy="742.9020837274668" r="4" fill="#66ffbd" />
<circle cx="1220.0" cy="745.215534715278" r="4" fill="#66ffbd" />
<circle cx="1280.0" cy="749.3343423150726" r="4" fill="#66ffbd" />
<circle cx="1340.0" cy="756.2530742412367" r="4" fill="#66ffbd" />
<circle cx="1400.0" cy="758.1449150022972" r="4" fill="#66ffbd" />
<circle cx="1460.0" cy="761.906975487149" r="4" fill="#66ffbd" />
<circle cx="1520.0" cy="765.9176779005973" r="4" fill="#66ffbd" />
<path d="M 80.0 920.0 L 140.0 579.5875787140887 L 200.0 611.4245560930785 L 260.0 630.9159211913192 L 320.0 645.5101213480717 L 380.0 649.196508202481 L 440.0 658.7638171941298 L 500.0 665.8230858625443 L 560.0 675.0552687765196 L 620.0 682.3739898921651 L 680.0 687.541417799519 L 740.0 692.4493932596416 L 800.0 695.2493175860112 L 860.0 703.0328910029459 L 920.0 715.2703980973488 L 980.0 724.7944650144591 L 1040.0 731.3240182697765 L 1100.0 741.7129266776574 L 1160.0 742.9020837274668 L 1220.0 745.215534715278 L 1280.0 749.3343423150726 L 1340.0 756.2530742412367 L 1400.0 758.1449150022972 L 1460.0 761.906975487149 L 1520.0 765.9176779005973" fill="none" stroke="#66ffbd" stroke-width="2" />
<text x="80.0" y="940" text-anchor="middle">08-06</text>
<text x="140.0" y="940" text-anchor="middle">08-07</text>
<text x="200.0" y="940" text-anchor="middle">08-08</text>
<text x="260.0" y="940" text-anchor="middle">08-09</text>
<text x="320.0" y="940" text-anchor="middle">08-10</text>
<text x="380.0" y="940" text-anchor="middle">08-11</text>
<text x="440.0" y="940" text-anchor="middle">08-12</text>
<text x="500.0" y="940" text-anchor="middle">08-13</text>
<text x="560.0" y="940" text-anchor="middle">08-14</text>
<text x="620.0" y="940" text-anchor="middle">08-15</text>
<text x="680.0" y="940" text-anchor="middle">08-16</text>
<text x="740.0" y="940" text-anchor="middle">08-17</text>
<text x="800.0" y="940" text-anchor="middle">08-18</text>
<text x="860.0" y="940" text-anchor="middle">08-19</text>
<text x="920.0" y="940" text-anchor="middle">08-20</text>
<text x="980.0" y="940" text-anchor="middle">08-21</text>
<text x="1040.0" y="940" text-anchor="middle">08-22</text>
<text x="1100.0" y="940" text-anchor="middle">08-23</text>
<text x="1160.0" y="940" text-anchor="middle">08-24</text>
<text x="1220.0" y="940" text-anchor="middle">08-25</text>
<text x="1280.0" y="940" text-anchor="middle">08-26</text>
<text x="1340.0" y="940" text-anchor="middle">08-27</text>
<text x="1400.0" y="940" text-anchor="middle">08-28</text>
<text x="1460.0" y="940" text-anchor="middle">08-29</text>
<text x="1520.0" y="940" text-anchor="middle">08-30</text>
<rect x="90" y="100" width="130" height="185" class="legend-box" />
<text x="100" y="120" class="legend-item">图例:</text>
<rect x="100" y="137" width="15" height="15" fill="#1f77b4" rx="3" />
<text x="120" y="145" class="legend-item">构件聚合数据</text>
<rect x="100" y="162" width="15" height="15" fill="#ff7f0e" rx="3" />
<text x="120" y="170" class="legend-item">构件基本信息</text>
<rect x="100" y="187" width="15" height="15" fill="#2ca02c" rx="3" />
<text x="120" y="195" class="legend-item">构件徽标</text>
<rect x="100" y="212" width="15" height="15" fill="#d62728" rx="3" />
<text x="120" y="220" class="legend-item">构件扩展元数据</text>
<rect x="100" y="237" width="15" height="15" fill="#9467bd" rx="3" />
<text x="120" y="245" class="legend-item">构件版本信息</text>
<rect x="100" y="262" width="15" height="15" fill="#66ffbd" rx="3" />
<text x="120" y="270" class="legend-item">数据量偏差</text>
<text x="1520" y="990" text-anchor="end" font-size="10" fill="#666">生成时间: 2025-08-30 02:25:57</text>
</svg>