<svg xmlns="http://www.w3.org/2000/svg" width="1600" height="1000" viewBox="0 0 1600 1000">
<style>
  text {
    font-family: Arial, sans-serif;
    font-size: 12px;
    fill: #333;
  }
  .axis-label { font-size: 14px; }
  .title { font-size: 18px; font-weight: bold; }
  .legend-item { font-size: 11px; }
  .legend-box { fill: white; fill-opacity: 0.85; stroke: #cccccc; stroke-width: 1; rx: 5; }
</style>
<text x="800.0" y="30" text-anchor="middle" class="title">Daily Data Growth Trend</text>
<text x="800.0" y="980" text-anchor="middle" class="axis-label">Date</text>
<g transform="rotate(-90)">
<text x="-500.0" y="20" text-anchor="middle" class="axis-label">Count</text>
</g>
<rect x="0" y="0" width="1600" height="1000" fill="#f8f8f8" />
<line x1="80" y1="920.0" x2="1520" y2="920.0" stroke="#e0e0e0" stroke-width="1" />
<text x="70" y="925.0" text-anchor="end">0</text>
<line x1="80" y1="752.0" x2="1520" y2="752.0" stroke="#e0e0e0" stroke-width="1" />
<text x="70" y="757.0" text-anchor="end">15.3k</text>
<line x1="80" y1="584.0" x2="1520" y2="584.0" stroke="#e0e0e0" stroke-width="1" />
<text x="70" y="589.0" text-anchor="end">30.5k</text>
<line x1="80" y1="416.0" x2="1520" y2="416.0" stroke="#e0e0e0" stroke-width="1" />
<text x="70" y="421.0" text-anchor="end">45.8k</text>
<line x1="80" y1="248.0" x2="1520" y2="248.0" stroke="#e0e0e0" stroke-width="1" />
<text x="70" y="253.0" text-anchor="end">61.1k</text>
<line x1="80" y1="80.0" x2="1520" y2="80.0" stroke="#e0e0e0" stroke-width="1" />
<text x="70" y="85.0" text-anchor="end">76.4k</text>
<line x1="80" y1="80" x2="80" y2="920" stroke="#333333" stroke-width="2" />
<line x1="80" y1="920" x2="1520" y2="920" stroke="#333333" stroke-width="2" />
<circle cx="80.0" cy="920.0" r="4" fill="#1f77b4" />
<circle cx="142.6086956521739" cy="866.2369730799901" r="4" fill="#1f77b4" />
<circle cx="205.2173913043478" cy="752.2985123876042" r="4" fill="#1f77b4" />
<circle cx="267.82608695652175" cy="706.4657519179476" r="4" fill="#1f77b4" />
<circle cx="330.4347826086956" cy="678.8803035719196" r="4" fill="#1f77b4" />
<circle cx="393.04347826086956" cy="665.0325844859351" r="4" fill="#1f77b4" />
<circle cx="455.6521739130435" cy="637.4471361399071" r="4" fill="#1f77b4" />
<circle cx="518.2608695652174" cy="607.6728902576511" r="4" fill="#1f77b4" />
<circle cx="580.8695652173913" cy="580.2304286853466" r="4" fill="#1f77b4" />
<circle cx="643.4782608695652" cy="557.8584980889268" r="4" fill="#1f77b4" />
<circle cx="706.0869565217391" cy="537.4553853768526" r="4" fill="#1f77b4" />
<circle cx="768.695652173913" cy="524.6305716721204" r="4" fill="#1f77b4" />
<circle cx="831.304347826087" cy="511.93774575851734" r="4" fill="#1f77b4" />
<circle cx="893.9130434782609" cy="492.8545109577364" r="4" fill="#1f77b4" />
<circle cx="956.5217391304348" cy="465.75301784584923" r="4" fill="#1f77b4" />
<circle cx="1019.1304347826087" cy="436.44072923254595" r="4" fill="#1f77b4" />
<circle cx="1081.7391304347825" cy="416.9835290235653" r="4" fill="#1f77b4" />
<circle cx="1144.3478260869565" cy="390.3549921632249" r="4" fill="#1f77b4" />
<circle cx="1206.9565217391305" cy="379.3560095691148" r="4" fill="#1f77b4" />
<circle cx="1269.5652173913043" cy="369.22594659993945" r="4" fill="#1f77b4" />
<circle cx="1332.1739130434783" cy="347.43696208100744" r="4" fill="#1f77b4" />
<circle cx="1394.7826086956522" cy="326.0109439876811" r="4" fill="#1f77b4" />
<circle cx="1457.391304347826" cy="307.03769901284124" r="4" fill="#1f77b4" />
<circle cx="1520.0" cy="280.84912145626527" r="4" fill="#1f77b4" />
<path d="M 80.0 920.0 L 142.6086956521739 866.2369730799901 L 205.2173913043478 752.2985123876042 L 267.82608695652175 706.4657519179476 L 330.4347826086956 678.8803035719196 L 393.04347826086956 665.0325844859351 L 455.6521739130435 637.4471361399071 L 518.2608695652174 607.6728902576511 L 580.8695652173913 580.2304286853466 L 643.4782608695652 557.8584980889268 L 706.0869565217391 537.4553853768526 L 768.695652173913 524.6305716721204 L 831.304347826087 511.93774575851734 L 893.9130434782609 492.8545109577364 L 956.5217391304348 465.75301784584923 L 1019.1304347826087 436.44072923254595 L 1081.7391304347825 416.9835290235653 L 1144.3478260869565 390.3549921632249 L 1206.9565217391305 379.3560095691148 L 1269.5652173913043 369.22594659993945 L 1332.1739130434783 347.43696208100744 L 1394.7826086956522 326.0109439876811 L 1457.391304347826 307.03769901284124 L 1520.0 280.84912145626527" fill="none" stroke="#1f77b4" stroke-width="2" />
<circle cx="80.0" cy="920.0" r="4" fill="#ff7f0e" />
<circle cx="142.6086956521739" cy="527.60029697253" r="4" fill="#ff7f0e" />
<circle cx="205.2173913043478" cy="445.734869524569" r="4" fill="#ff7f0e" />
<circle cx="267.82608695652175" cy="419.4802980724283" r="4" fill="#ff7f0e" />
<circle cx="330.4347826086956" cy="406.5454945417549" r="4" fill="#ff7f0e" />
<circle cx="393.04347826086956" cy="396.4264305551736" r="4" fill="#ff7f0e" />
<circle cx="455.6521739130435" cy="378.3880991008332" r="4" fill="#ff7f0e" />
<circle cx="518.2608695652174" cy="355.49921632249016" r="4" fill="#ff7f0e" />
<circle cx="580.8695652173913" cy="337.2409052162675" r="4" fill="#ff7f0e" />
<circle cx="643.4782608695652" cy="322.19429702752495" r="4" fill="#ff7f0e" />
<circle cx="706.0869565217391" cy="306.97170511727666" r="4" fill="#ff7f0e" />
<circle cx="768.695652173913" cy="299.0194407017351" r="4" fill="#ff7f0e" />
<circle cx="831.304347826087" cy="289.17535128000657" r="4" fill="#ff7f0e" />
<circle cx="893.9130434782609" cy="277.9783869992026" r="4" fill="#ff7f0e" />
<circle cx="956.5217391304348" cy="262.99777270602465" r="4" fill="#ff7f0e" />
<circle cx="1019.1304347826087" cy="242.9466274369621" r="4" fill="#ff7f0e" />
<circle cx="1081.7391304347825" cy="230.07781780185326" r="4" fill="#ff7f0e" />
<circle cx="1144.3478260869565" cy="214.00830423185857" r="4" fill="#ff7f0e" />
<circle cx="1206.9565217391305" cy="204.23020870569474" r="4" fill="#ff7f0e" />
<circle cx="1269.5652173913043" cy="196.4319300464707" r="4" fill="#ff7f0e" />
<circle cx="1332.1739130434783" cy="178.71256908735938" r="4" fill="#ff7f0e" />
<circle cx="1394.7826086956522" cy="164.29290290648112" r="4" fill="#ff7f0e" />
<circle cx="1457.391304347826" cy="147.2224819204223" r="4" fill="#ff7f0e" />
<circle cx="1520.0" cy="124.82855335881425" r="4" fill="#ff7f0e" />
<path d="M 80.0 920.0 L 142.6086956521739 527.60029697253 L 205.2173913043478 445.734869524569 L 267.82608695652175 419.4802980724283 L 330.4347826086956 406.5454945417549 L 393.04347826086956 396.4264305551736 L 455.6521739130435 378.3880991008332 L 518.2608695652174 355.49921632249016 L 580.8695652173913 337.2409052162675 L 643.4782608695652 322.19429702752495 L 706.0869565217391 306.97170511727666 L 768.695652173913 299.0194407017351 L 831.304347826087 289.17535128000657 L 893.9130434782609 277.9783869992026 L 956.5217391304348 262.99777270602465 L 1019.1304347826087 242.9466274369621 L 1081.7391304347825 230.07781780185326 L 1144.3478260869565 214.00830423185857 L 1206.9565217391305 204.23020870569474 L 1269.5652173913043 196.4319300464707 L 1332.1739130434783 178.71256908735938 L 1394.7826086956522 164.29290290648112 L 1457.391304347826 147.2224819204223 L 1520.0 124.82855335881425" fill="none" stroke="#ff7f0e" stroke-width="2" />
<circle cx="80.0" cy="920.0" r="4" fill="#2ca02c" />
<circle cx="142.6086956521739" cy="519.890010174059" r="4" fill="#2ca02c" />
<circle cx="205.2173913043478" cy="438.343553221327" r="4" fill="#2ca02c" />
<circle cx="267.82608695652175" cy="412.34195836885084" r="4" fill="#2ca02c" />
<circle cx="330.4347826086956" cy="399.60513652487145" r="4" fill="#2ca02c" />
<circle cx="393.04347826086956" cy="389.5080705034784" r="4" fill="#2ca02c" />
<circle cx="455.6521739130435" cy="371.6567217532378" r="4" fill="#2ca02c" />
<circle cx="518.2608695652174" cy="349.06481150493573" r="4" fill="#2ca02c" />
<circle cx="580.8695652173913" cy="331.01548106800124" r="4" fill="#2ca02c" />
<circle cx="643.4782608695652" cy="316.0898616877938" r="4" fill="#2ca02c" />
<circle cx="706.0869565217391" cy="300.9442626557043" r="4" fill="#2ca02c" />
<circle cx="768.695652173913" cy="293.11298704869796" r="4" fill="#2ca02c" />
<circle cx="831.304347826087" cy="283.26889762696953" r="4" fill="#2ca02c" />
<circle cx="893.9130434782609" cy="272.10493029394775" r="4" fill="#2ca02c" />
<circle cx="956.5217391304348" cy="257.4542854785932" r="4" fill="#2ca02c" />
<circle cx="1019.1304347826087" cy="237.83210053070093" r="4" fill="#2ca02c" />
<circle cx="1081.7391304347825" cy="225.01828580856272" r="4" fill="#2ca02c" />
<circle cx="1144.3478260869565" cy="208.959771221162" r="4" fill="#2ca02c" />
<circle cx="1206.9565217391305" cy="199.1706767124041" r="4" fill="#2ca02c" />
<circle cx="1269.5652173913043" cy="191.3943960183683" r="4" fill="#2ca02c" />
<circle cx="1332.1739130434783" cy="173.7960238677922" r="4" fill="#2ca02c" />
<circle cx="1394.7826086956522" cy="159.40935463469623" r="4" fill="#2ca02c" />
<circle cx="1457.391304347826" cy="142.36093161382564" r="4" fill="#2ca02c" />
<circle cx="1520.0" cy="120.0" r="4" fill="#2ca02c" />
<path d="M 80.0 920.0 L 142.6086956521739 519.890010174059 L 205.2173913043478 438.343553221327 L 267.82608695652175 412.34195836885084 L 330.4347826086956 399.60513652487145 L 393.04347826086956 389.5080705034784 L 455.6521739130435 371.6567217532378 L 518.2608695652174 349.06481150493573 L 580.8695652173913 331.01548106800124 L 643.4782608695652 316.0898616877938 L 706.0869565217391 300.9442626557043 L 768.695652173913 293.11298704869796 L 831.304347826087 283.26889762696953 L 893.9130434782609 272.10493029394775 L 956.5217391304348 257.4542854785932 L 1019.1304347826087 237.83210053070093 L 1081.7391304347825 225.01828580856272 L 1144.3478260869565 208.959771221162 L 1206.9565217391305 199.1706767124041 L 1269.5652173913043 191.3943960183683 L 1332.1739130434783 173.7960238677922 L 1394.7826086956522 159.40935463469623 L 1457.391304347826 142.36093161382564 L 1520.0 120.0" fill="none" stroke="#2ca02c" stroke-width="2" />
<circle cx="80.0" cy="920.0" r="4" fill="#d62728" />
<circle cx="142.6086956521739" cy="842.3691808507713" r="4" fill="#d62728" />
<circle cx="205.2173913043478" cy="730.0145736519372" r="4" fill="#d62728" />
<circle cx="267.82608695652175" cy="691.1331701817581" r="4" fill="#d62728" />
<circle cx="330.4347826086956" cy="663.6027167487007" r="4" fill="#d62728" />
<circle cx="393.04347826086956" cy="649.8759864712514" r="4" fill="#d62728" />
<circle cx="455.6521739130435" cy="622.851486237523" r="4" fill="#d62728" />
<circle cx="518.2608695652174" cy="594.4631121621251" r="4" fill="#d62728" />
<circle cx="580.8695652173913" cy="568.3295295185195" r="4" fill="#d62728" />
<circle cx="643.4782608695652" cy="546.4305551736464" r="4" fill="#d62728" />
<circle cx="706.0869565217391" cy="526.093436357137" r="4" fill="#d62728" />
<circle cx="768.695652173913" cy="513.2906206175928" r="4" fill="#d62728" />
<circle cx="831.304347826087" cy="500.60879368658397" r="4" fill="#d62728" />
<circle cx="893.9130434782609" cy="482.47147138889653" r="4" fill="#d62728" />
<circle cx="956.5217391304348" cy="455.6889487722386" r="4" fill="#d62728" />
<circle cx="1019.1304347826087" cy="426.8716143756702" r="4" fill="#d62728" />
<circle cx="1081.7391304347825" cy="408.3383287045948" r="4" fill="#d62728" />
<circle cx="1144.3478260869565" cy="382.03976132207765" r="4" fill="#d62728" />
<circle cx="1206.9565217391305" cy="371.0407787279677" r="4" fill="#d62728" />
<circle cx="1269.5652173913043" cy="361.0207055847334" r="4" fill="#d62728" />
<circle cx="1332.1739130434783" cy="339.49569664806006" r="4" fill="#d62728" />
<circle cx="1394.7826086956522" cy="319.36755850083864" r="4" fill="#d62728" />
<circle cx="1457.391304347826" cy="300.47130640415764" r="4" fill="#d62728" />
<circle cx="1520.0" cy="274.3047268127698" r="4" fill="#d62728" />
<path d="M 80.0 920.0 L 142.6086956521739 842.3691808507713 L 205.2173913043478 730.0145736519372 L 267.82608695652175 691.1331701817581 L 330.4347826086956 663.6027167487007 L 393.04347826086956 649.8759864712514 L 455.6521739130435 622.851486237523 L 518.2608695652174 594.4631121621251 L 580.8695652173913 568.3295295185195 L 643.4782608695652 546.4305551736464 L 706.0869565217391 526.093436357137 L 768.695652173913 513.2906206175928 L 831.304347826087 500.60879368658397 L 893.9130434782609 482.47147138889653 L 956.5217391304348 455.6889487722386 L 1019.1304347826087 426.8716143756702 L 1081.7391304347825 408.3383287045948 L 1144.3478260869565 382.03976132207765 L 1206.9565217391305 371.0407787279677 L 1269.5652173913043 361.0207055847334 L 1332.1739130434783 339.49569664806006 L 1394.7826086956522 319.36755850083864 L 1457.391304347826 300.47130640415764 L 1520.0 274.3047268127698" fill="none" stroke="#d62728" stroke-width="2" />
<circle cx="80.0" cy="920.0" r="4" fill="#9467bd" />
<circle cx="142.6086956521739" cy="850.5634228833833" r="4" fill="#9467bd" />
<circle cx="205.2173913043478" cy="737.7798553633788" r="4" fill="#9467bd" />
<circle cx="267.82608695652175" cy="692.0570847196634" r="4" fill="#9467bd" />
<circle cx="330.4347826086956" cy="664.4386394258531" r="4" fill="#9467bd" />
<circle cx="393.04347826086956" cy="652.1197789204498" r="4" fill="#9467bd" />
<circle cx="455.6521739130435" cy="624.8643000522452" r="4" fill="#9467bd" />
<circle cx="518.2608695652174" cy="595.1670470481481" r="4" fill="#9467bd" />
<circle cx="580.8695652173913" cy="568.2965325707372" r="4" fill="#9467bd" />
<circle cx="643.4782608695652" cy="546.1555806087937" r="4" fill="#9467bd" />
<circle cx="706.0869565217391" cy="526.0494404267605" r="4" fill="#9467bd" />
<circle cx="768.695652173913" cy="513.2356257046223" r="4" fill="#9467bd" />
<circle cx="831.304347826087" cy="500.46580691286056" r="4" fill="#9467bd" />
<circle cx="893.9130434782609" cy="481.49256193802074" r="4" fill="#9467bd" />
<circle cx="956.5217391304348" cy="454.9080210080567" r="4" fill="#9467bd" />
<circle cx="1019.1304347826087" cy="425.5297384991888" r="4" fill="#9467bd" />
<circle cx="1081.7391304347825" cy="406.4904996287843" r="4" fill="#9467bd" />
<circle cx="1144.3478260869565" cy="383.63461379822365" r="4" fill="#9467bd" />
<circle cx="1206.9565217391305" cy="372.6246322215195" r="4" fill="#9467bd" />
<circle cx="1269.5652173913043" cy="362.49456925234415" r="4" fill="#9467bd" />
<circle cx="1332.1739130434783" cy="340.6505898204416" r="4" fill="#9467bd" />
<circle cx="1394.7826086956522" cy="319.8955096653559" r="4" fill="#9467bd" />
<circle cx="1457.391304347826" cy="301.02125553386304" r="4" fill="#9467bd" />
<circle cx="1520.0" cy="274.7556850991283" r="4" fill="#9467bd" />
<path d="M 80.0 920.0 L 142.6086956521739 850.5634228833833 L 205.2173913043478 737.7798553633788 L 267.82608695652175 692.0570847196634 L 330.4347826086956 664.4386394258531 L 393.04347826086956 652.1197789204498 L 455.6521739130435 624.8643000522452 L 518.2608695652174 595.1670470481481 L 580.8695652173913 568.2965325707372 L 643.4782608695652 546.1555806087937 L 706.0869565217391 526.0494404267605 L 768.695652173913 513.2356257046223 L 831.304347826087 500.46580691286056 L 893.9130434782609 481.49256193802074 L 956.5217391304348 454.9080210080567 L 1019.1304347826087 425.5297384991888 L 1081.7391304347825 406.4904996287843 L 1144.3478260869565 383.63461379822365 L 1206.9565217391305 372.6246322215195 L 1269.5652173913043 362.49456925234415 L 1332.1739130434783 340.6505898204416 L 1394.7826086956522 319.8955096653559 L 1457.391304347826 301.02125553386304 L 1520.0 274.7556850991283" fill="none" stroke="#9467bd" stroke-width="2" />
<circle cx="80.0" cy="920.0" r="4" fill="#66ffbd" />
<circle cx="142.6086956521739" cy="573.6530370940688" r="4" fill="#66ffbd" />
<circle cx="205.2173913043478" cy="606.0450408337229" r="4" fill="#66ffbd" />
<circle cx="267.82608695652175" cy="625.8762064509033" r="4" fill="#66ffbd" />
<circle cx="330.4347826086956" cy="640.7248329529518" r="4" fill="#66ffbd" />
<circle cx="393.04347826086956" cy="644.4754860175433" r="4" fill="#66ffbd" />
<circle cx="455.6521739130435" cy="654.2095856133308" r="4" fill="#66ffbd" />
<circle cx="518.2608695652174" cy="661.3919212472847" r="4" fill="#66ffbd" />
<circle cx="580.8695652173913" cy="670.7850523826546" r="4" fill="#66ffbd" />
<circle cx="643.4782608695652" cy="678.2313635988671" r="4" fill="#66ffbd" />
<circle cx="706.0869565217391" cy="683.4888772788518" r="4" fill="#66ffbd" />
<circle cx="768.695652173913" cy="688.4824153765776" r="4" fill="#66ffbd" />
<circle cx="831.304347826087" cy="691.3311518684521" r="4" fill="#66ffbd" />
<circle cx="893.9130434782609" cy="699.2504193362114" r="4" fill="#66ffbd" />
<circle cx="956.5217391304348" cy="711.701267632744" r="4" fill="#66ffbd" />
<circle cx="1019.1304347826087" cy="721.3913712981549" r="4" fill="#66ffbd" />
<circle cx="1081.7391304347825" cy="728.0347567849974" r="4" fill="#66ffbd" />
<circle cx="1144.3478260869565" cy="738.6047790579371" r="4" fill="#66ffbd" />
<circle cx="1206.9565217391305" cy="739.8146671432892" r="4" fill="#66ffbd" />
<circle cx="1269.5652173913043" cy="742.1684494184287" r="4" fill="#66ffbd" />
<circle cx="1332.1739130434783" cy="746.3590617867847" r="4" fill="#66ffbd" />
<circle cx="1394.7826086956522" cy="753.3984106470151" r="4" fill="#66ffbd" />
<circle cx="1457.391304347826" cy="755.3232326009844" r="4" fill="#66ffbd" />
<circle cx="1520.0" cy="759.1508785437347" r="4" fill="#66ffbd" />
<path d="M 80.0 920.0 L 142.6086956521739 573.6530370940688 L 205.2173913043478 606.0450408337229 L 267.82608695652175 625.8762064509033 L 330.4347826086956 640.7248329529518 L 393.04347826086956 644.4754860175433 L 455.6521739130435 654.2095856133308 L 518.2608695652174 661.3919212472847 L 580.8695652173913 670.7850523826546 L 643.4782608695652 678.2313635988671 L 706.0869565217391 683.4888772788518 L 768.695652173913 688.4824153765776 L 831.304347826087 691.3311518684521 L 893.9130434782609 699.2504193362114 L 956.5217391304348 711.701267632744 L 1019.1304347826087 721.3913712981549 L 1081.7391304347825 728.0347567849974 L 1144.3478260869565 738.6047790579371 L 1206.9565217391305 739.8146671432892 L 1269.5652173913043 742.1684494184287 L 1332.1739130434783 746.3590617867847 L 1394.7826086956522 753.3984106470151 L 1457.391304347826 755.3232326009844 L 1520.0 759.1508785437347" fill="none" stroke="#66ffbd" stroke-width="2" />
<text x="80.0" y="940" text-anchor="middle">08-06</text>
<text x="142.6086956521739" y="940" text-anchor="middle">08-07</text>
<text x="205.2173913043478" y="940" text-anchor="middle">08-08</text>
<text x="267.82608695652175" y="940" text-anchor="middle">08-09</text>
<text x="330.4347826086956" y="940" text-anchor="middle">08-10</text>
<text x="393.04347826086956" y="940" text-anchor="middle">08-11</text>
<text x="455.6521739130435" y="940" text-anchor="middle">08-12</text>
<text x="518.2608695652174" y="940" text-anchor="middle">08-13</text>
<text x="580.8695652173913" y="940" text-anchor="middle">08-14</text>
<text x="643.4782608695652" y="940" text-anchor="middle">08-15</text>
<text x="706.0869565217391" y="940" text-anchor="middle">08-16</text>
<text x="768.695652173913" y="940" text-anchor="middle">08-17</text>
<text x="831.304347826087" y="940" text-anchor="middle">08-18</text>
<text x="893.9130434782609" y="940" text-anchor="middle">08-19</text>
<text x="956.5217391304348" y="940" text-anchor="middle">08-20</text>
<text x="1019.1304347826087" y="940" text-anchor="middle">08-21</text>
<text x="1081.7391304347825" y="940" text-anchor="middle">08-22</text>
<text x="1144.3478260869565" y="940" text-anchor="middle">08-23</text>
<text x="1206.9565217391305" y="940" text-anchor="middle">08-24</text>
<text x="1269.5652173913043" y="940" text-anchor="middle">08-25</text>
<text x="1332.1739130434783" y="940" text-anchor="middle">08-26</text>
<text x="1394.7826086956522" y="940" text-anchor="middle">08-27</text>
<text x="1457.391304347826" y="940" text-anchor="middle">08-28</text>
<text x="1520.0" y="940" text-anchor="middle">08-29</text>
<rect x="90" y="100" width="130" height="185" class="legend-box" />
<text x="100" y="120" class="legend-item">图例:</text>
<rect x="100" y="137" width="15" height="15" fill="#1f77b4" rx="3" />
<text x="120" y="145" class="legend-item">构件聚合数据</text>
<rect x="100" y="162" width="15" height="15" fill="#ff7f0e" rx="3" />
<text x="120" y="170" class="legend-item">构件基本信息</text>
<rect x="100" y="187" width="15" height="15" fill="#2ca02c" rx="3" />
<text x="120" y="195" class="legend-item">构件徽标</text>
<rect x="100" y="212" width="15" height="15" fill="#d62728" rx="3" />
<text x="120" y="220" class="legend-item">构件扩展元数据</text>
<rect x="100" y="237" width="15" height="15" fill="#9467bd" rx="3" />
<text x="120" y="245" class="legend-item">构件版本信息</text>
<rect x="100" y="262" width="15" height="15" fill="#66ffbd" rx="3" />
<text x="120" y="270" class="legend-item">数据量偏差</text>
<text x="1520" y="990" text-anchor="end" font-size="10" fill="#666">生成时间: 2025-08-29 07:29:25</text>
</svg>